<svg width="45" height="45" viewBox="0 0 45 45" fill="none" xmlns="http://www.w3.org/2000/svg">
<g clip-path="url(#clip0_83_551)">
<path d="M7.2224 35.8659C7.39353 35.6761 7.64525 35.4622 7.97818 35.2243C8.31049 34.9868 8.67199 34.7494 9.06178 34.5114C9.45123 34.2739 9.84595 34.0409 10.2452 33.8128C10.6446 33.5846 10.9867 33.385 11.2718 33.214C11.6898 32.9671 12.0989 32.6962 12.4981 32.4013C12.8973 32.1067 13.2581 31.7646 13.5817 31.3748C13.9048 30.9853 14.1663 30.5434 14.3658 30.0488C14.5655 29.5546 14.6652 28.9935 14.6652 28.3663C14.6652 26.8455 14.1186 25.6385 13.0256 24.7446C11.9321 23.8513 10.3593 23.4043 8.30619 23.4043C7.46938 23.4043 6.66649 23.4806 5.89648 23.6325C5.12655 23.7849 4.41807 23.9889 3.77198 24.2456C3.12537 24.5023 2.54572 24.7923 2.03244 25.1154C1.51916 25.4388 1.1102 25.7712 0.806275 26.1134L3.71494 29.4783C4.2661 28.8509 4.83643 28.3425 5.42591 27.9527C6.01505 27.5633 6.70912 27.3681 7.50761 27.3681C8.21074 27.3681 8.75258 27.5298 9.13307 27.8529C9.51311 28.1764 9.70339 28.6041 9.70339 29.1361C9.70339 29.4025 9.62719 29.6351 9.47531 29.8348C9.32291 30.0344 9.07119 30.258 8.71954 30.5048C8.36753 30.7522 7.89248 31.0373 7.29368 31.3604C6.69488 31.6839 5.94851 32.0924 5.0551 32.5865C4.21838 33.0619 3.52465 33.5467 2.9734 34.0408C2.4218 34.5354 1.98463 35.0723 1.66172 35.6521C1.33828 36.2322 1.1102 36.8739 0.97731 37.577C0.844068 38.2805 0.77771 39.079 0.77771 39.9724H14.979V35.8659H7.2224Z" fill="white"/>
<path d="M29.1227 35.5807V23.6895H26.0145L16.7181 35.6093V39.6872H24.5601V43.5939H29.1227V39.6872H31.6322V35.5807H29.1227ZM25.1019 35.5808H21.2237L25.1019 30.5334V35.5808Z" fill="white"/>
<path d="M3.43089 41.0144V42.5411H1.85993V41.0144H0.949463V44.9558H1.85993V43.3404H3.43089V44.9558H4.34135V41.0144H3.43089Z" fill="white"/>
<path d="M9.48163 42.2634C9.38925 42.0229 9.25794 41.8082 9.0877 41.6195C8.91737 41.4307 8.71205 41.2792 8.4715 41.1643C8.23085 41.0496 7.96445 40.9922 7.67204 40.9922C7.3871 40.9922 7.1243 41.0469 6.88374 41.1559C6.6431 41.2652 6.43497 41.4113 6.2591 41.5944C6.08332 41.7776 5.9463 41.9896 5.8483 42.2301C5.75013 42.4708 5.70117 42.7206 5.70117 42.9796C5.70117 43.2349 5.74837 43.4829 5.84276 43.7234C5.93716 43.964 6.06935 44.1778 6.23959 44.3646C6.40984 44.5514 6.61524 44.7023 6.8558 44.8169C7.09635 44.9316 7.36275 44.989 7.65525 44.989C7.94019 44.989 8.2029 44.9336 8.44355 44.8224C8.6841 44.7115 8.89135 44.5643 9.06529 44.3812C9.23931 44.198 9.37519 43.986 9.47328 43.7455C9.57136 43.5049 9.62041 43.2551 9.62041 42.996C9.62041 42.7483 9.57409 42.5039 9.48163 42.2634ZM8.6297 43.4153C8.58707 43.5579 8.52326 43.6855 8.4381 43.7984C8.35302 43.9113 8.24562 44.0029 8.11624 44.0733C7.9866 44.1435 7.8349 44.1788 7.66097 44.1788C7.49441 44.1788 7.3464 44.1455 7.21685 44.0789C7.08721 44.0123 6.97902 43.9233 6.89209 43.8124C6.80517 43.7015 6.73952 43.5747 6.69504 43.4322C6.65057 43.2897 6.62842 43.1427 6.62842 42.9909C6.62842 42.8429 6.64969 42.6976 6.69232 42.5551C6.73495 42.4127 6.79955 42.2859 6.88656 42.1748C6.97357 42.0638 7.0808 41.9741 7.2085 41.9056C7.33621 41.8372 7.48703 41.8029 7.66088 41.8029C7.82743 41.8029 7.97447 41.8353 8.10218 41.9001C8.22979 41.9649 8.33808 42.052 8.42685 42.161C8.51562 42.2702 8.58233 42.3961 8.62671 42.5385C8.6711 42.6809 8.69333 42.8281 8.69333 42.9798C8.6936 43.1277 8.67224 43.273 8.6297 43.4153Z" fill="white"/>
<path d="M13.5123 41.0145V43.0295H13.5121C13.5121 43.1739 13.4982 43.3154 13.4704 43.4542C13.4426 43.5929 13.3954 43.716 13.3289 43.8233C13.2623 43.9306 13.1753 44.0168 13.068 44.0814C12.9607 44.1463 12.8292 44.1787 12.6738 44.1787C12.5184 44.1787 12.3879 44.1472 12.2825 44.0843C12.1769 44.0214 12.0909 43.9362 12.0243 43.8288C11.9577 43.7217 11.9096 43.5995 11.8799 43.4625C11.8502 43.3256 11.8355 43.1814 11.8355 43.0295V41.0144H10.9252V43.0295C10.9252 43.2886 10.9575 43.5365 11.0223 43.7733C11.0871 44.0103 11.1889 44.2183 11.3277 44.3979C11.4665 44.5776 11.6469 44.7209 11.8689 44.8281C12.091 44.9354 12.3593 44.9891 12.6739 44.9891C12.9773 44.9891 13.2392 44.9383 13.4595 44.8364C13.6796 44.7347 13.861 44.5949 14.0035 44.4174C14.1459 44.2397 14.2514 44.0325 14.32 43.7956C14.3884 43.5588 14.4227 43.3034 14.4227 43.0296V41.0145H13.5123Z" fill="white"/>
<path d="M18.3804 43.4901C18.4803 43.4346 18.57 43.3671 18.6497 43.2875C18.7293 43.2078 18.7968 43.1181 18.8523 43.0183C18.9078 42.9183 18.9504 42.8119 18.98 42.6989C19.0095 42.5861 19.0244 42.4686 19.0244 42.3465C19.0244 42.1836 18.992 42.0226 18.9272 41.8635C18.8624 41.7044 18.7727 41.5619 18.658 41.4361C18.5432 41.3104 18.4072 41.2085 18.25 41.1307C18.0927 41.0531 17.9215 41.0142 17.7365 41.0142H15.9601V44.9556H16.8705V43.6844H17.4644L18.2194 44.9556H19.2463L18.3804 43.4901ZM17.9808 42.7379C17.9031 42.8397 17.8105 42.8905 17.7032 42.8905H16.8705V41.8136H17.6755C17.779 41.8136 17.8754 41.8618 17.9642 41.958C18.0529 42.0543 18.0974 42.1838 18.0974 42.3467C18.0973 42.5057 18.0585 42.6362 17.9808 42.7379Z" fill="white"/>
<path d="M23.3075 43.3291C23.25 43.1998 23.1687 43.0896 23.0632 42.9989C22.9577 42.9082 22.8291 42.8323 22.6774 42.7713C22.5255 42.7102 22.3555 42.6539 22.1667 42.6019C22.0296 42.565 21.9094 42.5317 21.8059 42.5021C21.7023 42.4726 21.6162 42.4401 21.5477 42.4049C21.4792 42.3697 21.4274 42.3299 21.3923 42.2855C21.3569 42.2411 21.3394 42.1857 21.3394 42.119C21.3394 41.9006 21.5023 41.7914 21.8279 41.7914C21.9462 41.7914 22.0648 41.8081 22.1833 41.8414C22.3016 41.8747 22.4108 41.9137 22.5109 41.958C22.6107 42.0023 22.6939 42.0451 22.7606 42.0857C22.8272 42.1264 22.8661 42.1542 22.8772 42.169L23.2769 41.414C23.1881 41.3622 23.0909 41.3105 22.9855 41.2585C22.88 41.2068 22.7662 41.1604 22.644 41.1197C22.5219 41.079 22.3942 41.0458 22.261 41.0199C22.1277 40.9941 21.9926 40.981 21.8558 40.981C21.6595 40.981 21.4737 41.0088 21.298 41.0643C21.1222 41.1197 20.9676 41.2022 20.8345 41.3113C20.7013 41.4205 20.5958 41.5547 20.518 41.7138C20.4403 41.8731 20.4015 42.0562 20.4015 42.2635C20.4015 42.4116 20.4227 42.541 20.4653 42.652C20.5079 42.763 20.5725 42.8611 20.6595 42.9463C20.7465 43.0315 20.8566 43.1064 20.9899 43.1711C21.1231 43.236 21.2805 43.296 21.4618 43.3516C21.5987 43.3923 21.7255 43.4292 21.842 43.4626C21.9586 43.4959 22.0594 43.532 22.1445 43.5708C22.2295 43.6097 22.2963 43.6532 22.3444 43.7013C22.3924 43.7493 22.4166 43.8104 22.4166 43.8844C22.4166 44.0806 22.2556 44.1787 21.9337 44.1787C21.7818 44.1787 21.6319 44.1583 21.4839 44.1176C21.3359 44.0769 21.2016 44.0306 21.0814 43.9788C20.9611 43.9271 20.8602 43.8753 20.7789 43.8233C20.6975 43.7716 20.6493 43.7363 20.6345 43.7178L20.2347 44.5116C20.3494 44.5892 20.4743 44.6578 20.6094 44.7169C20.7445 44.7762 20.8843 44.8271 21.0286 44.8696C21.1729 44.9121 21.3208 44.9446 21.4727 44.9667C21.6245 44.989 21.7724 45 21.9168 45C22.1056 45 22.2888 44.9787 22.4665 44.9361C22.6441 44.8936 22.8013 44.8251 22.9384 44.7308C23.0753 44.6364 23.1853 44.5125 23.2686 44.3589C23.352 44.2053 23.3935 44.0174 23.3935 43.7954C23.3935 43.6141 23.3649 43.4587 23.3075 43.3291Z" fill="white"/>
<path d="M25.181 21.256C24.9332 20.2733 24.1582 19.4982 23.1755 19.2505V7.12476H21.8245V19.2506C20.6255 19.5529 19.7352 20.6401 19.7352 21.9316C19.7352 23.4561 20.9755 24.6963 22.4999 24.6963C23.7915 24.6963 24.8786 23.8059 25.1809 22.607H33.2188V21.256H25.181ZM22.5 23.3453C21.7205 23.3453 21.0863 22.7111 21.0863 21.9316C21.0863 21.1521 21.7205 20.5178 22.5 20.5178C23.2795 20.5178 23.9137 21.1521 23.9137 21.9316C23.9137 22.7111 23.2795 23.3453 22.5 23.3453Z" fill="white"/>
<path d="M41.9722 32.0318C43.5811 28.9363 44.4316 25.4436 44.4316 21.9315C44.4316 16.0734 42.1503 10.5659 38.0081 6.42342C33.8656 2.2813 28.3581 0 22.5 0C16.6419 0 11.1343 2.2813 6.99187 6.42351C2.84966 10.5659 0.568359 16.0735 0.568359 21.9316V22.6071H4.69572V21.2562H1.93023C2.03798 17.9303 2.93948 14.802 4.4498 12.0534L6.82699 13.4577L7.51412 12.2945L5.13807 10.8908C6.76687 8.33839 8.94314 6.16819 11.4995 4.54502L12.8974 6.92361L14.0621 6.23912L12.6634 3.85894C15.4019 2.36251 18.5155 1.47042 21.8245 1.36319V4.12736H23.1755V1.36319C26.5011 1.47103 29.6298 2.37112 32.3783 3.88135L30.9739 6.25863L32.137 6.94576L33.5403 4.57016C36.0927 6.19895 38.2632 8.37487 39.8864 10.9312L37.5077 12.3289L38.1922 13.4936L40.5733 12.0946C42.0698 14.8331 42.961 17.9472 43.0683 21.2562H40.3042V22.6071H43.0685C42.9605 25.8564 42.0777 29.0062 40.5455 31.8071L38.1729 30.4055L37.4857 31.5687L39.8576 32.9698C38.7607 34.6974 37.4049 36.267 35.8239 37.6139L36.0065 35.9672L34.6638 35.8182L34.2261 39.764L38.1719 40.2017L38.3209 38.859L36.6615 38.6748C38.839 36.8285 40.6592 34.5583 41.9722 32.0318Z" fill="white"/>
</g>
<defs>
<clipPath id="clip0_83_551">
<rect width="45" height="45" fill="white"/>
</clipPath>
</defs>
</svg>
