<svg width="26" height="26" viewBox="0 0 26 26" fill="none" xmlns="http://www.w3.org/2000/svg">
<path d="M3.89349 10.4536C4.00236 10.4536 4.09661 10.4455 4.16486 10.4398C4.20793 10.4358 8.7043 9.70856 9.34374 8.80019C9.66305 8.34438 9.62161 7.8715 9.54605 7.01269C9.5363 6.903 9.51518 6.6625 9.50218 6.45288C9.77916 6.31866 10.0641 6.20144 10.3553 6.10188C12.0689 5.51116 13.931 5.51116 15.6447 6.10188C15.9354 6.20171 16.22 6.31864 16.497 6.45206C16.4848 6.66413 16.4637 6.90463 16.4539 7.01594C16.3784 7.87556 16.3369 8.34844 16.6562 8.80344C17.2957 9.71425 21.7921 10.439 21.8343 10.4431C22.067 10.4824 22.3055 10.4688 22.5322 10.4034C22.759 10.338 22.9681 10.2224 23.1441 10.0653C23.972 9.2365 23.3561 4.23963 22.7857 3.66844C22.6687 3.55063 19.8746 0.873438 12.9927 0.8125C6.12543 0.873438 3.33124 3.55063 3.20774 3.66925C2.63899 4.238 2.02636 9.23244 2.85593 10.062C2.99374 10.1936 3.15662 10.2961 3.33488 10.3633C3.51314 10.4306 3.70311 10.4613 3.89349 10.4536ZM4.4403 4.74825C4.94486 4.342 7.5278 2.48625 12.9927 2.4375C18.4982 2.48625 21.0795 4.35581 21.5597 4.74663C21.8359 6.08463 21.958 7.44985 21.9237 8.81563C20.5979 8.59769 19.2931 8.26688 18.0237 7.82681C18.0237 7.6505 18.0521 7.36206 18.0708 7.15C18.1289 6.71536 18.1412 6.27582 18.1074 5.83863C18.0896 5.73206 18.0508 5.63011 17.9932 5.53873C17.9356 5.44735 17.8603 5.36838 17.7718 5.30644C17.2715 4.99531 16.7354 4.7457 16.1752 4.563C14.1162 3.85318 11.8789 3.85318 9.81986 4.563C9.25971 4.7457 8.72365 4.99531 8.2233 5.30644C8.1348 5.36838 8.05954 5.44735 8.00192 5.53873C7.9443 5.63011 7.90548 5.73206 7.88774 5.83863C7.85392 6.2772 7.86645 6.71812 7.92511 7.15406C7.94299 7.36288 7.96818 7.6505 7.97143 7.82681C6.7019 8.26669 5.39717 8.5975 4.07143 8.81563C4.03885 7.4502 4.16261 6.08554 4.4403 4.74825Z" fill="white"/>
<path d="M24.7268 21.3175L23.9143 15.4943C23.7878 14.5633 23.3846 13.6917 22.7569 12.9925C22.1291 12.2934 21.3059 11.7989 20.3938 11.5732L14.1416 10.0108C13.3915 9.82388 12.607 9.82388 11.8568 10.0108L5.60627 11.5732C4.69372 11.7985 3.86992 12.2928 3.24173 12.992C2.61353 13.6911 2.20993 14.563 2.08327 15.4943L1.27077 21.3118C1.19797 21.7919 1.22974 22.2819 1.3639 22.7485C1.49807 23.2151 1.73147 23.6473 2.04812 24.0153C2.36477 24.3833 2.7572 24.6786 3.19856 24.8809C3.63991 25.0832 4.11976 25.1878 4.60527 25.1875H21.3948C21.8795 25.1872 22.3584 25.0824 22.7989 24.8802C23.2394 24.6781 23.6311 24.3832 23.9473 24.0159C24.2635 23.6486 24.4967 23.2174 24.6311 22.7517C24.7655 22.286 24.7979 21.7968 24.726 21.3175H24.7268ZM22.7183 22.9539C22.5547 23.1448 22.3517 23.298 22.1232 23.4031C21.8947 23.5081 21.6462 23.5625 21.3948 23.5625H4.60527C4.35376 23.5623 4.10526 23.5078 3.87677 23.4027C3.64828 23.2976 3.44521 23.1443 3.28147 22.9534C3.11772 22.7625 2.99718 22.5385 2.92808 22.2967C2.85899 22.0548 2.84298 21.8009 2.88115 21.5523V21.541L3.69365 15.7178C3.7768 15.1079 4.04123 14.5371 4.45267 14.0793C4.86411 13.6215 5.40358 13.2978 6.00115 13.1503L12.2574 11.587C12.7488 11.4646 13.2627 11.4646 13.754 11.587L20.0103 13.1503C20.6078 13.2978 21.1473 13.6215 21.5588 14.0793C21.9702 14.5371 22.2346 15.1079 22.3178 15.7178L23.1303 21.5523C23.1671 21.8018 23.1494 22.0564 23.0782 22.2984C23.0071 22.5403 22.8843 22.764 22.7183 22.9539Z" fill="white"/>
<path d="M13 13.8125C12.1965 13.8125 11.4111 14.0508 10.743 14.4972C10.0749 14.9435 9.55422 15.578 9.24674 16.3203C8.93926 17.0627 8.85881 17.8795 9.01556 18.6676C9.17231 19.4556 9.55923 20.1795 10.1274 20.7476C10.6955 21.3158 11.4194 21.7027 12.2074 21.8594C12.9955 22.0162 13.8123 21.9357 14.5547 21.6283C15.297 21.3208 15.9315 20.8001 16.3778 20.132C16.8242 19.4639 17.0625 18.6785 17.0625 17.875C17.0612 16.798 16.6328 15.7654 15.8712 15.0038C15.1096 14.2422 14.077 13.8138 13 13.8125ZM13 20.3125C12.5179 20.3125 12.0466 20.1695 11.6458 19.9017C11.245 19.6339 10.9325 19.2532 10.748 18.8078C10.5636 18.3624 10.5153 17.8723 10.6093 17.3995C10.7034 16.9266 10.9355 16.4923 11.2764 16.1514C11.6173 15.8105 12.0516 15.5784 12.5245 15.4843C12.9973 15.3903 13.4874 15.4386 13.9328 15.623C14.3782 15.8075 14.7589 16.12 15.0267 16.5208C15.2945 16.9216 15.4375 17.3929 15.4375 17.875C15.4375 18.5215 15.1807 19.1415 14.7236 19.5986C14.2665 20.0557 13.6465 20.3125 13 20.3125Z" fill="white"/>
</svg>
