<svg width="54" height="54" viewBox="0 0 54 54" fill="none" xmlns="http://www.w3.org/2000/svg">
<g clip-path="url(#clip0_238_1611)">
<path d="M53.209 15.4121H37.4414V12.9484C37.4406 12.1794 37.1347 11.4422 36.591 10.8984C36.0472 10.3547 35.31 10.0488 34.541 10.048H31.1133V2.90143C31.1135 2.46892 31.0169 2.04184 30.8306 1.65149C30.6444 1.26114 30.3731 0.917409 30.0368 0.645483C29.7004 0.373558 29.3075 0.180328 28.8868 0.079952C28.4661 -0.0204243 28.0283 -0.0254035 27.6054 0.065379L2.68734 5.40526C1.92807 5.57105 1.24802 5.99079 0.759445 6.59517C0.270872 7.19956 0.00298457 7.95248 0 8.72964L0 51.0996C0.00111595 51.8685 0.30705 52.6056 0.850737 53.1493C1.39442 53.6929 2.1315 53.9989 2.90039 54H34.541C35.3099 53.9989 36.047 53.6929 36.5907 53.1493C37.1344 52.6056 37.4403 51.8685 37.4414 51.0996V48.6348H53.209C53.4188 48.6348 53.62 48.5515 53.7683 48.4031C53.9167 48.2548 54 48.0536 54 47.8438V16.2032C54 15.9934 53.9167 15.7922 53.7683 15.6438C53.62 15.4955 53.4188 15.4121 53.209 15.4121ZM1.58203 8.72964C1.58372 8.31422 1.72694 7.91179 1.98808 7.58872C2.24923 7.26564 2.61269 7.04123 3.01852 6.95249L27.9366 1.61155C28.1288 1.57033 28.3279 1.57265 28.5192 1.61834C28.7105 1.66403 28.8891 1.75193 29.042 1.87561C29.1949 1.99928 29.3182 2.15559 29.4028 2.33309C29.4875 2.51059 29.5314 2.70478 29.5312 2.90143V10.048H2.90039C2.55091 10.0474 2.21591 9.90836 1.96879 9.66124C1.72167 9.41412 1.58259 9.07912 1.58203 8.72964ZM35.8594 51.0996C35.8588 51.4491 35.7197 51.7841 35.4726 52.0312C35.2255 52.2783 34.8905 52.4174 34.541 52.418H2.90039C2.55091 52.4174 2.21591 52.2783 1.96879 52.0312C1.72167 51.7841 1.58259 51.4491 1.58203 51.0996V11.3126C1.99012 11.5212 2.44205 11.6297 2.90039 11.629H34.541C34.8905 11.6295 35.2255 11.7686 35.4726 12.0157C35.7197 12.2628 35.8588 12.5979 35.8594 12.9473V51.0996ZM37.4414 16.9942H47.1445V47.0528H37.4414V16.9942ZM52.418 47.0528H48.7266V16.9942H52.418V47.0528Z" fill="#fc5e5e"/>
<path d="M43.875 36.5059C43.6652 36.5059 43.464 36.5893 43.3157 36.7376C43.1673 36.8859 43.084 37.0871 43.084 37.2969V43.6251C43.084 43.8349 43.1673 44.036 43.3157 44.1844C43.464 44.3327 43.6652 44.4161 43.875 44.4161C44.0848 44.4161 44.286 44.3327 44.4343 44.1844C44.5827 44.036 44.666 43.8349 44.666 43.6251V37.2969C44.666 37.0871 44.5827 36.8859 44.4343 36.7376C44.286 36.5893 44.0848 36.5059 43.875 36.5059Z" fill="#fc5e5e"/>
<path d="M43.875 32.2872C43.6652 32.2872 43.464 32.3705 43.3157 32.5189C43.1673 32.6672 43.084 32.8684 43.084 33.0782V34.1329C43.084 34.3427 43.1673 34.5439 43.3157 34.6922C43.464 34.8405 43.6652 34.9239 43.875 34.9239C44.0848 34.9239 44.286 34.8405 44.4343 34.6922C44.5827 34.5439 44.666 34.3427 44.666 34.1329V33.0782C44.666 32.8684 44.5827 32.6672 44.4343 32.5189C44.286 32.3705 44.0848 32.2872 43.875 32.2872Z" fill="#fc5e5e"/>
<path d="M40.7109 32.2872C40.5011 32.2872 40.2999 32.3705 40.1516 32.5189C40.0033 32.6672 39.9199 32.8684 39.9199 33.0782V43.6251C39.9199 43.8349 40.0033 44.036 40.1516 44.1844C40.2999 44.3327 40.5011 44.4161 40.7109 44.4161C40.9207 44.4161 41.1219 44.3327 41.2703 44.1844C41.4186 44.036 41.502 43.8349 41.502 43.6251V33.0782C41.502 32.8684 41.4186 32.6672 41.2703 32.5189C41.1219 32.3705 40.9207 32.2872 40.7109 32.2872Z" fill="#fc5e5e"/>
<path d="M42.8203 19.6309H41.7656C41.1365 19.6318 40.5334 19.882 40.0886 20.3269C39.6437 20.7717 39.3934 21.3749 39.3926 22.004V25.168C39.3931 25.7972 39.6433 26.4005 40.0882 26.8454C40.5332 27.2903 41.1364 27.5405 41.7656 27.5411H42.8203C43.4495 27.5405 44.0528 27.2903 44.4977 26.8454C44.9426 26.4005 45.1928 25.7972 45.1934 25.168V22.004C45.1925 21.3749 44.9422 20.7717 44.4974 20.3269C44.0525 19.882 43.4494 19.6318 42.8203 19.6309ZM43.6113 25.168C43.6113 25.3778 43.528 25.579 43.3796 25.7274C43.2313 25.8757 43.0301 25.959 42.8203 25.959H41.7656C41.5558 25.959 41.3546 25.8757 41.2063 25.7274C41.0579 25.579 40.9746 25.3778 40.9746 25.168V22.004C40.9749 21.7943 41.0583 21.5932 41.2066 21.4449C41.3549 21.2967 41.5559 21.2132 41.7656 21.213H42.8203C43.03 21.2132 43.2311 21.2967 43.3793 21.4449C43.5276 21.5932 43.611 21.7943 43.6113 22.004V25.168Z" fill="#fc5e5e"/>
<path d="M31.377 40.8829H6.06445C5.85466 40.8829 5.65346 40.9662 5.50512 41.1146C5.35678 41.2629 5.27344 41.4641 5.27344 41.6739V48.7403C5.27344 48.9501 5.35678 49.1513 5.50512 49.2996C5.65346 49.448 5.85466 49.5313 6.06445 49.5313H31.377C31.5867 49.5313 31.7879 49.448 31.9363 49.2996C32.0846 49.1513 32.168 48.9501 32.168 48.7403V41.6739C32.168 41.4641 32.0846 41.2629 31.9363 41.1146C31.7879 40.9662 31.5867 40.8829 31.377 40.8829ZM30.5859 47.9493H6.85547V42.4649H30.5859V47.9493Z" fill="#fc5e5e"/>
<path d="M18.7207 37.1915C20.9631 37.1915 23.1552 36.5265 25.0197 35.2807C26.8842 34.0349 28.3374 32.2641 29.1955 30.1924C30.0537 28.1207 30.2782 25.841 29.8407 23.6417C29.4033 21.4423 28.3234 19.4221 26.7378 17.8365C25.1522 16.2508 23.132 15.171 20.9326 14.7335C18.7333 14.2961 16.4536 14.5206 14.3819 15.3787C12.3102 16.2369 10.5394 17.6901 9.29359 19.5546C8.04777 21.4191 7.38281 23.6112 7.38281 25.8536C7.38616 28.8595 8.58176 31.7414 10.7073 33.867C12.8328 35.9925 15.7147 37.1881 18.7207 37.1915ZM8.99754 26.6446H13.1973C13.2827 29.276 13.7869 31.7345 14.6433 33.6361C14.8581 34.1201 15.112 34.5857 15.4027 35.0283C13.645 34.3899 12.1073 33.2607 10.972 31.7747C9.83675 30.2887 9.15149 28.5083 8.99754 26.6446ZM18.7207 16.0977C20.5042 16.0977 22.4807 19.7417 22.661 25.0626H14.7804C14.9607 19.7417 16.9372 16.0977 18.7207 16.0977ZM22.661 26.6446C22.4807 31.9665 20.5042 35.6094 18.7207 35.6094C16.9372 35.6094 14.9607 31.9665 14.7804 26.6446H22.661ZM22.043 35.0283C22.3336 34.5857 22.5876 34.1201 22.8023 33.6361C23.6587 31.7377 24.1629 29.276 24.2483 26.6446H28.4481C28.2941 28.5083 27.6089 30.2887 26.4736 31.7747C25.3383 33.2607 23.8006 34.3899 22.043 35.0283ZM28.4481 25.0626H24.2441C24.1587 22.4322 23.6545 19.9737 22.7981 18.0721C22.5831 17.5879 22.3292 17.122 22.0387 16.6789C23.7962 17.3176 25.3337 18.4469 26.4689 19.9328C27.6041 21.4187 28.2895 23.199 28.4439 25.0626H28.4481ZM15.3984 16.6789C15.108 17.122 14.8541 17.5879 14.6391 18.0721C13.7827 19.9705 13.2785 22.4322 13.1931 25.0626H8.99754C9.15152 23.1995 9.8363 21.4196 10.9707 19.9337C12.1052 18.4479 13.6418 17.3183 15.3984 16.6789Z" fill="#fc5e5e"/>
<path d="M15.5566 45.9981H27.1582C27.368 45.9981 27.5692 45.9148 27.7175 45.7664C27.8659 45.6181 27.9492 45.4169 27.9492 45.2071C27.9492 44.9973 27.8659 44.7961 27.7175 44.6478C27.5692 44.4994 27.368 44.4161 27.1582 44.4161H15.5566C15.3469 44.4161 15.1457 44.4994 14.9973 44.6478C14.849 44.7961 14.7656 44.9973 14.7656 45.2071C14.7656 45.4169 14.849 45.6181 14.9973 45.7664C15.1457 45.9148 15.3469 45.9981 15.5566 45.9981Z" fill="#fc5e5e"/>
<path d="M10.2832 45.9981H12.3926C12.6024 45.9981 12.8036 45.9148 12.9519 45.7664C13.1003 45.6181 13.1836 45.4169 13.1836 45.2071C13.1836 44.9973 13.1003 44.7961 12.9519 44.6478C12.8036 44.4994 12.6024 44.4161 12.3926 44.4161H10.2832C10.0734 44.4161 9.87222 44.4994 9.72387 44.6478C9.57553 44.7961 9.49219 44.9973 9.49219 45.2071C9.49219 45.4169 9.57553 45.6181 9.72387 45.7664C9.87222 45.9148 10.0734 45.9981 10.2832 45.9981Z" fill="#fc5e5e"/>
</g>
<defs>
<clipPath id="clip0_238_1611">
<rect width="54" height="54" fill="white"/>
</clipPath>
</defs>
</svg>
