<svg width="54" height="54" viewBox="0 0 54 54" fill="none" xmlns="http://www.w3.org/2000/svg">
<path d="M17.7925 15.4405C11.6901 15.4405 6.74316 20.3875 6.74316 26.4898C6.74316 32.5921 11.6901 37.5391 17.7925 37.5391C23.8948 37.5391 28.8418 32.5921 28.8418 26.4898C28.8418 20.3875 23.8948 15.4405 17.7925 15.4405ZM25.9697 22.3463H21.9876C21.6068 20.438 21.012 18.8956 20.4046 17.7056C22.838 18.4317 24.8355 20.1191 25.9697 22.3463ZM20.5548 26.4898C20.5548 27.3118 20.4932 28.067 20.4086 28.7917H15.1767C15.0917 28.067 15.03 27.3117 15.03 26.4898C15.03 25.6674 15.0907 24.9124 15.1748 24.1879H20.4105C20.4941 24.9124 20.5548 25.6675 20.5548 26.4898ZM17.5245 17.309C17.6153 17.3063 17.7007 17.282 17.7925 17.282C17.8851 17.282 17.9709 17.3068 18.0631 17.3094C18.7541 18.3696 19.5944 20.0467 20.1033 22.3463H15.4819C15.9932 20.0387 16.8366 18.3625 17.5245 17.309ZM15.1803 17.7056C14.5752 18.8931 13.9799 20.4372 13.5987 22.3463H9.61518C10.7496 20.1191 12.7471 18.4322 15.1803 17.7056ZM8.58471 26.4898C8.58471 25.6903 8.71915 24.9279 8.91159 24.1879H13.319C13.2421 24.9171 13.1886 25.6756 13.1886 26.4898C13.1886 27.3044 13.2435 28.062 13.3216 28.7917H8.91159C8.71915 28.0517 8.58471 27.2893 8.58471 26.4898ZM9.61518 30.6333H13.6032C13.9881 32.5458 14.5837 34.1015 15.1777 35.2732C12.7457 34.5466 10.7491 32.8597 9.61518 30.6333ZM18.0599 35.6706C17.9691 35.6734 17.8842 35.6975 17.7925 35.6975C17.7007 35.6975 17.6158 35.6733 17.5245 35.6706C16.8646 34.6555 16.0049 32.9746 15.4843 30.6333H20.1008C19.581 32.9731 18.7222 34.6532 18.0599 35.6706ZM20.4082 35.2732C21.003 34.1003 21.5983 32.546 21.9822 30.6333H25.9697C24.8358 32.8595 22.8396 34.5462 20.4082 35.2732ZM22.2637 28.7917C22.3416 28.062 22.3963 27.3044 22.3963 26.4898C22.3963 25.6756 22.3433 24.9171 22.2664 24.1879H26.6733C26.8658 24.9279 27.0002 25.6904 27.0002 26.4898C27.0002 27.2893 26.8658 28.0517 26.6733 28.7917H22.2637Z" fill="#fc5e5e"/>
<path d="M27 43.0637H8.58447V44.9053H27V43.0637Z" fill="#fc5e5e"/>
<path d="M39.8203 29.7984L38.8667 33.3559L40.6455 33.8327L41.599 30.2752L39.8203 29.7984Z" fill="#fc5e5e"/>
<path d="M37.9132 36.9102L34.5771 49.3611L36.3559 49.8377L39.692 37.3868L37.9132 36.9102Z" fill="#fc5e5e"/>
<path d="M50.0508 5.846L28.7053 0.126376C28.3861 0.0408594 28.0654 0 27.7499 0C26.1237 0.000115097 24.6356 1.08536 24.1946 2.73079L22.2695 9.91582H3.05981C2.04282 9.91582 1.21826 10.7403 1.21826 11.7574V48.5884C1.21826 49.6055 2.04282 50.4299 3.05981 50.4299H24.3298L37.182 53.8736C37.5013 53.9591 37.8217 54 38.1374 54C39.7636 54 41.2517 52.9146 41.6928 51.2692L52.6553 10.3568C53.1819 8.39206 52.0156 6.37245 50.0508 5.846ZM3.05981 48.5884V11.7574H30.6831C31.6987 11.7574 32.5246 12.5835 32.5246 13.5989V46.7468C32.5246 47.7622 31.6987 48.5884 30.6831 48.5884H3.05981ZM50.8767 9.88015L39.9142 50.7926C39.6984 51.5969 38.9678 52.1586 38.1373 52.1586C37.9773 52.1586 37.8163 52.1372 37.6585 52.0948L31.2369 50.3741C33.0059 50.1053 34.366 48.5913 34.366 46.7469V32.1476L35.3093 32.4003L36.2628 28.8427L34.4838 28.3661L34.366 28.8062V14.1718C34.9402 14.3256 35.6029 14.5032 36.2453 14.6754L38.4232 21.7955L39.9478 22.2041L39.8035 15.6288C40.8047 15.8972 41.8271 16.171 42.4969 16.3505L43.6807 18.4381L44.6973 18.7104L44.5224 15.8038L46.1271 13.374L45.1106 13.1017L43.0419 14.3177C42.3716 14.1383 41.3497 13.8643 40.348 13.5959L43.7608 7.97391L42.2363 7.56532L36.7902 12.6427C35.7192 12.3558 34.5508 12.0425 33.9177 11.873C33.2974 10.7136 32.0893 9.91594 30.6829 9.91594H24.1755L25.9729 3.20763C26.1888 2.40345 26.9194 1.84178 27.7498 1.84166C27.9098 1.84166 28.0708 1.86307 28.2286 1.90543L49.5741 7.62505C50.0494 7.75235 50.4463 8.05713 50.6923 8.4831C50.9384 8.90896 51.0039 9.40514 50.8767 9.88015Z" fill="#fc5e5e"/>
<path d="M39.3412 24.9307L38.8701 26.7109L40.6201 27.1739L41.0911 25.3937L39.3412 24.9307Z" fill="#fc5e5e"/>
<path d="M42.8363 25.8593L42.3652 27.6394L44.1152 28.1025L44.5862 26.3223L42.8363 25.8593Z" fill="#fc5e5e"/>
<path d="M35.846 24.005L35.375 25.7851L37.125 26.2482L37.596 24.468L35.846 24.005Z" fill="#fc5e5e"/>
</svg>
