<svg width="54" height="54" viewBox="0 0 54 54" fill="none" xmlns="http://www.w3.org/2000/svg">
<path d="M30.375 11.8114C30.375 6.22953 25.8319 1.68646 20.25 1.68646C14.6681 1.68646 10.125 6.22953 10.125 11.8114C10.125 12.0943 10.1349 12.3803 10.153 12.67C10.2025 13.8149 11.9287 13.7086 11.8372 12.566C11.8213 12.309 11.8109 12.0569 11.8109 11.8113C11.8109 7.14148 15.5785 3.37379 20.2484 3.37379C24.9183 3.37379 28.6859 7.14142 28.6859 11.8113C28.6859 12.8558 28.5431 13.9939 28.2739 15.1748C28.1326 15.1907 27.9794 15.2153 27.8405 15.2523V14.3426C27.8421 13.8765 27.4662 13.4972 27 13.4955H25.3125C23.4043 13.4955 22.7335 11.546 22.7335 11.546C22.6151 11.186 22.2716 10.9499 21.8931 10.9676C21.5443 10.9835 21.2424 11.2144 21.1333 11.546C21.1333 11.546 20.4597 13.4955 18.5609 13.4955H13.4967C13.0306 13.4972 12.6545 13.8765 12.6562 14.3426V15.2456C10.9691 14.8352 9.28125 16.0199 9.28125 17.7044C9.28125 20.1719 11.0179 21.7156 13.0806 21.9132C13.508 23.1398 14.2417 24.2175 15.1875 25.0641V29.5317C15.1874 29.6223 15.2019 29.7126 15.2304 29.7987C16.0163 31.7378 17.8642 32.9067 20.2517 32.9067C22.6392 32.9067 24.4961 31.7303 25.2713 29.7987C25.3004 29.7126 25.3155 29.6223 25.3158 29.5317V25.0675C26.2617 24.2221 26.9975 23.1445 27.4235 21.9182C29.3732 21.7201 31.2188 20.2292 31.2188 17.7036C31.1869 16.7295 30.645 15.9723 29.9235 15.5489C30.2136 14.2741 30.375 13.0076 30.375 11.8114ZM37.1234 5.90683V6.74729H36.2829C34.8952 6.74729 33.7484 7.89573 33.7484 9.28344V15.1865C33.7484 20.0295 37.4557 23.9991 42.1875 24.4249V36.2835C42.1875 37.7003 41.0765 38.8114 39.6595 38.8114H38.7697C38.3381 33.1457 33.621 28.6864 27.8438 28.6864C26.7032 28.6704 26.7032 30.3895 27.8438 30.3739C32.7152 30.3739 36.6603 34.0567 37.0822 38.8114H28.5656C28.1879 37.3639 26.8777 36.2835 25.3158 36.2835C23.4618 36.2835 21.9391 37.7979 21.9391 39.6519C21.9391 41.5059 23.4618 43.0285 25.3158 43.0285C26.8763 43.0285 28.1849 41.9459 28.5639 40.499H39.6595C41.9821 40.499 43.8766 38.606 43.8766 36.2835V24.4249C48.6058 23.996 52.3158 20.0272 52.3158 15.1865V9.28344C52.3158 7.89573 51.1673 6.74729 49.7796 6.74729H48.9391V5.90683C48.9391 4.75864 47.2516 4.76435 47.2516 5.90683V9.28344C47.2759 10.3838 48.9148 10.3838 48.9391 9.28344V8.43647H49.7796C50.2616 8.43647 50.6283 8.80146 50.6283 9.28344V15.1865C50.6283 19.408 47.2495 22.7801 43.028 22.7801C38.8064 22.7801 35.4359 19.408 35.4359 15.1865V9.28344C35.4359 8.80146 35.8009 8.43647 36.2829 8.43647H37.1234V9.28344C37.1234 10.4095 38.8125 10.4095 38.8125 9.28344V5.90683C38.8125 4.78948 37.1234 4.74847 37.1234 5.90683ZM21.9391 13.5056C22.4755 14.2272 23.5576 15.1832 25.3141 15.1832H26.1546V19.4068C26.1546 22.6935 23.5367 25.3114 20.25 25.3114C16.9634 25.3114 14.3454 22.6935 14.3454 19.4068V15.1832H18.5625C20.3217 15.1832 21.3334 14.2654 21.9391 13.5056ZM27.8075 20.1254C27.8746 19.148 27.8421 18.1563 27.8421 17.1409C28.4697 16.4931 29.528 17.0493 29.5247 17.7374C29.5186 19.0076 28.751 19.8482 27.8075 20.1254ZM12.6942 20.1254C11.7507 19.8482 10.977 19.003 10.977 17.7374C10.977 16.9046 12.1545 16.5769 12.6579 17.1376C12.652 18.1118 12.6432 19.2 12.6942 20.1254ZM16.875 26.2112C17.8913 26.7149 19.0372 26.999 20.25 26.999C21.4639 26.999 22.609 26.7144 23.6266 26.2112V29.3258C23.6266 29.3258 22.9253 31.2193 20.2516 31.2193C17.578 31.2193 16.875 29.3258 16.875 29.3258V26.2112ZM12.6562 28.6864C6.59415 28.6864 1.6875 33.5932 1.6875 39.6552V51.4677C1.68755 51.9337 2.06528 52.3114 2.53125 52.3115H8.46387H32.0889H37.9687C38.4347 52.3114 38.8124 51.9337 38.8125 51.4677V43.0302C38.8284 41.8892 37.1089 41.8892 37.125 43.0302V45.563H32.9079V43.0285C32.9079 41.8342 31.2204 41.9295 31.2204 43.0285V50.6239H9.2829V43.0285C9.2829 41.8901 7.5954 41.8876 7.5954 43.0285V45.563H3.375V39.6552C3.375 34.4989 7.49985 30.3739 12.6562 30.3739C13.7968 30.3899 13.7968 28.6708 12.6562 28.6864ZM25.3158 37.9644C26.2578 37.9644 27.0033 38.7099 27.0033 39.6519C27.0033 40.5939 26.2578 41.341 25.3158 41.341C24.3738 41.341 23.6266 40.5939 23.6266 39.6519C23.6266 38.7099 24.3738 37.9644 25.3158 37.9644ZM3.375 47.2522H7.5954V50.6239H3.375V47.2522ZM32.9079 47.2522H37.125V50.6239H32.9079V47.2522Z" fill="#ff0000"/>
</svg>
