<svg width="54" height="54" viewBox="0 0 54 54" fill="none" xmlns="http://www.w3.org/2000/svg">
<g clip-path="url(#clip0_233_611)">
<path d="M39.1454 0.000309935C31.6327 0.05318 25.4651 6.20793 25.3971 13.7203C25.3595 17.8602 27.1197 21.7086 30.2485 24.3779C30.0375 24.9332 29.7726 25.4667 29.4575 25.9702C28.5299 27.4526 29.4889 29.3977 31.2294 29.5687C31.721 29.6176 32.1642 29.2581 32.213 28.7611C32.2616 28.2664 31.9001 27.826 31.4054 27.7774C30.9938 27.7371 30.7645 27.2744 30.9833 26.9248C31.4873 26.1192 31.8843 25.2495 32.1631 24.3401C32.2727 23.9828 32.1502 23.5952 31.8552 23.3658C28.8603 21.0367 27.1624 17.527 27.1969 13.7364C27.2561 7.20065 32.622 1.84604 39.1582 1.80003C45.9003 1.75908 51.2941 7.19784 51.2941 13.8486C51.2941 23.9653 43.0797 26.7843 38.1832 27.5643C37.6924 27.6425 37.3579 28.1038 37.436 28.5946C37.5141 29.0853 37.9743 29.4193 38.4663 29.3417C47.2874 27.9365 53.0938 22.7351 53.0938 13.8487C53.0938 6.21625 46.9002 -0.0507603 39.1454 0.000309935Z" fill="#fc5e5e"/>
<path d="M39.7081 7.53674H38.8081C37.3196 7.53674 36.1084 8.74792 36.1084 10.2365V11.6989H34.646C33.1575 11.6989 31.9463 12.91 31.9463 14.3986V15.2985C31.9463 16.7871 33.1575 17.9983 34.646 17.9983H36.1084V19.4606C36.1084 20.9492 37.3196 22.1604 38.8081 22.1604H39.7081C41.1966 22.1604 42.4078 20.9492 42.4078 19.4606V17.9983H43.8702C45.3587 17.9983 46.5699 16.7871 46.5699 15.2985V14.3986C46.5699 12.91 45.3587 11.6989 43.8702 11.6989H42.4078V10.2365C42.4078 8.7478 41.1967 7.53674 39.7081 7.53674ZM43.8702 13.4987C44.3664 13.4987 44.7701 13.9024 44.7701 14.3986V15.2985C44.7701 15.7947 44.3664 16.1984 43.8702 16.1984H41.5079C41.0109 16.1984 40.608 16.6014 40.608 17.0983V19.4606C40.608 19.9568 40.2043 20.3605 39.7081 20.3605H38.8081C38.312 20.3605 37.9082 19.9568 37.9082 19.4606V17.0983C37.9082 16.6014 37.5053 16.1984 37.0083 16.1984H34.646C34.1498 16.1984 33.7461 15.7947 33.7461 15.2985V14.3986C33.7461 13.9024 34.1498 13.4987 34.646 13.4987H37.0083C37.5053 13.4987 37.9082 13.0957 37.9082 12.5988V10.2365C37.9082 9.7403 38.312 9.33657 38.8081 9.33657H39.7081C40.2043 9.33657 40.608 9.7403 40.608 10.2365V12.5988C40.608 13.0957 41.0109 13.4987 41.5079 13.4987H43.8702Z" fill="#fc5e5e"/>
<path d="M38.6772 35.1793C37.008 34.2251 34.8845 34.5167 33.5132 35.8878C33.1881 36.2135 31.3744 39.5918 26.8572 37.9064C22.0806 36.1245 17.8452 29.6942 21.2416 25.9422C21.8803 25.2464 22.3087 25.0495 22.4853 24.8733C23.8606 23.4979 24.1546 21.3716 23.2004 19.7025C21.6239 16.9444 19.33 14.6513 16.5665 13.0707C14.9271 12.1331 12.8079 12.4259 11.413 13.782C0.536542 24.335 9.7681 41.814 22.6657 48.8178C19.9125 52.3682 15.1218 52.9499 11.8237 51.3619C12.8517 50.373 13.5029 49.1081 13.574 47.7776C13.6618 46.1036 13.0511 44.76 11.8983 44.0912C9.71703 42.8264 6.67262 44.4979 6.99456 47.7428C7.12426 49.0472 7.70763 50.2489 8.63736 51.2435C8.41474 51.3223 8.1847 51.388 7.94904 51.4388C6.88072 51.6692 4.22147 51.8686 2.60432 48.7496C2.37552 48.3083 1.8322 48.1365 1.39113 48.3649C0.949942 48.5937 0.777721 49.1368 1.00641 49.5781C2.52468 52.5065 5.26155 53.8594 8.32869 53.1982C8.99631 53.0542 9.62715 52.8227 10.2042 52.5213C11.0481 53.0474 12.029 53.4536 13.1129 53.7069C17.4203 54.7137 22.157 53.1224 24.7514 48.9681C25.0322 48.5186 24.8652 47.9227 24.389 47.6858C11.9746 41.5075 2.59386 24.8469 12.6671 15.0731C13.4905 14.2724 14.7265 14.0916 15.673 14.6331C18.1581 16.0544 20.2207 18.1162 21.6379 20.5958C22.1782 21.5407 22.0228 22.7433 21.2649 23.5467C21.0896 23.6694 20.9224 23.7972 20.7616 23.9286C19.1147 21.3969 17.093 19.1547 14.7379 17.2537C14.3511 16.9413 13.7845 17.0019 13.4725 17.3887C13.1603 17.7754 13.2207 18.3421 13.6075 18.6541C15.9243 20.5244 17.8978 22.7464 19.4813 25.2653C13.8273 32.9523 28.4731 46.1815 34.8323 37.1153C35.6318 36.3553 36.8361 36.2 37.7842 36.7418C40.2637 38.1592 42.3255 40.2219 43.7467 42.7067C44.2881 43.6533 44.1072 44.8893 43.3069 45.7124C43.175 45.8481 43.0423 45.9794 42.909 46.1072C41.4306 43.8182 39.6339 41.7511 37.5561 39.9524C37.1804 39.6269 36.612 39.668 36.2868 40.0437C35.9614 40.4196 36.0024 40.9879 36.3782 41.3131C38.387 43.0522 40.1146 45.0585 41.5242 47.284C37.4268 50.351 32.9202 50.2762 29.6775 49.5773C29.1914 49.473 28.7129 49.7815 28.6082 50.2675C28.5034 50.7534 28.8123 51.2321 29.2983 51.3368C35.3728 52.6461 40.6363 51.039 44.5974 46.9674C45.9542 45.5719 46.2467 43.4525 45.3091 41.8133C43.7287 39.0498 41.4355 36.7558 38.6772 35.1793ZM11.7767 47.6825C11.7244 48.6611 11.1509 49.6143 10.2713 50.3312C9.42096 49.5601 8.88888 48.6039 8.78562 47.565C8.6089 45.785 10.0808 45.1176 10.9954 45.6483C11.5512 45.9707 11.8286 46.6934 11.7767 47.6825Z" fill="#fc5e5e"/>
</g>
<defs>
<clipPath id="clip0_233_611">
<rect width="54" height="54" fill="white"/>
</clipPath>
</defs>
</svg>
