<svg width="54" height="54" viewBox="0 0 54 54" fill="none" xmlns="http://www.w3.org/2000/svg">
<g clip-path="url(#clip0_233_615)">
<path d="M8.66723 43.0391C8.87257 42.8113 9.17464 42.5547 9.57415 42.2692C9.97293 41.9842 10.4067 41.6993 10.8745 41.4137C11.3418 41.1287 11.8155 40.849 12.2946 40.5753C12.7739 40.3015 13.1844 40.062 13.5265 39.8568C14.0281 39.5605 14.519 39.2354 14.998 38.8816C15.4772 38.5281 15.9101 38.1175 16.2983 37.6497C16.686 37.1824 16.9999 36.6521 17.2393 36.0585C17.479 35.4655 17.5986 34.7922 17.5986 34.0395C17.5986 32.2146 16.9427 30.7662 15.631 29.6935C14.3189 28.6216 12.4315 28.0851 9.96777 28.0851C8.96359 28.0851 8.00013 28.1767 7.07612 28.3589C6.15221 28.5418 5.30202 28.7867 4.52672 29.0947C3.75078 29.4028 3.05521 29.7507 2.43927 30.1384C1.82333 30.5265 1.33258 30.9254 0.967871 31.336L4.45827 35.3739C5.11966 34.6211 5.80405 34.011 6.51144 33.5432C7.2184 33.0759 8.05129 32.8417 9.00947 32.8417C9.85323 32.8417 10.5034 33.0358 10.96 33.4235C11.4161 33.8117 11.6444 34.3249 11.6444 34.9633C11.6444 35.283 11.553 35.5621 11.3707 35.8017C11.1878 36.0412 10.8858 36.3096 10.4638 36.6058C10.0414 36.9026 9.47132 37.2447 8.75276 37.6324C8.0342 38.0207 7.13856 38.5109 6.06646 39.1038C5.06239 39.6743 4.22993 40.2561 3.56842 40.8489C2.9065 41.4425 2.3819 42.0867 1.9944 42.7825C1.60628 43.4786 1.33258 44.2486 1.17311 45.0924C1.01322 45.9366 0.933594 46.8948 0.933594 47.9668H17.9751V43.0391H8.66723Z" fill="#ff0000"/>
<path d="M34.947 42.6969V28.4273H31.2171L20.0615 42.7311V47.6246H29.4719V52.3127H34.947V47.6246H37.9584V42.6969H34.947ZM30.122 42.697H25.4682L30.122 36.6401V42.697Z" fill="#ff0000"/>
<path d="M4.11736 49.2172V51.0492H2.2322V49.2172H1.13965V53.9468H2.2322V52.0083H4.11736V53.9468H5.20991V49.2172H4.11736Z" fill="#ff0000"/>
<path d="M11.3783 50.7159C11.2675 50.4273 11.1099 50.1697 10.9056 49.9432C10.7012 49.7167 10.4549 49.5348 10.1662 49.397C9.87741 49.2594 9.55773 49.1905 9.20684 49.1905C8.86491 49.1905 8.54955 49.2561 8.26088 49.387C7.97211 49.5181 7.72236 49.6935 7.51132 49.9132C7.30038 50.133 7.13595 50.3874 7.01835 50.676C6.90054 50.9648 6.8418 51.2645 6.8418 51.5754C6.8418 51.8817 6.89843 52.1794 7.01171 52.4679C7.12498 52.7567 7.28361 53.0132 7.4879 53.2373C7.69219 53.4616 7.93868 53.6427 8.22735 53.7802C8.51601 53.9178 8.83569 53.9867 9.18669 53.9867C9.52862 53.9867 9.84387 53.9202 10.1326 53.7867C10.4213 53.6536 10.67 53.477 10.8787 53.2573C11.0876 53.0375 11.2506 52.7831 11.3683 52.4944C11.486 52.2057 11.5449 51.906 11.5449 51.5951C11.5449 51.2978 11.4893 51.0046 11.3783 50.7159ZM10.356 52.0983C10.3049 52.2693 10.2283 52.4225 10.1261 52.5579C10.024 52.6934 9.89513 52.8033 9.73988 52.8878C9.58431 52.9721 9.40227 53.0144 9.19355 53.0144C8.99368 53.0144 8.81607 52.9744 8.66061 52.8946C8.50505 52.8146 8.37521 52.7079 8.2709 52.5748C8.1666 52.4417 8.08781 52.2895 8.03444 52.1185C7.98108 51.9476 7.9545 51.7711 7.9545 51.589C7.9545 51.4114 7.98002 51.237 8.03117 51.0659C8.08233 50.8951 8.15984 50.7429 8.26426 50.6097C8.36867 50.4765 8.49735 50.3688 8.65059 50.2866C8.80384 50.2045 8.98483 50.1633 9.19344 50.1633C9.39331 50.1633 9.56976 50.2023 9.723 50.28C9.87614 50.3577 10.0061 50.4622 10.1126 50.593C10.2191 50.7241 10.2992 50.8751 10.3524 51.046C10.4057 51.217 10.4324 51.3936 10.4324 51.5756C10.4327 51.7531 10.4071 51.9274 10.356 52.0983Z" fill="#ff0000"/>
<path d="M16.2149 49.2173V51.6353H16.2146C16.2146 51.8085 16.198 51.9783 16.1646 52.1449C16.1313 52.3114 16.0747 52.4591 15.9948 52.5879C15.9149 52.7166 15.8105 52.82 15.6817 52.8976C15.553 52.9755 15.3952 53.0143 15.2088 53.0143C15.0222 53.0143 14.8657 52.9765 14.7391 52.901C14.6124 52.8256 14.5092 52.7233 14.4293 52.5945C14.3494 52.4659 14.2916 52.3192 14.2561 52.1549C14.2204 51.9906 14.2028 51.8175 14.2028 51.6353V49.2172H13.1104V51.6353C13.1104 51.9462 13.1492 52.2437 13.2269 52.5278C13.3046 52.8122 13.4269 53.0618 13.5934 53.2774C13.7599 53.493 13.9765 53.6649 14.2429 53.7936C14.5094 53.9224 14.8313 53.9868 15.2089 53.9868C15.573 53.9868 15.8871 53.9258 16.1516 53.8036C16.4157 53.6815 16.6333 53.5138 16.8043 53.3007C16.9753 53.0875 17.1018 52.8389 17.1841 52.5546C17.2663 52.2705 17.3074 51.964 17.3074 51.6354V49.2173H16.2149Z" fill="#ff0000"/>
<path d="M22.0568 52.1883C22.1766 52.1216 22.2843 52.0406 22.3799 51.9451C22.4754 51.8495 22.5564 51.7418 22.623 51.622C22.6896 51.5021 22.7407 51.3744 22.7763 51.2388C22.8117 51.1034 22.8295 50.9624 22.8295 50.8159C22.8295 50.6204 22.7906 50.4273 22.7129 50.2363C22.6351 50.0454 22.5275 49.8744 22.3898 49.7235C22.2521 49.5725 22.0889 49.4503 21.9002 49.357C21.7114 49.2638 21.5061 49.2171 21.2841 49.2171H19.1523V53.9469H20.2448V52.4214H20.9576L21.8635 53.9469H23.0958L22.0568 52.1883ZM21.5772 51.2856C21.4839 51.4078 21.3728 51.4688 21.2441 51.4688H20.2449V50.1765H21.2109C21.335 50.1765 21.4507 50.2342 21.5573 50.3497C21.6638 50.4652 21.7171 50.6207 21.7171 50.8161C21.717 51.0069 21.6704 51.1635 21.5772 51.2856Z" fill="#ff0000"/>
<path d="M27.9686 51.9948C27.8996 51.8397 27.802 51.7075 27.6755 51.5987C27.5488 51.4899 27.3945 51.3987 27.2124 51.3255C27.0302 51.2522 26.8261 51.1846 26.5996 51.1223C26.4351 51.078 26.2909 51.038 26.1666 51.0025C26.0423 50.967 25.939 50.9281 25.8569 50.8858C25.7746 50.8436 25.7125 50.7959 25.6703 50.7426C25.6279 50.6893 25.6069 50.6228 25.6069 50.5427C25.6069 50.2808 25.8023 50.1497 26.1931 50.1497C26.3351 50.1497 26.4773 50.1697 26.6195 50.2097C26.7615 50.2496 26.8926 50.2964 27.0126 50.3495C27.1324 50.4028 27.2323 50.454 27.3123 50.5028C27.3922 50.5517 27.4389 50.585 27.4522 50.6028L27.9319 49.6968C27.8253 49.6346 27.7087 49.5726 27.5821 49.5102C27.4556 49.4481 27.319 49.3925 27.1724 49.3437C27.0259 49.2948 26.8726 49.255 26.7127 49.2238C26.5528 49.1928 26.3907 49.1771 26.2265 49.1771C25.991 49.1771 25.7679 49.2106 25.5571 49.2771C25.3462 49.3437 25.1607 49.4426 25.001 49.5735C24.8411 49.7046 24.7145 49.8656 24.6212 50.0565C24.5279 50.2476 24.4813 50.4674 24.4813 50.7161C24.4813 50.8938 24.5067 51.0492 24.5579 51.1824C24.609 51.3156 24.6866 51.4333 24.791 51.5355C24.8954 51.6377 25.0274 51.7277 25.1874 51.8053C25.3473 51.8831 25.5361 51.9552 25.7537 52.0219C25.918 52.0708 26.0701 52.1151 26.21 52.155C26.3499 52.195 26.4709 52.2384 26.573 52.285C26.675 52.3316 26.7551 52.3838 26.8128 52.4415C26.8704 52.4992 26.8995 52.5725 26.8995 52.6613C26.8995 52.8967 26.7063 53.0144 26.32 53.0144C26.1377 53.0144 25.9579 52.9899 25.7803 52.9411C25.6027 52.8923 25.4415 52.8367 25.2972 52.7746C25.1528 52.7125 25.0318 52.6503 24.9342 52.5879C24.8365 52.5259 24.7787 52.4836 24.7609 52.4613L24.2812 53.4139C24.4189 53.5071 24.5688 53.5893 24.7309 53.6603C24.893 53.7314 25.0608 53.7925 25.2338 53.8435C25.407 53.8946 25.5845 53.9335 25.7668 53.96C25.9489 53.9867 26.1264 54 26.2997 54C26.5263 54 26.7461 53.9744 26.9593 53.9233C27.1725 53.8723 27.3612 53.7901 27.5256 53.677C27.6899 53.5637 27.822 53.415 27.9219 53.2306C28.0219 53.0464 28.0718 52.8209 28.0718 52.5545C28.0717 52.3369 28.0374 52.1504 27.9686 51.9948Z" fill="#ff0000"/>
<path d="M30.2175 25.5073C29.9202 24.328 28.9901 23.3979 27.8109 23.1007V8.54974H26.1897V23.1008C24.7509 23.4635 23.6826 24.7682 23.6826 26.3179C23.6826 28.1474 25.171 29.6356 27.0003 29.6356C28.5501 29.6356 29.8547 28.5672 30.2174 27.1285H39.863V25.5073H30.2175ZM27.0004 28.0144C26.065 28.0144 25.3039 27.2533 25.3039 26.3179C25.3039 25.3825 26.065 24.6215 27.0004 24.6215C27.9358 24.6215 28.6968 25.3825 28.6968 26.3179C28.6968 27.2533 27.9358 28.0144 27.0004 28.0144Z" fill="#ff0000"/>
<path d="M50.3663 38.4381C52.2969 34.7235 53.3175 30.5323 53.3175 26.3178C53.3175 19.2881 50.58 12.6791 45.6093 7.70811C40.6383 2.73756 34.0293 0 26.9996 0C19.9698 0 13.3607 2.73756 8.38986 7.70821C3.4192 12.6791 0.681641 19.2882 0.681641 26.3179V27.1286H5.63447V25.5074H2.31589C2.44519 21.5163 3.52699 17.7624 5.33937 14.464L8.192 16.1492L9.01655 14.7534L6.1653 13.069C8.11985 10.0061 10.7314 7.40183 13.7991 5.45402L15.4764 8.30833L16.8741 7.48694L15.1957 4.63073C18.4819 2.83501 22.2182 1.7645 26.189 1.63583V4.95283H27.8102V1.63583C31.801 1.76524 35.5553 2.84535 38.8536 4.65762L37.1683 7.51035L38.564 8.33491L40.248 5.48419C43.3108 7.43874 45.9155 10.0498 47.8633 13.1174L45.0089 14.7947L45.8302 16.1924L48.6875 14.5135C50.4833 17.7997 51.5528 21.5366 51.6816 25.5074H48.3647V27.1286H51.6818C51.5523 31.0277 50.4928 34.8075 48.6542 38.1686L45.807 36.4866L44.9825 37.8824L47.8287 39.5638C46.5124 41.6369 44.8855 43.5204 42.9883 45.1367L43.2074 43.1606L41.5962 42.9818L41.071 47.7168L45.8059 48.242L45.9847 46.6308L43.9934 46.4098C46.6064 44.1942 48.7907 41.4699 50.3663 38.4381Z" fill="#ff0000"/>
</g>
<defs>
<clipPath id="clip0_233_615">
<rect width="54" height="54" fill="white"/>
</clipPath>
</defs>
</svg>
