<svg width="30" height="30" viewBox="0 0 30 30" fill="none" xmlns="http://www.w3.org/2000/svg">
<g clip-path="url(#clip0_305_843)">
<path d="M0.585338 11.1763C0.82317 11.1763 1.04219 11.0266 1.12967 10.8058C1.21967 10.5788 1.15575 10.3111 0.971647 10.15C0.78485 9.98653 0.507467 9.95969 0.292487 10.0834C0.0773892 10.2072 -0.0375718 10.462 0.0110611 10.7052C0.0650845 10.9752 0.309655 11.1763 0.585338 11.1763Z" fill="#ff0000"/>
<path d="M24.0691 11.1488C24.1426 10.1483 24.0284 9.20141 23.7288 8.33081C22.9702 6.1267 21.4078 4.50104 19.442 3.87062C16.71 2.99456 14.3736 4.31606 12.8537 5.38629C12.3701 5.72673 11.7203 5.72673 11.2368 5.38629C9.71688 4.31606 7.38034 2.99462 4.64847 3.87062C2.86688 4.44192 1.4289 5.80853 0.599316 7.71861C0.470407 8.01539 0.606523 8.36052 0.903366 8.48949C1.20003 8.61839 1.54527 8.48228 1.67424 8.18544C2.36742 6.58937 3.55075 5.45333 5.00636 4.98656C7.19582 4.28441 9.16708 5.37352 10.4828 6.28901C10.9362 7.10653 11.6694 7.71451 12.5621 8.00948C12.9448 8.13586 13.338 8.19862 13.7297 8.19862C14.3012 8.19862 14.8691 8.06496 15.3944 7.80053C15.6834 7.65503 15.7998 7.3027 15.6543 7.01371C15.5088 6.7246 15.1565 6.60829 14.8675 6.75378C14.2617 7.05865 13.5735 7.10946 12.9298 6.89676C12.8113 6.85761 12.697 6.81045 12.5874 6.75572C12.9193 6.6847 13.24 6.54765 13.5284 6.34456C14.8435 5.41852 16.8502 4.27035 19.0842 4.98662C20.6946 5.50301 21.9836 6.86095 22.6207 8.71215C22.8606 9.40949 22.9562 10.1729 22.9056 10.9853C22.7521 10.9759 22.5974 10.9711 22.4416 10.9711C18.2737 10.9711 14.8829 14.387 14.8829 18.5856C14.8829 20.6533 15.7052 22.5311 17.0377 23.9046C16.9266 24.1399 16.8168 24.3732 16.7088 24.603C16.4579 25.1366 15.958 25.2793 15.5742 25.2349C15.19 25.1904 14.7358 24.9373 14.6134 24.3602L13.2344 17.8588C13.2322 17.8486 13.2298 17.8384 13.2271 17.8283C13.0814 17.2863 12.6065 16.9221 12.0452 16.9221C11.484 16.9221 11.009 17.2863 10.8634 17.8283C10.8607 17.8384 10.8582 17.8486 10.8561 17.8588L9.47705 24.3602C9.35464 24.9373 8.90047 25.1904 8.5162 25.2349C8.13206 25.2792 7.63242 25.1367 7.38163 24.603C5.19645 19.9539 3.8187 17.2003 3.28648 16.4184C2.52533 15.3001 1.95737 14.1723 1.59854 13.0662C1.49869 12.7584 1.16804 12.5898 0.860357 12.6897C0.552557 12.7895 0.38398 13.1201 0.483826 13.4279C0.876998 14.6396 1.494 15.8677 2.31767 17.0778C2.80114 17.7882 4.22289 20.6377 6.321 25.1015C6.70568 25.92 7.49314 26.415 8.37528 26.415C8.46622 26.415 8.55828 26.4097 8.65086 26.399C9.64205 26.2843 10.4163 25.5795 10.6234 24.6033L11.9983 18.1213C12.0036 18.1055 12.0126 18.094 12.0451 18.094C12.0778 18.094 12.0867 18.1055 12.0921 18.1214L13.467 24.6033C13.674 25.5794 14.4483 26.2843 15.4395 26.3989C16.4306 26.5135 17.345 26.0043 17.7694 25.1015C17.8304 24.9717 17.8919 24.8409 17.954 24.7093C19.2099 25.6458 20.7627 26.2001 22.4417 26.2001C26.6095 26.2001 30.0004 22.7842 30.0004 18.5855C30.0004 14.9496 27.4575 11.9007 24.0691 11.1488ZM22.4417 25.0282C18.92 25.0282 16.0549 22.138 16.0549 18.5855C16.0549 15.0331 18.92 12.1429 22.4417 12.1429C25.9633 12.1429 28.8285 15.0331 28.8285 18.5855C28.8285 22.138 25.9633 25.0282 22.4417 25.0282Z" fill="#ff0000"/>
<path d="M25.2414 16.5756H24.4393V15.7615C24.4393 15.0435 23.8578 14.4595 23.143 14.4595H21.7393C21.0246 14.4595 20.4431 15.0435 20.4431 15.7615V16.5756H19.6409C18.9262 16.5756 18.3447 17.1597 18.3447 17.8776V19.2936C18.3447 20.0115 18.9262 20.5955 19.6409 20.5955H20.4431V21.4097C20.4431 22.1276 21.0246 22.7116 21.7393 22.7116H23.143C23.8578 22.7116 24.4393 22.1276 24.4393 21.4097V20.5955H25.2414C25.9562 20.5955 26.5377 20.0115 26.5377 19.2936V17.8776C26.5377 17.1597 25.9562 16.5756 25.2414 16.5756ZM25.3658 19.2936C25.3658 19.3653 25.31 19.4236 25.2414 19.4236H23.8533C23.5297 19.4236 23.2674 19.6859 23.2674 20.0095V21.4097C23.2674 21.4814 23.2116 21.5397 23.143 21.5397H21.7393C21.6708 21.5397 21.615 21.4814 21.615 21.4097V20.0095C21.615 19.6859 21.3526 19.4236 21.029 19.4236H19.6409C19.5724 19.4236 19.5166 19.3653 19.5166 19.2936V17.8775C19.5166 17.8058 19.5724 17.7475 19.6409 17.7475H21.029C21.3526 17.7475 21.615 17.4851 21.615 17.1615V15.7615C21.615 15.6897 21.6708 15.6314 21.7393 15.6314H23.143C23.2116 15.6314 23.2674 15.6897 23.2674 15.7615V17.1616C23.2674 17.4852 23.5297 17.7475 23.8533 17.7475H25.2414C25.31 17.7475 25.3658 17.8058 25.3658 17.8776V19.2936Z" fill="#ff0000"/>
</g>
<defs>
<clipPath id="clip0_305_843">
<rect width="30" height="30" fill="white"/>
</clipPath>
</defs>
</svg>
