<svg width="26" height="26" viewBox="0 0 26 26" fill="none" xmlns="http://www.w3.org/2000/svg">
<path d="M22.7501 11.9167H18.5251C18.4167 11.9167 18.4167 11.9167 18.3084 11.9167H18.0917C17.9834 11.9167 17.9834 12.025 17.9834 12.025C17.8751 12.025 17.8751 12.1333 17.7667 12.1333L17.6584 12.2417C17.6584 12.35 17.5501 12.35 17.5501 12.4583L15.8167 17.3333L11.2667 5.09168C11.0501 4.55001 10.4001 4.22501 9.85841 4.44168C9.53341 4.55001 9.31675 4.76668 9.20841 5.09168L6.71675 11.9167H3.25008C2.60008 11.9167 2.16675 12.35 2.16675 13C2.16675 13.65 2.60008 14.0833 3.25008 14.0833H7.47508H7.69175H7.90841C8.01675 14.0833 8.01675 13.975 8.12508 13.975C8.23341 13.975 8.23341 13.8667 8.34175 13.8667L8.45008 13.7583C8.45008 13.65 8.55841 13.65 8.55841 13.5417L10.2917 8.66668L14.8417 21.0167C14.9501 21.45 15.3834 21.775 15.8167 21.775C16.2501 21.775 16.6834 21.45 16.7917 21.0167L19.2834 14.1917H22.7501C23.4001 14.1917 23.8334 13.7583 23.8334 13.1083C23.8334 12.4583 23.4001 11.9167 22.7501 11.9167Z" fill="#ff0000"/>
</svg>
