<svg width="97" height="26" viewBox="0 0 97 26" fill="none" xmlns="http://www.w3.org/2000/svg">
<g clip-path="url(#clip0_513_1694)">
<path d="M25.492 9.21497H35.3136V11.215H31.4517V22.458H29.3281V11.215H25.4834V9.21497H25.492ZM34.894 12.8692H36.7093V14.7196H36.7436C36.8035 14.458 36.9148 14.2056 37.0775 13.9626C37.2402 13.7196 37.4371 13.486 37.6683 13.2897C37.8995 13.0841 38.1564 12.9252 38.439 12.7944C38.7216 12.6729 39.0127 12.6075 39.3038 12.6075C39.5265 12.6075 39.6892 12.6168 39.7748 12.6262C39.8604 12.6355 39.9461 12.6542 40.0402 12.6636V14.7009C39.9032 14.6729 39.7662 14.6542 39.6207 14.6355C39.4751 14.6168 39.3381 14.6075 39.2011 14.6075C38.8757 14.6075 38.5674 14.6823 38.2763 14.8224C37.9852 14.9626 37.7368 15.1776 37.5228 15.4486C37.3087 15.729 37.1374 16.0654 37.009 16.4766C36.8806 16.8879 36.8206 17.3552 36.8206 17.8879V22.4486H34.8854V12.8692H34.894ZM48.9371 22.458H47.0361V21.1215H47.0019C46.7621 21.6075 46.411 21.9907 45.9401 22.2804C45.4691 22.5701 44.9896 22.7196 44.5015 22.7196C43.3455 22.7196 42.5063 22.4112 41.9926 21.7851C41.4788 21.1589 41.2219 20.215 41.2219 18.9533V12.8692H43.1571V18.7477C43.1571 19.5888 43.3027 20.1869 43.6024 20.5327C43.8935 20.8785 44.3131 21.0561 44.844 21.0561C45.255 21.0561 45.589 20.9907 45.863 20.8505C46.137 20.7103 46.3596 20.5327 46.5223 20.2991C46.6936 20.0748 46.8135 19.7944 46.8905 19.4766C46.9676 19.1589 47.0019 18.8131 47.0019 18.4393V12.8785H48.9371V22.458ZM52.2338 19.3832C52.2937 20 52.5078 20.4299 52.876 20.6823C53.2527 20.9252 53.698 21.0561 54.2203 21.0561C54.4002 21.0561 54.6057 21.0374 54.8369 21.0094C55.0681 20.9813 55.2907 20.9159 55.4876 20.8318C55.6931 20.7477 55.8558 20.6168 55.9928 20.4486C56.1213 20.2804 56.1812 20.0654 56.1727 19.7944C56.1641 19.5234 56.0699 19.2991 55.8987 19.1309C55.7274 18.9533 55.5133 18.8224 55.2479 18.7103C54.9824 18.6075 54.6827 18.514 54.3402 18.4393C53.9977 18.3645 53.6552 18.2804 53.3041 18.1963C52.9445 18.1122 52.5934 18 52.2594 17.8785C51.9255 17.757 51.6258 17.5888 51.3603 17.3738C51.0949 17.1682 50.8808 16.8972 50.7267 16.5701C50.564 16.243 50.4869 15.8411 50.4869 15.3552C50.4869 14.8318 50.6068 14.4019 50.838 14.0467C51.0692 13.6916 51.3689 13.4112 51.72 13.1963C52.0796 12.9813 52.4735 12.8318 52.9102 12.7383C53.3469 12.6542 53.7665 12.6075 54.1604 12.6075C54.6142 12.6075 55.0509 12.6636 55.4619 12.7664C55.873 12.8692 56.2497 13.0374 56.5837 13.2804C56.9176 13.514 57.1916 13.8224 57.4143 14.1963C57.6369 14.5701 57.7739 15.028 57.8339 15.5608H55.813C55.7188 15.0561 55.5133 14.7103 55.1794 14.5421C54.8454 14.3645 54.4601 14.2804 54.0319 14.2804C53.8949 14.2804 53.7323 14.2897 53.5439 14.3178C53.3555 14.3458 53.1842 14.3925 53.013 14.458C52.8503 14.5234 52.7133 14.6262 52.5934 14.757C52.4821 14.8879 52.4221 15.0561 52.4221 15.271C52.4221 15.5327 52.5078 15.7383 52.6705 15.8972C52.8331 16.0561 53.0472 16.1869 53.3127 16.2991C53.5781 16.4019 53.8778 16.4953 54.2203 16.5701C54.5628 16.6449 54.9139 16.729 55.2736 16.8131C55.6246 16.8972 55.9672 17.0094 56.3097 17.1309C56.6522 17.2523 56.9519 17.4206 57.2173 17.6355C57.4828 17.8505 57.6969 18.1122 57.8595 18.4299C58.0222 18.7477 58.1079 19.1495 58.1079 19.6168C58.1079 20.1869 57.988 20.6636 57.7482 21.0654C57.5085 21.458 57.2002 21.7851 56.8234 22.028C56.4467 22.271 56.0185 22.458 55.5561 22.5701C55.0937 22.6823 54.6314 22.7383 54.1775 22.7383C53.6209 22.7383 53.1072 22.6729 52.6362 22.5327C52.1652 22.3925 51.7542 22.1869 51.4117 21.9159C51.0692 21.6355 50.7952 21.2897 50.5982 20.8785C50.4013 20.4673 50.2985 19.972 50.2814 19.4019H52.2338V19.3832ZM58.6216 12.8692H60.0859V9.99067H62.0211V12.8692H63.7679V14.4486H62.0211V19.5701C62.0211 19.7944 62.0297 19.9813 62.0468 20.1495C62.0639 20.3084 62.1067 20.4486 62.1667 20.5608C62.2266 20.6729 62.3208 20.757 62.4492 20.8131C62.5777 20.8692 62.7404 20.8972 62.963 20.8972C63.1 20.8972 63.237 20.8972 63.374 20.8879C63.511 20.8785 63.648 20.8598 63.785 20.8224V22.458C63.571 22.486 63.3569 22.5047 63.16 22.5327C62.9544 22.5608 62.7489 22.5701 62.5349 22.5701C62.0211 22.5701 61.6101 22.514 61.3018 22.4112C60.9936 22.3084 60.7452 22.1495 60.574 21.9439C60.3941 21.7383 60.2828 21.486 60.2143 21.1776C60.1544 20.8692 60.1116 20.514 60.103 20.1215V14.4673H58.6388V12.8692H58.6216ZM65.138 12.8692H66.9704V14.1682H67.0047C67.2787 13.6075 67.6554 13.215 68.1435 12.972C68.6316 12.729 69.1539 12.6075 69.7277 12.6075C70.4212 12.6075 71.0207 12.7383 71.5344 13.0094C72.0482 13.271 72.4763 13.6355 72.8189 14.1028C73.1614 14.5701 73.4097 15.1122 73.5809 15.729C73.7522 16.3458 73.8378 17.0094 73.8378 17.7103C73.8378 18.3552 73.7608 18.9813 73.6066 19.5795C73.4525 20.1869 73.2213 20.7196 72.913 21.1869C72.6048 21.6542 72.2109 22.0187 71.7314 22.2991C71.2518 22.5795 70.6953 22.7196 70.0445 22.7196C69.7619 22.7196 69.4793 22.6916 69.1968 22.6355C68.9142 22.5795 68.6402 22.486 68.3833 22.3645C68.1264 22.243 67.8781 22.0841 67.664 21.8879C67.4414 21.6916 67.2616 21.4673 67.1074 21.215H67.0732V26H65.138V12.8692ZM71.9026 17.6729C71.9026 17.243 71.8512 16.8224 71.7485 16.4112C71.6457 16 71.4916 15.6449 71.2861 15.3271C71.0806 15.0094 70.8237 14.757 70.524 14.5701C70.2157 14.3832 69.8647 14.2804 69.4708 14.2804C68.6573 14.2804 68.0408 14.5888 67.6298 15.2056C67.2187 15.8224 67.0132 16.6449 67.0132 17.6729C67.0132 18.1589 67.0646 18.6075 67.1759 19.0187C67.2872 19.4299 67.4414 19.7851 67.664 20.0841C67.8781 20.3832 68.135 20.6168 68.4347 20.7851C68.7344 20.9626 69.0855 21.0467 69.4793 21.0467C69.9246 21.0467 70.2928 20.9439 70.6011 20.7477C70.9093 20.5514 71.1577 20.2897 71.3546 19.9813C71.5515 19.6636 71.6971 19.3084 71.7827 18.9066C71.8598 18.5047 71.9026 18.0935 71.9026 17.6729ZM75.3192 9.21497H77.2544V11.215H75.3192V9.21497ZM75.3192 12.8692H77.2544V22.458H75.3192V12.8692ZM78.9841 9.21497H80.9193V22.458H78.9841V9.21497ZM86.8534 22.7196C86.1512 22.7196 85.5261 22.5888 84.9781 22.3365C84.4301 22.0841 83.9677 21.729 83.5824 21.2897C83.2056 20.8411 82.9145 20.3084 82.7175 19.6916C82.5206 19.0748 82.4178 18.3925 82.4178 17.6542C82.4178 16.9252 82.5206 16.2523 82.7175 15.6355C82.9145 15.0187 83.2056 14.486 83.5824 14.0374C83.9591 13.5888 84.4301 13.243 84.9781 12.9907C85.5261 12.7383 86.1512 12.6075 86.8534 12.6075C87.5555 12.6075 88.1806 12.7383 88.7286 12.9907C89.2767 13.243 89.7391 13.5981 90.1244 14.0374C90.5011 14.486 90.7923 15.0187 90.9892 15.6355C91.1862 16.2523 91.2889 16.9252 91.2889 17.6542C91.2889 18.3925 91.1862 19.0748 90.9892 19.6916C90.7923 20.3084 90.5011 20.8411 90.1244 21.2897C89.7476 21.7383 89.2767 22.0841 88.7286 22.3365C88.1806 22.5888 87.5555 22.7196 86.8534 22.7196ZM86.8534 21.0467C87.2815 21.0467 87.6583 20.9439 87.9751 20.7477C88.2919 20.5514 88.5488 20.2897 88.7543 19.972C88.9598 19.6542 89.1054 19.2897 89.2082 18.8879C89.3023 18.486 89.3537 18.0748 89.3537 17.6542C89.3537 17.243 89.3023 16.8411 89.2082 16.4299C89.114 16.0187 88.9598 15.6636 88.7543 15.3458C88.5488 15.028 88.2919 14.7757 87.9751 14.5795C87.6583 14.3832 87.2815 14.2804 86.8534 14.2804C86.4252 14.2804 86.0485 14.3832 85.7316 14.5795C85.4148 14.7757 85.1579 15.0374 84.9524 15.3458C84.7469 15.6636 84.6013 16.0187 84.4986 16.4299C84.4044 16.8411 84.353 17.243 84.353 17.6542C84.353 18.0748 84.4044 18.486 84.4986 18.8879C84.5928 19.2897 84.7469 19.6542 84.9524 19.972C85.1579 20.2897 85.4148 20.5514 85.7316 20.7477C86.0485 20.9533 86.4252 21.0467 86.8534 21.0467ZM91.8541 12.8692H93.3183V9.99067H95.2535V12.8692H97.0004V14.4486H95.2535V19.5701C95.2535 19.7944 95.2621 19.9813 95.2792 20.1495C95.2963 20.3084 95.3392 20.4486 95.3991 20.5608C95.459 20.6729 95.5532 20.757 95.6817 20.8131C95.8101 20.8692 95.9728 20.8972 96.1954 20.8972C96.3325 20.8972 96.4694 20.8972 96.6065 20.8879C96.7435 20.8785 96.8805 20.8598 97.0175 20.8224V22.458C96.8034 22.486 96.5893 22.5047 96.3924 22.5327C96.1869 22.5608 95.9814 22.5701 95.7673 22.5701C95.2535 22.5701 94.8425 22.514 94.5342 22.4112C94.226 22.3084 93.9777 22.1495 93.8064 21.9439C93.6266 21.7383 93.5153 21.486 93.4468 21.1776C93.3868 20.8692 93.344 20.514 93.3354 20.1215V14.4673H91.8712V12.8692H91.8541Z" fill="#111032"/>
<path d="M23.231 9.21495H14.3599L11.6198 0L8.87111 9.21495L0 9.20561L7.18423 14.9065L4.43556 24.1121L11.6198 18.4206L18.7955 24.1121L16.0553 14.9065L23.231 9.21495Z" fill="#00B67A"/>
<path d="M16.6722 16.9906L16.0557 14.9065L11.6201 18.4205L16.6722 16.9906Z" fill="#005128"/>
</g>
<defs>
<clipPath id="clip0_513_1694">
<rect width="97" height="26" fill="white"/>
</clipPath>
</defs>
</svg>
