<svg width="26" height="26" viewBox="0 0 26 26" fill="none" xmlns="http://www.w3.org/2000/svg">
<path d="M24.375 15.8438H23.9688V15.4375C23.9679 14.6836 23.668 13.9607 23.1349 13.4276C22.6018 12.8945 21.8789 12.5946 21.125 12.5938H11.7812C11.2897 12.5944 10.8068 12.7225 10.3796 12.9655C9.95237 13.2085 9.59547 13.5582 9.34375 13.9804C9.09203 13.5582 8.73513 13.2085 8.30791 12.9655C7.8807 12.7225 7.39776 12.5944 6.90625 12.5938H4.875C4.12106 12.5946 3.39824 12.8945 2.86513 13.4276C2.33201 13.9607 2.03212 14.6836 2.03125 15.4375V15.8438H1.625C1.51726 15.8438 1.41392 15.8866 1.33774 15.9627C1.26155 16.0389 1.21875 16.1423 1.21875 16.25V18.6875C1.21875 18.7952 1.26155 18.8986 1.33774 18.9748C1.41392 19.0509 1.51726 19.0938 1.625 19.0938H4.0625C4.17024 19.0938 4.27358 19.0509 4.34976 18.9748C4.42595 18.8986 4.46875 18.7952 4.46875 18.6875C4.46875 18.5798 4.42595 18.4764 4.34976 18.4002C4.27358 18.3241 4.17024 18.2812 4.0625 18.2812H2.03125V16.6562H23.9688V18.2812H6.5C6.39226 18.2812 6.28892 18.3241 6.21274 18.4002C6.13655 18.4764 6.09375 18.5798 6.09375 18.6875C6.09375 18.7952 6.13655 18.8986 6.21274 18.9748C6.28892 19.0509 6.39226 19.0938 6.5 19.0938H9.75V21.5312H8.125C7.37106 21.5321 6.64824 21.832 6.11513 22.3651C5.58201 22.8982 5.28212 23.6211 5.28125 24.375C5.28125 24.4827 5.32405 24.5861 5.40024 24.6623C5.47642 24.7384 5.57976 24.7812 5.6875 24.7812H15.4375C15.5452 24.7812 15.6486 24.7384 15.7248 24.6623C15.8009 24.5861 15.8438 24.4827 15.8438 24.375C15.8438 24.2673 15.8009 24.1639 15.7248 24.0877C15.6486 24.0116 15.5452 23.9688 15.4375 23.9688H6.13462C6.22886 23.5103 6.47829 23.0983 6.84085 22.8023C7.20342 22.5063 7.65695 22.3444 8.125 22.3438H17.875C18.3431 22.3444 18.7966 22.5063 19.1591 22.8023C19.5217 23.0983 19.7711 23.5103 19.8654 23.9688H17.875C17.7673 23.9688 17.6639 24.0116 17.5877 24.0877C17.5116 24.1639 17.4688 24.2673 17.4688 24.375C17.4688 24.4827 17.5116 24.5861 17.5877 24.6623C17.6639 24.7384 17.7673 24.7812 17.875 24.7812H20.3125C20.4202 24.7812 20.5236 24.7384 20.5998 24.6623C20.6759 24.5861 20.7188 24.4827 20.7188 24.375C20.7179 23.6211 20.418 22.8982 19.8849 22.3651C19.3518 21.832 18.6289 21.5321 17.875 21.5312H16.25V19.0938H24.375C24.4827 19.0938 24.5861 19.0509 24.6623 18.9748C24.7384 18.8986 24.7812 18.7952 24.7812 18.6875V16.25C24.7812 16.1423 24.7384 16.0389 24.6623 15.9627C24.5861 15.8866 24.4827 15.8438 24.375 15.8438ZM15.4375 21.5312H10.5625V19.0938H15.4375V21.5312ZM2.84375 15.4375C2.84438 14.899 3.05859 14.3827 3.43939 14.0019C3.82019 13.6211 4.33647 13.4069 4.875 13.4062H6.90625C7.44478 13.4069 7.96106 13.6211 8.34186 14.0019C8.72266 14.3827 8.93687 14.899 8.9375 15.4375V15.8438H2.84375V15.4375ZM9.75 15.8438V15.4375C9.75063 14.899 9.96484 14.3827 10.3456 14.0019C10.7264 13.6211 11.2427 13.4069 11.7812 13.4062H21.125C21.6635 13.4069 22.1798 13.6211 22.5606 14.0019C22.9414 14.3827 23.1556 14.899 23.1562 15.4375V15.8438H9.75Z" fill="white"/>
<path d="M8.53125 7.71875H13C13.1077 7.71875 13.2111 7.67595 13.2873 7.59976C13.3634 7.52358 13.4062 7.42024 13.4062 7.3125C13.4062 7.20476 13.3634 7.10142 13.2873 7.02524C13.2111 6.94905 13.1077 6.90625 13 6.90625H8.9375V6.5C8.93813 5.96147 9.15234 5.44519 9.53314 5.06439C9.91394 4.68359 10.4302 4.46938 10.9688 4.46875H15.0312C15.5698 4.46938 16.0861 4.68359 16.4669 5.06439C16.8477 5.44519 17.0619 5.96147 17.0625 6.5V6.90625H15.4375C15.3298 6.90625 15.2264 6.94905 15.1502 7.02524C15.0741 7.10142 15.0312 7.20476 15.0312 7.3125C15.0312 7.42024 15.0741 7.52358 15.1502 7.59976C15.2264 7.67595 15.3298 7.71875 15.4375 7.71875H17.4688C17.5765 7.71875 17.6798 7.67595 17.756 7.59976C17.8322 7.52358 17.875 7.42024 17.875 7.3125V6.5C17.8741 5.74606 17.5742 5.02324 17.0411 4.49013C16.508 3.95701 15.7852 3.65712 15.0312 3.65625V1.625C15.0312 1.51726 14.9884 1.41392 14.9123 1.33774C14.8361 1.26155 14.7327 1.21875 14.625 1.21875H11.375C11.2673 1.21875 11.1639 1.26155 11.0877 1.33774C11.0116 1.41392 10.9688 1.51726 10.9688 1.625V3.65625C10.2148 3.65712 9.49199 3.95701 8.95888 4.49013C8.42576 5.02324 8.12587 5.74606 8.125 6.5V7.3125C8.125 7.42024 8.1678 7.52358 8.24399 7.59976C8.32017 7.67595 8.42351 7.71875 8.53125 7.71875ZM11.7812 2.03125H14.2188V3.65625H11.7812V2.03125Z" fill="white"/>
</svg>
