<svg width="182" height="41" viewBox="0 0 182 41" fill="none" xmlns="http://www.w3.org/2000/svg">
<path d="M20.1632 40.3264C15.8405 40.3264 12.3237 36.8096 12.3237 32.4869V30.776H15.5054V32.4869C15.5054 35.0552 17.5949 37.1447 20.1632 37.1447C22.7315 37.1447 24.821 35.0552 24.821 32.4869V24.821H32.4869C35.0552 24.821 37.1446 22.7316 37.1446 20.1633C37.1446 17.5949 35.0552 15.5055 32.4869 15.5055H22.142V26.4119H18.9602V12.3238H32.4869C36.8096 12.3238 40.3264 15.8406 40.3264 20.1633C40.3264 24.486 36.8096 28.0028 32.4869 28.0028H28.0027V32.487C28.0027 36.8096 24.4859 40.3264 20.1632 40.3264Z" fill="#ff0000"/>
<path d="M13.9145 28.0027H7.83947C3.51676 28.0027 0 24.4859 0 20.1632C0 15.8405 3.51676 12.3237 7.83947 12.3237H12.3237V7.83951C12.3237 3.5168 15.8404 0 20.1631 0C24.4859 0 28.0027 3.5168 28.0027 7.83951V10.0614H24.821V7.83951C24.821 5.27119 22.7315 3.18175 20.1632 3.18175C17.5949 3.18175 15.5054 5.27119 15.5054 7.83951V15.5055H7.83951C5.27123 15.5055 3.18175 17.5949 3.18175 20.1633C3.18175 22.7316 5.27119 24.821 7.83951 24.821H13.9146L13.9145 28.0027Z" fill="#111032"/>
<g clip-path="url(#clip0_657_2012)">
<path d="M52.1567 29.6632H48.3634V10.6632H52.6906L58.9566 24.8861L65.2226 10.6632H69.5497V29.6632H65.7564V17.3946L60.4458 29.6632H57.4673L52.1567 17.3946V29.6632ZM87.1858 13.7304H77.1546V18.5618H84.6569V21.5204H77.1546V26.5961H87.1858V29.6632H73.3613V10.6632H87.1858V13.7304ZM97.7901 10.6632C99.8882 10.6632 101.705 11.0613 103.241 11.8575C104.796 12.6356 106.004 13.7394 106.866 15.1689C107.728 16.5984 108.159 18.2813 108.159 20.2175C108.159 22.1356 107.728 23.8004 106.866 25.2118C106.004 26.6232 104.796 27.718 103.241 28.4961C101.705 29.2742 99.8882 29.6632 97.7901 29.6632H90.4564V10.6632H97.7901ZM97.6777 26.5961C99.7945 26.5961 101.424 26.0351 102.567 24.9132C103.71 23.7732 104.281 22.208 104.281 20.2175C104.281 18.2089 103.71 16.6256 102.567 15.4675C101.424 14.3094 99.7945 13.7304 97.6777 13.7304H94.2497V26.5961H97.6777Z" fill="#ff0000"/>
<path d="M111.037 10.6632H114.831V29.6632H111.037V10.6632ZM127.292 29.6632H122.852L117.401 10.6632H121.475L125.072 25.4289L129.006 10.6632H133.249L137.154 25.3746L140.779 10.6632H144.854L139.402 29.6632H134.963L131.141 16.0375L127.292 29.6632ZM161.247 13.7304H151.216V18.5618H158.719V21.5204H151.216V26.5961H161.247V29.6632H147.423V10.6632H161.247V13.7304ZM176.123 16.1461C176.123 15.3499 175.861 14.7527 175.336 14.3546C174.812 13.9384 174.072 13.7304 173.116 13.7304H168.311V18.5346H173.088C174.044 18.5346 174.783 18.3356 175.308 17.9375C175.851 17.5213 176.123 16.9242 176.123 16.1461ZM164.518 29.6632V10.6632H173.65C175.018 10.6632 176.17 10.8894 177.106 11.3418C178.043 11.7761 178.745 12.3732 179.214 13.1332C179.701 13.8751 179.944 14.7165 179.944 15.6575C179.944 16.4899 179.785 17.1956 179.467 17.7746C179.148 18.3537 178.708 18.8151 178.146 19.1589C177.603 19.4846 176.975 19.7108 176.263 19.8375V20.0546C177.125 20.1632 177.865 20.3984 178.483 20.7604C179.101 21.1042 179.579 21.5927 179.916 22.2261C180.253 22.8594 180.422 23.6284 180.422 24.5332C180.422 25.5284 180.169 26.4151 179.663 27.1932C179.157 27.9532 178.418 28.5594 177.443 29.0118C176.488 29.4461 175.336 29.6632 173.987 29.6632H164.518ZM168.311 26.5961H173.482C174.474 26.5961 175.242 26.388 175.786 25.9718C176.348 25.5375 176.629 24.9132 176.629 24.0989C176.629 23.2484 176.329 22.6061 175.729 22.1718C175.149 21.7375 174.371 21.5204 173.397 21.5204H168.311V26.5961Z" fill="#111032"/>
</g>
<defs>
<clipPath id="clip0_657_2012">
<rect width="133" height="19" fill="white" transform="translate(48.3263 10.6632)"/>
</clipPath>
</defs>
</svg>
