<svg width="182" height="41" viewBox="0 0 182 41" fill="none" xmlns="http://www.w3.org/2000/svg">
<path d="M20.1628 40.3269C15.84 40.3269 12.3232 36.8101 12.3232 32.4874V30.7765H15.505V32.4874C15.505 35.0557 17.5944 37.1451 20.1627 37.1451C22.731 37.1451 24.8205 35.0557 24.8205 32.4874V24.8215H32.4864C35.0547 24.8215 37.1442 22.7321 37.1442 20.1637C37.1442 17.5954 35.0547 15.506 32.4864 15.506H22.1415V26.4124H18.9597V12.3242H32.4864C36.8091 12.3242 40.3259 15.841 40.3259 20.1637C40.3259 24.4864 36.8091 28.0032 32.4864 28.0032H28.0022V32.4874C28.0022 36.8101 24.4854 40.3269 20.1628 40.3269Z" fill="#ff0000"/>
<path d="M13.9145 28.0027H7.83947C3.51676 28.0027 0 24.4859 0 20.1632C0 15.8405 3.51676 12.3237 7.83947 12.3237H12.3237V7.83951C12.3237 3.5168 15.8404 0 20.1631 0C24.4859 0 28.0027 3.5168 28.0027 7.83951V10.0614H24.821V7.83951C24.821 5.27119 22.7315 3.18175 20.1632 3.18175C17.5949 3.18175 15.5054 5.27119 15.5054 7.83951V15.5055H7.83951C5.27123 15.5055 3.18175 17.5949 3.18175 20.1633C3.18175 22.7316 5.27119 24.821 7.83951 24.821H13.9146L13.9145 28.0027Z" fill="#111032"/>
<g clip-path="url(#clip0_395_1916)">
<path d="M52.1566 29.6631H48.3633V10.6631H52.6905L58.9565 24.8859L65.2224 10.6631H69.5496V29.6631H65.7563V17.3945L60.4457 29.6631H57.4672L52.1566 17.3945V29.6631ZM87.1857 13.7302H77.1545V18.5617H84.6568V21.5202H77.1545V26.5959H87.1857V29.6631H73.3612V10.6631H87.1857V13.7302ZM97.79 10.6631C99.888 10.6631 101.705 11.0612 103.241 11.8574C104.796 12.6355 106.004 13.7393 106.866 15.1688C107.728 16.5983 108.158 18.2812 108.158 20.2174C108.158 22.1355 107.728 23.8002 106.866 25.2117C106.004 26.6231 104.796 27.7178 103.241 28.4959C101.705 29.274 99.888 29.6631 97.79 29.6631H90.4563V10.6631H97.79ZM97.6776 26.5959C99.7944 26.5959 101.424 26.035 102.567 24.9131C103.709 23.7731 104.281 22.2078 104.281 20.2174C104.281 18.2088 103.709 16.6255 102.567 15.4674C101.424 14.3093 99.7944 13.7302 97.6776 13.7302H94.2496V26.5959H97.6776Z" fill="#ff0000"/>
<path d="M111.037 10.6631H114.83V29.6631H111.037V10.6631ZM127.292 29.6631H122.852L117.401 10.6631H121.475L125.072 25.4288L129.006 10.6631H133.249L137.154 25.3745L140.779 10.6631H144.854L139.402 29.6631H134.963L131.141 16.0374L127.292 29.6631ZM161.247 13.7302H151.216V18.5617H158.718V21.5202H151.216V26.5959H161.247V29.6631H147.423V10.6631H161.247V13.7302ZM176.123 16.1459C176.123 15.3498 175.86 14.7526 175.336 14.3545C174.811 13.9383 174.072 13.7302 173.116 13.7302H168.311V18.5345H173.088C174.043 18.5345 174.783 18.3355 175.308 17.9374C175.851 17.5212 176.123 16.924 176.123 16.1459ZM164.518 29.6631V10.6631H173.65C175.018 10.6631 176.17 10.8893 177.106 11.3417C178.043 11.7759 178.745 12.3731 179.214 13.1331C179.701 13.875 179.944 14.7164 179.944 15.6574C179.944 16.4898 179.785 17.1955 179.466 17.7745C179.148 18.3536 178.708 18.815 178.146 19.1588C177.603 19.4845 176.975 19.7107 176.263 19.8374V20.0545C177.125 20.1631 177.865 20.3983 178.483 20.7602C179.101 21.104 179.579 21.5926 179.916 22.2259C180.253 22.8593 180.422 23.6283 180.422 24.5331C180.422 25.5283 180.169 26.415 179.663 27.1931C179.157 27.9531 178.417 28.5593 177.443 29.0117C176.488 29.4459 175.336 29.6631 173.987 29.6631H164.518ZM168.311 26.5959H173.481C174.474 26.5959 175.242 26.3878 175.786 25.9717C176.348 25.5374 176.628 24.9131 176.628 24.0988C176.628 23.2483 176.329 22.6059 175.729 22.1717C175.149 21.7374 174.371 21.5202 173.397 21.5202H168.311V26.5959Z" fill="#111032"/>
</g>
<defs>
<clipPath id="clip0_395_1916">
<rect width="133" height="19" fill="white" transform="translate(48.3262 10.6631)"/>
</clipPath>
</defs>
</svg>
