<svg width="182" height="41" viewBox="0 0 182 41" fill="none" xmlns="http://www.w3.org/2000/svg">
<path d="M20.1632 40.3264C15.8405 40.3264 12.3237 36.8096 12.3237 32.4869V30.776H15.5054V32.4869C15.5054 35.0552 17.5948 37.1446 20.1631 37.1446C22.7314 37.1446 24.8209 35.0552 24.8209 32.4869V24.821H32.4868C35.0551 24.821 37.1446 22.7316 37.1446 20.1632C37.1446 17.5949 35.0551 15.5055 32.4868 15.5055H22.1419V26.4119H18.9602V12.3237H32.4868C36.8095 12.3237 40.3263 15.8405 40.3263 20.1632C40.3263 24.486 36.8095 28.0028 32.4868 28.0028H28.0027V32.4869C28.0027 36.8096 24.4859 40.3264 20.1632 40.3264Z" fill="#fc5e5e"/>
<path d="M13.9145 28.0027H7.83947C3.51676 28.0027 0 24.4859 0 20.1632C0 15.8405 3.51676 12.3237 7.83947 12.3237H12.3237V7.83951C12.3237 3.5168 15.8404 0 20.1631 0C24.4859 0 28.0027 3.5168 28.0027 7.83951V10.0614H24.821V7.83951C24.821 5.27119 22.7315 3.18175 20.1632 3.18175C17.5949 3.18175 15.5054 5.27119 15.5054 7.83951V15.5055H7.83951C5.27123 15.5055 3.18175 17.5949 3.18175 20.1633C3.18175 22.7316 5.27119 24.821 7.83951 24.821H13.9146L13.9145 28.0027Z" fill="white"/>
<g clip-path="url(#clip0_544_5161)">
<path d="M52.1571 29.6631H48.3638V10.6631H52.691L58.957 24.8859L65.223 10.6631H69.5502V29.6631H65.7569V17.3945L60.4462 29.6631H57.4678L52.1571 17.3945V29.6631ZM87.1862 13.7302H77.1551V18.5617H84.6574V21.5202H77.1551V26.5959H87.1862V29.6631H73.3617V10.6631H87.1862V13.7302ZM97.7906 10.6631C99.8886 10.6631 101.706 11.0612 103.242 11.8574C104.796 12.6355 106.005 13.7393 106.866 15.1688C107.728 16.5983 108.159 18.2812 108.159 20.2174C108.159 22.1355 107.728 23.8002 106.866 25.2117C106.005 26.6231 104.796 27.7178 103.242 28.4959C101.706 29.274 99.8886 29.6631 97.7906 29.6631H90.4568V10.6631H97.7906ZM97.6782 26.5959C99.7949 26.5959 101.425 26.035 102.567 24.9131C103.71 23.7731 104.281 22.2078 104.281 20.2174C104.281 18.2088 103.71 16.6255 102.567 15.4674C101.425 14.3093 99.7949 13.7302 97.6782 13.7302H94.2501V26.5959H97.6782Z" fill="#fc5e5e"/>
<path d="M111.037 10.6631H114.83V29.6631H111.037V10.6631ZM127.291 29.6631H122.852L117.401 10.6631H121.475L125.072 25.4288L129.005 10.6631H133.248L137.154 25.3745L140.779 10.6631H144.853L139.402 29.6631H134.962L131.141 16.0374L127.291 29.6631ZM161.247 13.7302H151.216V18.5617H158.718V21.5202H151.216V26.5959H161.247V29.6631H147.423V10.6631H161.247V13.7302ZM176.122 16.1459C176.122 15.3498 175.86 14.7526 175.336 14.3545C174.811 13.9383 174.071 13.7302 173.116 13.7302H168.311V18.5345H173.088C174.043 18.5345 174.783 18.3355 175.308 17.9374C175.851 17.5212 176.122 16.924 176.122 16.1459ZM164.518 29.6631V10.6631H173.65C175.017 10.6631 176.169 10.8893 177.106 11.3417C178.043 11.7759 178.745 12.3731 179.213 13.1331C179.7 13.875 179.944 14.7164 179.944 15.6574C179.944 16.4898 179.785 17.1955 179.466 17.7745C179.148 18.3536 178.708 18.815 178.146 19.1588C177.602 19.4845 176.975 19.7107 176.263 19.8374V20.0545C177.125 20.1631 177.865 20.3983 178.483 20.7602C179.101 21.104 179.579 21.5926 179.916 22.2259C180.253 22.8593 180.422 23.6283 180.422 24.5331C180.422 25.5283 180.169 26.415 179.663 27.1931C179.157 27.9531 178.417 28.5593 177.443 29.0117C176.488 29.4459 175.336 29.6631 173.987 29.6631H164.518ZM168.311 26.5959H173.481C174.474 26.5959 175.242 26.3878 175.785 25.9717C176.347 25.5374 176.628 24.9131 176.628 24.0988C176.628 23.2483 176.329 22.6059 175.729 22.1717C175.148 21.7374 174.371 21.5202 173.397 21.5202H168.311V26.5959Z" fill="white"/>
</g>
<defs>
<clipPath id="clip0_544_5161">
<rect width="133" height="19" fill="white" transform="translate(48.3264 10.6631)"/>
</clipPath>
</defs>
</svg>
