<svg width="80" height="80" viewBox="0 0 80 80" fill="none" xmlns="http://www.w3.org/2000/svg">
<path fill-rule="evenodd" clip-rule="evenodd" d="M15.275 37.5H30C31.3261 37.5 32.5979 38.0268 33.5355 38.9645C34.4732 39.9021 35 41.1739 35 42.5V57.5C35 58.8261 34.4732 60.0979 33.5355 61.0355C32.5979 61.9732 31.3261 62.5 30 62.5H15C13.6739 62.5 12.4021 61.9732 11.4645 61.0355C10.5268 60.0979 10 58.8261 10 57.5V40.875C10.0015 36.3484 11.1204 31.8922 13.2573 27.9018C15.3943 23.9114 18.4832 20.5102 22.25 18L26.725 15L29.475 19.15L25 22.15C22.4008 23.8918 20.1935 26.1565 18.519 28.7996C16.8445 31.4426 15.7396 34.4059 15.275 37.5ZM50.275 37.5H65C66.3261 37.5 67.5979 38.0268 68.5355 38.9645C69.4732 39.9021 70 41.1739 70 42.5V57.5C70 58.8261 69.4732 60.0979 68.5355 61.0355C67.5979 61.9732 66.3261 62.5 65 62.5H50C48.6739 62.5 47.4021 61.9732 46.4645 61.0355C45.5268 60.0979 45 58.8261 45 57.5V40.875C45.0015 36.3484 46.1204 31.8922 48.2573 27.9018C50.3943 23.9114 53.4832 20.5102 57.25 18L61.75 15L64.475 19.15L60 22.15C57.4008 23.8918 55.1935 26.1565 53.519 28.7996C51.8445 31.4426 50.7396 34.4059 50.275 37.5Z" fill="white"/>
</svg>
