<svg width="50" height="50" viewBox="0 0 50 50" fill="none" xmlns="http://www.w3.org/2000/svg">
<path d="M24.9829 27.7547C18.889 27.5561 17.4275 22.3385 17.1147 20.654C16.528 20.5181 16.0053 20.1861 15.6329 19.7128C15.2078 19.127 15.0106 18.4064 15.0782 17.6858C15.0299 17.2975 15.0636 16.9034 15.1772 16.529C15.2908 16.1546 15.4817 15.8082 15.7376 15.5122C15.8821 15.3641 16.0482 15.2388 16.2302 15.1405C15.0976 13.312 14.5397 11.1856 14.6289 9.03648C15.3343 3.99594 19.3964 3.50539 20.6687 3.47702C21.2543 2.79595 21.9863 2.25613 22.8099 1.89796C24.3528 1.27561 26.0581 1.1806 27.6606 1.62769C30.8106 2.44999 32.9113 4.02702 33.9079 6.31553C35.3268 9.56823 34.0822 13.3122 33.3674 14.9932C33.64 15.0818 33.8913 15.2261 34.1052 15.4169C34.3963 15.7124 34.6157 16.0709 34.7464 16.4646C34.8772 16.8584 34.9158 17.2768 34.8593 17.6878C34.9275 18.4084 34.7305 19.1292 34.3052 19.7149C33.9324 20.188 33.4095 20.52 32.8228 20.6561C32.5099 22.3385 31.0518 27.5561 24.9829 27.7547ZM17.3593 16.2209C17.1196 16.2098 16.8852 16.2933 16.7066 16.4534C16.5829 16.6266 16.4948 16.8226 16.4474 17.0301C16.3999 17.2376 16.3941 17.4524 16.4302 17.6622C16.433 17.7072 16.4315 17.7525 16.4255 17.7973C16.3888 18.1851 16.4889 18.5735 16.7086 18.8953C16.8456 19.0483 17.0118 19.1725 17.1975 19.2604C17.3831 19.3484 17.5844 19.3983 17.7897 19.4074C17.9442 19.4257 18.0876 19.4967 18.1958 19.6085C18.304 19.7202 18.3704 19.8659 18.3836 20.0209C18.4059 20.2723 19.0052 26.2081 24.9843 26.404C30.9302 26.2081 31.5322 20.2723 31.5545 20.0196C31.5681 19.8648 31.6345 19.7194 31.7427 19.6079C31.8509 19.4964 31.9942 19.4256 32.1485 19.4074C32.3537 19.3984 32.5551 19.3485 32.7407 19.2605C32.9264 19.1726 33.0926 19.0484 33.2295 18.8953C33.4502 18.572 33.5504 18.1815 33.5126 17.7919C33.507 17.7484 33.5054 17.7045 33.5079 17.6608C33.5444 17.4442 33.5362 17.2224 33.4838 17.009C33.4314 16.7957 33.3359 16.5953 33.2032 16.4203C32.9921 16.2648 32.7295 16.1962 32.4694 16.2284C32.3444 16.2506 32.2156 16.237 32.0979 16.1894C31.9802 16.1418 31.8783 16.0619 31.8038 15.959C31.7294 15.8561 31.6855 15.7343 31.6772 15.6076C31.6688 15.4809 31.6963 15.3544 31.7566 15.2426C31.7816 15.1953 34.2566 10.498 32.666 6.84729C31.8424 4.9608 30.0444 3.64391 27.3208 2.9331C26.0117 2.56264 24.617 2.63388 23.3525 3.1358C22.6331 3.44574 22.0061 3.93639 21.5322 4.56012C21.464 4.65291 21.373 4.72653 21.268 4.77388C21.163 4.82122 21.0476 4.84069 20.9329 4.83039C20.7579 4.81621 16.6208 4.54864 15.9721 9.17364C15.9721 9.17364 15.7849 12.8527 17.916 15.0824C18.0089 15.1795 18.0707 15.3021 18.0936 15.4345C18.1164 15.5669 18.0993 15.7031 18.0444 15.8257C17.9938 15.9514 17.9046 16.0579 17.7896 16.1296C17.6746 16.2014 17.5397 16.2348 17.4045 16.225L17.3593 16.2209Z" fill="#fc5e5e"/>
<path d="M32.3522 16.2372C32.1778 16.2373 32.0101 16.1701 31.8842 16.0494C31.7582 15.9288 31.6838 15.7641 31.6765 15.5899C31.6684 15.4149 31.4589 11.3331 28.4116 10.9406C27.0178 11.1176 25.6025 11.0072 24.253 10.6163C22.9035 10.2254 21.6484 9.56218 20.565 8.66759C19.7035 9.31557 17.7184 11.2852 18.1001 15.4858C18.1052 15.6578 18.0445 15.8252 17.9303 15.9539C17.8162 16.0826 17.6573 16.1629 17.486 16.1785C17.3147 16.1941 17.1439 16.1438 17.0084 16.0378C16.8729 15.9318 16.783 15.7782 16.7569 15.6081C16.1968 9.4453 20.1542 7.30611 20.3224 7.21827C20.4477 7.15291 20.5903 7.12845 20.7301 7.14832C20.87 7.1682 21.0001 7.23142 21.1022 7.32908C22.0652 8.20137 23.2053 8.85539 24.4445 9.2464C25.6836 9.63741 26.9926 9.75619 28.2819 9.59462C28.3438 9.58461 28.4066 9.58234 28.4691 9.58786C31.9042 9.9453 32.9535 13.6358 33.0278 15.5338C33.0348 15.7126 32.9705 15.8868 32.8492 16.0183C32.7279 16.1498 32.5593 16.2278 32.3805 16.2352L32.3522 16.2372Z" fill="#fc5e5e"/>
<path d="M43.979 48.6486H6.02089C5.84169 48.6486 5.66983 48.5774 5.54312 48.4507C5.4164 48.3239 5.34521 48.1521 5.34521 47.9729V40.4404C5.35004 38.0597 6.29879 35.7781 7.98341 34.0959C9.66802 32.4137 11.951 31.4682 14.3317 31.4668H15.629C15.8082 31.4668 15.9801 31.538 16.1068 31.6647C16.2335 31.7914 16.3047 31.9633 16.3047 32.1425C16.3047 32.3217 16.2335 32.4935 16.1068 32.6202C15.9801 32.747 15.8082 32.8181 15.629 32.8181H14.3317C12.3093 32.8192 10.3698 33.6222 8.93856 35.0511C7.5073 36.4799 6.70104 38.418 6.69657 40.4404V47.2972H43.3033V40.4404C43.301 38.4196 42.4972 36.4822 41.0682 35.0532C39.6393 33.6243 37.7019 32.8205 35.681 32.8181H34.2905C34.1113 32.8181 33.9394 32.747 33.8127 32.6202C33.686 32.4935 33.6148 32.3217 33.6148 32.1425C33.6148 31.9633 33.686 31.7914 33.8127 31.6647C33.9394 31.538 34.1113 31.4668 34.2905 31.4668H35.681C38.0599 31.4702 40.3405 32.4167 42.0226 34.0989C43.7048 35.781 44.6513 38.0615 44.6547 40.4404V47.9729C44.6547 48.1521 44.5835 48.3239 44.4568 48.4507C44.3301 48.5774 44.1582 48.6486 43.979 48.6486Z" fill="#fc5e5e"/>
<path d="M27.2583 48.6488C27.1611 48.6488 27.0649 48.6278 26.9765 48.5873C26.8881 48.5467 26.8095 48.4876 26.7461 48.4139C26.6827 48.3402 26.6359 48.2536 26.6089 48.1602C26.582 48.0667 26.5756 47.9686 26.5901 47.8724L29.3245 29.7758C29.339 29.6801 29.3739 29.5886 29.4268 29.5075C29.4798 29.4264 29.5495 29.3576 29.6313 29.3059C29.7131 29.2541 29.8051 29.2205 29.9011 29.2074C29.997 29.1943 30.0946 29.2019 30.1874 29.2298L34.9063 30.6521C35.0003 30.6805 35.0869 30.729 35.1603 30.7942C35.2336 30.8594 35.2918 30.9399 35.3309 31.0299C35.37 31.1199 35.3891 31.2174 35.3867 31.3155C35.3843 31.4137 35.3605 31.5101 35.3171 31.5981L33.4414 35.3616L34.5293 36.5826C34.6257 36.6915 34.6843 36.8287 34.6965 36.9737C34.7087 37.1187 34.6737 37.2638 34.5968 37.3873L27.8326 48.3285C27.7721 48.4264 27.6876 48.5072 27.5871 48.5632C27.4865 48.6193 27.3734 48.6487 27.2583 48.6488ZM30.5448 30.7488L28.4198 44.8116L33.1853 37.1089L32.1292 35.9231C32.0394 35.8223 31.9818 35.697 31.9638 35.5632C31.9459 35.4294 31.9684 35.2933 32.0286 35.1724L33.7502 31.717L30.5448 30.7488Z" fill="#fc5e5e"/>
<path d="M22.664 48.6485C22.5488 48.6486 22.4355 48.6192 22.3348 48.5631C22.2342 48.5071 22.1496 48.4262 22.089 48.3282L15.3228 37.389C15.2459 37.2655 15.2109 37.1205 15.2231 36.9755C15.2353 36.8305 15.2939 36.6933 15.3903 36.5843L16.4782 35.3634L14.6025 31.5999C14.5591 31.5118 14.5353 31.4154 14.5329 31.3173C14.5305 31.2192 14.5495 31.1217 14.5886 31.0317C14.6277 30.9416 14.686 30.8612 14.7593 30.796C14.8327 30.7307 14.9193 30.6822 15.0133 30.6539L19.7322 29.2316C19.8249 29.2038 19.9225 29.1962 20.0183 29.2094C20.1142 29.2226 20.2061 29.2562 20.2878 29.3079C20.3696 29.3597 20.4392 29.4284 20.4921 29.5094C20.545 29.5905 20.5799 29.6819 20.5944 29.7776L23.3302 47.8742C23.3443 47.97 23.3377 48.0678 23.3108 48.1608C23.2838 48.2539 23.2371 48.3401 23.174 48.4135C23.1108 48.487 23.0325 48.5459 22.9445 48.5865C22.8565 48.627 22.7609 48.6482 22.664 48.6485ZM16.737 37.1066L21.5025 44.8093L19.3775 30.7485L16.1721 31.7147L17.893 35.1701C17.9533 35.2909 17.9759 35.427 17.9581 35.5608C17.9403 35.6946 17.8828 35.82 17.793 35.9208L16.737 37.1066Z" fill="#fc5e5e"/>
<path d="M25.0114 36.0509C23.5504 36.0499 22.0908 35.9614 20.6404 35.786C20.5505 35.7778 20.4631 35.7516 20.3834 35.709C20.3038 35.6664 20.2335 35.6083 20.1767 35.5381C20.1199 35.4678 20.0777 35.3869 20.0527 35.3001C20.0278 35.2133 20.0204 35.1224 20.0312 35.0327C20.0419 34.9431 20.0705 34.8564 20.1154 34.778C20.1602 34.6996 20.2202 34.6309 20.292 34.5761C20.3638 34.5213 20.4459 34.4815 20.5333 34.4589C20.6208 34.4363 20.7119 34.4316 20.8012 34.4448C23.5627 34.7844 26.3553 34.7844 29.1168 34.4448C29.2929 34.4258 29.4694 34.4767 29.6084 34.5865C29.7474 34.6963 29.8376 34.8564 29.8598 35.0321C29.8819 35.2079 29.8342 35.3853 29.7268 35.5262C29.6194 35.667 29.461 35.7601 29.2857 35.7854C27.8679 35.9633 26.4403 36.052 25.0114 36.0509Z" fill="#fc5e5e"/>
<path d="M29.9939 30.5523C29.8887 30.5519 29.7851 30.5269 29.6912 30.4794C29.5974 30.4319 29.5159 30.3632 29.4533 30.2786C28.4493 28.9212 28.2675 26.2306 28.2506 25.9286C28.2403 25.7498 28.3014 25.5742 28.4205 25.4404C28.5396 25.3066 28.707 25.2256 28.8858 25.2151C29.0641 25.2067 29.2386 25.2685 29.372 25.3872C29.5054 25.5059 29.5869 25.6721 29.5993 25.8502C29.6405 26.5611 29.8905 28.5982 30.5392 29.4752C30.6133 29.5756 30.6582 29.6946 30.6688 29.8189C30.6795 29.9433 30.6555 30.0681 30.5995 30.1797C30.5435 30.2912 30.4577 30.3851 30.3517 30.4508C30.2456 30.5166 30.1234 30.5517 29.9986 30.5523H29.9939Z" fill="#fc5e5e"/>
<path d="M19.9285 30.5521C19.8037 30.5515 19.6815 30.5164 19.5755 30.4506C19.4694 30.3849 19.3836 30.291 19.3276 30.1795C19.2717 30.0679 19.2477 29.9431 19.2583 29.8187C19.269 29.6944 19.3139 29.5754 19.388 29.475C20.038 28.5966 20.2873 26.5602 20.3285 25.85C20.3337 25.7613 20.3562 25.6744 20.395 25.5944C20.4337 25.5144 20.4878 25.4428 20.5541 25.3837C20.6205 25.3246 20.6979 25.2792 20.7818 25.25C20.8658 25.2208 20.9547 25.2084 21.0434 25.2135C21.1321 25.2187 21.219 25.2413 21.299 25.28C21.379 25.3187 21.4506 25.3728 21.5097 25.4392C21.5688 25.5055 21.6142 25.5829 21.6434 25.6669C21.6726 25.7508 21.685 25.8397 21.6799 25.9284C21.663 26.2304 21.4772 28.921 20.4772 30.2784C20.4138 30.364 20.331 30.4335 20.2357 30.481C20.1403 30.5286 20.0351 30.5529 19.9285 30.5521Z" fill="#fc5e5e"/>
<path d="M38.6182 39.1782C38.4423 39.1783 38.2733 39.1098 38.1472 38.9873C38.021 38.8648 37.9476 38.6979 37.9425 38.5222C37.8161 34.1222 36.1432 32.7377 36.1269 32.7242C35.9873 32.6133 35.8968 32.4521 35.8748 32.2752C35.8528 32.0983 35.9012 31.9199 36.0094 31.7782C36.1168 31.6377 36.2754 31.5453 36.4506 31.521C36.6258 31.4967 36.8036 31.5425 36.9452 31.6485C37.0344 31.7161 39.1459 33.3559 39.2938 38.483C39.2989 38.662 39.2328 38.8357 39.1099 38.9659C38.987 39.0961 38.8174 39.1723 38.6384 39.1776L38.6182 39.1782Z" fill="#fc5e5e"/>
<path d="M38.6218 43.1676C38.0935 43.1677 37.5771 43.0112 37.1377 42.7178C36.6984 42.4244 36.356 42.0073 36.1537 41.5192C35.9514 41.0312 35.8985 40.4941 36.0014 39.976C36.1044 39.4578 36.3587 38.9818 36.7323 38.6082C37.1058 38.2346 37.5817 37.9802 38.0998 37.8771C38.6179 37.7739 39.155 37.8268 39.6431 38.0289C40.1312 38.2311 40.5484 38.5734 40.8419 39.0127C41.1354 39.4519 41.2921 39.9683 41.2921 40.4966C41.2914 41.2047 41.0098 41.8835 40.5092 42.3842C40.0086 42.885 39.3299 43.1667 38.6218 43.1676ZM38.6218 39.177C38.3608 39.1769 38.1056 39.2542 37.8885 39.3991C37.6714 39.544 37.5022 39.7501 37.4022 39.9912C37.3022 40.2323 37.276 40.4976 37.3268 40.7537C37.3777 41.0097 37.5033 41.2449 37.6878 41.4295C37.8723 41.6141 38.1075 41.7398 38.3635 41.7908C38.6194 41.8418 38.8848 41.8157 39.126 41.7158C39.3671 41.616 39.5733 41.4468 39.7183 41.2298C39.8633 41.0128 39.9407 40.7577 39.9407 40.4966C39.9404 40.1469 39.8013 39.8115 39.5541 39.5642C39.3068 39.3168 38.9716 39.1776 38.6218 39.177Z" fill="#fc5e5e"/>
<path d="M10.8661 39.1782C10.6949 39.1786 10.53 39.1141 10.4045 38.9975C10.2791 38.881 10.2026 38.7212 10.1905 38.5505C9.82221 33.3647 12.6796 31.7072 12.8013 31.639C12.9573 31.5509 13.142 31.5285 13.3147 31.5765C13.4873 31.6246 13.6338 31.7393 13.7219 31.8954C13.8099 32.0515 13.8324 32.2362 13.7843 32.4088C13.7362 32.5815 13.6215 32.7279 13.4655 32.816C13.3627 32.8768 11.2357 34.1897 11.5377 38.4552C11.5504 38.634 11.4915 38.8104 11.374 38.9457C11.2566 39.0811 11.0901 39.1642 10.9114 39.1768L10.8661 39.1782Z" fill="#fc5e5e"/>
<path d="M9.49937 44.5885C9.39481 44.589 9.29157 44.5652 9.19778 44.519C9.10398 44.4728 9.02218 44.4054 8.95883 44.3223C8.629 43.8891 8.38603 43.3963 8.24328 42.8709C7.92963 41.8476 8.03253 40.7418 8.52963 39.7939C9.02673 38.846 9.87785 38.1326 10.898 37.8088C11.3819 37.6727 11.888 37.6344 12.3869 37.6961C12.8857 37.7578 13.3673 37.9183 13.8034 38.1682C14.5678 38.6098 15.1791 39.2742 15.5558 40.0725C15.9325 40.8708 16.0566 41.7651 15.9115 42.6358C15.8821 42.8126 15.7837 42.9704 15.6379 43.0747C15.4922 43.1789 15.3109 43.2209 15.1342 43.1915C14.9574 43.1621 14.7995 43.0637 14.6953 42.9179C14.5911 42.7722 14.549 42.5909 14.5784 42.4142C14.6776 41.8175 14.5934 41.2049 14.3369 40.6572C14.0804 40.1094 13.6637 39.6524 13.1419 39.3466C12.8606 39.1841 12.5497 39.0794 12.2274 39.0384C11.9051 38.9975 11.5779 39.0212 11.2649 39.1081C10.5879 39.3345 10.0274 39.8188 9.7051 40.4558C9.3828 41.0928 9.32466 41.8312 9.54328 42.5108C9.64106 42.8705 9.80765 43.2078 10.0338 43.504C10.1099 43.6042 10.1565 43.7236 10.1685 43.8488C10.1804 43.974 10.1571 44.1 10.1013 44.2127C10.0455 44.3254 9.95931 44.4203 9.85249 44.4867C9.74566 44.5531 9.62243 44.5883 9.49666 44.5885H9.49937Z" fill="#fc5e5e"/>
<path d="M15.2541 43.2019C15.2277 43.2019 15.2007 43.2019 15.1737 43.1979L14.4122 43.108C14.324 43.0976 14.2388 43.0698 14.1614 43.0264C14.0839 42.983 14.0158 42.9248 13.9609 42.855C13.9059 42.7853 13.8653 42.7054 13.8412 42.62C13.8172 42.5345 13.8102 42.4452 13.8206 42.357C13.8311 42.2689 13.8588 42.1836 13.9022 42.1062C13.9457 42.0288 14.0039 41.9606 14.0736 41.9057C14.2145 41.7948 14.3936 41.7443 14.5716 41.7655L15.3331 41.856C15.5041 41.8763 15.6609 41.9612 15.7715 42.0933C15.882 42.2253 15.9379 42.3946 15.9278 42.5665C15.9178 42.7385 15.8424 42.9 15.7172 43.0183C15.5919 43.1365 15.4263 43.2018 15.2541 43.2019Z" fill="#fc5e5e"/>
<path d="M9.49936 44.5944C9.34071 44.5946 9.18704 44.539 9.06528 44.4373C8.94352 44.3356 8.86143 44.1943 8.83339 44.0381C8.80535 43.882 8.83315 43.7209 8.91192 43.5832C8.99069 43.4455 9.11541 43.3399 9.26422 43.2849L10.075 42.9856C10.1582 42.9545 10.2467 42.9402 10.3354 42.9433C10.4242 42.9464 10.5114 42.967 10.5922 43.0039C10.673 43.0407 10.7457 43.0932 10.8062 43.1581C10.8668 43.2231 10.9139 43.2993 10.945 43.3825C10.976 43.4657 10.9904 43.5542 10.9872 43.6429C10.9841 43.7317 10.9635 43.8189 10.9267 43.8997C10.8898 43.9805 10.8374 44.0532 10.7724 44.1137C10.7074 44.1743 10.6312 44.2214 10.548 44.2525L9.73719 44.5525C9.66107 44.5806 9.58051 44.5948 9.49936 44.5944Z" fill="#fc5e5e"/>
</svg>
