<svg width="48" height="48" viewBox="0 0 48 48" fill="none" xmlns="http://www.w3.org/2000/svg">
<g clip-path="url(#clip0_271_988)">
<path d="M19.5337 17.875C20.4175 18.1456 21.3209 18.2796 22.2198 18.2796C23.694 18.2796 25.1555 17.9189 26.4945 17.2078C30.9433 14.8456 32.6405 9.30399 30.2776 4.85471C29.133 2.69949 27.2177 1.11915 24.8844 0.404771C22.5511 -0.309792 20.0792 -0.0726977 17.9235 1.0719L17.9234 1.07199C13.4753 3.43533 11.7782 8.9768 14.1404 13.425C15.285 15.5803 17.2003 17.1605 19.5337 17.875ZM18.5833 2.3138L18.5832 2.3139C20.407 1.34546 22.4987 1.14521 24.4727 1.74943C26.4468 2.35374 28.0673 3.6908 29.0356 5.51433C31.0348 9.27887 29.599 13.9674 25.835 15.966C24.0111 16.9345 21.9197 17.1349 19.9455 16.5305C17.9714 15.9261 16.351 14.5891 15.3825 12.7655C13.3839 9.00202 14.8197 4.3134 18.5833 2.3138Z" fill="#ff0000"/>
<path d="M18.4948 11.4226H19.9283V12.8532C19.9283 13.745 20.6526 14.4704 21.5429 14.4704H22.8743C23.7661 14.4704 24.4916 13.745 24.4916 12.8532V11.4226H25.9224C26.8143 11.4226 27.5398 10.6972 27.5398 9.80543V8.47408C27.5398 7.58233 26.8143 6.85689 25.9224 6.85689H24.4916V5.42627C24.4916 4.53452 23.7661 3.80908 22.8743 3.80908H21.5429C20.6526 3.80908 19.9283 4.53452 19.9283 5.42627V6.85689H18.4948C17.6031 6.85689 16.8774 7.58233 16.8774 8.47408V9.80543C16.8774 10.6972 17.6031 11.4226 18.4948 11.4226ZM18.2838 8.47408C18.2838 8.35971 18.3804 8.26305 18.4948 8.26305H20.6315C21.0198 8.26305 21.3346 7.94833 21.3346 7.55993V5.42618C21.3346 5.3118 21.43 5.21514 21.5429 5.21514H22.8743C22.9887 5.21514 23.0854 5.3118 23.0854 5.42618V7.55993C23.0854 7.94824 23.4002 8.26305 23.7885 8.26305H25.9224C26.0368 8.26305 26.1335 8.35971 26.1335 8.47408V9.80543C26.1335 9.9198 26.0368 10.0165 25.9224 10.0165H23.7885C23.4002 10.0165 23.0854 10.3312 23.0854 10.7196V12.8533C23.0854 12.9677 22.9887 13.0644 22.8743 13.0644H21.5429C21.4299 13.0644 21.3346 12.9677 21.3346 12.8533V10.7196C21.3346 10.3313 21.0198 10.0165 20.6315 10.0165H18.4948C18.3804 10.0165 18.2838 9.9198 18.2838 9.80543V8.47408Z" fill="#ff0000"/>
<path d="M45.2654 41.1978V35.4072H47.1506C47.539 35.4072 47.8538 35.0925 47.8538 34.7041V20.6154C47.8538 19.1274 46.6418 17.9167 45.1522 17.9167C43.9072 17.9167 42.8571 18.7642 42.5468 19.9122H36.2098C35.8214 19.9122 35.5067 20.227 35.5067 20.6154C35.5067 21.0038 35.8215 21.3185 36.2098 21.3185H42.4533V34.0012H23.4422V24.1761C23.4422 22.6003 24.7242 21.3184 26.3001 21.3184H32.9623C33.3507 21.3184 33.6654 21.0037 33.6654 20.6153C33.6654 20.2269 33.3506 19.9121 32.9623 19.9121H26.3001C23.9488 19.9121 22.0358 21.8248 22.0358 24.1761V24.3657H13.6348C13.6079 23.2654 12.9387 22.2284 11.8757 21.7886C11.8563 21.7805 11.8365 21.7734 11.8164 21.7671L5.40056 19.7636V16.1432C5.40056 14.6537 4.18856 13.4419 2.69897 13.4419C1.21069 13.4418 0 14.6536 0 16.1431V22.7226C0 23.1109 0.314812 23.4257 0.703125 23.4257C1.09144 23.4257 1.40625 23.111 1.40625 22.7226V16.1431C1.40625 15.4289 1.98609 14.848 2.69887 14.848C3.41306 14.848 3.99412 15.4289 3.99412 16.1431V30.7103C3.99412 31.0986 4.30894 31.4134 4.69725 31.4134H22.0357V34.001H1.40634V25.9697C1.40634 25.5814 1.09153 25.2666 0.703219 25.2666C0.314906 25.2666 9.375e-05 25.5813 9.375e-05 25.9697V34.7041C9.375e-05 35.0924 0.314906 35.4072 0.703219 35.4072H3.30862V41.1978C1.74919 41.5232 0.574125 42.9083 0.574125 44.5628C0.574125 46.4581 2.11631 48.0002 4.01184 48.0002C5.90737 48.0002 7.44956 46.4581 7.44956 44.5628C7.44956 42.9083 6.27441 41.5233 4.71506 41.1978V38.968H43.8591V41.1978C42.2996 41.5232 41.1245 42.9083 41.1245 44.5628C41.1245 46.4581 42.6667 48.0002 44.5622 48.0002C46.4577 48.0002 48 46.458 48 44.5627C48 42.9082 46.8248 41.5232 45.2654 41.1978ZM45.1522 19.3228C45.8664 19.3228 46.4474 19.9026 46.4474 20.6154V34.0011H43.8596V20.6154C43.8596 19.9026 44.4395 19.3228 45.1522 19.3228ZM11.364 23.0991C11.879 23.3242 12.2055 23.8281 12.2291 24.3658H5.40056V21.2366L11.364 23.0991ZM5.40056 30.0072V25.772H12.8346H22.0358V30.0072H5.40056ZM6.04313 44.5627C6.04313 45.6827 5.13188 46.5939 4.01175 46.5939C2.89162 46.5939 1.98038 45.6827 1.98038 44.5627C1.98038 43.4426 2.89162 42.5314 4.01175 42.5314C5.13188 42.5314 6.04313 43.4426 6.04313 44.5627ZM4.71488 37.5619V35.4073H43.8591V37.5619H4.71488ZM44.5623 46.594C43.4422 46.594 42.5309 45.6828 42.5309 44.5628C42.5309 43.4426 43.4422 42.5315 44.5623 42.5315C45.6824 42.5315 46.5937 43.4426 46.5937 44.5628C46.5937 45.6827 45.6824 46.594 44.5623 46.594Z" fill="#ff0000"/>
</g>
<defs>
<clipPath id="clip0_271_988">
<rect width="48" height="48" fill="white"/>
</clipPath>
</defs>
</svg>
