<svg width="49" height="49" viewBox="0 0 49 49" fill="none" xmlns="http://www.w3.org/2000/svg">
<g clip-path="url(#clip0_271_993)">
<path d="M48.5133 20.4026C48.3079 18.5275 46.7911 17.071 44.907 16.9393C43.2551 16.823 41.602 16.7304 39.994 16.6644C37.1289 16.544 34.2273 16.4951 31.3557 16.5166C31.5463 12.4296 31.4207 8.32501 30.9752 4.26099C30.7766 2.44419 29.3081 1.03273 27.4836 0.904859C21.244 0.467457 14.9195 0.378445 8.6864 0.640503C7.12927 0.705205 5.5394 0.794121 3.96092 0.904859C2.13647 1.03273 0.66729 2.444 0.467444 4.2609C-0.155448 9.94866 -0.155831 15.7186 0.466391 21.4109C0.66662 23.2311 2.13627 24.6448 3.96044 24.7725L4.32779 24.7985C4.85008 24.8335 5.25916 25.2706 5.25916 25.7935V29.2065C5.25916 30.0131 5.70785 30.7363 6.43038 31.0941C6.72891 31.2419 7.04868 31.3147 7.36644 31.3147C7.81696 31.3147 8.26336 31.1683 8.63883 30.8822C9.35179 30.3397 10.0303 29.7868 10.6555 29.2392C10.9536 28.978 10.9837 28.5244 10.7224 28.2262C10.4612 27.928 10.0076 27.8981 9.70947 28.1593C9.10897 28.6853 8.45612 29.2171 7.769 29.74C7.56227 29.8976 7.30011 29.9226 7.06744 29.8075C6.83409 29.6919 6.69474 29.4672 6.69474 29.2065V25.7935C6.69474 24.5175 5.69713 23.4512 4.42627 23.3662L4.06113 23.3403C2.92934 23.2611 2.01759 22.3836 1.89355 21.2544C1.28262 15.6662 1.283 10.0013 1.89451 4.41748C2.01836 3.29124 2.92963 2.41624 4.06142 2.3369C5.6264 2.22712 7.20239 2.13897 8.74641 2.07484C14.926 1.81517 21.1967 1.90323 27.3832 2.3369C28.5144 2.41624 29.4249 3.29105 29.5481 4.41719C30.1607 10.006 30.1607 15.6731 29.548 21.2611C29.5228 21.4916 29.4642 21.715 29.3731 21.9265C29.026 22.7371 28.2629 23.2787 27.3811 23.3403C23.2475 23.6312 19.039 23.7679 14.8715 23.7471C14.8658 23.7471 14.8603 23.7471 14.8547 23.7471C14.0559 23.7471 13.3107 24.1346 12.8588 24.7854C12.5415 25.2417 12.1538 25.7232 11.7064 26.2169C11.4402 26.5106 11.4625 26.9646 11.7563 27.2308C12.0499 27.497 12.504 27.4748 12.7702 27.181C13.2587 26.6419 13.685 26.1118 14.0377 25.6048C14.2213 25.3403 14.5263 25.1829 14.8559 25.1829H14.8629C15.3948 25.1856 15.9275 25.1856 16.4605 25.1832C16.2411 29.5189 16.3694 33.9072 16.8434 38.2408C16.8865 38.6271 16.985 39.0005 17.1353 39.348C17.713 40.6986 18.9834 41.6009 20.4497 41.7027C24.79 42.0079 29.2053 42.1507 33.5721 42.1293H33.5793C33.9306 42.1293 34.257 42.2978 34.4537 42.5811C35.9304 44.706 38.3185 46.7346 40.0618 48.062C40.4474 48.3559 40.9056 48.5061 41.368 48.5061C41.6942 48.5061 42.0225 48.4315 42.3289 48.2797C43.0703 47.9125 43.5309 47.1703 43.5309 46.3426V42.7936C43.5309 42.2346 43.9679 41.7672 44.5264 41.7295L44.5425 41.7285C44.6651 41.7201 44.7877 41.7117 44.9074 41.7027C46.7915 41.5711 48.3083 40.1113 48.5142 38.2315C48.5353 38.0378 48.5555 37.8442 48.5758 37.6495C48.6168 37.2552 48.3304 36.9023 47.936 36.8614C47.5406 36.8201 47.1887 37.1069 47.1478 37.5012C47.1279 37.6933 47.1079 37.8844 47.087 38.0755C46.9569 39.2642 45.9982 40.1873 44.8036 40.2708C44.6833 40.2799 44.5639 40.288 44.4446 40.2962L44.4292 40.2972C43.1204 40.3855 42.0953 41.482 42.0953 42.7937V46.3427C42.0953 46.6249 41.9444 46.8681 41.6918 46.9932C41.4396 47.118 41.1556 47.0907 40.9318 46.9201C39.2705 45.655 37.0025 43.7333 35.633 41.7622C35.1679 41.0923 34.4012 40.6938 33.5804 40.6938C33.5749 40.6938 33.5694 40.6938 33.5639 40.6938C29.233 40.7154 24.8551 40.5733 20.5499 40.2705C19.6227 40.2062 18.8203 39.6363 18.4543 38.781C18.3596 38.5618 18.2977 38.3265 18.2705 38.0831C17.8018 33.7981 17.6775 29.4575 17.899 25.17C21.1028 25.1281 24.3142 24.9953 27.4813 24.7724C28.9023 24.6733 30.1327 23.7994 30.6921 22.4932C30.8392 22.1519 30.9344 21.7898 30.9751 21.4173C31.1013 20.2654 31.2008 19.1101 31.2759 17.9528C34.1528 17.9297 37.0619 17.9779 39.9343 18.0986C41.5289 18.1642 43.168 18.2559 44.8064 18.3712C45.9974 18.4545 46.9562 19.3743 47.0859 20.5586C47.599 25.2443 47.6998 29.9918 47.3856 34.6693C47.3591 35.0649 47.6582 35.407 48.0537 35.4335C48.0702 35.4347 48.0863 35.4353 48.1026 35.4353C48.477 35.4353 48.7926 35.1447 48.8181 34.7655C49.1381 30.0044 49.0355 25.1719 48.5133 20.4026Z" fill="#fc5e5e"/>
<path d="M41.8821 30.7346C41.8935 30.1702 41.6789 29.634 41.2778 29.2248C41.207 29.1525 41.1314 29.0856 41.0517 29.0244C41.2598 28.6967 41.3804 28.3082 41.3804 27.892C41.3804 27.3257 41.1598 26.7937 40.7603 26.3949C40.3611 25.995 39.8292 25.7747 39.2628 25.7747H36.4333L37.4979 23.507C38.1011 22.2232 37.547 20.6879 36.2627 20.0845C35.9178 19.9225 35.5505 19.8403 35.1708 19.8403C34.1775 19.8403 33.2627 20.4212 32.8403 21.3203L32.1841 22.7186C31.8508 23.4282 31.329 24.006 30.6755 24.3894C30.04 24.7618 29.5403 25.3082 29.2199 25.9716C28.9919 25.8682 28.7397 25.8091 28.4734 25.8091H26.3119C25.3117 25.8091 24.498 26.6228 24.498 27.623V36.3526C24.498 37.3528 25.3117 38.1664 26.3119 38.1664H28.4734C28.8149 38.1664 29.1336 38.0699 29.4066 37.9051C29.9177 38.2326 30.5121 38.4089 31.1332 38.4089H38.7604C39.9278 38.4089 40.8776 37.4589 40.8776 36.2912C40.8776 36.0301 40.8306 35.7749 40.7379 35.5325C40.7356 35.526 40.7331 35.5196 40.7307 35.5132C40.6826 35.392 40.6243 35.2765 40.556 35.1675C41.0572 34.7799 41.3805 34.1727 41.3805 33.4915C41.3805 33.0865 41.2677 32.699 41.0572 32.3652C41.5473 31.9848 41.8692 31.3952 41.8821 30.7346ZM26.3116 36.7308C26.103 36.7308 25.9334 36.5612 25.9334 36.3526V27.623C25.9334 27.4145 26.103 27.2448 26.3116 27.2448H28.4731C28.6818 27.2448 28.8514 27.4145 28.8514 27.623V36.3526C28.8514 36.5612 28.6818 36.7308 28.4731 36.7308H26.3116ZM39.7655 31.3742H39.2626C38.8661 31.3742 38.5448 31.6956 38.5448 32.092C38.5448 32.4884 38.8661 32.8098 39.2626 32.8098C39.4452 32.8098 39.6162 32.8804 39.745 33.0094C39.8738 33.1379 39.9447 33.3091 39.9447 33.4914C39.9447 33.8675 39.6388 34.1734 39.2626 34.1734H38.7602C38.3637 34.1734 38.0424 34.4948 38.0424 34.8913C38.0424 35.2877 38.3637 35.6091 38.7602 35.6091C38.9426 35.6091 39.1138 35.68 39.2424 35.8086C39.3069 35.873 39.357 35.9481 39.3917 36.0321C39.3927 36.0346 39.3937 36.0371 39.3946 36.0395C39.4258 36.1194 39.4417 36.204 39.4417 36.2911C39.4417 36.6671 39.136 36.9731 38.7602 36.9731H31.133C30.8164 36.9731 30.5131 36.8888 30.246 36.7339C30.2724 36.6108 30.2872 36.4834 30.2872 36.3525C30.2872 36.3525 30.2872 27.612 30.2871 27.6096C30.281 27.2809 30.3454 26.9622 30.4785 26.6627C30.6727 26.2257 30.9917 25.868 31.4014 25.6279C32.3063 25.0971 33.0262 24.302 33.4834 23.3288L34.1396 21.9306C34.3264 21.533 34.7311 21.276 35.1705 21.276C35.3376 21.276 35.4995 21.3123 35.652 21.3839C36.2198 21.6506 36.4648 22.3291 36.1981 22.8966L34.6628 26.1672C34.5612 26.3838 34.574 26.6369 34.6973 26.842C34.7084 26.8604 34.7149 26.8702 34.7218 26.8806C34.8539 27.0861 35.0814 27.2104 35.3257 27.2104H39.2626C39.4452 27.2104 39.6162 27.281 39.745 27.4101C39.8738 27.5385 39.9447 27.7097 39.9447 27.892C39.9447 28.2683 39.6388 28.5744 39.2626 28.5744C38.8661 28.5744 38.5448 28.8958 38.5448 29.2922C38.5448 29.6887 38.8661 30.0101 39.2626 30.0101H39.7339C39.9268 30.0101 40.1157 30.0901 40.2525 30.2296C40.3813 30.3611 40.4502 30.5301 40.4467 30.706C40.4395 31.0745 40.1339 31.3742 39.7655 31.3742Z" fill="#fc5e5e"/>
<path d="M22.3522 9.74978C22.3522 8.28606 21.6356 7.09521 20.7547 7.09521C19.8738 7.09521 19.1572 8.28606 19.1572 9.74978C19.1572 11.2135 19.8738 12.4043 20.7547 12.4043C21.6356 12.4043 22.3522 11.2135 22.3522 9.74978Z" fill="#fc5e5e"/>
<path d="M12.2858 9.74978C12.2858 8.28606 11.5692 7.09521 10.6882 7.09521C9.80741 7.09521 9.09082 8.28606 9.09082 9.74978C9.09082 11.2135 9.80741 12.4043 10.6882 12.4043C11.5692 12.4043 12.2858 11.2135 12.2858 9.74978Z" fill="#fc5e5e"/>
<path d="M15.7218 19.2024C18.296 19.2024 20.606 17.6689 21.6066 15.2957C21.7606 14.9303 21.5893 14.5094 21.224 14.3553C20.8584 14.2015 20.4377 14.3726 20.2837 14.738C19.508 16.5779 17.7173 17.7668 15.7218 17.7668C13.7261 17.7668 11.9354 16.5779 11.1598 14.738C11.0059 14.3726 10.5845 14.2016 10.2194 14.3553C9.85415 14.5093 9.68283 14.9303 9.83683 15.2957C10.8373 17.6689 13.1473 19.2024 15.7218 19.2024Z" fill="#fc5e5e"/>
</g>
<defs>
<clipPath id="clip0_271_993">
<rect width="49" height="49" fill="white"/>
</clipPath>
</defs>
</svg>
