<svg width="52" height="52" viewBox="0 0 52 52" fill="none" xmlns="http://www.w3.org/2000/svg">
<g clip-path="url(#clip0_271_998)">
<path d="M49.4 4.3335H2.6C1.91044 4.3335 1.24912 4.60742 0.761522 5.09502C0.273928 5.58261 0 6.24393 0 6.9335L0 45.0668C0 45.7564 0.273928 46.4177 0.761522 46.9053C1.24912 47.3929 1.91044 47.6668 2.6 47.6668H29.4667V50.2668C29.4667 50.6096 29.5684 50.9446 29.7589 51.2296C29.9494 51.5146 30.2201 51.7367 30.5367 51.8679C30.8534 51.999 31.2019 52.0334 31.5381 51.9665C31.8742 51.8997 32.1831 51.7346 32.4255 51.4923L34.6667 49.2494L36.9079 51.4906C37.1502 51.7328 37.4588 51.8978 37.7949 51.9647C38.1309 52.0316 38.4792 51.9974 38.7958 51.8665C39.1124 51.7355 39.3831 51.5137 39.5737 51.229C39.7643 50.9443 39.8663 50.6094 39.8667 50.2668V47.6668H49.4C50.0896 47.6668 50.7509 47.3929 51.2385 46.9053C51.7261 46.4177 52 45.7564 52 45.0668V6.9335C52 6.24393 51.7261 5.58261 51.2385 5.09502C50.7509 4.60742 50.0896 4.3335 49.4 4.3335ZM29.4667 42.4668H10.3385C10.1491 41.1714 9.54675 39.9716 8.62098 39.0458C7.69522 38.1201 6.49545 37.5177 5.2 37.3284V14.672C6.49545 14.4826 7.69522 13.8802 8.62098 12.9545C9.54675 12.0287 10.1491 10.829 10.3385 9.5335H41.6615C41.8509 10.829 42.4533 12.0287 43.379 12.9545C44.3048 13.8802 45.5045 14.4826 46.8 14.672V37.3284C45.5045 37.5177 44.3048 38.1201 43.379 39.0458C42.4533 39.9716 41.8509 41.1714 41.6615 42.4668H39.8667V38.9525C40.3883 38.8315 40.8507 38.5306 41.1727 38.1028C41.4948 37.6749 41.6558 37.1473 41.6277 36.6125L41.6191 36.4392C41.6142 36.3291 41.6409 36.22 41.696 36.1246C41.7511 36.0292 41.8324 35.9516 41.9302 35.901L42.0845 35.8212C42.37 35.6735 42.6215 35.4678 42.823 35.2173C43.0245 34.9669 43.1715 34.6771 43.2546 34.3665C43.3377 34.056 43.3551 33.7316 43.3057 33.4139C43.2563 33.0963 43.1411 32.7924 42.9676 32.5218L42.8749 32.3771C42.8154 32.2842 42.7838 32.1762 42.7838 32.066C42.7838 31.9557 42.8154 31.8477 42.8749 31.7548L42.9676 31.6092C43.1411 31.3386 43.2562 31.0348 43.3055 30.7172C43.3549 30.3996 43.3374 30.0752 43.2542 29.7647C43.171 29.4542 43.0239 29.1645 42.8223 28.9142C42.6208 28.6638 42.3692 28.4583 42.0836 28.3107L41.9302 28.2318C41.8324 28.1809 41.7511 28.1032 41.696 28.0077C41.6409 27.9122 41.6142 27.8029 41.6191 27.6928L41.6277 27.5194C41.6427 27.1983 41.5904 26.8775 41.4743 26.5777C41.3582 26.2779 41.1808 26.0056 40.9535 25.7783C40.7261 25.5509 40.4539 25.3735 40.154 25.2574C39.8542 25.1413 39.5335 25.0891 39.2123 25.104L39.039 25.1127C38.9288 25.1182 38.8194 25.0918 38.7239 25.0366C38.6285 24.9814 38.551 24.8998 38.5008 24.8016L38.4211 24.6473C38.2733 24.3618 38.0677 24.1102 37.8172 23.9088C37.5667 23.7073 37.2769 23.5603 36.9664 23.4771C36.6558 23.394 36.3314 23.3766 36.0137 23.426C35.6961 23.4755 35.3923 23.5906 35.1217 23.7642L34.9769 23.8569C34.884 23.9163 34.7761 23.9479 34.6658 23.9479C34.5555 23.9479 34.4476 23.9163 34.3547 23.8569L34.2091 23.7642C33.9385 23.5907 33.6347 23.4756 33.317 23.4262C32.9994 23.3769 32.675 23.3944 32.3645 23.4776C32.0541 23.5608 31.7644 23.7079 31.514 23.9094C31.2636 24.111 31.0581 24.3626 30.9105 24.6482L30.8317 24.8016C30.7807 24.8993 30.7029 24.9805 30.6074 25.0356C30.5119 25.0907 30.4027 25.1174 30.2926 25.1127L30.1193 25.104C29.7979 25.0874 29.4767 25.1388 29.1766 25.255C28.8765 25.3712 28.6044 25.5495 28.3781 25.7783C28.1511 26.0059 27.974 26.2782 27.8579 26.578C27.7418 26.8777 27.6894 27.1983 27.7039 27.5194L27.7125 27.6928C27.7174 27.8028 27.6907 27.912 27.6356 28.0073C27.5805 28.1027 27.4992 28.1803 27.4014 28.231L27.2471 28.3107C26.9616 28.4584 26.7101 28.6641 26.5086 28.9146C26.3071 29.1651 26.1601 29.4548 26.077 29.7654C25.9939 30.0759 25.9765 30.4004 26.0259 30.718C26.0753 31.0357 26.1905 31.3395 26.364 31.6101L26.4567 31.7548C26.5162 31.8477 26.5478 31.9557 26.5478 32.066C26.5478 32.1762 26.5162 32.2842 26.4567 32.3771L26.364 32.5227C26.1905 32.7933 26.0754 33.0971 26.0261 33.4147C25.9767 33.7323 25.9942 34.0568 26.0774 34.3672C26.1606 34.6777 26.3077 34.9674 26.5093 35.2178C26.7108 35.4681 26.9624 35.6737 27.248 35.8212L27.4014 35.9001C27.4992 35.951 27.5805 36.0288 27.6356 36.1243C27.6907 36.2198 27.7174 36.329 27.7125 36.4392L27.7039 36.6125C27.6758 37.1475 27.8372 37.6753 28.1595 38.1032C28.4819 38.5311 28.9447 38.8318 29.4667 38.9525V42.4668ZM38.1333 50.2668L35.8921 48.0256C35.5671 47.7007 35.1263 47.5181 34.6667 47.5181C34.2071 47.5181 33.7662 47.7007 33.4412 48.0256L31.2 50.2668V39.9102C31.5601 40.3399 32.0646 40.6235 32.619 40.7077C33.1733 40.792 33.7393 40.6711 34.2108 40.3678L34.3555 40.275C34.4484 40.2156 34.5564 40.184 34.6667 40.184C34.7769 40.184 34.8849 40.2156 34.9778 40.275L35.1234 40.3678C35.5948 40.671 36.1607 40.7919 36.7148 40.7076C37.269 40.6234 37.7734 40.3398 38.1333 39.9102V50.2668ZM39.7271 37.129C39.6699 37.1851 39.6022 37.2293 39.5278 37.259C39.4534 37.2888 39.3739 37.3035 39.2938 37.3024L39.1205 37.2937C38.6795 37.2768 38.2428 37.3849 37.8606 37.6056C37.4785 37.8262 37.1665 38.1505 36.9607 38.5408L36.8827 38.6942C36.8458 38.7655 36.7944 38.8283 36.7318 38.8786C36.6692 38.9288 36.5969 38.9656 36.5193 38.9864C36.4418 39.0071 36.3608 39.0116 36.2814 38.9993C36.2021 38.9871 36.1262 38.9584 36.0585 38.9152L35.9129 38.8216C35.5406 38.5839 35.108 38.4576 34.6662 38.4576C34.2245 38.4576 33.7919 38.5839 33.4195 38.8216L33.2748 38.9152C33.2073 38.9584 33.1314 38.9871 33.0522 38.9993C32.973 39.0115 32.892 39.0071 32.8146 38.9863C32.7369 38.9661 32.6643 38.9296 32.6017 38.8792C32.5391 38.8289 32.4879 38.7658 32.4515 38.6942L32.3717 38.5408C32.1691 38.1479 31.8578 37.8214 31.4749 37.6003C31.092 37.3792 30.6537 37.2728 30.212 37.2937L30.0387 37.3024C29.9579 37.3063 29.8773 37.2934 29.8019 37.2643C29.7265 37.2352 29.658 37.1906 29.6009 37.1335C29.5437 37.0764 29.4992 37.0079 29.4701 36.9325C29.441 36.8571 29.428 36.7764 29.432 36.6957L29.4407 36.5224C29.4601 36.081 29.3531 35.6432 29.1321 35.2606C28.9112 34.878 28.5855 34.5664 28.1935 34.3626L28.0401 34.2846C27.9689 34.2477 27.9061 34.1963 27.8558 34.1337C27.8055 34.0711 27.7688 33.9988 27.748 33.9212C27.7272 33.8437 27.7228 33.7627 27.7351 33.6833C27.7473 33.604 27.7759 33.5281 27.8191 33.4604L27.9127 33.3148C28.1505 32.9425 28.2768 32.5099 28.2768 32.0681C28.2768 31.6263 28.1505 31.1938 27.9127 30.8214L27.8191 30.6767C27.7759 30.6092 27.7472 30.5334 27.735 30.4541C27.7227 30.3749 27.7272 30.2939 27.7481 30.2165C27.7683 30.1388 27.8048 30.0662 27.8551 30.0036C27.9055 29.941 27.9685 29.8898 28.0401 29.8534L28.1935 29.7736C28.5857 29.57 28.9114 29.2585 29.1324 28.8758C29.3534 28.4932 29.4603 28.0553 29.4407 27.6139L29.432 27.4406C29.428 27.3598 29.441 27.2792 29.4701 27.2038C29.4992 27.1284 29.5437 27.0599 29.6009 27.0028C29.658 26.9456 29.7265 26.9011 29.8019 26.872C29.8773 26.8429 29.9579 26.8299 30.0387 26.8339L30.212 26.8426C30.6536 26.8632 31.0918 26.7566 31.4747 26.5356C31.8575 26.3145 32.1688 25.9882 32.3717 25.5954L32.4497 25.442C32.4867 25.3708 32.5381 25.308 32.6007 25.2577C32.6632 25.2074 32.7356 25.1707 32.8131 25.1499C32.8907 25.1291 32.9717 25.1247 33.051 25.137C33.1304 25.1492 33.2063 25.1778 33.2739 25.221L33.4195 25.3146C33.7918 25.5523 34.2242 25.6786 34.6658 25.6786C35.1074 25.6786 35.5398 25.5523 35.9121 25.3146L36.0568 25.221C36.1244 25.1778 36.2002 25.1492 36.2795 25.137C36.3588 25.1247 36.4397 25.1292 36.5172 25.15C36.5947 25.1708 36.667 25.2075 36.7294 25.2578C36.7919 25.308 36.8433 25.3708 36.8801 25.442L36.9599 25.5954C37.1633 25.9878 37.4747 26.3137 37.8574 26.5347C38.2401 26.7557 38.6781 26.8625 39.1196 26.8426L39.2929 26.8339C39.3732 26.8312 39.4532 26.8452 39.5278 26.875C39.6024 26.9049 39.67 26.9499 39.7263 27.0072C39.784 27.0632 39.8293 27.1307 39.8591 27.2054C39.889 27.2801 39.9028 27.3602 39.8996 27.4406L39.8909 27.6139C39.8715 28.0553 39.9785 28.4931 40.1995 28.8757C40.4204 29.2583 40.7461 29.5698 41.1381 29.7736L41.2915 29.8516C41.3627 29.8886 41.4255 29.94 41.4758 30.0026C41.5261 30.0651 41.5628 30.1375 41.5836 30.215C41.6044 30.2926 41.6088 30.3736 41.5965 30.4529C41.5843 30.5323 41.5557 30.6082 41.5125 30.6758L41.4189 30.8214C41.1811 31.1938 41.0548 31.6263 41.0548 32.0681C41.0548 32.5099 41.1811 32.9425 41.4189 33.3148L41.5125 33.4596C41.5557 33.5271 41.5844 33.6029 41.5966 33.6822C41.6089 33.7614 41.6044 33.8423 41.5835 33.9198C41.5633 33.9975 41.5268 34.0701 41.4765 34.1327C41.4261 34.1953 41.3631 34.2465 41.2915 34.2829L41.1381 34.3626C40.7459 34.5663 40.4202 34.8778 40.1992 35.2604C39.9782 35.6431 39.8713 36.0809 39.8909 36.5224L39.8996 36.6957C39.9027 36.7757 39.8889 36.8555 39.8592 36.9298C39.8295 37.0042 39.7845 37.0714 39.7271 37.1273V37.129ZM50.2667 45.0668C50.2667 45.2967 50.1754 45.5171 50.0128 45.6797C49.8503 45.8422 49.6299 45.9335 49.4 45.9335H39.8667V44.2002H42.4667C42.6965 44.2002 42.917 44.1089 43.0795 43.9463C43.242 43.7838 43.3333 43.5634 43.3333 43.3335C43.3347 42.1846 43.7917 41.0832 44.6041 40.2709C45.4164 39.4585 46.5178 39.0015 47.6667 39.0002C47.8965 39.0002 48.117 38.9089 48.2795 38.7463C48.442 38.5838 48.5333 38.3633 48.5333 38.1335V13.8668C48.5333 13.637 48.442 13.4165 48.2795 13.254C48.117 13.0915 47.8965 13.0002 47.6667 13.0002C46.5178 12.9988 45.4164 12.5418 44.6041 11.7294C43.7917 10.9171 43.3347 9.81568 43.3333 8.66683C43.3333 8.43698 43.242 8.21654 43.0795 8.054C42.917 7.89147 42.6965 7.80016 42.4667 7.80016H9.53333C9.30348 7.80016 9.08304 7.89147 8.92051 8.054C8.75798 8.21654 8.66667 8.43698 8.66667 8.66683C8.66529 9.81568 8.2083 10.9171 7.39594 11.7294C6.58358 12.5418 5.48218 12.9988 4.33333 13.0002C4.10348 13.0002 3.88304 13.0915 3.72051 13.254C3.55798 13.4165 3.46667 13.637 3.46667 13.8668V38.1335C3.46667 38.3633 3.55798 38.5838 3.72051 38.7463C3.88304 38.9089 4.10348 39.0002 4.33333 39.0002C5.48218 39.0015 6.58358 39.4585 7.39594 40.2709C8.2083 41.0832 8.66529 42.1846 8.66667 43.3335C8.66667 43.5634 8.75798 43.7838 8.92051 43.9463C9.08304 44.1089 9.30348 44.2002 9.53333 44.2002H29.4667V45.9335H2.6C2.37015 45.9335 2.14971 45.8422 1.98717 45.6797C1.82464 45.5171 1.73333 45.2967 1.73333 45.0668V6.9335C1.73333 6.70364 1.82464 6.4832 1.98717 6.32067C2.14971 6.15814 2.37015 6.06683 2.6 6.06683H49.4C49.6299 6.06683 49.8503 6.15814 50.0128 6.32067C50.1754 6.4832 50.2667 6.70364 50.2667 6.9335V45.0668Z" fill="#fc5e5e"/>
<path d="M43.8037 17.3464C43.8574 17.1108 43.8612 16.8666 43.815 16.6294C43.7687 16.3922 43.6734 16.1674 43.5351 15.9692L41.0408 12.3821C40.8026 12.04 40.4492 11.7952 40.0452 11.6926C39.6412 11.5899 39.2138 11.6362 38.8412 11.8231C37.3774 12.5667 33.1931 14.3 25.9998 14.3C18.8238 14.3 14.6465 12.5771 13.1801 11.837C12.8092 11.6518 12.3842 11.6057 11.9823 11.707C11.5803 11.8083 11.228 12.0502 10.9891 12.389L8.4758 15.9632C8.3364 16.1609 8.23994 16.3857 8.19264 16.6229C8.14533 16.8602 8.14822 17.1048 8.20112 17.3408C8.25402 17.5769 8.35576 17.7993 8.49979 17.9937C8.64382 18.1881 8.82695 18.3502 9.0374 18.4696C10.9692 19.5607 16.4907 22.1 25.9998 22.1C35.5089 22.1 41.0365 19.559 42.9683 18.467C43.1777 18.3484 43.3601 18.1876 43.504 17.9946C43.6478 17.8017 43.7499 17.5809 43.8037 17.3464ZM25.9998 20.3667C16.8998 20.3667 11.6998 17.9842 9.89193 16.9616L12.3975 13.3831C13.9722 14.1796 18.4511 16.0334 25.9998 16.0334C33.5719 16.0334 38.0525 14.1692 39.6186 13.3718L42.1198 16.9572C40.2998 17.9825 35.0998 20.3667 25.9998 20.3667Z" fill="#fc5e5e"/>
<path d="M9.53366 26.8666H14.7337C14.9635 26.8666 15.184 26.7753 15.3465 26.6128C15.509 26.4503 15.6003 26.2298 15.6003 26C15.6003 25.7701 15.509 25.5497 15.3465 25.3871C15.184 25.2246 14.9635 25.1333 14.7337 25.1333H9.53366C9.3038 25.1333 9.08336 25.2246 8.92083 25.3871C8.7583 25.5497 8.66699 25.7701 8.66699 26C8.66699 26.2298 8.7583 26.4503 8.92083 26.6128C9.08336 26.7753 9.3038 26.8666 9.53366 26.8666Z" fill="#fc5e5e"/>
<path d="M14.7337 32.0669H9.53366C9.3038 32.0669 9.08336 32.1582 8.92083 32.3207C8.7583 32.4833 8.66699 32.7037 8.66699 32.9336C8.66699 33.1634 8.7583 33.3839 8.92083 33.5464C9.08336 33.7089 9.3038 33.8002 9.53366 33.8002H14.7337C14.9635 33.8002 15.184 33.7089 15.3465 33.5464C15.509 33.3839 15.6003 33.1634 15.6003 32.9336C15.6003 32.7037 15.509 32.4833 15.3465 32.3207C15.184 32.1582 14.9635 32.0669 14.7337 32.0669Z" fill="#fc5e5e"/>
<path d="M25.133 25.1333H18.1997C17.9698 25.1333 17.7494 25.2246 17.5868 25.3871C17.4243 25.5497 17.333 25.7701 17.333 26C17.333 26.2298 17.4243 26.4503 17.5868 26.6128C17.7494 26.7753 17.9698 26.8666 18.1997 26.8666H25.133C25.3629 26.8666 25.5833 26.7753 25.7458 26.6128C25.9084 26.4503 25.9997 26.2298 25.9997 26C25.9997 25.7701 25.9084 25.5497 25.7458 25.3871C25.5833 25.2246 25.3629 25.1333 25.133 25.1333Z" fill="#fc5e5e"/>
<path d="M9.53366 30.3334H23.4003C23.6302 30.3334 23.8506 30.2421 24.0132 30.0796C24.1757 29.9171 24.267 29.6966 24.267 29.4668C24.267 29.2369 24.1757 29.0165 24.0132 28.8539C23.8506 28.6914 23.6302 28.6001 23.4003 28.6001H9.53366C9.3038 28.6001 9.08336 28.6914 8.92083 28.8539C8.7583 29.0165 8.66699 29.2369 8.66699 29.4668C8.66699 29.6966 8.7583 29.9171 8.92083 30.0796C9.08336 30.2421 9.3038 30.3334 9.53366 30.3334Z" fill="#fc5e5e"/>
<path d="M34.6668 26.8667C33.6383 26.8667 32.633 27.1717 31.7778 27.7431C30.9227 28.3144 30.2562 29.1266 29.8626 30.0767C29.469 31.0269 29.3661 32.0725 29.5667 33.0812C29.7674 34.0899 30.2626 35.0164 30.9898 35.7437C31.7171 36.4709 32.6436 36.9661 33.6523 37.1668C34.661 37.3674 35.7066 37.2645 36.6568 36.8709C37.6069 36.4773 38.4191 35.8108 38.9904 34.9557C39.5618 34.1005 39.8668 33.0952 39.8668 32.0667C39.8654 30.688 39.3171 29.3662 38.3422 28.3913C37.3673 27.4164 36.0455 26.8681 34.6668 26.8667ZM34.6668 35.5334C33.9812 35.5334 33.3109 35.33 32.7408 34.9491C32.1707 34.5682 31.7264 34.0268 31.464 33.3933C31.2016 32.7599 31.133 32.0629 31.2667 31.3904C31.4005 30.7179 31.7307 30.1002 32.2155 29.6154C32.7003 29.1306 33.318 28.8004 33.9905 28.6666C34.663 28.5329 35.36 28.6015 35.9934 28.8639C36.6269 29.1263 37.1683 29.5706 37.5492 30.1407C37.9302 30.7108 38.1335 31.3811 38.1335 32.0667C38.1335 32.9861 37.7682 33.8679 37.1181 34.518C36.468 35.1681 35.5862 35.5334 34.6668 35.5334Z" fill="#fc5e5e"/>
<path d="M19.933 38.1333H18.1997C17.9698 38.1333 17.7494 38.2246 17.5868 38.3871C17.4243 38.5497 17.333 38.7701 17.333 39C17.333 39.2298 17.4243 39.4503 17.5868 39.6128C17.7494 39.7753 17.9698 39.8666 18.1997 39.8666H19.933C20.1629 39.8666 20.3833 39.7753 20.5458 39.6128C20.7084 39.4503 20.7997 39.2298 20.7997 39C20.7997 38.7701 20.7084 38.5497 20.5458 38.3871C20.3833 38.2246 20.1629 38.1333 19.933 38.1333Z" fill="#fc5e5e"/>
<path d="M14.7338 38.1333H13.0005C12.7706 38.1333 12.5502 38.2246 12.3876 38.3871C12.2251 38.5497 12.1338 38.7701 12.1338 39C12.1338 39.2298 12.2251 39.4503 12.3876 39.6128C12.5502 39.7753 12.7706 39.8666 13.0005 39.8666H14.7338C14.9636 39.8666 15.1841 39.7753 15.3466 39.6128C15.5091 39.4503 15.6005 39.2298 15.6005 39C15.6005 38.7701 15.5091 38.5497 15.3466 38.3871C15.1841 38.2246 14.9636 38.1333 14.7338 38.1333Z" fill="#fc5e5e"/>
<path d="M25.1332 38.1333H23.3999C23.17 38.1333 22.9496 38.2246 22.787 38.3871C22.6245 38.5497 22.5332 38.7701 22.5332 39C22.5332 39.2298 22.6245 39.4503 22.787 39.6128C22.9496 39.7753 23.17 39.8666 23.3999 39.8666H25.1332C25.3631 39.8666 25.5835 39.7753 25.746 39.6128C25.9086 39.4503 25.9999 39.2298 25.9999 39C25.9999 38.7701 25.9086 38.5497 25.746 38.3871C25.5835 38.2246 25.3631 38.1333 25.1332 38.1333Z" fill="#fc5e5e"/>
</g>
<defs>
<clipPath id="clip0_271_998">
<rect width="52" height="52" fill="white"/>
</clipPath>
</defs>
</svg>
