<svg width="51" height="50" viewBox="0 0 51 50" fill="none" xmlns="http://www.w3.org/2000/svg">
<g clip-path="url(#clip0_83_277)">
<path d="M34.6561 40.4678C32.423 40.4678 30.5136 39.8129 29.1551 38.4543C25.3156 34.6149 27.0842 26.3923 33.3608 18.903C34.0171 18.1217 34.9829 17.6478 36.0118 17.6026C37.0516 17.5652 38.0712 17.9523 38.8051 18.6861L39.5476 19.4293C39.8348 19.7165 39.8348 20.1826 39.5476 20.4691C39.2603 20.7563 38.795 20.7563 38.5078 20.4691L37.7653 19.7259C37.3216 19.2828 36.7069 19.0416 36.0757 19.0724C35.4489 19.0997 34.8845 19.3747 34.4874 19.8479C28.8054 26.6279 26.96 34.1797 30.1948 37.4146C33.4247 40.6444 40.9729 38.7976 47.7543 33.1206C48.2304 32.7206 48.5075 32.1555 48.5348 31.5294C48.5621 30.8996 48.3223 30.2828 47.8756 29.8362L47.1332 29.0937C46.8459 28.8065 46.8459 28.3412 47.1332 28.0539C47.4204 27.7667 47.8857 27.7667 48.1729 28.0539L48.9154 28.7964C49.6528 29.5339 50.0492 30.5528 50.004 31.5933C49.9594 32.6208 49.4841 33.588 48.6992 34.2472C43.8631 38.2956 38.7232 40.4678 34.6561 40.4678Z" fill="#fc5e5e"/>
<path d="M46.3548 29.8497C45.6655 29.8497 45.0185 29.5797 44.5345 29.0907C44.0527 28.6146 43.7834 27.9712 43.7813 27.2855C43.7791 26.5969 44.0477 25.9478 44.5374 25.458C45.0185 24.9719 45.6647 24.7026 46.3541 24.7026C47.0441 24.7026 47.6911 24.9719 48.1751 25.4602C48.6619 25.9478 48.9305 26.5969 48.9283 27.2855C48.9269 27.9698 48.6583 28.6118 48.1729 29.0936C47.6889 29.5811 47.0434 29.8497 46.3548 29.8497ZM46.3548 26.1732C46.0604 26.1732 45.7854 26.2874 45.58 26.4949C45.3667 26.7082 45.2511 26.9868 45.2519 27.2819C45.2526 27.5727 45.3675 27.8463 45.5743 28.051C45.7854 28.2642 46.0604 28.3791 46.3548 28.3791C46.6492 28.3791 46.9242 28.2642 47.1303 28.0567L47.136 28.051C47.3428 27.8463 47.457 27.5727 47.4577 27.2819C47.4585 26.9868 47.3436 26.7082 47.1332 26.4978C46.9249 26.2874 46.6492 26.1732 46.3548 26.1732Z" fill="#fc5e5e"/>
<path d="M40.3274 23.8182C39.6689 23.8182 39.0112 23.5705 38.5107 23.075C38.0203 22.5846 37.7517 21.9376 37.7517 21.2504C37.7517 20.5632 38.0203 19.9162 38.5078 19.4294C39.5145 18.4342 41.1453 18.4342 42.1477 19.4265C42.1498 19.4287 42.1513 19.4301 42.1534 19.4323C43.1458 20.4347 43.1458 22.0661 42.1534 23.0693C41.6486 23.569 40.9873 23.8182 40.3274 23.8182ZM40.3288 20.1511C40.0452 20.1511 39.7616 20.258 39.5447 20.472C39.3379 20.6788 39.2223 20.956 39.2223 21.2504C39.2223 21.5448 39.3379 21.8227 39.5476 22.0324C39.9784 22.4567 40.6814 22.4567 41.1137 22.0295C41.5352 21.6037 41.5359 20.9021 41.1108 20.4692C40.8954 20.2566 40.6125 20.1511 40.3288 20.1511Z" fill="#fc5e5e"/>
<path d="M28.2482 42.1539C27.51 42.1539 26.8106 41.8609 26.2764 41.3281C25.177 40.2287 25.177 38.4415 26.2757 37.3428L27.961 35.6576C28.2482 35.3703 28.7135 35.3703 29.0007 35.6576C29.2879 35.9448 29.2879 36.4101 29.0007 36.6973L27.3154 38.3826C27.0605 38.6382 26.9198 38.9764 26.9198 39.3347C26.9198 39.6938 27.0605 40.032 27.3154 40.2876C27.571 40.5432 27.9028 40.6833 28.2489 40.6833H28.2611C28.628 40.6804 28.9684 40.5397 29.2219 40.2869L30.9064 38.6023C31.1937 38.3151 31.659 38.3151 31.9462 38.6023C32.2334 38.8895 32.2334 39.3549 31.9462 39.6421L30.2609 41.3274C29.7331 41.8544 29.028 42.1474 28.274 42.1539C28.2654 42.1539 28.2568 42.1539 28.2482 42.1539Z" fill="#fc5e5e"/>
<path d="M16.999 46.1138C14.8851 46.1138 12.9765 45.4475 11.5885 44.0595C8.7119 41.1829 8.83541 36.0646 11.8972 31.3239C12.1177 30.9821 12.5729 30.8845 12.9133 31.1049C13.2551 31.3254 13.3527 31.7799 13.1323 32.121C10.4568 36.2656 10.2536 40.6451 12.6282 43.0197C15.6383 46.0298 21.7605 44.8041 26.2771 40.2889C26.5643 40.0017 27.0296 40.0017 27.3169 40.2889C27.6041 40.5761 27.6041 41.0414 27.3169 41.3287C24.199 44.4465 20.3423 46.1138 16.999 46.1138Z" fill="#fc5e5e"/>
<path d="M15.9794 33.9033C14.5332 33.9033 13.0871 33.3526 11.9863 32.2518C9.78469 30.0502 9.78469 26.4678 11.9863 24.2662C14.1886 22.0654 17.771 22.0661 19.9718 24.267C21.0367 25.3319 21.6234 26.75 21.6234 28.2594C21.6234 29.7695 21.0367 31.1869 19.9718 32.2518C18.871 33.3526 17.4249 33.9033 15.9794 33.9033ZM15.9787 24.0853C14.9095 24.0853 13.8403 24.4924 13.026 25.306C11.3975 26.9346 11.3975 29.5835 13.026 31.2121C14.6553 32.8413 17.3042 32.8399 18.9321 31.2121C19.7191 30.4251 20.1528 29.3767 20.1528 28.2594C20.1528 27.1428 19.7191 26.0944 18.9321 25.3067C18.1178 24.4924 17.0479 24.0853 15.9787 24.0853Z" fill="#fc5e5e"/>
<path d="M15.9787 30.6312C15.3454 30.6312 14.7494 30.3849 14.3013 29.9368C13.3765 29.0119 13.3765 27.5069 14.3013 26.582C15.1982 25.6852 16.7621 25.6866 17.6561 26.582C18.581 27.5069 18.581 29.0119 17.6561 29.9368C17.2087 30.3849 16.6127 30.6312 15.9787 30.6312ZM15.9787 27.3582C15.7382 27.3582 15.5112 27.4516 15.3411 27.6218C14.9892 27.9736 14.9892 28.5452 15.3411 28.897C15.6814 29.2374 16.276 29.2367 16.6163 28.897C16.9682 28.5452 16.9682 27.9736 16.6163 27.6218C16.4462 27.4516 16.22 27.3582 15.9787 27.3582Z" fill="#fc5e5e"/>
<path d="M31.0939 49.2647H3.72642C2.48561 49.2647 1.47601 48.2559 1.47601 47.0151V8.33098C1.47601 7.09017 2.48561 6.0813 3.72642 6.0813H9.90246C10.3089 6.0813 10.6377 6.41017 10.6377 6.81659C10.6377 7.22302 10.3089 7.55189 9.90246 7.55189H3.72642C3.2963 7.55189 2.9466 7.90158 2.9466 8.33098V47.0151C2.9466 47.4373 3.30348 47.7942 3.72642 47.7942H31.0939C31.5161 47.7942 31.873 47.4373 31.873 47.0151V39.5077C31.873 39.1013 32.2018 38.7724 32.6083 38.7724C33.0147 38.7724 33.3435 39.1013 33.3435 39.5077V47.0151C33.3435 48.2559 32.3347 49.2647 31.0939 49.2647Z" fill="#fc5e5e"/>
<path d="M32.6083 21.7874C32.2018 21.7874 31.873 21.4586 31.873 21.0521V8.33098C31.873 7.90158 31.5233 7.55189 31.0939 7.55189H24.9171C24.5107 7.55189 24.1818 7.22302 24.1818 6.81659C24.1818 6.41017 24.5107 6.0813 24.9171 6.0813H31.0939C32.3347 6.0813 33.3436 7.09017 33.3436 8.33098V21.0521C33.3436 21.4586 33.0147 21.7874 32.6083 21.7874Z" fill="#fc5e5e"/>
<path d="M23.5571 9.91432H11.2611C10.1071 9.91432 9.16791 8.9751 9.16791 7.82117V5.81276C9.16791 4.65883 10.1071 3.72033 11.2611 3.72033H13.7657C14.1074 2.01996 15.6096 0.735352 17.4055 0.735352C19.205 0.735352 20.71 2.01996 21.0518 3.72033H23.5571C24.711 3.72033 25.6503 4.65883 25.6503 5.81276V7.82117C25.6503 8.9751 24.711 9.91432 23.5571 9.91432ZM11.2611 5.19092C10.9178 5.19092 10.6385 5.46953 10.6385 5.81276V7.82117C10.6385 8.16441 10.9178 8.44373 11.2611 8.44373H23.5571C23.9004 8.44373 24.1797 8.16441 24.1797 7.82117V5.81276C24.1797 5.46953 23.9004 5.19092 23.5571 5.19092H20.3898C19.9833 5.19092 19.6545 4.86205 19.6545 4.45562C19.6545 3.21481 18.6456 2.20594 17.4055 2.20594C16.1697 2.20594 15.1637 3.21481 15.1637 4.45562C15.1637 4.86205 14.8348 5.19092 14.4284 5.19092H11.2611Z" fill="#fc5e5e"/>
<path d="M17.4098 13.8829H6.18219C5.77577 13.8829 5.4469 13.5541 5.4469 13.1476C5.4469 12.7412 5.77577 12.4124 6.18219 12.4124H17.4098C17.8162 12.4124 18.1451 12.7412 18.1451 13.1476C18.1451 13.5541 17.8162 13.8829 17.4098 13.8829Z" fill="#fc5e5e"/>
<path d="M28.6381 17.1703H6.18219C5.77577 17.1703 5.4469 16.8414 5.4469 16.435C5.4469 16.0286 5.77577 15.6997 6.18219 15.6997H28.6381C29.0445 15.6997 29.3734 16.0286 29.3734 16.435C29.3734 16.8414 29.0445 17.1703 28.6381 17.1703Z" fill="#fc5e5e"/>
<path d="M28.6381 20.4574H6.18219C5.77577 20.4574 5.4469 20.1285 5.4469 19.7221C5.4469 19.3157 5.77577 18.9868 6.18219 18.9868H28.6381C29.0445 18.9868 29.3734 19.3157 29.3734 19.7221C29.3734 20.1285 29.0445 20.4574 28.6381 20.4574Z" fill="#fc5e5e"/>
</g>
<defs>
<clipPath id="clip0_83_277">
<rect width="50" height="50" fill="white" transform="translate(0.74176)"/>
</clipPath>
</defs>
</svg>
