<svg width="51" height="50" viewBox="0 0 51 50" fill="none" xmlns="http://www.w3.org/2000/svg">
<g clip-path="url(#clip0_83_325)">
<path d="M11.1825 6.0957C10.7779 6.0957 10.4501 6.42352 10.4501 6.82808V9.72968C10.4501 10.1343 10.7779 10.4621 11.1825 10.4621H12.6948C13.0994 10.4621 13.4272 10.1343 13.4272 9.72968C13.4272 9.32512 13.0994 8.9973 12.6948 8.9973H11.9149V6.82808C11.9149 6.42352 11.5871 6.0957 11.1825 6.0957Z" fill="#ff0000"/>
<path d="M7.73923 16.7961H7.74509C8.14692 16.7961 8.47425 16.472 8.47737 16.0695C8.47894 15.8696 8.48108 15.5844 8.48343 15.2506C8.82833 15.1912 9.09082 14.8905 9.09082 14.5287C9.09082 14.17 8.83282 13.8715 8.49222 13.8086C8.49837 12.5866 8.50101 11.3509 8.48714 11.1682C8.45003 10.6784 8.15962 10.2852 7.74743 10.1665C7.34277 10.05 6.92619 10.2153 6.63499 10.6091C6.36001 10.9814 5.11711 13.4525 4.74271 14.2011C4.62915 14.4281 4.64126 14.6978 4.77474 14.9137C4.90814 15.1297 5.14386 15.2611 5.39776 15.2611H7.01847C7.01652 15.5423 7.01456 15.8116 7.01261 16.058C7.00939 16.4624 7.33476 16.793 7.73923 16.7961ZM6.58724 13.7964C6.74046 13.4948 6.89064 13.2017 7.03087 12.9304C7.02989 13.2044 7.02872 13.4969 7.02716 13.7964H6.58724Z" fill="#ff0000"/>
<path d="M1.34585 12.7322C1.74485 12.8034 2.12442 12.5378 2.19531 12.1397C2.24365 11.868 2.43827 11.6709 2.65798 11.6709C2.77116 11.6709 2.88453 11.7254 2.9692 11.8202C3.08325 11.9483 3.1352 12.1367 3.11684 12.3533C3.05952 12.5967 2.92662 12.8837 2.72146 13.2069C1.97638 14.3813 1.53177 15.0234 1.29292 15.3684C0.990593 15.8051 0.824098 16.0456 0.944013 16.4243C1.0152 16.6493 1.18472 16.8256 1.40903 16.908C1.51478 16.9468 1.59036 16.9748 2.52899 16.9748C2.89508 16.9748 3.39271 16.9706 4.07451 16.961C4.47898 16.9553 4.8022 16.6229 4.79663 16.2185C4.79107 15.8175 4.46433 15.4962 4.06455 15.4962C4.06113 15.4962 4.05771 15.4962 4.05419 15.4963C3.69455 15.5013 3.31615 15.505 2.97213 15.5069C3.22055 15.1367 3.54426 14.6443 3.9585 13.9914C4.21493 13.5873 4.52077 12.9711 4.56881 12.5544C4.6442 11.9032 4.46472 11.2964 4.06308 10.8456C3.70089 10.439 3.18881 10.2058 2.65818 10.2058C1.72756 10.2058 0.926436 10.9109 0.753399 11.8825C0.682309 12.2809 0.947724 12.6612 1.34585 12.7322Z" fill="#ff0000"/>
<path d="M3.58774 9.4676C3.73119 9.64758 3.94416 9.74357 4.16095 9.74357C4.28721 9.74357 4.41484 9.71095 4.53036 9.64338L6.78454 8.3245C7.13364 8.12022 7.25111 7.67161 7.04693 7.32251C6.84264 6.9735 6.39403 6.85593 6.04493 7.06012L5.28403 7.50531C5.51302 6.89421 5.834 6.32666 6.23632 5.81898L6.36845 5.9511C6.5115 6.09406 6.69899 6.16554 6.88639 6.16554C7.07378 6.16554 7.26127 6.09406 7.40433 5.9511C7.69035 5.66498 7.69035 5.20133 7.40433 4.91531L7.27416 4.78515C7.38568 4.69726 7.50061 4.61269 7.61877 4.53164C8.47702 3.9432 9.44523 3.58306 10.4503 3.46676V4.46065C10.4503 4.86522 10.7781 5.19303 11.1826 5.19303C11.5872 5.19303 11.915 4.86522 11.915 4.46065V3.46949C12.056 3.48619 12.1971 3.50768 12.338 3.53394C13.3793 3.72817 14.3131 4.16946 15.0904 4.78593L14.9611 4.91522C14.6751 5.20133 14.6751 5.66498 14.9611 5.951C15.1042 6.09396 15.2917 6.16544 15.4791 6.16544C15.6665 6.16544 15.854 6.09396 15.997 5.951L16.1249 5.82308C16.8395 6.7282 17.3053 7.82473 17.4431 8.99702H16.4518C16.0472 8.99702 15.7194 9.32484 15.7194 9.72941C15.7194 10.134 16.0472 10.4618 16.4518 10.4618H17.4426C17.426 10.6024 17.4048 10.7435 17.3784 10.8847C17.1843 11.926 16.7429 12.8599 16.1264 13.6371L15.9971 13.5078C15.711 13.2219 15.2474 13.2219 14.9613 13.5078C14.6753 13.7939 14.6753 14.2576 14.9613 14.5436L15.0892 14.6714C13.7101 15.7599 11.8865 16.2712 10.0275 15.9249C9.62999 15.8507 9.24749 16.1129 9.17327 16.5106C9.09916 16.9082 9.36135 17.2906 9.75898 17.3648C10.2383 17.4542 10.7153 17.4972 11.1862 17.4972C14.8683 17.497 18.1255 14.8686 18.8184 11.1532C19.6003 6.95983 16.8359 2.88251 12.6068 2.09379C8.73912 1.37283 4.96305 3.6688 3.78441 7.36313L3.10632 6.51191C2.85428 6.19571 2.39347 6.14357 2.07708 6.39551C1.76079 6.64754 1.70864 7.10836 1.96068 7.42475L3.58774 9.4676Z" fill="#ff0000"/>
<path d="M49.5198 33.357L43.7531 31.1164C43.6081 31.06 43.5006 30.9299 43.4728 30.7768L41.9017 22.1463C41.6141 20.5658 40.2393 19.4187 38.6327 19.4187H30.8278V17.2314C30.8278 15.5871 29.4902 14.2495 27.846 14.2495C26.2018 14.2495 24.8642 15.5871 24.8642 17.2314V19.4187H4.14332C2.2692 19.4187 0.744385 20.9434 0.744385 22.8177V41.2773C0.744385 43.1515 2.26911 44.6764 4.14332 44.6764H5.88053C6.2268 46.5856 7.90141 48.038 9.90892 48.038C11.9164 48.038 13.5911 46.5856 13.9373 44.6764H26.4301C26.8347 44.6764 27.1625 44.3486 27.1625 43.944C27.1625 43.5394 26.8347 43.2116 26.4301 43.2116H13.9374C13.5912 41.3023 11.9165 39.8498 9.90892 39.8498C7.90132 39.8498 6.2266 41.3022 5.88043 43.2116H4.14332C3.07678 43.2116 2.20915 42.3439 2.20915 41.2773V38.6305H49.2769V42.7607C49.2769 43.0094 49.0746 43.2116 48.8259 43.2116H46.5238C46.1776 41.3023 44.5029 39.8498 42.4953 39.8498C40.4877 39.8498 38.813 41.3022 38.4668 43.2116H29.262C28.8574 43.2116 28.5296 43.5394 28.5296 43.944C28.5296 44.3486 28.8574 44.6764 29.262 44.6764H38.4668C38.8131 46.5856 40.4877 48.038 42.4952 48.038C44.5027 48.038 46.1774 46.5856 46.5236 44.6764H48.8258C49.8821 44.6764 50.7416 43.8169 50.7416 42.7607V35.1427C50.7417 34.3463 50.2622 33.6454 49.5198 33.357ZM9.90892 41.3145C11.3587 41.3145 12.5383 42.4941 12.5383 43.9439C12.5383 45.3937 11.3587 46.5732 9.90892 46.5732C8.4591 46.5732 7.27957 45.3937 7.27957 43.9439C7.27957 42.4941 8.4592 41.3145 9.90892 41.3145ZM42.4953 46.5731C41.0455 46.5731 39.866 45.3936 39.866 43.9438C39.866 42.494 41.0455 41.3144 42.4953 41.3144C43.9451 41.3144 45.1247 42.494 45.1247 43.9438C45.1247 45.3936 43.9451 46.5731 42.4953 46.5731ZM26.329 17.2314C26.329 16.3949 27.0096 15.7143 27.8461 15.7143C28.6826 15.7143 29.3631 16.3949 29.3631 17.2314V19.4187H26.329V17.2314ZM2.20925 37.1656V22.8177C2.20925 21.7512 3.07687 20.8834 4.14342 20.8834H5.75612V25.5439C5.75612 25.9485 6.08394 26.2763 6.4885 26.2763C6.89307 26.2763 7.22089 25.9485 7.22089 25.5439V20.8834H20.843V31.6559C20.843 32.0395 20.531 32.3515 20.1474 32.3515H7.91626C7.53278 32.3515 7.22079 32.0395 7.22079 31.6559V28.3757C7.22079 27.9711 6.89297 27.6433 6.48841 27.6433C6.08384 27.6433 5.75602 27.9711 5.75602 28.3757V31.6559C5.75602 32.847 6.72511 33.8162 7.91626 33.8162H20.1473C21.3385 33.8162 22.3077 32.847 22.3077 31.6559V20.8834H31.0403V26.6892C31.0403 28.4979 32.5118 29.9695 34.3206 29.9695H35.9459C36.3504 29.9695 36.6783 29.6416 36.6783 29.2371C36.6783 28.8325 36.3504 28.5047 35.9459 28.5047H34.3206C33.3195 28.5047 32.505 27.6903 32.505 26.6892V20.8834H38.6328C39.5311 20.8834 40.2998 21.5248 40.4607 22.4085L41.5705 28.5047H38.7778C38.3732 28.5047 38.0454 28.8325 38.0454 29.2371C38.0454 29.6416 38.3732 29.9695 38.7778 29.9695H41.8371L42.0318 31.0389C42.1501 31.6894 42.6064 32.2422 43.2227 32.4816L48.9893 34.7221C49.1615 34.7891 49.277 34.958 49.277 35.1426V37.1656H2.20925Z" fill="#ff0000"/>
<path d="M34.9978 33.02H34.2883C33.8837 33.02 33.5559 33.3478 33.5559 33.7524C33.5559 34.157 33.8837 34.4848 34.2883 34.4848H34.9978C35.4024 34.4848 35.7302 34.157 35.7302 33.7524C35.7302 33.3478 35.4024 33.02 34.9978 33.02Z" fill="#ff0000"/>
<path d="M10.9945 27.3499H13.2995V29.6548C13.2995 30.0593 13.6273 30.3871 14.0319 30.3871C14.4364 30.3871 14.7642 30.0593 14.7642 29.6548V27.3499H17.0691C17.4737 27.3499 17.8015 27.0221 17.8015 26.6175C17.8015 26.213 17.4737 25.8851 17.0691 25.8851H14.7642V23.5803C14.7642 23.1757 14.4364 22.8479 14.0319 22.8479C13.6273 22.8479 13.2995 23.1757 13.2995 23.5803V25.8851H10.9945C10.59 25.8851 10.2621 26.213 10.2621 26.6175C10.2621 27.0221 10.5901 27.3499 10.9945 27.3499Z" fill="#ff0000"/>
</g>
<defs>
<clipPath id="clip0_83_325">
<rect width="50" height="50" fill="white" transform="translate(0.74176)"/>
</clipPath>
</defs>
</svg>
