<svg width="53" height="52" viewBox="0 0 53 52" fill="none" xmlns="http://www.w3.org/2000/svg">
<path d="M26.7242 28.8649C20.3865 28.6583 18.8665 23.232 18.5412 21.4802C17.9311 21.3388 17.3874 20.9935 17.0002 20.5013C16.558 19.8921 16.3529 19.1426 16.4232 18.3932C16.373 17.9894 16.4081 17.5795 16.5263 17.1901C16.6444 16.8007 16.843 16.4404 17.1091 16.1326C17.2593 15.9786 17.432 15.8483 17.6214 15.7461C16.4434 13.8444 15.8633 11.6329 15.9559 9.39789C16.6896 4.15572 20.9142 3.64556 22.2374 3.61605C22.8464 2.90774 23.6077 2.34633 24.4643 1.97383C26.0689 1.32659 27.8424 1.22777 29.509 1.69275C32.785 2.54794 34.9697 4.18805 36.0062 6.5681C37.4818 9.95091 36.1875 13.8446 35.444 15.5929C35.7275 15.6851 35.9888 15.8351 36.2114 16.0335C36.5141 16.3409 36.7423 16.7137 36.8782 17.1232C37.0142 17.5326 37.0543 17.9679 36.9956 18.3953C37.0665 19.1447 36.8616 19.8943 36.4194 20.5034C36.0317 20.9955 35.4879 21.3407 34.8776 21.4823C34.5523 23.232 33.0358 28.6583 26.7242 28.8649ZM18.7956 16.8697C18.5463 16.8581 18.3025 16.9449 18.1168 17.1115C17.9881 17.2916 17.8965 17.4955 17.8472 17.7112C17.7979 17.927 17.7918 18.1504 17.8294 18.3686C17.8323 18.4155 17.8306 18.4626 17.8244 18.5091C17.7862 18.9125 17.8904 19.3164 18.1189 19.651C18.2614 19.8102 18.4342 19.9393 18.6273 20.0308C18.8204 20.1222 19.0298 20.1742 19.2432 20.1837C19.4039 20.2027 19.5531 20.2765 19.6656 20.3928C19.7781 20.509 19.8471 20.6605 19.8609 20.8217C19.8841 21.0831 20.5074 27.2564 26.7256 27.4602C32.9094 27.2564 33.5355 21.0831 33.5587 20.8203C33.5727 20.6594 33.6418 20.5082 33.7543 20.3922C33.8668 20.2763 34.0159 20.2026 34.1763 20.1837C34.3898 20.1743 34.5992 20.1224 34.7923 20.0309C34.9854 19.9394 35.1582 19.8103 35.3007 19.651C35.5301 19.3148 35.6343 18.9087 35.5951 18.5035C35.5892 18.4583 35.5876 18.4127 35.5902 18.3672C35.6281 18.1419 35.6196 17.9112 35.5651 17.6893C35.5106 17.4675 35.4113 17.2591 35.2732 17.077C35.0537 16.9154 34.7806 16.844 34.5101 16.8775C34.3801 16.9005 34.2462 16.8865 34.1237 16.8369C34.0013 16.7874 33.8953 16.7043 33.8179 16.5973C33.7405 16.4903 33.6949 16.3636 33.6862 16.2318C33.6775 16.1 33.7061 15.9685 33.7688 15.8522C33.7948 15.803 36.3688 10.9178 34.7146 7.12113C33.858 5.15918 31.9881 3.78962 29.1555 3.05037C27.7941 2.6651 26.3436 2.73919 25.0285 3.26118C24.2804 3.58352 23.6283 4.0938 23.1355 4.74248C23.0645 4.83898 22.9699 4.91555 22.8607 4.96479C22.7515 5.01402 22.6315 5.03427 22.5122 5.02356C22.3302 5.00881 18.0275 4.73053 17.3529 9.54053C17.3529 9.54053 17.1583 13.3668 19.3746 15.6857C19.4712 15.7866 19.5355 15.9141 19.5592 16.0518C19.583 16.1895 19.5652 16.3311 19.5081 16.4586C19.4555 16.5894 19.3627 16.7001 19.2431 16.7748C19.1235 16.8494 18.9833 16.8841 18.8427 16.8739L18.7956 16.8697Z" fill="#ff0000"/>
<path d="M34.3879 16.8867C34.2065 16.8868 34.0321 16.8168 33.9011 16.6914C33.7702 16.5659 33.6928 16.3947 33.6852 16.2135C33.6767 16.0315 33.4589 11.7864 30.2897 11.3782C28.8402 11.5623 27.3683 11.4475 25.9648 11.0409C24.5613 10.6344 23.2559 9.94465 22.1292 9.01428C21.2333 9.68817 19.1687 11.7365 19.5658 16.1053C19.571 16.2841 19.5079 16.4582 19.3892 16.592C19.2705 16.7259 19.1052 16.8094 18.9271 16.8257C18.7489 16.8419 18.5713 16.7895 18.4304 16.6793C18.2895 16.5691 18.1959 16.4093 18.1688 16.2324C17.5863 9.82309 21.702 7.59833 21.877 7.50698C22.0072 7.43901 22.1555 7.41357 22.3009 7.43424C22.4464 7.45491 22.5817 7.52065 22.6879 7.62222C23.6895 8.52941 24.8752 9.20958 26.1639 9.61623C27.4526 10.0229 28.8139 10.1464 30.1548 9.97839C30.2191 9.96798 30.2845 9.96562 30.3494 9.97136C33.922 10.3431 35.0133 14.1813 35.0906 16.1551C35.0978 16.3411 35.031 16.5223 34.9048 16.659C34.7786 16.7958 34.6033 16.8769 34.4174 16.8845L34.3879 16.8867Z" fill="#ff0000"/>
<path d="M46.48 50.5946H7.00355C6.81718 50.5946 6.63844 50.5206 6.50666 50.3888C6.37488 50.257 6.30084 50.0783 6.30084 49.8919V42.0582C6.30587 39.5823 7.29256 37.2094 9.04456 35.4599C10.7966 33.7104 13.1709 32.7271 15.6468 32.7256H16.996C17.1823 32.7256 17.3611 32.7996 17.4929 32.9314C17.6246 33.0632 17.6987 33.2419 17.6987 33.4283C17.6987 33.6147 17.6246 33.7934 17.4929 33.9252C17.3611 34.057 17.1823 34.131 16.996 34.131H15.6468C13.5435 34.1321 11.5264 34.9672 10.0379 36.4532C8.54941 37.9392 7.7109 39.9549 7.70625 42.0582V49.1892H45.7773V42.0582C45.7749 39.9565 44.9389 37.9416 43.4528 36.4555C41.9667 34.9694 39.9518 34.1334 37.8501 34.131H36.4039C36.2176 34.131 36.0388 34.057 35.907 33.9252C35.7753 33.7934 35.7012 33.6147 35.7012 33.4283C35.7012 33.2419 35.7753 33.0632 35.907 32.9314C36.0388 32.7996 36.2176 32.7256 36.4039 32.7256H37.8501C40.3242 32.7291 42.6959 33.7135 44.4453 35.4629C46.1948 37.2124 47.1791 39.5841 47.1827 42.0582V49.8919C47.1827 50.0783 47.1086 50.257 46.9769 50.3888C46.8451 50.5206 46.6663 50.5946 46.48 50.5946Z" fill="#ff0000"/>
<path d="M29.0902 50.5946C28.9891 50.5947 28.8891 50.5728 28.7972 50.5307C28.7052 50.4885 28.6235 50.427 28.5575 50.3504C28.4915 50.2737 28.4429 50.1837 28.4149 50.0865C28.3869 49.9893 28.3802 49.8872 28.3952 49.7872L31.2391 30.9668C31.2541 30.8672 31.2904 30.772 31.3455 30.6877C31.4005 30.6034 31.473 30.5319 31.5581 30.478C31.6432 30.4242 31.7389 30.3893 31.8387 30.3756C31.9385 30.362 32.04 30.3699 32.1364 30.399L37.0441 31.8782C37.1418 31.9076 37.232 31.958 37.3082 32.0259C37.3845 32.0937 37.4451 32.1774 37.4858 32.271C37.5264 32.3646 37.5462 32.466 37.5437 32.5681C37.5412 32.6701 37.5165 32.7704 37.4713 32.8619L35.5206 36.776L36.652 38.0458C36.7523 38.1591 36.8133 38.3018 36.8259 38.4526C36.8386 38.6034 36.8022 38.7542 36.7223 38.8827L29.6875 50.2616C29.6246 50.3634 29.5366 50.4474 29.4321 50.5057C29.3276 50.564 29.2099 50.5946 29.0902 50.5946ZM32.5082 31.9786L30.2982 46.604L35.2543 38.5932L34.156 37.3599C34.0625 37.2552 34.0026 37.1248 33.984 36.9856C33.9653 36.8465 33.9888 36.7049 34.0513 36.5792L35.8418 32.9856L32.5082 31.9786Z" fill="#ff0000"/>
<path d="M24.3125 50.5945C24.1927 50.5946 24.0749 50.564 23.9702 50.5057C23.8656 50.4474 23.7776 50.3633 23.7145 50.2614L16.6777 38.8847C16.5977 38.7562 16.5614 38.6054 16.574 38.4546C16.5867 38.3038 16.6477 38.1611 16.7479 38.0478L17.8793 36.778L15.9286 32.8639C15.8834 32.7724 15.8587 32.6721 15.8562 32.5701C15.8537 32.468 15.8735 32.3666 15.9142 32.273C15.9548 32.1794 16.0154 32.0957 16.0917 32.0279C16.168 31.96 16.2581 31.9096 16.3558 31.8802L21.2635 30.401C21.3599 30.3721 21.4614 30.3642 21.561 30.3779C21.6607 30.3916 21.7563 30.4265 21.8413 30.4804C21.9263 30.5342 21.9988 30.6056 22.0538 30.6899C22.1088 30.7742 22.1451 30.8693 22.1602 30.9687L25.0054 49.7892C25.0201 49.8889 25.0132 49.9906 24.9852 50.0874C24.9571 50.1841 24.9086 50.2738 24.8429 50.3501C24.7772 50.4265 24.6958 50.4879 24.6043 50.53C24.5128 50.5722 24.4133 50.5942 24.3125 50.5945ZM18.1484 38.591L23.1046 46.6018L20.8946 31.9785L17.561 32.9834L19.3508 36.577C19.4134 36.7026 19.4369 36.8442 19.4184 36.9833C19.3999 37.1225 19.3401 37.2529 19.2468 37.3577L18.1484 38.591Z" fill="#ff0000"/>
<path d="M26.7537 37.4926C25.2343 37.4915 23.7164 37.3996 22.2079 37.2172C22.1144 37.2086 22.0235 37.1814 21.9407 37.1371C21.8578 37.0928 21.7847 37.0323 21.7257 36.9593C21.6666 36.8862 21.6228 36.8021 21.5968 36.7118C21.5708 36.6216 21.5632 36.527 21.5743 36.4337C21.5855 36.3405 21.6153 36.2504 21.6619 36.1688C21.7085 36.0873 21.7709 36.0159 21.8456 35.9589C21.9203 35.9019 22.0056 35.8604 22.0966 35.837C22.1875 35.8135 22.2823 35.8085 22.3752 35.8223C25.2471 36.1755 28.1514 36.1755 31.0233 35.8223C31.2065 35.8025 31.3901 35.8554 31.5346 35.9697C31.6792 36.0839 31.773 36.2503 31.7961 36.4331C31.8191 36.6159 31.7694 36.8004 31.6578 36.9469C31.5461 37.0934 31.3814 37.1902 31.199 37.2165C29.7245 37.4015 28.2398 37.4937 26.7537 37.4926Z" fill="#ff0000"/>
<path d="M31.9354 31.7741C31.826 31.7737 31.7182 31.7477 31.6207 31.6983C31.5231 31.6489 31.4383 31.5774 31.3733 31.4895C30.329 30.0778 30.14 27.2796 30.1224 26.9655C30.1117 26.7795 30.1752 26.5969 30.2991 26.4577C30.423 26.3186 30.597 26.2343 30.783 26.2234C30.9685 26.2147 31.15 26.279 31.2887 26.4024C31.4274 26.5259 31.5122 26.6987 31.525 26.884C31.5679 27.6232 31.8279 29.7419 32.5025 30.654C32.5796 30.7584 32.6263 30.8821 32.6373 31.0114C32.6484 31.1407 32.6235 31.2706 32.5653 31.3866C32.507 31.5026 32.4178 31.6002 32.3075 31.6686C32.1972 31.737 32.0701 31.7735 31.9403 31.7741H31.9354Z" fill="#ff0000"/>
<path d="M21.4673 31.7742C21.3375 31.7736 21.2104 31.7371 21.1001 31.6687C20.9898 31.6003 20.9006 31.5027 20.8424 31.3867C20.7841 31.2707 20.7592 31.1408 20.7703 31.0115C20.7813 30.8822 20.828 30.7585 20.9051 30.6541C21.5811 29.7406 21.8404 27.6226 21.8833 26.8841C21.8886 26.7918 21.9121 26.7015 21.9524 26.6183C21.9926 26.5351 22.0489 26.4606 22.1179 26.3991C22.1869 26.3377 22.2674 26.2904 22.3547 26.26C22.442 26.2297 22.5344 26.2168 22.6267 26.2221C22.719 26.2275 22.8093 26.251 22.8925 26.2912C22.9757 26.3315 23.0502 26.3877 23.1117 26.4568C23.1731 26.5258 23.2204 26.6063 23.2508 26.6936C23.2812 26.7809 23.294 26.8733 23.2887 26.9656C23.2711 27.2797 23.0779 30.0779 22.0379 31.4896C21.9719 31.5787 21.8859 31.6509 21.7867 31.7003C21.6875 31.7498 21.5781 31.7751 21.4673 31.7742Z" fill="#ff0000"/>
<path d="M40.9047 40.7455C40.7218 40.7456 40.5461 40.6744 40.4149 40.547C40.2837 40.4196 40.2073 40.246 40.202 40.0632C40.0706 35.4872 38.3307 34.0474 38.3139 34.0333C38.1687 33.918 38.0745 33.7504 38.0517 33.5664C38.0288 33.3824 38.079 33.1968 38.1916 33.0495C38.3034 32.9034 38.4683 32.8073 38.6505 32.782C38.8327 32.7567 39.0175 32.8044 39.1648 32.9146C39.2576 32.9849 41.4535 34.6903 41.6074 40.0224C41.6127 40.2086 41.5439 40.3892 41.4161 40.5247C41.2883 40.6601 41.112 40.7393 40.9258 40.7448L40.9047 40.7455Z" fill="#ff0000"/>
<path d="M40.9082 44.8942C40.3588 44.8943 39.8217 44.7315 39.3648 44.4264C38.9079 44.1213 38.5518 43.6875 38.3414 43.1799C38.1311 42.6723 38.0759 42.1138 38.1831 41.5749C38.2902 41.036 38.5547 40.541 38.9431 40.1525C39.3316 39.7639 39.8265 39.4993 40.3654 39.392C40.9042 39.2848 41.4628 39.3398 41.9704 39.55C42.478 39.7602 42.9119 40.1163 43.2171 40.5731C43.5224 41.0299 43.6853 41.567 43.6853 42.1164C43.6846 42.8528 43.3918 43.5588 42.8712 44.0795C42.3505 44.6003 41.6446 44.8933 40.9082 44.8942ZM40.9082 40.744C40.6368 40.7439 40.3714 40.8243 40.1456 40.975C39.9198 41.1257 39.7438 41.34 39.6398 41.5907C39.5359 41.8415 39.5086 42.1175 39.5615 42.3837C39.6143 42.65 39.745 42.8946 39.9369 43.0866C40.1288 43.2786 40.3733 43.4094 40.6396 43.4624C40.9058 43.5154 41.1818 43.4882 41.4326 43.3844C41.6834 43.2805 41.8978 43.1046 42.0486 42.8789C42.1994 42.6532 42.2799 42.3879 42.2799 42.1164C42.2796 41.7527 42.1349 41.4039 41.8778 41.1466C41.6207 40.8894 41.272 40.7446 40.9082 40.744Z" fill="#ff0000"/>
<path d="M12.0426 40.7454C11.8646 40.7459 11.693 40.6787 11.5625 40.5576C11.4321 40.4364 11.3525 40.2702 11.3399 40.0926C10.9569 34.6994 13.9286 32.9757 14.0551 32.9047C14.2175 32.8131 14.4095 32.7897 14.5891 32.8397C14.7686 32.8897 14.921 33.009 15.0126 33.1714C15.1042 33.3337 15.1275 33.5258 15.0775 33.7053C15.0275 33.8849 14.9082 34.0372 14.7459 34.1288C14.6391 34.192 12.427 35.5574 12.7411 39.9936C12.7542 40.1795 12.693 40.363 12.5708 40.5037C12.4486 40.6444 12.2756 40.7309 12.0897 40.744L12.0426 40.7454Z" fill="#ff0000"/>
<path d="M10.6211 46.3722C10.5123 46.3727 10.405 46.3479 10.3074 46.2999C10.2099 46.2518 10.1248 46.1818 10.0589 46.0953C9.7159 45.6448 9.4632 45.1323 9.31475 44.5859C8.98854 43.5216 9.09556 42.3716 9.61255 41.3858C10.1295 40.4 11.0147 39.6581 12.0757 39.3212C12.5789 39.1797 13.1053 39.1399 13.6241 39.2041C14.1429 39.2683 14.6437 39.4352 15.0973 39.6951C15.8922 40.1543 16.528 40.8453 16.9198 41.6755C17.3115 42.5058 17.4406 43.4358 17.2897 44.3414C17.2592 44.5252 17.1568 44.6894 17.0052 44.7978C16.8536 44.9062 16.6651 44.9499 16.4813 44.9193C16.2974 44.8888 16.1332 44.7864 16.0248 44.6348C15.9164 44.4832 15.8727 44.2947 15.9033 44.1109C16.0064 43.4904 15.9188 42.8532 15.6521 42.2836C15.3853 41.7139 14.952 41.2387 14.4093 40.9206C14.1168 40.7516 13.7934 40.6427 13.4583 40.6001C13.1231 40.5575 12.7828 40.5821 12.4572 40.6725C11.7531 40.908 11.1702 41.4116 10.835 42.0741C10.4998 42.7366 10.4394 43.5046 10.6667 44.2114C10.7684 44.5854 10.9417 44.9362 11.1769 45.2443C11.256 45.3485 11.3045 45.4726 11.3169 45.6029C11.3293 45.7331 11.3051 45.8642 11.2471 45.9814C11.189 46.0986 11.0994 46.1973 10.9883 46.2663C10.8772 46.3353 10.7491 46.372 10.6183 46.3722H10.6211Z" fill="#ff0000"/>
<path d="M16.606 44.93C16.5786 44.93 16.5505 44.93 16.5224 44.9258L15.7304 44.8323C15.6387 44.8214 15.5501 44.7926 15.4696 44.7475C15.389 44.7023 15.3182 44.6417 15.261 44.5692C15.2039 44.4967 15.1616 44.4136 15.1366 44.3248C15.1116 44.2359 15.1043 44.143 15.1152 44.0513C15.1261 43.9596 15.1549 43.871 15.2001 43.7904C15.2452 43.7099 15.3058 43.639 15.3783 43.5819C15.5248 43.4665 15.7111 43.4141 15.8963 43.4361L16.6882 43.5302C16.866 43.5514 17.0291 43.6396 17.1441 43.777C17.259 43.9143 17.3172 44.0904 17.3067 44.2692C17.2962 44.448 17.2178 44.616 17.0876 44.739C16.9574 44.8619 16.7851 44.9298 16.606 44.93Z" fill="#ff0000"/>
<path d="M10.6211 46.3784C10.4561 46.3787 10.2963 46.3208 10.1696 46.2151C10.043 46.1093 9.95764 45.9623 9.92848 45.7999C9.89932 45.6375 9.92823 45.4701 10.0102 45.3268C10.0921 45.1836 10.2218 45.0738 10.3765 45.0166L11.2198 44.7053C11.3063 44.673 11.3983 44.6581 11.4906 44.6613C11.5829 44.6646 11.6736 44.686 11.7577 44.7243C11.8417 44.7627 11.9173 44.8172 11.9803 44.8848C12.0432 44.9523 12.0922 45.0316 12.1245 45.1181C12.1568 45.2047 12.1718 45.2967 12.1685 45.389C12.1652 45.4813 12.1438 45.572 12.1055 45.656C12.0671 45.74 12.0126 45.8157 11.9451 45.8786C11.8775 45.9415 11.7982 45.9906 11.7117 46.0229L10.8684 46.3349C10.7893 46.3641 10.7055 46.3789 10.6211 46.3784Z" fill="#ff0000"/>
</svg>
