<svg width="50" height="50" viewBox="0 0 50 50" fill="none" xmlns="http://www.w3.org/2000/svg">
<g clip-path="url(#clip0_83_368)">
<path d="M8.02491 39.8511C8.21504 39.6402 8.49473 39.4026 8.86466 39.1382C9.2339 38.8744 9.63556 38.6106 10.0687 38.3461C10.5014 38.0823 10.94 37.8233 11.3836 37.5699C11.8274 37.3164 12.2074 37.0946 12.5242 36.9045C12.9887 36.6302 13.4432 36.3292 13.8867 36.0016C14.3304 35.6743 14.7313 35.2941 15.0908 34.861C15.4497 34.4283 15.7404 33.9372 15.962 33.3876C16.1839 32.8385 16.2947 32.2152 16.2947 31.5182C16.2947 29.8284 15.6873 28.4873 14.4729 27.4941C13.2579 26.5016 11.5104 26.0049 9.22911 26.0049C8.29932 26.0049 7.40723 26.0896 6.55166 26.2584C5.69619 26.4277 4.90898 26.6545 4.1911 26.9397C3.47264 27.2249 2.8286 27.5471 2.25828 27.9061C1.68797 28.2654 1.23357 28.6348 0.895874 29.015L4.12772 32.7537C4.74013 32.0567 5.37382 31.4918 6.0288 31.0586C6.6834 30.626 7.45459 30.4091 8.3418 30.4091C9.12305 30.4091 9.72511 30.5888 10.1479 30.9478C10.5701 31.3072 10.7816 31.7824 10.7816 32.3736C10.7816 32.6696 10.6969 32.928 10.5281 33.1498C10.3588 33.3716 10.0791 33.6201 9.68839 33.8944C9.29727 34.1692 8.76944 34.486 8.10411 34.845C7.43877 35.2044 6.60947 35.6583 5.61679 36.2074C4.6871 36.7356 3.9163 37.2743 3.30379 37.8232C2.6909 38.3728 2.20516 38.9693 1.84637 39.6135C1.48699 40.2581 1.23357 40.9711 1.08591 41.7523C0.937866 42.534 0.864136 43.4213 0.864136 44.4138H16.6433V39.8511H8.02491Z" fill="#ff0000"/>
<path d="M32.3585 39.5341V26.3215H28.9049L18.5757 39.5658V44.0968H27.289V48.4376H32.3585V44.0968H35.1468V39.5341H32.3585ZM27.891 39.5342H23.5819L27.891 33.926V39.5342Z" fill="#ff0000"/>
<path d="M3.81213 45.5715V47.2678H2.06662V45.5715H1.05499V49.9508H2.06662V48.1559H3.81213V49.9508H4.82376V45.5715H3.81213Z" fill="#ff0000"/>
<path d="M10.5351 46.9593C10.4325 46.6921 10.2866 46.4535 10.0974 46.2438C9.90814 46.0341 9.68002 45.8657 9.41273 45.7381C9.14535 45.6106 8.84935 45.5469 8.52445 45.5469C8.20784 45.5469 7.91585 45.6076 7.64856 45.7288C7.38118 45.8502 7.14993 46.0126 6.95452 46.216C6.75921 46.4195 6.60696 46.6551 6.49807 46.9224C6.38899 47.1898 6.33459 47.4673 6.33459 47.7551C6.33459 48.0388 6.38704 48.3144 6.49192 48.5816C6.5968 48.8489 6.74368 49.0864 6.93284 49.294C7.122 49.5016 7.35022 49.6693 7.61751 49.7966C7.8848 49.924 8.18079 49.9878 8.50579 49.9878C8.8224 49.9878 9.11429 49.9262 9.38168 49.8027C9.64896 49.6794 9.87924 49.5158 10.0725 49.3124C10.2659 49.1089 10.4168 48.8734 10.5258 48.6061C10.6348 48.3388 10.6893 48.0612 10.6893 47.7733C10.6893 47.4981 10.6378 47.2266 10.5351 46.9593ZM9.58851 48.2393C9.54115 48.3977 9.47025 48.5395 9.37562 48.6649C9.28109 48.7903 9.16175 48.8921 9.018 48.9703C8.87396 49.0484 8.70541 49.0875 8.51214 49.0875C8.32708 49.0875 8.16263 49.0505 8.01868 48.9766C7.87464 48.9026 7.75442 48.8037 7.65784 48.6805C7.56126 48.5572 7.48831 48.4163 7.4389 48.258C7.38948 48.0997 7.36487 47.9363 7.36487 47.7677C7.36487 47.6032 7.38851 47.4418 7.43587 47.2834C7.48323 47.1252 7.55501 46.9843 7.65169 46.8609C7.74837 46.7376 7.86751 46.6379 8.00941 46.5618C8.1513 46.4857 8.31888 46.4477 8.51205 46.4477C8.6971 46.4477 8.86048 46.4837 9.00238 46.5557C9.14418 46.6276 9.26449 46.7244 9.36312 46.8455C9.46176 46.9669 9.53588 47.1067 9.58519 47.2649C9.63451 47.4232 9.65922 47.5868 9.65922 47.7553C9.65951 47.9196 9.63578 48.0811 9.58851 48.2393Z" fill="#ff0000"/>
<path d="M15.0137 45.5716V47.8105H15.0134C15.0134 47.971 14.998 48.1282 14.9671 48.2824C14.9363 48.4366 14.8838 48.5733 14.8099 48.6925C14.7359 48.8118 14.6392 48.9075 14.52 48.9794C14.4008 49.0514 14.2547 49.0874 14.0821 49.0874C13.9093 49.0874 13.7644 49.0524 13.6472 48.9825C13.5299 48.9127 13.4343 48.8179 13.3604 48.6987C13.2864 48.5797 13.2329 48.4438 13.1999 48.2917C13.1669 48.1395 13.1506 47.9793 13.1506 47.8105V45.5715H12.1391V47.8105C12.1391 48.0984 12.175 48.3739 12.247 48.637C12.319 48.9003 12.4322 49.1314 12.5864 49.331C12.7406 49.5306 12.9411 49.6898 13.1877 49.809C13.4345 49.9282 13.7326 49.9879 14.0822 49.9879C14.4193 49.9879 14.7102 49.9314 14.955 49.8182C15.1996 49.7051 15.4011 49.5499 15.5594 49.3526C15.7177 49.1551 15.8349 48.925 15.9111 48.6618C15.9872 48.3987 16.0252 48.1149 16.0252 47.8106V45.5716H15.0137Z" fill="#ff0000"/>
<path d="M20.4227 48.3224C20.5337 48.2607 20.6334 48.1857 20.7219 48.0972C20.8103 48.0087 20.8853 47.909 20.947 47.7981C21.0087 47.687 21.056 47.5688 21.0889 47.4433C21.1218 47.3179 21.1383 47.1873 21.1383 47.0517C21.1383 46.8706 21.1022 46.6918 21.0302 46.5149C20.9583 46.3382 20.8586 46.1799 20.7311 46.0401C20.6036 45.9004 20.4525 45.7872 20.2778 45.7008C20.103 45.6146 19.9129 45.5713 19.7073 45.5713H17.7335V49.9507H18.745V48.5382H19.405L20.2438 49.9507H21.3848L20.4227 48.3224ZM19.9787 47.4865C19.8924 47.5997 19.7894 47.6562 19.6703 47.6562H18.7451V46.4596H19.6395C19.7545 46.4596 19.8616 46.5131 19.9602 46.62C20.0589 46.727 20.1083 46.8709 20.1083 47.0519C20.1082 47.2285 20.065 47.3735 19.9787 47.4865Z" fill="#ff0000"/>
<path d="M25.8971 48.1434C25.8333 47.9998 25.7429 47.8774 25.6258 47.7766C25.5085 47.6758 25.3656 47.5915 25.197 47.5237C25.0283 47.4558 24.8393 47.3932 24.6296 47.3355C24.4773 47.2945 24.3437 47.2575 24.2287 47.2246C24.1135 47.1918 24.0179 47.1557 23.9419 47.1166C23.8657 47.0775 23.8082 47.0333 23.7691 46.9839C23.7299 46.9346 23.7104 46.873 23.7104 46.7989C23.7104 46.5563 23.8914 46.4349 24.2532 46.4349C24.3846 46.4349 24.5164 46.4535 24.648 46.4905C24.7795 46.5275 24.9009 46.5708 25.012 46.62C25.1229 46.6693 25.2154 46.7168 25.2895 46.7619C25.3634 46.8072 25.4067 46.838 25.419 46.8544L25.8632 46.0156C25.7645 45.9581 25.6565 45.9006 25.5393 45.8428C25.4221 45.7853 25.2957 45.7338 25.1599 45.6886C25.0243 45.6434 24.8824 45.6065 24.7343 45.5777C24.5863 45.549 24.4362 45.5344 24.2842 45.5344C24.0661 45.5344 23.8595 45.5654 23.6643 45.627C23.469 45.6886 23.2972 45.7802 23.1494 45.9014C23.0013 46.0228 22.8841 46.1719 22.7977 46.3487C22.7114 46.5256 22.6682 46.7292 22.6682 46.9594C22.6682 47.124 22.6918 47.2678 22.7391 47.3912C22.7865 47.5145 22.8583 47.6235 22.9549 47.7181C23.0516 47.8128 23.1739 47.8961 23.322 47.9679C23.4701 48.04 23.6449 48.1067 23.8464 48.1685C23.9985 48.2137 24.1393 48.2547 24.2688 48.2918C24.3984 48.3288 24.5104 48.3689 24.605 48.4121C24.6994 48.4552 24.7736 48.5036 24.827 48.557C24.8803 48.6104 24.9073 48.6783 24.9073 48.7605C24.9073 48.9785 24.7284 49.0875 24.3707 49.0875C24.2019 49.0875 24.0354 49.0648 23.871 49.0196C23.7065 48.9744 23.5573 48.9229 23.4237 48.8654C23.29 48.8079 23.1779 48.7504 23.0876 48.6925C22.9971 48.6351 22.9436 48.596 22.9271 48.5754L22.483 49.4574C22.6104 49.5436 22.7492 49.6198 22.8993 49.6855C23.0494 49.7513 23.2048 49.8079 23.365 49.8551C23.5254 49.9024 23.6897 49.9384 23.8585 49.9631C24.0271 49.9878 24.1915 50.0001 24.3519 50.0001C24.5617 50.0001 24.7652 49.9763 24.9627 49.9291C25.16 49.8818 25.3347 49.8057 25.487 49.7009C25.6391 49.5961 25.7614 49.4584 25.854 49.2877C25.9466 49.1171 25.9928 48.9083 25.9928 48.6616C25.9927 48.4601 25.9609 48.2875 25.8971 48.1434Z" fill="#ff0000"/>
<path d="M27.9788 23.6179C27.7036 22.526 26.8424 21.6648 25.7505 21.3896V7.9165H24.2494V21.3897C22.9172 21.7255 21.928 22.9336 21.928 24.3685C21.928 26.0625 23.3062 27.4404 24.9999 27.4404C26.435 27.4404 27.6429 26.4511 27.9787 25.119H36.9098V23.6179H27.9788ZM25 25.9393C24.1339 25.9393 23.4292 25.2346 23.4292 24.3685C23.4292 23.5024 24.1339 22.7977 25 22.7977C25.8661 22.7977 26.5708 23.5024 26.5708 24.3685C26.5708 25.2346 25.8661 25.9393 25 25.9393Z" fill="#ff0000"/>
<path d="M46.6358 35.5909C48.4234 32.1514 49.3684 28.2706 49.3684 24.3684C49.3684 17.8593 46.8337 11.7399 42.2312 7.13714C37.6285 2.53478 31.509 0 25 0C18.491 0 12.3714 2.53478 7.76877 7.13724C3.16631 11.7399 0.631531 17.8594 0.631531 24.3685V25.119H5.21749V23.618H2.14472C2.26445 19.9225 3.26611 16.4466 4.94424 13.3926L7.58556 14.953L8.34904 13.6606L5.70899 12.1009C7.51876 9.26488 9.93684 6.85354 12.7773 5.05002L14.3304 7.6929L15.6246 6.93235L14.0705 4.28771C17.1132 2.62501 20.5728 1.6338 24.2495 1.51465V4.58596H25.7506V1.51465C29.4457 1.63448 32.922 2.63458 35.9759 4.31261L34.4155 6.95403L35.7077 7.71751L37.267 5.07795C40.103 6.88772 42.5147 9.30541 44.3182 12.1458L41.6752 13.6988L42.4358 14.9929L45.0814 13.4384C46.7442 16.4812 47.7345 19.9413 47.8537 23.618H44.7825V25.119H47.8539C47.734 28.7293 46.753 32.2291 45.0506 35.3413L42.4143 33.7839L41.6508 35.0763L44.2862 36.6332C43.0674 38.5527 41.561 40.2966 39.8043 41.7932L40.0073 39.9635L38.5154 39.798L38.029 44.1822L42.4132 44.6685L42.5788 43.1766L40.735 42.972C43.1545 40.9206 45.1769 38.3981 46.6358 35.5909Z" fill="#ff0000"/>
</g>
<defs>
<clipPath id="clip0_83_368">
<rect width="50" height="50" fill="white"/>
</clipPath>
</defs>
</svg>
