<svg width="60" height="60" viewBox="0 0 60 60" fill="none" xmlns="http://www.w3.org/2000/svg">
<path d="M51.528 17.8031C51.528 17.8022 51.528 17.8003 51.527 17.7994C51.3667 16.6875 46.0942 12.1875 41.298 12.1875C36.077 12.1875 31.2414 18.615 29.8867 18.75C28.6492 18.7547 28.6539 20.625 29.8914 20.625C33.6986 20.625 38.1564 8.99625 48.1277 16.9106C46.9473 17.205 46.1177 17.9588 45.6864 19.125C42.7052 16.5553 37.908 18.0075 36.6002 21.2119C36.1427 22.3491 37.8583 23.0569 38.3364 21.9188C39.4042 19.4794 43.6727 18.4275 45.587 21.9591C47.162 24.8606 52.2217 22.5525 51.528 17.8031ZM47.2389 21.0703C47.2689 19.3097 47.9589 18.4791 49.6961 18.6684C49.637 21.0234 47.6889 21.8803 47.2389 21.0703Z" fill="#ff0000"/>
<path d="M40.2769 22.3331C40.3051 22.3659 43.0951 25.635 43.0951 30C43.0951 39.3394 35.5772 54.375 30.9076 54.375C27.5879 54.375 11.9747 41.6578 10.4363 31.5572C28.5619 39.2672 21.7857 8.61656 38.6616 8.445C39.3291 8.44313 41.2182 8.4375 42.2354 8.4375C42.9647 8.4375 44.1891 8.80312 44.1891 11.25C44.1891 12.4903 46.0641 12.4903 46.0641 11.25C46.0641 7.79063 44.0016 6.5625 42.2354 6.5625C41.1132 6.5625 39.4641 6.56812 38.4122 6.57094V6.58406C34.1841 6.69281 31.2347 8.52094 29.0326 11.1094V8.45437C29.0569 7.11187 27.8776 5.625 25.2826 5.625C24.1979 5.625 23.3354 5.88656 22.6913 6.38625C22.0997 5.32031 20.5369 3.75 19.141 3.75C16.0651 3.75 13.0688 7.37437 14.8857 9.81281C16.2966 11.7084 16.6904 13.6116 16.801 14.4937C14.8641 15.7181 8.42725 20.5003 8.42725 30C8.42725 41.2388 26.2304 56.25 30.9076 56.25C37.5207 56.25 44.9701 39.1256 44.9701 30C44.9701 24.9431 41.8276 21.2597 41.6944 21.105C40.8797 20.1666 39.466 21.3966 40.2769 22.3331ZM23.8997 20.6587C23.0072 18.1678 21.3272 14.7816 18.6516 14.1637C18.5344 13.2816 18.2082 11.7975 17.3288 10.1709C19.1213 9.77812 20.2585 8.625 20.821 6.93187C21.6872 8.07469 21.5626 9.46219 21.5326 13.125C21.5326 14.3653 23.4076 14.3653 23.4076 13.125V10.3266C24.7426 10.6819 25.9988 10.5778 27.1576 10.0875V13.7212C25.8272 15.9216 24.8157 18.3647 23.8997 20.6587ZM27.0019 8.05687C25.5544 8.93625 24.1866 8.65406 23.4629 8.38313C23.8885 7.16156 26.4404 7.31906 27.0019 8.05687ZM19.2235 5.63812C18.9376 7.33031 18.001 8.35031 16.2516 8.42812C15.9376 7.50937 17.5463 5.47031 19.2235 5.63812ZM18.0076 15.9506C20.4741 16.2441 22.2441 21.2747 22.7832 23.4272C19.9791 30.2006 17.5791 33.0216 10.3276 29.4441C10.5891 20.8416 16.7363 16.71 18.0076 15.9506Z" fill="#ff0000"/>
<path d="M31.845 23.4374V28.814L28.3406 34.9471L24.3722 37.3284L22.0528 35.7824C21.8118 35.6221 21.51 35.5818 21.2362 35.6727L18.4237 36.6102C17.2434 37.004 17.8453 38.7834 19.0172 38.3887L21.3947 37.5965L23.2762 38.8509L22.499 41.9596C22.199 43.1606 24.0159 43.6209 24.3187 42.4153L25.1625 39.0421L28.0968 37.2815V46.8749C28.0968 48.1153 29.9718 48.1153 29.9718 46.8749V41.6381L33.059 44.7253C33.9272 45.6028 35.2631 44.2799 34.3828 43.3996L29.97 38.9868V35.8743L33.1565 30.2981L35.4731 31.4559L34.6762 35.4412C34.4334 36.6618 36.2709 37.0359 36.5137 35.8096L37.1081 32.8396L38.6822 34.4137C39.5615 35.2893 40.8843 33.9637 40.0078 33.0871L37.1953 30.2746C36.795 29.9774 35.2312 29.2612 33.72 28.4831V23.4374C33.72 22.1971 31.845 22.1971 31.845 23.4374Z" fill="#ff0000"/>
</svg>
