<svg width="60" height="60" viewBox="0 0 60 60" fill="none" xmlns="http://www.w3.org/2000/svg">
<path d="M30.9375 25.3125C27.8353 25.3125 25.3125 27.8353 25.3125 30.9375C25.3125 34.0397 27.8353 36.5625 30.9375 36.5625C34.0397 36.5625 36.5625 34.0397 36.5625 30.9375C36.5625 27.8353 34.0397 25.3125 30.9375 25.3125ZM30.9375 34.6875C28.8694 34.6875 27.1875 33.0056 27.1875 30.9375C27.1875 28.8694 28.8694 27.1875 30.9375 27.1875C33.0056 27.1875 34.6875 28.8694 34.6875 30.9375C34.6875 33.0056 33.0056 34.6875 30.9375 34.6875Z" fill="#fc5e5e"/>
<path d="M51.6403 33.6863C52.8393 33.4847 54.0572 33.4013 55.2853 33.4378C55.7972 33.4331 56.234 33.045 56.249 32.5266C56.264 32.0091 55.8562 31.5778 55.3387 31.5628C53.1572 31.5028 51.0075 31.7972 48.9243 32.4094C48.8634 32.4225 48.8062 32.4403 48.749 32.4656C48.4003 32.5716 48.0515 32.6756 47.7065 32.8003C45.3056 32.6719 43.2684 31.3266 42.2409 29.1703C41.1872 26.9559 41.4712 24.0628 42.93 22.1325C42.989 22.0547 43.0378 21.9666 43.0715 21.8691C43.2178 21.4463 43.3837 21.0319 43.5515 20.6194H43.5618C45.2268 20.6194 46.874 20.385 48.464 19.9509C50.2134 21.18 52.2768 21.84 54.4059 21.84C54.7359 21.84 55.0668 21.8241 55.3987 21.7922C55.9143 21.7435 56.2922 21.2859 56.2434 20.7703C56.1937 20.2538 55.7306 19.86 55.2215 19.9266C53.684 20.0728 52.1643 19.7944 50.7956 19.1475C52.2993 18.5147 53.7262 17.6916 55.0284 16.6763C55.4372 16.3575 55.5093 15.7688 55.1906 15.3609C54.8718 14.9522 54.2822 14.8809 53.8743 15.1988C51.1537 17.3222 47.8443 18.5522 44.4131 18.7238C45.9103 15.7875 47.984 13.1663 50.5237 11.0306C50.9203 10.6978 50.9709 10.1063 50.6381 9.7097C50.3053 9.31314 49.7147 9.26251 49.3172 9.59532C46.1943 12.2213 43.7325 15.5325 42.0975 19.2497C42.0881 19.2675 42.0806 19.2844 42.0731 19.3031C41.8275 19.8638 41.6006 20.4338 41.3943 21.0122C39.9881 22.3294 38.0381 22.6725 36.5887 21.8222C34.9668 20.8725 34.1522 18.8991 34.6518 17.1291C34.6556 17.1159 34.6528 17.1038 34.6556 17.0906C34.6584 17.0784 34.6668 17.0691 34.6687 17.0559C34.8272 16.2506 34.935 15.4378 35.0193 14.6231C37.9603 12.8625 40.1531 10.1269 41.204 6.84845C41.3615 6.35532 41.0906 5.82657 40.5975 5.66907C40.1034 5.51345 39.5765 5.78345 39.419 6.2747C38.6456 8.68782 37.155 10.7588 35.1647 12.2663C35.1712 11.8894 35.1647 11.5134 35.1543 11.1366C35.1525 11.0953 35.1581 11.055 35.1506 11.0147C35.0747 8.45532 34.6509 5.9072 33.8587 3.46032C33.6993 2.9672 33.1725 2.6972 32.6784 2.85657C32.1862 3.01595 31.9162 3.54376 32.0756 4.03689C32.6803 5.90626 33.0515 7.83939 33.209 9.78845C31.1006 8.79845 29.5453 6.89814 29.04 4.5647C28.9303 4.05939 28.4306 3.73689 27.9253 3.84657C27.419 3.95626 27.0984 4.45501 27.2072 4.96126C27.9075 8.19189 30.2175 10.7569 33.3 11.8388C33.299 13.3884 33.1518 14.9381 32.8659 16.4663C30.57 19.2234 28.5337 20.625 24.1143 20.625C20.1712 20.625 17.0128 19.4569 14.7281 17.1525C14.7272 17.1516 14.7272 17.1516 14.7262 17.1516C14.7262 17.1516 14.7253 17.1506 14.7253 17.1497C14.3943 16.8178 14.0925 16.4625 13.7765 16.1184C14.8528 13.0416 15.2793 9.7247 14.9962 6.48095C14.9512 5.96532 14.5106 5.57626 13.9809 5.62876C13.4653 5.67376 13.0828 6.12845 13.1287 6.64407C13.3565 9.26251 13.0809 11.9306 12.3422 14.4572C10.7859 12.5213 9.43403 10.4316 8.34278 8.18439C8.11685 7.71751 7.55435 7.52439 7.09028 7.75126C6.62435 7.9772 6.43028 8.53689 6.65716 9.00376C7.45403 10.6453 8.38497 12.2072 9.41903 13.6959C7.89466 13.6519 6.37778 13.4719 4.88716 13.1475C4.38185 13.0294 3.88216 13.3575 3.77153 13.8638C3.66091 14.3691 3.98247 14.8688 4.48778 14.9794C6.34216 15.3834 8.23685 15.5869 10.1343 15.5869C10.3678 15.5869 10.6012 15.5775 10.8347 15.5709C11.1984 16.0256 11.5706 16.4719 11.9568 16.9078C12.0047 16.9725 12.0543 17.0316 12.1181 17.0831C12.525 17.5359 12.9243 17.9953 13.3556 18.4275C13.3556 18.4275 13.3556 18.4284 13.3565 18.4284L13.4737 18.5634C16.0959 21.5597 19.6875 25.6613 19.6875 29.0625C19.6875 31.9313 17.3409 33.3994 14.624 35.0991C14.3522 35.2688 14.0784 35.4422 13.8056 35.6156C10.7531 35.5697 8.00528 34.7269 5.18622 32.9559C4.74841 32.6813 4.16997 32.8144 3.89435 33.2503C3.61778 33.69 3.74997 34.2684 4.18872 34.5441C6.56153 36.0347 8.89497 36.9328 11.3728 37.3022C8.78622 39.1791 6.32341 41.2388 4.03403 43.4606C3.66278 43.8216 3.65341 44.415 4.01435 44.7863C4.19903 44.9756 4.44278 45.0703 4.68747 45.0703C4.92278 45.0703 5.1581 44.9822 5.33997 44.8059C6.6656 43.5188 8.05497 42.2925 9.48841 41.1197C8.77122 43.9172 8.41778 46.7897 8.43747 49.6941C8.44122 50.2097 8.86028 50.625 9.37497 50.625H9.38153C9.89903 50.6213 10.3162 50.1984 10.3125 49.681C10.2872 46.0791 10.874 42.5297 12.0459 39.1266C12.8606 38.5256 13.6865 37.9425 14.5265 37.3819C16.935 36.1688 19.8047 36.5466 22.0322 38.3719C24.1059 40.0716 25.035 42.7341 24.4968 45.2588C21.525 46.3885 18.7397 47.9325 16.2234 49.8853C15.8137 50.2031 15.7397 50.7919 16.0575 51.2006C16.2412 51.4378 16.5178 51.5625 16.7972 51.5625C16.9978 51.5625 17.2003 51.4988 17.3709 51.3656C19.5337 49.6875 21.9131 48.3375 24.4378 47.3025C24.4575 47.5303 24.4912 47.7563 24.5212 47.9831C22.8159 50.0363 22.3856 54.9769 22.5028 56.3297C22.5459 56.8191 22.9547 57.1875 23.4365 57.1875C23.4637 57.1875 23.4909 57.1866 23.5181 57.1838C24.0337 57.1388 24.4162 56.685 24.3712 56.1694C24.2681 54.9759 24.6056 52.3959 25.2225 50.6344C25.7128 51.7641 26.4253 52.7963 27.3187 53.6475C28.1147 54.405 28.919 54.9019 29.9287 55.2591C30.0328 55.2947 30.1378 55.3125 30.2418 55.3125C30.6281 55.3125 30.989 55.0725 31.1259 54.6881C31.2984 54.1997 31.0434 53.6634 30.555 53.4919C29.7965 53.2228 29.2153 52.8638 28.6125 52.2891C27.464 51.1959 26.6897 49.7297 26.4318 48.1594C26.3203 47.4844 26.2659 46.7953 26.2575 46.11C27.1781 43.6931 29.0897 41.9438 31.5356 41.3053C33.9572 40.6688 36.5681 41.2003 38.4553 42.6656C38.5434 46.0228 39.5522 49.2694 41.4056 52.08C41.5847 52.3519 41.8837 52.5 42.1884 52.5C42.3656 52.5 42.5447 52.4494 42.7031 52.3453C43.1353 52.0603 43.2543 51.4781 42.9703 51.046C41.5143 48.8381 40.6415 46.3294 40.394 43.7175C43.4925 45.3563 46.0865 47.7703 47.955 50.7684C48.1322 51.0544 48.4387 51.2109 48.7518 51.2109C48.9215 51.2109 49.0922 51.165 49.2468 51.0694C49.6865 50.7956 49.8206 50.2181 49.5468 49.7785C48.4181 47.9663 47.0418 46.3547 45.4697 44.9672C47.1637 44.7619 48.8747 44.7628 50.58 44.9916C51.09 45.0581 51.5644 44.6991 51.6337 44.1872C51.7022 43.6734 51.3422 43.2019 50.8284 43.1334C48.3637 42.8044 45.8868 42.9038 43.4568 43.4025C42.4668 42.7181 41.4168 42.1153 40.3134 41.5988C40.3115 39.0891 40.335 37.2638 41.4169 36.1809C42.4331 35.1619 44.4656 34.6875 47.8125 34.6875C47.9222 34.6875 48.0328 34.6678 48.1415 34.6284C48.4387 34.5169 48.7415 34.4353 49.0425 34.3388C51.1678 35.4478 53.0822 36.9975 54.5812 38.8669C54.7668 39.0984 55.0387 39.2184 55.3134 39.2184C55.5197 39.2184 55.7259 39.1509 55.8993 39.0122C56.3034 38.6878 56.3681 38.0981 56.0447 37.695C54.8006 36.1434 53.3015 34.7878 51.6403 33.6863ZM40.0884 34.8563C38.7094 36.2363 38.4797 38.1572 38.4431 40.3922C36.2587 39.165 33.6112 38.8209 31.0612 39.4894C29.249 39.9628 27.6412 40.9594 26.4037 42.3253C26.0381 40.2581 24.9347 38.3259 23.22 36.9206C21.7753 35.7366 20.0672 35.0419 18.3328 34.8647C20.1553 33.4566 21.5625 31.7288 21.5625 29.0625C21.5625 26.5706 20.1412 23.9672 18.3937 21.5859C20.1178 22.1897 22.0397 22.5 24.1143 22.5C28.1934 22.5 30.6318 21.3713 32.7506 19.3547C33.0843 21.0216 34.1156 22.5469 35.6409 23.4413C36.9628 24.2147 38.5425 24.3563 40.0303 23.9175C39.5015 25.9106 39.6572 28.1016 40.5497 29.9756C41.1928 31.3247 42.1387 32.431 43.2956 33.2325C41.8865 33.5625 40.8469 34.0959 40.0884 34.8563Z" fill="#fc5e5e"/>
</svg>
