<svg width="60" height="60" viewBox="0 0 60 60" fill="none" xmlns="http://www.w3.org/2000/svg">
<path d="M35.8032 29.5556C35.1082 29.5556 34.4247 29.3809 33.8095 29.0354C32.7158 28.424 31.9715 27.3645 31.7664 26.1303C31.512 24.6037 30.6424 23.267 29.3778 22.4695L14.3399 12.9683C13.9145 12.6987 13.7854 12.1366 14.055 11.7113C14.3247 11.286 14.8867 11.1569 15.312 11.4265L30.35 20.9278C32.0513 22.0025 33.2247 23.7911 33.5626 25.8303C33.6766 26.5176 34.0905 27.1063 34.7019 27.448C35.7272 28.0214 37.0411 27.71 37.6981 26.7341C37.8538 26.5063 37.9639 26.2556 38.0247 25.9936C38.2829 24.9189 38.8753 23.9847 39.7335 23.2898C39.9424 23.1189 40.1209 22.9138 40.2614 22.6746C40.8576 21.6645 40.5766 20.3392 39.6196 19.6594C38.9588 19.1923 38.1196 19.105 37.3791 19.4316C35.8715 20.0961 34.1588 19.9784 32.7956 19.1164L16.8272 9.0265C16.4019 8.75688 16.2728 8.19486 16.5424 7.76954C16.812 7.34423 17.374 7.21511 17.7993 7.48473L33.7677 17.5746C34.6183 18.11 35.6892 18.1822 36.6424 17.7607C37.9753 17.1721 39.4829 17.324 40.6715 18.167C41.5107 18.7594 42.0918 19.6442 42.3082 20.6544C42.5247 21.6645 42.3538 22.7088 41.8335 23.5936C41.5829 24.0189 41.2639 24.3911 40.8842 24.6987C40.3373 25.1392 39.9652 25.7354 39.7981 26.4189C39.6842 26.8936 39.4867 27.3417 39.2095 27.7518C38.6361 28.6025 37.7664 29.2025 36.7601 29.4417C36.4411 29.5176 36.1221 29.5556 35.8032 29.5556Z" fill="#ff0000"/>
<path d="M37.1244 55.6594C37.075 55.6594 37.0219 55.6557 36.9725 55.6481C36.475 55.5645 36.1409 55.0936 36.2282 54.5962L38.0814 43.6746C38.4991 41.1531 39.775 38.886 41.6662 37.2911C42.0725 36.9493 42.3307 36.467 42.3915 35.9316C42.513 34.8683 41.7839 33.8772 40.732 33.6683C40.4472 33.6113 40.1624 33.6151 39.8814 33.6759C38.9244 33.8886 37.9409 33.7215 37.1016 33.2126C36.8586 33.0645 36.589 32.9696 36.3004 32.9316C35.2409 32.7873 34.2307 33.4936 33.9991 34.5379C33.8586 35.1797 34.0181 35.8367 34.4434 36.3341C35.6548 37.7582 36.1712 39.6607 35.856 41.5557L33.7181 54.186C33.6345 54.6835 33.1636 55.0177 32.6662 54.9341C32.1687 54.8506 31.8345 54.3797 31.9181 53.8822L34.0522 41.2557C34.2801 39.8962 33.9117 38.5329 33.0497 37.5151C32.2522 36.5772 31.9485 35.3506 32.2143 34.1468C32.6472 32.1835 34.5459 30.8582 36.5396 31.1278C37.0788 31.2 37.5839 31.3784 38.0434 31.6594C38.4763 31.9215 38.9852 32.0088 39.4788 31.8987C40.0067 31.781 40.5421 31.7772 41.0776 31.8835C43.0522 32.2746 44.4193 34.143 44.1953 36.1405C44.0814 37.1392 43.5991 38.043 42.832 38.6886C41.2712 40.0025 40.2193 41.8822 39.87 43.9784L38.0168 54.9038C37.9447 55.3443 37.5611 55.6594 37.1244 55.6594Z" fill="#ff0000"/>
<path d="M45.1407 31.3063C45.0534 31.3063 44.966 31.3025 44.8787 31.2911L42.2318 30.9759C41.4116 30.8772 40.728 30.3379 40.4432 29.5632C40.1584 28.7886 40.3331 27.9341 40.8951 27.3303C41.4268 26.7607 41.9964 26.1455 42.4825 25.6253C42.9647 25.1088 43.6673 24.8582 44.366 24.9493C45.0647 25.0443 45.6799 25.4734 46.0065 26.0962L47.066 28.1164C47.442 28.8341 47.3888 29.6962 46.9293 30.3645C46.523 30.9569 45.8508 31.3063 45.1407 31.3063ZM44.0774 26.7493C44.0052 26.7493 43.9065 26.7683 43.8192 26.8632C43.3331 27.3873 42.7635 27.9987 42.2318 28.5683C42.1027 28.7088 42.1293 28.8569 42.1597 28.9329C42.1863 29.0088 42.2622 29.1417 42.4521 29.1645L45.0989 29.4797C45.285 29.5025 45.3875 29.3962 45.4331 29.3278C45.4787 29.2632 45.5432 29.1265 45.4559 28.9594L44.3964 26.9392C44.3204 26.7987 44.1951 26.7607 44.1268 26.7531C44.1116 26.7493 44.0964 26.7493 44.0774 26.7493Z" fill="#ff0000"/>
<path d="M45.2928 59.1645C45.2321 59.1645 45.1751 59.1569 45.1144 59.1455C44.6207 59.0468 44.3017 58.5683 44.4004 58.0746L49.6941 31.6518C50.7954 26.1455 48.3194 20.4759 43.5308 17.5405L18.9916 2.52526C18.5625 2.26324 18.4258 1.70121 18.6916 1.2721C18.9574 0.842985 19.5156 0.706277 19.9447 0.972099L44.4802 15.9873C47.1612 17.6278 49.2422 20.0164 50.4992 22.8987C51.7561 25.7772 52.0979 28.9291 51.4789 32.0126L46.1852 58.4354C46.1017 58.8645 45.7182 59.1645 45.2928 59.1645Z" fill="#ff0000"/>
<path d="M25.1243 56.4379C25.0294 56.4379 24.9307 56.4228 24.8319 56.3886C24.3535 56.2291 24.099 55.7088 24.2585 55.2341C24.2889 55.143 27.3762 45.8886 26.4421 41.0962C25.994 38.8139 26.3395 36.1747 27.4674 33.2468C27.9079 32.1 28.3864 31.1392 28.7395 30.486C25.6256 29.1607 22.6826 27.6987 19.975 26.1265C17.5826 24.7405 15.3686 23.2671 13.394 21.7481C10.0028 19.1468 8.49143 17.3126 8.43067 17.2367C8.11168 16.8455 8.17244 16.2721 8.55979 15.9531C8.95092 15.6341 9.52434 15.6949 9.83953 16.0822C9.85472 16.1012 11.3205 17.8709 14.5712 20.3582C17.575 22.6557 22.7547 26.0582 30.3914 29.2025C30.6421 29.305 30.8319 29.5139 30.9155 29.7721C30.9952 30.0303 30.9611 30.3114 30.813 30.5392C30.7788 30.5924 27.3155 36.0835 28.2307 40.7468C29.2598 46.0139 26.1231 55.4202 25.9864 55.819C25.8573 56.1987 25.5041 56.4379 25.1243 56.4379Z" fill="#ff0000"/>
</svg>
