<svg width="60" height="60" viewBox="0 0 60 60" fill="none" xmlns="http://www.w3.org/2000/svg">
<path d="M52.5678 14.6564H50.265C53.0021 13.4735 54.4375 12.0265 54.4375 10.4259C54.4375 8.30813 51.9801 6.4923 47.331 5.17078C45.3243 2.0857 41.9617 0.0585938 38.159 0.0585938C36.8462 0.0585938 35.5584 0.297773 34.3278 0.770859C33.3024 1.16988 30.1243 1.16977 29.0942 0.769922C27.87 0.297891 26.583 0.0585938 25.2687 0.0585938C21.6062 0.0585938 18.3519 1.93887 16.324 4.83363C12.3918 5.79481 7.94242 7.52402 7.94242 10.4259C7.94242 12.4925 10.2906 14.2746 14.7386 15.5906C15.1625 16.9118 15.8049 18.1522 16.6469 19.2411C18.2823 21.3607 19.638 27.9735 20.5349 32.3495C20.7713 33.5029 20.9754 34.4988 21.1584 35.295C21.4596 36.6116 22.4332 37.4963 23.5812 37.4963C24.6453 37.4963 25.5188 36.7235 25.9773 35.3774L30.2942 22.7557C31.1255 22.4865 32.301 22.4865 33.1302 22.7552L37.4476 35.3788C37.9109 36.7245 38.7852 37.4961 39.8465 37.4961C40.9898 37.4961 41.9631 36.6125 42.2693 35.2946C42.449 34.5083 42.65 33.5275 42.8825 32.3917C43.3374 30.1703 43.8954 27.4475 44.5448 24.997H48.4465C48.8987 24.997 49.2654 24.6304 49.2654 24.1781V20.8794H52.5675C53.0198 20.8794 53.3864 20.5127 53.3864 20.0605V15.4753C53.3866 15.023 53.02 14.6564 52.5678 14.6564ZM52.7998 10.4259C52.7998 11.3511 51.499 12.3957 49.2655 13.3V12.4242C49.2766 12.2002 49.2821 11.9993 49.2821 11.8118C49.2821 10.1849 48.9674 8.63414 48.3993 7.22379C51.6092 8.34762 52.7998 9.57856 52.7998 10.4259ZM25.2687 1.69641C26.3807 1.69641 27.4696 1.89891 28.5033 2.29734C29.9147 2.8452 33.5139 2.84508 34.9186 2.2984C35.9577 1.89891 37.0479 1.69641 38.159 1.69641C42.9849 1.69641 46.9805 5.55984 47.5694 10.5386H43.8647C43.4125 10.5386 43.0458 10.9052 43.0458 11.3575V14.6564H39.7436C39.2914 14.6564 38.9247 15.0231 38.9247 15.4753V15.5531C36.4455 15.8152 33.8482 15.9493 31.1898 15.9493C25.5129 15.9493 20.1718 15.3517 16.0678 14.2624C15.8814 13.4655 15.7832 12.6428 15.7832 11.8118C15.7833 6.23414 20.0385 1.69641 25.2687 1.69641ZM9.58023 10.4259C9.58023 9.48012 11.0925 8.04539 15.1944 6.83285C14.5221 8.34551 14.1455 10.0329 14.1455 11.8117C14.1455 12.4589 14.1978 13.102 14.2973 13.7351C10.8478 12.5802 9.58023 11.2972 9.58023 10.4259ZM41.278 32.0631C41.0474 33.1891 40.8483 34.1617 40.6735 34.9269C40.544 35.484 40.2118 35.8582 39.8466 35.8582C39.3811 35.8582 39.0781 35.0832 38.9969 34.8472L34.5576 21.8674C34.4855 21.6567 34.3308 21.4845 34.129 21.3904C32.7757 20.7588 30.6529 20.7587 29.2963 21.39C29.0942 21.484 28.9391 21.6565 28.8669 21.8674L24.4274 34.8482C24.3467 35.0851 24.0471 35.8582 23.5813 35.8582C23.2142 35.8582 22.8822 35.4851 22.7549 34.9289C22.5762 34.151 22.3738 33.1637 22.1394 32.0204C21.1567 27.2262 19.8108 20.6603 17.9431 18.2399C17.4366 17.5849 17.014 16.8655 16.6798 16.1032C20.76 17.0639 25.8376 17.587 31.1902 17.587C33.8441 17.587 36.441 17.4565 38.925 17.2003V20.0603C38.925 20.5126 39.2917 20.8792 39.7439 20.8792H43.0462V24.1779C43.0462 24.2023 43.0477 24.2263 43.0498 24.2502C42.3502 26.8308 41.7575 29.7224 41.278 32.0631ZM51.7489 19.2415H48.4468C47.9945 19.2415 47.6278 19.6082 47.6278 20.0604V23.3591H44.6837V20.0604C44.6837 19.608 44.3171 19.2415 43.8648 19.2415H40.5626V16.2942H43.8648C44.3171 16.2942 44.6837 15.9275 44.6837 15.4753V12.1764H47.6278V15.4753C47.6278 15.9277 47.9945 16.2942 48.4468 16.2942H51.7489V19.2415ZM47.2985 40.3542L39.8678 45.1188C39.5106 44.0524 38.6713 43.1815 37.5508 42.8089L24.5481 38.509C22.8367 37.9421 21.1179 38.139 19.5784 39.0773L13.9176 42.52L13.4735 41.8234C13.2305 41.442 12.7241 41.3299 12.3428 41.5731L5.94074 45.6544C5.75757 45.7712 5.62831 45.9559 5.58132 46.168C5.53445 46.3801 5.57371 46.6022 5.69042 46.7852L13.8396 59.5628C13.9565 59.7459 14.1412 59.8752 14.3533 59.922C14.4119 59.935 14.471 59.9414 14.5301 59.9414C14.6849 59.9414 14.838 59.8975 14.9705 59.813L21.3692 55.7317C21.7504 55.4885 21.8624 54.9823 21.6194 54.6011L20.6762 53.1217L23.0999 51.6475L33.446 55.0695C34.1424 55.2997 34.8384 55.4142 35.5244 55.4142C36.7233 55.4142 37.8914 55.0644 38.9757 54.3714L51.2435 46.5066C52.9373 45.4175 53.4316 43.1537 52.3453 41.4601C51.2577 39.7645 48.994 39.268 47.2985 40.3542ZM14.7802 57.9916L7.51175 46.5952L12.5325 43.3944L19.798 54.791L14.7802 57.9916ZM50.3587 45.1284L38.0926 52.992C36.8185 53.8064 35.3895 53.9871 33.9604 53.5145L23.255 49.9736C23.0269 49.8982 22.7773 49.9266 22.5722 50.0514L19.7956 51.7402L14.7982 43.9015L20.4302 40.4764C21.5628 39.7862 22.7751 39.6472 24.0337 40.0639L37.0355 44.3637C37.8866 44.6466 38.4423 45.452 38.4167 46.343C38.4096 46.3732 38.4038 46.4039 38.4002 46.4354C38.3222 47.1022 37.9534 47.7206 37.4377 48.0492C36.9601 48.3536 36.3982 48.402 35.7674 48.1931L29.846 46.2338C29.4164 46.0918 28.9534 46.3247 28.8113 46.7541C28.6693 47.1834 28.9021 47.6467 29.3315 47.7887L35.2526 49.748C35.6711 49.8865 36.0892 49.9553 36.4962 49.9553C37.1484 49.9553 37.7713 49.7787 38.3178 49.4304C39.1496 48.9004 39.7462 48.0109 39.9631 47.0032L48.1824 41.7329C49.1174 41.1341 50.3666 41.4082 50.9669 42.3442C51.5659 43.2786 51.2928 44.5277 50.3587 45.1284ZM49.9452 31.913V33.0567H51.0891C51.5413 33.0567 51.908 33.4234 51.908 33.8756C51.908 34.3279 51.5413 34.6945 51.0891 34.6945H49.9452V35.8417C49.9452 36.294 49.5785 36.6606 49.1263 36.6606C48.6741 36.6606 48.3074 36.2939 48.3074 35.8417V34.6945H47.1603C46.708 34.6945 46.3414 34.3279 46.3414 33.8756C46.3414 33.4234 46.708 33.0567 47.1603 33.0567H48.3074V31.913C48.3074 31.4606 48.6741 31.0941 49.1263 31.0941C49.5785 31.0941 49.9452 31.4606 49.9452 31.913ZM15.0673 22.4375V23.5847H16.2144C16.6667 23.5847 17.0334 23.9514 17.0334 24.4036C17.0334 24.8558 16.6667 25.2225 16.2144 25.2225H15.0673V26.3696C15.0673 26.822 14.7006 27.1886 14.2484 27.1886C13.7962 27.1886 13.4295 26.8219 13.4295 26.3696V25.2225H12.2823C11.8301 25.2225 11.4634 24.8558 11.4634 24.4036C11.4634 23.9514 11.8301 23.5847 12.2823 23.5847H13.4295V22.4375C13.4295 21.9852 13.7962 21.6186 14.2484 21.6186C14.7006 21.6186 15.0673 21.9853 15.0673 22.4375Z" fill="#fc5e5e"/>
</svg>
