<svg width="60" height="60" viewBox="0 0 60 60" fill="none" xmlns="http://www.w3.org/2000/svg">
<g clip-path="url(#clip0_241_2015)">
<path d="M49.1566 48.8185C49.0105 48.3556 48.5168 48.0986 48.0541 48.2445C47.591 48.3905 47.3341 48.8841 47.4801 49.347C47.7189 50.1045 47.9958 50.9086 48.3031 51.7371C48.4519 52.138 48.4249 52.5669 48.2273 52.9451C48.0306 53.3214 47.6959 53.5869 47.2847 53.6929L29.8153 58.196C29.0994 58.3807 28.35 58.0038 28.0724 57.3196C27.03 54.7521 24.59 48.7388 18.3818 49.5806C17.9464 49.6395 17.5122 49.7004 17.0845 49.7606C14.9678 50.0579 12.7793 50.3651 11.795 50.2041C9.70929 49.8626 8.56435 48.9988 8.1918 47.4854C7.9525 46.5247 8.24899 45.8239 8.6567 45.1619C9.11596 44.3407 8.73263 43.3703 8.11434 42.9425C7.70066 42.6561 7.23952 42.4699 6.90342 42.3593C6.89452 42.1693 6.98428 41.8809 7.43898 41.5531C7.63176 41.414 7.75996 41.2029 7.79442 40.9678C7.82899 40.7326 7.76688 40.4936 7.62215 40.3051C7.62812 40.2505 6.81823 39.4376 5.93966 38.6781C6.66787 38.1607 8.05762 36.9891 7.87715 35.6935C7.80156 35.1515 7.42937 34.4186 6.08474 34.005C4.61295 33.5524 4.40893 32.9831 4.40764 32.4354C4.40635 31.8767 4.73799 31.5311 5.53184 30.92C6.78658 29.9541 8.22028 28.6977 9.34073 26.7032C9.71468 26.0373 9.75933 25.2242 9.46026 24.5278C9.28296 24.1153 9.03674 23.7253 8.79861 23.3483C8.43275 22.7688 8.05434 22.1693 8.14235 21.7915C8.19028 21.5857 8.31989 21.3119 8.4699 20.9946C8.83365 20.226 9.33171 19.1733 9.43601 17.5735C9.47398 16.9898 9.54007 16.4104 9.6323 15.8518C9.71128 15.3728 9.38702 14.9206 8.90807 14.8415C8.42888 14.7633 7.97688 15.0869 7.89778 15.5657C7.79629 16.1811 7.72375 16.8182 7.6818 17.4591C7.59929 18.7246 7.21761 19.5313 6.88092 20.243C6.69576 20.6344 6.5208 21.004 6.43021 21.393C6.17556 22.4866 6.77932 23.4431 7.31206 24.2868C7.52324 24.6212 7.72258 24.9369 7.84516 25.222C7.92965 25.4188 7.91582 25.6506 7.80813 25.8424C7.02987 27.2277 6.05978 28.2954 4.45955 29.5272C3.73755 30.083 2.64651 30.923 2.64991 32.4394C2.65343 33.9988 3.63524 35.0909 5.56805 35.6853C5.94329 35.8006 6.08755 35.913 6.13208 35.956C6.07829 36.2501 5.40105 36.938 4.72159 37.3812C4.62584 37.4434 4.54299 37.5236 4.47783 37.6174C4.08724 38.1798 3.8961 39.3274 4.97026 40.184C5.26312 40.4174 5.50254 40.6304 5.69098 40.8096C4.89749 41.8313 5.10222 42.967 5.52246 43.5832C5.84754 44.0246 6.37935 43.9294 7.08589 44.3689C6.70432 45.0378 6.07173 46.16 6.48494 47.9058C7.03128 50.1255 8.72232 51.4825 11.5111 51.939C12.7592 52.1433 14.877 51.8458 17.329 51.5015C17.7541 51.4418 18.1855 51.3813 18.6179 51.3226C22.885 50.7453 24.9009 54.1811 26.4437 57.9809C26.9473 59.2217 28.1594 60.0004 29.4508 60.0002C29.7169 60.0002 29.9866 59.9672 30.254 59.8983L47.7235 55.3952C48.6098 55.1668 49.3612 54.5705 49.7852 53.7595C50.2101 52.9466 50.2707 51.9867 49.9513 51.1258C49.6541 50.3245 49.3866 49.5482 49.1566 48.8185Z" fill="#fc5e5e"/>
<path d="M48.0868 4.88821C43.2289 1.78163 36.5508 0 29.7648 0C25.2097 0 20.9207 0.984275 17.3618 2.84665C13.5415 4.84567 10.6887 7.81174 9.1117 11.4242C8.91752 11.8692 9.12073 12.3873 9.56558 12.5815C10.0105 12.7752 10.5285 12.5724 10.7228 12.1276C13.515 5.73127 20.8113 1.75784 29.7648 1.75784C36.2242 1.75784 42.5571 3.43858 47.1398 6.36913C52.6698 9.90545 55.5927 15.1782 55.5927 21.6174C55.5927 29.598 54.5436 32.8677 47.5986 39.1529C46.3529 40.2802 45.9831 42.2775 46.4682 45.2591C46.5384 45.6904 46.9113 45.997 47.3347 45.997C47.3815 45.997 47.4292 45.9933 47.4769 45.9854C47.9561 45.9075 48.2811 45.4558 48.2032 44.9769C47.8322 42.6957 48.0309 41.1324 48.7781 40.4562C56.1115 33.8195 57.3506 29.9315 57.3506 21.6174C57.3504 14.5485 54.1471 8.76355 48.0868 4.88821Z" fill="#fc5e5e"/>
<path d="M17.5533 30.1118C17.8711 30.1622 18.1905 30.1869 18.5084 30.1869C19.661 30.1869 20.7941 29.8605 21.7717 29.2554C22.4696 30.7993 23.9076 31.9724 25.6771 32.2527C26.1731 32.3311 26.6706 32.338 27.162 32.273C27.3791 32.4932 27.6194 32.6855 27.876 32.8517L30.6303 39.608C30.9928 40.4974 31.8071 41.1432 32.7559 41.2934L35.6215 41.7473C35.7129 41.7618 35.8042 41.769 35.8946 41.769C36.388 41.769 36.8575 41.5575 37.1883 41.1766C37.5797 40.7256 37.7085 40.1158 37.5331 39.5451L36.5108 36.2181C36.778 36.2663 37.0603 36.2906 37.5804 36.2713C38.3848 37.0791 39.4262 37.6137 40.5607 37.7933C40.847 37.8388 41.1333 37.8611 41.4177 37.8611C42.5493 37.8611 43.649 37.506 44.5822 36.8279C45.75 35.9796 46.5174 34.7273 46.7429 33.302C46.7687 33.1393 46.7858 32.9751 46.7969 32.8108C47.2445 32.6025 47.6755 32.3498 48.0838 32.053C49.7404 30.8495 50.8291 29.0729 51.1493 27.0506C51.4159 25.3676 51.1188 23.6669 50.3114 22.187C51.2038 21.2307 51.7963 20.0247 52.0025 18.7225C52.278 16.9834 51.8597 15.2411 50.8248 13.8167C49.8917 12.5324 48.5582 11.6451 47.0289 11.2806C46.2333 9.00254 44.2494 7.32638 41.8363 6.94423C40.2135 6.68676 38.5782 7.04138 37.2217 7.9217C36.2357 6.68418 34.8925 5.78382 33.3579 5.34693C32.891 5.21334 32.4048 5.48463 32.2719 5.95151C32.1389 6.41828 32.4097 6.90462 32.8765 7.03751C34.2951 7.44146 35.5018 8.36187 36.2743 9.62904C36.4095 9.851 36.6362 10.0016 36.893 10.0405C37.151 10.0798 37.4111 10.0026 37.606 9.83084C38.6918 8.87364 40.1332 8.45457 41.5613 8.68039C43.469 8.98262 45.0111 10.3878 45.4898 12.2604C45.5774 12.603 45.8617 12.8596 46.2114 12.912L46.2477 12.9167C47.5231 13.1188 48.6433 13.8053 49.4023 14.85C50.1614 15.8946 50.4682 17.1723 50.2661 18.4476C50.0858 19.5859 49.5025 20.6242 48.6241 21.3713C48.2822 21.6619 48.2143 22.1634 48.4662 22.5347C49.3124 23.7812 49.6487 25.2872 49.4129 26.7755C49.1661 28.3341 48.3269 29.7033 47.0503 30.6308C45.7736 31.5584 44.2118 31.9333 42.6535 31.6865C41.7066 31.5365 40.8252 31.1652 40.0669 30.6034C40.2703 30.2673 40.4419 29.9061 40.5748 29.5217C40.7334 29.0629 40.4898 28.5624 40.031 28.404C39.5721 28.2455 39.0717 28.4891 38.9133 28.9477C38.2997 30.7242 36.5039 31.8002 34.6463 31.5053C34.0871 31.4166 33.5658 31.2124 33.0973 30.8984C32.7444 30.6619 32.2729 30.7116 31.9771 31.0164C31.4108 31.6001 30.5952 31.8727 29.7941 31.7462C29.1548 31.645 28.5872 31.3043 28.1958 30.7873C27.9848 30.5084 27.6289 30.3807 27.2881 30.4635C26.8499 30.5696 26.4 30.5873 25.9515 30.5163C24.201 30.239 22.9405 28.6392 23.082 26.8743C23.1168 26.4408 22.8295 26.0471 22.406 25.9482C21.5377 25.7454 20.941 24.9508 20.9871 24.0591C21.0175 23.4709 21.3166 22.946 21.8075 22.6188C22.2114 22.3495 22.3206 21.8039 22.0515 21.4C21.7823 20.9961 21.2365 20.8871 20.8327 21.156C19.8886 21.7852 19.2902 22.8365 19.2316 23.9684C19.1544 25.4638 20.0029 26.8193 21.3183 27.4243C20.3433 28.2297 19.0925 28.5758 17.8277 28.3756C15.4246 27.995 13.7792 25.7302 14.1597 23.3272C14.2684 22.6415 14.5281 22.0092 14.9315 21.4475C15.1283 21.1736 15.1509 20.8113 14.9897 20.515C14.4409 19.5055 14.2459 18.3715 14.4257 17.2356C14.7702 15.0603 16.4581 13.3374 18.6257 12.9481C18.9863 12.8833 19.2689 12.6016 19.3349 12.2411C19.747 9.98612 21.9244 8.44367 24.1889 8.80192C24.6678 8.87762 25.1264 9.03301 25.5518 9.26341C25.9269 9.46661 26.3938 9.3711 26.6589 9.03688C27.3548 8.15995 28.2813 7.50205 29.338 7.13454C29.7964 6.97505 30.0386 6.47394 29.8793 6.0155C29.7196 5.55729 29.2191 5.31517 28.7602 5.4742C27.6098 5.87452 26.5781 6.53981 25.7422 7.41545C25.3315 7.25232 24.9036 7.13513 24.4638 7.06563C22.9019 6.81825 21.331 7.18587 20.0413 8.10171C18.9169 8.90012 18.1147 10.0372 17.7408 11.3463C15.117 12.0511 13.1201 14.2422 12.6895 16.9607C12.4767 18.3048 12.6558 19.6472 13.2073 20.8744C12.8099 21.5428 12.5469 22.273 12.4235 23.0522C11.892 26.4127 14.1928 29.5795 17.5533 30.1118ZM43.5947 33.5188C44.0441 33.5188 44.4896 33.4779 44.9278 33.3999C44.7135 34.206 44.2333 34.9087 43.5492 35.4057C42.7613 35.9781 41.7984 36.2096 40.836 36.0572C39.9586 35.9181 39.1636 35.4641 38.5975 34.7787C38.3912 34.529 38.0641 34.4128 37.7469 34.4767C37.4526 34.5359 37.1515 34.5419 36.852 34.4944C36.498 34.4383 36.1612 34.3071 35.8641 34.1133L35.6143 33.3004C36.8517 33.2226 38.0131 32.7386 38.9303 31.949C39.9351 32.717 41.1123 33.2222 42.3792 33.4229C42.7852 33.4871 43.1912 33.5188 43.5947 33.5188ZM32.7082 32.7041C33.0298 32.8674 33.3653 32.9983 33.7129 33.0966L35.8346 40.0013L33.0311 39.5573C32.6862 39.5025 32.39 39.2678 32.2583 38.9445L30.0508 33.5294C30.8406 33.5665 31.9036 33.2941 32.7082 32.7041Z" fill="#fc5e5e"/>
<path d="M38.1823 21.4013C37.8388 21.7443 37.8383 22.3007 38.1815 22.6442C38.5245 22.9878 39.081 22.9879 39.4244 22.645C40.6251 21.4158 41.6393 20.6911 41.8351 18.2335C41.833 15.2482 39.4463 12.8197 36.5148 12.8197C35.0817 12.8197 33.743 13.3876 32.7579 14.3794C31.773 13.3876 30.4346 12.8197 29.0019 12.8197C26.0679 12.8197 23.6808 15.2069 23.6807 18.1409C23.6805 19.5186 24.1718 20.7341 25.0991 21.6542L31.2444 27.7903C31.6617 28.2072 32.2097 28.4153 32.7578 28.4153C33.3058 28.4153 33.854 28.207 34.2712 27.7904L36.5122 25.5527C36.8557 25.2097 36.8562 24.6532 36.5132 24.3097C36.17 23.9662 35.6136 23.9657 35.2701 24.3087L33.0291 26.5466C32.8797 26.6958 32.6361 26.6959 32.4866 26.5465L26.3392 20.4082C25.7499 19.8235 25.4383 19.0395 25.4384 18.141C25.4385 16.1761 27.0371 14.5775 29.0018 14.5775C30.2302 14.5775 31.3559 15.2036 32.0128 16.2522C32.1735 16.5086 32.4549 16.6645 32.7576 16.6645C33.0603 16.6645 33.3415 16.5087 33.5023 16.2522C34.1594 15.2036 35.2855 14.5775 36.5144 14.5775C38.4442 14.5775 40.0756 16.2523 40.0769 18.2347C39.9845 19.8563 39.0436 20.5128 38.1823 21.4013Z" fill="#fc5e5e"/>
</g>
<defs>
<clipPath id="clip0_241_2015">
<rect width="60" height="60" fill="white"/>
</clipPath>
</defs>
</svg>
