<svg width="60" height="60" viewBox="0 0 60 60" fill="none" xmlns="http://www.w3.org/2000/svg">
<g clip-path="url(#clip0_241_2044)">
<path d="M38.832 8.26558C38.832 6.56262 37.7487 4.91836 36.1186 3.71719C35.7257 3.43207 35.6384 2.88246 35.9235 2.48965C36.2086 2.09684 36.7581 2.0093 37.151 2.29453C38.5222 3.30281 39.5608 4.54875 40.1029 5.8568C41.7305 9.39691 44.1304 17.841 44.1304 21.0253C44.1304 25.113 42.5315 29.6473 39.2446 34.8758C43.0817 39.0226 47.6186 43.7085 52.986 49.0703C53.151 49.235 53.2437 49.4585 53.2438 49.6916C53.2439 49.9247 53.1515 50.1483 52.9867 50.3132L43.5676 59.7421C43.396 59.9139 43.1708 59.9999 42.9458 59.9999C42.7211 59.9999 42.4963 59.9142 42.3246 59.7428C35.8153 53.2406 28.478 45.6629 23.4112 38.7609C22.8209 37.9568 22.266 37.168 21.746 36.3935C18.1023 40.3211 13.8791 44.6858 8.87838 49.6925L17.0551 57.8777C21.0874 53.8377 24.2427 50.5568 26.9441 47.5959C27.2713 47.2373 27.8272 47.212 28.1858 47.5391C28.5444 47.8663 28.5699 48.4222 28.2427 48.7808C25.3853 51.9127 22.0276 55.3959 17.6761 59.743C17.3326 60.086 16.7761 60.0858 16.4331 59.7424L7.01393 50.3134C6.67092 49.9699 6.67116 49.4135 7.01452 49.0704C12.4124 43.678 16.9137 39.0282 20.7585 34.8728C17.475 29.6343 15.8701 25.0761 15.8701 21.0253C15.8701 17.841 18.27 9.39691 19.8976 5.8568C20.4397 4.54875 21.4238 3.34254 22.795 2.33426C24.8126 0.850781 27.4388 0 30.0003 0C31.1632 0 32.3346 0.171562 33.4819 0.509883C33.9475 0.647109 34.2136 1.1359 34.0764 1.60148C33.9392 2.06707 33.4503 2.33285 32.9848 2.19598C31.999 1.90523 30.9948 1.75781 30.0003 1.75781C25.378 1.75781 21.1685 4.85965 21.1685 8.26558C21.1685 9.43887 21.5168 10.8376 22.2197 12.4723C24.5037 11.3645 27.1797 10.7812 30.0003 10.7812C32.8219 10.7812 35.4988 11.3648 37.7834 12.4736C38.4847 10.8405 38.832 9.44215 38.832 8.26558ZM19.8471 11.0599C18.6951 14.7081 17.6281 19.0897 17.6281 21.0253C17.6281 25.6601 19.9832 31.1211 24.8281 37.7207C29.6655 44.31 36.6421 51.5646 42.9454 57.8777L51.1221 49.6924C44.0884 42.6504 38.4982 36.7799 34.0479 31.763C33.7258 31.3998 33.759 30.8443 34.1222 30.5222C34.4855 30.2 35.0408 30.2333 35.363 30.5965C36.2035 31.5439 37.0848 32.5221 38.0096 33.5334C40.944 28.7681 42.3724 24.6695 42.3724 21.0253C42.3724 19.0909 41.3066 14.7131 40.1554 11.0664C39.1131 14.7071 36.176 19.45 31.1359 25.6734C31.66 26.3075 32.2055 26.9569 32.7716 27.6205C33.0866 27.9898 33.0427 28.5445 32.6734 28.8595C32.3042 29.1745 31.7494 29.1307 31.4344 28.7613C24.8241 21.0132 21.0597 15.2802 19.8471 11.0599ZM22.9751 14.0596C24.4272 16.8627 26.761 20.2568 30.0005 24.2817C33.2434 20.254 35.5773 16.8628 37.0285 14.061C34.98 13.0639 32.5622 12.5391 30.0003 12.5391C27.4395 12.5391 25.023 13.0635 22.9751 14.0596Z" fill="#fc5e5e"/>
</g>
<defs>
<clipPath id="clip0_241_2044">
<rect width="60" height="60" fill="white"/>
</clipPath>
</defs>
</svg>
