<svg width="60" height="60" viewBox="0 0 60 60" fill="none" xmlns="http://www.w3.org/2000/svg">
<g clip-path="url(#clip0_279_1099)">
<path d="M15 4.6875C9.31406 4.6875 4.6875 9.31406 4.6875 15H6.5625C6.5625 10.3472 10.3481 6.5625 15 6.5625V4.6875Z" fill="#fc5e5e"/>
<path d="M45 0.9375C39.3141 0.9375 34.6875 5.56406 34.6875 11.25C34.6875 13.2994 35.6325 15.1303 37.1091 16.335C34.3041 17.0362 31.8131 18.6581 30.0009 20.9709C28.2291 18.7172 25.74 17.0644 22.8769 16.3453C24.3609 15.1416 25.3125 13.305 25.3125 11.25C25.3125 5.56406 20.6859 0.9375 15 0.9375C7.24594 0.9375 0.9375 7.24594 0.9375 15V26.25C0.9375 34.0041 7.24594 40.3125 15 40.3125C20.6859 40.3125 25.3125 35.6859 25.3125 30C25.3125 29.0175 25.0894 28.0875 24.7003 27.2503C26.2228 28.6237 27.1875 30.6047 27.1875 32.8125V59.0625H29.0625V32.8125C29.0625 28.1156 25.5863 24.225 21.0722 23.5519C21.3928 22.6472 21.5625 21.6881 21.5625 20.7291V20.52C21.5625 19.6378 21.4097 18.7566 21.1378 17.9166C26.6569 18.6319 30.9375 23.3512 30.9375 29.0625V59.0625H32.8125V32.8125C32.8125 30.6047 33.7772 28.6237 35.2997 27.2503C34.9106 28.0875 34.6875 29.0175 34.6875 30C34.6875 35.6859 39.3141 40.3125 45 40.3125C52.7541 40.3125 59.0625 34.0041 59.0625 26.25V15C59.0625 7.24594 52.7541 0.9375 45 0.9375ZM19.6875 20.5209V20.73C19.6875 21.6675 19.4738 22.6022 19.0847 23.4553C18.9731 23.4487 18.8625 23.4375 18.75 23.4375H17.3569C17.6513 22.5656 17.8125 21.6478 17.8125 20.7291V20.52C17.8125 19.6012 17.6513 18.6834 17.3569 17.8116H18.75C18.8625 17.8116 18.9731 17.8003 19.0847 17.7947C19.4738 18.6488 19.6875 19.5834 19.6875 20.5209ZM15 38.4375C8.28 38.4375 2.8125 32.97 2.8125 26.25V15C2.8125 8.28 8.28 2.8125 15 2.8125C19.6519 2.8125 23.4375 6.59719 23.4375 11.25C23.4375 13.8347 21.3347 15.9375 18.75 15.9375H16.875C15.3244 15.9375 14.0625 14.6756 14.0625 13.125V10.3125H12.1875V13.125C12.1875 15.1163 13.4409 16.8103 15.1959 17.4881L15.2447 17.5856C15.6984 18.4922 15.9375 19.5075 15.9375 20.5209V20.73C15.9375 21.7434 15.6984 22.7588 15.2447 23.6653L15.1959 23.7628C13.4409 24.4397 12.1875 26.1337 12.1875 28.125V30.9375H14.0625V28.125C14.0625 26.5744 15.3244 25.3125 16.875 25.3125H18.75C21.3347 25.3125 23.4375 27.4153 23.4375 30C23.4375 34.6528 19.6519 38.4375 15 38.4375ZM42.6431 23.4375H41.25C41.1375 23.4375 41.0269 23.4487 40.9153 23.4544C40.5263 22.6012 40.3125 21.6666 40.3125 20.7291V20.52C40.3125 19.5825 40.5263 18.6478 40.9153 17.7947C41.0269 17.8013 41.1375 17.8125 41.25 17.8125H42.6431C42.3488 18.6844 42.1875 19.6022 42.1875 20.5209V20.73C42.1875 21.6478 42.3488 22.5656 42.6431 23.4375ZM32.6916 27.3731C32.4703 25.665 31.9256 24.06 31.1109 22.6219C32.9419 20.0072 35.7394 18.3056 38.8659 17.9053C38.5913 18.75 38.4375 19.6341 38.4375 20.5209V20.73C38.4375 21.6881 38.6072 22.6472 38.9278 23.5519C36.3628 23.9344 34.1381 25.3528 32.6916 27.3731ZM57.1875 26.25C57.1875 32.97 51.72 38.4375 45 38.4375C40.3481 38.4375 36.5625 34.6528 36.5625 30C36.5625 27.4153 38.6653 25.3125 41.25 25.3125H43.125C44.6756 25.3125 45.9375 26.5744 45.9375 28.125V30.9375H47.8125V28.125C47.8125 26.1337 46.5591 24.4397 44.8041 23.7619L44.7553 23.6644C44.3016 22.7578 44.0625 21.7425 44.0625 20.7291V20.52C44.0625 19.5066 44.3016 18.4912 44.7553 17.5847L44.8041 17.4872C46.5591 16.8103 47.8125 15.1163 47.8125 13.125V10.3125H45.9375V13.125C45.9375 14.6756 44.6756 15.9375 43.125 15.9375H41.25C38.6653 15.9375 36.5625 13.8347 36.5625 11.25C36.5625 6.59719 40.3481 2.8125 45 2.8125C51.72 2.8125 57.1875 8.28 57.1875 15V26.25Z" fill="#fc5e5e"/>
<path d="M45 34.6875V36.5625C50.6859 36.5625 55.3125 31.9359 55.3125 26.25H53.4375C53.4375 30.9028 49.6519 34.6875 45 34.6875Z" fill="#fc5e5e"/>
</g>
<defs>
<clipPath id="clip0_279_1099">
<rect width="60" height="60" fill="white"/>
</clipPath>
</defs>
</svg>
