<svg width="54" height="54" viewBox="0 0 54 54" fill="none" xmlns="http://www.w3.org/2000/svg">
<g clip-path="url(#clip0_279_1098)">
<path d="M51.1523 12.3744C51.1523 11.9374 50.7982 11.5834 50.3613 11.5834H3.63867C3.20182 11.5834 2.84766 11.9374 2.84766 12.3744V47.2032C2.84766 47.6402 3.20182 47.9942 3.63867 47.9942C4.07552 47.9942 4.42969 47.6402 4.42969 47.2032V13.1654H49.5703V46.4122H39.6625C40.5391 45.1103 40.279 43.0415 38.9997 41.9928L37.8809 41.0374C36.8835 40.1858 35.4661 39.9829 34.2695 40.5207L28.9992 42.8899C28.1695 43.2628 27.4841 43.8591 26.9999 44.5885C26.5157 43.8591 25.8304 43.2627 25.0007 42.8899L19.7303 40.5207C18.5341 39.9831 17.1164 40.186 16.119 41.0374L15.0002 41.9928C13.7731 43.0453 13.4109 44.9736 14.3374 46.4122H7.33356C6.89671 46.4122 6.54254 46.7663 6.54254 47.2032C6.54254 47.6402 6.89671 47.9942 7.33356 47.9942H50.3613C50.7982 47.9942 51.1523 47.6402 51.1523 47.2032V12.3744ZM17.2139 46.4122C16.5043 46.4122 15.8534 45.996 15.5556 45.3518C15.2134 44.6118 15.4076 43.7252 16.0276 43.1959L17.1464 42.2406C17.4823 41.9537 17.907 41.8042 18.3355 41.8042C18.5889 41.8042 18.8435 41.8565 19.0817 41.9637L24.3522 44.3328C25.2332 44.7288 25.8707 45.503 26.1077 46.4122H17.2139ZM27.8923 46.4122C28.1293 45.503 28.7668 44.7288 29.6478 44.3328L34.9182 41.9637C35.5593 41.6754 36.319 41.7841 36.8536 42.2406L37.9724 43.1959C38.5924 43.7253 38.7866 44.6119 38.4444 45.3518C38.1466 45.9959 37.4957 46.4122 36.7861 46.4122H27.8923Z" fill="#fc5e5e"/>
<path d="M51.5933 8.73566H47.6076C47.1708 8.73566 46.8166 9.08972 46.8166 9.52668C46.8166 9.96363 47.1708 10.3177 47.6076 10.3177H51.5933C52.0481 10.3177 52.418 10.6877 52.418 11.1424V51.3608C52.418 51.7982 52.062 52.1542 51.6245 52.1542H24.021C23.5038 52.1542 23.018 51.9013 22.7216 51.4775L21.4058 49.5972C21.2579 49.3856 21.0159 49.2597 20.7577 49.2597H2.40669C1.95191 49.2597 1.58203 48.8897 1.58203 48.4351V11.1424C1.58203 10.6876 1.95202 10.3177 2.40669 10.3177H43.9028C44.3397 10.3177 44.6939 9.96363 44.6939 9.52668C44.6939 9.08972 44.3397 8.73566 43.9028 8.73566H31.124V5.69436H49.5385C50.4284 5.69436 51.1525 4.97032 51.1525 4.08038V1.87766C51.1523 0.987715 50.4283 0.263672 49.5384 0.263672H4.46165C3.5717 0.263672 2.84766 0.987715 2.84766 1.87766V4.08048C2.84766 4.97043 3.5717 5.69447 4.46165 5.69447H22.8761V8.73577H2.40669C1.07968 8.73566 0 9.81524 0 11.1424V48.4351C0 49.7622 1.07968 50.8417 2.40669 50.8417H20.3458L21.4253 52.3845C22.0176 53.2309 22.9879 53.7362 24.021 53.7362H51.6244C52.9342 53.7362 53.9999 52.6706 53.9999 51.3608V11.1424C54 9.81524 52.9203 8.73566 51.5933 8.73566ZM4.42969 4.08038V1.87766C4.42969 1.86005 4.44403 1.8457 4.46165 1.8457H49.5385C49.5561 1.8457 49.5704 1.86005 49.5704 1.87766V4.08048C49.5704 4.09809 49.5561 4.11244 49.5385 4.11244H4.46165C4.44403 4.11233 4.42969 4.09799 4.42969 4.08038ZM24.458 5.69436H29.5419V8.73566H24.458V5.69436Z" fill="#fc5e5e"/>
<path d="M39.7344 49.2598C39.2975 49.2598 38.9434 49.6138 38.9434 50.0508C38.9434 50.4877 39.2975 50.8418 39.7344 50.8418H47.2651C47.7019 50.8418 48.0561 50.4877 48.0561 50.0508C48.0561 49.6138 47.7019 49.2598 47.2651 49.2598H39.7344Z" fill="#fc5e5e"/>
<path d="M13.9514 29.9013C14.5008 30.4519 15.1974 30.8026 15.9532 30.9175C15.7972 31.28 15.7132 31.6739 15.7132 32.0778C15.7132 33.6963 17.03 35.013 18.6485 35.013H21.9146C22.3515 35.013 22.7057 34.6589 22.7057 34.222C22.7057 33.785 22.3515 33.4309 21.9146 33.4309H18.6485C17.9023 33.4309 17.2952 32.8239 17.2952 32.0778C17.2952 31.6862 17.4646 31.3142 17.7599 31.0571C18.0551 30.7999 18.4469 30.6837 18.8347 30.7374L24.6738 31.5491V36.8907L22.4867 36.6192C22.0524 36.5651 21.658 36.8731 21.6042 37.3067C21.5505 37.7402 21.8582 38.1353 22.2918 38.1891L24.6738 38.4848V39.8123C24.6738 41.0949 25.7173 42.1384 26.9998 42.1384C28.2823 42.1384 29.3258 41.0949 29.3258 39.8123V38.4849L31.7088 38.1891C32.1423 38.1353 32.4501 37.7402 32.3963 37.3067C32.3425 36.8732 31.9481 36.5661 31.5139 36.6192L29.3259 36.8908V31.5491L35.1655 30.7374C35.5533 30.6835 35.945 30.7999 36.2404 31.0571C36.5357 31.3142 36.7051 31.6862 36.7051 32.0778C36.7051 32.8239 36.098 33.4309 35.3518 33.4309H32.0856C31.6488 33.4309 31.2946 33.785 31.2946 34.222C31.2946 34.6589 31.6488 35.013 32.0856 35.013H35.3518C36.9703 35.013 38.2871 33.6963 38.2871 32.0778C38.2871 31.6738 38.2031 31.2799 38.047 30.9175C38.8027 30.8026 39.4991 30.4521 40.0477 29.9024C40.7299 29.2216 41.1057 28.3151 41.1057 27.3501C41.1057 26.4896 40.7986 25.665 40.2502 25.0175C40.8034 24.3662 41.1057 23.5493 41.1057 22.6853C41.1057 21.6412 40.654 20.649 39.8664 19.9632C39.0786 19.2774 38.0339 18.9665 36.9995 19.11L29.3259 20.1767V17.9129C29.3259 16.6303 28.2824 15.5868 26.9999 15.5868C25.7174 15.5868 24.6739 16.6303 24.6739 17.9129V20.1767L17.0006 19.1101C15.9665 18.9667 14.9216 19.2775 14.1339 19.9633C13.3463 20.6491 12.8945 21.6412 12.8945 22.6854C12.8945 23.5493 13.1969 24.3664 13.7501 25.0175C13.2017 25.665 12.8945 26.4895 12.8945 27.3501C12.8945 28.3151 13.2703 29.2215 13.9514 29.9013ZM19.0526 29.1704C18.5199 29.0964 17.9836 29.1711 17.4991 29.3774H16.5047C15.9623 29.3774 15.4532 29.1665 15.07 28.7826C14.6873 28.4006 14.4765 27.8919 14.4765 27.3501C14.4765 26.7631 14.7304 26.2054 15.1731 25.8201C15.6154 25.4353 16.2019 25.2606 16.7828 25.3419L24.6737 26.4378V29.9517L19.0526 29.1704ZM27.7439 34.9146C27.1338 35.1218 26.595 35.0284 26.2559 34.9166V31.9074C26.4864 31.9528 26.7422 31.9828 27.018 31.9828C27.2475 31.9828 27.491 31.9607 27.744 31.9114V34.9146H27.7439ZM27.7439 30.2765C27.1338 30.4836 26.5949 30.3903 26.2559 30.2784V26.5377C26.4864 26.5831 26.7422 26.613 27.018 26.613C27.2475 26.613 27.491 26.591 27.744 26.5416V30.2765H27.7439ZM27.7439 24.9067C27.1338 25.1139 26.595 25.0205 26.2559 24.9088V22.072C26.4864 22.1173 26.7422 22.1473 27.018 22.1473C27.2475 22.1473 27.491 22.1252 27.744 22.0759V24.9067H27.7439ZM26.9999 40.5565C26.5896 40.5565 26.2559 40.2227 26.2559 39.8124V36.5455C26.4864 36.5909 26.7422 36.6208 27.018 36.6208C27.2475 36.6208 27.491 36.5988 27.744 36.5494V39.8124C27.7439 40.2227 27.4102 40.5565 26.9999 40.5565ZM38.929 28.7838C38.547 29.1665 38.0379 29.3774 37.4955 29.3774H36.5012C36.0168 29.1713 35.4806 29.0965 34.9477 29.1704L29.326 29.9518V26.4379L37.2178 25.3418C37.798 25.261 38.3847 25.4353 38.8271 25.8201C39.2698 26.2053 39.5237 26.763 39.5237 27.3501C39.5237 27.8919 39.313 28.4006 38.929 28.7838ZM37.2173 20.6771C37.798 20.5966 38.385 20.7711 38.8275 21.1565C39.2699 21.5417 39.5237 22.0991 39.5237 22.6854C39.5237 23.2006 39.3308 23.6853 38.9821 24.0614C38.3677 23.7838 37.6816 23.6799 36.9996 23.775L29.3259 24.8407V21.7741L37.2173 20.6771ZM26.9999 17.1689C27.4102 17.1689 27.7439 17.5027 27.7439 17.913V20.441C27.1338 20.6482 26.595 20.5548 26.2559 20.443V17.913C26.2559 17.5027 26.5896 17.1689 26.9999 17.1689ZM15.1728 21.1565C15.6153 20.7712 16.2022 20.5961 16.783 20.6771L24.6739 21.774V24.8406L17.0011 23.775C16.319 23.6795 15.6327 23.7835 15.0181 24.0613C14.6696 23.6853 14.4766 23.2006 14.4766 22.6853C14.4766 22.099 14.7303 21.5418 15.1728 21.1565Z" fill="#fc5e5e"/>
<path d="M45.7589 14.9103C45.3221 14.9103 44.9679 15.2643 44.9679 15.7013V16.1604H44.5088C44.0719 16.1604 43.7178 16.5145 43.7178 16.9514C43.7178 17.3884 44.0719 17.7424 44.5088 17.7424H44.9679V18.2015C44.9679 18.6385 45.3221 18.9926 45.7589 18.9926C46.1958 18.9926 46.5499 18.6385 46.5499 18.2015V17.7424H47.009C47.4459 17.7424 47.8 17.3884 47.8 16.9514C47.8 16.5145 47.4459 16.1604 47.009 16.1604H46.5499V15.7013C46.5499 15.2644 46.1958 14.9103 45.7589 14.9103Z" fill="#fc5e5e"/>
<path d="M50.3613 50.842C50.7982 50.842 51.1523 50.4879 51.1523 50.051C51.1523 49.6142 50.7982 49.26 50.3613 49.26C49.9245 49.26 49.5703 49.6142 49.5703 50.051C49.5703 50.4879 49.9245 50.842 50.3613 50.842Z" fill="#fc5e5e"/>
<path d="M24.9751 50.842C25.412 50.842 25.7661 50.4879 25.7661 50.051C25.7661 49.6142 25.412 49.26 24.9751 49.26C24.5382 49.26 24.1841 49.6142 24.1841 50.051C24.1841 50.4879 24.5382 50.842 24.9751 50.842Z" fill="#fc5e5e"/>
<path d="M28.02 50.842C28.4569 50.842 28.811 50.4879 28.811 50.051C28.811 49.6142 28.4569 49.26 28.02 49.26C27.5832 49.26 27.229 49.6142 27.229 50.051C27.229 50.4879 27.5832 50.842 28.02 50.842Z" fill="#fc5e5e"/>
<path d="M31.0649 50.842C31.5018 50.842 31.856 50.4879 31.856 50.051C31.856 49.6142 31.5018 49.26 31.0649 49.26C30.6281 49.26 30.2739 49.6142 30.2739 50.051C30.2739 50.4879 30.6281 50.842 31.0649 50.842Z" fill="#fc5e5e"/>
</g>
<defs>
<clipPath id="clip0_279_1098">
<rect width="54" height="54" fill="white"/>
</clipPath>
</defs>
</svg>
