<svg width="60" height="60" viewBox="0 0 60 60" fill="none" xmlns="http://www.w3.org/2000/svg">
<g clip-path="url(#clip0_241_2028)">
<path d="M14.7305 14.7649C14.0836 14.7649 13.5586 15.2899 13.5586 15.9368C13.5586 16.5836 14.0836 17.1086 14.7305 17.1086C15.3773 17.1086 15.9023 16.5836 15.9023 15.9368C15.9023 15.2899 15.3773 14.7649 14.7305 14.7649Z" fill="#fc5e5e"/>
<path d="M25.2768 36.6779H21.7614V33.1625C21.7614 32.5154 21.2366 31.9906 20.5895 31.9906C19.9424 31.9906 19.4177 32.5154 19.4177 33.1625V36.6779H15.9023C15.2552 36.6779 14.7305 37.2026 14.7305 37.8496C14.7305 38.4966 15.2552 39.0215 15.9023 39.0215H19.4177V42.5369C19.4177 43.184 19.9425 43.7088 20.5895 43.7088C21.2365 43.7088 21.7614 43.184 21.7614 42.5369V39.0215H25.2768C25.9239 39.0215 26.4486 38.4967 26.4486 37.8496C26.4486 37.2025 25.924 36.6779 25.2768 36.6779Z" fill="#fc5e5e"/>
<path d="M56.9036 37.7325C54.3131 33.2459 48.5855 31.7104 44.098 34.3014L39.3381 37.0494V26.8733C39.3381 25.6153 38.9221 24.3669 38.1663 23.3579L32.3073 15.5461V12.2196C33.6711 11.7359 34.6509 10.4334 34.6509 8.90566V3.51539C34.6507 1.57699 33.0737 0 31.1353 0H10.0426C8.10422 0 6.52711 1.57699 6.52711 3.51539V8.90578C6.52711 10.4333 7.50691 11.736 8.87074 12.2197V15.5462L3.01125 23.3585C2.25586 24.367 1.83984 25.6153 1.83984 26.8733V49.5679C1.83984 52.7986 4.46824 55.4269 7.69887 55.4269H26.5311C29.1586 59.8311 34.8241 61.3051 39.2652 58.7408L53.4725 50.538C57.9204 47.9695 59.507 42.2436 56.9036 37.7325ZM8.87074 3.51539C8.87074 2.86922 9.39645 2.34352 10.0425 2.34352H31.1352C31.7814 2.34352 32.3071 2.86922 32.3071 3.51539V8.90578C32.3071 9.55195 31.7814 10.0775 31.1352 10.0775H10.0426C9.39644 10.0775 8.87086 9.55184 8.87086 8.90578L8.87074 3.51539ZM4.88672 24.7639L10.98 16.6398C11.1321 16.4371 11.2144 16.1903 11.2144 15.9367V12.4213H29.9634V14.7649H19.4171C18.77 14.7649 18.2453 15.2897 18.2453 15.9368C18.2453 16.5839 18.77 17.1087 19.4171 17.1087H30.5494L36.2907 24.7636C36.666 25.2646 36.8991 25.864 36.9695 26.4832H4.20844C4.27875 25.8639 4.51184 25.2645 4.88672 24.7639ZM7.69898 53.0832C5.76059 53.0832 4.18359 51.5063 4.18359 49.5679V48.3844H25.4736C25.102 49.9037 25.1045 51.5265 25.53 53.0834H7.69898V53.0832ZM26.3927 46.0523H4.18348V28.8266H36.9943V38.4023L29.8905 42.5041C28.4094 43.3597 27.2122 44.5777 26.3927 46.0523ZM38.0936 56.7111C34.7306 58.653 30.4334 57.5046 28.4902 54.1393C26.5377 50.7416 27.7209 46.4638 31.0627 44.5336L37.4232 40.8612L44.4541 53.0387L38.0936 56.7111ZM52.3007 48.5085L46.4838 51.867L39.4528 39.6892L45.2698 36.3311C48.6349 34.3883 52.9307 35.5387 54.8739 38.9041C56.8256 42.2864 55.6387 46.5809 52.3007 48.5085Z" fill="#fc5e5e"/>
</g>
<defs>
<clipPath id="clip0_241_2028">
<rect width="60" height="60" fill="white"/>
</clipPath>
</defs>
</svg>
