<svg width="50" height="50" viewBox="0 0 50 50" fill="none" xmlns="http://www.w3.org/2000/svg">
<g clip-path="url(#clip0_449_1048)">
<path d="M31.0933 26.0156C31.0933 25 31.4839 24.0625 32.187 23.3594C32.4995 23.0469 32.4995 22.5781 32.187 22.2656C31.8745 21.9531 31.4058 21.9531 31.0933 22.2656C30.0777 23.2031 29.5308 24.6094 29.5308 26.0156C29.5308 26.875 29.7652 27.7344 30.1558 28.5156C30.8589 29.8438 31.2495 31.4062 31.2495 32.8906C31.2495 34.375 30.8589 35.9375 30.1558 37.2656L29.1402 39.0625C28.5933 40.0781 28.7495 41.4062 29.5308 42.1875C29.687 42.3438 29.7652 42.6562 29.8433 42.8906L28.9058 48.2812C28.8277 48.6719 29.1402 49.1406 29.5308 49.2188C29.9995 49.2969 30.3902 48.9844 30.4683 48.5938C30.4683 48.5938 31.4058 43.125 31.4058 43.0469C31.4058 42.3437 31.1714 41.7187 30.7027 41.25C30.3902 40.8594 30.312 40.3125 30.5464 39.8438L31.562 38.0469C32.4214 36.4844 32.812 34.6875 32.812 32.8906C32.812 31.0937 32.3433 29.375 31.562 27.7344C31.2495 27.2656 31.0933 26.6406 31.0933 26.0156Z" fill="#fc5e5e"/>
<path d="M46.5625 2.03125C44.9219 0.859375 42.8125 0.625 40.9375 1.25L34.0625 3.75C33.8281 3.82813 33.5156 3.82812 33.2812 3.67187C31.0156 1.79687 28.0469 0.78125 25 0.78125C24.5312 0.78125 24.2188 1.09375 24.2188 1.5625C24.2188 2.03125 24.5312 2.34375 25 2.34375C27.6562 2.34375 30.3125 3.28125 32.3438 4.92188C32.9688 5.39062 33.8281 5.54688 34.6094 5.3125L41.4844 2.8125C42.8906 2.26562 44.4531 2.5 45.7031 3.35938C46.9531 4.21875 47.6562 5.625 47.6562 7.10938C47.6562 8.82812 46.7188 10.4688 45.0781 11.25L43.3594 12.1094C42.6562 12.4219 42.8906 13.2812 42.8906 13.2812C42.8906 14.1406 42.1875 14.8438 41.4062 15C40.2344 15.1563 39.7656 13.9063 39.7656 13.4375V10.3125C39.7656 9.92188 40.1563 8.82812 41.3281 8.75C41.9531 8.75 42.5781 9.14062 42.8125 9.6875C43.125 10.5469 44.2969 9.92188 44.2969 9.92188C45.3906 9.375 46.1719 8.35938 46.0938 7.1875C45.9375 4.21875 42.9688 3.90625 42.0312 4.29688L36.25 6.40625C35.0781 6.79688 34.4531 8.04688 34.7656 9.21875C35.7031 12.8906 35.1562 16.7188 33.2031 19.8438C32.9688 20.2344 33.125 20.7031 33.4375 20.9375C33.75 21.1719 34.375 20.9375 34.5313 20.7031C36.7188 17.2656 37.3438 12.8906 36.3281 8.82812C36.25 8.4375 36.4844 8.04688 36.875 7.89063L42.6562 5.78125C43.0469 5.54688 44.375 5.46875 44.5312 7.10938C44.5312 7.57813 44.2969 7.96875 43.8281 8.28125C43.2812 7.5 42.3438 7.03125 41.4062 7.10938C38.9844 7.26563 38.2812 9.375 38.2812 10.2344V13.3594C38.2812 14.2188 38.8281 16.4062 41.5625 16.4844C43.2031 16.5625 44.5312 15 44.5312 13.2812L45.7812 12.6563C47.8906 11.6406 49.2188 9.53125 49.2188 7.10938C49.2188 5.07813 48.2031 3.20312 46.5625 2.03125Z" fill="#fc5e5e"/>
<path d="M10.9375 12.422C10.4688 12.422 10.1562 12.7345 10.1562 13.2032C10.1562 14.0626 9.53125 14.922 8.67188 14.922C7.26563 14.922 7.03125 13.8282 7.03125 13.3595C7.03125 13.3595 7.26562 12.3438 6.5625 12.0313L4.84375 11.172C3.28125 10.3907 2.26563 8.82821 2.26563 7.03133C2.26563 5.54696 2.96875 4.14071 4.21875 3.28133C5.46875 2.42196 7.03125 2.18758 8.4375 2.73446L15.3125 5.23446C16.0938 5.54696 16.9531 5.39071 17.5781 4.84383C18.9062 3.90633 20.3125 3.20321 21.875 2.73446C22.2656 2.65633 22.5 2.18758 22.4219 1.79696C22.3438 1.40633 21.875 1.17196 21.4844 1.25008C19.7656 1.71883 18.125 2.57821 16.7188 3.67196C16.4844 3.82821 16.25 3.90633 15.9375 3.75008L9.0625 1.25008C7.1875 0.625085 5.07812 0.859459 3.4375 2.03133C1.79688 3.20321 0.78125 5.07821 0.78125 7.10946C0.78125 9.45321 2.10938 11.5626 4.21875 12.6563L5.46875 13.2813C5.46875 13.2813 5.46875 16.4845 8.75 16.4845C10.3906 16.4845 11.7188 15.0001 11.7188 13.2032C11.7188 12.8126 11.4062 12.422 10.9375 12.422Z" fill="#fc5e5e"/>
<path d="M18.9844 37.4219C19.375 37.2657 19.6094 36.7969 19.375 36.4063C18.2813 33.8282 18.4375 30.9376 19.7656 28.5157C20.1562 27.7344 20.3906 26.8751 20.3906 26.0157C20.3906 24.5313 19.8438 23.2032 18.8281 22.2657C16.25 19.9219 14.7656 16.4063 14.7656 12.6563C14.7656 11.4844 14.9219 10.3126 15.2344 9.21882C15.5469 8.04694 14.9219 6.79694 13.75 6.40632L7.96875 4.29694C6.64062 3.67194 3.90625 4.29694 3.90625 7.18757C3.90625 8.28132 4.60938 9.37507 5.70313 9.92194C5.70313 9.92194 6.79688 10.5469 7.1875 9.68757C7.42188 9.14069 7.96875 8.67194 8.67188 8.75007C9.84375 8.75007 10.2344 9.92194 10.2344 10.3126C10.2344 10.7813 10.5469 11.0938 11.0156 11.0938C11.4844 11.0938 11.7969 10.7813 11.7969 10.3126C11.7969 9.45319 11.0156 7.26569 8.67188 7.18757C7.65625 7.18757 6.79688 7.65632 6.17188 8.35944C5.70313 8.04694 5.46875 7.57819 5.46875 7.10944C5.46875 6.64069 5.9375 5.31257 7.42188 5.70319L13.2813 7.81257C13.6719 7.96882 13.9063 8.35944 13.8281 8.75007C13.5156 10.0001 13.3594 11.2501 13.3594 12.5782C13.3594 16.7188 15 20.6251 17.8906 23.2813C18.5938 23.9063 18.9844 24.9219 18.9844 25.9376C18.9844 26.5626 18.8281 27.1876 18.5156 27.7344C16.9531 30.6251 16.7969 33.9844 18.0469 36.9532C18.125 37.3438 18.4375 37.6563 18.9844 37.4219Z" fill="#fc5e5e"/>
<path d="M20.8594 39.1406C20.625 38.75 20.1562 38.5938 19.7656 38.8281C19.375 39.0625 19.2188 39.5313 19.4531 39.8438C19.5313 40 19.7656 40.625 19.2969 41.25C18.9063 41.7969 18.5938 42.4219 18.5938 43.0469C18.5938 43.125 19.5313 48.5938 19.5313 48.5938C19.6094 48.9844 19.9219 49.2969 20.4688 49.2188C20.8594 49.1406 21.1719 48.75 21.0938 48.2813L20.1562 42.9688C20.1562 42.6563 20.2344 42.4219 20.4688 42.2656C20.9375 41.7188 21.4844 40.3906 20.8594 39.1406Z" fill="#fc5e5e"/>
<path d="M23.7501 41.4845C23.047 37.8126 22.8907 34.0626 23.4376 30.3907C23.9845 26.797 23.5939 23.2032 22.3439 19.7657C22.1876 19.3751 21.7189 19.1407 21.3282 19.297C20.9376 19.4532 20.7032 19.922 20.8595 20.3126C22.0314 23.4376 22.3439 26.8751 21.8751 30.1564C21.3282 33.9845 21.4064 37.8907 22.1876 41.7189L22.6564 48.4376C22.6564 48.8282 22.9689 49.1407 23.5157 49.1407C23.9845 49.1407 24.297 48.7501 24.2189 48.2814C24.2189 48.3595 23.7501 41.5626 23.7501 41.4845Z" fill="#fc5e5e"/>
<path d="M20.7814 17.8907C21.172 17.7345 21.4064 17.2657 21.2501 16.8751L20.7032 15.4689C20.547 15.0782 20.0782 14.8439 19.6876 15.0001C19.297 15.1564 19.0626 15.6251 19.2189 16.0157L19.7657 17.422C19.922 17.7345 20.3907 18.047 20.7814 17.8907Z" fill="#fc5e5e"/>
<path d="M29.1409 20.3906L33.594 8.20312C33.6721 7.89062 33.594 7.57812 33.4377 7.42188C31.094 5.07812 28.1252 3.90625 25.0002 3.90625C21.8752 3.90625 18.9065 5.15625 16.6409 7.34375C16.4065 7.57812 16.3284 7.89062 16.4846 8.125L18.2034 12.7344C18.3596 13.125 18.8284 13.3594 19.219 13.2031C19.6096 13.0469 19.844 12.5781 19.6877 12.1875L18.2034 8.04688C20.0002 6.40625 22.4221 5.46875 25.0002 5.46875C27.5784 5.46875 30.0002 6.40625 31.8752 8.125L27.5784 19.8438C26.3284 23.2031 25.9377 26.875 26.4846 30.4688C27.0315 34.1406 26.8752 37.8906 26.1721 41.5625L25.7034 48.4375C25.7034 48.9062 26.0159 49.2969 26.4065 49.2969C26.719 49.2969 27.1877 48.9844 27.2659 48.5938L27.7346 41.875C28.5159 38.0469 28.594 34.2188 28.0471 30.3125C27.5784 26.875 27.969 23.5156 29.1409 20.3906Z" fill="#fc5e5e"/>
</g>
<defs>
<clipPath id="clip0_449_1048">
<rect width="50" height="50" fill="white"/>
</clipPath>
</defs>
</svg>
