<svg width="50" height="50" viewBox="0 0 50 50" fill="none" xmlns="http://www.w3.org/2000/svg">
<path d="M37.4143 20.1117C38.1257 18.8203 37.6538 17.1911 36.3624 16.4797C35.6302 16.0765 34.7374 16.0406 33.974 16.3838L34.5716 17.7123C34.9245 17.5536 35.321 17.5693 35.6595 17.7557C36.2472 18.0795 36.4621 18.8212 36.1383 19.4089C35.8145 19.9967 35.0729 20.2116 34.4851 19.8877L33.7822 21.1637C34.1902 21.3884 34.6319 21.495 35.0678 21.495C36.0114 21.4949 36.9276 20.9951 37.4143 20.1117Z" fill="#fc5e5e"/>
<path d="M21.0928 4.81445L21.3725 6.2441C22.3876 6.0455 23.431 5.94479 24.4734 5.94479C26.2 5.94479 27.9 6.21662 29.5262 6.7527L29.9823 5.36918C28.2085 4.78444 26.355 4.48804 24.4733 4.48804C23.3373 4.48794 22.1999 4.59778 21.0928 4.81445Z" fill="#fc5e5e"/>
<path d="M32.0921 7.85544L32.782 6.57243C32.3347 6.33178 31.8717 6.10851 31.4061 5.90845L30.8311 7.24681C31.2578 7.43017 31.6821 7.63499 32.0921 7.85544Z" fill="#fc5e5e"/>
<path d="M50 4.89064C50 2.26053 47.8603 0.12085 45.2302 0.12085C44.1778 0.12085 43.1786 0.458913 42.3551 1.08415C41.5315 0.458913 40.5324 0.12085 39.4799 0.12085C37.1462 0.12085 35.1999 1.80602 34.7906 4.0232C31.6586 2.22741 28.1171 1.28314 24.4734 1.28314C17.3181 1.28314 10.7553 4.89511 6.91802 10.9453L8.1482 11.7254C8.87842 10.5741 9.71634 9.51942 10.6419 8.56729C10.6371 9.09415 10.7074 9.62645 10.9286 10.042C12.0646 12.1743 14.4815 11.9212 16.2464 11.7362C16.689 11.6898 17.1072 11.646 17.4582 11.6418L17.5376 11.6366C21.1602 11.1952 22.3395 12.1786 22.691 13.0812C23.1008 14.1338 22.5765 16.4317 21.0933 17.9071C20.3688 16.9432 19.1861 16.3656 17.9361 16.4481L14.5004 16.5744L12.6617 15.3901C12.0771 15.0135 11.357 15.0235 10.7828 15.4157C10.2124 15.8053 9.94136 16.4659 10.073 17.1427L10.9123 22.1738L14.8592 22.1997L14.7803 23.2465C13.3014 22.4949 11.6197 22.6912 10.7839 23.8044C9.81958 25.0892 10.3415 27.1152 11.9473 28.3209C12.7169 28.8985 13.5975 29.1846 14.4126 29.1846C14.7366 29.1846 15.0499 29.1389 15.342 29.0487C15.5695 29.6507 15.8514 30.2425 16.1872 30.8156C16.5724 31.4729 17.0772 32.0627 17.6771 32.5623L17.129 32.7756C13.6674 30.7766 10.7886 31.1806 8.96252 31.8899C8.64864 32.0118 8.35641 32.1466 8.08449 32.2869C6.16672 29.2221 5.15622 25.7001 5.15622 22.057C5.15622 18.8766 5.9453 15.7242 7.43837 12.9406L6.15458 12.252C4.54847 15.2467 3.69947 18.6371 3.69947 22.057C3.69947 25.9722 4.78504 29.7578 6.84537 33.053C6.43914 33.3499 6.13497 33.622 5.94297 33.8077H0V35.2644H6.24966L6.57792 35.2627L6.79517 35.0186C6.95706 34.8369 10.8251 30.6105 16.6811 34.2041L16.9892 34.3932L22.2885 32.3308C22.7239 32.1613 23.1979 32.1746 23.6233 32.3678C24.0486 32.5611 24.3703 32.9094 24.529 33.3489L25.2309 34.8643L14.9873 39.2073L15.5559 40.5486L16.9107 39.9743L26.2658 42.6195L30.7404 39.899L29.9835 38.6544L26.0514 41.045L19.0527 39.066L27.1878 35.6169L26.3974 33.9183C27.1881 33.6887 27.9684 33.379 28.7266 32.9902L28.7489 32.9783C33.0823 30.563 34.2562 26.6452 34.5351 25.3419C40.1429 22.9722 40.9858 19.5126 40.9815 17.6362C40.9752 14.8628 39.1322 12.2023 36.4999 11.1662C34.8518 10.5174 32.9847 10.5239 31.2428 11.1841C29.5265 11.8345 28.0366 13.0799 27.0475 14.6909C25.5847 17.0734 25.5931 19.4227 27.0447 21.5871L25.9081 21.1506C24.6051 20.4624 23.1667 20.9179 22.2631 21.3626L21.7323 19.2908C22.5127 18.6096 23.2328 17.6153 23.7106 16.5403C24.3605 15.0781 24.4805 13.662 24.0486 12.5528C23.5115 11.1731 21.9213 9.64529 17.4005 10.1859C16.9936 10.1933 16.5566 10.2392 16.0948 10.2875C14.2176 10.4842 12.8407 10.5326 12.2146 9.35714C11.984 8.92429 12.1362 7.76113 12.3233 7.03013C15.7091 4.28434 19.9642 2.7399 24.4734 2.7399C28.1457 2.7399 31.7062 3.77079 34.7905 5.72323C35.4663 9.27353 40.2183 12.3263 41.6236 13.1593C43.0411 15.8861 43.7906 18.962 43.7906 22.057C43.7906 26.7077 42.1309 31.1607 39.1059 34.6669C38.2843 34.2532 37.2808 34.2498 36.4211 34.7408L31.2529 37.8827L32.0097 39.1273L37.1513 36.0013C37.7987 35.6368 38.6112 35.8444 39.0044 36.4762C39.3979 37.1085 39.2238 37.9318 38.6082 38.3509L38.5818 38.3689L26.3574 48.3652L8.65884 46.4556L8.61989 46.4514H0V47.9081H8.54132L26.8072 49.879L39.4559 39.5358C40.6968 38.6698 41.0428 36.9948 40.2411 35.7066C40.2261 35.6823 40.21 35.659 40.1943 35.6354C43.457 31.862 45.2473 27.0662 45.2473 22.0571C45.2473 18.9527 44.545 15.8658 43.213 13.0838C44.879 12.08 50 8.68587 50 4.89064ZM12.8221 27.1559C11.8749 26.4448 11.4751 25.3105 11.9492 24.6791C12.1673 24.3885 12.5394 24.2458 12.9699 24.2458C13.4748 24.2458 14.06 24.4421 14.5712 24.8259C15.5185 25.537 15.9183 26.6713 15.4442 27.3028C14.9702 27.9343 13.7694 27.8671 12.8221 27.1559ZM25.2522 22.452L25.2959 22.4761L29.5251 24.1002L29.9969 22.6513L29.6427 22.3346C27.2191 20.1677 26.7764 17.9168 28.2891 15.4532C29.1104 14.1156 30.3427 13.0832 31.7591 12.5464C33.1619 12.0147 34.6561 12.0062 35.9664 12.5218C38.0235 13.3315 39.5199 15.4838 39.5249 17.6396C39.5309 20.2707 37.4973 22.5494 33.7952 24.0709L31.9644 23.8169L31.7642 25.2597L33.0119 25.4329C32.6417 26.7883 31.4672 29.7904 28.0508 31.6996C27.3123 32.0773 26.5521 32.3705 25.7836 32.5774C25.4639 31.8965 24.92 31.357 24.226 31.0417C23.4403 30.6845 22.5646 30.6605 21.7602 30.9734L19.297 31.932C18.5099 31.4551 17.8865 30.8338 17.4442 30.0791C17.0885 29.472 16.8018 28.843 16.5872 28.2048C16.5943 28.1955 16.6021 28.1867 16.6093 28.1773C17.412 27.1081 17.1843 25.5256 16.1598 24.3297L16.4293 20.7532L12.1479 20.7251L11.5084 16.8921L11.5039 16.8674C11.476 16.73 11.5552 16.6526 11.6049 16.6186C11.6546 16.5847 11.7554 16.5391 11.8733 16.615L14.0969 18.047L18.0014 17.9035L18.0254 17.9022C19.0422 17.831 19.9854 18.4876 20.2732 19.4641L21.5123 24.6906C21.8876 26.5012 23.4957 27.7895 25.3195 27.7895C25.4161 27.7895 27.5671 27.6315 27.5671 27.6315L27.4579 26.1789L25.5018 26.326C24.2878 26.4167 23.1859 25.5871 22.9388 24.3949L22.614 22.8285C23.207 22.4919 24.3748 21.9688 25.2522 22.452ZM45.3618 9.76416C44.1575 10.7804 42.9365 11.5507 42.3549 11.8982C41.7768 11.5531 40.5677 10.7906 39.3658 9.77902C37.9065 8.55078 36.1669 6.70566 36.1669 4.89074C36.1669 3.06388 37.6531 1.5777 39.4799 1.5777C40.3721 1.5777 41.2092 1.92771 41.8368 2.56314L42.3551 3.08777L42.8733 2.56314C43.5009 1.92761 44.3381 1.5777 45.2302 1.5777C47.0571 1.5777 48.5432 3.06397 48.5432 4.89074C48.5432 6.70012 46.8131 8.53961 45.3618 9.76416Z" fill="#fc5e5e"/>
</svg>
