<svg width="26" height="26" viewBox="0 0 26 26" fill="none" xmlns="http://www.w3.org/2000/svg">
<path d="M11.9989 23.0421C11.93 23.0421 11.8618 23.0278 11.7986 23.0002C11.7354 22.9725 11.6786 22.9321 11.6318 22.8814L1.73245 12.1732C1.66646 12.1018 1.62271 12.0127 1.60656 11.9168C1.59041 11.821 1.60255 11.7225 1.64151 11.6334C1.68047 11.5443 1.74455 11.4686 1.82591 11.4153C1.90727 11.3621 2.00238 11.3338 2.0996 11.3338H6.8646C6.93614 11.3338 7.00685 11.3491 7.07195 11.3788C7.13706 11.4085 7.19504 11.4518 7.242 11.5057L10.5504 15.3119C10.9079 14.5476 11.6001 13.275 12.8147 11.7243C14.6103 9.43183 17.9502 6.06028 23.6644 3.01668C23.7748 2.95787 23.9033 2.9426 24.0245 2.9739C24.1456 3.0052 24.2506 3.08079 24.3188 3.18574C24.3869 3.29069 24.4132 3.41737 24.3925 3.54078C24.3718 3.66418 24.3056 3.77533 24.2069 3.85228C24.1851 3.86933 21.9819 5.60433 19.4463 8.78228C17.1127 11.7068 14.0106 16.4888 12.4841 22.6623C12.4573 22.7707 12.395 22.8671 12.307 22.936C12.219 23.0048 12.1105 23.0423 11.9988 23.0423L11.9989 23.0421ZM3.24275 12.3338L11.7464 21.5323C12.4537 18.9882 13.4388 16.5297 14.684 14.2011C15.8283 12.0598 17.1676 10.0286 18.6848 8.13328C19.2652 7.40713 19.8259 6.75648 20.3478 6.18328C17.0584 8.42808 14.9339 10.65 13.6402 12.2925C11.7626 14.6765 11.1822 16.3875 11.1766 16.4046C11.1488 16.4883 11.0994 16.5632 11.0333 16.6217C10.9672 16.6802 10.8869 16.7201 10.8004 16.7376C10.7139 16.755 10.6243 16.7492 10.5407 16.7208C10.4572 16.6925 10.3826 16.6425 10.3246 16.576L6.63715 12.3338H3.24275Z" fill="#111032"/>
</svg>
