<svg width="48" height="48" viewBox="0 0 48 48" fill="none" xmlns="http://www.w3.org/2000/svg">
<path d="M29.4688 47.4375H21.6562C21.225 47.4375 20.875 47.0875 20.875 46.6562C20.875 46.225 21.225 45.875 21.6562 45.875H29.4688C38.5156 45.875 45.875 36.0625 45.875 24C45.875 11.9375 38.5156 2.125 29.4688 2.125H21.6562C21.225 2.125 20.875 1.775 20.875 1.34375C20.875 0.9125 21.225 0.5625 21.6562 0.5625H29.4688C39.3766 0.5625 47.4375 11.0766 47.4375 24C47.4375 36.9234 39.3766 47.4375 29.4688 47.4375Z" fill="#fc5e5e"/>
<path d="M21.6562 47.4375C17.6203 47.4375 13.8109 45.7391 10.6375 42.525C10.3344 42.2188 10.3375 41.7234 10.6438 41.4203C10.95 41.1172 11.4453 41.1203 11.7484 41.4281C14.6219 44.3375 18.0469 45.875 21.6562 45.875C30.7031 45.875 38.0625 36.0625 38.0625 24C38.0625 11.9375 30.7031 2.125 21.6562 2.125C12.6094 2.125 5.25 11.9375 5.25 24C5.25 24.7625 5.27969 25.5156 5.3375 26.2563C5.37031 26.6859 5.04688 27.0625 4.61719 27.0953C4.18906 27.1281 3.81094 26.8047 3.77813 26.3766C3.72031 25.5953 3.6875 24.8016 3.6875 24C3.6875 11.0766 11.7484 0.5625 21.6562 0.5625C31.5641 0.5625 39.625 11.0766 39.625 24C39.625 36.9234 31.5641 47.4375 21.6562 47.4375Z" fill="#fc5e5e"/>
<path d="M21.6562 42.75C21.225 42.75 20.875 42.4 20.875 41.9688C20.875 41.5375 21.225 41.1875 21.6562 41.1875C28.1187 41.1875 33.375 33.4766 33.375 24C33.375 14.5234 28.1187 6.8125 21.6562 6.8125C15.1937 6.8125 9.9375 14.5234 9.9375 24C9.9375 24.7625 9.97031 25.5125 10.0359 26.2484C10.0734 26.6781 9.75625 27.0578 9.32656 27.0953C8.92813 27.1359 8.51719 26.8172 8.47969 26.3859C8.40937 25.5969 8.375 24.7953 8.375 24C8.375 13.6609 14.3328 5.25 21.6562 5.25C28.9797 5.25 34.9375 13.6609 34.9375 24C34.9375 34.3391 28.9797 42.75 21.6562 42.75Z" fill="#fc5e5e"/>
<path d="M21.6562 42.75H1.34375C0.9125 42.75 0.5625 42.4 0.5625 41.9688C0.5625 41.5375 0.9125 41.1875 1.34375 41.1875H21.6562C22.0875 41.1875 22.4375 41.5375 22.4375 41.9688C22.4375 42.4 22.0875 42.75 21.6562 42.75Z" fill="#fc5e5e"/>
<path d="M24 38.1875C21.4156 38.1875 19.3125 36.0844 19.3125 33.5C19.3125 30.9156 21.4156 28.8125 24 28.8125C26.5844 28.8125 28.6875 30.9156 28.6875 33.5C28.6875 36.0844 26.5844 38.1875 24 38.1875ZM24 30.375C22.2766 30.375 20.875 31.7766 20.875 33.5C20.875 35.2234 22.2766 36.625 24 36.625C25.7234 36.625 27.125 35.2234 27.125 33.5C27.125 31.7766 25.7234 30.375 24 30.375Z" fill="#fc5e5e"/>
<path d="M12.2812 39.625H1.34375C0.9125 39.625 0.5625 39.275 0.5625 38.8438C0.5625 38.4125 0.9125 38.0625 1.34375 38.0625H12.2812C13.3219 38.0625 14.3031 37.6562 15.0422 36.9172C15.7812 36.1781 16.1875 35.1969 16.1875 34.1562C16.1875 32.0031 14.4359 30.25 12.2812 30.25H1.34375C0.9125 30.25 0.5625 29.9 0.5625 29.4688C0.5625 29.0375 0.9125 28.6875 1.34375 28.6875H12.2812C15.2969 28.6875 17.75 31.1406 17.75 34.1562C17.75 35.6141 17.1812 36.9875 16.1469 38.0219C15.1125 39.0563 13.7406 39.625 12.2812 39.625Z" fill="#fc5e5e"/>
<path d="M43.5309 2.125H43.373C42.9418 2.125 42.5918 1.775 42.5918 1.34375C42.5918 0.9125 42.9418 0.5625 43.373 0.5625H43.5309C43.9621 0.5625 44.3121 0.9125 44.3121 1.34375C44.3121 1.775 43.9621 2.125 43.5309 2.125Z" fill="#fc5e5e"/>
<path d="M40.4059 2.125H40.248C39.8168 2.125 39.4668 1.775 39.4668 1.34375C39.4668 0.9125 39.8168 0.5625 40.248 0.5625H40.4059C40.8371 0.5625 41.1871 0.9125 41.1871 1.34375C41.1871 1.775 40.8371 2.125 40.4059 2.125Z" fill="#fc5e5e"/>
<path d="M46.6559 2.125H46.498C46.0668 2.125 45.7168 1.775 45.7168 1.34375C45.7168 0.9125 46.0668 0.5625 46.498 0.5625H46.6559C47.0871 0.5625 47.4371 0.9125 47.4371 1.34375C47.4371 1.775 47.0871 2.125 46.6559 2.125Z" fill="#fc5e5e"/>
</svg>
