<svg width="50" height="50" viewBox="0 0 50 50" fill="none" xmlns="http://www.w3.org/2000/svg">
<g clip-path="url(#clip0_492_1251)">
<path d="M21.0185 29.4583C22.0346 27.4887 21.4238 25.0044 19.546 23.7497L16.1753 21.4972L16.7568 18.4825L18.5628 19.38C19.328 19.7611 20.2722 19.5188 20.7591 18.817L23.2419 15.2427C23.5313 14.827 23.52 14.2737 23.215 13.8677C22.8844 13.4249 22.8156 12.8355 23.0356 12.3286L23.0695 12.2504C24.4599 11.9782 25.5315 11.056 25.8111 10.357C26.8299 7.80969 26.4739 5.34221 24.8083 3.40891C22.4312 0.649142 17.7267 -0.650468 13.622 0.319063C12.1489 0.666915 10.882 1.2716 9.85551 2.09992C8.02387 1.54143 5.90512 1.78029 4.33813 2.74885C3.19457 3.45578 1.77582 4.87502 1.51108 7.62209C1.20463 10.812 1.94448 13.2667 2.53901 15.239C2.94643 16.5906 3.26821 17.6581 3.07924 18.4327C2.97035 18.8793 3.13901 19.3435 3.50893 19.6152C3.70844 19.7617 3.94369 19.8359 4.18022 19.8359C4.38305 19.8359 4.58676 19.7813 4.76938 19.6713C6.25766 18.7714 7.53481 17.2678 8.30834 15.5617C8.97914 16.3532 9.72612 16.796 10.3491 16.9852L9.96244 18.993C9.47289 19.1896 9.02592 19.5122 8.67104 19.9535L8.41713 20.269C7.77944 21.0614 7.42826 22.0581 7.42826 23.0755V29.9391L5.05707 34.7214C4.57172 35.6994 4.5142 36.8017 4.89506 37.8251C5.27065 38.8344 6.05561 39.6525 7.04887 40.0696L7.42817 40.2288V49.2676C7.42817 49.6721 7.7561 49.9999 8.16049 49.9999C8.56498 49.9999 8.89282 49.6721 8.89282 49.2676V40.8433C12.0949 42.165 11.9632 42.1797 12.2251 42.1797C12.5113 42.1797 12.7831 42.011 12.9007 41.7305C13.0572 41.3575 12.8817 40.9283 12.5087 40.7718L7.61567 38.7191C6.985 38.4541 6.50629 37.9552 6.26772 37.3143C6.02944 36.6738 6.06537 35.9843 6.36908 35.3723L8.8183 30.4323L12.1489 32.0838L10.3829 35.645C10.2065 36.0008 10.1849 36.4182 10.3236 36.7901C10.4621 37.1613 10.7511 37.4621 11.1163 37.6152L16.5723 39.904C16.8521 40.0219 17.1648 40.0347 17.4507 39.9412L20.3687 38.9968C20.5259 38.9456 20.6436 39.1466 20.5244 39.2596L19.9138 39.8363C19.676 40.0622 19.5695 40.3898 19.6289 40.7124C19.6883 41.0347 19.9042 41.3025 20.2048 41.4281L20.6377 41.6103C21.0804 41.7959 21.3664 42.2258 21.3664 42.7053C21.3664 42.8608 21.335 43.015 21.2736 43.1619C21.0198 43.7654 20.3234 44.0503 19.7202 43.797L15.6604 42.094C15.2874 41.9378 14.8582 42.113 14.7017 42.486C14.5453 42.8589 14.7207 43.2881 15.0937 43.4446L19.1531 45.1475C19.487 45.2878 19.8337 45.3542 20.1752 45.3542C21.2111 45.3542 22.1976 44.7429 22.6244 43.728C22.7616 43.3996 22.8311 43.0555 22.8311 42.7052C22.8311 41.7312 22.3031 40.8491 21.465 40.3858L21.5306 40.3237C22.086 39.7981 22.1972 38.9445 21.7957 38.2952C21.4983 37.8123 20.9827 37.524 20.4163 37.524C19.9753 37.524 19.9351 37.622 17.0705 38.5245L11.7057 36.2739C14.8736 29.8856 11.8168 36.0505 15.8109 27.9953C16.6249 26.3535 15.9515 24.3556 14.3097 23.5414C13.5143 23.1471 12.613 23.086 11.7718 23.3696C10.9305 23.6531 10.2501 24.2474 9.8558 25.0426L8.89262 26.9851V23.0753C8.89262 22.3907 9.12885 21.7201 9.55785 21.1871L9.81186 20.8715C10.3677 20.1803 11.3487 20.0339 12.0821 20.5235L18.7319 24.9675C20.0689 25.8609 20.4456 27.6861 19.5728 29.0348C19.2989 29.4557 19.3866 30.0127 19.7769 30.3303C24.0407 33.8015 25.8077 38.3531 25.6451 41.1133C25.5306 43.0552 24.5802 44.6064 22.8197 45.7239C22.3338 46.0329 22.0438 46.5644 22.0438 47.1455V49.2675C22.0438 49.672 22.3717 49.9998 22.7761 49.9998C23.1805 49.9998 23.5084 49.672 23.5084 49.2675V47.1455C23.5084 47.0692 23.5456 46.998 23.605 46.9603C25.7544 45.5959 26.9655 43.6038 27.1071 41.1994C27.2252 39.1927 26.603 36.9259 25.3074 34.644C24.2182 32.7251 22.7048 30.8974 21.0185 29.4583ZM11.1683 25.6934C11.3889 25.2487 11.7695 24.9163 12.2399 24.7577C12.7102 24.599 13.2144 24.6332 13.6592 24.8538C14.5775 25.3091 14.9541 26.4266 14.4989 27.3448L12.7997 30.7717L9.46918 29.1202L11.1683 25.6934ZM4.5976 18.0162C4.61596 17.054 4.2978 15.9987 3.94145 14.8162C3.38393 12.9668 2.69028 10.6653 2.96908 7.76232C3.13305 6.06135 3.8727 4.75852 5.10824 3.99475C6.11137 3.37473 7.41098 3.14172 8.64116 3.32307C7.94809 4.19816 7.4434 5.22756 7.14975 6.39065C6.24311 9.97971 6.63559 12.4097 7.33715 13.9947C6.8561 15.5819 5.84662 17.0559 4.5976 18.0162ZM9.18207 14.3011C9.03315 14.0898 8.89692 13.8715 8.78881 13.6402C8.78207 13.6256 8.77533 13.6112 8.76791 13.5969C7.67358 11.354 8.15131 8.40637 8.56987 6.74934C9.44174 3.29621 12.3204 2.13156 13.9586 1.74465C17.5036 0.907344 21.6908 2.03391 23.6986 4.36467C25.0082 5.88508 25.3129 7.78732 24.452 9.81037C24.3858 9.96584 23.8345 10.5773 22.8755 10.7946C21.7867 11.0411 20.5981 10.6545 19.4375 9.67551C19.1929 9.46936 18.8427 9.44553 18.5728 9.61711C17.9562 10.0086 17.297 10.2941 16.816 10.4752C16.4921 9.62072 15.8303 8.84436 14.7346 8.7674C13.6195 8.68781 12.6159 9.4384 12.2939 10.5899C11.9952 11.6586 12.2794 12.8353 13.0358 13.6608C13.1366 13.7707 13.2435 13.8713 13.3554 13.9622C12.627 15.0489 11.724 15.702 10.9926 15.631C10.6446 15.5974 9.87143 15.2796 9.18207 14.3011ZM11.4934 18.7881L11.8379 16.9987C12.8821 16.7147 13.9131 15.8466 14.7217 14.5468C14.9411 14.5702 15.1639 14.5644 15.3941 14.5212C15.7916 14.4467 16.0535 14.064 15.9789 13.6665C15.9044 13.269 15.5217 13.0067 15.1242 13.0817C14.6377 13.1727 14.2569 12.8248 14.1159 12.6711C13.7889 12.3143 13.5092 11.6838 13.7047 10.9842C13.8602 10.4279 14.2827 10.2025 14.6321 10.2284C15.1214 10.2628 15.4749 10.744 15.5776 11.5156C15.6071 11.736 15.7419 11.9467 15.9561 12.063C16.1261 12.155 16.3195 12.1732 16.496 12.1256C16.5506 12.1108 17.7071 11.7912 18.906 11.1224C19.8565 11.8285 20.7422 12.1609 21.5175 12.2794C21.3414 13.0612 21.484 13.8909 21.9232 14.5735L19.5558 17.9816C19.4804 18.0902 19.3342 18.1277 19.215 18.0684L16.8312 16.8839C16.5568 16.7465 16.2414 16.7457 15.9662 16.8815C15.6904 17.0175 15.4989 17.269 15.4407 17.5711L14.8538 20.6141L12.8958 19.3056C12.4599 19.0146 11.9794 18.8444 11.4934 18.7881Z" fill="#ff0000"/>
<path d="M48.3756 21.9366C48.2856 21.5422 47.8931 21.2956 47.4987 21.3855C47.1043 21.4755 46.8577 21.8681 46.9476 22.2624C47.1848 23.3018 47.1359 24.3906 46.8063 25.4113C45.8368 28.4144 43.2192 30.49 38.4671 34.258C37.6299 34.9219 36.7642 35.6084 35.816 36.3718C35.6492 36.5062 35.4073 36.5059 35.2406 36.3717C34.3025 35.6157 33.45 34.9377 32.6255 34.2818C27.6876 30.3541 25.2092 28.3826 24.2498 25.4119C23.761 23.8977 23.891 22.2838 24.6159 20.8674C25.3408 19.451 26.5739 18.4018 28.088 17.9129C30.5613 17.1146 33.2404 17.9942 34.7556 20.102C34.9343 20.3506 35.2231 20.4991 35.528 20.4991C35.8327 20.4991 36.1215 20.3507 36.3004 20.102C37.8158 17.9942 40.4949 17.1146 42.9675 17.9126C43.9651 18.2348 44.861 18.8139 45.5583 19.5874C45.829 19.888 46.2922 19.9118 46.5926 19.641C46.893 19.3702 46.917 18.9071 46.6461 18.6067C45.7764 17.642 44.6599 16.9199 43.4174 16.5188C40.5527 15.5941 37.4648 16.4778 35.528 18.7185C33.5911 16.4774 30.5031 15.5935 27.6379 16.5191C25.7515 17.1281 24.2152 18.4354 23.3119 20.2C22.4087 21.9647 22.2468 23.9755 22.8559 25.862C23.9511 29.2536 26.5453 31.3172 31.7136 35.4282C32.5363 36.0826 33.3869 36.7592 34.3214 37.5122C34.671 37.794 35.0995 37.9348 35.5282 37.9348C35.9565 37.9348 36.3849 37.7942 36.7343 37.5127C37.6784 36.7527 38.5419 36.068 39.377 35.4059C44.3532 31.4601 47.0942 29.2865 48.1999 25.8615C48.6108 24.5899 48.6714 23.2327 48.3756 21.9366Z" fill="#ff0000"/>
<path d="M34.4277 31.7042H36.6293C37.1849 31.7042 37.6369 31.2521 37.6369 30.6967V29.1561H39.1775C39.7331 29.1561 40.1851 28.704 40.1851 28.1484V25.9468C40.1851 25.3912 39.733 24.9393 39.1775 24.9393H37.6369V23.3986C37.6369 22.8431 37.1849 22.3911 36.6293 22.3911H34.4277C33.8722 22.3911 33.4202 22.8432 33.4202 23.3986V24.9393H31.8796C31.324 24.9393 30.8721 25.3913 30.8721 25.9468V28.1484C30.8721 28.704 31.324 29.1561 31.8796 29.1561H33.4202V30.6967C33.4202 31.2522 33.8722 31.7042 34.4277 31.7042ZM32.3368 27.6913V26.404H33.8774C34.433 26.404 34.8851 25.952 34.8851 25.3965V23.8559H36.1724V25.3965C36.1724 25.9521 36.6244 26.404 37.18 26.404H38.7206V27.6913H37.1798C36.6242 27.6913 36.1722 28.1434 36.1722 28.6989V30.2396H34.8849V28.6989C34.8849 28.1434 34.4328 27.6913 33.8772 27.6913H32.3368Z" fill="#ff0000"/>
</g>
<defs>
<clipPath id="clip0_492_1251">
<rect width="50" height="50" fill="white"/>
</clipPath>
</defs>
</svg>
