<svg width="50" height="50" viewBox="0 0 50 50" fill="none" xmlns="http://www.w3.org/2000/svg">
<g clip-path="url(#clip0_490_1220)">
<path d="M6.09341 11.696C6.0148 11.7228 5.93492 11.7355 5.8563 11.7355C5.55181 11.7355 5.26744 11.5441 5.16333 11.24L5.05552 10.9253C4.58706 9.55762 4.14449 8.26582 3.82242 7.03389C2.90669 3.52959 2.9564 0.8291 2.95894 0.715917C2.96802 0.311717 3.30601 -0.00586064 3.70718 0.000584671C4.11138 0.00947139 4.43189 0.344335 4.42339 0.748534C4.4229 0.774413 4.37886 3.36963 5.2396 6.66338C5.5479 7.84258 5.98189 9.10947 6.44126 10.4507L6.54917 10.7659C6.68023 11.1485 6.47613 11.565 6.09341 11.696Z" fill="#fc5e5e"/>
<path d="M2.24246 31.2355C2.56814 30.5853 2.91356 29.9367 3.27908 29.2502C4.32518 27.2856 5.51092 25.0587 6.60252 22.0574C7.29227 20.1598 7.16824 17.8166 6.20037 14.46C6.08836 14.0713 6.31248 13.6653 6.70125 13.5533C7.08973 13.4411 7.49588 13.6654 7.60789 14.0541C8.32098 16.5273 9.0076 19.7288 7.97918 22.5581C6.85242 25.6564 5.6409 27.9315 4.57205 29.9388C4.21092 30.6171 3.86971 31.2578 3.55213 31.8918C2.26346 34.4631 1.46473 36.7454 1.46473 40.1729C1.46473 43.8766 2.78797 46.3079 4.3866 48.881C4.60008 49.2246 4.49461 49.6762 4.15096 49.8897C4.03064 49.9644 3.89705 50 3.76512 50C3.52029 50 3.28094 49.8773 3.14227 49.654C1.48631 46.9885 -0.000116348 44.2576 -0.000116348 40.1729C-0.000116348 36.4692 0.896464 33.9214 2.24246 31.2355Z" fill="#fc5e5e"/>
<path d="M8.65684 27.5984C8.92666 26.7243 9.13633 25.9335 9.29786 25.1809C10.1465 21.2335 11.5377 18.089 13.433 15.8348C15.1764 13.7614 17.286 12.4891 19.7034 12.0537C22.2347 11.5975 24.9511 12.1039 27.559 13.5178C30.0207 14.8524 32.2542 16.9621 33.8479 19.4583C34.0656 19.7992 33.9657 20.2521 33.6248 20.4697C33.2839 20.6875 32.8309 20.5875 32.6134 20.2465C31.151 17.9561 29.1081 16.0238 26.8609 14.8055C24.5487 13.5519 22.1633 13.099 19.9632 13.4952C17.8914 13.8684 16.0717 14.9727 14.5543 16.7774C14.2243 17.1699 13.9108 17.5937 13.6137 18.0477C13.6397 18.5621 13.7979 20.0072 14.742 20.9711C15.3727 21.6151 16.2666 21.9416 17.3989 21.9416C20.2299 21.9416 21.4157 22.9051 22.0874 24.073C22.3034 23.1276 22.7835 22.2364 23.5118 21.5076L26.3494 18.671C26.7669 18.2528 27.3224 18.0224 27.9136 18.0224C28.5045 18.0224 29.0601 18.2525 29.4779 18.6705C29.8962 19.0887 30.1266 19.6444 30.1266 20.235C30.1266 20.8265 29.8959 21.3821 29.4781 21.7985L27.3852 23.8923C27.2442 24.0331 27.1666 24.2204 27.1666 24.4198C27.1666 24.6194 27.2444 24.8072 27.3856 24.9484L29.8863 27.4491C30.3376 27.9003 30.7026 28.4226 30.9688 28.9921C32.152 28.0599 33.5178 27.3497 35.0027 26.9245C34.866 25.6539 34.5594 24.3905 34.087 23.1608C33.942 22.7832 34.1305 22.3595 34.5081 22.2145C34.8858 22.0694 35.3095 22.2579 35.4545 22.6355C35.9528 23.9329 36.2833 25.266 36.4416 26.609C36.8934 26.5396 37.3537 26.4967 37.8207 26.4804C37.6209 23.9616 36.876 21.5297 35.6445 19.4055C34.2898 17.0688 32.3419 15.0927 30.011 13.6909C29.793 13.5597 29.6586 13.3248 29.6562 13.0704C29.6537 12.816 29.7835 12.5784 29.999 12.443C31.9675 11.2069 32.645 10.0541 32.3379 8.46421C31.8216 5.7938 28.4009 3.25699 25.4784 1.34517C25.1399 1.12369 25.045 0.66978 25.2665 0.331303C25.4881 -0.0071733 25.942 -0.102095 26.2804 0.119292C29.4442 2.18902 33.1556 4.97642 33.7762 8.18619C34.2269 10.5188 33.0091 12.0318 31.7052 13.0418C33.8327 14.513 35.6195 16.4415 36.912 18.6709C38.2781 21.0274 39.0951 23.7281 39.2935 26.5194C42.116 26.7675 44.7185 28.0077 46.7097 30.0755C46.9902 30.3668 46.9815 30.8305 46.6901 31.1111C46.3988 31.3917 45.9353 31.3828 45.6546 31.0916C43.6958 29.0574 41.0614 27.9371 38.2369 27.9371C32.5581 27.9371 27.9382 32.5571 27.9382 38.2358C27.9382 43.9145 32.5576 48.5349 38.2364 48.5349C43.9152 48.5349 48.5352 43.9149 48.5352 38.2362C48.5352 36.6408 48.1811 35.1132 47.4826 33.6957C47.3038 33.3328 47.4531 32.8937 47.816 32.715C48.1789 32.5361 48.6179 32.6855 48.7967 33.0483C49.5952 34.6689 50 36.4144 50 38.2362C50 44.7227 44.7229 49.9998 38.2364 49.9998C34.5987 49.9998 31.3417 48.3399 29.1821 45.7379C28.1426 46.3156 27.0658 46.7728 25.9695 47.0988L24.8223 49.5751C24.6983 49.8425 24.4338 50 24.1572 50C24.0542 50 23.9495 49.9781 23.8498 49.9319C23.4828 49.7619 23.323 49.3265 23.4932 48.9595L24.7815 46.1787C24.8724 45.9826 25.045 45.8367 25.2535 45.7798C26.2944 45.4961 27.3195 45.0799 28.3112 44.5441C28.1019 44.2158 27.9085 43.8762 27.7318 43.5269C24.8439 45.2247 21.4186 46.0913 17.6425 46.0911C16.3259 46.0911 14.966 45.9858 13.5725 45.7737C11.3257 45.4311 9.63301 44.3736 8.54141 42.6307C7.33565 40.7054 6.89112 37.9723 7.22012 34.5074C7.47705 31.8007 8.14326 29.2558 8.65684 27.5984ZM29.8088 30.038C29.6153 29.4563 29.2897 28.9246 28.8504 28.4852L26.3497 25.9845C25.9317 25.5666 25.7016 25.0109 25.7016 24.4201C25.7016 23.8289 25.9319 23.2734 26.3495 22.8565L28.4428 20.7622C28.5838 20.6217 28.6614 20.4345 28.6614 20.2353C28.6614 20.0359 28.5835 19.8481 28.4418 19.7065C28.3006 19.5653 28.1128 19.4876 27.9132 19.4876C27.7138 19.4876 27.5265 19.5652 27.3852 19.7066L24.5474 22.5436C23.3457 23.746 23.0784 25.5597 23.8824 27.0567L24.7298 28.6351C24.8826 28.9198 24.8309 29.271 24.6024 29.4994L22.3661 31.7367C22.1908 31.9122 21.9386 31.9868 21.6962 31.9354C21.4536 31.884 21.2535 31.7133 21.1646 31.4818C20.618 30.0609 19.228 29.1063 17.706 29.1063H15.4528C15.2529 29.1063 15.0654 29.1839 14.924 29.3258C14.7831 29.4667 14.7055 29.6542 14.7055 29.8536C14.7055 30.2657 15.0407 30.6008 15.4527 30.6008H17.7061C18.9259 30.6008 19.9182 31.5932 19.9182 32.8129V33.8813C19.9182 34.0757 19.8409 34.2622 19.7033 34.3996L19.6678 34.435C19.3816 34.721 18.9182 34.7207 18.6323 34.4347C17.8175 33.6198 16.7347 33.1813 15.581 33.2052C14.4296 33.2272 13.3635 33.7057 12.5788 34.5528C11.0966 36.1519 11.0966 38.6571 12.5788 40.2562C13.364 41.1034 14.4305 41.5819 15.5819 41.6038C16.7343 41.6286 17.8176 41.189 18.6323 40.3744C18.8193 40.1873 18.9895 39.9814 19.1377 39.7624C19.283 39.5478 19.4081 39.3208 19.5096 39.0877C19.6607 38.7399 20.0524 38.5656 20.4122 38.6848C22.1996 39.279 24.1373 38.8211 25.4688 37.4898L26.628 36.3305C27.0248 33.9047 28.1659 31.7264 29.8088 30.038ZM9.78271 41.8531C10.6497 43.2376 11.9615 44.0462 13.793 44.3254C18.92 45.1055 23.5225 44.3588 27.1494 42.168C26.7454 41.0322 26.5106 39.8168 26.4772 38.5521C24.904 40.1071 22.6889 40.7297 20.5625 40.2459C20.496 40.3608 20.4253 40.4735 20.3507 40.5836C20.1505 40.8793 19.9209 41.1574 19.6683 41.4101C18.5957 42.4827 17.1781 43.0694 15.6655 43.0694C15.6286 43.0694 15.5914 43.069 15.5543 43.0683C14.0012 43.0388 12.563 42.3938 11.5047 41.2519C9.50499 39.0944 9.50499 35.7143 11.5046 33.557C12.3212 32.6755 13.3644 32.0901 14.5123 31.8552C13.7617 31.5011 13.241 30.7369 13.241 29.8533C13.241 29.2626 13.471 28.7073 13.8877 28.2906C14.3051 27.8717 14.861 27.6412 15.4531 27.6412H17.7061C19.4641 27.6412 21.0957 28.5539 22.0382 29.9926L23.0141 29.0164C22.0953 28.0881 21.7116 27.0389 21.368 26.094C20.7793 24.4756 20.3904 23.4065 17.3987 23.4065C15.8522 23.4065 14.6029 22.9286 13.6856 21.9862C13.1026 21.3873 12.7407 20.682 12.5148 20.0232C11.7722 21.5932 11.1749 23.4193 10.7301 25.4885C10.5595 26.2834 10.3392 27.1147 10.0564 28.0311C9.65254 29.3347 8.93643 31.9274 8.67832 34.6457C8.38047 37.7824 8.75205 40.2073 9.78271 41.8531Z" fill="#fc5e5e"/>
<path d="M38.2358 39.4902C38.0204 39.4902 37.8159 39.3954 37.6768 39.231C36.053 37.3125 35.2637 35.8885 35.2637 34.8776C35.2637 33.2388 36.597 31.9055 38.2358 31.9055C39.8747 31.9055 41.208 33.2388 41.208 34.8776C41.208 35.8885 40.4187 37.3125 38.7949 39.231C38.6558 39.3954 38.4513 39.4902 38.2358 39.4902ZM38.2358 33.3703C37.4047 33.3703 36.7285 34.0464 36.7285 34.8776C36.7285 35.0797 36.8472 35.8304 38.2358 37.6C39.6245 35.8304 39.7432 35.0798 39.7432 34.8776C39.7432 34.0464 39.067 33.3703 38.2358 33.3703Z" fill="#fc5e5e"/>
<path d="M43.695 44.8459L42.8814 45.8468C42.6455 46.1369 42.3107 46.3154 41.9388 46.3496C41.5671 46.3834 41.2057 46.2693 40.9213 46.0273C40.3751 45.5625 39.3592 44.6757 38.2365 43.5838C37.115 44.6747 36.0984 45.5622 35.5517 46.0273V46.0274C35.3002 46.2413 34.9887 46.3555 34.6629 46.3555C34.6202 46.3555 34.5773 46.3535 34.5343 46.3496C34.1623 46.3154 33.8275 46.1369 33.5916 45.8468L32.7778 44.846C32.3021 44.261 32.3785 43.4195 32.952 42.9303C33.4716 42.4871 34.4342 41.6449 35.4762 40.6286C33.6001 38.3609 32.6865 36.4754 32.6865 34.8774C32.6865 31.8171 35.1763 29.3274 38.2365 29.3274C41.2968 29.3274 43.7865 31.8171 43.7865 34.8774C43.7865 36.4753 42.8727 38.3613 40.9968 40.6286C42.0385 41.6446 43.001 42.4867 43.5208 42.9301C44.094 43.4195 44.1706 44.261 43.695 44.8459ZM39.4801 41.1882C39.2095 40.916 39.1949 40.4809 39.4468 40.1913C41.3544 37.9974 42.3216 36.2096 42.3216 34.8774C42.3216 32.6249 40.489 30.7922 38.2364 30.7922C35.9839 30.7922 34.1513 32.6249 34.1513 34.8774C34.1513 36.2095 35.1185 37.9973 37.026 40.1913C37.2778 40.4809 37.2634 40.916 36.9927 41.1881C35.7812 42.4069 34.6023 43.4458 33.9684 43.9886L34.6712 44.8531C35.3036 44.3126 36.4815 43.2766 37.7179 42.0375C37.8553 41.8999 38.0418 41.8224 38.2364 41.8224C38.431 41.8224 38.6175 41.8999 38.755 42.0375C39.9928 43.2782 41.1697 44.3133 41.8016 44.853L42.5044 43.9884C41.8704 43.4457 40.6914 42.4067 39.4801 41.1882Z" fill="#fc5e5e"/>
</g>
<defs>
<clipPath id="clip0_490_1220">
<rect width="50" height="50" fill="white" transform="matrix(-1 0 0 1 50 0)"/>
</clipPath>
</defs>
</svg>
