<svg width="50" height="50" viewBox="0 0 50 50" fill="none" xmlns="http://www.w3.org/2000/svg">
<path d="M48.1835 33.1994C47.9546 32.9633 47.6349 32.8278 47.3062 32.8278H43.7337C44.0022 31.6513 44.1465 30.4281 44.1465 29.1714C44.1465 25.3326 42.795 21.5964 40.3412 18.6509C40.0823 18.34 39.6204 18.298 39.3097 18.5569C38.9989 18.8158 38.9568 19.2776 39.2157 19.5884C41.2943 22.0835 42.5038 25.2019 42.663 28.439H28.4315V14.2068C31.5144 14.3531 34.4184 15.4229 36.8704 17.324C37.1898 17.5718 37.6501 17.5137 37.898 17.1939C38.1458 16.8743 38.0876 16.4142 37.768 16.1663C34.8634 13.9143 31.3816 12.7239 27.6991 12.7239C26.3839 12.7239 25.1052 12.8815 23.8785 13.1747V10.4704C25.1135 10.2181 26.3906 10.083 27.6991 10.083C38.2244 10.083 46.7874 18.646 46.7874 29.1713C46.7874 29.5758 47.1152 29.9037 47.5198 29.9037C47.9244 29.9037 48.2523 29.5758 48.2523 29.1713C48.2523 17.8383 39.0321 8.61817 27.6991 8.61817C26.3937 8.61817 25.117 8.74277 23.8785 8.97676V6.34766C23.8785 5.94316 23.5507 5.61523 23.1461 5.61523C22.7415 5.61523 22.4137 5.94316 22.4137 6.34766V25.8864H2.9375V1.46484H22.4137V2.92969C22.4137 3.33418 22.7415 3.66211 23.1461 3.66211C23.5507 3.66211 23.8785 3.33418 23.8785 2.92969V1.2207C23.8785 0.547559 23.331 0 22.6578 0H2.69336C2.02021 0 1.47266 0.547559 1.47266 1.2207V26.1306C1.47266 26.8037 2.02021 27.3513 2.69336 27.3513H7.22764C7.17451 27.9512 7.1459 28.5579 7.1459 29.1714C7.1459 40.5044 16.366 49.7245 27.6991 49.7245C28.1037 49.7245 28.4315 49.3966 28.4315 48.9921C28.4315 48.5876 28.1037 48.2597 27.6991 48.2597C17.1738 48.2597 8.61074 39.6967 8.61074 29.1714C8.61074 28.5573 8.6419 27.9506 8.69912 27.3513H11.3527C11.2864 27.949 11.2516 28.5562 11.2516 29.1714C11.2516 38.2405 18.6299 45.6188 27.699 45.6188C28.9557 45.6188 30.1789 45.4744 31.3554 45.206V48.7784C31.3554 49.1072 31.4909 49.4271 31.7271 49.656C31.954 49.8758 32.2617 49.9999 32.5766 49.9999C32.5891 49.9999 32.6017 49.9997 32.6143 49.9993C36.3367 49.8822 39.9461 48.483 42.7773 46.0594C43.0847 45.7963 43.1206 45.334 42.8574 45.0267C42.5944 44.7194 42.132 44.6835 41.8248 44.9466C39.3099 47.0994 36.1214 48.3648 32.8202 48.5252V34.2927H47.0529C46.9084 37.3037 45.8758 40.1609 44.0589 42.5709C43.8153 42.8939 43.8798 43.3531 44.2027 43.5967C44.5258 43.84 44.9851 43.7758 45.2285 43.4527C47.2792 40.7328 48.4199 37.4941 48.5271 34.0864C48.5373 33.7585 48.4121 33.4352 48.1835 33.1994ZM26.9667 29.1714V44.1358C19.0441 43.7525 12.7165 37.1872 12.7165 29.1714C12.7165 28.5553 12.7547 27.948 12.8273 27.3513H22.6577C23.3309 27.3513 23.8784 26.8037 23.8784 26.1306V14.6855C24.8718 14.423 25.9044 14.2583 26.9666 14.2069V29.1714H26.9667ZM32.5762 32.8278C31.903 32.8278 31.3555 33.3754 31.3555 34.0485V43.6997C30.4126 43.9374 29.4353 44.0872 28.4315 44.1358V29.9038H42.6636C42.615 30.9076 42.4651 31.885 42.2274 32.8278H32.5762Z" fill="#ff0000"/>
<path d="M19.5302 7.43046C18.9777 6.45995 18.1026 5.80497 17.066 5.58622C15.8054 5.32021 14.4369 5.70107 13.2224 6.61728C13.2511 5.81503 13.5261 5.2122 14.0413 4.82597C14.3648 4.58329 14.4304 4.12411 14.1878 3.80058C13.9452 3.47694 13.4859 3.41142 13.1624 3.65409C12.3341 4.27538 11.8567 5.20937 11.77 6.36669C10.6488 5.63456 9.42293 5.34618 8.28484 5.58632C7.24822 5.80507 6.37312 6.46005 5.82068 7.43056C5.02947 8.82069 4.94177 10.6939 5.57996 12.5699C6.09871 14.0948 7.04021 15.4373 8.23084 16.3501C9.22009 17.1085 10.2932 17.5051 11.3243 17.5051C11.5953 17.5051 11.8636 17.4776 12.1265 17.4222C12.3134 17.3828 12.497 17.3284 12.6756 17.2599C12.8542 17.3285 13.0378 17.3828 13.2245 17.4222C14.4877 17.6888 15.871 17.308 17.1203 16.3501C18.3108 15.4373 19.2523 14.0948 19.7712 12.5699C20.4091 10.6938 20.3214 8.82069 19.5302 7.43046ZM18.3841 12.098C17.5383 14.5841 15.3138 16.3655 13.5267 15.9888C13.3464 15.9507 13.1706 15.8891 13.0042 15.8055C12.7972 15.7016 12.5535 15.7016 12.3466 15.8055C12.1803 15.889 12.0045 15.9507 11.8239 15.9888C10.0376 16.3661 7.81248 14.5843 6.96668 12.098C6.47068 10.6402 6.51814 9.1662 7.09373 8.15507C7.4409 7.54511 7.9574 7.15243 8.58728 7.01952C8.74627 6.98593 8.91013 6.96952 9.07732 6.96952C10.0842 6.96952 11.2111 7.56581 12.1245 8.60849C12.2636 8.76728 12.4643 8.85829 12.6755 8.85829C12.8866 8.85829 13.0874 8.76728 13.2264 8.60849C14.2917 7.39267 15.6473 6.78368 16.7636 7.01952C17.3935 7.15243 17.91 7.54511 18.2572 8.15507C18.8326 9.1662 18.8801 10.6402 18.3841 12.098Z" fill="#ff0000"/>
<path d="M19.2415 19.4507H12.2109C11.8063 19.4507 11.4785 19.7786 11.4785 20.1831C11.4785 20.5876 11.8063 20.9155 12.2109 20.9155H19.2415C19.6461 20.9155 19.9739 20.5876 19.9739 20.1831C19.9739 19.7786 19.6461 19.4507 19.2415 19.4507Z" fill="#ff0000"/>
<path d="M6.11816 20.9155H9.86689C10.2715 20.9155 10.5993 20.5876 10.5993 20.1831C10.5993 19.7786 10.2715 19.4507 9.86689 19.4507H6.11816C5.71357 19.4507 5.38574 19.7786 5.38574 20.1831C5.38574 20.5876 5.71367 20.9155 6.11816 20.9155Z" fill="#ff0000"/>
<path d="M6.11816 23.8438H19.2412C19.6458 23.8438 19.9736 23.5158 19.9736 23.1113C19.9736 22.7068 19.6458 22.3789 19.2412 22.3789H6.11816C5.71357 22.3789 5.38574 22.7068 5.38574 23.1113C5.38574 23.5158 5.71367 23.8438 6.11816 23.8438Z" fill="#ff0000"/>
<path d="M23.6367 29.9395H16.9961C16.5915 29.9395 16.2637 30.2674 16.2637 30.6719C16.2637 31.0764 16.5915 31.4043 16.9961 31.4043H23.6367C24.0413 31.4043 24.3691 31.0764 24.3691 30.6719C24.3691 30.2674 24.0413 29.9395 23.6367 29.9395Z" fill="#ff0000"/>
<path d="M23.6367 32.5762H16.9961C16.5915 32.5762 16.2637 32.9041 16.2637 33.3086C16.2637 33.7131 16.5915 34.041 16.9961 34.041H23.6367C24.0413 34.041 24.3691 33.7131 24.3691 33.3086C24.3691 32.9041 24.0413 32.5762 23.6367 32.5762Z" fill="#ff0000"/>
<path d="M23.6367 35.2129H20.1211C19.7165 35.2129 19.3887 35.5408 19.3887 35.9453C19.3887 36.3498 19.7165 36.6777 20.1211 36.6777H23.6367C24.0413 36.6777 24.3691 36.3498 24.3691 35.9453C24.3691 35.5408 24.0413 35.2129 23.6367 35.2129Z" fill="#ff0000"/>
</svg>
