<svg width="50" height="50" viewBox="0 0 50 50" fill="none" xmlns="http://www.w3.org/2000/svg">
<path d="M48.9415 22.5039C48.6407 19.2236 46.6905 16.9111 43.7247 16.3193C40.6104 15.6973 36.6544 16.8613 33.1641 17.8887C32.3507 18.1279 31.5792 18.3555 30.8575 18.5469C33.253 16.7568 34.8067 13.8994 34.8067 10.6865C34.8077 5.27832 30.4083 0.878906 25.0001 0.878906C19.5919 0.878906 15.1924 5.27832 15.1924 10.6865C15.1924 13.9004 16.7462 16.7568 19.1417 18.5469C18.421 18.3545 17.6495 18.1279 16.836 17.8887C13.3458 16.8613 9.38971 15.6963 6.27545 16.3193C3.30963 16.9121 1.36041 19.2236 1.05866 22.5049C0.886782 24.376 1.29596 27.1465 2.59967 28.8076L2.85065 29.1279C2.91413 30.2822 3.51862 31.5293 4.50299 32.5137C6.3194 34.3301 8.77936 34.7158 10.1036 33.3926C10.7696 32.7266 11.0215 31.751 10.8116 30.6465C10.6202 29.6377 10.0567 28.624 9.22467 27.792C8.63092 27.1973 7.94147 26.7383 7.22174 26.4541L6.60358 25.666C6.2696 25.2412 6.0528 23.7871 6.12702 22.9707C6.2442 21.6904 6.74713 21.416 7.27252 21.3115C9.89948 20.7861 11.8751 21.7021 13.6778 24.2812C15.5518 26.9619 15.5626 27.1338 15.7423 29.998C15.7794 30.584 15.8204 31.248 15.8848 32.0645C16.1085 34.8779 16.6524 37.0742 17.5958 38.9756C18.6124 41.0225 20.1016 42.7061 22.1387 44.1143V46.2607C22.1387 47.8389 23.4219 49.1221 25.0001 49.1221C26.5782 49.1221 27.8614 47.8389 27.8614 46.2607V44.1143C29.8985 42.7061 31.3878 41.0225 32.4044 38.9756C33.3487 37.0742 33.8926 34.8779 34.1153 32.0645C34.1807 31.248 34.2217 30.584 34.2579 29.998C34.4366 27.1328 34.4483 26.9619 36.3223 24.2803C38.1251 21.7021 40.1007 20.7861 42.7276 21.3105C43.253 21.416 43.7559 21.6895 43.8731 22.9697C43.9483 23.7861 43.7305 25.2402 43.3966 25.665L42.7784 26.4531C42.0587 26.7373 41.3692 27.1973 40.7755 27.791C38.9591 29.6074 38.5733 32.0674 39.8966 33.3916C41.2208 34.7158 43.6807 34.3291 45.4971 32.5127C46.4815 31.5283 47.086 30.2812 47.1495 29.127L47.4005 28.8066C48.7042 27.1455 49.1133 24.375 48.9415 22.5039ZM16.5596 10.6865C16.5596 6.03223 20.3458 2.24609 25.0001 2.24609C29.6544 2.24609 33.4405 6.03223 33.4405 10.6865C33.4405 15.3408 29.6544 19.127 25.0001 19.127C20.3458 19.127 16.5596 15.3398 16.5596 10.6865ZM27.6827 37.0078C27.5577 36.8711 27.378 36.7842 27.1778 36.7842H25.6837V33.9648C26.8272 33.5342 27.6485 32.041 27.6485 30.2139C27.6485 28.04 26.4854 26.3379 25.0001 26.3379C23.5147 26.3379 22.3516 28.041 22.3516 30.2139C22.3516 32.04 23.1729 33.5342 24.3165 33.9648V36.7832H22.8223C22.6221 36.7832 22.4424 36.8701 22.3174 37.0068C21.1417 34.9062 20.9981 32.501 20.8585 30.1592C20.7315 28.0361 20.6026 25.8584 19.6778 23.9805C23.168 24.8174 26.7374 24.8125 30.3301 23.9639C29.3985 25.8457 29.2676 28.0303 29.1407 30.1592C29.002 32.501 28.8585 34.9072 27.6827 37.0078ZM25.0001 32.7236C24.3956 32.7236 23.7188 31.6504 23.7188 30.2139C23.7188 28.7773 24.3956 27.7051 25.0001 27.7051C25.6046 27.7051 26.2813 28.7783 26.2813 30.2139C26.2813 31.6504 25.6046 32.7236 25.0001 32.7236ZM26.4942 46.2598C26.4942 47.084 25.8243 47.7539 25.0001 47.7539C24.1758 47.7539 23.5059 47.084 23.5059 46.2598V38.1514H26.4942V46.2598ZM46.3253 27.9619L45.9337 28.4609C45.837 28.584 45.7852 28.7373 45.7882 28.8936C45.8008 29.7402 45.3194 30.7568 44.5313 31.5449C43.2999 32.7773 41.6202 33.1787 40.8643 32.4238C40.1085 31.668 40.5108 29.9893 41.7432 28.7568C42.2462 28.2539 42.8262 27.8789 43.4229 27.6709C43.546 27.6279 43.6553 27.5498 43.7354 27.4473L44.4727 26.5078C45.168 25.6221 45.3126 23.6846 45.2354 22.8428C45.085 21.2021 44.3311 20.2344 42.9962 19.9678C39.8507 19.3398 37.3008 20.4932 35.2022 23.4951C33.1758 26.3936 33.087 26.8291 32.8936 29.9102C32.8575 30.4902 32.8165 31.1484 32.752 31.9541C32.3663 36.8145 30.8839 40.0205 27.8614 42.4141V39.1426C30.1358 36.4346 30.3331 33.1484 30.5059 30.2402C30.6641 27.5898 30.8135 25.0869 32.4249 23.2744C32.629 23.0449 32.6553 22.707 32.4883 22.4492C32.3214 22.1914 32.003 22.0762 31.71 22.168C27.168 23.5908 22.6553 23.5908 18.2979 22.1699C18.0049 22.0742 17.6837 22.1875 17.5137 22.4453C17.3438 22.7031 17.3692 23.043 17.5743 23.2734C19.1856 25.0869 19.335 27.5898 19.4932 30.2393C19.6671 33.1465 19.8633 36.4326 22.1378 39.1416V42.4131C19.1143 40.0195 17.6329 36.8145 17.2471 31.9531C17.1827 31.1475 17.1417 30.4893 17.1055 29.9092C16.9132 26.8281 16.8233 26.3926 14.7969 23.4941C12.6983 20.4922 10.1495 19.3389 7.00299 19.9668C5.66803 20.2334 4.91413 21.2012 4.76374 22.8418C4.68659 23.6826 4.83112 25.6211 5.52643 26.5059L6.26374 27.4453C6.34479 27.5479 6.45319 27.626 6.57623 27.6689C7.17291 27.877 7.75397 28.252 8.25592 28.7549C8.89557 29.3945 9.32624 30.1563 9.46686 30.8975C9.53815 31.2715 9.58893 31.9678 9.13483 32.4219C8.37897 33.1777 6.70026 32.7754 5.46784 31.543C4.67975 30.7549 4.19831 29.7393 4.211 28.8916C4.21295 28.7354 4.16217 28.582 4.06549 28.459L3.67389 27.96C2.6485 26.6533 2.26666 24.2881 2.41901 22.626C2.6651 19.9424 4.16803 18.1309 6.54206 17.6562C9.32624 17.0996 13.1104 18.2139 16.4493 19.1973C17.3594 19.4648 18.2198 19.7178 19.0255 19.9277C21.1905 20.4902 23.1407 20.7793 24.9874 20.8125H25.0118C26.8585 20.7803 28.8077 20.4912 30.9737 19.9277C31.7803 19.7178 32.6407 19.4648 33.5508 19.1973C36.8897 18.2148 40.6729 17.1016 43.4571 17.6572C45.8311 18.1318 47.3341 19.9424 47.5801 22.626C47.7325 24.29 47.3497 26.6562 46.3253 27.9619ZM28.0831 15.9756V13.7686H30.2901C30.7608 13.7686 31.1426 13.3857 31.1426 12.916V8.45605C31.1426 7.98535 30.7598 7.60352 30.2901 7.60352H28.0831V5.39648C28.0831 4.92578 27.7003 4.54395 27.2305 4.54395H22.7706C22.2999 4.54395 21.918 4.92676 21.918 5.39648V7.60352H19.711C19.2413 7.60352 18.8585 7.98633 18.8585 8.45605V12.916C18.8585 13.3867 19.2413 13.7686 19.711 13.7686H21.918V15.9756C21.918 16.4463 22.3008 16.8281 22.7706 16.8281H27.2305C27.7003 16.8281 28.0831 16.4453 28.0831 15.9756ZM26.7159 13.2539V15.4609H23.2852V13.2539C23.2852 12.7832 22.9024 12.4014 22.4327 12.4014H20.2257V8.9707H22.4327C22.9034 8.9707 23.2852 8.58789 23.2852 8.11816V5.91113H26.7159V8.11816C26.7159 8.58887 27.0987 8.9707 27.5684 8.9707H29.7755V12.4014H27.5684C27.0977 12.4014 26.7159 12.7842 26.7159 13.2539Z" fill="#fc5e5e"/>
</svg>
