<svg width="50" height="50" viewBox="0 0 50 50" fill="none" xmlns="http://www.w3.org/2000/svg">
<path d="M40.5352 40.5918C40.0996 39.002 39.2344 37.5723 38.0342 36.457C37.3691 35.8398 36.6064 35.3193 35.7539 34.8945C35.8584 34.3535 35.8115 33.7891 35.6084 33.2607C35.2861 32.4238 34.6133 31.7822 33.7607 31.502C33.7354 31.4941 33.71 31.4883 33.6855 31.4805C33.3613 28.5244 31.7129 25.7861 29.085 24.1152C27.209 22.9219 25.8496 21.6309 24.8984 20.1279L25.8711 20.3418C26.8994 20.5684 27.96 20.2695 28.708 19.5439C30.0713 18.2217 30.7998 16.6377 30.9355 14.7021L31.5322 14.4707C31.9229 14.3193 32.2178 14.0029 32.3418 13.6025C32.4658 13.2031 32.4023 12.7744 32.168 12.4287L31.5762 11.5566C31.1348 10.9062 30.9473 10.1191 31.0469 9.33887L31.2832 7.50195C31.5127 5.71777 30.998 3.9209 29.8701 2.5293C29.8281 2.45801 29.7744 2.39355 29.7119 2.33887C29.708 2.33496 29.7051 2.33008 29.7012 2.32617C28.4541 0.910156 26.6572 0.0976562 24.7695 0.0976562H20.166C17.4395 0.0976562 15.0371 1.73926 14.0469 4.28027C13.7598 5.01562 13.5752 5.78125 13.4893 6.55469C10.8691 6.72559 8.78906 8.91016 8.78906 11.5723C8.78906 14.3457 11.0449 16.6016 13.8184 16.6016C14.7461 16.6016 15.6143 16.3477 16.3613 15.9082L16.3398 16.0605C16.0029 18.4707 15.8047 20.9248 15.75 23.3584C15.4229 23.9297 15.2344 24.5898 15.2344 25.2939V32.9277C15.2344 36.084 16.1455 39.1172 17.8398 41.7119C17.7988 43.9395 17.0332 46.1406 15.582 47.9326L15.0176 48.6299C14.7461 48.9648 14.7979 49.457 15.1328 49.7285C15.2773 49.8457 15.4512 49.9023 15.624 49.9023C15.8516 49.9023 16.0771 49.8037 16.2314 49.6123L16.7959 48.915C18.0762 47.333 18.8926 45.4756 19.2275 43.54C19.376 43.71 19.5283 43.877 19.6846 44.041L25.0469 49.6602C25.3447 49.9727 25.8398 49.9844 26.1514 49.6865C26.4639 49.3887 26.4756 48.8945 26.1777 48.582L20.8154 42.9629C18.2246 40.2461 16.7969 36.6816 16.7969 32.9268V25.293C16.7969 24.001 17.8486 22.9492 19.1406 22.9492C20.4326 22.9492 21.4844 24.001 21.4844 25.293V35.3066C21.4844 37.4033 22.21 39.4561 23.5264 41.0869L30.4092 49.6123C30.5635 49.8037 30.7891 49.9033 31.0176 49.9033C31.1895 49.9033 31.3633 49.8467 31.5078 49.7295C31.8438 49.458 31.8955 48.9668 31.625 48.6309L24.7422 40.1055C23.6484 38.751 23.0469 37.0469 23.0469 35.3066V25.293C23.0469 25.0928 23.0312 24.8965 23.0029 24.7041C24.4727 25.2646 25.9326 25.543 27.4131 25.543C27.7256 25.543 28.0391 25.5303 28.3545 25.5059C30.4521 26.8838 31.7891 29.0732 32.1084 31.4482C31.4951 31.6016 30.9297 31.9463 30.5166 32.4551L29.9414 33.1631C29.3154 33.9346 29.1152 34.9619 29.4053 35.9121C29.6963 36.8623 30.4365 37.6016 31.3867 37.8906L31.5332 37.9355C31.8242 38.0244 32.1191 38.0664 32.4092 38.0664C33.4561 38.0664 34.4443 37.5127 34.9873 36.5596L35.1191 36.3281C37.1055 37.3369 38.4619 38.9414 39.0273 41.0068C39.7637 43.6953 38.957 46.7969 37.0664 48.5498C36.75 48.8428 36.7314 49.3379 37.0244 49.6543C37.1787 49.8203 37.3877 49.9043 37.5977 49.9043C37.7881 49.9043 37.9785 49.835 38.1289 49.6963C40.4658 47.5283 41.4326 43.8701 40.5352 40.5918ZM15.5029 4.84766C16.2578 2.91113 18.0879 1.66016 20.166 1.66016H24.7695C26.0957 1.66016 27.3633 2.18848 28.2978 3.11719C27.7236 4.41992 26.4688 5.1582 24.9248 5.06445C24.1865 5.02051 23.5117 5.50293 23.3193 6.21289C23.0264 7.2959 22.4395 8.32617 21.5273 9.3623C20.5234 8.6543 19.6416 8.8623 19.0781 9.16309C18.1377 9.66504 17.5908 10.7041 17.6846 11.8096C17.7324 12.375 17.8594 12.8115 18.0713 13.1387C17.9131 13.335 17.6943 13.4941 17.4004 13.6318L16.0957 11.501C14.877 9.50977 14.6553 7.02246 15.5029 4.84766ZM10.3516 11.5723C10.3516 9.78516 11.7109 8.30957 13.4502 8.125C13.54 9.59375 13.9814 11.0391 14.7627 12.3164L15.9688 14.2871C15.377 14.7568 14.6299 15.0391 13.8184 15.0391C11.9072 15.0391 10.3516 13.4834 10.3516 11.5723ZM17.3682 21.8135C17.458 19.9619 17.6309 18.1064 17.8867 16.2764L17.9307 15.9629C17.9707 15.6768 17.9727 15.3877 17.9395 15.1035C18.335 14.9336 18.7676 14.6826 19.1367 14.29C19.7188 14.7168 20.4092 14.9639 21.2207 15.0352C21.2441 15.0371 21.2676 15.0381 21.29 15.0381C21.6904 15.0381 22.0312 14.7314 22.0674 14.3252C22.1055 13.8955 21.7871 13.5166 21.3574 13.4785C20.5156 13.4043 19.9297 13.0713 19.4658 12.4043C19.4414 12.3672 19.416 12.332 19.3887 12.2969C19.3848 12.292 19.2822 12.1602 19.2412 11.6768C19.2002 11.1943 19.4248 10.749 19.8135 10.541C20.0459 10.417 20.2734 10.3867 20.6328 10.6426C21.2803 11.1035 22.168 10.998 22.6973 10.3984C23.7744 9.17676 24.4717 7.94043 24.833 6.62305C26.7119 6.73535 28.3398 5.94141 29.2959 4.5293C29.6992 5.38477 29.8574 6.34473 29.7344 7.30078L29.498 9.1377C29.3486 10.2959 29.6279 11.4658 30.2832 12.4316L30.7373 13.1016L30.3076 13.2686C29.7803 13.4736 29.417 13.9736 29.3799 14.5439C29.2803 16.1006 28.7051 17.3682 27.6201 18.4209C27.249 18.7803 26.7207 18.9277 26.207 18.8145L22.4346 17.9844C22.0137 17.8916 21.5967 18.1582 21.5039 18.5791C21.4111 19 21.6777 19.417 22.0986 19.5098L22.8721 19.6797C23.624 21.2705 24.6904 22.6475 26.1514 23.8945C24.7275 23.7168 23.3076 23.2402 21.8584 22.4541C21.8369 22.4424 21.8145 22.4316 21.792 22.4219C21.0928 21.7812 20.1621 21.3867 19.1406 21.3867C18.5029 21.3867 17.9004 21.541 17.3682 21.8135ZM34.0586 35.0322L33.6299 35.7842C33.2998 36.3633 32.625 36.6318 31.9873 36.4385L31.8408 36.3936C31.3818 36.2539 31.0391 35.9111 30.8984 35.4531C30.7578 34.9951 30.8516 34.5186 31.1533 34.1465L31.7285 33.4385C32.001 33.1025 32.4121 32.916 32.832 32.916C32.9795 32.916 33.127 32.9385 33.2715 32.9863C33.6768 33.1201 33.9961 33.4248 34.1494 33.8223C34.3027 34.2207 34.2695 34.6621 34.0586 35.0322Z" fill="#fc5e5e"/>
</svg>
