<svg width="50" height="50" viewBox="0 0 50 50" fill="none" xmlns="http://www.w3.org/2000/svg">
<g clip-path="url(#clip0_490_1183)">
<path d="M17.5401 40.2847H22.5893C23.5059 40.2847 23.5476 38.8198 22.5893 38.8198H17.5401C16.6235 38.8198 16.5818 40.2847 17.5401 40.2847Z" fill="#fc5e5e"/>
<path d="M9.84429 40.2847C10.7609 40.2847 10.8026 38.8198 9.84429 38.8198H4.79497C3.87837 38.8198 3.83667 40.2847 4.79497 40.2847H9.84429Z" fill="#fc5e5e"/>
<path d="M49.2275 41.1969C48.4224 40.2703 46.9535 40.1699 46.0286 40.9808L43.7141 43.01L37.7161 36.1073L39.109 34.8861C39.7982 34.2818 38.8641 33.1531 38.1433 33.7846L30.33 40.6347C29.5638 41.3068 28.514 40.0903 29.2812 39.4176L41.0253 29.1213C41.7918 28.4496 42.8414 29.6659 42.0741 30.3384L40.9001 31.3677C40.211 31.9719 41.1449 33.1007 41.8658 32.4692L43.0399 31.4399C45.2115 29.5358 42.287 26.0673 40.0596 28.0198L38.7643 29.1554L35.573 25.4828L34.5746 24.3337C34.5745 24.3336 34.5744 24.3335 34.5743 24.3333L21.492 9.27801C20.7033 8.37029 19.2642 8.27186 18.3582 9.06629L17.8302 9.52908L16.1156 7.55565C15.3268 6.64784 13.8879 6.54969 12.9817 7.34393L12.8346 7.47283L6.55272 0.243453C5.95136 -0.448342 4.81855 0.480953 5.44706 1.20429L11.7332 8.43855L11.5813 8.57166C10.6607 9.37879 10.5646 10.7867 11.3672 11.7102L13.0861 13.6884L12.5534 14.1554C11.6328 14.9626 11.5367 16.3705 12.3392 17.2941L15.9649 21.4668C15.7688 21.5982 15.6397 21.8217 15.6397 22.0754V24.7655C15.6397 25.17 15.9675 25.4979 16.3721 25.4979H17.2089V27.1867L13.8417 31.1538C13.7418 31.4075 13.6419 31.4075 13.5421 31.1538L10.1749 27.1867V25.4979H11.0116C11.4162 25.4979 11.744 25.17 11.744 24.7655V22.0754C11.744 21.671 11.4162 21.343 11.0116 21.343H3.62665C3.22206 21.343 2.89423 21.671 2.89423 22.0754V24.7655C2.89423 25.17 3.22206 25.4979 3.62665 25.4979H4.46337V27.1867L1.09619 31.1538C0.529101 31.8219 0.216797 32.6721 0.216797 33.5476V37.6285C0.216797 38.5451 1.68164 38.5868 1.68164 37.6285V35.9851H12.9566V42.7861H1.68164V41.5417C1.68164 40.6251 0.216797 40.5834 0.216797 41.5417V47.4205C0.216797 48.8382 1.37207 49.9915 2.79218 49.9915H11.8462C12.5695 49.9915 13.2237 49.6918 13.6919 49.2108C14.1601 49.6918 14.8143 49.9915 15.5376 49.9915H24.5917C26.0117 49.9915 27.1669 48.8382 27.1669 47.4205V34.3584L29.6155 37.1763L28.3155 38.316C26.119 40.242 29.0946 43.6657 31.2957 41.736L36.6146 37.0729L42.6125 43.9756L40.2933 46.0089C38.0966 47.9348 41.0724 51.3586 43.2736 49.429L49.0088 44.4008C49.9487 43.577 50.0468 42.1397 49.2275 41.1969ZM34.7407 32.683L32.7401 30.3808L35.6623 27.8189L37.6628 30.1211L34.7407 32.683ZM27.0057 31.9395L33.9515 25.85L34.7016 26.7131L27.7557 32.8027L27.0057 31.9395ZM12.4728 10.7494C12.1978 10.4329 12.231 9.95008 12.547 9.67312L13.9474 8.44539C14.2583 8.17293 14.7339 8.19881 15.0099 8.51648L16.729 10.4948L14.1877 12.7228L12.4728 10.7494ZM13.5191 15.257L19.3239 10.1678C19.698 9.89646 20.0522 9.92009 20.3864 10.2389L21.7633 11.8236L20.8476 12.6264C20.151 13.2373 21.118 14.3374 21.8133 13.7279L22.7241 12.9294L24.4687 14.9372L22.3339 16.8088C21.6374 17.4196 22.6045 18.5198 23.2997 17.9102L25.4297 16.0427L27.1744 18.0505L26.2586 18.8533C25.5621 19.4641 26.5291 20.5642 27.2244 19.9547L28.1352 19.1562L29.8798 21.164L27.7449 23.0358C27.0483 23.6466 28.0154 24.7468 28.7106 24.1373L30.8407 22.2698L32.9909 24.7443L26.0449 30.8337L22.9204 27.1866V25.4978H23.7571C24.1617 25.4978 24.4895 25.1699 24.4895 24.7654V22.0753C24.4895 21.6709 24.1617 21.3429 23.7571 21.3429H17.7979L13.4448 16.3333C13.1699 16.0168 13.2032 15.534 13.5191 15.257ZM17.1047 22.8079H23.0248V24.0331H22.188H17.9414H17.1047V22.8079ZM21.4555 25.4979V26.7231H18.6738V25.4979H21.4555ZM25.7022 42.786H14.4272V35.985H25.7022V42.786ZM4.35907 22.8079H10.2792V24.0331H9.44246H5.19579H4.35907V22.8079ZM8.71004 25.4979V26.7231H5.92821V25.4979H8.71004ZM1.68164 34.5201C1.63926 33.6847 1.64101 32.7756 2.21289 32.1016L5.53485 28.1878H9.1034L12.4254 32.1016C12.9972 32.7755 12.9991 33.6846 12.9566 34.5201H1.68164ZM11.8462 48.5265H2.79218C2.17978 48.5265 1.68164 48.0303 1.68164 47.4203V44.2509H12.9566V47.4204C12.9566 48.0303 12.4585 48.5265 11.8462 48.5265ZM24.5918 48.5265H15.5377C14.9253 48.5265 14.4272 48.0303 14.4272 47.4203V44.2509H25.7022V47.4204C25.7022 48.0303 25.2041 48.5265 24.5918 48.5265ZM25.1709 32.1017C25.7427 32.7756 25.7446 33.6847 25.7021 34.5202H14.4272C14.3848 33.6848 14.3866 32.7757 14.9585 32.1017L18.2804 28.1879H21.8052L25.1709 32.1017ZM28.7164 33.9083L31.6386 31.3464L33.6392 33.6487L30.717 36.2106L28.7164 33.9083ZM48.0432 43.2994L42.3079 48.3276C41.5417 48.9996 40.4918 47.7831 41.2591 47.1105L46.9943 42.0823C47.7648 41.407 48.8206 42.6179 48.0432 43.2994Z" fill="#fc5e5e"/>
</g>
<defs>
<clipPath id="clip0_490_1183">
<rect width="50" height="50" fill="white"/>
</clipPath>
</defs>
</svg>
