<svg width="50" height="50" viewBox="0 0 50 50" fill="none" xmlns="http://www.w3.org/2000/svg">
<g clip-path="url(#clip0_490_1184)">
<path d="M8.02503 39.8511C8.21517 39.6402 8.49485 39.4026 8.86478 39.1382C9.23402 38.8744 9.63568 38.6106 10.0688 38.3461C10.5015 38.0823 10.9401 37.8233 11.3837 37.5699C11.8275 37.3164 12.2076 37.0946 12.5244 36.9045C12.9888 36.6302 13.4433 36.3292 13.8869 36.0016C14.3305 35.6743 14.7314 35.2941 15.0909 34.861C15.4499 34.4283 15.7405 33.9372 15.9622 33.3876C16.184 32.8385 16.2948 32.2152 16.2948 31.5182C16.2948 29.8284 15.6875 28.4873 14.473 27.4941C13.2581 26.5016 11.5105 26.0049 9.22923 26.0049C8.29944 26.0049 7.40735 26.0896 6.55178 26.2584C5.69631 26.4277 4.9091 26.6545 4.19122 26.9397C3.47276 27.2249 2.82872 27.5471 2.2584 27.9061C1.68809 28.2654 1.23369 28.6348 0.895996 29.015L4.12784 32.7537C4.74025 32.0567 5.37394 31.4918 6.02893 31.0586C6.68352 30.626 7.45471 30.4091 8.34192 30.4091C9.12318 30.4091 9.72523 30.5888 10.148 30.9478C10.5703 31.3072 10.7817 31.7824 10.7817 32.3736C10.7817 32.6696 10.697 32.928 10.5283 33.1498C10.3589 33.3716 10.0792 33.6201 9.68851 33.8944C9.2974 34.1692 8.76956 34.486 8.10423 34.845C7.43889 35.2044 6.60959 35.6583 5.61691 36.2074C4.68722 36.7356 3.91642 37.2743 3.30392 37.8232C2.69102 38.3728 2.20528 38.9693 1.84649 39.6135C1.48711 40.2581 1.23369 40.9711 1.08604 41.7523C0.937989 42.534 0.864258 43.4213 0.864258 44.4138H16.6434V39.8511H8.02503Z" fill="#fc5e5e"/>
<path d="M32.3581 39.5341V26.3215H28.9044L18.5752 39.5658V44.0968H27.2885V48.4376H32.3581V44.0968H35.1464V39.5341H32.3581ZM27.8905 39.5342H23.5814L27.8905 33.926V39.5342Z" fill="#fc5e5e"/>
<path d="M3.81183 45.5715V47.2678H2.06631V45.5715H1.05469V49.9508H2.06631V48.1559H3.81183V49.9508H4.82345V45.5715H3.81183Z" fill="#fc5e5e"/>
<path d="M10.5355 46.9593C10.4328 46.6921 10.2869 46.4535 10.0978 46.2438C9.90851 46.0341 9.68038 45.8657 9.4131 45.7381C9.14571 45.6106 8.84972 45.5469 8.52481 45.5469C8.20821 45.5469 7.91622 45.6076 7.64893 45.7288C7.38155 45.8502 7.1503 46.0126 6.95489 46.216C6.75957 46.4195 6.60733 46.6551 6.49844 46.9224C6.38936 47.1898 6.33496 47.4673 6.33496 47.7551C6.33496 48.0388 6.3874 48.3144 6.49229 48.5816C6.59717 48.8489 6.74404 49.0864 6.93321 49.294C7.12237 49.5016 7.35059 49.6693 7.61788 49.7966C7.88516 49.924 8.18116 49.9878 8.50616 49.9878C8.82276 49.9878 9.11466 49.9262 9.38204 49.8027C9.64933 49.6794 9.8796 49.5158 10.0729 49.3124C10.2662 49.1089 10.4172 48.8734 10.5262 48.6061C10.6352 48.3388 10.6897 48.0612 10.6897 47.7734C10.6897 47.4981 10.6382 47.2266 10.5355 46.9593ZM9.58888 48.2393C9.54152 48.3977 9.47062 48.5395 9.37599 48.6649C9.28146 48.7903 9.16212 48.8921 9.01837 48.9703C8.87433 49.0484 8.70577 49.0875 8.51251 49.0875C8.32745 49.0875 8.163 49.0505 8.01905 48.9766C7.87501 48.9026 7.75479 48.8037 7.65821 48.6805C7.56163 48.5572 7.48868 48.4163 7.43926 48.258C7.38985 48.0997 7.36524 47.9363 7.36524 47.7677C7.36524 47.6032 7.38887 47.4418 7.43623 47.2834C7.4836 47.1252 7.55538 46.9843 7.65206 46.8609C7.74874 46.7376 7.86788 46.6379 8.00977 46.5618C8.15167 46.4857 8.31925 46.4477 8.51241 46.4477C8.69747 46.4477 8.86085 46.4837 9.00274 46.5557C9.14454 46.6276 9.26485 46.7244 9.36349 46.8455C9.46212 46.9669 9.53624 47.1067 9.58556 47.2649C9.63488 47.4232 9.65958 47.5868 9.65958 47.7553C9.65988 47.9196 9.63615 48.0811 9.58888 48.2393Z" fill="#fc5e5e"/>
<path d="M15.0133 45.5716V47.8105H15.013C15.013 47.971 14.9976 48.1282 14.9667 48.2824C14.9359 48.4366 14.8834 48.5733 14.8095 48.6925C14.7355 48.8118 14.6388 48.9075 14.5195 48.9794C14.4004 49.0514 14.2543 49.0874 14.0816 49.0874C13.9089 49.0874 13.764 49.0524 13.6468 48.9825C13.5295 48.9127 13.4339 48.8179 13.36 48.6987C13.2859 48.5797 13.2324 48.4438 13.1995 48.2917C13.1665 48.1395 13.1502 47.9793 13.1502 47.8105V45.5715H12.1387V47.8105C12.1387 48.0984 12.1746 48.3739 12.2466 48.637C12.3186 48.9003 12.4317 49.1314 12.5859 49.331C12.7401 49.5306 12.9406 49.6898 13.1873 49.809C13.4341 49.9282 13.7321 49.9879 14.0817 49.9879C14.4189 49.9879 14.7098 49.9314 14.9546 49.8182C15.1991 49.7051 15.4007 49.5499 15.559 49.3526C15.7173 49.1551 15.8345 48.925 15.9107 48.6618C15.9867 48.3987 16.0248 48.1149 16.0248 47.8106V45.5716H15.0133Z" fill="#fc5e5e"/>
<path d="M20.4227 48.3224C20.5336 48.2607 20.6333 48.1857 20.7219 48.0972C20.8103 48.0087 20.8853 47.909 20.947 47.7981C21.0086 47.687 21.056 47.5688 21.0889 47.4433C21.1217 47.3179 21.1382 47.1873 21.1382 47.0517C21.1382 46.8706 21.1022 46.6918 21.0302 46.5149C20.9582 46.3382 20.8585 46.1799 20.7311 46.0401C20.6035 45.9004 20.4525 45.7872 20.2777 45.7008C20.1029 45.6146 19.9128 45.5713 19.7072 45.5713H17.7334V49.9507H18.7449V48.5382H19.4049L20.2438 49.9507H21.3848L20.4227 48.3224ZM19.9786 47.4865C19.8923 47.5997 19.7894 47.6562 19.6702 47.6562H18.745V46.4596H19.6395C19.7544 46.4596 19.8615 46.5131 19.9602 46.62C20.0588 46.727 20.1082 46.8709 20.1082 47.0519C20.1081 47.2285 20.065 47.3735 19.9786 47.4865Z" fill="#fc5e5e"/>
<path d="M25.8976 48.1434C25.8337 47.9998 25.7434 47.8774 25.6262 47.7766C25.5089 47.6758 25.366 47.5915 25.1975 47.5237C25.0287 47.4558 24.8398 47.3932 24.63 47.3355C24.4777 47.2945 24.3441 47.2575 24.2291 47.2246C24.114 47.1918 24.0184 47.1557 23.9423 47.1166C23.8661 47.0775 23.8086 47.0333 23.7695 46.9839C23.7303 46.9346 23.7108 46.873 23.7108 46.7989C23.7108 46.5563 23.8918 46.4349 24.2536 46.4349C24.3851 46.4349 24.5168 46.4535 24.6484 46.4905C24.7799 46.5275 24.9013 46.5708 25.0124 46.62C25.1234 46.6693 25.2158 46.7168 25.29 46.7619C25.3639 46.8072 25.4071 46.838 25.4194 46.8544L25.8636 46.0156C25.765 45.9581 25.6569 45.9006 25.5398 45.8428C25.4226 45.7853 25.2961 45.7338 25.1604 45.6886C25.0247 45.6434 24.8828 45.6065 24.7348 45.5777C24.5867 45.549 24.4366 45.5344 24.2846 45.5344C24.0665 45.5344 23.86 45.5654 23.6648 45.627C23.4694 45.6886 23.2977 45.7802 23.1498 45.9014C23.0018 46.0228 22.8846 46.1719 22.7981 46.3487C22.7118 46.5256 22.6687 46.7292 22.6687 46.9594C22.6687 47.124 22.6922 47.2678 22.7396 47.3912C22.7869 47.5145 22.8587 47.6235 22.9554 47.7181C23.0521 47.8128 23.1743 47.8961 23.3225 47.9679C23.4705 48.04 23.6453 48.1067 23.8468 48.1685C23.9989 48.2137 24.1398 48.2547 24.2692 48.2918C24.3988 48.3288 24.5108 48.3689 24.6054 48.4121C24.6998 48.4552 24.774 48.5036 24.8274 48.557C24.8808 48.6104 24.9077 48.6783 24.9077 48.7605C24.9077 48.9785 24.7288 49.0875 24.3711 49.0875C24.2023 49.0875 24.0358 49.0648 23.8714 49.0196C23.7069 48.9744 23.5577 48.9229 23.4241 48.8654C23.2904 48.8079 23.1783 48.7504 23.088 48.6925C22.9976 48.6351 22.944 48.596 22.9275 48.5754L22.4834 49.4574C22.6108 49.5436 22.7496 49.6198 22.8997 49.6855C23.0498 49.7513 23.2052 49.8079 23.3654 49.8551C23.5258 49.9024 23.6901 49.9384 23.8589 49.9631C24.0275 49.9878 24.1919 50.0001 24.3524 50.0001C24.5621 50.0001 24.7656 49.9763 24.9631 49.9291C25.1605 49.8818 25.3352 49.8057 25.4874 49.7009C25.6396 49.5961 25.7618 49.4584 25.8544 49.2877C25.947 49.1171 25.9932 48.9083 25.9932 48.6616C25.9931 48.4601 25.9613 48.2875 25.8976 48.1434Z" fill="#fc5e5e"/>
<path d="M27.9785 23.6179C27.7032 22.526 26.8421 21.6648 25.7502 21.3896V7.9165H24.2491V21.3897C22.9169 21.7255 21.9277 22.9336 21.9277 24.3685C21.9277 26.0625 23.3059 27.4404 24.9996 27.4404C26.4347 27.4404 27.6426 26.4511 27.9784 25.119H36.9095V23.6179H27.9785ZM24.9997 25.9393C24.1336 25.9393 23.4289 25.2346 23.4289 24.3685C23.4289 23.5024 24.1336 22.7977 24.9997 22.7977C25.8658 22.7977 26.5705 23.5024 26.5705 24.3685C26.5705 25.2346 25.8658 25.9393 24.9997 25.9393Z" fill="#fc5e5e"/>
<path d="M46.6361 35.5909C48.4237 32.1514 49.3687 28.2706 49.3687 24.3684C49.3687 17.8593 46.834 11.7399 42.2315 7.13714C37.6288 2.53478 31.5093 0 25.0003 0C18.4913 0 12.3717 2.53478 7.76907 7.13724C3.16661 11.7399 0.631836 17.8594 0.631836 24.3685V25.119H5.21779V23.618H2.14503C2.26475 19.9225 3.26642 16.4466 4.94455 13.3926L7.58587 14.953L8.34935 13.6606L5.7093 12.1009C7.51907 9.26488 9.93715 6.85354 12.7776 5.05002L14.3307 7.6929L15.6249 6.93235L14.0708 4.28771C17.1135 2.62501 20.5731 1.6338 24.2498 1.51465V4.58596H25.7509V1.51465C29.446 1.63448 32.9223 2.63458 35.9762 4.31261L34.4158 6.95403L35.708 7.71751L37.2673 5.07795C40.1033 6.88772 42.515 9.30541 44.3185 12.1458L41.6756 13.6988L42.4361 14.9929L45.0817 13.4384C46.7445 16.4812 47.7348 19.9413 47.854 23.618H44.7828V25.119H47.8542C47.7343 28.7293 46.7533 32.2291 45.0509 35.3413L42.4146 33.7839L41.6511 35.0763L44.2865 36.6332C43.0677 38.5527 41.5613 40.2966 39.8046 41.7932L40.0076 39.9635L38.5157 39.798L38.0293 44.1822L42.4135 44.6685L42.5791 43.1766L40.7353 42.972C43.1548 40.9206 45.1772 38.3981 46.6361 35.5909Z" fill="#fc5e5e"/>
</g>
<defs>
<clipPath id="clip0_490_1184">
<rect width="50" height="50" fill="white"/>
</clipPath>
</defs>
</svg>
