<svg width="30" height="30" viewBox="0 0 30 30" fill="none" xmlns="http://www.w3.org/2000/svg">
<g clip-path="url(#clip0_2880_3567)">
<path d="M26.7179 15.466C26.7181 14.7789 26.6587 14.093 26.5408 13.4161L25.566 13.5864C26.2917 17.7456 24.547 21.9492 21.0894 24.3719L20.2924 23.0707C20.0228 22.6344 19.9993 22.0894 20.2301 21.6313L20.455 21.1817C20.5383 21.0138 20.7098 20.9078 20.8973 20.9085H21.595C22.2026 20.9104 22.7496 20.5403 22.9735 19.9755L23.643 18.301C23.7135 18.1259 23.7497 17.9384 23.7493 17.7495V16.6609C23.75 16.3983 23.6456 16.1461 23.4594 15.9608L22.8655 15.3672C22.5645 15.0657 22.1043 14.991 21.7231 15.1816L20.5055 15.7907C20.3663 15.8603 20.2025 15.8603 20.0631 15.7907L18.084 14.8011C17.9169 14.7175 17.8115 14.5465 17.812 14.3598V12.9921C17.812 12.4457 17.3689 12.0026 16.8225 12.0026C16.5492 12.0026 16.3277 11.781 16.3277 11.5078V11.013C16.3277 10.8575 16.4011 10.7108 16.5256 10.6173L18.1089 9.42991L17.5151 8.63823L15.932 9.82564C15.5592 10.1068 15.3394 10.5463 15.3381 11.013V11.5078C15.3381 12.3275 16.0028 12.9921 16.8225 12.9921V14.3598C16.8205 14.9224 17.1387 15.4372 17.6429 15.6873L19.622 16.6768C20.0402 16.8848 20.5316 16.8848 20.9497 16.6768L22.1676 16.0683L22.7612 16.6618V17.7504C22.7614 17.8133 22.7491 17.8756 22.7257 17.934L22.0557 19.6087C21.9813 19.7972 21.7989 19.9206 21.5965 19.9199H20.8988C20.3361 19.918 19.8213 20.2361 19.5715 20.7403L19.3463 21.1902C18.9617 21.9533 19.0009 22.8617 19.4497 23.5891L20.2561 24.9058C17.2083 26.6604 13.4987 26.8281 10.3049 25.3561L10.912 24.9507C10.9927 24.8966 11.0877 24.8674 11.185 24.8667H12.4541C12.8481 24.8679 13.2262 24.7113 13.504 24.4318L14.9033 23.0325C15.1826 22.7547 15.3394 22.3766 15.3381 21.9826V19.6974C15.3381 19.4292 15.2654 19.1661 15.128 18.9359L14.071 17.1685C13.8007 16.7271 13.3206 16.4572 12.8029 16.4555H11.4145C10.9176 16.455 10.4532 16.7032 10.1776 17.1165L9.63088 17.9398H8.41134C7.86487 17.9398 7.4218 18.3829 7.4218 18.9294V19.8745C7.4218 20.0424 7.33652 20.1989 7.19519 20.29L5.65144 21.2856C4.54424 19.5466 3.9567 17.5275 3.95839 15.466C3.95839 15.3003 3.96323 15.1355 3.97072 14.9712H4.83125C5.01872 14.9707 5.19025 15.0768 5.2736 15.2449L5.85293 16.406C6.02035 16.7411 6.3634 16.952 6.7381 16.9503H7.26042C7.57134 16.9508 7.86439 16.8053 8.05162 16.5572C8.23909 16.3091 8.299 15.9876 8.21348 15.6887L7.58318 13.4869H8.55968C8.89693 13.4869 9.2238 13.3721 9.48689 13.1615L11.1019 11.8695C11.622 11.452 11.8006 10.7393 11.5387 10.1259L10.6917 8.14684C10.5941 7.91927 10.6799 7.65473 10.8922 7.52741L12.1381 6.77994C12.5896 6.50767 12.8638 6.01676 12.8587 5.48938L12.8505 4.76558C14.4462 4.46601 16.089 4.52786 17.6576 4.94677L17.9111 3.99274C12.9972 2.67874 7.79215 4.64019 4.96775 8.8704C2.14335 13.1006 2.32671 18.6598 5.42387 22.6945C8.52102 26.7295 13.8439 28.3436 18.6605 26.7085C23.477 25.0735 26.7172 20.5524 26.7179 15.466ZM11.8624 4.99968L11.8682 5.50339C11.8704 5.67926 11.7788 5.84282 11.6278 5.93317L10.3815 6.68089C9.74708 7.06477 9.49124 7.85669 9.78138 8.53918L10.6284 10.5183C10.7161 10.7227 10.6567 10.9606 10.483 11.0998L8.86794 12.3915C8.78025 12.4606 8.67153 12.4978 8.55968 12.4974H7.58318C7.27225 12.4969 6.97921 12.6425 6.79198 12.8907C6.60451 13.1385 6.54459 13.4603 6.63011 13.7592L7.26042 15.9608H6.7381L6.15853 14.8021C5.90873 14.2979 5.39391 13.9797 4.83125 13.9817H4.06228C4.65803 9.70895 7.71533 6.18853 11.8624 4.99968ZM6.21941 22.0959L7.73151 21.1213C8.15598 20.8488 8.41207 20.3787 8.41134 19.8745V18.9294H9.63088C9.96185 18.9294 10.2708 18.7639 10.4542 18.4885L11.0029 17.6654C11.0947 17.5277 11.2493 17.4451 11.4145 17.4451H12.8029C12.9742 17.4453 13.1334 17.534 13.2235 17.6797L14.2783 19.444C14.3244 19.5206 14.3486 19.608 14.3486 19.6974V21.9826C14.3486 22.114 14.2967 22.2401 14.2036 22.3329L12.8044 23.7322C12.7116 23.8252 12.5855 23.8773 12.4541 23.8771H11.185C10.8917 23.8771 10.6047 23.9641 10.3607 24.1269L9.30546 24.8316C8.11322 24.123 7.06594 23.1946 6.21941 22.0959Z" fill="#ff0000"/>
<path d="M1.02204 15.9475L0.0351562 16.0164C0.0583487 16.3512 0.0933789 16.6902 0.139522 17.0231L1.12013 16.8875C1.07712 16.5768 1.04379 16.2577 1.02204 15.9475Z" fill="#ff0000"/>
<path d="M2.52421 8.62679L1.64507 8.17261C1.4907 8.46928 1.34454 8.77972 1.21094 9.08943L2.11955 9.48177C2.24517 9.19283 2.38167 8.90534 2.52421 8.62679Z" fill="#ff0000"/>
<path d="M1.28127 17.8186L0.3125 18.022C0.381836 18.352 0.461076 18.6825 0.554088 19.0058L1.50594 18.7371C1.42139 18.4347 1.34577 18.1269 1.28127 17.8186Z" fill="#ff0000"/>
<path d="M1.27069 12.1837L0.300958 11.9858C0.234279 12.3137 0.177265 12.6502 0.132812 12.9846L1.11342 13.1157C1.15497 12.8036 1.20788 12.4898 1.27069 12.1837Z" fill="#ff0000"/>
<path d="M3.50415 7.00985L2.69459 6.43994C2.5018 6.71439 2.31529 6.99994 2.14062 7.2884L2.98667 7.80153C3.14998 7.53168 3.32416 7.26569 3.50415 7.00985Z" fill="#ff0000"/>
<path d="M1.77599 10.3625L0.84298 10.0339C0.730642 10.3531 0.628692 10.6773 0.539062 11.0008L1.49309 11.2646C1.57572 10.9636 1.67114 10.6604 1.77599 10.3625Z" fill="#ff0000"/>
<path d="M1.01974 14.0564L0.0301985 13.9922C0.0101467 14.3152 0 14.6416 0 14.9713V15.003L0.989544 14.9713C0.989544 14.6643 0.99969 14.3594 1.01974 14.0564Z" fill="#ff0000"/>
<path d="M1.79436 19.6375L0.863281 19.9708C0.977069 20.2885 1.10221 20.6048 1.23629 20.9109L2.14321 20.5151C2.01807 20.2286 1.90066 19.9339 1.79436 19.6375Z" fill="#ff0000"/>
<path d="M4.69333 5.54049L3.96857 4.86719C3.73955 5.11457 3.51584 5.37138 3.30469 5.63157L4.07342 6.25511C4.27031 6.01159 4.47929 5.77121 4.69333 5.54049Z" fill="#ff0000"/>
<path d="M12.9138 1.2516L12.7751 0.270996C12.4436 0.317139 12.1078 0.375845 11.7773 0.445181L11.9805 1.41443C12.2888 1.34872 12.6026 1.29412 12.9138 1.2516Z" fill="#ff0000"/>
<path d="M14.7971 1.11772L14.793 0.128174C14.4546 0.128174 14.1142 0.141703 13.7812 0.165378L13.8516 1.15492C14.1639 1.13004 14.479 1.11772 14.7971 1.11772Z" fill="#ff0000"/>
<path d="M11.0614 1.64008L10.7928 0.687744C10.4707 0.778581 10.1456 0.882464 9.82812 0.996977L10.1625 1.92806C10.4589 1.82176 10.7611 1.72512 11.0614 1.64008Z" fill="#ff0000"/>
<path d="M6.07127 4.24728L5.44484 3.48145C5.18465 3.69404 4.92832 3.91872 4.68359 4.14871L5.36076 4.87009C5.58931 4.65532 5.82896 4.44562 6.07127 4.24728Z" fill="#ff0000"/>
<path d="M9.28476 2.27753L8.8888 1.37109C8.58271 1.50518 8.27589 1.65254 7.97656 1.80885L8.43461 2.68557C8.71268 2.53965 8.99872 2.40412 9.28476 2.27753Z" fill="#ff0000"/>
<path d="M7.61183 3.15173L7.09411 2.30811C6.8071 2.48422 6.52324 2.67218 6.25 2.86666L6.82353 3.67308C7.07889 3.49261 7.34367 3.31577 7.61183 3.15173Z" fill="#ff0000"/>
<path d="M20.3711 27.6776L20.7671 28.5845C21.0753 28.4504 21.3819 28.3035 21.6798 28.1487L21.2246 27.2708C20.9456 27.4152 20.6586 27.5524 20.3711 27.6776Z" fill="#ff0000"/>
<path d="M24.9688 24.4244L25.6923 25.1003C25.9218 24.8529 26.146 24.5976 26.3581 24.3369L25.5908 23.7119C25.3925 23.9554 25.1826 24.1953 24.9688 24.4244Z" fill="#ff0000"/>
<path d="M23.5898 25.7154L24.2151 26.4822C24.4753 26.2698 24.7316 26.0458 24.9775 25.8166L24.3023 25.0933C24.0716 25.3088 23.8341 25.516 23.5898 25.7154Z" fill="#ff0000"/>
<path d="M26.1641 22.958L26.9722 23.531C27.1662 23.2563 27.3536 22.9717 27.5283 22.6838L26.6832 22.1694C26.5194 22.4354 26.3453 22.7017 26.1641 22.958Z" fill="#ff0000"/>
<path d="M22.0469 26.8065L22.561 27.6511C22.847 27.4765 23.1314 27.2895 23.4065 27.095L22.8345 26.2876C22.5798 26.4693 22.3136 26.6439 22.0469 26.8065Z" fill="#ff0000"/>
<path d="M18.5938 28.3107L18.8609 29.2638C19.1839 29.1732 19.5091 29.0698 19.8263 28.9569L19.4932 28.0249C19.1963 28.1322 18.895 28.2266 18.5938 28.3107Z" fill="#ff0000"/>
<path d="M28.6641 15.9168L29.6512 15.983C29.6739 15.6476 29.6853 15.3072 29.6853 14.9712H28.6957C28.6957 15.2889 28.6851 15.6042 28.6641 15.9168Z" fill="#ff0000"/>
<path d="M28.4102 17.7887L29.3794 17.9866C29.4473 17.6585 29.5045 17.322 29.5502 16.9881L28.5696 16.855C28.5271 17.169 28.4735 17.4824 28.4102 17.7887Z" fill="#ff0000"/>
<path d="M27.9023 19.6084L28.8344 19.9394C28.9477 19.6207 29.0506 19.2963 29.1407 18.9735L28.1874 18.7075C28.1031 19.0078 28.0072 19.311 27.9023 19.6084Z" fill="#ff0000"/>
<path d="M27.1484 21.3428L28.0271 21.7986C28.182 21.5017 28.3284 21.1925 28.4624 20.8833L27.555 20.4873C27.4299 20.7767 27.2929 21.0642 27.1484 21.3428Z" fill="#ff0000"/>
<path d="M2.54908 21.3662L1.67188 21.8243C1.8277 22.1212 1.9956 22.4181 2.17027 22.7044L3.01679 22.1883C2.85155 21.9219 2.69524 21.6452 2.54908 21.3662Z" fill="#ff0000"/>
<path d="M5.49219 26.4997C5.75431 26.7128 6.0261 26.9186 6.29957 27.1116L6.86851 26.3016C6.61098 26.1197 6.35949 25.9293 6.11403 25.7307L5.49219 26.4997Z" fill="#ff0000"/>
<path d="M8.94531 28.5969C9.25261 28.73 9.5703 28.8551 9.88992 28.9684L10.2199 28.0354C9.92302 27.9293 9.62611 27.8131 9.33958 27.689L8.94531 28.5969Z" fill="#ff0000"/>
<path d="M7.14453 27.6654C7.43347 27.841 7.73086 28.0077 8.02874 28.1601L8.48341 27.2808C8.20534 27.1372 7.92824 26.9814 7.65815 26.8176L7.14453 27.6654Z" fill="#ff0000"/>
<path d="M4.00781 25.1176C4.23877 25.365 4.48036 25.6049 4.7246 25.8329L5.3996 25.1087C5.17106 24.8958 4.94541 24.6712 4.72968 24.4412L4.00781 25.1176Z" fill="#ff0000"/>
<path d="M3.53786 22.9783L2.73047 23.5501C2.92495 23.8243 3.13126 24.0944 3.34386 24.3558L4.10824 23.7289C3.91038 23.4863 3.71905 23.2341 3.53786 22.9783Z" fill="#ff0000"/>
<path d="M16.7461 28.6953L16.8802 29.6754C17.2124 29.6298 17.5482 29.5725 17.8787 29.5037L17.6779 28.5349C17.3682 28.5987 17.0561 28.6528 16.7461 28.6953Z" fill="#ff0000"/>
<path d="M12.8398 29.6803C13.1708 29.725 13.5098 29.759 13.8475 29.7793L13.9135 28.7898C13.5972 28.769 13.281 28.7369 12.9734 28.6953L12.8398 29.6803Z" fill="#ff0000"/>
<path d="M14.8594 28.8248V29.8144C15.1983 29.8144 15.5387 29.8025 15.8719 29.7793L15.804 28.7898C15.4923 28.8132 15.1775 28.8248 14.8594 28.8248Z" fill="#ff0000"/>
<path d="M10.8555 29.2729C11.1806 29.3632 11.5121 29.4434 11.8402 29.5109L12.038 28.5416C11.7317 28.4788 11.4225 28.4039 11.1198 28.3198L10.8555 29.2729Z" fill="#ff0000"/>
<path d="M18.8997 4.30348L18.6151 9.14248C18.5738 9.84792 18.8359 10.5374 19.3355 11.0375L20.2954 11.9964L22.0423 7.45089L23.8083 9.21665V11.4006C23.8076 11.7937 23.9641 12.171 24.2431 12.4479L25.101 13.3065L26.1505 11.5574L26.4022 11.8086C26.775 12.1947 27.3268 12.3493 27.8459 12.2135C28.3649 12.0778 28.77 11.6724 28.906 11.1535C29.0418 10.6345 28.8869 10.0825 28.5011 9.70997L28.2499 9.45848L29.9992 8.40878L29.1413 7.5497C28.8638 7.27018 28.4859 7.11363 28.0919 7.11484H25.907L24.1441 5.34956L28.6922 3.60046L27.7302 2.64015C27.2309 2.14006 26.5411 1.87818 25.8359 1.92022L20.9969 2.20481L19.4054 0.612502C18.8178 0.0520177 17.8935 0.0520177 17.306 0.612502C16.7261 1.19231 16.7261 2.13209 17.306 2.7119L18.8997 4.30348ZM19.9219 10.2101C19.6953 9.92402 19.5817 9.56454 19.6027 9.20022L19.8356 5.24205L21.2784 6.68481L19.9219 10.2101ZM24.9061 11.7057C24.8362 11.6178 24.7981 11.5088 24.7978 11.3965V10.2038L25.4306 10.8355L24.9061 11.7057ZM28.0914 8.10293C28.2037 8.10317 28.3127 8.14134 28.4006 8.21116L27.529 8.7371L26.897 8.10583L28.0914 8.10293ZM25.8937 2.90783C26.258 2.88633 26.6177 3.00011 26.9035 3.22697L23.3763 4.58348L21.9336 3.14072L25.8937 2.90783ZM18.0061 1.31262C18.1991 1.11984 18.512 1.11984 18.7052 1.31262L27.8015 10.4091C27.9943 10.6022 27.9943 10.915 27.8015 11.108C27.6058 11.2953 27.2975 11.2953 27.1019 11.108L18.0061 2.01178C17.8133 1.81851 17.8133 1.50589 18.0061 1.31262Z" fill="#ff0000"/>
</g>
<defs>
<clipPath id="clip0_2880_3567">
<rect width="30" height="30" fill="white"/>
</clipPath>
</defs>
</svg>
