<svg width="30" height="30" viewBox="0 0 30 30" fill="none" xmlns="http://www.w3.org/2000/svg">
<g clip-path="url(#clip0_2880_3608)">
<path d="M29.4499 3.94593C29.3928 3.8263 29.2905 3.73426 29.1655 3.68982L18.7939 0.0284525C18.5337 -0.0635883 18.248 0.0731302 18.156 0.333384L15.8 6.99988H14.7695V5.29993C14.7695 4.8346 14.5534 4.39563 14.1848 4.1117C13.8159 3.82776 13.3364 3.73108 12.8865 3.84998L0.872558 7.01648V7.02551C0.654785 7.0802 0.501709 7.27527 0.5 7.49988V28.4998C0.5 29.3282 1.17163 29.9998 2 29.9998H16C16.8283 29.9998 17.5 29.3282 17.5 28.4998V23.963L21.51 25.3785C21.7705 25.4703 22.0561 25.3338 22.1479 25.0733L29.4714 4.32801C29.5153 4.20276 29.5075 4.06531 29.4499 3.94593ZM13.1416 4.81433C13.2915 4.77478 13.4516 4.80701 13.5744 4.90149C13.6975 4.99622 13.7695 5.1427 13.7695 5.29798V6.99988H4.85546L13.1416 4.81433ZM16.5 28.4998C16.5 28.776 16.2761 28.9998 16 28.9998H2C1.72388 28.9998 1.5 28.776 1.5 28.4998V7.99988H16C16.2761 7.99988 16.5 8.22375 16.5 8.49988V28.4998ZM20.6101 9.90344L21.25 9.59997L21.5549 10.2379L19.1255 17.1134C19.0815 17.2384 19.0888 17.3758 19.146 17.4955L19.6665 18.5843L19.5056 19.0409L18.5139 18.014C18.405 17.9003 18.2488 17.8448 18.0925 17.8639L17.5 17.9388V17.2689L17.9265 17.0648C18.0461 17.0077 18.1382 16.9054 18.1826 16.7804L19.1826 13.9525L20.6101 9.90344ZM21.5529 13.2408L22.5681 14.8719L22.3945 15.3634L21.1799 14.2999L21.5529 13.2408ZM17.5 15.7093V14.3353L17.9919 14.3148L17.5 15.7093ZM18.3501 13.2994L17.5 13.3343V12.6688L18.7241 12.2418L18.3501 13.2994ZM21.3711 24.2689L17.5 22.9024V18.9469L17.9685 18.8883L19.3501 20.3175C19.4448 20.4142 19.5747 20.4681 19.7099 20.4674C19.7456 20.4676 19.7812 20.4637 19.8159 20.4559C19.9853 20.419 20.1233 20.2972 20.1809 20.1339L20.6809 18.7193C20.7251 18.5943 20.7177 18.4569 20.6604 18.3375L20.1374 17.2499L20.8215 15.3124L22.2905 16.6C22.3816 16.6798 22.4987 16.724 22.6201 16.724C22.6628 16.724 22.7053 16.7184 22.7466 16.7074C22.907 16.6654 23.0361 16.5467 23.0915 16.3905L23.5915 14.9759C23.6421 14.8326 23.6247 14.6744 23.5444 14.5455L21.9795 12.0314L22.5654 10.3719C22.6096 10.2467 22.6023 10.1092 22.5449 9.98937L21.935 8.71399C21.8159 8.46472 21.5173 8.35925 21.268 8.47839L19.9919 9.0885C19.8725 9.14563 19.7805 9.24792 19.7365 9.37292L19.1499 11.0343L17.5 11.61V8.49988C17.4988 7.97961 17.2273 7.49719 16.7829 7.22644L17.6001 4.9093L17.7834 4.38953L18.9336 1.13953L28.363 4.4679L21.3711 24.2689Z" fill="#fc5e5e"/>
<path d="M25.3164 7.63354L25.6492 6.69043L26.5066 6.99292L26.1738 7.93603L25.3164 7.63354Z" fill="#fc5e5e"/>
<path d="M18.457 5.2124L18.79 4.26953L19.6472 4.57227L19.3142 5.51513L18.457 5.2124Z" fill="#fc5e5e"/>
<path d="M23.6016 7.02832L23.9346 6.08521L24.7917 6.38794L24.4587 7.33081L23.6016 7.02832Z" fill="#fc5e5e"/>
<path d="M20.1719 5.81787L20.5049 4.875L21.3618 5.17773L21.0288 6.1206L20.1719 5.81787Z" fill="#fc5e5e"/>
<path d="M21.8867 6.42261L22.2197 5.47974L23.0769 5.78247L22.7439 6.72534L21.8867 6.42261Z" fill="#fc5e5e"/>
<path d="M8.76952 10C6.00805 10 3.76953 12.2385 3.76953 15C3.76953 17.7615 6.00805 20 8.76952 20C11.531 20 13.7695 17.7615 13.7695 15C13.7666 12.24 11.5298 10.0032 8.76952 10ZM12.3801 13.2905L11.698 13.1406C11.3979 13.0745 11.0979 13.022 10.7949 12.9766C10.749 12.6736 10.6951 12.3721 10.6306 12.0735L10.4805 11.3916C11.3127 11.7878 11.9836 12.4582 12.3801 13.2905ZM4.76953 15C4.77051 14.7956 4.78711 14.5915 4.81958 14.3896L6.0559 14.1145C6.2456 14.0725 6.43652 14.0376 6.62793 14.0046C6.57959 14.6672 6.57959 15.3328 6.62793 15.9956C6.43652 15.9626 6.2456 15.9275 6.0559 15.8855L4.81958 15.6106C4.78711 15.4087 4.77051 15.2046 4.76953 15ZM7.64257 13.8735C8.39208 13.8066 9.14599 13.8066 9.8955 13.8735C9.96264 14.623 9.96264 15.3769 9.8955 16.1265C9.14599 16.1936 8.39208 16.1936 7.64257 16.1265C7.57543 15.3769 7.57543 14.623 7.64257 13.8735ZM10.9089 14.0046C11.1006 14.0376 11.2915 14.0725 11.4809 14.1145L12.7175 14.3896C12.7869 14.7937 12.7869 15.2065 12.7175 15.6106L11.4809 15.8855C11.2915 15.9275 11.1006 15.9626 10.9089 15.9961C10.9575 15.333 10.9575 14.6675 10.9089 14.0046ZM9.37963 11.05L9.65453 12.2871C9.69652 12.4766 9.73192 12.6675 9.76513 12.8591C9.10204 12.8105 8.43652 12.8105 7.77343 12.8591C7.80663 12.6675 7.84155 12.4766 7.88403 12.2871L8.15893 11.05C8.56298 10.9814 8.97558 10.9814 9.37963 11.05ZM7.05957 11.3879L6.90942 12.0701C6.8435 12.3701 6.79101 12.6702 6.7456 12.9731C6.44262 13.0186 6.14111 13.073 5.84253 13.137L5.1604 13.2871C5.55737 12.4556 6.22778 11.7856 7.05957 11.3896V11.3879ZM5.15942 16.708L5.84155 16.8581C6.1416 16.9241 6.4414 16.9766 6.74462 17.022C6.79003 17.3249 6.84448 17.6265 6.90844 17.925L7.05859 18.6069C6.22631 18.2112 5.55566 17.5412 5.15845 16.7095L5.15942 16.708ZM8.15942 18.947L7.88452 17.7099C7.84203 17.521 7.80712 17.3296 7.77392 17.1384C8.10497 17.1626 8.43749 17.1789 8.77001 17.1789C9.10253 17.1789 9.43407 17.1626 9.76562 17.1384C9.73241 17.3296 9.69701 17.521 9.65502 17.7099L9.38012 18.947C8.97607 19.0156 8.56347 19.0156 8.15942 18.947ZM10.4795 18.6091L10.6296 17.927C10.696 17.6269 10.748 17.3271 10.7939 17.0239C11.0964 16.9785 11.3984 16.9241 11.697 16.8601L12.3789 16.71C11.9827 17.543 11.3118 18.2141 10.479 18.6106L10.4795 18.6091Z" fill="#fc5e5e"/>
<path d="M4.76953 24H12.7695V25H4.76953V24Z" fill="#fc5e5e"/>
<path d="M5.76953 26H11.7695V27H5.76953V26Z" fill="#fc5e5e"/>
<path d="M8.26953 22H9.26953V23H8.26953V22Z" fill="#fc5e5e"/>
<path d="M6.26953 22H7.26953V23H6.26953V22Z" fill="#fc5e5e"/>
<path d="M10.2695 22H11.2695V23H10.2695V22Z" fill="#fc5e5e"/>
</g>
<defs>
<clipPath id="clip0_2880_3608">
<rect width="30" height="30" fill="white"/>
</clipPath>
</defs>
</svg>
