<svg width="30" height="30" viewBox="0 0 30 30" fill="none" xmlns="http://www.w3.org/2000/svg">
<g clip-path="url(#clip0_2880_3624)">
<path d="M5.15625 28.125C5.41513 28.125 5.625 27.9151 5.625 27.6562C5.625 27.3974 5.41513 27.1875 5.15625 27.1875C4.89737 27.1875 4.6875 27.3974 4.6875 27.6562C4.6875 27.9151 4.89737 28.125 5.15625 28.125Z" fill="#ff0000"/>
<path d="M22.9688 28.125C23.2276 28.125 23.4375 27.9151 23.4375 27.6562C23.4375 27.3974 23.2276 27.1875 22.9688 27.1875C22.7099 27.1875 22.5 27.3974 22.5 27.6562C22.5 27.9151 22.7099 28.125 22.9688 28.125Z" fill="#ff0000"/>
<path d="M29.8384 20.603L28.7343 11.0353C28.6251 10.0887 27.8242 9.375 26.8717 9.375H25.0517C25.2132 9.09811 25.3125 8.78058 25.3125 8.4375V7.96875C25.3125 7.70967 25.1026 7.5 24.8438 7.5H24.3512C24.1468 4.83436 22.2232 2.64764 19.6875 2.04534V1.875C19.6875 1.37512 19.4923 0.904547 19.1375 0.549797C18.783 0.195047 18.3124 0 17.8125 0C16.7786 0 15.9375 0.840891 15.9375 1.875V2.0453C14.4148 2.40694 13.1108 3.33689 12.2683 4.60327C12.2402 4.5697 12.217 4.53347 12.1875 4.5007V1.40625C12.1875 1.14717 11.9776 0.9375 11.7188 0.9375H9.84375C9.58491 0.9375 9.375 1.14717 9.375 1.40625V4.50117C8.77692 5.16998 8.4375 6.05161 8.4375 6.95156V9.37495H6.87834C6.19088 9.37495 5.58675 9.74977 5.26022 10.3125H1.40625C0.630797 10.3125 0 10.9433 0 11.7187C0 12.4942 0.630797 13.125 1.40625 13.125H4.77436L3.91134 20.6039C3.8498 21.1386 4.09214 21.6526 4.54397 21.9461C4.99416 22.2386 5.56087 22.2505 6.04064 21.9658C6.2167 21.8616 6.37683 21.7685 6.5625 21.6975V25.7932C6.16955 25.4957 5.68589 25.3125 5.15625 25.3125C3.864 25.3125 2.8125 26.364 2.8125 27.6562C2.8125 28.9485 3.864 30 5.15625 30C6.4485 30 7.5 28.9485 7.5 27.6562V27.1875H20.6724C20.6415 27.339 20.625 27.4957 20.625 27.6562C20.625 28.9485 21.6765 30 22.9688 30C24.261 30 25.3125 28.9485 25.3125 27.6562C25.3125 27.4957 25.296 27.339 25.2651 27.1875H27.6562C27.9151 27.1875 28.125 26.9778 28.125 26.7187V22.134C28.4898 22.2196 28.878 22.1573 29.2053 21.9451C29.6574 21.6522 29.9 21.1377 29.8384 20.603ZM12.1875 9.375C11.6705 9.375 11.25 8.9543 11.25 8.4375H24.375C24.375 8.9543 23.9545 9.375 23.4375 9.375H12.1875ZM16.875 1.875C16.875 1.3582 17.2955 0.9375 17.8125 0.9375C18.062 0.9375 18.2973 1.035 18.4747 1.21261C18.6523 1.39022 18.75 1.62553 18.75 1.875V1.89877C18.5948 1.88686 18.4395 1.875 18.2812 1.875H17.3435C17.1854 1.875 17.0302 1.88686 16.875 1.89877V1.875ZM17.3435 2.8125H18.2812C20.9665 2.8125 23.1788 4.87566 23.4165 7.5H12.2085C12.4461 4.87566 14.6583 2.8125 17.3435 2.8125ZM10.3125 1.875H11.25V2.8125H10.3125V1.875ZM9.375 6.95161C9.375 6.23198 9.66661 5.5275 10.1752 5.01895C10.263 4.93106 10.3125 4.81205 10.3125 4.68755V3.75005H11.25V4.68755C11.25 4.81205 11.2995 4.93106 11.3873 5.01895C11.5403 5.17195 11.6632 5.34061 11.7699 5.51569C11.498 6.13087 11.3275 6.79889 11.2738 7.50005H10.7812C10.5224 7.50005 10.3125 7.70972 10.3125 7.9688V8.43755C10.3125 8.78062 10.4118 9.09816 10.5733 9.37505H9.375V6.95161ZM1.40625 12.1875C1.14783 12.1875 0.9375 11.9774 0.9375 11.7188C0.9375 11.4601 1.14783 11.25 1.40625 11.25H4.99073L4.88255 12.1875H1.40625ZM11.894 22.2257C11.9003 22.2232 11.9057 22.2198 11.9118 22.2171C12.0813 22.1374 12.2317 22.05 12.3738 21.9658C12.7539 21.7406 13.0545 21.5625 13.7171 21.5625C14.3792 21.5625 14.6793 21.7406 15.059 21.9658C15.4815 22.2162 15.9601 22.5 16.8791 22.5C17.798 22.5 18.2773 22.2162 18.6998 21.9658C19.08 21.7406 19.3803 21.5625 20.0427 21.5625C20.705 21.5625 21.0051 21.7406 21.3853 21.9658C21.8076 22.2162 22.2864 22.5 23.2056 22.5C24.1248 22.5 24.6036 22.2162 25.0259 21.9658C25.4061 21.7406 25.7062 21.5625 26.3685 21.5625C26.7216 21.5625 26.9708 21.6142 27.1875 21.6971V24.375H7.5V21.5665C8.08219 21.5865 8.373 21.7544 8.73023 21.9658C9.153 22.2162 9.63248 22.5 10.5526 22.5C11.1519 22.5 11.5627 22.379 11.894 22.2257ZM5.15625 29.0625C4.3808 29.0625 3.75 28.4317 3.75 27.6562C3.75 26.8808 4.3808 26.25 5.15625 26.25C5.9317 26.25 6.5625 26.8808 6.5625 27.6562C6.5625 28.4317 5.9317 29.0625 5.15625 29.0625ZM22.9688 29.0625C22.1933 29.0625 21.5625 28.4317 21.5625 27.6562C21.5625 26.8808 22.1933 26.25 22.9688 26.25C23.7442 26.25 24.375 26.8808 24.375 27.6562C24.375 28.4317 23.7442 29.0625 22.9688 29.0625ZM27.1875 26.25H24.8317C24.4035 25.6842 23.7314 25.3125 22.9688 25.3125C22.2061 25.3125 21.534 25.6842 21.1058 26.25H7.5V25.3125H27.1875V26.25ZM28.6954 21.1583C28.5434 21.2567 28.3603 21.2613 28.1888 21.1592C28.079 21.0942 27.9648 21.027 27.8407 20.963L27.8374 20.9614C27.4844 20.7797 27.0466 20.625 26.3686 20.625C25.4492 20.625 24.9704 20.9089 24.5481 21.1592C24.1679 21.3845 23.8678 21.5625 23.2057 21.5625C22.5435 21.5625 22.2435 21.3845 21.8633 21.1592C21.441 20.9088 20.9621 20.625 20.0427 20.625C19.1233 20.625 18.6445 20.9089 18.222 21.1592C17.8418 21.3845 17.5415 21.5625 16.8791 21.5625C16.2172 21.5625 15.9172 21.3845 15.5374 21.1592C15.3743 21.0626 15.202 20.9613 15 20.8729V18.75C15 18.491 14.7901 18.2813 14.5312 18.2813C14.2724 18.2813 14.0625 18.491 14.0625 18.75V20.6403C13.9543 20.6309 13.8402 20.625 13.7171 20.625C12.9993 20.625 12.5511 20.7982 12.1875 20.9932V15C12.1875 14.741 11.9776 14.5313 11.7188 14.5313C11.4599 14.5313 11.25 14.741 11.25 15V21.4696C11.0616 21.527 10.8428 21.5625 10.5526 21.5625C9.88908 21.5625 9.58833 21.3845 9.2077 21.1592C8.78494 20.9088 8.30569 20.625 7.38558 20.625C6.46547 20.625 5.98575 20.9089 5.5447 21.1703C5.38931 21.2618 5.20617 21.2577 5.05444 21.1597C4.90111 21.0599 4.82189 20.8924 4.84294 20.7111L5.94684 11.1425C5.95387 11.0816 5.96709 11.0228 5.985 10.9663L5.98725 10.9608C6.11034 10.5813 6.46547 10.3125 6.87839 10.3125H26.8717C27.348 10.3125 27.7485 10.6695 27.803 11.1424L28.9069 20.7101C28.9277 20.8914 28.8488 21.0589 28.6954 21.1583Z" fill="#ff0000"/>
<path d="M14.5312 12.1875C14.2724 12.1875 14.0625 12.3972 14.0625 12.6562V15.9375C14.0625 16.1966 14.2724 16.4062 14.5312 16.4062C14.7901 16.4062 15 16.1966 15 15.9375V12.6562C15 12.3972 14.7901 12.1875 14.5312 12.1875Z" fill="#ff0000"/>
<path d="M22.0312 14.5312C21.7724 14.5312 21.5625 14.7409 21.5625 15V19.2188C21.5625 19.4778 21.7724 19.6875 22.0312 19.6875C22.2901 19.6875 22.5 19.4778 22.5 19.2188V15C22.5 14.7409 22.2901 14.5312 22.0312 14.5312Z" fill="#ff0000"/>
</g>
<defs>
<clipPath id="clip0_2880_3624">
<rect width="30" height="30" fill="white"/>
</clipPath>
</defs>
</svg>
