<svg width="30" height="30" viewBox="0 0 30 30" fill="none" xmlns="http://www.w3.org/2000/svg">
<path d="M29.06 5.15635C29.06 5.07632 29.0395 4.99762 29.0005 4.92775C28.9615 4.85788 28.9052 4.79917 28.837 4.75721L22.7458 1.00721C22.6711 0.962551 22.5858 0.938965 22.4988 0.938965C22.4118 0.938965 22.3264 0.962551 22.2518 1.00721L19.5341 2.68018C18.0823 2.14561 16.5471 1.87302 15 1.8751C8.47419 1.8751 2.92829 6.69608 2.00872 13.1251H1.40626C1.32966 13.1251 1.25422 13.1439 1.18655 13.1798C1.11888 13.2157 1.06104 13.2676 1.0181 13.3311C0.975151 13.3945 0.948404 13.4675 0.940198 13.5436C0.931991 13.6198 0.942575 13.6968 0.971024 13.7679L1.90852 16.1117C1.94331 16.1987 2.00337 16.2732 2.08095 16.3258C2.15853 16.3783 2.25007 16.4064 2.34376 16.4064C2.43745 16.4064 2.52899 16.3783 2.60656 16.3258C2.68414 16.2732 2.7442 16.1987 2.77899 16.1117L3.71649 13.7679C3.74494 13.6968 3.75552 13.6198 3.74732 13.5436C3.73911 13.4675 3.71237 13.3945 3.66942 13.3311C3.62647 13.2676 3.56863 13.2157 3.50097 13.1798C3.4333 13.1439 3.35786 13.1251 3.28126 13.1251H2.95624C3.8672 7.22249 8.9853 2.8126 15 2.8126C16.1829 2.81137 17.3596 2.98267 18.4931 3.32108L16.166 4.75387C15.7789 4.71008 15.3896 4.68795 15 4.6876C9.31366 4.6876 4.68751 9.31375 4.68751 15.0001C4.68751 20.6864 9.31366 25.3126 15 25.3126C20.6864 25.3126 25.3125 20.6864 25.3125 15.0001C25.3123 14.5169 25.2786 14.0343 25.2115 13.5557C25.4274 13.3882 25.6473 13.2041 25.8677 13.0004C27.3239 11.6539 29.06 9.19997 29.06 5.15635ZM2.34376 14.6754L2.0986 14.0626H2.58891L2.34376 14.6754ZM12.6563 5.92153C13.4219 5.72415 14.2094 5.62455 15 5.6251C15.3164 5.6251 15.6341 5.64174 15.9483 5.67321C16.089 9.40997 17.7369 11.7124 19.13 13.0004C19.7921 13.6125 20.5342 14.1317 21.336 14.544L21.2066 14.6951C21.1466 14.7651 21.1086 14.8513 21.0973 14.9429C21.086 15.0344 21.102 15.1272 21.1433 15.2098L21.4779 15.879L20.2478 17.4165L19.638 16.1968C19.6089 16.1386 19.5681 16.0872 19.5181 16.0457C19.4681 16.0042 19.41 15.9736 19.3475 15.9557L16.5656 15.1608L17.3102 13.2992C17.3443 13.214 17.3526 13.1207 17.3342 13.0308C17.3158 12.941 17.2713 12.8585 17.2065 12.7936L15.9375 11.5247V10.3126C15.9375 10.1883 15.8881 10.0691 15.8002 9.98115C15.7123 9.89324 15.5931 9.84385 15.4688 9.84385H14.2567L13.6613 9.24848L14.0384 8.11709C14.0579 8.0587 14.0657 7.99703 14.0613 7.93563C14.057 7.87422 14.0406 7.81428 14.013 7.75922C13.9855 7.70415 13.9474 7.65505 13.9009 7.61471C13.8544 7.57438 13.8004 7.5436 13.742 7.52413L12.6563 7.16225V5.92153ZM15 24.3751C12.9775 24.3773 11.0091 23.722 9.39153 22.508L10.2945 19.3476C10.3174 19.2672 10.3185 19.1822 10.2975 19.1012C10.2765 19.0203 10.2343 18.9465 10.1752 18.8874L9.61987 18.332L11.0625 17.2501C11.1486 17.1855 11.2099 17.0932 11.236 16.9888L11.4874 15.9832L14.0324 18.8918L13.6001 21.4856C13.5837 21.5844 13.5993 21.686 13.6448 21.7753C13.6903 21.8646 13.7632 21.937 13.8529 21.9818L17.7909 23.9509C16.8875 24.2329 15.9464 24.3759 15 24.3751ZM18.9535 23.4994L18.9594 23.4871L14.5815 21.2982L14.9933 18.8272C15.0047 18.7588 15.0008 18.6887 14.9819 18.622C14.9629 18.5553 14.9294 18.4936 14.8838 18.4414L11.6025 14.6914C11.5461 14.627 11.4732 14.5792 11.3916 14.5533C11.31 14.5274 11.2229 14.5243 11.1397 14.5444C11.0565 14.5645 10.9804 14.607 10.9196 14.6673C10.8588 14.7276 10.8157 14.8034 10.795 14.8864L10.3669 16.5997L8.62501 17.9064C8.57128 17.9466 8.52684 17.998 8.49469 18.057C8.46254 18.1159 8.44344 18.1811 8.43868 18.2481C8.43392 18.3151 8.44361 18.3823 8.46709 18.4453C8.49057 18.5082 8.5273 18.5653 8.57479 18.6128L9.31729 19.3553L8.60491 21.8485C7.66429 20.973 6.91422 19.913 6.40152 18.7347C5.88881 17.5564 5.62448 16.2851 5.62501 15.0001C5.62501 10.9846 8.16294 7.55114 11.7188 6.21819V7.5001C11.7188 7.59849 11.7497 7.69438 11.8072 7.7742C11.8647 7.85402 11.9459 7.91371 12.0393 7.94483L13.0008 8.26534L12.6803 9.22686C12.6528 9.30944 12.6488 9.39807 12.6688 9.48279C12.6888 9.56752 12.732 9.64501 12.7935 9.70657L13.731 10.6441C13.7746 10.6876 13.8262 10.7221 13.8831 10.7457C13.94 10.7692 14.001 10.7814 14.0625 10.7814H15V11.7189C15 11.7804 15.0121 11.8414 15.0357 11.8982C15.0592 11.9551 15.0938 12.0068 15.1373 12.0503L16.325 13.238L15.5023 15.2947C15.4779 15.3556 15.4666 15.4209 15.4691 15.4864C15.4716 15.552 15.4878 15.6163 15.5166 15.6751C15.5455 15.734 15.5865 15.7862 15.6368 15.8283C15.6871 15.8704 15.7457 15.9014 15.8087 15.9194L18.8917 16.8003L19.737 18.4909C19.7722 18.5612 19.8245 18.6216 19.8892 18.6664C19.9538 18.7112 20.0287 18.739 20.1069 18.7473C20.1851 18.7555 20.2641 18.744 20.3367 18.7137C20.4092 18.6835 20.473 18.6354 20.5222 18.574L22.3972 16.2303C22.4531 16.1604 22.4878 16.0759 22.4973 15.9868C22.5067 15.8978 22.4904 15.8079 22.4504 15.7278L22.1208 15.0687L22.2322 14.9385C22.3003 14.9628 22.3422 14.9761 22.3518 14.9791C22.3966 14.9929 22.4432 15 22.49 15H22.5068C22.5537 15 22.6003 14.9929 22.645 14.9791C22.6891 14.9655 23.4009 14.7409 24.3373 14.1622C24.3619 14.4405 24.3747 14.7204 24.3747 15.0001C24.373 16.7857 23.8621 18.5338 22.9019 20.0393C21.9417 21.5447 20.5719 22.7451 18.9535 23.4994ZM25.2616 12.2838C24.459 13.037 23.5214 13.632 22.4981 14.0376C21.4875 13.6386 20.5609 13.0533 19.7665 12.3121C17.9041 10.5902 16.9329 8.27126 16.8775 5.41657L22.4988 1.9559L28.12 5.41657C28.065 8.25502 27.104 10.5642 25.2616 12.2838Z" fill="#ff0000"/>
<path d="M8.07834 26.1545C10.1557 27.4447 12.5529 28.1273 14.9983 28.125C21.5273 28.125 27.07 23.3053 27.9896 16.875H28.592C28.6686 16.875 28.744 16.8562 28.8117 16.8203C28.8794 16.7844 28.9372 16.7325 28.9802 16.6691C29.0231 16.6056 29.0499 16.5326 29.0581 16.4565C29.0663 16.3803 29.0557 16.3033 29.0272 16.2322L28.0897 13.8884C28.055 13.8014 27.9949 13.7269 27.9173 13.6744C27.8397 13.6218 27.7482 13.5938 27.6545 13.5938C27.5608 13.5938 27.4693 13.6218 27.3917 13.6744C27.3141 13.7269 27.2541 13.8014 27.2193 13.8884L26.2818 16.2322C26.2533 16.3033 26.2427 16.3803 26.251 16.4565C26.2592 16.5326 26.2859 16.6056 26.3289 16.6691C26.3718 16.7325 26.4296 16.7844 26.4973 16.8203C26.565 16.8562 26.6404 16.875 26.717 16.875H27.0419C26.1311 22.7788 21.0158 27.1875 14.9983 27.1875C12.7607 27.1882 10.5662 26.5727 8.65518 25.4088C6.74421 24.2448 5.19059 22.5771 4.16463 20.5886C4.13673 20.5333 4.09814 20.4841 4.0511 20.4438C4.00405 20.4035 3.94948 20.3729 3.89054 20.3538C3.8316 20.3347 3.76946 20.3275 3.70772 20.3325C3.64597 20.3376 3.58584 20.3549 3.53081 20.3833C3.47578 20.4118 3.42693 20.4509 3.38709 20.4983C3.34726 20.5458 3.31722 20.6006 3.29872 20.6598C3.28023 20.7189 3.27363 20.7811 3.27933 20.8428C3.28502 20.9045 3.30289 20.9644 3.33189 21.0192C4.42252 23.1273 6.06245 24.9016 8.07834 26.1545ZM27.6545 15.3247L27.8997 15.9375H27.4094L27.6545 15.3247Z" fill="#ff0000"/>
<path d="M26.9204 5.77302C25.9106 5.15105 24.2256 4.11599 22.7455 3.20767C22.6717 3.16233 22.5867 3.13837 22.5 3.13843C22.4134 3.13849 22.3284 3.16258 22.2546 3.20802L18.0824 5.7766C18.008 5.82239 17.9479 5.88805 17.9088 5.96617C17.8698 6.04429 17.8533 6.13177 17.8614 6.21874C18.0596 8.3737 18.8764 10.1557 20.2889 11.515C20.8794 12.0817 21.5523 12.5555 22.2848 12.9205C22.3494 12.9524 22.4204 12.969 22.4924 12.9691C22.5644 12.9692 22.6355 12.9526 22.7001 12.9208C23.4357 12.5559 24.1118 12.0816 24.7053 11.5141C26.1232 10.1541 26.943 8.3713 27.1414 6.21511C27.1494 6.12815 27.1329 6.04069 27.0939 5.96258C27.0549 5.88447 26.9948 5.81882 26.9204 5.77302ZM24.0564 10.8375C23.5888 11.2845 23.063 11.6664 22.4932 11.9729C21.9266 11.6667 21.4038 11.2855 20.939 10.8395C19.7559 9.70091 19.0456 8.21515 18.8257 6.4199L22.5007 4.15742C23.7991 4.95429 25.215 5.82417 26.177 6.41626C25.9567 8.21204 25.2441 9.69845 24.0564 10.8375Z" fill="#ff0000"/>
<path d="M21.4252 8.10605C21.3373 8.01814 21.2181 7.96875 21.0938 7.96875C20.9694 7.96875 20.8502 8.01814 20.7623 8.10605C20.6744 8.19396 20.625 8.31319 20.625 8.43751C20.625 8.56184 20.6744 8.68107 20.7623 8.76898L21.6998 9.70648C21.7433 9.75001 21.795 9.78454 21.8519 9.80809C21.9087 9.83165 21.9697 9.84378 22.0313 9.84378C22.0928 9.84378 22.1538 9.83165 22.2107 9.80809C22.2675 9.78454 22.3192 9.75001 22.3627 9.70648L24.7065 7.36273C24.7944 7.27482 24.8438 7.15559 24.8438 7.03126C24.8438 6.90694 24.7944 6.78771 24.7065 6.6998C24.6186 6.61189 24.4993 6.5625 24.375 6.5625C24.2507 6.5625 24.1315 6.61189 24.0435 6.6998L22.0313 8.71214L21.4252 8.10605Z" fill="#ff0000"/>
</svg>
