<svg width="30" height="30" viewBox="0 0 30 30" fill="none" xmlns="http://www.w3.org/2000/svg">
<g clip-path="url(#clip0_2880_3682)">
<path d="M29.2128 23.1433L23.1407 19.0939C22.3701 18.5842 21.3372 18.7519 20.7675 19.4793L18.9988 21.7535C18.7715 22.0532 18.3583 22.1402 18.0294 21.9575L17.693 21.772C16.5776 21.1641 15.1899 20.4072 12.3938 17.6101C9.59768 14.813 8.83929 13.4242 8.23136 12.3109L8.04687 11.9745C7.86169 11.6457 7.94699 11.2307 8.24682 11.0016L10.5195 9.2334C11.2466 8.66366 11.4146 7.63104 10.9054 6.86024L6.85601 0.788129C6.3342 0.00320626 5.28728 -0.232423 4.47945 0.253189L1.94032 1.77845C1.14251 2.24748 0.557184 3.0071 0.307084 3.89812C-0.607253 7.22961 0.0805938 12.9793 8.55035 21.45C15.2879 28.187 20.3036 29.9988 23.7511 29.9988C24.5445 30.0022 25.3349 29.8989 26.1008 29.6918C26.992 29.442 27.7517 28.8566 28.2205 28.0586L29.7472 25.521C30.2336 24.713 29.998 23.6654 29.2128 23.1433ZM28.8858 25.008L27.3625 27.5471C27.026 28.1232 26.4795 28.5467 25.8377 28.729C22.7622 29.5734 17.389 28.874 9.25771 20.7427C1.1264 12.6114 0.427066 7.23864 1.27145 4.16263C1.454 3.52007 1.87804 2.97294 2.45475 2.63584L4.99389 1.11257C5.3444 0.901667 5.79879 1.0039 6.02522 1.34451L8.22491 4.64701L10.0712 7.41609C10.2923 7.75044 10.2196 8.19855 9.9042 8.44596L7.63104 10.2142C6.93926 10.7431 6.74172 11.7002 7.16763 12.4599L7.34813 12.7878C7.98706 13.9596 8.78141 15.4174 11.6815 18.317C14.5816 21.2166 16.0389 22.011 17.2102 22.6498L17.5386 22.8308C18.2981 23.2567 19.2553 23.0592 19.7843 22.3674L21.5525 20.0942C21.7999 19.779 22.2479 19.7064 22.5824 19.9273L28.6539 23.9767C28.9948 24.2029 29.097 24.6576 28.8858 25.008Z" fill="#fc5e5e"/>
<path d="M16.9999 5.0025C21.6915 5.00771 25.4934 8.80971 25.4987 13.5013C25.4987 13.7774 25.7225 14.0012 25.9986 14.0012C26.2747 14.0012 26.4985 13.7774 26.4985 13.5013C26.4927 8.25772 22.2434 4.00843 16.9999 4.00269C16.7238 4.00269 16.5 4.22648 16.5 4.50259C16.5 4.7787 16.7238 5.0025 16.9999 5.0025Z" fill="#fc5e5e"/>
<path d="M16.9999 8.00201C20.0356 8.00558 22.4955 10.4656 22.4991 13.5012C22.4991 13.7773 22.723 14.0011 22.999 14.0011C23.2751 14.0011 23.4989 13.7773 23.4989 13.5012C23.4948 9.91358 20.5875 7.0063 16.9999 7.0022C16.7238 7.0022 16.5 7.22599 16.5 7.5021C16.5 7.77822 16.7238 8.00201 16.9999 8.00201Z" fill="#fc5e5e"/>
<path d="M16.9999 11.0015C18.3797 11.0032 19.4979 12.1213 19.4996 13.5012C19.4996 13.7773 19.7234 14.0011 19.9995 14.0011C20.2755 14.0011 20.4994 13.7773 20.4994 13.5012C20.4971 11.5694 18.9317 10.0039 16.9999 10.0017C16.7238 10.0017 16.5 10.2255 16.5 10.5016C16.5 10.7777 16.7238 11.0015 16.9999 11.0015Z" fill="#fc5e5e"/>
</g>
<defs>
<clipPath id="clip0_2880_3682">
<rect width="30" height="30" fill="white"/>
</clipPath>
</defs>
</svg>
