<svg width="60" height="60" viewBox="0 0 60 60" fill="none" xmlns="http://www.w3.org/2000/svg">
<path d="M54.3101 10.5681H49.6699V8.02122C49.6699 5.89309 47.9391 4.16223 45.8113 4.16223C43.6835 4.16223 41.9523 5.89309 41.9523 8.02122V10.5679H33.8587V8.02122C33.8587 5.89309 32.1278 4.16223 30 4.16223C27.8722 4.16223 26.141 5.89309 26.141 8.02122V10.5679H18.0474V8.02122C18.0474 5.89309 16.3163 4.16223 14.1884 4.16223C12.0605 4.16223 10.3297 5.89309 10.3297 8.02122V10.5679H5.6897C3.1738 10.5679 1.12677 12.6151 1.12677 15.1311V15.1333V51.2744C1.12677 53.7903 3.17368 55.8376 5.68993 55.8376H54.3099C56.8261 55.8376 58.8733 53.7904 58.8733 51.2744V40.5195C58.8733 40.1306 58.558 39.8154 58.1691 39.8154C57.7801 39.8154 57.4649 40.1306 57.4649 40.5195V51.2744C57.4649 53.0141 56.0496 54.4291 54.3099 54.4291H5.68993C3.95052 54.4291 2.53525 53.0141 2.53525 51.2744V24.17H57.4648V34.2151C57.4648 34.604 57.78 34.9193 58.169 34.9193C58.5579 34.9193 58.8731 34.604 58.8731 34.2151C58.8731 31.516 58.8731 17.831 58.8731 15.1333V15.1311C58.8733 12.6152 56.8263 10.5681 54.3101 10.5681ZM43.3608 8.02122C43.3608 6.66993 44.46 5.57071 45.8113 5.57071C47.1622 5.57071 48.2615 6.66993 48.2615 8.02122V13.2303C48.2615 14.5816 47.1622 15.6808 45.8113 15.6808C44.46 15.6808 43.3608 14.5816 43.3608 13.2303V8.02122ZM27.5495 8.02122C27.5495 6.66993 28.6487 5.57071 30 5.57071C31.351 5.57071 32.4502 6.66993 32.4502 8.02122V13.2303C32.4502 14.5816 31.351 15.6808 30 15.6808C28.6487 15.6808 27.5495 14.5816 27.5495 13.2303V8.02122ZM11.7383 8.02122C11.7383 6.66993 12.8376 5.57071 14.1885 5.57071C15.5398 5.57071 16.639 6.66993 16.639 8.02122V13.2303C16.639 14.5816 15.5398 15.6808 14.1885 15.6808C12.8376 15.6808 11.7383 14.5816 11.7383 13.2303V8.02122ZM2.53525 22.7615V15.1333C2.53525 13.3937 3.95052 11.9786 5.68993 11.9786H10.3299V13.2303C10.3299 15.3584 12.0607 17.0893 14.1885 17.0893C16.3163 17.0893 18.0475 15.3584 18.0475 13.2303V11.9786H26.1411V13.2303C26.1411 15.3584 27.8722 17.0893 30.0001 17.0893C32.128 17.0893 33.8588 15.3584 33.8588 13.2303V11.9786H41.9524V13.2303C41.9524 15.3584 43.6835 17.0893 45.8114 17.0893C47.9392 17.0893 49.6701 15.3584 49.6701 13.2303V11.9786H54.31C56.0496 11.9786 57.465 13.3937 57.465 15.1333V22.7615H2.53525Z" fill="#fc5e5e"/>
<path d="M14.8941 30.4195C14.8941 29.1591 13.8686 28.1335 12.6081 28.1335H8.56186C7.30139 28.1335 6.27588 29.1591 6.27588 30.4195V33.6958C6.27588 34.9563 7.30139 35.9818 8.56186 35.9818H12.6081C13.8686 35.9818 14.8941 34.9563 14.8941 33.6958V30.4195ZM13.4856 33.6958C13.4856 34.1795 13.092 34.5733 12.6081 34.5733H8.56186C8.07799 34.5733 7.68436 34.1794 7.68436 33.6958V30.4195C7.68436 29.9359 8.07799 29.542 8.56186 29.542H12.6081C13.092 29.542 13.4856 29.9359 13.4856 30.4195V33.6958Z" fill="#fc5e5e"/>
<path d="M27.8373 30.4195C27.8373 29.1591 26.8118 28.1335 25.5514 28.1335H21.5051C20.2446 28.1335 19.2194 29.1591 19.2194 30.4195V33.6958C19.2194 34.9563 20.2446 35.9818 21.5051 35.9818H25.5514C26.8118 35.9818 27.8373 34.9563 27.8373 33.6958V30.4195ZM26.4289 33.6958C26.4289 34.1795 26.0352 34.5733 25.5514 34.5733H21.5051C21.0215 34.5733 20.6278 34.1794 20.6278 33.6958V30.4195C20.6278 29.9359 21.0215 29.542 21.5051 29.542H25.5514C26.0352 29.542 26.4289 29.9359 26.4289 30.4195V33.6958Z" fill="#fc5e5e"/>
<path d="M40.7807 30.4195C40.7807 29.1591 39.7552 28.1335 38.4947 28.1335H34.4485C33.188 28.1335 32.1625 29.1591 32.1625 30.4195V33.6958C32.1625 34.9563 33.188 35.9818 34.4485 35.9818H38.4947C39.7552 35.9818 40.7807 34.9563 40.7807 33.6958V30.4195ZM39.3722 33.6958C39.3722 34.1795 38.9786 34.5733 38.4947 34.5733H34.4485C33.9646 34.5733 33.571 34.1794 33.571 33.6958V30.4195C33.571 29.9359 33.9646 29.542 34.4485 29.542H38.4947C38.9786 29.542 39.3722 29.9359 39.3722 30.4195V33.6958Z" fill="#fc5e5e"/>
<path d="M53.7239 30.4195C53.7239 29.1591 52.6984 28.1335 51.4379 28.1335H47.3917C46.1312 28.1335 45.1057 29.1591 45.1057 30.4195V33.6958C45.1057 34.9563 46.1312 35.9818 47.3917 35.9818H51.4379C52.6984 35.9818 53.7239 34.9563 53.7239 33.6958V30.4195ZM52.3154 33.6958C52.3154 34.1795 51.9218 34.5733 51.4379 34.5733H47.3917C46.9078 34.5733 46.5142 34.1794 46.5142 33.6958V30.4195C46.5142 29.9359 46.9078 29.542 47.3917 29.542H51.4379C51.9218 29.542 52.3154 29.9359 52.3154 30.4195V33.6958Z" fill="#fc5e5e"/>
<path d="M12.6081 41.8241H8.56186C7.30139 41.8241 6.27588 42.849 6.27588 44.1095V47.3858C6.27588 48.6463 7.30139 49.6718 8.56186 49.6718H12.6081C13.8686 49.6718 14.8941 48.6463 14.8941 47.3858V44.1095C14.8941 42.8491 13.8686 41.8241 12.6081 41.8241ZM13.4856 47.3858C13.4856 47.8695 13.092 48.2633 12.6081 48.2633H8.56186C8.07799 48.2633 7.68436 47.8693 7.68436 47.3858V44.1095C7.68436 43.6259 8.07799 43.2325 8.56186 43.2325H12.6081C13.092 43.2325 13.4856 43.6259 13.4856 44.1095V47.3858Z" fill="#fc5e5e"/>
<path d="M25.5514 41.8241H21.5051C20.2446 41.8241 19.2194 42.849 19.2194 44.1095V47.3858C19.2194 48.6463 20.2446 49.6718 21.5051 49.6718H25.5514C26.8118 49.6718 27.8373 48.6463 27.8373 47.3858V44.1095C27.8373 42.8491 26.8117 41.8241 25.5514 41.8241ZM26.4289 47.3858C26.4289 47.8695 26.0352 48.2633 25.5514 48.2633H21.5051C21.0215 48.2633 20.6278 47.8693 20.6278 47.3858V44.1095C20.6278 43.6259 21.0215 43.2325 21.5051 43.2325H25.5514C26.0352 43.2325 26.4289 43.6259 26.4289 44.1095V47.3858Z" fill="#fc5e5e"/>
<path d="M38.4947 41.8241H34.4485C33.188 41.8241 32.1625 42.849 32.1625 44.1095V47.3858C32.1625 48.6463 33.188 49.6718 34.4485 49.6718H38.4947C39.7552 49.6718 40.7807 48.6463 40.7807 47.3858V44.1095C40.7807 42.8491 39.7552 41.8241 38.4947 41.8241ZM39.3722 47.3858C39.3722 47.8695 38.9786 48.2633 38.4947 48.2633H34.4485C33.9646 48.2633 33.571 47.8693 33.571 47.3858V44.1095C33.571 43.6259 33.9646 43.2325 34.4485 43.2325H38.4947C38.9786 43.2325 39.3722 43.6259 39.3722 44.1095V47.3858Z" fill="#fc5e5e"/>
<path d="M51.4379 41.8241H47.3917C46.1312 41.8241 45.1057 42.849 45.1057 44.1095V47.3858C45.1057 48.6463 46.1312 49.6718 47.3917 49.6718H51.4379C52.6984 49.6718 53.7239 48.6463 53.7239 47.3858V44.1095C53.7239 42.8491 52.6983 41.8241 51.4379 41.8241ZM52.3154 47.3858C52.3154 47.8695 51.9218 48.2633 51.4379 48.2633H47.3917C46.9078 48.2633 46.5142 47.8693 46.5142 47.3858V44.1095C46.5142 43.6259 46.9078 43.2325 47.3917 43.2325H51.4379C51.9218 43.2325 52.3154 43.6259 52.3154 44.1095V47.3858Z" fill="#fc5e5e"/>
</svg>
