<svg width="60" height="60" viewBox="0 0 60 60" fill="none" xmlns="http://www.w3.org/2000/svg">
<path d="M43.4953 0.000344372C35.1479 0.0590889 28.295 6.8977 28.2194 15.2448C28.1777 19.8446 30.1335 24.1207 33.6099 27.0866C33.3754 27.7035 33.0811 28.2963 32.731 28.8558C31.7003 30.5029 32.7659 32.6642 34.6998 32.8541C35.246 32.9084 35.7384 32.5091 35.7927 31.9567C35.8467 31.4072 35.445 30.9178 34.8953 30.8638C34.4379 30.819 34.1832 30.3049 34.4263 29.9164C34.9863 29.0214 35.4275 28.055 35.7372 27.0446C35.8589 26.6476 35.7228 26.2169 35.3951 25.962C32.0674 23.3742 30.1808 19.4744 30.2192 15.2627C30.285 8.00072 36.2472 2.05115 43.5096 2.00003C51.0008 1.95454 56.9938 7.9976 56.9938 15.3873C56.9938 26.6281 47.8668 29.7603 42.4262 30.627C41.8809 30.7138 41.5092 31.2264 41.596 31.7717C41.6828 32.3169 42.1941 32.6882 42.7408 32.6019C52.542 31.0406 58.9935 25.2612 58.9935 15.3874C58.9935 6.90695 52.1118 -0.0564003 43.4953 0.000344372Z" fill="#fc5e5e"/>
<path d="M44.1199 8.37415H43.12C41.466 8.37415 40.1203 9.71989 40.1203 11.3739V12.9987H38.4954C36.8415 12.9987 35.4957 14.3445 35.4957 15.9984V16.9983C35.4957 18.6523 36.8415 19.9981 38.4954 19.9981H40.1203V21.6229C40.1203 23.2769 41.466 24.6226 43.12 24.6226H44.1199C45.7739 24.6226 47.1196 23.2769 47.1196 21.6229V19.9981H48.7445C50.3985 19.9981 51.7442 18.6523 51.7442 16.9983V15.9984C51.7442 14.3445 50.3985 12.9987 48.7445 12.9987H47.1196V11.3739C47.1196 9.71977 45.774 8.37415 44.1199 8.37415ZM48.7445 14.9985C49.2958 14.9985 49.7444 15.4471 49.7444 15.9984V16.9983C49.7444 17.5497 49.2958 17.9982 48.7445 17.9982H46.1197C45.5675 17.9982 45.1198 18.446 45.1198 18.9982V21.6229C45.1198 22.1742 44.6712 22.6228 44.1199 22.6228H43.12C42.5687 22.6228 42.1201 22.1742 42.1201 21.6229V18.9982C42.1201 18.446 41.6724 17.9982 41.1202 17.9982H38.4954C37.9441 17.9982 37.4955 17.5497 37.4955 16.9983V15.9984C37.4955 15.4471 37.9441 14.9985 38.4954 14.9985H41.1202C41.6724 14.9985 42.1201 14.5508 42.1201 13.9986V11.3739C42.1201 10.8225 42.5687 10.374 43.12 10.374H44.1199C44.6712 10.374 45.1198 10.8225 45.1198 11.3739V13.9986C45.1198 14.5508 45.5675 14.9985 46.1197 14.9985H48.7445Z" fill="#fc5e5e"/>
<path d="M42.9751 39.088C41.1204 38.0279 38.7609 38.3518 37.2372 39.8753C36.876 40.2372 34.8608 43.9908 29.8417 42.1182C24.5344 40.1383 19.8283 32.9935 23.6021 28.8246C24.3118 28.0516 24.7878 27.8327 24.984 27.637C26.5121 26.1087 26.8388 23.7462 25.7785 21.8916C24.027 18.8271 21.4782 16.2792 18.4076 14.523C16.586 13.4812 14.2314 13.8065 12.6815 15.3133C0.596525 27.0389 10.8538 46.46 25.1845 54.242C22.1254 58.1869 16.8024 58.8332 13.1378 57.0687C14.28 55.9699 15.0035 54.5646 15.0825 53.0862C15.1802 51.2261 14.5016 49.7333 13.2207 48.9902C10.7971 47.5849 7.41439 49.4421 7.7721 53.0475C7.91621 54.4968 8.5644 55.8321 9.59743 56.9372C9.35008 57.0247 9.09448 57.0977 8.83263 57.1542C7.64561 57.4102 4.69089 57.6318 2.89406 54.1662C2.63983 53.6759 2.03614 53.4849 1.54606 53.7388C1.05586 53.993 0.8645 54.5965 1.1186 55.0868C2.80557 58.3405 5.84653 59.8437 9.25446 59.109C9.99627 58.949 10.6972 58.6918 11.3384 58.357C12.2761 58.9415 13.366 59.3929 14.5702 59.6744C19.3563 60.793 24.6193 59.0249 27.5019 54.409C27.814 53.9095 27.6284 53.2475 27.0993 52.9842C13.3055 46.1194 2.88244 27.6076 14.0749 16.7479C14.9898 15.8582 16.3632 15.6574 17.4148 16.2589C20.1761 17.8381 22.4678 20.1291 24.0425 22.8842C24.6428 23.9341 24.4702 25.2703 23.628 26.163C23.4333 26.2994 23.2475 26.4413 23.0688 26.5873C21.239 23.7743 18.9925 21.2829 16.3758 19.1708C15.9461 18.8237 15.3165 18.8909 14.9698 19.3208C14.623 19.7505 14.6901 20.38 15.1198 20.7268C17.694 22.8048 19.8868 25.2737 21.6463 28.0726C15.364 36.6136 31.6371 51.3128 38.703 41.2392C39.5912 40.3948 40.9294 40.2222 41.9828 40.8242C44.7378 42.3991 47.0287 44.691 48.6078 47.4519C49.2093 48.5036 49.0084 49.877 48.1192 50.7916C47.9726 50.9423 47.8251 51.0882 47.677 51.2301C46.0344 48.6869 44.0381 46.3901 41.7294 44.3915C41.312 44.0298 40.6804 44.0756 40.3191 44.493C39.9575 44.9106 40.0031 45.5421 40.4205 45.9034C42.6526 47.8357 44.5722 50.065 46.1384 52.5378C41.5857 55.9456 36.5784 55.8625 32.9754 55.0859C32.4353 54.9699 31.9036 55.3128 31.7872 55.8527C31.6709 56.3927 32.0141 56.9245 32.554 57.0408C39.3035 58.4956 45.1518 56.71 49.5531 52.1859C51.0605 50.6354 51.3856 48.2805 50.3439 46.4592C48.5878 43.3886 46.0398 40.8397 42.9751 39.088ZM13.0856 52.9805C13.0275 54.0679 12.3903 55.127 11.4129 55.9236C10.4681 55.0668 9.87691 54.0043 9.76217 52.85C9.56581 50.8722 11.2013 50.1306 12.2174 50.7203C12.835 51.0785 13.1432 51.8816 13.0856 52.9805Z" fill="#fc5e5e"/>
</svg>
