<svg width="60" height="60" viewBox="0 0 60 60" fill="none" xmlns="http://www.w3.org/2000/svg">
<g clip-path="url(#clip0_526_1135)">
<path d="M9.62991 47.8212C9.85808 47.5681 10.1937 47.2829 10.6376 46.9657C11.0807 46.6491 11.5627 46.3325 12.0824 46.0152C12.6017 45.6986 13.128 45.3878 13.6604 45.0837C14.1929 44.7795 14.649 44.5133 15.0291 44.2853C15.5865 43.9561 16.1319 43.5949 16.6641 43.2018C17.1965 42.8089 17.6776 42.3527 18.1089 41.833C18.5397 41.3137 18.8885 40.7245 19.1545 40.065C19.4207 39.406 19.5536 38.658 19.5536 37.8217C19.5536 35.7939 18.8248 34.1846 17.3675 32.9928C15.9095 31.8017 13.8125 31.2057 11.075 31.2057C9.95921 31.2057 8.8887 31.3074 7.86201 31.5099C6.83545 31.7131 5.8908 31.9852 5.02935 32.3274C4.16719 32.6697 3.39434 33.0563 2.70996 33.4871C2.02558 33.9184 1.48031 34.3616 1.07507 34.8178L4.95329 39.3043C5.68818 38.4678 6.44861 37.79 7.23459 37.2702C8.0201 36.751 8.94553 36.4907 10.0102 36.4907C10.9477 36.4907 11.6702 36.7064 12.1775 37.1372C12.6842 37.5685 12.9379 38.1388 12.9379 38.8481C12.9379 39.2033 12.8363 39.5134 12.6338 39.7796C12.4306 40.0458 12.095 40.344 11.6261 40.6731C11.1568 41.0028 10.5234 41.383 9.72495 41.8138C8.92655 42.2451 7.93139 42.7898 6.74017 43.4487C5.62454 44.0825 4.69958 44.7289 3.96458 45.3877C3.22911 46.0472 2.64621 46.763 2.21566 47.5361C1.78441 48.3095 1.48031 49.1651 1.30312 50.1026C1.12546 51.0407 1.03699 52.1053 1.03699 53.2964H19.972V47.8212H9.62991Z" fill="#fc5e5e"/>
<path d="M38.8302 47.441V31.5859H34.6859L22.2908 47.4791V52.9163H32.7467V58.1253H38.8302V52.9163H42.1762V47.441H38.8302ZM33.4691 47.4411H28.2982L33.4691 40.7112V47.4411Z" fill="#fc5e5e"/>
<path d="M4.57456 54.6858V56.7213H2.47994V54.6858H1.26599V59.941H2.47994V57.7871H4.57456V59.941H5.78851V54.6858H4.57456Z" fill="#fc5e5e"/>
<path d="M12.6422 56.351C12.519 56.0304 12.3439 55.7441 12.1169 55.4925C11.8898 55.2408 11.6161 55.0387 11.2953 54.8856C10.9745 54.7327 10.6193 54.6561 10.2294 54.6561C9.84946 54.6561 9.49907 54.729 9.17833 54.8744C8.85747 55.0201 8.57996 55.215 8.34547 55.4591C8.1111 55.7033 7.9284 55.986 7.79774 56.3067C7.66684 56.6276 7.60156 56.9606 7.60156 57.306C7.60156 57.6464 7.66449 57.9771 7.79035 58.2977C7.91621 58.6186 8.09246 58.9036 8.31946 59.1526C8.54645 59.4018 8.82032 59.603 9.14106 59.7558C9.4618 59.9087 9.817 59.9853 10.207 59.9853C10.5869 59.9853 10.9372 59.9113 11.2581 59.7631C11.5788 59.6152 11.8551 59.4189 12.087 59.1748C12.3191 58.9306 12.5003 58.6479 12.631 58.3272C12.7618 58.0064 12.8272 57.6734 12.8272 57.3279C12.8272 56.9975 12.7655 56.6718 12.6422 56.351ZM11.5063 57.887C11.4494 58.0771 11.3644 58.2472 11.2508 58.3977C11.1374 58.5483 10.9942 58.6704 10.8217 58.7643C10.6488 58.8579 10.4465 58.9049 10.2146 58.9049C9.99255 58.9049 9.7952 58.8605 9.62247 58.7718C9.44962 58.6829 9.30536 58.5643 9.18946 58.4165C9.07356 58.2686 8.98602 58.0995 8.92672 57.9095C8.86743 57.7195 8.8379 57.5235 8.8379 57.3211C8.8379 57.1238 8.86625 56.93 8.92309 56.74C8.97993 56.5501 9.06606 56.381 9.18208 56.233C9.29809 56.085 9.44106 55.9654 9.61134 55.8741C9.78161 55.7828 9.98271 55.7371 10.2145 55.7371C10.4366 55.7371 10.6326 55.7803 10.8029 55.8667C10.9731 55.953 11.1174 56.0692 11.2358 56.2145C11.3542 56.3602 11.4431 56.528 11.5023 56.7178C11.5615 56.9078 11.5911 57.1041 11.5911 57.3062C11.5915 57.5034 11.563 57.6972 11.5063 57.887Z" fill="#fc5e5e"/>
<path d="M18.0164 54.6859V57.3726H18.0161C18.0161 57.5651 17.9976 57.7538 17.9605 57.9388C17.9235 58.1239 17.8606 58.2879 17.7719 58.431C17.683 58.5741 17.567 58.6889 17.4239 58.7752C17.281 58.8617 17.1057 58.9048 16.8985 58.9048C16.6912 58.9048 16.5173 58.8628 16.3766 58.7789C16.2359 58.6951 16.1212 58.5815 16.0324 58.4384C15.9436 58.2955 15.8794 58.1325 15.8399 57.9499C15.8003 57.7674 15.7807 57.5751 15.7807 57.3726V54.6858H14.5669V57.3726C14.5669 57.718 14.61 58.0486 14.6964 58.3643C14.7828 58.6803 14.9186 58.9576 15.1036 59.1972C15.2887 59.4367 15.5292 59.6277 15.8253 59.7707C16.1214 59.9138 16.4791 59.9854 16.8986 59.9854C17.3031 59.9854 17.6522 59.9176 17.946 59.7818C18.2394 59.6461 18.4813 59.4598 18.6713 59.2231C18.8612 58.9861 19.0019 58.7099 19.0933 58.3941C19.1846 58.0784 19.2303 57.7378 19.2303 57.3727V54.6859H18.0164Z" fill="#fc5e5e"/>
<path d="M24.5073 57.987C24.6404 57.9129 24.76 57.8229 24.8663 57.7167C24.9724 57.6106 25.0624 57.4909 25.1365 57.3578C25.2104 57.2245 25.2672 57.0826 25.3067 56.932C25.3461 56.7816 25.3659 56.6249 25.3659 56.4621C25.3659 56.2449 25.3227 56.0303 25.2363 55.8181C25.1499 55.6059 25.0303 55.416 24.8774 55.2483C24.7243 55.0806 24.543 54.9448 24.3334 54.8411C24.1236 54.7376 23.8954 54.6857 23.6488 54.6857H21.2802V59.941H22.494V58.246H23.2859L24.2926 59.941H25.6618L24.5073 57.987ZM23.9744 56.984C23.8708 57.1198 23.7473 57.1875 23.6043 57.1875H22.4941V55.7516H23.5674C23.7054 55.7516 23.8339 55.8158 23.9523 55.9442C24.0706 56.0725 24.1299 56.2452 24.1299 56.4624C24.1298 56.6743 24.078 56.8484 23.9744 56.984Z" fill="#fc5e5e"/>
<path d="M31.0766 57.772C31 57.5996 30.8916 57.4528 30.751 57.3319C30.6102 57.2109 30.4388 57.1097 30.2365 57.0284C30.034 56.9469 29.8072 56.8718 29.5555 56.8025C29.3728 56.7533 29.2125 56.7089 29.0745 56.6694C28.9363 56.63 28.8216 56.5868 28.7303 56.5398C28.6389 56.4929 28.5699 56.4398 28.523 56.3807C28.4759 56.3215 28.4525 56.2475 28.4525 56.1586C28.4525 55.8675 28.6697 55.7218 29.1039 55.7218C29.2616 55.7218 29.4197 55.7441 29.5777 55.7885C29.7354 55.8329 29.8811 55.8848 30.0144 55.9439C30.1476 56.0031 30.2585 56.06 30.3475 56.1142C30.4362 56.1685 30.4881 56.2056 30.5029 56.2253L31.0358 55.2186C30.9175 55.1496 30.7879 55.0807 30.6472 55.0113C30.5066 54.9423 30.3549 54.8805 30.192 54.8263C30.0292 54.772 29.8589 54.7277 29.6813 54.6932C29.5036 54.6587 29.3235 54.6412 29.141 54.6412C28.8793 54.6412 28.6315 54.6784 28.3972 54.7523C28.1629 54.8263 27.9567 54.9362 27.7793 55.0816C27.6016 55.2273 27.461 55.4062 27.3573 55.6184C27.2537 55.8307 27.2019 56.0749 27.2019 56.3512C27.2019 56.5487 27.2302 56.7213 27.287 56.8693C27.3438 57.0173 27.43 57.1481 27.546 57.2617C27.662 57.3752 27.8087 57.4752 27.9865 57.5614C28.1641 57.6479 28.3739 57.728 28.6157 57.8021C28.7983 57.8564 28.9672 57.9056 29.1226 57.95C29.2781 57.9945 29.4126 58.0426 29.526 58.0944C29.6393 58.1462 29.7284 58.2042 29.7925 58.2683C29.8565 58.3324 29.8888 58.4139 29.8888 58.5125C29.8888 58.7741 29.6741 58.9049 29.2449 58.9049C29.0424 58.9049 28.8426 58.8777 28.6452 58.8234C28.4479 58.7692 28.2688 58.7074 28.1085 58.6384C27.9481 58.5694 27.8135 58.5004 27.7051 58.431C27.5966 58.3621 27.5324 58.3151 27.5126 58.2904L26.9796 59.3488C27.1325 59.4523 27.2991 59.5437 27.4792 59.6225C27.6593 59.7015 27.8458 59.7694 28.0381 59.8261C28.2305 59.8828 28.4277 59.9261 28.6302 59.9556C28.8326 59.9852 29.0298 60 29.2224 60C29.4741 60 29.7183 59.9715 29.9553 59.9148C30.1921 59.8581 30.4017 59.7668 30.5844 59.6411C30.767 59.5152 30.9137 59.35 31.0248 59.1451C31.1359 58.9404 31.1913 58.6898 31.1913 58.3938C31.1912 58.1521 31.1531 57.9449 31.0766 57.772Z" fill="#fc5e5e"/>
<path d="M33.5746 28.3415C33.2442 27.0312 32.2108 25.9977 30.9006 25.6675V9.49976H29.0993V25.6676C27.5006 26.0706 26.3136 27.5202 26.3136 29.2422C26.3136 31.2749 27.9674 32.9284 29.9999 32.9284C31.7219 32.9284 33.1714 31.7413 33.5744 30.1428H44.2918V28.3415H33.5746ZM30 31.1271C28.9606 31.1271 28.115 30.2815 28.115 29.2422C28.115 28.2028 28.9606 27.3572 30 27.3572C31.0393 27.3572 31.885 28.2028 31.885 29.2422C31.885 30.2815 31.0393 31.1271 30 31.1271Z" fill="#fc5e5e"/>
<path d="M55.963 42.709C58.1081 38.5817 59.2421 33.9247 59.2421 29.242C59.2421 21.4312 56.2004 14.0879 50.6774 8.56457C45.1541 3.04173 37.8108 0 30 0C22.1891 0 14.8457 3.04173 9.3225 8.56468C3.79954 14.0879 0.757812 21.4313 0.757812 29.2421V30.1429H6.26096V28.3416H2.57364C2.71731 23.907 3.91931 19.736 5.93307 16.0712L9.10265 17.9436L10.0188 16.3927L6.85077 14.5211C9.02249 11.1179 11.9242 8.22425 15.3327 6.06002L17.1965 9.23148L18.7494 8.31882L16.8845 5.14525C20.5359 3.15001 24.6874 1.96055 29.0994 1.81759V5.50315H30.9007V1.81759C35.3348 1.96138 39.5064 3.1615 43.1711 5.17514L41.2985 8.34484L42.8493 9.26101L44.7204 6.09354C48.1236 8.26527 51.0176 11.1665 53.1818 14.5749L50.0103 16.4385L50.9229 17.9915L54.0977 16.1261C56.093 19.7775 57.2813 23.9295 57.4244 28.3416H53.739V30.1429H57.4246C57.2807 34.4752 56.1036 38.675 54.0606 42.4095L50.8972 40.5407L49.981 42.0916L53.1434 43.9598C51.6809 46.2632 49.8732 48.356 47.7652 50.1519L48.0087 47.9562L46.2184 47.7576L45.6348 53.0187L50.8959 53.6022L51.0945 51.812L48.882 51.5665C51.7853 49.1047 54.2123 46.0777 55.963 42.709Z" fill="#fc5e5e"/>
</g>
<defs>
<clipPath id="clip0_526_1135">
<rect width="60" height="60" fill="white"/>
</clipPath>
</defs>
</svg>
