<svg width="137" height="137" viewBox="0 0 137 137" fill="none" xmlns="http://www.w3.org/2000/svg">
<path d="M18.5364 20.6673C14.7757 21.0906 11.064 24.0907 9.76017 30.2023C8.85469 34.4461 9.27278 38.8464 9.28229 43.1466C9.3606 78.4266 9.37266 74.8959 9.37266 84.0161C9.38412 89.1907 9.62088 94.9411 13.2645 98.6155C16.574 101.953 21.6893 102.528 26.3799 102.83C44.9934 104.028 63.674 103.902 82.3045 102.981C82.1233 106.021 82.5016 109.096 83.5282 111.964C89.0378 127.355 108.709 132.633 120.403 122.629C124.274 119.319 126.734 114.402 127.177 109.361C130.468 95.93 120.735 83.2738 107.474 82.3427C108.49 64.8585 108.295 46.6587 106.876 28.309C106.876 23.9105 103.298 20.333 98.9003 20.333C95.4533 20.1961 95.256 20.1741 94.9408 20.1561C94.9571 20.0541 94.9891 19.9566 94.982 19.8491C94.85 17.8698 94.686 15.4066 93.6716 13.3686C91.2049 8.4229 84.3364 8.43328 84.4508 19.6255C80.9676 19.4844 77.4838 19.3701 74.0057 19.2839C73.8702 17.2622 73.6896 15.0128 72.7143 13.057C71.513 10.6422 68.8561 9.08052 66.5802 10.3831C64.0048 11.847 63.49 16.139 63.4922 19.1042C60.7503 19.0856 58.0959 19.0798 55.5466 19.0924C55.6358 17.755 55.2289 14.3755 54.2606 12.4303C53.5339 10.9732 52.3106 9.86261 50.9883 9.46124C46.4528 8.07852 44.864 14.1238 45.0457 19.2417C42.4473 19.2976 39.7891 19.3743 37.0648 19.4785C36.8044 15.8461 36.017 11.7746 32.5355 10.713C29.4763 9.76871 27.5166 12.5145 26.8943 16.0022C26.6618 17.3042 26.5699 18.6408 26.5859 19.9766C19.7308 20.3294 19.4755 20.4017 18.5364 20.6673ZM104.783 39.9405C105.499 54.3683 105.461 68.5763 104.656 82.3291C103.965 82.3692 103.283 82.4409 102.61 82.544C95.4587 82.5315 86.9636 87.3522 83.6503 96.4627C62.8579 97.9288 45.9446 98.7519 23.8318 96.9593C20.7547 96.9593 15.5369 93.5358 15.5342 90.8416C14.2348 71.16 13.9544 54.4138 14.6857 39.9596C112.213 39.9414 104.14 39.9852 104.783 39.9405ZM125.012 104.16C125.012 114.68 116.452 123.239 105.932 123.239C95.4108 123.239 86.852 114.68 86.852 104.16C86.852 93.6384 95.4108 85.0796 105.932 85.0796C116.452 85.0796 125.012 93.6384 125.012 104.16ZM89.58 13.0919C91.7699 13.7582 92.027 17.8565 92.1703 20.0086C90.5447 19.9232 88.9139 19.8245 87.2931 19.7489C87.2547 17.5678 87.6739 12.5185 89.58 13.0919ZM68.6237 12.7785C70.7092 13.413 71.039 17.1982 71.1789 19.2302C69.5572 19.197 67.9329 19.159 66.3227 19.1382C66.3187 17.0241 66.7844 12.2297 68.6237 12.7785ZM50.169 12.1535C52.3683 12.8227 52.6213 16.9599 52.7666 19.1163C51.1155 19.1323 49.4915 19.1545 47.8992 19.1841C47.8145 16.9117 48.212 11.5631 50.169 12.1535ZM31.0629 13.4547C31.8159 13.0212 32.8722 14.106 33.286 14.9356C33.9464 16.2629 34.1339 17.9788 34.2515 19.5967C32.6549 19.6664 31.0441 19.744 29.4174 19.8295C29.4082 18.1195 29.6479 14.2578 31.0629 13.4547ZM27.664 26.4885C25.5593 28.2913 27.0553 31.3977 30.0228 31.3977C31.869 31.3977 33.3657 30.1111 33.3657 28.524C33.3657 27.0492 32.0686 25.8481 30.4042 25.6834C30.068 24.7016 29.8073 23.688 29.644 22.6368C35.0704 22.3523 40.3317 22.1554 45.3328 22.0513C45.5419 23.3105 45.8498 24.5425 46.2743 25.7118C44.3809 27.589 45.9548 30.4594 48.7899 30.4594C50.6362 30.4594 52.1328 29.1728 52.1328 27.5856C52.1328 26.0498 50.7278 24.8065 48.9644 24.7271C48.6441 23.8469 48.3947 22.9376 48.2158 21.9942C53.0564 21.9055 58.1459 21.8796 63.6689 21.9202C63.8693 23.4629 64.2301 24.9715 64.7495 26.3907C62.4474 28.163 63.9355 31.3977 66.9706 31.3977C68.8168 31.3977 70.3135 30.1111 70.3135 28.524C70.3135 27.1052 69.115 25.934 67.5423 25.6999C67.0803 24.5127 66.74 23.2595 66.5418 21.9579C72.5314 22.0382 78.6058 22.2008 84.659 22.4486C84.8789 24.0182 85.2678 25.5463 85.8188 26.9802C83.7461 28.793 85.2494 31.8669 88.2009 31.8669C90.0471 31.8669 91.5438 30.5803 91.5438 28.9932C91.5438 27.5086 90.2292 26.3011 88.5489 26.1496C88.0958 25.0165 87.7678 23.8168 87.5574 22.5735C87.9515 22.5921 89.7925 22.6728 98.9003 23.148C101.746 23.148 104.061 25.4628 104.066 28.4171C104.291 31.3341 104.474 34.242 104.638 37.1446H14.842C15.028 34.0998 15.2569 31.1505 15.5369 28.309C15.5369 25.4628 17.8526 23.148 20.795 23.1444C22.7819 23.008 24.7891 22.8954 26.7985 22.792C26.9781 24.0603 27.2672 25.3015 27.664 26.4885Z" fill="#111032" fill-opacity="0.1"/>
<path d="M24.2259 61.1019H36.8937C37.6708 61.1019 38.3012 60.4715 38.3012 59.6944V49.1086C38.3012 48.3315 37.6708 47.701 36.8937 47.701H24.2259C23.4488 47.701 22.8184 48.3315 22.8184 49.1086V59.6944C22.8184 60.4715 23.4488 61.1019 24.2259 61.1019ZM25.6334 50.5161H35.4862V58.2869H25.6334V50.5161Z" fill="#111032" fill-opacity="0.1"/>
<path d="M52.6116 61.1019H65.2794C66.0565 61.1019 66.687 60.4715 66.687 59.6944V49.1086C66.687 48.3315 66.0565 47.701 65.2794 47.701H52.6116C51.8346 47.701 51.2041 48.3315 51.2041 49.1086V59.6944C51.2041 60.4715 51.8346 61.1019 52.6116 61.1019ZM54.0192 50.5161H63.8719V58.2869H54.0192V50.5161Z" fill="#111032" fill-opacity="0.1"/>
<path d="M79.8235 61.3366H92.4914C93.2684 61.3366 93.8989 60.7061 93.8989 59.929V49.3432C93.8989 48.5661 93.2684 47.9357 92.4914 47.9357H79.8235C79.0465 47.9357 78.416 48.5661 78.416 49.3432V59.929C78.416 60.7061 79.0465 61.3366 79.8235 61.3366ZM81.2311 50.7507H91.0838V58.5215H81.2311V50.7507Z" fill="#111032" fill-opacity="0.1"/>
<path d="M24.6859 70.4287C23.9088 70.4287 23.2783 71.0592 23.2783 71.8362V82.4202C23.2783 83.1973 23.9088 83.8278 24.6859 83.8278H37.3537C38.1307 83.8278 38.7612 83.1973 38.7612 82.4202V71.8362C38.7612 71.0592 38.1307 70.4287 37.3537 70.4287H24.6859ZM35.9461 81.0127H26.0934V73.2438H35.9461V81.0127Z" fill="#111032" fill-opacity="0.1"/>
<path d="M53.0716 70.4287C52.2945 70.4287 51.6641 71.0592 51.6641 71.8362V82.4202C51.6641 83.1973 52.2945 83.8278 53.0716 83.8278H65.7394C66.5165 83.8278 67.1469 83.1973 67.1469 82.4202V71.8362C67.1469 71.0592 66.5165 70.4287 65.7394 70.4287H53.0716ZM64.3319 81.0127H54.4791V73.2438H64.3319V81.0127Z" fill="#111032" fill-opacity="0.1"/>
<path d="M80.2835 70.6633C79.5064 70.6633 78.876 71.2938 78.876 72.0709V82.6549C78.876 83.4319 79.5064 84.0624 80.2835 84.0624H92.9513C93.7284 84.0624 94.3589 83.4319 94.3589 82.6549V72.0709C94.3589 71.2938 93.7284 70.6633 92.9513 70.6633H80.2835ZM91.5438 81.2473H81.691V73.4784H91.5438V81.2473Z" fill="#111032" fill-opacity="0.1"/>
<path d="M96.4486 101.444C95.8988 100.894 95.0081 100.894 94.4583 101.444C93.9084 101.994 93.9084 102.884 94.4583 103.434L103.095 112.072C103.645 112.622 104.536 112.621 105.085 112.072L119.83 97.3276C121.147 96.0103 119.156 94.0208 117.839 95.3373L104.09 109.086L96.4486 101.444Z" fill="#111032" fill-opacity="0.1"/>
</svg>
