<svg width="115" height="115" viewBox="0 0 115 115" fill="none" xmlns="http://www.w3.org/2000/svg">
<path d="M90.0085 91.7665C88.2591 93.7668 88.8463 98.0688 89.4021 100.064C90.2123 102.977 92.2719 105.298 94.7792 106.121C99.7556 107.751 106.065 103.618 107.041 97.8981C107.551 94.8872 106.448 91.7543 104.227 89.9195C99.5517 86.0548 92.5228 88.8932 90.0085 91.7665ZM98.975 89.7888L99.6127 90.4266L97.4904 92.5471L96.0181 91.0748C96.3683 90.7245 96.783 90.4353 96.4624 90.0589C97.5392 89.7784 98.1404 89.7557 98.975 89.7888ZM102.918 91.127C102.909 91.134 102.897 91.1305 102.89 91.1392L102.225 91.8048L100.846 90.4266L101.111 90.1617C101.773 90.3865 102.38 90.7193 102.918 91.127ZM94.4778 90.7663L94.788 91.0765L92.9898 92.8712L92.2144 92.0958C92.8783 91.5801 93.6623 91.1288 94.4778 90.7663ZM95.3525 90.4091C95.4065 90.39 95.4588 90.3673 95.5128 90.3482L95.403 90.4579L95.3525 90.4091ZM91.561 92.6743L92.3747 93.488L91.5697 94.293C91.3989 94.4638 91.3989 94.7391 91.5697 94.9098C91.6551 94.9952 91.7666 95.037 91.8781 95.037C91.9896 95.037 92.1011 94.9952 92.1865 94.9098L92.9915 94.1048L94.3698 95.4831L92.2945 97.5583L90.8867 96.1504C90.8048 96.0685 90.6985 96.0319 90.5922 96.0285C90.5783 94.7791 90.6915 93.5525 91.561 92.6743ZM90.9215 98.9296C90.803 98.3825 90.7107 97.7744 90.6514 97.1471L91.6777 98.1734L90.9215 98.9296ZM91.1846 99.9001L92.2963 98.7885L94.0004 100.493L92.3242 102.169C91.838 101.503 91.4512 100.736 91.1846 99.9001ZM105.323 97.6054C104.523 102.303 99.266 105.756 95.3229 104.465C94.4133 104.167 93.5822 103.596 92.88 102.845L94.6154 101.109C95.1382 101.632 95.7376 101 95.2323 100.493L97.027 98.6979C97.1977 98.5271 97.1977 98.2518 97.027 98.081C96.8562 97.9103 96.5809 97.9103 96.4101 98.081L94.6154 99.8757L92.9114 98.1716L94.9866 96.0964L95.3351 96.4449C95.5058 96.6157 95.7811 96.6157 95.9519 96.4449C96.2986 96.0982 95.9414 95.8176 95.6034 95.4813L96.1314 94.9551C96.5356 94.5509 95.924 93.9306 95.5145 94.3383L94.9866 94.8645L93.6083 93.4863L95.4048 91.6898L98.0341 94.3191C98.2048 94.4899 98.4801 94.4899 98.6492 94.3191C99.036 93.9323 98.4958 93.5507 98.1073 93.1622L100.23 91.0416L101.608 92.4199C101.062 92.9653 101.643 93.617 102.225 93.035L102.632 93.4427C102.803 93.6135 103.078 93.6135 103.249 93.4427C103.42 93.2719 103.42 92.9966 103.249 92.8259L102.841 92.4199C103.01 92.2509 103.416 91.8693 103.544 91.6672C104.997 93.1465 105.696 95.4047 105.323 97.6054Z" fill="#111032" fill-opacity="0.2"/>
<path d="M31.3197 74.0025C31.0182 80.547 30.7186 82.5386 30.4189 89.4822C30.0303 98.5236 34.3951 100.97 39.5073 99.2032C44.9123 97.3335 66.6317 78.4683 82.3849 59.3714C84.2877 57.0592 86.2061 54.6929 88.7204 53.3548C90.9873 52.1507 94.2979 51.9033 96.2355 53.7625C98.8909 56.3099 98.187 59.4254 97.5423 81.7232C97.5405 81.8016 97.5632 81.8713 97.5806 81.9445C93.2455 82.3487 87.4902 84.8456 84.5995 88.1492C81.0067 92.2561 81.9911 108.56 92.6008 112.043C96.6833 113.385 101.379 112.318 105.09 109.912C114.85 103.589 115.728 91.0713 108.394 85.0129C105.956 82.9986 102.689 81.9044 99.2603 81.8748C99.2655 81.8399 99.2812 81.812 99.2812 81.7754C99.9224 59.5421 100.773 55.7053 97.4377 52.5062C94.7805 49.957 90.6301 50.3613 87.8962 51.8162C85.0386 53.3356 83.007 55.8743 81.0363 58.2614C64.7986 77.9456 43.5167 95.971 38.9323 97.5548C37.2056 98.1542 35.4701 98.0218 34.2853 97.1994C32.1804 95.741 32.0271 92.5175 32.1543 89.5554C32.4575 82.5735 32.7572 80.6167 33.0639 73.9067C35.0676 73.708 37.0122 73.2498 38.8992 72.5493C38.9445 72.565 38.9846 72.6033 39.0317 72.6033C39.1432 72.6033 39.2547 72.5615 39.3401 72.4761C39.3679 72.4482 39.3627 72.4099 39.3801 72.3786C47.6079 69.1237 54.7048 61.0598 60.5541 48.2808C62.1414 44.7838 60.3833 41.5185 57.8167 39.9607C59.141 32.071 59.0364 23.1167 57.4055 14.5213C56.0238 7.46975 51.896 7.33907 50.0229 8.45074C49.819 3.85597 45.4856 1.81559 42.0339 2.50384C39.5335 3.00044 36.9826 5.00074 35.6827 7.48369C34.6913 9.38816 34.5536 11.385 35.3011 13.103C38.1273 19.5866 48.1358 17.3388 49.8434 10.4563C50.1117 10.4876 50.3888 10.4092 50.5857 10.1966C50.9603 9.78892 51.4778 9.69483 51.8454 9.6896C54.4417 9.77324 55.2048 12.3102 55.7014 14.8507C57.2417 22.9721 57.4038 31.4995 56.1771 39.201C53.6785 38.4692 51.1171 39.3979 49.8208 42.2137C46.883 48.6642 40.7706 62.0913 30.4851 61.7062C21.353 61.3612 16.6729 50.0964 13.0782 42.1266C11.808 39.3248 9.21355 38.3107 6.50757 39.1714C5.80188 30.2032 8.3859 15.8735 10.8811 12.312C11.7662 11.0487 13.3379 9.76975 15.1866 9.84119C15.0298 11.6132 15.5612 13.4062 16.7582 14.7897C20.271 18.8478 26.6953 16.9904 28.659 11.4111C29.3542 9.43521 29.2741 7.42271 28.4412 5.88938C27.3818 3.94309 25.4843 2.88369 23.1564 2.96907C20.0985 3.05271 16.7025 5.02862 15.5699 8.12491C13.8432 7.82521 11.1947 8.83059 9.45401 11.3118C6.26363 15.8665 4.04378 31.4734 4.82961 40.0043C2.39544 41.6352 0.820293 44.8204 2.35363 48.1902C8.41378 61.5511 16.706 74.3806 31.3197 74.0025ZM107.289 86.3545C113.759 91.7038 112.874 102.796 104.146 108.45C100.59 110.757 96.4811 111.482 93.1461 110.388C83.8085 107.323 83.0976 92.5157 85.9133 89.2975C89.4313 85.2742 100.22 80.5139 107.289 86.3545ZM37.2335 8.28869C38.2859 6.28142 40.4012 4.60347 42.3806 4.21142C44.8409 3.72877 47.7769 5.00597 48.2473 7.96286C48.1811 7.95938 48.1254 7.99597 48.0626 8.0221L46.1268 6.08627C45.9561 5.91551 45.6807 5.91551 45.51 6.08627C45.3392 6.25703 45.3392 6.53233 45.51 6.70309L47.404 8.5971L46.3167 9.68438L44.9524 8.32006C44.9472 8.31483 44.9367 8.31657 44.9315 8.31135L45.6964 7.54642C45.8672 7.37566 45.8672 7.10036 45.6964 6.9296C45.5257 6.75884 45.2504 6.75884 45.0796 6.9296L42.4207 9.58854C42.3283 9.60074 42.2342 9.62339 42.1628 9.69483C42.0914 9.76627 42.0687 9.86036 42.0565 9.95271L40.3855 11.622L39.7826 11.0208C39.6119 10.8501 39.3366 10.8501 39.1658 11.0208C38.9951 11.1916 38.9951 11.4669 39.1658 11.6359L39.767 12.237C39.5927 12.4113 38.2528 13.7425 38.0942 13.9289C36.2961 12.3799 36.1758 10.3134 37.2335 8.28869ZM42.6908 13.9254C42.8615 14.0962 43.1368 14.0962 43.3076 13.9254L44.5429 12.6901L45.5832 13.7285C44.9211 14.2321 44.2101 14.6311 43.4661 14.8785C43.4644 14.7688 43.4243 14.659 43.3407 14.5754L41.0041 12.237L42.5479 10.6932L43.9279 12.0732L42.6925 13.3086C42.52 13.4794 42.52 13.7547 42.6908 13.9254ZM43.1612 10.0764L44.3269 8.91248C44.3321 8.91945 44.3304 8.92816 44.3356 8.93339L45.6999 10.2995L44.5412 11.4582L43.1612 10.0764ZM38.7929 14.4447L40.3855 12.8521L42.6141 15.0807C41.2585 15.3385 40.1346 15.2479 38.7929 14.4447ZM46.254 13.1692L45.158 12.0732L46.3167 10.9145L47.0154 11.6132C47.1008 11.6986 47.2123 11.7404 47.3239 11.7404C47.3709 11.7404 47.4075 11.7021 47.4511 11.6882C47.1287 12.2196 46.7245 12.7162 46.254 13.1692ZM47.7176 11.2055C47.6985 11.1323 47.6898 11.0539 47.6305 10.9964L46.9318 10.2977L48.0191 9.21044L48.0435 9.23483C48.1079 9.2993 48.1933 9.31498 48.277 9.33066C48.2055 9.97013 48.1132 10.404 47.7176 11.2055ZM19.4729 14.7409L20.5393 13.6745L22.0517 15.187C21.1387 15.2985 20.257 15.1434 19.4729 14.7409ZM22.564 11.6498L24.12 13.2058C23.9457 13.3801 22.862 14.4325 22.74 14.6468L21.1526 13.0595L22.564 11.6498ZM25.4843 13.3382L25.3519 13.2058L26.359 12.1987C26.1064 12.6151 25.8084 12.9915 25.4843 13.3382ZM24.8309 13.9167C24.5887 14.1154 24.3517 14.314 24.0869 14.4708L24.7351 13.8226L24.8309 13.9167ZM27.1204 7.26937C27.2302 7.58127 27.3034 7.91233 27.3382 8.26256L26.7319 7.65619L27.1204 7.26937ZM23.2035 4.7115C24.8536 4.68362 26.0105 5.33006 26.7371 6.45566C26.7197 6.46786 26.6953 6.46438 26.6779 6.48006L26.1168 7.04112L25.3972 6.3215C25.2264 6.15074 24.9511 6.15074 24.7804 6.3215C24.6096 6.49225 24.6096 6.76756 24.7804 6.93831L25.5 7.65794L25.1323 8.02559C24.9616 8.19634 24.9616 8.47165 25.1323 8.64241C25.3031 8.81316 25.5784 8.81316 25.7474 8.64241L26.1151 8.27475L27.0124 9.1721C27.0961 9.25574 27.1919 9.29756 27.3365 9.29233C27.2877 9.79589 27.1971 10.3116 27.0142 10.8344C27.002 10.871 26.9776 10.9006 26.9654 10.9372C26.9026 10.8832 26.8277 10.8605 26.7511 10.8483L24.8675 8.96475C24.6967 8.794 24.4214 8.794 24.2507 8.96475C24.0799 9.13551 24.0799 9.41082 24.2507 9.58157L25.9983 11.3292L24.7351 12.5925L23.1773 11.0365L24.1095 10.1043C24.2803 9.93354 24.2803 9.65824 24.1095 9.48922C23.9388 9.31847 23.6635 9.31847 23.4927 9.48922L20.5341 12.4479L20.0497 11.9635C19.8789 11.7927 19.6036 11.7927 19.4346 11.9635C19.2639 12.1342 19.2639 12.4095 19.4346 12.5785L19.919 13.0629L18.7202 14.2617C18.492 14.0805 18.2724 13.8836 18.0738 13.6536C14.9061 9.98756 18.37 4.84392 23.2035 4.7115ZM21.7851 70.1831L22.5989 69.3711L24.519 71.2913C23.5746 70.9829 22.6616 70.6204 21.7851 70.1831ZM44.3774 67.5729L42.9904 66.186L46.5572 62.6192L48.1707 64.2327C46.9388 65.4907 45.6755 66.6094 44.3774 67.5729ZM11.4909 42.8445C15.0211 50.6784 20.1595 63.0583 30.4189 63.4451C41.837 63.8895 48.3101 49.7288 51.4029 42.9368C53.7708 37.7966 61.272 42.4873 58.9737 47.5542C55.9001 54.2678 52.4867 59.6031 48.7614 63.5915L47.1705 62.0007L48.6045 60.5667C48.7753 60.3959 48.7753 60.1206 48.6045 59.9498C48.4338 59.7791 48.1585 59.7791 47.9895 59.9498L46.5554 61.3839L45.4891 60.3175C45.3183 60.1467 45.043 60.1467 44.8723 60.3175C44.7015 60.4882 44.7015 60.7635 44.8723 60.9343L45.9386 62.0007L42.3736 65.5674L40.8298 64.0236C40.6591 63.8529 40.3838 63.8529 40.213 64.0236C40.0423 64.1944 40.0423 64.4697 40.213 64.6404L41.7568 66.1842L40.8107 67.1321C40.6399 67.3029 40.6399 67.5782 40.8107 67.7489C40.9814 67.9197 41.2567 67.9197 41.4275 67.7489L42.3736 66.801L43.6456 68.073C41.9398 69.2561 40.1799 70.197 38.3643 70.8801L35.5207 68.0364L41.8283 61.7306C41.999 61.5598 41.999 61.2845 41.8283 61.1138C41.6575 60.943 41.3822 60.943 41.2132 61.1138L34.9056 67.4196L34.2574 66.7714C34.0867 66.6007 33.8114 66.6007 33.6406 66.7714C33.4698 66.9422 33.4698 67.2175 33.6406 67.3882L34.2888 68.0364L31.9679 70.3573C31.7971 70.5281 31.7971 70.8034 31.9679 70.9742C32.1386 71.1449 32.4139 71.1449 32.5847 70.9742L34.9056 68.6533L37.4495 71.1972C35.9511 71.6868 34.4212 72.0248 32.8513 72.1782L29.3072 68.6341L33.0395 64.9018C33.2102 64.7311 33.2102 64.4557 33.0395 64.285C32.8687 64.1142 32.5934 64.1142 32.4226 64.285L28.6904 68.0173L27.5648 66.8917C27.394 66.7209 27.1187 66.7209 26.9479 66.8917C26.7772 67.0624 26.7772 67.3377 26.9479 67.5067L28.0736 68.6323L26.589 70.1169C26.4182 70.2876 26.4182 70.5629 26.589 70.7337C26.7598 70.9045 27.0351 70.9045 27.2058 70.7337L28.6904 69.2492L31.6804 72.2392C30.0303 72.3123 28.6172 72.3123 26.2266 71.767L23.2104 68.7526L26.5019 65.4611C26.6726 65.2904 26.6726 65.0151 26.5019 64.8443C26.3311 64.6735 26.0558 64.6735 25.8851 64.8443L22.5936 68.1357L21.468 67.0101C21.2973 66.8394 21.022 66.8394 20.8529 67.0101C20.6822 67.1809 20.6822 67.4562 20.8529 67.627L21.9786 68.7526L20.9697 69.7614C13.0173 65.367 7.78651 55.9562 3.93749 47.4671C1.60787 42.3444 9.16476 37.7148 11.4909 42.8445Z" fill="#111032" fill-opacity="0.2"/>
<path d="M51.0976 59.5125C51.2683 59.6833 51.5436 59.6833 51.7144 59.5125C51.8852 59.3417 51.8852 59.0664 51.7144 58.8957L48.8377 56.0189C48.6669 55.8482 48.3916 55.8482 48.2208 56.0189C48.0501 56.1897 48.0501 56.465 48.2208 56.6358L51.0976 59.5125Z" fill="#111032" fill-opacity="0.2"/>
<path d="M50.3884 55.5607L51.9915 53.9559L53.0021 54.9666C53.0195 54.984 53.0474 54.9788 53.0683 54.9944L50.9669 57.0958C50.7962 57.2666 50.7962 57.5419 50.9669 57.7126C51.1377 57.8834 51.413 57.8834 51.5837 57.7126L54.8456 54.4508C55.0163 54.28 55.0163 54.0047 54.8456 53.834C54.6748 53.6632 54.3995 53.6632 54.2287 53.834L53.645 54.4177C53.6311 54.3968 53.6363 54.3706 53.6172 54.3515L52.6065 53.3409L55.0372 50.9102L55.8457 51.7187C56.0165 51.8894 56.2918 51.8894 56.4625 51.7187C56.6333 51.5479 56.6333 51.2726 56.4625 51.1019L55.654 50.2934L55.8962 50.0512C56.067 49.8804 56.067 49.6051 55.8962 49.4344C55.7255 49.2636 55.4502 49.2636 55.2794 49.4344L55.0372 49.6766L54.3298 48.9691C54.159 48.7984 53.8837 48.7984 53.7147 48.9691C53.544 49.1399 53.544 49.4152 53.7147 49.586L54.4222 50.2934L51.9915 52.7241L51.7022 52.4348C51.5315 52.2641 51.2562 52.2641 51.0854 52.4348C50.9147 52.6056 50.9147 52.8809 51.0854 53.0516L51.3747 53.3409L49.7716 54.9456C49.6009 55.1164 49.6009 55.3917 49.7716 55.5625C49.9441 55.7297 50.2194 55.7297 50.3884 55.5607Z" fill="#111032" fill-opacity="0.2"/>
<path d="M55.1699 47.0768L56.2363 46.0104L57.6076 47.3817C57.7783 47.5525 58.0536 47.5525 58.2244 47.3817C58.3951 47.211 58.3951 46.9357 58.2244 46.7649L56.8531 45.3936L57.74 44.5067C57.9107 44.336 57.9107 44.0607 57.74 43.8899C57.5692 43.7192 57.2939 43.7192 57.1232 43.8899L56.2363 44.7768L55.8878 44.4283C55.717 44.2576 55.4417 44.2576 55.2727 44.4283C55.1019 44.5991 55.1019 44.8744 55.2727 45.0451L55.6212 45.3936L54.5548 46.46C54.3841 46.6307 54.3841 46.906 54.5548 47.0751C54.7238 47.2458 54.9991 47.2458 55.1699 47.0768Z" fill="#111032" fill-opacity="0.2"/>
</svg>
