<svg width="111" height="111" viewBox="0 0 111 111" fill="none" xmlns="http://www.w3.org/2000/svg">
<path d="M29.1106 41.2586C25.9691 41.6774 22.8276 44.1907 22.6182 47.3322C24.0842 46.7039 25.3408 46.285 26.388 46.0756C28.4823 45.4473 30.7861 45.2378 32.8804 45.2378C34.137 45.2378 35.3936 45.2378 36.8597 45.4473C35.8125 42.3057 32.2521 40.8397 29.1106 41.2586Z" fill="#111032" fill-opacity="0.15"/>
<path d="M36.4412 31.6246C39.3733 32.0434 42.3053 32.8812 45.4469 34.1378C41.4676 28.9019 33.928 26.3887 27.2261 27.4359C20.5242 28.2736 14.0318 32.6717 11.5186 38.9547C14.0318 36.8604 16.7544 35.3944 19.477 34.1378C24.5035 31.6246 30.577 30.7868 36.4412 31.6246Z" fill="#111032" fill-opacity="0.15"/>
<path d="M44.8184 107.021C65.7618 104.089 84.8203 91.1038 92.7788 71.6265C81.2599 89.8472 63.0392 100.528 44.1901 102.832C29.3203 104.926 9.42407 100.738 9.6335 86.2868C9.6335 82.0982 12.5656 77.2812 17.3826 76.234C17.8014 77.4906 18.4297 78.5378 19.058 79.5849C21.1524 82.9359 23.6656 85.868 26.8071 88.1717C31.2052 91.3132 34.975 91.9415 38.5354 91.3132H38.326C54.4524 88.8 69.5316 81.051 81.0505 69.5321C92.5694 58.0132 100.318 42.934 103.041 27.017C103.46 24.9227 103.46 22.8283 102.832 20.734C102.203 18.6397 101.366 16.9642 100.109 15.2887C95.9203 9.42457 87.9618 4.18872 80.6316 3.56042C78.5373 3.35098 76.2335 3.76985 74.3486 4.81702C69.5316 7.74909 68.275 14.8698 67.4373 20.5246C66.5995 26.5982 65.7618 33.5095 70.7882 36.8604C72.4637 38.117 74.558 38.5359 76.4429 38.7453C79.7939 39.1642 83.1448 38.7453 86.2863 37.9076C83.3543 45.8661 78.7467 53.1963 72.8826 59.6887C79.375 53.4057 84.6109 45.6566 87.9618 37.2793C87.9618 37.0698 87.9618 37.0699 87.9618 36.8604C87.9618 36.4415 87.5429 36.2321 87.1241 36.4415C84.192 37.0698 80.8411 37.4887 77.909 37.0699C77.6995 32.2529 79.1656 26.3887 80.0033 21.7812C80.8411 17.3831 81.6788 11.7283 83.3543 7.33023C85.658 7.95853 87.7524 9.0057 89.6373 10.2623C92.5694 12.1472 95.292 14.451 97.1769 17.1736C98.8524 19.6868 99.8995 22.4095 99.4807 25.1321C99.2712 25.7604 96.758 48.1698 78.1184 66.6C67.2278 77.4906 52.9863 85.0302 37.6977 87.5434H37.4882C34.975 87.9623 32.2524 87.5434 28.9014 85.0302C26.1788 83.1453 23.875 80.4227 21.9901 77.4906C20.7335 75.6057 19.6863 73.5114 19.058 71.2076C23.4561 69.5321 29.1109 68.6944 33.2995 67.8566C37.9071 67.0189 43.7712 65.5529 48.5882 65.7623C49.0071 68.9038 48.5882 72.0453 47.9599 74.9774V75.3963C48.1693 75.8151 48.5882 76.0246 49.0071 75.8151C58.0127 72.0453 66.3901 66.3906 72.8826 59.2698C66.1807 65.5529 58.4316 70.5793 49.8448 73.9302C50.6826 70.7887 50.892 67.4378 50.6826 64.2963C50.4731 62.4114 49.8448 60.5265 48.7976 58.6415C45.4467 53.6151 38.5354 54.2434 32.4618 55.0812C26.8071 56.1283 19.8958 57.1755 16.7543 61.9925C15.4977 63.8774 15.0788 66.1812 15.2882 68.0661C15.4977 70.7887 16.3354 73.0925 17.3826 75.6057C15.0788 75.8151 12.9844 76.8623 11.309 78.5378C9.42407 80.4227 8.16746 82.9359 7.7486 85.6585C5.86369 102.832 26.5977 109.115 44.8184 107.021ZM76.0241 21.1529C74.9769 26.1793 74.558 32.4623 76.6524 37.0699C74.9769 36.651 73.3014 36.2321 72.2543 35.3944C68.275 32.4623 69.3222 26.1793 70.1599 21.1529C70.9977 16.7548 72.4637 9.84343 76.2335 7.74909C77.4901 7.12079 78.9561 6.91136 80.6316 6.91136C81.0505 6.91136 81.4694 7.12079 81.8882 7.12079C78.5373 10.6812 76.8618 16.3359 76.0241 21.1529ZM19.4769 64.0868C21.7807 60.317 28.4826 59.0604 32.8807 58.2227C37.6977 57.3849 43.9807 56.3378 46.9127 60.317C47.7505 61.5736 48.3788 63.0397 48.5882 64.7151C43.7712 62.6208 37.6977 63.0397 32.6712 64.0868C28.0637 64.9246 22.1995 66.6 18.6392 69.7415C18.6392 69.3227 18.4297 68.6944 18.4297 68.2755C18.4297 66.8095 18.6392 65.3434 19.4769 64.0868Z" fill="#111032" fill-opacity="0.15"/>
</svg>
