<svg width="114" height="114" viewBox="0 0 114 114" fill="none" xmlns="http://www.w3.org/2000/svg">
<path d="M13.5957 35.0585C-5.36457 76.1382 32.9429 116.676 72.3713 103.933C93.0762 97.2438 107.478 75.1968 105.16 53.7407C103.003 33.6266 86.136 14.3692 63.6262 12.1998C63.1546 12.1566 62.7297 12.5003 62.6848 12.977C62.6382 13.452 62.9871 13.8735 63.4621 13.9184C85.0668 16.0032 101.36 34.504 103.443 53.9255C105.677 74.5992 91.7945 95.8429 71.8411 102.291C52.2434 108.62 28.3242 99.7552 17.3957 82.1025C9.17043 68.8474 8.29643 50.6661 15.1641 35.7839C17.6202 30.4829 22.2113 26.0957 29.1187 22.3837C29.649 28.3929 29.0945 30.8888 30.5212 32.3138C32.1311 33.9461 34.6339 32.8527 36.3905 31.3673L52.3678 17.9274C54.3421 16.264 55.4199 14.6559 55.5702 13.1446C55.8051 11.0408 54.4664 8.88857 49.5852 8.66748L27.4951 7.7002C22.7744 7.47911 21.2648 9.66411 21.4652 11.5244C21.65 13.5868 23.5327 14.5419 25.1926 15.3831C27.5486 16.5784 28.3466 16.9912 28.908 20.5304C21.3149 24.491 16.2885 29.2445 13.5957 35.0585ZM31.3434 30.0977C31.302 29.8767 31.2622 29.6625 31.2329 29.4017C31.2035 29.1287 31.1897 28.8161 31.169 28.5207L32.0032 29.355C31.8184 29.5416 31.4402 29.8801 31.3434 30.0977ZM35.2764 30.0442C34.0293 31.0961 32.0862 32.1463 31.4989 30.609C31.929 30.8595 32.2641 30.3188 32.6164 29.9665L33.3522 30.7023C33.5215 30.8716 33.7944 30.8716 33.9637 30.7023C34.133 30.533 34.133 30.2601 33.9637 30.0908L33.2279 29.355L35.0812 27.5017L36.1452 28.5657C36.3145 28.7349 36.5874 28.7349 36.755 28.5657C36.9242 28.3964 36.9242 28.1235 36.755 27.9542L35.691 26.8902L36.8966 25.6846L38.0781 26.866C38.2473 27.0353 38.5202 27.0353 38.6895 26.866C38.7828 26.7727 38.8122 26.6484 38.8018 26.5258C38.8173 26.5275 38.8277 26.543 38.8432 26.543C38.9538 26.543 39.0643 26.5016 39.149 26.4169L42.8816 22.6843C42.9248 22.6549 42.9542 22.6256 42.9835 22.5824L43.7746 21.7913L44.3757 22.3924L35.2764 30.0442ZM41.562 22.781L38.5358 25.8055C38.4771 25.8642 38.4667 25.9419 38.4477 26.0162L37.5046 25.0731L39.7984 22.7793H41.562V22.781ZM40.6621 21.9174L42.2788 20.3007L43.1597 21.1816L42.4239 21.9174H40.6621ZM25.9751 13.8424C21.1266 11.3828 23.0612 9.22193 27.4173 9.42402L49.5092 10.3913C51.5473 10.4846 54.0812 10.9285 53.855 12.9563V12.9667C53.7531 14.0013 52.8549 15.2605 51.2572 16.606L45.0372 21.8362L44.3843 21.1833L46.6091 18.9586C46.7783 18.7893 46.7783 18.5164 46.6091 18.3471C46.4398 18.1778 46.1669 18.1778 45.9976 18.3471L43.7729 20.5718L42.892 19.6909L43.7072 18.8757C43.8765 18.7064 43.8765 18.4335 43.7072 18.2642C43.538 18.0949 43.2651 18.0949 43.0958 18.2642L39.4426 21.9174H38.5842C38.3458 21.9174 38.1523 22.1108 38.1523 22.3492C38.1523 22.5858 38.3441 22.7776 38.5807 22.7793L36.8966 24.4634L36.4233 23.9901C36.2541 23.8208 35.9812 23.8208 35.8136 23.9901C35.6443 24.1594 35.6443 24.4323 35.8136 24.6016L36.2869 25.0748L35.0812 26.2805L34.0898 25.289C33.9205 25.1197 33.6476 25.1197 33.4783 25.289C33.3091 25.4583 33.3091 25.7312 33.4783 25.8988L34.4698 26.8919L32.6164 28.7453L31.7528 27.8817C31.5835 27.7124 31.3106 27.7124 31.1413 27.8817C31.131 27.892 31.1344 27.9076 31.1258 27.9197C31.093 27.2927 31.0705 26.6398 31.0481 25.9558C30.7579 16.606 29.6058 15.6819 25.9751 13.8424Z" fill="#111032" fill-opacity="0.15"/>
<path d="M45.7577 51.7129C42.3498 57.0104 38.1508 61.7207 33.2781 65.7124C32.9223 66.0026 32.8567 66.5208 33.1279 66.8904C33.399 67.2601 33.9138 67.3551 34.2972 67.1029C38.9868 64.0439 46.0686 69.9719 51.6701 66.7108C52.083 66.4707 52.2211 65.9421 51.9828 65.5293C51.7427 65.1165 51.2124 64.9766 50.8013 65.2167C47.0721 67.3913 42.12 64.3133 37.3113 64.4809C41.0889 60.9676 44.4087 57.0001 47.2103 52.6456C57.1335 37.2176 40.3116 30.6799 34.0779 43.3218C33.8671 43.7501 34.0433 44.2683 34.47 44.4791C34.9 44.6881 35.4165 44.5136 35.6272 44.0852C40.7918 33.6007 54.3854 38.2989 45.7577 51.7129Z" fill="#111032" fill-opacity="0.15"/>
<path d="M74.7857 36.0396C74.4178 35.8893 73.9947 36.012 73.7649 36.335L57.6685 58.6289C57.4767 58.8932 57.4526 59.2421 57.6011 59.5322C57.7497 59.8207 58.0243 59.952 58.3784 59.9986L72.0912 59.8362C72.0843 62.194 72.1137 64.626 72.1793 67.1495C72.1914 67.6176 72.5748 67.9907 73.0429 67.9907H73.0671C73.5438 67.9786 73.9204 67.5813 73.9083 67.1046C73.8427 64.5897 73.8133 62.1646 73.8202 59.8155L80.4374 59.7378C80.9141 59.7326 81.2976 59.3405 81.2907 58.8638C81.2855 58.3905 80.8986 58.0105 80.427 58.0105C80.4236 58.0105 80.4201 58.0105 80.4167 58.0105L73.8323 58.0883C73.9169 50.4313 74.4057 43.5688 75.3212 36.9603C75.373 36.5664 75.1537 36.1882 74.7857 36.0396ZM72.1016 58.1072L60.0711 58.2506L73.1811 40.0935C72.5247 45.7555 72.1707 51.6542 72.1016 58.1072Z" fill="#111032" fill-opacity="0.15"/>
<path d="M50.1599 77.4267L50.077 72.6266C50.0684 72.1499 49.6953 71.7543 49.1978 71.7785C48.7211 71.7872 48.3411 72.1792 48.3498 72.6577L48.6054 87.4121C48.614 87.8836 48.9992 88.2602 49.469 88.2602H49.4846C49.9613 88.2515 50.3413 87.8577 50.3327 87.381L50.2083 80.2422C50.305 80.1558 50.3862 80.0539 50.438 79.9261C51.616 76.9275 56.5025 77.0795 56.8963 81.9297C57.0155 83.3996 56.6838 84.9196 56.3626 86.3895C56.2607 86.8559 56.556 87.3171 57.0207 87.4172C57.0828 87.4311 57.145 87.438 57.2055 87.438C57.6028 87.438 57.9603 87.1616 58.0484 86.7592C58.38 85.2392 58.7566 83.5171 58.6167 81.7898C58.19 76.5302 53.2207 74.7322 50.1599 77.4267Z" fill="#111032" fill-opacity="0.15"/>
<path d="M68.861 76.7877C69.336 76.7514 69.6936 76.3386 69.6573 75.8618C69.621 75.3868 69.2065 75.0155 68.7315 75.0656C66.8142 75.2072 65.0179 76.1365 63.7466 77.5477C63.6222 77.0778 63.522 76.6011 63.3718 76.1399C63.2232 75.6874 62.7361 75.4421 62.2819 75.5889C61.8276 75.7375 61.5823 76.2263 61.7309 76.6788C62.0487 77.6496 62.2801 78.6462 62.4667 79.6515C62.4563 79.7862 62.4753 79.9175 62.5254 80.0401C62.9037 82.2977 62.9814 84.6105 62.6826 86.8749C62.6204 87.3482 62.952 87.7817 63.4253 87.8439C63.9038 87.9061 64.3321 87.5693 64.3943 87.1012C64.7121 84.6968 64.6327 82.2407 64.2389 79.8398C65.1336 78.147 66.9507 76.9293 68.861 76.7877Z" fill="#111032" fill-opacity="0.15"/>
<path d="M84.0947 26.0715C83.0221 26.0352 81.9736 26.6035 81.4243 27.4999C81.1031 27.5414 80.8198 27.7607 80.7127 28.0889C79.742 31.0685 83.2449 33.5177 85.7097 31.6316C88.0329 29.8594 86.8653 26.2166 84.0947 26.0715ZM82.2966 29.1564C82.5281 29.0631 82.7181 28.8714 82.7993 28.6157C83.1516 27.5051 84.8461 27.5241 85.1846 28.7591C85.7183 30.7057 82.4659 31.3759 82.2966 29.1564Z" fill="#111032" fill-opacity="0.15"/>
<path d="M99.1393 56.0379C98.4553 53.5472 95.0975 52.9737 93.7139 55.2347C93.3927 55.2762 93.1094 55.4973 93.0023 55.8255C92.5791 57.1261 93.0835 58.6426 94.1993 59.4337C96.6106 61.142 99.92 58.881 99.1393 56.0379ZM95.0871 56.3506C95.4343 55.2606 97.1305 55.2468 97.4725 56.4956C97.8266 57.7842 96.2824 58.7964 95.1977 58.0243C94.8453 57.7738 94.6208 57.3334 94.5862 56.8912C94.8177 56.7996 95.0077 56.6062 95.0871 56.3506Z" fill="#111032" fill-opacity="0.15"/>
<path d="M82.3171 84.9024C81.9959 84.9439 81.7126 85.165 81.6055 85.4914C80.6209 88.5159 84.1826 90.8857 86.6042 89.034C87.6026 88.2723 88.0707 86.9043 87.7425 85.7073C87.0533 83.1907 83.6869 82.669 82.3171 84.9024ZM86.0774 86.165C86.6111 88.1169 83.3587 88.7767 83.1894 86.5623C83.4208 86.469 83.6108 86.2773 83.692 86.02C84.0358 84.9352 85.7319 84.9076 86.0774 86.165Z" fill="#111032" fill-opacity="0.15"/>
<path d="M56.379 93.423C55.3133 93.3764 54.2579 93.955 53.7086 94.8515C51.9814 95.0743 52.6965 99.6257 56.0456 99.6257C60.1185 99.6274 60.2826 93.6303 56.379 93.423ZM54.5792 96.5097C54.8106 96.4164 55.0006 96.2247 55.0818 95.969C55.4376 94.848 57.1286 94.886 57.4672 96.1141C58.0026 98.059 54.7485 98.7292 54.5792 96.5097Z" fill="#111032" fill-opacity="0.15"/>
<path d="M27.7056 88.2585C29.996 88.2585 31.288 86.0925 30.7923 84.2892C30.129 81.8641 26.7971 81.149 25.3686 83.4843C23.6414 83.7071 24.353 88.2585 27.7056 88.2585ZM26.7418 84.6018C27.0959 83.486 28.7904 83.5154 29.1272 84.7452C29.6609 86.6849 26.4102 87.362 26.2409 85.1407C26.4706 85.0492 26.6589 84.8575 26.7418 84.6018Z" fill="#111032" fill-opacity="0.15"/>
<path d="M13.8424 55.233C12.7421 55.3747 12.4951 58.1348 14.3277 59.432C16.7321 61.1403 20.0485 58.8845 19.2677 56.0379C18.5855 53.5558 15.2346 52.9634 13.8424 55.233ZM17.081 57.9932C16.2001 58.6686 14.8131 58.178 14.7147 56.8929C14.9461 56.7997 15.1361 56.6079 15.2173 56.3523C15.3693 55.8738 15.9272 55.5128 16.4247 55.5318C16.9446 55.5595 17.4627 55.9827 17.6027 56.4974C17.746 57.0225 17.5267 57.6512 17.081 57.9932Z" fill="#111032" fill-opacity="0.15"/>
<path d="M25.7078 28.31C24.6455 28.2754 23.5849 28.842 23.0374 29.7384C21.3101 29.9612 22.0269 34.5126 25.3727 34.5126C29.5078 34.5143 29.5665 28.5103 25.7078 28.31ZM23.9097 31.3983C24.7163 31.0753 24.2655 30.0113 25.6197 30.0372C26.7977 30.096 27.3245 31.6989 26.2778 32.4986C25.3986 33.1671 24.0064 32.6869 23.9097 31.3983Z" fill="#111032" fill-opacity="0.15"/>
<path d="M47.3998 18.8049C47.5691 18.9742 47.842 18.9742 48.0095 18.8049C48.1788 18.6356 48.1788 18.3627 48.0095 18.1952L46.4602 16.6458C46.5344 16.6285 46.6122 16.6164 46.6709 16.5594L48.6365 14.5938L49.4535 15.4108L49.4345 15.4281C49.2652 15.5974 49.2652 15.8703 49.4345 16.0395C49.6038 16.2088 49.8767 16.2088 50.046 16.0395L50.065 16.0205L50.5624 16.518C50.7317 16.6873 51.0046 16.6873 51.1739 16.518C51.3432 16.3487 51.3432 16.0758 51.1739 15.9083L50.6764 15.4108L51.7525 14.3347L52.1636 14.7458C52.3329 14.9151 52.6058 14.9151 52.7751 14.7458C52.9443 14.5765 52.9443 14.3036 52.7751 14.1343L52.364 13.7233L52.8562 13.231C53.0255 13.0617 53.0255 12.7888 52.8562 12.6195C52.687 12.4503 52.4141 12.4503 52.2448 12.6195L51.7525 13.1118L50.9355 12.2948L51.5366 11.6937C51.7059 11.5244 51.7059 11.2515 51.5366 11.084C51.3673 10.9147 51.0944 10.9147 50.9252 11.084L50.3241 11.6851L50.046 11.407C49.8767 11.2377 49.6038 11.2377 49.4345 11.407C49.2652 11.5763 49.2652 11.8492 49.4345 12.0184L49.7126 12.2965L46.0612 15.948C45.9782 16.0309 45.9385 16.1397 45.9368 16.2485C45.7969 16.2174 45.6518 16.2295 45.543 16.3383C45.3737 16.5076 45.3737 16.7805 45.543 16.9481L47.3998 18.8049ZM50.3223 12.9063L51.1393 13.7233L50.0632 14.7993L49.2462 13.9824L50.3223 12.9063Z" fill="#111032" fill-opacity="0.15"/>
</svg>
