<svg width="71" height="70" viewBox="0 0 71 70" fill="none" xmlns="http://www.w3.org/2000/svg">
<path d="M60.5899 20.7703C60.5899 20.7692 60.5899 20.767 60.5888 20.7659C60.4018 19.4688 54.2505 14.2188 48.6549 14.2188C42.5638 14.2188 36.9223 21.7175 35.3418 21.875C33.8981 21.8805 33.9035 24.0625 35.3473 24.0625C39.789 24.0625 44.9898 10.4956 56.6229 19.7291C55.2459 20.0725 54.2779 20.9519 53.7748 22.3125C50.2966 19.3145 44.6999 21.0087 43.1741 24.7472C42.6404 26.0739 44.642 26.8997 45.1998 25.5719C46.4455 22.7259 51.4254 21.4988 53.6588 25.6189C55.4963 29.0041 61.3993 26.3113 60.5899 20.7703ZM55.586 24.582C55.621 22.528 56.426 21.5589 58.4527 21.7798C58.3838 24.5273 56.111 25.527 55.586 24.582Z" fill="#ff0000"/>
<path d="M47.4646 26.0553C47.4974 26.0936 50.7524 29.9075 50.7524 35C50.7524 45.8959 41.9816 63.4375 36.5337 63.4375C32.6607 63.4375 14.4454 48.6008 12.6505 36.8167C33.7971 45.8117 25.8915 10.0527 45.5801 9.8525C46.3588 9.85031 48.5627 9.84375 49.7495 9.84375C50.6004 9.84375 52.0288 10.2703 52.0288 13.125C52.0288 14.572 54.2163 14.572 54.2163 13.125C54.2163 9.08906 51.8101 7.65625 49.7495 7.65625C48.4402 7.65625 46.5163 7.66281 45.2891 7.66609V7.68141C40.3563 7.80828 36.9154 9.94109 34.3462 12.9609V9.86344C34.3746 8.29719 32.9987 6.5625 29.9712 6.5625C28.7057 6.5625 27.6995 6.86766 26.948 7.45062C26.2579 6.20703 24.4346 4.375 22.806 4.375C19.2174 4.375 15.7218 8.60344 17.8415 11.4483C19.4876 13.6598 19.947 15.8802 20.076 16.9094C17.8163 18.3378 10.3066 23.917 10.3066 35C10.3066 48.1119 31.077 65.625 36.5337 65.625C44.249 65.625 52.9399 45.6466 52.9399 35C52.9399 29.1003 49.2737 24.803 49.1184 24.6225C48.1679 23.5277 46.5185 24.9627 47.4646 26.0553ZM28.3579 24.1019C27.3166 21.1958 25.3566 17.2452 22.2351 16.5244C22.0984 15.4952 21.7177 13.7638 20.6918 11.8661C22.783 11.4078 24.1098 10.0625 24.766 8.08719C25.7766 9.42047 25.6312 11.0392 25.5962 15.3125C25.5962 16.7595 27.7837 16.7595 27.7837 15.3125V12.0477C29.3412 12.4622 30.8068 12.3408 32.1587 11.7688V16.0081C30.6066 18.5752 29.4265 21.4255 28.3579 24.1019ZM31.9771 9.39969C30.2884 10.4256 28.6926 10.0964 27.8482 9.78031C28.3448 8.35516 31.322 8.53891 31.9771 9.39969ZM22.9023 6.57781C22.5687 8.55203 21.476 9.74203 19.4351 9.83281C19.0687 8.76094 20.9455 6.38203 22.9023 6.57781ZM21.4837 18.6091C24.3613 18.9514 26.4263 24.8205 27.0552 27.3317C23.7838 35.2341 20.9838 38.5252 12.5237 34.3514C12.8288 24.3152 20.0005 19.495 21.4837 18.6091Z" fill="#ff0000"/>
<path d="M37.6275 27.3438V33.6164L33.539 40.7717L28.9092 43.5499L26.2033 41.7463C25.9222 41.5592 25.57 41.5122 25.2506 41.6183L21.9694 42.712C20.5923 43.1714 21.2945 45.2474 22.6617 44.7869L25.4354 43.8627L27.6306 45.3261L26.7239 48.953C26.3739 50.3541 28.4936 50.8911 28.8469 49.4845L29.8312 45.5492L33.2547 43.4952V54.6875C33.2547 56.1345 35.4422 56.1345 35.4422 54.6875V48.5778L39.0439 52.1795C40.0567 53.2033 41.6153 51.66 40.5883 50.633L35.44 45.4847V41.8534L39.1576 35.3478L41.8603 36.6986L40.9306 41.3481C40.6473 42.7722 42.7911 43.2086 43.0744 41.778L43.7678 38.313L45.6042 40.1494C46.6301 41.1709 48.1734 39.6244 47.1508 38.6017L43.8695 35.3205C43.4025 34.9738 41.5781 34.1381 39.815 33.2303V27.3438C39.815 25.8967 37.6275 25.8967 37.6275 27.3438Z" fill="#ff0000"/>
</svg>
