<svg width="66" height="65" viewBox="0 0 66 65" fill="none" xmlns="http://www.w3.org/2000/svg">
<path d="M33.9902 27.4219C30.6295 27.4219 27.8965 30.1549 27.8965 33.5156C27.8965 36.8763 30.6295 39.6094 33.9902 39.6094C37.3509 39.6094 40.084 36.8763 40.084 33.5156C40.084 30.1549 37.3509 27.4219 33.9902 27.4219ZM33.9902 37.5781C31.7498 37.5781 29.9277 35.7561 29.9277 33.5156C29.9277 31.2752 31.7498 29.4531 33.9902 29.4531C36.2307 29.4531 38.0527 31.2752 38.0527 33.5156C38.0527 35.7561 36.2307 37.5781 33.9902 37.5781Z" fill="#fc5e5e"/>
<path d="M56.4188 36.4934C57.7178 36.275 59.0371 36.1847 60.3675 36.2243C60.9221 36.2192 61.3953 35.7987 61.4116 35.2371C61.4278 34.6765 60.986 34.2093 60.4254 34.193C58.0621 34.128 55.7332 34.4469 53.4765 35.1101C53.4105 35.1243 53.3485 35.1436 53.2866 35.1711C52.9088 35.2858 52.531 35.3986 52.1572 35.5336C49.5562 35.3945 47.3493 33.9371 46.2361 31.6011C45.0946 29.2022 45.4023 26.068 46.9826 23.9768C47.0466 23.8925 47.0994 23.7971 47.136 23.6915C47.2944 23.2334 47.4742 22.7845 47.656 22.3376H47.6671C49.4709 22.3376 51.2553 22.0837 52.9778 21.6135C54.873 22.945 57.1084 23.66 59.4149 23.66C59.7724 23.66 60.1309 23.6427 60.4904 23.6082C61.049 23.5554 61.4583 23.0597 61.4055 22.5011C61.3517 21.9415 60.85 21.515 60.2985 21.5871C58.6328 21.7455 56.9865 21.4439 55.5037 20.7431C57.1328 20.0575 58.6785 19.1658 60.0892 18.0659C60.5321 17.7206 60.6103 17.0828 60.265 16.641C59.9196 16.1982 59.2808 16.121 58.839 16.4653C55.8917 18.7657 52.3065 20.0982 48.5893 20.284C50.2113 17.1031 52.4578 14.2634 55.2092 11.9498C55.6388 11.5893 55.6936 10.9484 55.3331 10.5188C54.9725 10.0892 54.3327 10.0343 53.9021 10.3949C50.519 13.2397 47.852 16.8268 46.0807 20.8538C46.0706 20.8731 46.0625 20.8914 46.0543 20.9117C45.7882 21.519 45.5425 22.1365 45.319 22.7632C43.7956 24.1901 41.6831 24.5618 40.1129 23.6407C38.3559 22.6118 37.4733 20.474 38.0146 18.5565C38.0187 18.5422 38.0157 18.529 38.0187 18.5148C38.0217 18.5016 38.0309 18.4915 38.0329 18.4772C38.2046 17.6048 38.3214 16.7243 38.4128 15.8417C41.5988 13.9343 43.9743 10.9708 45.1128 7.41911C45.2835 6.88489 44.99 6.31208 44.4557 6.14146C43.9205 5.97286 43.3497 6.26536 43.1791 6.79755C42.3412 9.41177 40.7264 11.6553 38.5702 13.2884C38.5773 12.8801 38.5702 12.4729 38.559 12.0646C38.557 12.0199 38.5631 11.9762 38.555 11.9325C38.4727 9.15989 38.0136 6.39942 37.1554 3.74864C36.9828 3.21442 36.412 2.92192 35.8767 3.09458C35.3435 3.26724 35.051 3.83903 35.2237 4.37325C35.8788 6.39841 36.281 8.49263 36.4516 10.6041C34.1675 9.53161 32.4825 7.47294 31.9351 4.94505C31.8163 4.39763 31.275 4.04825 30.7275 4.16708C30.1791 4.28591 29.8317 4.82622 29.9496 5.37466C30.7082 8.8745 33.2107 11.6533 36.5501 12.8253C36.5491 14.5041 36.3896 16.1829 36.0799 17.8384C33.5926 20.8254 31.3867 22.3437 26.599 22.3437C22.3273 22.3437 18.9057 21.0783 16.4306 18.5818C16.4296 18.5808 16.4296 18.5808 16.4285 18.5808C16.4285 18.5808 16.4275 18.5798 16.4275 18.5788C16.069 18.2193 15.742 17.8343 15.3997 17.4616C16.5657 14.1283 17.0278 10.535 16.721 7.02099C16.6723 6.46239 16.195 6.04091 15.6211 6.09778C15.0625 6.14653 14.6482 6.63911 14.6979 7.19771C14.9447 10.0343 14.6461 12.9248 13.8458 15.6619C12.1599 13.5647 10.6953 11.3008 9.51315 8.86638C9.26839 8.3606 8.65901 8.15138 8.15628 8.39716C7.65151 8.64192 7.44128 9.24825 7.68706 9.75403C8.55034 11.5324 9.55886 13.2244 10.6791 14.8372C9.02769 14.7895 7.3844 14.5945 5.76956 14.2431C5.22214 14.1151 4.68081 14.4706 4.56097 15.019C4.44112 15.5665 4.78948 16.1078 5.3369 16.2276C7.34581 16.6654 9.39839 16.8858 11.454 16.8858C11.7069 16.8858 11.9598 16.8756 12.2127 16.8685C12.6067 17.3611 13.01 17.8445 13.4284 18.3168C13.4802 18.3868 13.534 18.4508 13.6031 18.5067C14.0439 18.9972 14.4765 19.4949 14.9437 19.9631C14.9437 19.9631 14.9437 19.9641 14.9447 19.9641L15.0717 20.1104C17.9124 23.3563 21.8032 27.7997 21.8032 31.4843C21.8032 34.5922 19.2611 36.1826 16.3178 38.024C16.0233 38.2078 15.7267 38.3957 15.4312 38.5836C12.1243 38.5338 9.14753 37.6208 6.09354 35.7022C5.61925 35.4047 4.99261 35.5489 4.69401 36.0211C4.3944 36.4975 4.53761 37.1241 5.01292 37.4227C7.58347 39.0375 10.1114 40.0105 12.7957 40.4107C9.99354 42.444 7.3255 44.6753 4.84534 47.0823C4.44315 47.4733 4.433 48.1162 4.82401 48.5184C5.02409 48.7236 5.28815 48.8261 5.55323 48.8261C5.80815 48.8261 6.06308 48.7307 6.26011 48.5397C7.6962 47.1453 9.20136 45.8168 10.7542 44.5463C9.97729 47.5769 9.5944 50.6888 9.61573 53.8352C9.61979 54.3938 10.0738 54.8437 10.6314 54.8437H10.6385C11.1991 54.8397 11.651 54.3816 11.647 53.821C11.6196 49.919 12.2553 46.0738 13.5249 42.3871C14.4075 41.7361 15.3022 41.1043 16.2122 40.497C18.8214 39.1828 21.9302 39.5921 24.3433 41.5695C26.5899 43.4108 27.5964 46.2952 27.0134 49.0303C23.7939 50.2541 20.7764 51.9268 18.0505 54.0424C17.6067 54.3867 17.5264 55.0245 17.8707 55.4673C18.0698 55.7243 18.3694 55.8593 18.6721 55.8593C18.8894 55.8593 19.1088 55.7903 19.2936 55.6461C21.6367 53.8281 24.2143 52.3656 26.9494 51.2443C26.9707 51.4911 27.0073 51.7359 27.0398 51.9817C25.1924 54.2059 24.7262 59.5583 24.8532 61.0238C24.8999 61.554 25.3427 61.9531 25.8647 61.9531C25.8942 61.9531 25.9236 61.9521 25.9531 61.949C26.5117 61.9003 26.926 61.4087 26.8773 60.8501C26.7656 59.5572 27.1312 56.7622 27.7995 54.8539C28.3307 56.0777 29.1025 57.1959 30.0704 58.1181C30.9327 58.9387 31.8041 59.477 32.8979 59.864C33.0107 59.9025 33.1244 59.9218 33.2371 59.9218C33.6556 59.9218 34.0466 59.6618 34.1949 59.2454C34.3817 58.7163 34.1055 58.1354 33.5764 57.9495C32.7547 57.658 32.125 57.269 31.472 56.6465C30.2278 55.4622 29.3889 53.8738 29.1096 52.1726C28.9888 51.4414 28.9299 50.6949 28.9207 49.9525C29.9181 47.3342 31.9889 45.439 34.6387 44.7474C37.2621 44.0578 40.0906 44.6336 42.135 46.2211C42.2305 49.858 43.3233 53.3751 45.3312 56.42C45.5252 56.7145 45.8492 56.875 46.1792 56.875C46.3712 56.875 46.5652 56.8201 46.7368 56.7074C47.205 56.3986 47.334 55.7679 47.0263 55.2997C45.449 52.9079 44.5035 50.1901 44.2353 47.3606C47.592 49.1359 50.4022 51.7511 52.4264 54.9991C52.6183 55.3089 52.9504 55.4785 53.2896 55.4785C53.4735 55.4785 53.6583 55.4287 53.8259 55.3251C54.3022 55.0286 54.4475 54.4029 54.1509 53.9266C52.9281 51.9634 51.4371 50.2175 49.7339 48.7144C51.5692 48.492 53.4227 48.493 55.2701 48.7408C55.8226 48.8129 56.3365 48.424 56.4117 47.8694C56.4858 47.3129 56.0958 46.802 55.5392 46.7279C52.8692 46.3714 50.1859 46.479 47.5534 47.0193C46.4809 46.2779 45.3434 45.6249 44.148 45.0653C44.146 42.3465 44.1714 40.369 45.3434 39.196C46.4443 38.092 48.6462 37.5781 52.272 37.5781C52.3908 37.5781 52.5107 37.5568 52.6285 37.5141C52.9504 37.3933 53.2785 37.3049 53.6045 37.2003C55.9069 38.4018 57.9808 40.0806 59.6048 42.1058C59.8059 42.3566 60.1004 42.4866 60.398 42.4866C60.6214 42.4866 60.8449 42.4135 61.0328 42.2632C61.4705 41.9118 61.5406 41.2729 61.1902 40.8362C59.8424 39.1554 58.2185 37.6868 56.4188 36.4934ZM43.9043 37.7609C42.4103 39.2559 42.1614 41.3369 42.1218 43.7582C39.7554 42.4287 36.8873 42.056 34.1248 42.7801C32.1616 43.293 30.4198 44.3726 29.0792 45.8524C28.6831 43.6129 27.4877 41.5197 25.6301 39.9973C24.065 38.7146 22.2146 37.962 20.3357 37.7701C22.31 36.2446 23.8345 34.3728 23.8345 31.4843C23.8345 28.7848 22.2948 25.9644 20.4017 23.3847C22.2694 24.0388 24.3514 24.375 26.599 24.375C31.018 24.375 33.6596 23.1522 35.9549 20.9676C36.3165 22.7733 37.4337 24.4258 39.0861 25.3947C40.5182 26.2325 42.2295 26.3859 43.8413 25.9106C43.2685 28.0698 43.4371 30.4433 44.4039 32.4736C45.1007 33.9351 46.1254 35.1335 47.3787 36.0019C45.8522 36.3593 44.7259 36.9372 43.9043 37.7609Z" fill="#fc5e5e"/>
</svg>
