<svg width="62" height="62" viewBox="0 0 62 62" fill="none" xmlns="http://www.w3.org/2000/svg">
<path d="M54.3202 15.145H51.9407C54.769 13.9226 56.2523 12.4274 56.2523 10.7735C56.2523 8.58506 53.7129 6.70871 48.9089 5.34314C46.8353 2.15523 43.3606 0.0605469 39.4312 0.0605469C38.0747 0.0605469 36.7438 0.307699 35.4722 0.796555C34.4127 1.20888 31.1286 1.20876 30.0642 0.795586C28.7992 0.30782 27.4693 0.0605469 26.1112 0.0605469C22.3267 0.0605469 18.9639 2.0035 16.8684 4.99475C12.8051 5.98797 8.20737 7.77482 8.20737 10.7735C8.20737 12.909 10.6338 14.7504 15.2301 16.1103C15.6681 17.4755 16.3319 18.7573 17.202 19.8825C18.892 22.0727 20.2928 28.9059 21.2196 33.4278C21.4639 34.6196 21.6748 35.6488 21.8638 36.4715C22.1752 37.832 23.1812 38.7461 24.3675 38.7461C25.467 38.7461 26.3696 37.9476 26.8435 36.5566L31.3042 23.5142C32.1632 23.2361 33.3779 23.2361 34.2348 23.5137L38.6961 36.5581C39.1748 37.9486 40.0783 38.746 41.1749 38.746C42.3563 38.746 43.3621 37.833 43.6785 36.4711C43.8642 35.6586 44.0718 34.645 44.3121 33.4714C44.7822 31.1759 45.3588 28.3625 46.0298 25.8303H50.0616C50.5289 25.8303 50.9078 25.4514 50.9078 24.9841V21.5754H54.32C54.7873 21.5754 55.1662 21.1965 55.1662 20.7292V15.9912C55.1663 15.5237 54.7875 15.145 54.3202 15.145ZM54.56 10.7735C54.56 11.7295 53.2159 12.8089 50.9079 13.7433V12.8384C50.9193 12.6068 50.925 12.3993 50.925 12.2055C50.925 10.5244 50.5999 8.92195 50.0128 7.46458C53.3297 8.62587 54.56 9.89784 54.56 10.7735ZM26.1112 1.75295C27.2603 1.75295 28.3855 1.9622 29.4536 2.37392C30.9121 2.94004 34.6312 2.93991 36.0828 2.37501C37.1565 1.9622 38.2831 1.75295 39.4312 1.75295C44.4179 1.75295 48.5467 5.74517 49.1552 10.8898H45.3271C44.8598 10.8898 44.4809 11.2687 44.4809 11.736V15.145H41.0686C40.6013 15.145 40.2224 15.5239 40.2224 15.9912V16.0716C37.6605 16.3423 34.9767 16.481 32.2297 16.481C26.3636 16.481 20.8444 15.8634 16.6036 14.7378C16.411 13.9144 16.3095 13.0642 16.3095 12.2055C16.3096 6.44195 20.7067 1.75295 26.1112 1.75295ZM9.89978 10.7735C9.89978 9.79612 11.4625 8.31357 15.7011 7.06061C15.0064 8.62369 14.6172 10.3673 14.6172 12.2054C14.6172 12.8742 14.6712 13.5388 14.774 14.1929C11.2096 12.9995 9.89978 11.6738 9.89978 10.7735ZM42.6542 33.1319C42.4159 34.2954 42.2101 35.3004 42.0295 36.0911C41.8957 36.6668 41.5523 37.0535 41.175 37.0535C40.694 37.0535 40.3809 36.2527 40.297 36.0088L35.7097 22.5963C35.6352 22.3786 35.4754 22.2006 35.2669 22.1034C33.8685 21.4508 31.6749 21.4507 30.2731 22.103C30.0642 22.2001 29.904 22.3784 29.8294 22.5963L25.2419 36.0098C25.1584 36.2546 24.8489 37.0535 24.3676 37.0535C23.9882 37.0535 23.6451 36.6679 23.5136 36.0932C23.329 35.2894 23.1198 34.2692 22.8776 33.0878C21.8621 28.1337 20.4714 21.3489 18.5414 18.8479C18.018 18.1711 17.5814 17.4277 17.236 16.64C21.4522 17.6327 26.6991 18.1733 32.2301 18.1733C34.9725 18.1733 37.6559 18.0384 40.2227 17.7737V20.7289C40.2227 21.1964 40.6016 21.5752 41.0689 21.5752H44.4812V24.9838C44.4812 25.009 44.4828 25.0338 44.485 25.0585C43.7621 27.7251 43.1496 30.7131 42.6542 33.1319ZM53.474 19.8829H50.0619C49.5946 19.8829 49.2156 20.2618 49.2156 20.7291V24.1377H46.1734V20.7291C46.1734 20.2617 45.7945 19.8829 45.3272 19.8829H41.9149V16.8374H45.3272C45.7945 16.8374 46.1734 16.4585 46.1734 15.9912V12.5822H49.2156V15.9912C49.2156 16.4586 49.5946 16.8374 50.0619 16.8374H53.474V19.8829ZM48.8754 41.6994L41.1969 46.6228C40.8278 45.5208 39.9606 44.6209 38.8027 44.2359L25.3666 39.7926C23.5981 39.2069 21.8221 39.4103 20.2313 40.3799L14.3817 43.9373L13.9229 43.2175C13.6717 42.8234 13.1485 42.7076 12.7544 42.9589L6.13897 47.1762C5.9497 47.2969 5.81613 47.4878 5.76757 47.7069C5.71914 47.9261 5.7597 48.1556 5.88031 48.3447L14.3012 61.5482C14.4219 61.7375 14.6127 61.871 14.8319 61.9194C14.8925 61.9328 14.9536 61.9395 15.0147 61.9395C15.1746 61.9395 15.3328 61.894 15.4697 61.8067L22.0817 57.5894C22.4756 57.3381 22.5914 56.815 22.3402 56.4211L21.3657 54.8924L23.8701 53.369L34.5611 56.9051C35.2807 57.1431 35.9998 57.2614 36.7087 57.2614C37.9476 57.2614 39.1547 56.8999 40.2751 56.1837L52.9519 48.0568C54.702 46.9315 55.2128 44.5922 54.0904 42.8421C52.9665 41.09 50.6274 40.5769 48.8754 41.6994ZM15.2731 59.9247L7.76235 48.1483L12.9505 44.8409L20.4582 56.6174L15.2731 59.9247ZM52.0375 46.6327L39.3626 54.7584C38.046 55.6 36.5693 55.7867 35.0926 55.2983L24.0303 51.6393C23.7947 51.5615 23.5367 51.5908 23.3248 51.7197L20.4556 53.4648L15.2917 45.3649L21.1114 41.8257C22.2817 41.1124 23.5344 40.9688 24.835 41.3994L38.2702 45.8425C39.1497 46.1348 39.724 46.9671 39.6974 47.8877C39.6902 47.919 39.6841 47.9507 39.6804 47.9833C39.5998 48.6723 39.2188 49.3113 38.6858 49.6509C38.1924 49.9653 37.6117 50.0154 36.9599 49.7996L30.8411 47.7749C30.3972 47.6282 29.9188 47.8688 29.7719 48.3125C29.6251 48.7562 29.8657 49.2349 30.3094 49.3817L36.4279 51.4062C36.8603 51.5494 37.2924 51.6204 37.713 51.6204C38.3868 51.6204 39.0306 51.438 39.5952 51.0781C40.4548 50.5304 41.0712 49.6113 41.2954 48.57L49.7887 43.124C50.7549 42.5052 52.0457 42.7885 52.666 43.7557C53.285 44.7213 53.0027 46.012 52.0375 46.6327ZM51.6103 32.9767V34.1586H52.7923C53.2596 34.1586 53.6385 34.5375 53.6385 35.0048C53.6385 35.4721 53.2596 35.851 52.7923 35.851H51.6103V37.0364C51.6103 37.5038 51.2314 37.8826 50.7641 37.8826C50.2968 37.8826 49.9179 37.5037 49.9179 37.0364V35.851H48.7325C48.2652 35.851 47.8863 35.4721 47.8863 35.0048C47.8863 34.5375 48.2652 34.1586 48.7325 34.1586H49.9179V32.9767C49.9179 32.5093 50.2968 32.1305 50.7641 32.1305C51.2314 32.1305 51.6103 32.5093 51.6103 32.9767ZM15.5697 23.1855V24.3708H16.7551C17.2224 24.3708 17.6013 24.7497 17.6013 25.217C17.6013 25.6843 17.2224 26.0632 16.7551 26.0632H15.5697V27.2486C15.5697 27.7161 15.1908 28.0948 14.7235 28.0948C14.2562 28.0948 13.8773 27.7159 13.8773 27.2486V26.0632H12.692C12.2247 26.0632 11.8458 25.6843 11.8458 25.217C11.8458 24.7497 12.2247 24.3708 12.692 24.3708H13.8773V23.1855C13.8773 22.718 14.2562 22.3393 14.7235 22.3393C15.1908 22.3393 15.5697 22.7182 15.5697 23.1855Z" fill="#ff0000"/>
</svg>
