<svg width="62" height="62" viewBox="0 0 62 62" fill="none" xmlns="http://www.w3.org/2000/svg">
<g clip-path="url(#clip0_33_413)">
<path d="M50.7951 50.4458C50.6441 49.9675 50.1341 49.7019 49.6559 49.8527C49.1774 50.0036 48.9118 50.5136 49.0627 50.992C49.3095 51.7747 49.5957 52.6056 49.9132 53.4617C50.067 53.876 50.039 54.3192 49.8348 54.71C49.6316 55.0988 49.2858 55.3732 48.8609 55.4827L30.8091 60.1359C30.0693 60.3268 29.295 59.9373 29.0082 59.2304C27.931 56.5773 25.4097 50.3635 18.9945 51.2333C18.5446 51.2942 18.096 51.3572 17.654 51.4193C15.4667 51.7265 13.2053 52.044 12.1882 51.8777C10.0329 51.5248 8.84982 50.6322 8.46485 49.0684C8.21758 48.0756 8.52395 47.3515 8.94524 46.6674C9.41982 45.8187 9.02371 44.8161 8.38481 44.374C7.95734 44.078 7.48083 43.8856 7.13352 43.7714C7.12432 43.575 7.21708 43.2769 7.68693 42.9382C7.88614 42.7945 8.01861 42.5764 8.05422 42.3335C8.08994 42.0904 8.02576 41.8434 7.87621 41.6487C7.88238 41.5923 7.04549 40.7522 6.13763 39.9674C6.89012 39.4328 8.3262 38.2222 8.13971 36.8833C8.0616 36.3233 7.677 35.5659 6.28755 35.1386C4.76671 34.6709 4.55588 34.0826 4.55455 33.5166C4.55321 32.9394 4.89591 32.5822 5.71622 31.9507C7.01279 30.9527 8.49428 29.6544 9.65208 27.5933C10.0385 26.9053 10.0846 26.0651 9.77559 25.3454C9.59238 24.9192 9.33795 24.5162 9.09189 24.1266C8.71383 23.5278 8.32281 22.9084 8.41375 22.518C8.46328 22.3053 8.59721 22.0223 8.75221 21.6945C9.1281 20.9002 9.64275 19.8124 9.75053 18.1594C9.78976 17.5562 9.85806 16.9575 9.95336 16.3802C10.035 15.8853 9.69991 15.418 9.20499 15.3363C8.70983 15.2555 8.24276 15.5898 8.16102 16.0846C8.05615 16.7205 7.9812 17.3789 7.93784 18.0412C7.85259 19.3488 7.45818 20.1824 7.11027 20.9178C6.91894 21.3223 6.73815 21.7042 6.64454 22.1061C6.3814 23.2362 7.00528 24.2246 7.55579 25.0965C7.774 25.4419 7.97998 25.7682 8.10665 26.0628C8.19396 26.2661 8.17967 26.5057 8.06838 26.7039C7.26419 28.1354 6.26176 29.2387 4.60819 30.5115C3.86212 31.0859 2.73472 31.9539 2.73823 33.5207C2.74186 35.1322 3.7564 36.2606 5.75364 36.8748C6.14139 36.994 6.29045 37.1101 6.33647 37.1546C6.28089 37.4585 5.58108 38.1694 4.87896 38.6273C4.78003 38.6915 4.69441 38.7745 4.62708 38.8714C4.22347 39.4525 4.02596 40.6384 5.13593 41.5235C5.43855 41.7647 5.68594 41.9848 5.88067 42.17C5.06073 43.2257 5.27228 44.3993 5.70653 45.036C6.04245 45.4922 6.59198 45.3938 7.32207 45.8479C6.92778 46.5391 6.27411 47.6988 6.70109 49.5027C7.26564 51.7964 9.01305 53.1987 11.8948 53.6704C13.1844 53.8814 15.3729 53.5741 17.9066 53.2183C18.3459 53.1565 18.7917 53.0941 19.2385 53.0334C23.6479 52.4369 25.7309 55.9872 27.3252 59.9137C27.8455 61.1959 29.098 62.0004 30.4325 62.0003C30.7075 62.0003 30.9861 61.9662 31.2625 61.8949L49.3142 57.2417C50.2301 57.0057 51.0066 56.3896 51.4447 55.5516C51.8838 54.7115 51.9464 53.7196 51.6163 52.8301C51.3092 52.002 51.0328 51.1999 50.7951 50.4458Z" fill="#ff0000"/>
<path d="M49.6895 5.05115C44.6696 1.84102 37.7689 0 30.7568 0C26.0498 0 21.6178 1.01708 17.9403 2.94154C13.9926 5.00719 11.0448 8.07213 9.41518 11.805C9.21453 12.2648 9.42451 12.8002 9.88419 13.0009C10.344 13.201 10.8792 12.9915 11.08 12.5318C13.9652 5.92231 21.5048 1.81644 30.7568 1.81644C37.4314 1.81644 43.9755 3.55319 48.7109 6.58144C54.4252 10.2356 57.4456 15.6841 57.4456 22.3379C57.4456 30.5846 56.3615 33.9633 49.185 40.458C47.8978 41.6228 47.5156 43.6868 48.0169 46.7677C48.0895 47.2135 48.4748 47.5303 48.9123 47.5303C48.9606 47.5303 49.0099 47.5264 49.0592 47.5183C49.5544 47.4377 49.8903 46.971 49.8097 46.4761C49.4264 44.1189 49.6317 42.5034 50.4038 41.8047C57.9817 34.9468 59.262 30.9292 59.262 22.3379C59.2619 15.0334 55.9517 9.05567 49.6895 5.05115Z" fill="#ff0000"/>
<path d="M18.1382 31.1155C18.4666 31.1676 18.7967 31.1932 19.1251 31.1932C20.3162 31.1932 21.4871 30.8559 22.4973 30.2306C23.2184 31.826 24.7044 33.0382 26.5328 33.3278C27.0454 33.4088 27.5594 33.416 28.0672 33.3488C28.2916 33.5763 28.5398 33.775 28.805 33.9468L31.6511 40.9283C32.0257 41.8473 32.8672 42.5147 33.8476 42.6699L36.8087 43.1389C36.9032 43.1539 36.9975 43.1613 37.0909 43.1613C37.6007 43.1613 38.0859 42.9427 38.4277 42.5492C38.8321 42.0832 38.9652 41.453 38.7841 40.8633L37.7276 37.4254C38.0037 37.4753 38.2954 37.5003 38.8329 37.4803C39.6641 38.3151 40.7402 38.8675 41.9126 39.0531C42.2084 39.1001 42.5042 39.1231 42.7981 39.1231C43.9674 39.1231 45.1038 38.7562 46.0681 38.0555C47.2748 37.1789 48.0677 35.8849 48.3009 34.4121C48.3275 34.2439 48.3452 34.0743 48.3566 33.9045C48.8191 33.6893 49.2645 33.4281 49.6864 33.1215C51.3982 31.8778 52.5232 30.042 52.8541 27.9523C53.1296 26.2132 52.8226 24.4559 51.9882 22.9265C52.9104 21.9384 53.5226 20.6922 53.7358 19.3466C54.0205 17.5495 53.5881 15.7492 52.5187 14.2773C51.5546 12.9502 50.1766 12.0332 48.5963 11.6566C47.7742 9.30266 45.7242 7.57062 43.2307 7.17573C41.5538 6.90968 39.864 7.27612 38.4622 8.18579C37.4434 6.90702 36.0554 5.97664 34.4696 5.52519C33.9872 5.38714 33.4848 5.66748 33.3475 6.14993C33.21 6.63225 33.4899 7.1348 33.9722 7.27212C35.4381 7.68954 36.685 8.64063 37.4832 9.95004C37.623 10.1794 37.8572 10.335 38.1226 10.3752C38.3892 10.4158 38.658 10.3361 38.8594 10.1586C39.9813 9.16945 41.4708 8.73641 42.9465 8.96976C44.9178 9.28207 46.5113 10.7341 47.006 12.6691C47.0964 13.0231 47.3902 13.2883 47.7516 13.3424L47.7891 13.3473C49.107 13.5562 50.2645 14.2655 51.0489 15.345C51.8332 16.4244 52.1502 17.7447 51.9415 19.0625C51.7551 20.2388 51.1524 21.3117 50.2447 22.0837C49.8914 22.384 49.8212 22.9022 50.0816 23.2858C50.956 24.5739 51.3034 26.1301 51.0598 27.6681C50.8048 29.2786 49.9376 30.6934 48.6185 31.6519C47.2992 32.6103 45.6853 32.9977 44.0751 32.7427C43.0966 32.5877 42.1859 32.2041 41.4023 31.6235C41.6125 31.2762 41.7898 30.903 41.9271 30.5058C42.0909 30.0317 41.8393 29.5145 41.3652 29.3508C40.891 29.1871 40.3739 29.4387 40.2102 29.9127C39.5761 31.7484 37.7205 32.8603 35.801 32.5555C35.2231 32.4638 34.6845 32.2529 34.2003 31.9283C33.8357 31.684 33.3484 31.7353 33.0428 32.0503C32.4576 32.6535 31.6148 32.9351 30.787 32.8045C30.1264 32.6998 29.54 32.3478 29.1355 31.8135C28.9174 31.5253 28.5496 31.3935 28.1975 31.4789C27.7447 31.5887 27.2798 31.6069 26.8164 31.5336C25.0075 31.247 23.705 29.5938 23.8512 27.7701C23.8872 27.3222 23.5903 26.9153 23.1526 26.8131C22.2554 26.6036 21.6388 25.7825 21.6865 24.8611C21.7179 24.2533 22.0269 23.7109 22.5342 23.3728C22.9516 23.0945 23.0645 22.5307 22.7863 22.1134C22.5082 21.696 21.9442 21.5834 21.5269 21.8613C20.5514 22.5114 19.9331 23.5978 19.8725 24.7673C19.7927 26.3126 20.6694 27.7133 22.0287 28.3384C21.0212 29.1707 19.7288 29.5283 18.4218 29.3215C15.9386 28.9282 14.2383 26.5879 14.6315 24.1048C14.7439 23.3963 15.0122 22.7428 15.429 22.1624C15.6323 21.8794 15.6557 21.505 15.4892 21.1989C14.9221 20.1558 14.7206 18.9839 14.9064 17.8101C15.2624 15.5623 17.0065 13.782 19.2463 13.3797C19.6189 13.3127 19.911 13.0216 19.9792 12.6491C20.4051 10.319 22.6551 8.72515 24.995 9.09534C25.4899 9.17357 25.9638 9.33414 26.4033 9.57222C26.791 9.7822 27.2734 9.6835 27.5473 9.33814C28.2664 8.43198 29.2238 7.75215 30.3157 7.37239C30.7894 7.20758 31.0397 6.68977 30.875 6.21604C30.7101 5.74256 30.1929 5.49238 29.7187 5.6567C28.5299 6.07037 27.4639 6.75783 26.6001 7.66266C26.1757 7.49409 25.7336 7.37299 25.2791 7.30118C23.6651 7.04555 22.0418 7.42543 20.7092 8.37179C19.5472 9.19682 18.7183 10.3718 18.3319 11.7246C15.6207 12.4528 13.5572 14.717 13.1123 17.526C12.8924 18.915 13.0775 20.3022 13.6473 21.5703C13.2367 22.2609 12.965 23.0154 12.8374 23.8206C12.2882 27.2931 14.6657 30.5655 18.1382 31.1155ZM45.0476 34.6362C45.512 34.6362 45.9724 34.5939 46.4252 34.5132C46.2037 35.3463 45.7076 36.0724 45.0006 36.5859C44.1865 37.1774 43.1915 37.4166 42.197 37.2591C41.2904 37.1154 40.4689 36.6462 39.8838 35.9381C39.6707 35.68 39.3327 35.5599 39.0049 35.626C38.7009 35.6871 38.3896 35.6933 38.0802 35.6443C37.7144 35.5863 37.3664 35.4506 37.0594 35.2505L36.8012 34.4104C38.0799 34.33 39.2801 33.8299 40.2278 33.014C41.266 33.8076 42.4826 34.3297 43.7916 34.537C44.2112 34.6033 44.6307 34.6362 45.0476 34.6362ZM33.7983 33.7943C34.1306 33.963 34.4773 34.0982 34.8364 34.1998L37.0289 41.3347L34.1319 40.8759C33.7755 40.8193 33.4695 40.5768 33.3334 40.2427L31.0523 34.6471C31.8684 34.6854 32.9668 34.4039 33.7983 33.7943Z" fill="#ff0000"/>
<path d="M39.455 22.1147C39.1 22.4691 39.0996 23.0441 39.4541 23.399C39.8086 23.7541 40.3837 23.7542 40.7385 23.3999C41.9792 22.1297 43.0272 21.3808 43.2295 18.8413C43.2274 15.7565 40.7611 13.2471 37.7319 13.2471C36.251 13.2471 34.8677 13.8339 33.8498 14.8587C32.832 13.8339 31.4491 13.2471 29.9686 13.2471C26.9368 13.2471 24.4701 15.7138 24.47 18.7457C24.4698 20.1693 24.9775 21.4253 25.9357 22.376L32.2859 28.7167C32.7171 29.1474 33.2833 29.3625 33.8497 29.3625C34.4159 29.3625 34.9824 29.1473 35.4135 28.7168L37.7292 26.4045C38.0842 26.0501 38.0847 25.475 37.7302 25.12C37.3756 24.7651 36.8007 24.7646 36.4457 25.1191L34.13 27.4315C33.9756 27.5857 33.7239 27.5858 33.5695 27.4314L27.2172 21.0885C26.6082 20.4844 26.2862 19.6742 26.2863 18.7458C26.2864 16.7154 27.9383 15.0635 29.9685 15.0635C31.2378 15.0635 32.401 15.7104 33.0799 16.794C33.2459 17.0589 33.5367 17.22 33.8495 17.22C34.1622 17.22 34.4529 17.059 34.619 16.794C35.298 15.7104 36.4616 15.0635 37.7315 15.0635C39.7256 15.0635 41.4114 16.7941 41.4127 18.8425C41.3173 20.5183 40.345 21.1967 39.455 22.1147Z" fill="#ff0000"/>
</g>
<defs>
<clipPath id="clip0_33_413">
<rect width="62" height="62" fill="white"/>
</clipPath>
</defs>
</svg>
