<svg width="62" height="62" viewBox="0 0 62 62" fill="none" xmlns="http://www.w3.org/2000/svg">
<g clip-path="url(#clip0_33_370)">
<path d="M15.2209 15.2571C14.5525 15.2571 14.01 15.7996 14.01 16.468C14.01 17.1365 14.5525 17.679 15.2209 17.679C15.8894 17.679 16.4319 17.1365 16.4319 16.468C16.4319 15.7996 15.8894 15.2571 15.2209 15.2571Z" fill="#ff0000"/>
<path d="M26.1188 37.9004H22.4862V34.2678C22.4862 33.5991 21.944 33.0569 21.2753 33.0569C20.6066 33.0569 20.0645 33.5991 20.0645 34.2678V37.9004H16.4319C15.7632 37.9004 15.2209 38.4427 15.2209 39.1112C15.2209 39.7798 15.7632 40.3221 16.4319 40.3221H20.0645V43.9547C20.0645 44.6234 20.6067 45.1657 21.2753 45.1657C21.9438 45.1657 22.4862 44.6234 22.4862 43.9547V40.3221H26.1188C26.7875 40.3221 27.3297 39.7799 27.3297 39.1112C27.3297 38.4425 26.7876 37.9004 26.1188 37.9004Z" fill="#ff0000"/>
<path d="M58.8004 38.9903C56.1236 34.3541 50.2051 32.7674 45.568 35.4447L40.6494 38.2844V27.7691C40.6494 26.4692 40.2195 25.1791 39.4386 24.1365L33.3843 16.0643V12.6269C34.7936 12.1271 35.806 10.7812 35.806 9.20252V3.63257C35.8058 1.62956 34.1762 0 32.1732 0H10.3774C8.37443 0 6.74475 1.62956 6.74475 3.63257V9.20264C6.74475 10.7811 7.75722 12.1272 9.16651 12.6271V16.0644L3.1117 24.1371C2.33113 25.1793 1.90125 26.4692 1.90125 27.7691V51.2201C1.90125 54.5586 4.61726 57.2744 7.95557 57.2744H27.4156C30.1306 61.8255 35.985 63.3486 40.5741 60.6989L55.255 52.2227C59.8511 49.5685 61.4906 43.6518 58.8004 38.9903ZM9.16651 3.63257C9.16651 2.96486 9.70973 2.42163 10.3773 2.42163H32.1731C32.8408 2.42163 33.384 2.96486 33.384 3.63257V9.20264C33.384 9.87035 32.8408 10.4135 32.1731 10.4135H10.3774C9.70973 10.4135 9.16663 9.87023 9.16663 9.20264L9.16651 3.63257ZM5.04968 25.5894L11.3461 17.1945C11.5033 16.985 11.5883 16.7299 11.5883 16.4679V12.8353H30.9623V15.2571H20.0645C19.3958 15.2571 18.8535 15.7993 18.8535 16.468C18.8535 17.1367 19.3958 17.679 20.0645 17.679H31.5678L37.5005 25.589C37.8882 26.1067 38.1291 26.7261 38.2019 27.366H4.34879C4.42145 26.726 4.6623 26.1066 5.04968 25.5894ZM7.95569 54.8527C5.95268 54.8527 4.32312 53.2231 4.32312 51.2201V49.9972H26.3228C25.9388 51.5672 25.9414 53.2441 26.3811 54.8528H7.95569V54.8527ZM27.2726 47.5874H4.323V29.7875H38.2276V39.6824L30.887 43.9209C29.3565 44.8051 28.1194 46.0636 27.2726 47.5874ZM39.3634 58.6015C35.8884 60.6082 31.4479 59.4214 29.4399 55.944C27.4224 52.433 28.645 48.0126 32.0981 46.018L38.6708 42.2232L45.936 54.8067L39.3634 58.6015ZM54.0441 50.1254L48.0334 53.5959L40.768 41.0122L46.7788 37.5421C50.2562 35.5346 54.6951 36.7234 56.7031 40.2009C58.7199 43.696 57.4934 48.1336 54.0441 50.1254Z" fill="#ff0000"/>
</g>
<defs>
<clipPath id="clip0_33_370">
<rect width="62" height="62" fill="white"/>
</clipPath>
</defs>
</svg>
