<svg width="62" height="62" viewBox="0 0 62 62" fill="none" xmlns="http://www.w3.org/2000/svg">
<path d="M36.996 30.5409C36.2779 30.5409 35.5716 30.3604 34.9359 30.0033C33.8058 29.3715 33.0367 28.2767 32.8248 27.0014C32.5619 25.4239 31.6633 24.0427 30.3565 23.2186L14.8173 13.4006C14.3778 13.122 14.2444 12.5413 14.523 12.1018C14.8016 11.6623 15.3824 11.5289 15.8219 11.8075L31.3611 21.6254C33.1191 22.7359 34.3316 24.5842 34.6809 26.6914C34.7986 27.4016 35.2263 28.0099 35.8581 28.363C36.9176 28.9556 38.2753 28.6338 38.9541 27.6253C39.115 27.3899 39.2288 27.1309 39.2916 26.8601C39.5584 25.7496 40.1706 24.7843 41.0574 24.0662C41.2733 23.8896 41.4577 23.6777 41.6029 23.4305C42.219 22.3867 41.9286 21.0172 40.9397 20.3148C40.2569 19.8322 39.3897 19.7419 38.6245 20.0794C37.0667 20.7661 35.2969 20.6444 33.8882 19.7537L17.3876 9.32747C16.9481 9.04886 16.8146 8.4681 17.0933 8.02861C17.3719 7.58911 17.9526 7.4557 18.3921 7.7343L34.8927 18.1605C35.7717 18.7138 36.8783 18.7884 37.8633 18.3528C39.2406 17.7446 40.7984 17.9015 42.0267 18.7727C42.8939 19.3848 43.4943 20.2991 43.7179 21.3429C43.9416 22.3867 43.765 23.4658 43.2274 24.3801C42.9684 24.8196 42.6388 25.2042 42.2464 25.522C41.6814 25.9772 41.2968 26.5933 41.1241 27.2996C41.0064 27.7901 40.8024 28.2532 40.5159 28.677C39.9234 29.556 39.0248 30.1759 37.9849 30.4232C37.6553 30.5016 37.3257 30.5409 36.996 30.5409Z" fill="#fc5e5e"/>
<path d="M38.3616 57.5147C38.3106 57.5147 38.2557 57.5108 38.2046 57.5029C37.6906 57.4166 37.3453 56.93 37.4355 56.416L39.3505 45.1304C39.7821 42.5248 41.1006 40.1822 43.0548 38.5341C43.4746 38.1809 43.7415 37.6826 43.8043 37.1293C43.9298 36.0305 43.1764 35.0064 42.0895 34.7905C41.7951 34.7317 41.5008 34.7356 41.2105 34.7984C40.2216 35.0181 39.2053 34.8455 38.3381 34.3196C38.0869 34.1666 37.8083 34.0685 37.5101 34.0293C36.4153 33.8801 35.3715 34.61 35.1321 35.6891C34.9869 36.3523 35.1517 37.0312 35.5912 37.5452C36.843 39.0167 37.3767 40.9827 37.051 42.9408L34.8417 55.9922C34.7554 56.5062 34.2688 56.8515 33.7548 56.7652C33.2407 56.6789 32.8954 56.1923 32.9817 55.6783L35.187 42.6308C35.4225 41.226 35.0419 39.8172 34.1511 38.7656C33.327 37.7964 33.0131 36.5289 33.2878 35.285C33.7351 33.2562 35.6972 31.8867 37.7573 32.1653C38.3145 32.2399 38.8364 32.4243 39.3112 32.7147C39.7586 32.9855 40.2844 33.0757 40.7945 32.9619C41.34 32.8403 41.8932 32.8364 42.4465 32.9462C44.487 33.3504 45.8997 35.281 45.6682 37.3451C45.5505 38.3771 45.0521 39.311 44.2595 39.9781C42.6467 41.3358 41.5597 43.2782 41.1987 45.4443L39.2838 56.7338C39.2092 57.189 38.8129 57.5147 38.3616 57.5147Z" fill="#fc5e5e"/>
<path d="M46.6453 32.3499C46.555 32.3499 46.4648 32.3459 46.3745 32.3342L43.6394 32.0085C42.7919 31.9064 42.0855 31.3492 41.7912 30.5487C41.4969 29.7482 41.6774 28.8653 42.2582 28.2414C42.8075 27.6528 43.3962 27.0171 43.8984 26.4795C44.3968 25.9458 45.1227 25.6868 45.8448 25.781C46.5668 25.8791 47.2025 26.3225 47.54 26.9661L48.6348 29.0536C49.0232 29.7953 48.9683 30.6861 48.4935 31.3767C48.0736 31.9888 47.3791 32.3499 46.6453 32.3499ZM45.5465 27.641C45.472 27.641 45.37 27.6606 45.2797 27.7587C44.7774 28.3002 44.1888 28.932 43.6394 29.5206C43.506 29.6658 43.5335 29.8188 43.5649 29.8973C43.5924 29.9758 43.6708 30.1131 43.867 30.1367L46.6021 30.4624C46.7944 30.4859 46.9003 30.3761 46.9474 30.3054C46.9945 30.2387 47.0612 30.0974 46.971 29.9248L45.8762 27.8372C45.7977 27.692 45.6682 27.6528 45.5975 27.6449C45.5819 27.641 45.5662 27.641 45.5465 27.641Z" fill="#fc5e5e"/>
<path d="M46.8022 61.1366C46.7395 61.1366 46.6806 61.1288 46.6178 61.117C46.1077 61.015 45.7781 60.5205 45.8801 60.0104L51.3502 32.7069C52.4882 27.017 49.9297 21.1584 44.9815 18.1251L19.6243 2.6094C19.1809 2.33864 19.0396 1.75788 19.3143 1.31446C19.589 0.871044 20.1658 0.729778 20.6092 1.00446L45.9625 16.5202C48.7329 18.2153 50.8833 20.6836 52.1821 23.6619C53.481 26.6364 53.8341 29.8933 53.1945 33.0797L47.7244 60.3832C47.6381 60.8266 47.2417 61.1366 46.8022 61.1366Z" fill="#fc5e5e"/>
<path d="M25.9616 58.3192C25.8635 58.3192 25.7614 58.3035 25.6594 58.2682C25.165 58.1034 24.9021 57.5658 25.0669 57.0752C25.0983 56.9811 28.2885 47.4182 27.3232 42.466C26.8602 40.1077 27.2173 37.3804 28.3827 34.355C28.8379 33.1699 29.3323 32.1771 29.6973 31.5022C26.4795 30.1327 23.4384 28.622 20.6405 26.9974C18.1684 25.5651 15.8807 24.0426 13.8402 22.473C10.336 19.785 8.77422 17.8897 8.71143 17.8112C8.38181 17.407 8.4446 16.8145 8.84485 16.4849C9.24903 16.1553 9.84156 16.218 10.1673 16.6183C10.183 16.6379 11.6976 18.4665 15.0566 21.0368C18.1605 23.4108 23.5129 26.9268 31.4042 30.1759C31.6632 30.2818 31.8594 30.4977 31.9457 30.7645C32.0281 31.0313 31.9928 31.3217 31.8398 31.5571C31.8045 31.6121 28.2257 37.2863 29.1714 42.105C30.2348 47.5477 26.9936 57.2675 26.8523 57.6796C26.7189 58.072 26.354 58.3192 25.9616 58.3192Z" fill="#fc5e5e"/>
</svg>
