<svg width="60" height="60" viewBox="0 0 60 60" fill="none" xmlns="http://www.w3.org/2000/svg">
<path d="M58.7296 27.0047C58.3686 23.0684 56.0284 20.2934 52.4694 19.5832C48.7323 18.8367 43.985 20.2336 39.7968 21.4664C38.8206 21.7535 37.8948 22.0266 37.0288 22.2562C39.9034 20.1082 41.7679 16.6793 41.7679 12.8238C41.769 6.33398 36.4897 1.05469 29.9999 1.05469C23.51 1.05469 18.2307 6.33398 18.2307 12.8238C18.2307 16.6805 20.0952 20.1082 22.9698 22.2562C22.105 22.0254 21.1792 21.7535 20.203 21.4664C16.0147 20.2336 11.2675 18.8355 7.53035 19.5832C3.97137 20.2945 1.6323 23.0684 1.27019 27.0059C1.06394 29.2512 1.55496 32.5758 3.11941 34.5691L3.42058 34.9535C3.49676 36.3387 4.22215 37.8352 5.4034 39.0164C7.58308 41.1961 10.535 41.659 12.1241 40.0711C12.9233 39.2719 13.2257 38.1012 12.9737 36.7758C12.744 35.5652 12.0678 34.3488 11.0694 33.3504C10.3569 32.6367 9.52957 32.0859 8.6659 31.7449L7.9241 30.7992C7.52332 30.2895 7.26316 28.5445 7.35223 27.5648C7.49285 26.0285 8.09637 25.6992 8.72683 25.5738C11.8792 24.9434 14.2499 26.0426 16.4132 29.1375C18.662 32.3543 18.6749 32.5605 18.8905 35.9977C18.935 36.7008 18.9843 37.4977 19.0616 38.4773C19.33 41.8535 19.9827 44.4891 21.1147 46.7707C22.3346 49.2269 24.1218 51.2473 26.5663 52.9371V55.5129C26.5663 57.4066 28.1061 58.9465 29.9999 58.9465C31.8936 58.9465 33.4335 57.4066 33.4335 55.5129V52.9371C35.878 51.2473 37.6651 49.2269 38.885 46.7707C40.0182 44.4891 40.671 41.8535 40.9382 38.4773C41.0167 37.4977 41.0659 36.7008 41.1093 35.9977C41.3237 32.5594 41.3378 32.3543 43.5866 29.1363C45.7499 26.0426 48.1206 24.9434 51.2729 25.5727C51.9034 25.6992 52.5069 26.0273 52.6475 27.5637C52.7378 28.5434 52.4765 30.2883 52.0757 30.798L51.3339 31.7437C50.4702 32.0848 49.6429 32.6367 48.9304 33.3492C46.7507 35.5289 46.2878 38.4809 47.8757 40.0699C49.4647 41.659 52.4167 41.1949 54.5964 39.0152C55.7776 37.834 56.503 36.3375 56.5792 34.9523L56.8804 34.568C58.4448 32.5746 58.9358 29.25 58.7296 27.0047ZM19.8714 12.8238C19.8714 7.23867 24.4147 2.69531 29.9999 2.69531C35.585 2.69531 40.1284 7.23867 40.1284 12.8238C40.1284 18.409 35.585 22.9523 29.9999 22.9523C24.4147 22.9523 19.8714 18.4078 19.8714 12.8238ZM33.219 44.4094C33.069 44.2453 32.8534 44.141 32.6132 44.141H30.8202V40.7578C32.1925 40.241 33.178 38.4492 33.178 36.2566C33.178 33.648 31.7823 31.6055 29.9999 31.6055C28.2175 31.6055 26.8218 33.6492 26.8218 36.2566C26.8218 38.448 27.8073 40.241 29.1796 40.7578V44.1398H27.3866C27.1464 44.1398 26.9307 44.2441 26.7807 44.4082C25.3698 41.8875 25.1975 39.0012 25.03 36.191C24.8776 33.6434 24.7229 31.0301 23.6132 28.7766C27.8014 29.7809 32.0846 29.775 36.396 28.7566C35.278 31.0148 35.121 33.6363 34.9686 36.191C34.8022 39.0012 34.63 41.8887 33.219 44.4094ZM29.9999 39.2684C29.2745 39.2684 28.4624 37.9805 28.4624 36.2566C28.4624 34.5328 29.2745 33.2461 29.9999 33.2461C30.7253 33.2461 31.5374 34.534 31.5374 36.2566C31.5374 37.9805 30.7253 39.2684 29.9999 39.2684ZM31.7929 55.5117C31.7929 56.5008 30.9889 57.3047 29.9999 57.3047C29.0108 57.3047 28.2069 56.5008 28.2069 55.5117V45.7816H31.7929V55.5117ZM55.5901 33.5543L55.1202 34.1531C55.0042 34.3008 54.9421 34.4848 54.9456 34.6723C54.9608 35.6883 54.3831 36.9082 53.4374 37.8539C51.9597 39.3328 49.944 39.8144 49.037 38.9086C48.13 38.0016 48.6128 35.9871 50.0917 34.5082C50.6952 33.9047 51.3913 33.4547 52.1073 33.2051C52.255 33.1535 52.3862 33.0598 52.4823 32.9367L53.3671 31.8094C54.2014 30.7465 54.3749 28.4215 54.2823 27.4113C54.1018 25.4426 53.1972 24.2812 51.5952 23.9613C47.8206 23.2078 44.7608 24.5918 42.2425 28.1941C39.8108 31.6723 39.7042 32.1949 39.4721 35.8922C39.4288 36.5883 39.3796 37.3781 39.3022 38.3449C38.8393 44.1773 37.0604 48.0246 33.4335 50.8969V46.9711C36.1628 43.7215 36.3995 39.7781 36.6069 36.2883C36.7968 33.1078 36.9761 30.1043 38.9097 27.9293C39.1546 27.6539 39.1862 27.2484 38.9858 26.9391C38.7854 26.6297 38.4034 26.4914 38.0518 26.6016C32.6014 28.309 27.1862 28.309 21.9573 26.6039C21.6057 26.4891 21.2202 26.625 21.0163 26.9344C20.8124 27.2437 20.8429 27.6516 21.0889 27.9281C23.0225 30.1043 23.2018 33.1078 23.3917 36.2871C23.6003 39.7758 23.8358 43.7191 26.5651 46.9699V50.8957C22.937 48.0234 21.1593 44.1773 20.6964 38.3437C20.619 37.377 20.5698 36.5871 20.5264 35.891C20.2956 32.1937 20.1878 31.6711 17.7561 28.193C15.2378 24.5906 12.1792 23.2066 8.4034 23.9602C6.80144 24.2801 5.89676 25.4414 5.71629 27.4102C5.62371 28.4191 5.79715 30.7453 6.63152 31.807L7.51629 32.9344C7.61355 33.0574 7.74363 33.1512 7.89129 33.2027C8.6073 33.4523 9.30457 33.9023 9.90691 34.5059C10.6745 35.2734 11.1913 36.1875 11.36 37.077C11.4456 37.5258 11.5065 38.3613 10.9616 38.9062C10.0546 39.8133 8.04012 39.3305 6.56121 37.8516C5.61551 36.9059 5.03777 35.6871 5.05301 34.6699C5.05535 34.4824 4.99441 34.2984 4.8784 34.1508L4.40847 33.552C3.17801 31.984 2.7198 29.1457 2.90261 27.1512C3.19793 23.9309 5.00144 21.757 7.85027 21.1875C11.1913 20.5195 15.7323 21.8566 19.7389 23.0367C20.8311 23.3578 21.8636 23.6613 22.8304 23.9133C25.4284 24.5883 27.7686 24.9352 29.9846 24.975H30.0139C32.23 24.9363 34.569 24.5895 37.1682 23.9133C38.1362 23.6613 39.1686 23.3578 40.2608 23.0367C44.2675 21.8578 48.8073 20.5219 52.1483 21.1887C54.9972 21.7582 56.8007 23.9309 57.096 27.1512C57.2788 29.148 56.8194 31.9875 55.5901 33.5543ZM33.6995 19.1707V16.5223H36.3479C36.9128 16.5223 37.371 16.0629 37.371 15.4992V10.1473C37.371 9.58242 36.9116 9.12422 36.3479 9.12422H33.6995V6.47578C33.6995 5.91094 33.2401 5.45273 32.6764 5.45273H27.3245C26.7596 5.45273 26.3014 5.91211 26.3014 6.47578V9.12422H23.653C23.0893 9.12422 22.63 9.58359 22.63 10.1473V15.4992C22.63 16.0641 23.0893 16.5223 23.653 16.5223H26.3014V19.1707C26.3014 19.7355 26.7608 20.1937 27.3245 20.1937H32.6764C33.2401 20.1937 33.6995 19.7344 33.6995 19.1707ZM32.0589 15.9047V18.5531H27.9421V15.9047C27.9421 15.3398 27.4827 14.8816 26.919 14.8816H24.2706V10.7648H26.919C27.4839 10.7648 27.9421 10.3055 27.9421 9.7418V7.09336H32.0589V9.7418C32.0589 10.3066 32.5182 10.7648 33.0819 10.7648H35.7304V14.8816H33.0819C32.5171 14.8816 32.0589 15.341 32.0589 15.9047Z" fill="#ff0000"/>
</svg>
