<svg width="60" height="60" viewBox="0 0 60 60" fill="none" xmlns="http://www.w3.org/2000/svg">
<g clip-path="url(#clip0_524_1015)">
<path d="M7.31219 14.0353C7.21786 14.0674 7.122 14.0828 7.02766 14.0828C6.66227 14.0828 6.32102 13.8531 6.1961 13.4882L6.06672 13.1105C5.50458 11.4693 4.97348 9.91913 4.587 8.44081C3.48813 4.23565 3.54778 0.995067 3.55083 0.859247C3.56172 0.374207 3.96731 -0.00688629 4.44872 0.00084809C4.93376 0.0115122 5.31837 0.413348 5.30817 0.898387C5.30758 0.929442 5.25473 4.0437 6.28762 7.9962C6.65758 9.41124 7.17836 10.9315 7.72961 12.541L7.85911 12.9192C8.01637 13.3784 7.77145 13.8782 7.31219 14.0353Z" fill="#fc5e5e"/>
<path d="M2.69125 37.4825C3.08207 36.7023 3.49656 35.924 3.9352 35.1002C5.19051 32.7426 6.6134 30.0704 7.92332 26.4689C8.75101 24.1917 8.60219 21.3799 7.44074 17.3519C7.30633 16.8855 7.57527 16.3984 8.0418 16.2639C8.50797 16.1293 8.99535 16.3985 9.12976 16.8649C9.98547 19.8327 10.8094 23.6745 9.57531 27.0697C8.2232 30.7876 6.76937 33.5177 5.48676 35.9265C5.0534 36.7405 4.64394 37.5093 4.26285 38.2701C2.71645 41.3557 1.75797 44.0945 1.75797 48.2074C1.75797 52.6518 3.34586 55.5695 5.26422 58.6571C5.52039 59.0695 5.39383 59.6114 4.98144 59.8675C4.83707 59.9572 4.67676 60 4.51844 60C4.22465 60 3.93742 59.8527 3.77102 59.5848C1.78387 56.3861 0.000156375 53.1091 0.000156375 48.2074C0.000156375 43.763 1.07605 40.7056 2.69125 37.4825Z" fill="#fc5e5e"/>
<path d="M10.3882 33.1181C10.712 32.0692 10.9636 31.1202 11.1574 30.2171C12.1758 25.4802 13.8452 21.7069 16.1196 19.0018C18.2116 16.5137 20.7432 14.987 23.6441 14.4644C26.6816 13.9171 29.9413 14.5247 33.0708 16.2214C36.0248 17.8229 38.705 20.3545 40.6175 23.35C40.8788 23.7591 40.7589 24.3026 40.3498 24.5637C39.9407 24.825 39.397 24.705 39.1361 24.2959C37.3812 21.5474 34.9297 19.2286 32.2331 17.7667C29.4585 16.2623 26.5959 15.7188 23.9558 16.1943C21.4697 16.6421 19.286 17.9673 17.4652 20.1329C17.0692 20.6039 16.693 21.1125 16.3364 21.6573C16.3676 22.2745 16.5574 24.0087 17.6904 25.1654C18.4472 25.9382 19.5199 26.3299 20.8787 26.3299C24.2759 26.3299 25.6989 27.4862 26.5049 28.8877C26.7641 27.7532 27.3402 26.6837 28.2142 25.8091L31.6193 22.4052C32.1203 21.9034 32.7868 21.6269 33.4963 21.6269C34.2054 21.6269 34.8721 21.903 35.3735 22.4046C35.8754 22.9065 36.1519 23.5733 36.1519 24.2821C36.1519 24.9919 35.8751 25.6585 35.3738 26.1582L32.8622 28.6709C32.6931 28.8397 32.5999 29.0645 32.5999 29.3038C32.5999 29.5433 32.6933 29.7687 32.8628 29.9381L35.8636 32.9389C36.4051 33.4805 36.8432 34.1072 37.1626 34.7906C38.5823 33.6719 40.2213 32.8196 42.0033 32.3094C41.8392 30.7847 41.4713 29.2686 40.9044 27.793C40.7304 27.3398 40.9566 26.8315 41.4097 26.6575C41.863 26.4833 42.3714 26.7095 42.5454 27.1627C43.1434 28.7195 43.54 30.3192 43.7299 31.9309C44.272 31.8476 44.8245 31.7961 45.3848 31.7766C45.1451 28.7539 44.2512 25.8357 42.7734 23.2867C41.1478 20.4826 38.8103 18.1113 36.0132 16.4291C35.7516 16.2717 35.5903 15.9898 35.5874 15.6845C35.5845 15.3792 35.7402 15.0941 35.9988 14.9317C38.361 13.4483 39.174 12.0649 38.8055 10.1571C38.1859 6.95261 34.0811 3.90843 30.5741 1.61425C30.1679 1.34847 30.054 0.803785 30.3198 0.397613C30.5857 -0.00855913 31.1304 -0.122465 31.5364 0.143199C35.3331 2.62687 39.7867 5.97175 40.5314 9.82347C41.0722 12.6226 39.6109 14.4382 38.0462 15.6502C40.5993 17.4157 42.7434 19.7298 44.2944 22.4051C45.9338 25.2329 46.9141 28.4737 47.1521 31.8233C50.5392 32.1211 53.6621 33.6093 56.0516 36.0907C56.3883 36.4403 56.3779 36.9967 56.0282 37.3334C55.6786 37.67 55.1223 37.6594 54.7855 37.3099C52.435 34.8689 49.2737 33.5245 45.8843 33.5245C39.0697 33.5245 33.5258 39.0686 33.5258 45.883C33.5258 52.6975 39.0691 58.2419 45.8837 58.2419C52.6983 58.2419 58.2422 52.6979 58.2422 45.8835C58.2422 43.969 57.8173 42.1359 56.9791 40.4348C56.7646 39.9994 56.9438 39.4725 57.3792 39.258C57.8147 39.0434 58.3414 39.2227 58.556 39.658C59.5143 41.6027 60 43.6973 60 45.8835C60 53.6673 53.6674 59.9998 45.8837 59.9998C41.5185 59.9998 37.61 58.0079 35.0186 54.8856C33.7711 55.5787 32.479 56.1274 31.1634 56.5186L29.7867 59.4902C29.638 59.8111 29.3206 60 28.9887 60C28.865 60 28.7394 59.9737 28.6198 59.9183C28.1794 59.7143 27.9877 59.1919 28.1918 58.7515L29.7379 55.4144C29.8468 55.1791 30.054 55.0041 30.3042 54.9359C31.5533 54.5954 32.7834 54.096 33.9735 53.453C33.7222 53.059 33.4902 52.6515 33.2782 52.2323C29.8127 54.2696 25.7023 55.3096 21.171 55.3093C19.5911 55.3093 17.9592 55.183 16.287 54.9285C13.5908 54.5174 11.5596 53.2484 10.2497 51.1569C8.80278 48.8466 8.26934 45.5668 8.66415 41.4089C8.97247 38.1609 9.77192 35.107 10.3882 33.1181ZM35.7706 36.0457C35.5384 35.3476 35.1477 34.7095 34.6205 34.1823L31.6197 31.1815C31.1181 30.6799 30.8419 30.0131 30.8419 29.3041C30.8419 28.5947 31.1183 27.9281 31.6194 27.4278L34.1313 24.9146C34.3005 24.7461 34.3937 24.5215 34.3937 24.2824C34.3937 24.0431 34.3002 23.8178 34.1302 23.6478C33.9607 23.4784 33.7354 23.3851 33.4958 23.3851C33.2565 23.3851 33.0318 23.4783 32.8622 23.648L29.4568 27.0524C28.0148 28.4952 27.6941 30.6717 28.6589 32.4681L29.6757 34.3622C29.8591 34.7038 29.797 35.1252 29.5229 35.3993L26.8393 38.0841C26.629 38.2946 26.3263 38.3842 26.0354 38.3225C25.7443 38.2609 25.5042 38.056 25.3975 37.7782C24.7416 36.0731 23.0736 34.9276 21.2472 34.9276H18.5434C18.3035 34.9276 18.0785 35.0208 17.9088 35.191C17.7397 35.36 17.6466 35.585 17.6466 35.8243C17.6466 36.3189 18.0489 36.721 18.5433 36.721H21.2473C22.7111 36.721 23.9018 37.9119 23.9018 39.3756V40.6576C23.9018 40.8909 23.8091 41.1146 23.644 41.2795L23.6013 41.3221C23.258 41.6652 22.7018 41.6648 22.3588 41.3217C21.381 40.3438 20.0816 39.8176 18.6972 39.8463C17.3155 39.8727 16.0362 40.4469 15.0946 41.4634C13.3159 43.3823 13.3159 46.3886 15.0946 48.3075C16.0368 49.3241 17.3166 49.8983 18.6983 49.9246C20.0811 49.9543 21.3811 49.4269 22.3588 48.4493C22.5832 48.2248 22.7873 47.9777 22.9652 47.7149C23.1396 47.4574 23.2897 47.185 23.4115 46.9052C23.5929 46.4879 24.0629 46.2787 24.4947 46.4218C26.6395 47.1348 28.9648 46.5854 30.5625 44.9878L31.9536 43.5967C32.4298 40.6857 33.7991 38.0718 35.7706 36.0457ZM11.7393 50.2237C12.7797 51.8851 14.3538 52.8555 16.5516 53.1906C22.704 54.1267 28.227 53.2307 32.5793 50.6017C32.0945 49.2387 31.8128 47.7803 31.7726 46.2626C29.8848 48.1285 27.2266 48.8757 24.675 48.2952C24.5952 48.433 24.5104 48.5682 24.4208 48.7004C24.1806 49.0553 23.9051 49.3889 23.6019 49.6922C22.3149 50.9793 20.6138 51.6833 18.7986 51.6833C18.7543 51.6833 18.7097 51.6828 18.6652 51.682C16.8014 51.6466 15.0756 50.8726 13.8056 49.5023C11.406 46.9133 11.406 42.8572 13.8055 40.2684C14.7854 39.2107 16.0372 38.5082 17.4148 38.2263C16.5141 37.8014 15.8892 36.8843 15.8892 35.824C15.8892 35.1151 16.1652 34.4488 16.6652 33.9487C17.1661 33.4461 17.8332 33.1694 18.5438 33.1694H21.2473C23.3569 33.1694 25.3148 34.2647 26.4458 35.9912L27.6169 34.8197C26.5144 33.7058 26.054 32.4468 25.6416 31.3128C24.9352 29.3708 24.4685 28.0878 20.8785 28.0878C19.0227 28.0878 17.5235 27.5143 16.4228 26.3835C15.7232 25.6648 15.2889 24.8184 15.0178 24.0279C14.1266 25.9119 13.4099 28.1032 12.8761 30.5863C12.6714 31.5401 12.407 32.5377 12.0676 33.6374C11.5831 35.2017 10.7237 38.3129 10.414 41.5748C10.0566 45.3389 10.5025 48.2488 11.7393 50.2237Z" fill="#fc5e5e"/>
<path d="M45.8831 47.3882C45.6246 47.3882 45.3792 47.2744 45.2122 47.0772C43.2637 44.7751 42.3165 43.0662 42.3165 41.8531C42.3165 39.8866 43.9165 38.2866 45.8831 38.2866C47.8497 38.2866 49.4497 39.8866 49.4497 41.8531C49.4497 43.0662 48.5025 44.7749 46.554 47.0772C46.387 47.2744 46.1416 47.3882 45.8831 47.3882ZM45.8831 40.0443C44.8857 40.0443 44.0743 40.8557 44.0743 41.8531C44.0743 42.0957 44.2167 42.9965 45.8831 45.1201C47.5495 42.9965 47.6919 42.0958 47.6919 41.8531C47.6919 40.8557 46.8805 40.0443 45.8831 40.0443Z" fill="#fc5e5e"/>
<path d="M52.4339 53.8151L51.4575 55.0162C51.1745 55.3642 50.7728 55.5785 50.3264 55.6195C49.8804 55.6601 49.4467 55.5231 49.1055 55.2328C48.45 54.6751 47.2309 53.6109 45.8837 52.3006C44.538 53.6096 43.318 54.6746 42.6619 55.2328V55.2329C42.3601 55.4895 41.9863 55.6266 41.5954 55.6266C41.5442 55.6266 41.4927 55.6242 41.441 55.6195C40.9947 55.5785 40.593 55.3642 40.3098 55.0162L39.3333 53.8153C38.7624 53.1132 38.8541 52.1034 39.5423 51.5164C40.1658 50.9845 41.3209 49.9738 42.5713 48.7543C40.32 46.0331 39.2237 43.7705 39.2237 41.8529C39.2237 38.1806 42.2114 35.1929 45.8837 35.1929C49.556 35.1929 52.5437 38.1806 52.5437 41.8529C52.5437 43.7704 51.4471 46.0335 49.196 48.7543C50.4461 49.9735 51.6011 50.984 52.2249 51.5162C52.9128 52.1034 53.0046 53.1132 52.4339 53.8151ZM47.376 49.4259C47.0513 49.0992 47.0338 48.5771 47.336 48.2295C49.6252 45.5969 50.7858 43.4515 50.7858 41.8529C50.7858 39.1498 48.5867 36.9507 45.8836 36.9507C43.1806 36.9507 40.9814 39.1498 40.9814 41.8529C40.9814 43.4514 42.1421 45.5968 44.4311 48.2295C44.7333 48.5771 44.716 49.0992 44.3911 49.4258C42.9373 50.8883 41.5226 52.1349 40.7619 52.7863L41.6053 53.8237C42.3642 53.1752 43.7778 51.9319 45.2614 50.4451C45.4262 50.2798 45.6501 50.1869 45.8836 50.1869C46.1171 50.1869 46.3409 50.2798 46.5059 50.4451C47.9912 51.9338 49.4036 53.176 50.1618 53.8236L51.0052 52.7861C50.2444 52.1348 48.8296 50.888 47.376 49.4259Z" fill="#fc5e5e"/>
</g>
<defs>
<clipPath id="clip0_524_1015">
<rect width="60" height="60" fill="white" transform="matrix(-1 0 0 1 60 0)"/>
</clipPath>
</defs>
</svg>
