<svg width="30" height="30" viewBox="0 0 30 30" fill="none" xmlns="http://www.w3.org/2000/svg">
<path d="M15.4688 12.6562C13.9177 12.6562 12.6562 13.9177 12.6562 15.4688C12.6562 17.0198 13.9177 18.2812 15.4688 18.2812C17.0198 18.2812 18.2812 17.0198 18.2812 15.4688C18.2812 13.9177 17.0198 12.6562 15.4688 12.6562ZM15.4688 17.3438C14.4347 17.3438 13.5938 16.5028 13.5938 15.4688C13.5938 14.4347 14.4347 13.5938 15.4688 13.5938C16.5028 13.5938 17.3438 14.4347 17.3438 15.4688C17.3438 16.5028 16.5028 17.3438 15.4688 17.3438Z" fill="#ff0000"/>
<path d="M25.8204 16.8431C26.4199 16.7423 27.0288 16.7006 27.6429 16.7189C27.8988 16.7166 28.1173 16.5225 28.1248 16.2633C28.1323 16.0045 27.9284 15.7889 27.6696 15.7814C26.5788 15.7514 25.504 15.8986 24.4624 16.2047C24.4319 16.2113 24.4034 16.2202 24.3748 16.2328C24.2004 16.2858 24.026 16.3378 23.8535 16.4002C22.653 16.3359 21.6344 15.6633 21.1207 14.5852C20.5938 13.478 20.7359 12.0314 21.4652 11.0663C21.4948 11.0273 21.5191 10.9833 21.536 10.9345C21.6091 10.7231 21.6921 10.5159 21.776 10.3097H21.7812C22.6137 10.3097 23.4373 10.1925 24.2323 9.97547C25.1069 10.59 26.1387 10.92 27.2032 10.92C27.3682 10.92 27.5337 10.912 27.6996 10.8961C27.9574 10.8717 28.1463 10.643 28.122 10.3852C28.0971 10.1269 27.8655 9.93001 27.611 9.96329C26.8423 10.0364 26.0824 9.89719 25.398 9.57376C26.1499 9.25735 26.8634 8.84579 27.5144 8.33813C27.7188 8.17876 27.7549 7.88438 27.5955 7.68047C27.4362 7.4761 27.1413 7.44047 26.9374 7.59938C25.5771 8.6611 23.9224 9.2761 22.2068 9.36188C22.9554 7.89376 23.9923 6.58313 25.2621 5.51532C25.4604 5.34891 25.4857 5.05313 25.3193 4.85485C25.1529 4.65657 24.8576 4.63126 24.6588 4.79766C23.0974 6.11063 21.8665 7.76626 21.049 9.62485C21.0443 9.63376 21.0405 9.64219 21.0368 9.65157C20.914 9.93188 20.8005 10.2169 20.6974 10.5061C19.9943 11.1647 19.0193 11.3363 18.2946 10.9111C17.4837 10.4363 17.0763 9.44954 17.3262 8.56454C17.328 8.55797 17.3266 8.55188 17.328 8.54532C17.3294 8.53922 17.3337 8.53454 17.3346 8.52797C17.4138 8.12532 17.4677 7.71891 17.5099 7.31157C18.9804 6.43126 20.0768 5.06344 20.6023 3.42422C20.681 3.17766 20.5455 2.91329 20.299 2.83454C20.052 2.75672 19.7885 2.89172 19.7098 3.13735C19.323 4.34391 18.5777 5.37938 17.5826 6.13313C17.5859 5.94469 17.5826 5.75672 17.5774 5.56829C17.5765 5.54766 17.5793 5.52751 17.5755 5.50735C17.5376 4.22766 17.3257 2.9536 16.9296 1.73016C16.8499 1.4836 16.5865 1.3486 16.3394 1.42829C16.0934 1.50797 15.9584 1.77188 16.038 2.01844C16.3404 2.95313 16.526 3.91969 16.6048 4.89422C15.5505 4.39922 14.7729 3.44907 14.5202 2.28235C14.4654 2.02969 14.2155 1.86844 13.9629 1.92329C13.7098 1.97813 13.5494 2.22751 13.6038 2.48063C13.954 4.09594 15.109 5.37844 16.6502 5.91938C16.6498 6.69422 16.5762 7.46907 16.4332 8.23313C15.2852 9.61172 14.2671 10.3125 12.0574 10.3125C10.0859 10.3125 8.50664 9.72844 7.36429 8.57626C7.36382 8.57579 7.36382 8.57579 7.36335 8.57579C7.36335 8.57579 7.36289 8.57532 7.36289 8.57485C7.19742 8.40891 7.04648 8.23126 6.88851 8.05922C7.42664 6.52079 7.63992 4.86235 7.49835 3.24047C7.47585 2.98266 7.25554 2.78813 6.9907 2.81438C6.73289 2.83688 6.54164 3.06422 6.5646 3.32204C6.67851 4.63126 6.5407 5.96532 6.17132 7.2286C5.3932 6.26063 4.71726 5.21579 4.17164 4.09219C4.05867 3.85876 3.77742 3.76219 3.54539 3.87563C3.31242 3.9886 3.21539 4.26844 3.32882 4.50188C3.72726 5.32266 4.19273 6.1036 4.70976 6.84797C3.94757 6.82594 3.18914 6.73594 2.44382 6.57376C2.19117 6.51469 1.94132 6.67876 1.88601 6.93188C1.8307 7.18454 1.99148 7.43438 2.24414 7.48969C3.17132 7.69172 4.11867 7.79344 5.06742 7.79344C5.18414 7.79344 5.30085 7.78876 5.41757 7.78547C5.59945 8.01282 5.78554 8.23594 5.97867 8.45391C6.00257 8.48626 6.02742 8.51579 6.05929 8.54157C6.26273 8.76797 6.46242 8.99766 6.67804 9.21376C6.67804 9.21376 6.67804 9.21422 6.67851 9.21422L6.7371 9.28172C8.0482 10.7799 9.84398 12.8306 9.84398 14.5313C9.84398 15.9656 8.6707 16.6997 7.31226 17.5495C7.17632 17.6344 7.03945 17.7211 6.90304 17.8078C5.37679 17.7849 4.00289 17.3634 2.59335 16.478C2.37445 16.3406 2.08523 16.4072 1.94742 16.6252C1.80914 16.845 1.87523 17.1342 2.0946 17.272C3.28101 18.0173 4.44773 18.4664 5.68664 18.6511C4.39335 19.5895 3.16195 20.6194 2.01726 21.7303C1.83164 21.9108 1.82695 22.2075 2.00742 22.3931C2.09976 22.4878 2.22164 22.5352 2.34398 22.5352C2.46164 22.5352 2.57929 22.4911 2.67023 22.403C3.33304 21.7594 4.02773 21.1463 4.74445 20.5598C4.38585 21.9586 4.20914 23.3948 4.21898 24.847C4.22085 25.1048 4.43039 25.3125 4.68773 25.3125H4.69101C4.94976 25.3106 5.15835 25.0992 5.15648 24.8405C5.14382 23.0395 5.43726 21.2649 6.0232 19.5633C6.43054 19.2628 6.84351 18.9713 7.26351 18.6909C8.46773 18.0844 9.90257 18.2733 11.0163 19.1859C12.0532 20.0358 12.5177 21.367 12.2487 22.6294C10.7627 23.1942 9.37007 23.9663 8.11195 24.9427C7.9071 25.1016 7.87007 25.3959 8.02898 25.6003C8.12085 25.7189 8.25914 25.7813 8.39882 25.7813C8.49914 25.7813 8.60039 25.7494 8.6857 25.6828C9.7671 24.8438 10.9568 24.1688 12.2191 23.6513C12.229 23.7652 12.2459 23.8781 12.2609 23.9916C11.4082 25.0181 11.193 27.4884 11.2516 28.1648C11.2732 28.4095 11.4776 28.5938 11.7185 28.5938C11.7321 28.5938 11.7457 28.5933 11.7593 28.5919C12.0171 28.5694 12.2084 28.3425 12.1859 28.0847C12.1343 27.488 12.303 26.198 12.6115 25.3172C12.8566 25.882 13.2129 26.3981 13.6596 26.8238C14.0576 27.2025 14.4598 27.4509 14.9646 27.6295C15.0166 27.6474 15.0691 27.6563 15.1212 27.6563C15.3143 27.6563 15.4948 27.5363 15.5632 27.3441C15.6494 27.0998 15.5219 26.8317 15.2777 26.7459C14.8985 26.6114 14.6079 26.4319 14.3065 26.1445C13.7323 25.598 13.3451 24.8648 13.2162 24.0797C13.1604 23.7422 13.1332 23.3977 13.129 23.055C13.5893 21.8466 14.5451 20.9719 15.768 20.6527C16.9788 20.3344 18.2843 20.6002 19.2279 21.3328C19.2719 23.0114 19.7763 24.6347 20.703 26.04C20.7926 26.1759 20.9421 26.25 21.0944 26.25C21.183 26.25 21.2726 26.2247 21.3518 26.1727C21.5679 26.0302 21.6274 25.7391 21.4854 25.523C20.7574 24.4191 20.321 23.1647 20.1973 21.8588C21.7465 22.6781 23.0435 23.8852 23.9777 25.3842C24.0663 25.5272 24.2196 25.6055 24.3762 25.6055C24.461 25.6055 24.5463 25.5825 24.6237 25.5347C24.8435 25.3978 24.9105 25.1091 24.7737 24.8892C24.2093 23.9831 23.5212 23.1773 22.7351 22.4836C23.5821 22.3809 24.4376 22.3814 25.2902 22.4958C25.5452 22.5291 25.7824 22.3495 25.8171 22.0936C25.8513 21.8367 25.6713 21.6009 25.4144 21.5667C24.1821 21.4022 22.9437 21.4519 21.7287 21.7013C21.2337 21.3591 20.7087 21.0577 20.1569 20.7994C20.156 19.5445 20.1677 18.6319 20.7087 18.0905C21.2168 17.5809 22.233 17.3438 23.9065 17.3438C23.9613 17.3438 24.0166 17.3339 24.071 17.3142C24.2196 17.2584 24.371 17.2177 24.5215 17.1694C25.5841 17.7239 26.5413 18.4988 27.2909 19.4334C27.3837 19.5492 27.5196 19.6092 27.6569 19.6092C27.7601 19.6092 27.8632 19.5755 27.9499 19.5061C28.1519 19.3439 28.1843 19.0491 28.0226 18.8475C27.4005 18.0717 26.651 17.3939 25.8204 16.8431ZM20.0445 17.4281C19.3549 18.1181 19.2401 19.0786 19.2218 20.1961C18.1296 19.5825 16.8059 19.4105 15.5309 19.7447C14.6248 19.9814 13.8209 20.4797 13.2021 21.1627C13.0193 20.1291 12.4676 19.163 11.6102 18.4603C10.8879 17.8683 10.0338 17.5209 9.16664 17.4323C10.0779 16.7283 10.7815 15.8644 10.7815 14.5313C10.7815 13.2853 10.0709 11.9836 9.19711 10.793C10.0591 11.0948 11.0201 11.25 12.0574 11.25C14.0969 11.25 15.3162 10.6856 16.3755 9.67735C16.5424 10.5108 17.058 11.2734 17.8207 11.7206C18.4816 12.1073 19.2715 12.1781 20.0154 11.9588C19.751 12.9553 19.8288 14.0508 20.2751 14.9878C20.5966 15.6623 21.0696 16.2155 21.648 16.6163C20.9435 16.7813 20.4237 17.048 20.0445 17.4281Z" fill="#ff0000"/>
</svg>
