<svg width="30" height="30" viewBox="0 0 30 30" fill="none" xmlns="http://www.w3.org/2000/svg">
<path d="M17.9016 14.7778C17.5541 14.7778 17.2123 14.6905 16.9047 14.5177C16.3579 14.212 15.9858 13.6822 15.8832 13.0651C15.756 12.3019 15.3212 11.6335 14.6889 11.2348L7.16993 6.48414C6.95727 6.34933 6.89271 6.06832 7.02752 5.85566C7.16233 5.643 7.44335 5.57844 7.656 5.71325L15.175 10.4639C16.0256 11.0012 16.6123 11.8955 16.7813 12.9152C16.8383 13.2588 17.0452 13.5531 17.3509 13.724C17.8636 14.0107 18.5206 13.855 18.849 13.367C18.9269 13.2531 18.982 13.1278 19.0123 12.9968C19.1414 12.4595 19.4377 11.9924 19.8668 11.6449C19.9712 11.5595 20.0604 11.4569 20.1307 11.3373C20.4288 10.8322 20.2883 10.1696 19.8098 9.82971C19.4794 9.59616 19.0598 9.55249 18.6895 9.71578C17.9358 10.0481 17.0794 9.9892 16.3978 9.55819L8.4136 4.51325C8.20094 4.37844 8.13638 4.09743 8.27119 3.88477C8.406 3.67211 8.68702 3.60756 8.89967 3.74237L16.8839 8.7873C17.3092 9.05502 17.8446 9.0911 18.3212 8.88034C18.9877 8.58604 19.7414 8.66199 20.3358 9.0835C20.7554 9.37971 21.0459 9.82211 21.1541 10.3272C21.2623 10.8322 21.1769 11.3544 20.9168 11.7968C20.7914 12.0095 20.632 12.1955 20.4421 12.3493C20.1687 12.5696 19.9826 12.8677 19.899 13.2095C19.8421 13.4468 19.7433 13.6708 19.6047 13.8759C19.318 14.3012 18.8832 14.6012 18.3801 14.7208C18.2206 14.7588 18.0611 14.7778 17.9016 14.7778Z" fill="#ff0000"/>
<path d="M18.5627 27.8297C18.538 27.8297 18.5114 27.8278 18.4867 27.824C18.238 27.7823 18.0709 27.5468 18.1146 27.2981L19.0412 21.8373C19.25 20.5766 19.888 19.443 20.8336 18.6455C21.0367 18.4747 21.1659 18.2335 21.1962 17.9658C21.257 17.4342 20.8924 16.9386 20.3665 16.8342C20.2241 16.8057 20.0817 16.8076 19.9412 16.838C19.4627 16.9443 18.9709 16.8607 18.5513 16.6063C18.4298 16.5323 18.295 16.4848 18.1507 16.4658C17.6209 16.3936 17.1159 16.7468 17 17.269C16.9298 17.5899 17.0095 17.9183 17.2222 18.1671C17.8279 18.8791 18.0861 19.8304 17.9285 20.7778L16.8595 27.093C16.8178 27.3417 16.5823 27.5088 16.3336 27.4671C16.0848 27.4253 15.9178 27.1899 15.9595 26.9411L17.0266 20.6278C17.1405 19.9481 16.9564 19.2664 16.5253 18.7576C16.1266 18.2886 15.9747 17.6753 16.1076 17.0734C16.3241 16.0917 17.2734 15.4291 18.2703 15.5639C18.5399 15.6 18.7924 15.6892 19.0222 15.8297C19.2386 15.9607 19.4931 16.0044 19.7399 15.9493C20.0038 15.8905 20.2715 15.8886 20.5393 15.9417C21.5266 16.1373 22.2102 17.0715 22.0981 18.0702C22.0412 18.5696 21.8 19.0215 21.4165 19.3443C20.6361 20.0012 20.1102 20.9411 19.9355 21.9892L19.0089 27.4519C18.9728 27.6721 18.781 27.8297 18.5627 27.8297Z" fill="#ff0000"/>
<path d="M22.5703 15.6531C22.5267 15.6531 22.483 15.6512 22.4393 15.6455L21.1159 15.488C20.7058 15.4386 20.364 15.169 20.2216 14.7816C20.0792 14.3943 20.1665 13.9671 20.4476 13.6652C20.7134 13.3804 20.9982 13.0728 21.2412 12.8126C21.4824 12.5544 21.8336 12.4291 22.183 12.4747C22.5324 12.5221 22.84 12.7367 23.0033 13.0481L23.533 14.0582C23.721 14.4171 23.6944 14.8481 23.4647 15.1823C23.2615 15.4785 22.9254 15.6531 22.5703 15.6531ZM22.0387 13.3747C22.0026 13.3747 21.9533 13.3842 21.9096 13.4316C21.6666 13.6936 21.3817 13.9993 21.1159 14.2842C21.0514 14.3544 21.0646 14.4285 21.0798 14.4664C21.0931 14.5044 21.1311 14.5709 21.226 14.5823L22.5495 14.7398C22.6425 14.7512 22.6938 14.6981 22.7166 14.6639C22.7393 14.6316 22.7716 14.5633 22.7279 14.4797L22.1982 13.4696C22.1602 13.3993 22.0976 13.3804 22.0634 13.3766C22.0558 13.3747 22.0482 13.3747 22.0387 13.3747Z" fill="#ff0000"/>
<path d="M22.6459 29.5823C22.6156 29.5823 22.5871 29.5785 22.5567 29.5728C22.3099 29.5234 22.1504 29.2841 22.1997 29.0373L24.8466 15.8259C25.3972 13.0728 24.1592 10.2379 21.7649 8.77023L9.4953 1.26263C9.28075 1.13162 9.21239 0.850607 9.3453 0.63605C9.47821 0.421493 9.75733 0.353138 9.97188 0.48605L22.2396 7.99364C23.5801 8.8139 24.6206 10.0082 25.2491 11.4493C25.8776 12.8886 26.0485 14.4645 25.739 16.0063L23.0921 29.2177C23.0504 29.4323 22.8586 29.5823 22.6459 29.5823Z" fill="#ff0000"/>
<path d="M12.5627 28.219C12.5152 28.219 12.4658 28.2114 12.4165 28.1943C12.1772 28.1145 12.05 27.8544 12.1297 27.6171C12.1449 27.5715 13.6886 22.9443 13.2215 20.5481C12.9975 19.4069 13.1703 18.0873 13.7342 16.6234C13.9544 16.05 14.1937 15.5696 14.3703 15.243C12.8133 14.5804 11.3418 13.8494 9.98798 13.0633C8.79177 12.3702 7.68481 11.6335 6.69747 10.874C5.0019 9.5734 4.2462 8.65631 4.21582 8.61834C4.05633 8.42277 4.08671 8.13606 4.28038 7.97657C4.47595 7.81707 4.76266 7.84745 4.92025 8.04112C4.92785 8.05062 5.66076 8.93543 7.28608 10.1791C8.78798 11.3278 11.3778 13.0291 15.1962 14.6012C15.3215 14.6525 15.4165 14.7569 15.4582 14.8861C15.4981 15.0152 15.481 15.1557 15.407 15.2696C15.3899 15.2962 13.6582 18.0418 14.1158 20.3734C14.6304 23.0069 13.062 27.7101 12.9937 27.9095C12.9291 28.0994 12.7525 28.219 12.5627 28.219Z" fill="#ff0000"/>
</svg>
