<svg width="30" height="30" viewBox="0 0 30 30" fill="none" xmlns="http://www.w3.org/2000/svg">
<g clip-path="url(#clip0_581_2180)">
<path d="M25.8332 12.1506C25.9007 12.0883 25.9682 12.0261 26.036 11.9641C27.6585 10.4779 28.5167 8.56025 28.4525 6.56455C28.3964 4.814 27.6713 3.17068 26.4108 1.93729C25.1496 0.703301 23.491 0.0153516 21.7403 0.000175781C21.7204 5.85937e-05 21.7008 0 21.681 0C19.8816 0 18.1896 0.696152 16.9108 1.96412C15.618 3.24604 14.9061 4.95457 14.9061 6.77502C14.9061 7.08803 14.9998 8.45994 15.0401 9.03486C15.0419 9.06123 15.0237 9.0852 14.9976 9.09064C14.7422 9.14414 14.5193 9.30346 14.3863 9.5277C14.2536 9.75123 14.2205 10.0219 14.2953 10.2698C14.6172 11.3435 15.5017 13.6745 17.3262 14.7042L16.8126 14.9296C16.7131 14.9723 16.5987 14.946 16.5281 14.8642L14.3444 12.3296C13.6713 11.5477 12.4836 11.4549 11.6964 12.1233C11.5137 12.2786 11.3655 12.4635 11.2555 12.6686C11.0466 12.5947 10.6249 12.4555 10.6249 12.4555C10.0136 12.2541 9.43615 12.064 8.97584 11.7711C8.26105 11.3153 7.78879 10.5881 7.645 9.78211L8.65135 10.7885C8.77228 10.9095 8.93301 10.9761 9.10404 10.9761C9.27508 10.9761 9.4358 10.9094 9.55668 10.7886L11.3991 8.94621C11.6492 8.69607 11.6492 8.29107 11.399 8.04088L9.31334 5.95529L11.399 3.86959C11.6485 3.6201 11.6486 3.21404 11.399 2.96426L9.55662 1.12184C9.30701 0.872344 8.90102 0.872402 8.65146 1.12189L6.56576 3.20766L4.48006 1.12189C4.23051 0.872402 3.82445 0.872402 3.57484 1.12189L1.73236 2.96438C1.61148 3.08531 1.54492 3.24604 1.54492 3.41701C1.54492 3.58799 1.61154 3.74877 1.73242 3.86965L3.81812 5.95529L1.73248 8.04094C1.61154 8.16187 1.54492 8.32266 1.54492 8.49363C1.54492 8.66461 1.61148 8.82533 1.73242 8.94633L3.57473 10.7886C3.82492 11.0388 4.22986 11.0389 4.48 10.7886L5.20094 10.0677C5.43537 11.6059 6.32207 12.9983 7.65367 13.8466C9.24502 14.8611 10.5956 14.6998 12.623 16.1121L12.92 16.4585C12.8307 16.4535 12.741 16.4504 12.6506 16.4504H9.4873L8.83551 15.7014C7.7432 14.4463 5.61555 15.2147 5.61555 16.8899V19.8485C5.61555 20.5402 6.17834 21.103 6.87004 21.103H10.8577C11.3957 21.103 11.8335 21.5408 11.8335 22.0789V24.9881C11.8335 26.8771 13.1174 28.7031 15.0285 29.5317C15.7469 29.8432 16.5265 30.0001 17.3348 30.0001C17.8555 30 18.3883 29.9349 18.9241 29.8039C20.4851 29.4225 22.0515 28.5036 23.5797 27.0726C23.7569 26.9067 23.766 26.6286 23.6001 26.4514C23.4343 26.2742 23.1561 26.2651 22.979 26.431C21.5624 27.7574 20.128 28.605 18.7155 28.9501C17.5361 29.2382 16.3821 29.1605 15.3781 28.7252C13.8086 28.0447 12.7124 26.5079 12.7124 24.9881V22.0788C12.7124 21.0561 11.8804 20.224 10.8578 20.224H6.8701C6.66303 20.224 6.49451 20.0556 6.49451 19.8485V16.8899C6.49451 16.0109 7.6181 15.6414 8.17252 16.2784L8.83949 17.0448C8.99693 17.2256 9.22469 17.3293 9.46439 17.3293H12.6507C14.7774 17.3293 16.5077 19.0597 16.5077 21.1866V22.6791C16.5077 22.9219 16.7045 23.1186 16.9472 23.1186C17.1899 23.1186 17.3866 22.9218 17.3866 22.6791V21.1866C17.3866 20.725 17.319 20.2791 17.1953 19.8569C17.2589 19.8605 17.3226 19.8629 17.3863 19.8629C17.8129 19.8629 18.2392 19.7823 18.6396 19.6221L20.9611 18.6887C21.1863 18.5981 21.2955 18.3421 21.2049 18.117C21.1144 17.8918 20.8584 17.7827 20.6332 17.8731L18.3123 18.8063C17.8335 18.998 17.3046 19.0348 16.8049 18.9149C16.267 17.935 15.3921 17.1657 14.3377 16.7621L12.1534 14.2137C11.9781 14.0092 11.8932 13.7486 11.9144 13.4801C11.9356 13.2116 12.0603 12.9676 12.2653 12.7933C12.6854 12.4367 13.3191 12.4861 13.6782 12.9033L15.8623 15.4384C16.1849 15.8122 16.7062 15.9323 17.1627 15.7359L21.7739 13.7119C22.2016 13.5289 22.6727 13.5241 23.1006 13.6986C23.5297 13.8737 23.8634 14.2057 24.0403 14.6338C24.2174 15.0618 24.2157 15.5323 24.0354 15.9585C23.8551 16.3852 23.5184 16.7144 23.0856 16.8864L22.536 17.1079C22.3109 17.1986 22.2019 17.4546 22.2926 17.6797C22.3616 17.8511 22.5263 17.9551 22.7004 17.9551C22.8425 17.9551 22.8847 17.9087 23.4122 17.7024C24.065 17.4472 24.5723 16.9457 24.845 16.3007C25.1175 15.656 25.1202 14.9446 24.8525 14.2978C24.5853 13.6511 24.081 13.1492 23.4325 12.8846C22.7853 12.6207 22.0734 12.6274 21.4243 12.9054L18.4306 14.2194C17.5966 13.9853 16.8538 13.3792 16.2214 12.4144C15.6349 11.5195 15.2903 10.5285 15.1368 10.0168C15.1279 9.98754 15.147 9.95736 15.1776 9.95098C15.631 9.85606 15.9488 9.43617 15.9167 8.97387C15.853 8.06367 15.7848 7.00811 15.7848 6.77508C15.7848 5.19076 16.4044 3.70389 17.5295 2.58826C18.6545 1.4727 20.1449 0.866953 21.7325 0.879199C23.2547 0.892383 24.6978 1.49127 25.7958 2.56559C26.8936 3.63967 27.525 5.06988 27.5737 6.59285C27.6296 8.32828 26.8725 10.0057 25.4423 11.3159C25.3739 11.3784 25.3054 11.4415 25.2371 11.5046C25.0427 11.6839 24.9323 11.9283 24.9262 12.1928C24.9201 12.4569 25.0189 12.7055 25.2047 12.8934C26.2506 13.9487 26.9001 15.8902 26.8997 17.9603C26.8993 20.4407 25.9922 22.931 24.3457 24.9723C24.1933 25.1613 24.2229 25.4379 24.4118 25.5903C24.6003 25.7423 24.8771 25.7135 25.0298 25.5241C26.8019 23.3271 27.7781 20.6409 27.7786 17.9604C27.779 15.6324 27.0502 13.5069 25.8293 12.2751C25.7952 12.2404 25.7973 12.1837 25.8332 12.1506ZM4.02742 9.9982L2.52279 8.49357L4.60861 6.40781C4.85805 6.15814 4.85799 5.75209 4.6085 5.5026L2.52279 3.41689L4.02742 1.91227L6.11318 3.99809C6.36268 4.24746 6.76873 4.24752 7.01834 3.99803L9.10404 1.91227L10.6087 3.41689L8.52291 5.50266C8.40203 5.62359 8.33547 5.78432 8.33547 5.95529C8.33547 6.12627 8.40209 6.28705 8.52297 6.40793L10.6087 8.49357L9.10404 9.9982L7.01834 7.9125C6.76879 7.66301 6.36273 7.66301 6.11312 7.9125L4.02742 9.9982ZM8.12605 13.1053C6.81473 12.2699 6.01768 10.8049 6.01756 9.25107L6.5657 8.70293L6.73908 8.87631C6.59553 10.3187 7.27117 11.7267 8.50357 12.5125C9.05687 12.8646 9.68488 13.0714 10.3515 13.291L10.3623 13.2946C10.5827 13.3673 10.8091 13.4423 11.033 13.5229C11.0271 13.8082 11.0853 14.0864 11.2018 14.341C11.1105 14.3036 11.0187 14.2672 10.9264 14.2325C10.0222 13.8921 9.00197 13.6636 8.12605 13.1053Z" fill="#fc5e5e"/>
<path d="M18.4105 8.10176C18.199 8.34774 17.8418 8.39702 17.5727 8.2271C17.3673 8.09743 17.096 8.15883 16.9664 8.36403C16.8368 8.56928 16.8981 8.84069 17.1033 8.9703C17.3492 9.12557 17.6311 9.20626 17.9177 9.20626C18.3782 9.20626 18.7974 8.99995 19.0769 8.67493C19.2351 8.49088 19.2142 8.21344 19.0302 8.05512C18.8463 7.89686 18.5688 7.91778 18.4105 8.10176Z" fill="#fc5e5e"/>
<path d="M21.6773 9.98196C21.4679 9.8592 21.1987 9.92946 21.076 10.139C20.9533 10.3483 21.0236 10.6176 21.233 10.7403C21.4485 10.8665 21.6832 10.9435 21.9307 10.969C22.9283 11.0722 23.8288 10.296 23.9381 9.23887C24.0464 8.19139 23.3391 7.23907 22.3273 7.13453C21.9592 7.09657 21.5929 7.17619 21.2679 7.36522C21.0581 7.48721 20.9869 7.75621 21.1089 7.96604C21.231 8.1758 21.4999 8.24688 21.7097 8.125C21.8727 8.0302 22.055 7.99018 22.2368 8.00881C22.7359 8.06043 23.1251 8.55526 23.0638 9.14852C22.9868 9.89242 22.2566 10.3211 21.6773 9.98196Z" fill="#fc5e5e"/>
</g>
<defs>
<clipPath id="clip0_581_2180">
<rect width="30" height="30" fill="white"/>
</clipPath>
</defs>
</svg>
