<svg width="30" height="30" viewBox="0 0 30 30" fill="none" xmlns="http://www.w3.org/2000/svg">
<path d="M25.764 8.90156C25.764 8.90109 25.764 8.90016 25.7635 8.89969C25.6834 8.34375 23.0471 6.09375 20.649 6.09375C18.0385 6.09375 15.6207 9.3075 14.9434 9.375C14.3246 9.37734 14.327 10.3125 14.9457 10.3125C16.8493 10.3125 19.0782 4.49812 24.0638 8.45531C23.4737 8.6025 23.0588 8.97938 22.8432 9.5625C21.3526 8.27766 18.954 9.00375 18.3001 10.6059C18.0713 11.1745 18.9291 11.5284 19.1682 10.9594C19.7021 9.73969 21.8363 9.21375 22.7935 10.9795C23.581 12.4303 26.1109 11.2763 25.764 8.90156ZM23.6195 10.5352C23.6345 9.65484 23.9795 9.23953 24.848 9.33422C24.8185 10.5117 23.8445 10.9402 23.6195 10.5352Z" fill="#ff0000"/>
<path d="M20.1377 11.1666C20.1518 11.183 21.5468 12.8175 21.5468 15C21.5468 19.6697 17.7879 27.1875 15.453 27.1875C13.7932 27.1875 5.98664 20.8289 5.21742 15.7786C14.2802 19.6336 10.8921 4.30828 19.3301 4.2225C19.6638 4.22156 20.6084 4.21875 21.117 4.21875C21.4816 4.21875 22.0938 4.40156 22.0938 5.625C22.0938 6.24516 23.0313 6.24516 23.0313 5.625C23.0313 3.89531 22.0001 3.28125 21.117 3.28125C20.5559 3.28125 19.7313 3.28406 19.2054 3.28547V3.29203C17.0913 3.34641 15.6166 4.26047 14.5155 5.55469V4.22719C14.5277 3.55594 13.938 2.8125 12.6405 2.8125C12.0982 2.8125 11.667 2.94328 11.3449 3.19312C11.0491 2.66016 10.2677 1.875 9.56977 1.875C8.0318 1.875 6.53367 3.68719 7.44211 4.90641C8.14758 5.85422 8.34445 6.80578 8.39977 7.24687C7.43133 7.85906 4.21289 10.2502 4.21289 15C4.21289 20.6194 13.1145 28.125 15.453 28.125C18.7596 28.125 22.4843 19.5628 22.4843 15C22.4843 12.4716 20.913 10.6298 20.8465 10.5525C20.4391 10.0833 19.7323 10.6983 20.1377 11.1666ZM11.9491 10.3294C11.5029 9.08391 10.6629 7.39078 9.32508 7.08187C9.26648 6.64078 9.10336 5.89875 8.66367 5.08547C9.55992 4.88906 10.1285 4.3125 10.4098 3.46594C10.8429 4.03734 10.7805 4.73109 10.7655 6.5625C10.7655 7.18266 11.703 7.18266 11.703 6.5625V5.16328C12.3705 5.34094 12.9987 5.28891 13.578 5.04375V6.86062C12.9129 7.96078 12.4071 9.18234 11.9491 10.3294ZM13.5002 4.02844C12.7765 4.46812 12.0926 4.32703 11.7307 4.19156C11.9435 3.58078 13.2195 3.65953 13.5002 4.02844ZM9.61102 2.81906C9.46805 3.66516 8.99976 4.17516 8.12508 4.21406C7.96805 3.75469 8.77242 2.73516 9.61102 2.81906ZM9.00305 7.97531C10.2363 8.12203 11.1213 10.6373 11.3909 11.7136C9.98883 15.1003 8.78883 16.5108 5.16305 14.722C5.29383 10.4208 8.36742 8.355 9.00305 7.97531Z" fill="#ff0000"/>
<path d="M15.9213 11.7188V14.4071L14.1691 17.4736L12.1849 18.6642L11.0252 17.8913C10.9047 17.8111 10.7538 17.791 10.6169 17.8364L9.21064 18.3052C8.62048 18.5021 8.92142 19.3917 9.50736 19.1944L10.6961 18.7983L11.6369 19.4255L11.2483 20.9799C11.0983 21.5803 12.0067 21.8105 12.1581 21.2077L12.58 19.5211L14.0472 18.6408V23.4375C14.0472 24.0577 14.9847 24.0577 14.9847 23.4375V20.8191L16.5283 22.3627C16.9624 22.8014 17.6303 22.14 17.1902 21.6999L14.9838 19.4935V17.9372L16.577 15.1491L17.7353 15.728L17.3369 17.7207C17.2155 18.331 18.1342 18.518 18.2556 17.9049L18.5528 16.4199L19.3399 17.2069C19.7795 17.6447 20.441 16.9819 20.0027 16.5436L18.5964 15.1374C18.3963 14.9888 17.6144 14.6307 16.8588 14.2416V11.7188C16.8588 11.0986 15.9213 11.0986 15.9213 11.7188Z" fill="#ff0000"/>
</svg>
