<svg width="30" height="30" viewBox="0 0 30 30" fill="none" xmlns="http://www.w3.org/2000/svg">
<g clip-path="url(#clip0_581_2175)">
<path d="M3.65585 7.01767C3.60868 7.03372 3.56075 7.0414 3.51359 7.0414C3.33089 7.0414 3.16027 6.92656 3.09781 6.7441L3.03312 6.55525C2.75204 5.73464 2.4865 4.95956 2.29326 4.2204C1.74382 2.11783 1.77365 0.497533 1.77517 0.429623C1.78062 0.187104 1.98341 -0.00344314 2.22412 0.000424045C2.46663 0.00575608 2.65894 0.206674 2.65384 0.449194C2.65355 0.464721 2.62712 2.02185 3.14357 3.9981C3.32855 4.70562 3.58894 5.46576 3.86456 6.27048L3.92931 6.45962C4.00794 6.68919 3.88548 6.9391 3.65585 7.01767Z" fill="#ff0000"/>
<path d="M1.34587 18.7413C1.54128 18.3511 1.74853 17.962 1.96784 17.5501C2.5955 16.3713 3.30694 15.0352 3.9619 13.2344C4.37575 12.0958 4.30134 10.6899 3.72062 8.67596C3.65341 8.44275 3.78788 8.19918 4.02114 8.13197C4.25423 8.06465 4.49792 8.19924 4.56513 8.43244C4.99298 9.91633 5.40495 11.8373 4.7879 13.5348C4.11185 15.3938 3.38493 16.7588 2.74362 17.9632C2.52694 18.3702 2.32222 18.7547 2.13167 19.1351C1.35847 20.6778 0.879229 22.0472 0.879229 24.1037C0.879229 26.3259 1.67317 27.7847 2.63235 29.3286C2.76044 29.5347 2.69716 29.8057 2.49097 29.9338C2.41878 29.9786 2.33862 30 2.25946 30C2.11257 30 1.96896 29.9263 1.88575 29.7924C0.892178 28.1931 0.000322342 26.5546 0.000322342 24.1037C0.000322342 21.8815 0.538271 20.3528 1.34587 18.7413Z" fill="#ff0000"/>
<path d="M5.19411 16.5589C5.356 16.0345 5.4818 15.56 5.57871 15.1084C6.08789 12.74 6.92262 10.8533 8.05981 9.50079C9.10582 8.25673 10.3716 7.49337 11.8221 7.2321C13.3408 6.95841 14.9706 7.26222 16.5354 8.1106C18.0124 8.91134 19.3525 10.1771 20.3088 11.6749C20.4394 11.8794 20.3794 12.1512 20.1749 12.2817C19.9703 12.4124 19.6985 12.3524 19.568 12.1478C18.6906 10.7736 17.4649 9.61417 16.1166 8.88321C14.7292 8.13105 13.298 7.85929 11.9779 8.097C10.7348 8.32095 9.64301 8.98353 8.73258 10.0663C8.53459 10.3018 8.34651 10.5561 8.16821 10.8285C8.18379 11.1371 8.27871 12.0042 8.8452 12.5826C9.2236 12.969 9.75996 13.1648 10.4394 13.1648C12.1379 13.1648 12.8494 13.743 13.2524 14.4437C13.3821 13.8765 13.6701 13.3417 14.1071 12.9044L15.8096 11.2025C16.0601 10.9516 16.3934 10.8134 16.7481 10.8134C17.1027 10.8134 17.436 10.9514 17.6868 11.2022C17.9377 11.4531 18.0759 11.7865 18.0759 12.1409C18.0759 12.4958 17.9375 12.8292 17.6869 13.079L16.4311 14.3353C16.3465 14.4197 16.3 14.5321 16.3 14.6518C16.3 14.7715 16.3467 14.8842 16.4314 14.9689L17.9318 16.4693C18.2026 16.7401 18.4216 17.0535 18.5813 17.3952C19.2912 16.8359 20.1107 16.4097 21.0016 16.1546C20.9196 15.3922 20.7356 14.6342 20.4522 13.8964C20.3652 13.6698 20.4783 13.4156 20.7049 13.3286C20.9315 13.2415 21.1857 13.3546 21.2727 13.5812C21.5717 14.3596 21.77 15.1595 21.865 15.9653C22.136 15.9237 22.4122 15.8979 22.6924 15.8882C22.5725 14.3768 22.1256 12.9177 21.3867 11.6432C20.5739 10.2412 19.4051 9.05554 18.0066 8.21443C17.8758 8.13574 17.7952 7.99476 17.7937 7.84212C17.7922 7.68949 17.8701 7.54693 17.9994 7.46572C19.1805 6.72404 19.587 6.03234 19.4027 5.07843C19.093 3.47618 17.0405 1.95409 15.2871 0.807005C15.084 0.674114 15.027 0.40177 15.1599 0.198684C15.2929 -0.00440163 15.5652 -0.0613547 15.7682 0.0714773C17.6665 1.31331 19.8933 2.98575 20.2657 4.91161C20.5361 6.31118 19.8055 7.21898 19.0231 7.82495C20.2996 8.70773 21.3717 9.86478 22.1472 11.2024C22.9669 12.6163 23.4571 14.2367 23.5761 15.9115C25.2696 16.0604 26.8311 16.8045 28.0258 18.0452C28.1941 18.22 28.1889 18.4982 28.0141 18.6666C27.8393 18.8349 27.5612 18.8296 27.3928 18.6548C26.2175 17.4343 24.6369 16.7621 22.9421 16.7621C19.5349 16.7621 16.7629 19.5342 16.7629 22.9414C16.7629 26.3486 19.5346 29.1209 22.9419 29.1209C26.3491 29.1209 29.1211 26.3488 29.1211 22.9416C29.1211 21.9844 28.9086 21.0678 28.4896 20.2173C28.3823 19.9996 28.4719 19.7361 28.6896 19.6289C28.9073 19.5216 29.1707 19.6112 29.278 19.8289C29.7571 20.8012 30 21.8485 30 22.9416C30 26.8335 26.8337 29.9998 22.9419 29.9998C20.7592 29.9998 18.805 29.0038 17.5093 27.4427C16.8855 27.7892 16.2395 28.0636 15.5817 28.2592L14.8934 29.745C14.819 29.9054 14.6603 29.9999 14.4943 29.9999C14.4325 29.9999 14.3697 29.9868 14.3099 29.959C14.0897 29.857 13.9938 29.5958 14.0959 29.3756L14.8689 27.7071C14.9234 27.5894 15.027 27.5019 15.1521 27.4678C15.7767 27.2976 16.3917 27.0479 16.9867 26.7264C16.8611 26.5294 16.7451 26.3256 16.6391 26.116C14.9064 27.1347 12.8511 27.6547 10.5855 27.6545C9.79553 27.6545 8.97961 27.5914 8.14348 27.4641C6.79541 27.2586 5.77981 26.6241 5.12485 25.5783C4.40139 24.4232 4.13467 22.7833 4.33207 20.7043C4.48623 19.0803 4.88596 17.5534 5.19411 16.5589ZM17.8853 18.0227C17.7692 17.6737 17.5738 17.3546 17.3102 17.091L15.8098 15.5906C15.559 15.3398 15.4209 15.0064 15.4209 14.6519C15.4209 14.2972 15.5592 13.9639 15.8097 13.7138L17.0657 12.4572C17.1503 12.3729 17.1969 12.2606 17.1969 12.1411C17.1969 12.0214 17.1501 11.9088 17.0651 11.8238C16.9804 11.7391 16.8677 11.6924 16.7479 11.6924C16.6283 11.6924 16.5159 11.739 16.4311 11.8239L14.7284 13.5261C14.0074 14.2475 13.8471 15.3357 14.3295 16.2339L14.8379 17.181C14.9296 17.3518 14.8985 17.5625 14.7615 17.6995L13.4197 19.0419C13.3145 19.1472 13.1631 19.192 13.0177 19.1611C12.8722 19.1303 12.7521 19.0279 12.6987 18.889C12.3708 18.0364 11.5368 17.4637 10.6236 17.4637H9.2717C9.15176 17.4637 9.03926 17.5103 8.95442 17.5954C8.86987 17.6799 8.82328 17.7924 8.82328 17.912C8.82328 18.1593 9.02444 18.3604 9.27164 18.3604H10.6236C11.3555 18.3604 11.9509 18.9558 11.9509 19.6877V20.3287C11.9509 20.4453 11.9046 20.5572 11.822 20.6396L11.8007 20.6609C11.629 20.8325 11.3509 20.8323 11.1794 20.6607C10.6905 20.1718 10.0408 19.9087 9.34858 19.923C8.65776 19.9362 8.01809 20.2233 7.54729 20.7316C6.65795 21.691 6.65795 23.1942 7.54729 24.1536C8.01838 24.6619 8.65828 24.949 9.34916 24.9622C10.0406 24.977 10.6905 24.7133 11.1794 24.2245C11.2916 24.1123 11.3937 23.9887 11.4826 23.8573C11.5698 23.7286 11.6449 23.5924 11.7057 23.4525C11.7964 23.2438 12.0315 23.1392 12.2473 23.2108C13.3198 23.5673 14.4824 23.2926 15.2813 22.4938L15.9768 21.7982C16.2149 20.3427 16.8996 19.0358 17.8853 18.0227ZM5.86963 25.1117C6.38983 25.9424 7.17692 26.4276 8.27578 26.5952C11.352 27.0632 14.1135 26.6152 16.2896 25.3007C16.0472 24.6192 15.9064 23.89 15.8863 23.1312C14.9424 24.0642 13.6133 24.4377 12.3375 24.1475C12.2976 24.2164 12.2552 24.284 12.2104 24.3501C12.0903 24.5275 11.9525 24.6943 11.801 24.846C11.1574 25.4895 10.3069 25.8415 9.39932 25.8415C9.37717 25.8415 9.35485 25.8413 9.33258 25.8409C8.40071 25.8232 7.5378 25.4362 6.90282 24.751C5.70299 23.4565 5.70299 21.4285 6.90276 20.1341C7.39272 19.6052 8.01862 19.254 8.70738 19.113C8.25703 18.9006 7.94461 18.442 7.94461 17.9119C7.94461 17.5574 8.0826 17.2243 8.33262 16.9743C8.58305 16.7229 8.91662 16.5846 9.27188 16.5846H10.6236C11.6784 16.5846 12.6574 17.1322 13.2229 17.9955L13.8084 17.4097C13.2572 16.8528 13.027 16.2233 12.8208 15.6563C12.4676 14.6853 12.2343 14.0438 10.4392 14.0438C9.51135 14.0438 8.76176 13.757 8.21139 13.1916C7.86158 12.8323 7.64444 12.4091 7.50891 12.0138C7.0633 12.9558 6.70494 14.0515 6.43805 15.293C6.33569 15.7699 6.2035 16.2687 6.03381 16.8186C5.79153 17.6007 5.36186 19.1563 5.207 20.7873C5.02828 22.6693 5.25123 24.1243 5.86963 25.1117Z" fill="#ff0000"/>
<path d="M22.9413 23.6941C22.8121 23.6941 22.6894 23.6372 22.6059 23.5386C21.6316 22.3875 21.158 21.5331 21.158 20.9266C21.158 19.9433 21.958 19.1433 22.9413 19.1433C23.9246 19.1433 24.7246 19.9433 24.7246 20.9266C24.7246 21.5331 24.251 22.3875 23.2768 23.5386C23.1933 23.6372 23.0706 23.6941 22.9413 23.6941ZM22.9413 20.0222C22.4426 20.0222 22.0369 20.4279 22.0369 20.9266C22.0369 21.0478 22.1081 21.4983 22.9413 22.56C23.7745 21.4983 23.8457 21.0479 23.8457 20.9266C23.8457 20.4279 23.44 20.0222 22.9413 20.0222Z" fill="#ff0000"/>
<path d="M26.2172 26.9076L25.729 27.5081C25.5875 27.6821 25.3866 27.7892 25.1635 27.8097C24.9405 27.8301 24.7236 27.7616 24.553 27.6164C24.2253 27.3375 23.6157 26.8054 22.9421 26.1503C22.2692 26.8048 21.6593 27.3373 21.3312 27.6164V27.6164C21.1803 27.7448 20.9934 27.8133 20.7979 27.8133C20.7723 27.8133 20.7466 27.8121 20.7208 27.8097C20.4976 27.7892 20.2967 27.6821 20.1552 27.5081L19.6669 26.9076C19.3814 26.5566 19.4273 26.0517 19.7714 25.7582C20.0831 25.4922 20.6607 24.9869 21.2859 24.3771C20.1603 23.0165 19.6121 21.8853 19.6121 20.9264C19.6121 19.0903 21.106 17.5964 22.9421 17.5964C24.7783 17.5964 26.2721 19.0903 26.2721 20.9264C26.2721 21.8852 25.7238 23.0168 24.5983 24.3771C25.2233 24.9867 25.8008 25.492 26.1127 25.7581C26.4566 26.0517 26.5026 26.5566 26.2172 26.9076ZM23.6882 24.7129C23.5259 24.5496 23.5172 24.2885 23.6683 24.1148C24.8128 22.7984 25.3931 21.7258 25.3931 20.9264C25.3931 19.5749 24.2936 18.4753 22.9421 18.4753C21.5905 18.4753 20.491 19.5749 20.491 20.9264C20.491 21.7257 21.0713 22.7984 22.2158 24.1148C22.3669 24.2885 22.3582 24.5496 22.1958 24.7129C21.4689 25.4441 20.7615 26.0674 20.3812 26.3932L20.8029 26.9118C21.1824 26.5876 21.8891 25.966 22.6309 25.2225C22.7134 25.1399 22.8253 25.0934 22.9421 25.0934C23.0588 25.0934 23.1707 25.1399 23.2532 25.2225C23.9959 25.9669 24.702 26.588 25.0811 26.9118L25.5028 26.3931C25.1224 26.0674 24.415 25.444 23.6882 24.7129Z" fill="#ff0000"/>
</g>
<defs>
<clipPath id="clip0_581_2175">
<rect width="30" height="30" fill="white" transform="matrix(-1 0 0 1 30 0)"/>
</clipPath>
</defs>
</svg>
