<svg width="30" height="30" viewBox="0 0 30 30" fill="none" xmlns="http://www.w3.org/2000/svg">
<path d="M26.2841 7.3282H25.1328C26.5013 6.73676 27.219 6.01324 27.219 5.21297C27.219 4.15406 25.9903 3.24615 23.6657 2.58539C22.6624 1.04285 20.9811 0.0292969 19.0797 0.0292969C18.4234 0.0292969 17.7794 0.148887 17.1641 0.38543C16.6514 0.584941 15.0624 0.584883 14.5473 0.384961C13.9353 0.148945 13.2917 0.0292969 12.6346 0.0292969C10.8034 0.0292969 9.17622 0.969434 8.16225 2.41682C6.19614 2.8974 3.97145 3.76201 3.97145 5.21297C3.97145 6.24627 5.14555 7.1373 7.36954 7.79531C7.58147 8.4559 7.90268 9.07611 8.32368 9.62057C9.14141 10.6804 9.81923 13.9867 10.2677 16.1747C10.3859 16.7514 10.488 17.2494 10.5794 17.6475C10.7301 18.3058 11.2169 18.7481 11.7908 18.7481C12.3229 18.7481 12.7596 18.3618 12.9889 17.6887L15.1473 11.3779C15.563 11.2433 16.1507 11.2433 16.5654 11.3776L18.7241 17.6894C18.9557 18.3622 19.3929 18.7481 19.9235 18.7481C20.4951 18.7481 20.9818 18.3063 21.1349 17.6473C21.2247 17.2542 21.3252 16.7637 21.4415 16.1958C21.6689 15.0851 21.948 13.7238 22.2726 12.4985H24.2235C24.4496 12.4985 24.633 12.3152 24.633 12.0891V10.4397H26.284C26.5101 10.4397 26.6935 10.2564 26.6935 10.0303V7.73766C26.6935 7.51148 26.5102 7.3282 26.2841 7.3282ZM26.4001 5.21297C26.4001 5.67557 25.7498 6.19787 24.633 6.64998V6.21211C24.6385 6.10008 24.6413 5.99965 24.6413 5.9059C24.6413 5.09244 24.484 4.31707 24.1999 3.61189C25.8048 4.17381 26.4001 4.78928 26.4001 5.21297ZM12.6346 0.848203C13.1906 0.848203 13.735 0.949453 14.2519 1.14867C14.9576 1.4226 16.7572 1.42254 17.4596 1.1492C17.9791 0.949453 18.5242 0.848203 19.0797 0.848203C21.4927 0.848203 23.4905 2.77992 23.7849 5.26928H21.9326C21.7065 5.26928 21.5231 5.45262 21.5231 5.67873V7.3282H19.872C19.6459 7.3282 19.4626 7.51154 19.4626 7.73766V7.77656C18.223 7.90758 16.9244 7.97467 15.5952 7.97467C12.7567 7.97467 10.0861 7.67584 8.03417 7.13121C7.94094 6.73277 7.89184 6.32139 7.89184 5.9059C7.8919 3.11707 10.0195 0.848203 12.6346 0.848203ZM4.79036 5.21297C4.79036 4.74006 5.54651 4.0227 7.59747 3.41643C7.26132 4.17275 7.073 5.01645 7.073 5.90584C7.073 6.22945 7.09913 6.55102 7.14887 6.86754C5.42417 6.2901 4.79036 5.64861 4.79036 5.21297ZM20.6393 16.0315C20.524 16.5946 20.4244 17.0808 20.337 17.4635C20.2722 17.742 20.1061 17.9291 19.9235 17.9291C19.6908 17.9291 19.5393 17.5416 19.4987 17.4236L17.279 10.9337C17.243 10.8284 17.1657 10.7422 17.0648 10.6952C16.3881 10.3794 15.3267 10.3794 14.6484 10.695C14.5473 10.742 14.4698 10.8282 14.4337 10.9337L12.214 17.4241C12.1736 17.5426 12.0238 17.9291 11.7909 17.9291C11.6073 17.9291 11.4413 17.7425 11.3777 17.4645C11.2883 17.0755 11.1872 16.5819 11.07 16.0102C10.5786 13.6131 9.90565 10.3301 8.97178 9.11994C8.71854 8.79246 8.50725 8.43275 8.34014 8.0516C10.3803 8.53195 12.9191 8.79352 15.5953 8.79352C16.9223 8.79352 18.2207 8.72824 19.4628 8.60016V10.0301C19.4628 10.2563 19.6461 10.4396 19.8722 10.4396H21.5233V12.0889C21.5233 12.1011 21.5241 12.1131 21.5251 12.1251C21.1753 13.4154 20.879 14.8612 20.6393 16.0315ZM25.8747 9.62074H24.2236C23.9975 9.62074 23.8142 9.80408 23.8142 10.0302V11.6796H22.3421V10.0302C22.3421 9.80402 22.1588 9.62074 21.9327 9.62074H20.2815V8.14711H21.9327C22.1588 8.14711 22.3421 7.96377 22.3421 7.73766V6.08818H23.8142V7.73766C23.8142 7.96383 23.9975 8.14711 24.2236 8.14711H25.8747V9.62074ZM23.6495 20.1771L19.9341 22.5594C19.7556 22.0262 19.3359 21.5907 18.7756 21.4045L12.2743 19.2545C11.4186 18.9711 10.5592 19.0695 9.78946 19.5387L6.95903 21.26L6.73702 20.9117C6.6155 20.721 6.36231 20.665 6.17165 20.7865L2.97061 22.8272C2.87903 22.8856 2.8144 22.9779 2.79091 23.084C2.76747 23.1901 2.7871 23.3011 2.84546 23.3926L6.92007 29.7814C6.97848 29.873 7.07083 29.9376 7.17688 29.961C7.20618 29.9675 7.23577 29.9707 7.2653 29.9707C7.3427 29.9707 7.41923 29.9487 7.4855 29.9065L10.6848 27.8658C10.8754 27.7443 10.9315 27.4911 10.8099 27.3005L10.3384 26.5608L11.5502 25.8237L16.7233 27.5347C17.0714 27.6499 17.4194 27.7071 17.7624 27.7071C18.3619 27.7071 18.946 27.5322 19.4881 27.1857L25.622 23.2533C26.4689 22.7088 26.716 21.5769 26.1729 20.7301C25.6291 19.8823 24.4973 19.634 23.6495 20.1771ZM7.39034 28.9958L3.75612 23.2976L6.26651 21.6972L9.89926 27.3955L7.39034 28.9958ZM25.1796 22.5642L19.0466 26.496C18.4095 26.9032 17.695 26.9936 16.9804 26.7572L11.6277 24.9868C11.5137 24.9491 11.3889 24.9633 11.2864 25.0257L9.89803 25.8701L7.39936 21.9507L10.2153 20.2382C10.7816 19.8931 11.3878 19.8236 12.0171 20.032L18.518 22.1818C18.9436 22.3233 19.2214 22.726 19.2086 23.1715C19.2051 23.1866 19.2021 23.202 19.2003 23.2177C19.1614 23.5511 18.977 23.8603 18.7191 24.0246C18.4803 24.1768 18.1994 24.201 17.884 24.0966L14.9233 23.1169C14.7085 23.0459 14.477 23.1623 14.4059 23.377C14.3349 23.5917 14.4513 23.8233 14.666 23.8944L17.6265 24.874C17.8358 24.9432 18.0449 24.9776 18.2483 24.9776C18.5744 24.9776 18.8859 24.8893 19.1591 24.7152C19.575 24.4502 19.8733 24.0054 19.9818 23.5016L24.0914 20.8665C24.559 20.5671 25.1836 20.7041 25.4837 21.1721C25.7832 21.6393 25.6466 22.2639 25.1796 22.5642ZM24.9729 15.9565V16.5284H25.5448C25.7709 16.5284 25.9542 16.7117 25.9542 16.9378C25.9542 17.1639 25.7709 17.3473 25.5448 17.3473H24.9729V17.9208C24.9729 18.147 24.7895 18.3303 24.5634 18.3303C24.3373 18.3303 24.154 18.147 24.154 17.9208V17.3473H23.5804C23.3543 17.3473 23.1709 17.1639 23.1709 16.9378C23.1709 16.7117 23.3543 16.5284 23.5804 16.5284H24.154V15.9565C24.154 15.7303 24.3373 15.547 24.5634 15.547C24.7895 15.547 24.9729 15.7303 24.9729 15.9565ZM7.53389 11.2188V11.7923H8.10747C8.33358 11.7923 8.51692 11.9757 8.51692 12.2018C8.51692 12.4279 8.33358 12.6112 8.10747 12.6112H7.53389V13.1848C7.53389 13.411 7.35055 13.5943 7.12444 13.5943C6.89833 13.5943 6.71499 13.4109 6.71499 13.1848V12.6112H6.14141C5.9153 12.6112 5.73196 12.4279 5.73196 12.2018C5.73196 11.9757 5.9153 11.7923 6.14141 11.7923H6.71499V11.2188C6.71499 10.9926 6.89833 10.8093 7.12444 10.8093C7.35055 10.8093 7.53389 10.9927 7.53389 11.2188Z" fill="#ff0000"/>
</svg>
