<svg width="30" height="30" viewBox="0 0 30 30" fill="none" xmlns="http://www.w3.org/2000/svg">
<g clip-path="url(#clip0_2784_1842)">
<path d="M7.5 2.34375C4.65703 2.34375 2.34375 4.65703 2.34375 7.5H3.28125C3.28125 5.17359 5.17406 3.28125 7.5 3.28125V2.34375Z" fill="#fc5e5e"/>
<path d="M22.5 0.46875C19.657 0.46875 17.3438 2.78203 17.3438 5.625C17.3438 6.64969 17.8163 7.56516 18.5545 8.1675C17.152 8.51812 15.9066 9.32906 15.0005 10.4855C14.1145 9.35859 12.87 8.53219 11.4384 8.17266C12.1805 7.57078 12.6562 6.6525 12.6562 5.625C12.6562 2.78203 10.343 0.46875 7.5 0.46875C3.62297 0.46875 0.46875 3.62297 0.46875 7.5V13.125C0.46875 17.002 3.62297 20.1562 7.5 20.1562C10.343 20.1562 12.6562 17.843 12.6562 15C12.6562 14.5088 12.5447 14.0437 12.3502 13.6252C13.1114 14.3119 13.5938 15.3023 13.5938 16.4062V29.5312H14.5312V16.4062C14.5312 14.0578 12.7931 12.1125 10.5361 11.7759C10.6964 11.3236 10.7812 10.8441 10.7812 10.3645V10.26C10.7812 9.81891 10.7048 9.37828 10.5689 8.95828C13.3284 9.31594 15.4688 11.6756 15.4688 14.5312V29.5312H16.4062V16.4062C16.4062 15.3023 16.8886 14.3119 17.6498 13.6252C17.4553 14.0437 17.3438 14.5088 17.3438 15C17.3438 17.843 19.657 20.1562 22.5 20.1562C26.377 20.1562 29.5312 17.002 29.5312 13.125V7.5C29.5312 3.62297 26.377 0.46875 22.5 0.46875ZM9.84375 10.2605V10.365C9.84375 10.8337 9.73688 11.3011 9.54234 11.7277C9.48656 11.7244 9.43125 11.7188 9.375 11.7188H8.67844C8.82562 11.2828 8.90625 10.8239 8.90625 10.3645V10.26C8.90625 9.80063 8.82562 9.34172 8.67844 8.90578H9.375C9.43125 8.90578 9.48656 8.90016 9.54234 8.89734C9.73688 9.32438 9.84375 9.79172 9.84375 10.2605ZM7.5 19.2188C4.14 19.2188 1.40625 16.485 1.40625 13.125V7.5C1.40625 4.14 4.14 1.40625 7.5 1.40625C9.82594 1.40625 11.7188 3.29859 11.7188 5.625C11.7188 6.91734 10.6673 7.96875 9.375 7.96875H8.4375C7.66219 7.96875 7.03125 7.33781 7.03125 6.5625V5.15625H6.09375V6.5625C6.09375 7.55813 6.72047 8.40516 7.59797 8.74406L7.62234 8.79281C7.84922 9.24609 7.96875 9.75375 7.96875 10.2605V10.365C7.96875 10.8717 7.84922 11.3794 7.62234 11.8327L7.59797 11.8814C6.72047 12.2198 6.09375 13.0669 6.09375 14.0625V15.4688H7.03125V14.0625C7.03125 13.2872 7.66219 12.6562 8.4375 12.6562H9.375C10.6673 12.6562 11.7188 13.7077 11.7188 15C11.7188 17.3264 9.82594 19.2188 7.5 19.2188ZM21.3216 11.7188H20.625C20.5688 11.7188 20.5134 11.7244 20.4577 11.7272C20.2631 11.3006 20.1562 10.8333 20.1562 10.3645V10.26C20.1562 9.79125 20.2631 9.32391 20.4577 8.89734C20.5134 8.90063 20.5688 8.90625 20.625 8.90625H21.3216C21.1744 9.34219 21.0938 9.80109 21.0938 10.2605V10.365C21.0938 10.8239 21.1744 11.2828 21.3216 11.7188ZM16.3458 13.6866C16.2352 12.8325 15.9628 12.03 15.5555 11.3109C16.4709 10.0036 17.8697 9.15281 19.433 8.95266C19.2956 9.375 19.2188 9.81703 19.2188 10.2605V10.365C19.2188 10.8441 19.3036 11.3236 19.4639 11.7759C18.1814 11.9672 17.0691 12.6764 16.3458 13.6866ZM28.5938 13.125C28.5938 16.485 25.86 19.2188 22.5 19.2188C20.1741 19.2188 18.2812 17.3264 18.2812 15C18.2812 13.7077 19.3327 12.6562 20.625 12.6562H21.5625C22.3378 12.6562 22.9688 13.2872 22.9688 14.0625V15.4688H23.9062V14.0625C23.9062 13.0669 23.2795 12.2198 22.402 11.8809L22.3777 11.8322C22.1508 11.3789 22.0312 10.8713 22.0312 10.3645V10.26C22.0312 9.75328 22.1508 9.24562 22.3777 8.79234L22.402 8.74359C23.2795 8.40516 23.9062 7.55813 23.9062 6.5625V5.15625H22.9688V6.5625C22.9688 7.33781 22.3378 7.96875 21.5625 7.96875H20.625C19.3327 7.96875 18.2812 6.91734 18.2812 5.625C18.2812 3.29859 20.1741 1.40625 22.5 1.40625C25.86 1.40625 28.5938 4.14 28.5938 7.5V13.125Z" fill="#fc5e5e"/>
<path d="M22.5 17.3438V18.2812C25.343 18.2812 27.6562 15.968 27.6562 13.125H26.7188C26.7188 15.4514 24.8259 17.3438 22.5 17.3438Z" fill="#fc5e5e"/>
</g>
<defs>
<clipPath id="clip0_2784_1842">
<rect width="30" height="30" fill="white"/>
</clipPath>
</defs>
</svg>
