<svg width="30" height="30" viewBox="0 0 30 30" fill="none" xmlns="http://www.w3.org/2000/svg">
<g clip-path="url(#clip0_2784_1851)">
<path d="M7.36499 7.38257C7.04155 7.38257 6.77905 7.64507 6.77905 7.96851C6.77905 8.29194 7.04155 8.55444 7.36499 8.55444C7.68843 8.55444 7.95093 8.29194 7.95093 7.96851C7.95093 7.64507 7.68843 7.38257 7.36499 7.38257Z" fill="#fc5e5e"/>
<path d="M12.6381 18.339H10.8804V16.5813C10.8804 16.2577 10.6181 15.9954 10.2945 15.9954C9.97095 15.9954 9.70862 16.2577 9.70862 16.5813V18.339H7.95093C7.62737 18.339 7.36499 18.6014 7.36499 18.9249C7.36499 19.2484 7.62737 19.5108 7.95093 19.5108H9.70862V21.2685C9.70862 21.5921 9.97101 21.8544 10.2945 21.8544C10.618 21.8544 10.8804 21.5921 10.8804 21.2685V19.5108H12.6381C12.9617 19.5108 13.2241 19.2484 13.2241 18.9249C13.2241 18.6013 12.9617 18.339 12.6381 18.339Z" fill="#fc5e5e"/>
<path d="M28.4518 18.8663C27.1566 16.6229 24.2927 15.8552 22.049 17.1507L19.669 18.5247V13.4367C19.669 12.8077 19.461 12.1835 19.0832 11.679L16.1537 7.77305V6.1098C16.8356 5.86793 17.3255 5.21672 17.3255 4.45283V1.7577C17.3254 0.788496 16.5369 0 15.5677 0H5.02131C4.05211 0 3.26355 0.788496 3.26355 1.7577V4.45289C3.26355 5.21666 3.75346 5.86799 4.43537 6.10986V7.77311L1.50562 11.6793C1.12793 12.1835 0.919922 12.8077 0.919922 13.4367V24.7839C0.919922 26.3993 2.23412 27.7134 3.84943 27.7134H13.2656C14.5793 29.9156 17.4121 30.6526 19.6326 29.3704L26.7363 25.269C28.9602 23.9848 29.7535 21.1218 28.4518 18.8663ZM4.43537 1.7577C4.43537 1.43461 4.69822 1.17176 5.02125 1.17176H15.5676C15.8907 1.17176 16.1535 1.43461 16.1535 1.7577V4.45289C16.1535 4.77598 15.8907 5.03877 15.5676 5.03877H5.02131C4.69822 5.03877 4.43543 4.77592 4.43543 4.45289L4.43537 1.7577ZM2.44336 12.382L5.49 8.3199C5.56605 8.21853 5.60719 8.09514 5.60719 7.96834V6.21064H14.9817V7.38246H9.70857C9.38502 7.38246 9.12264 7.64484 9.12264 7.9684C9.12264 8.29195 9.38502 8.55434 9.70857 8.55434H15.2747L18.1454 12.3818C18.333 12.6323 18.4495 12.932 18.4847 13.2416H2.10422C2.13937 12.9319 2.25592 12.6322 2.44336 12.382ZM3.84949 26.5416C2.88029 26.5416 2.0918 25.7531 2.0918 24.7839V24.1922H12.7368C12.551 24.9519 12.5522 25.7633 12.765 26.5417H3.84949V26.5416ZM13.1964 23.0262H2.09174V14.4133H18.4972V19.2012L14.9453 21.2521C14.2047 21.6799 13.6061 22.2888 13.1964 23.0262ZM19.0468 28.3556C17.3653 29.3265 15.2167 28.7523 14.2451 27.0697C13.2688 25.3708 13.8605 23.2319 15.5313 22.2668L18.7116 20.4306L22.2271 26.5194L19.0468 28.3556ZM26.1503 24.2542L23.2419 25.9335L19.7264 19.8446L22.6349 18.1655C24.3175 17.1942 26.4653 17.7694 27.4369 19.4521C28.4128 21.1432 27.8194 23.2904 26.1503 24.2542Z" fill="#fc5e5e"/>
</g>
<defs>
<clipPath id="clip0_2784_1851">
<rect width="30" height="30" fill="white"/>
</clipPath>
</defs>
</svg>
