<svg width="30" height="30" viewBox="0 0 30 30" fill="none" xmlns="http://www.w3.org/2000/svg">
<g clip-path="url(#clip0_2784_1860)">
<path d="M19.416 4.13279C19.416 3.28131 18.8743 2.45918 18.0593 1.85859C17.8628 1.71604 17.8192 1.44123 17.9617 1.24482C18.1043 1.04842 18.3791 1.00465 18.5755 1.14727C19.2611 1.65141 19.7804 2.27437 20.0514 2.9284C20.8652 4.69846 22.0652 8.92049 22.0652 10.5127C22.0652 12.5565 21.2657 14.8236 19.6223 17.4379C21.5408 19.5113 23.8093 21.8542 26.493 24.5351C26.5755 24.6175 26.6218 24.7293 26.6219 24.8458C26.622 24.9623 26.5757 25.0741 26.4933 25.1566L21.7838 29.871C21.698 29.9569 21.5854 29.9999 21.4729 29.9999C21.3605 29.9999 21.2482 29.9571 21.1623 29.8714C17.9077 26.6203 14.239 22.8315 11.7056 19.3805C11.4104 18.9784 11.133 18.584 10.873 18.1968C9.05116 20.1605 6.93956 22.3429 4.43919 24.8463L8.52757 28.9389C10.5437 26.9188 12.1214 25.2784 13.4721 23.798C13.6357 23.6187 13.9136 23.606 14.0929 23.7695C14.2722 23.9331 14.2849 24.2111 14.1213 24.3904C12.6926 25.9563 11.0138 27.698 8.83806 29.8715C8.66632 30.043 8.38806 30.0429 8.21656 29.8712L3.50697 25.1567C3.33546 24.985 3.33558 24.7068 3.50726 24.5352C6.2062 21.839 8.45685 19.5141 10.3792 17.4364C8.73751 14.8171 7.93507 12.5381 7.93507 10.5127C7.93507 8.92049 9.13501 4.69846 9.94882 2.9284C10.2199 2.27437 10.7119 1.67127 11.3975 1.16713C12.4063 0.425391 13.7194 0 15.0001 0C15.5816 0 16.1673 0.0857812 16.7409 0.254941C16.9737 0.323555 17.1068 0.567949 17.0382 0.800742C16.9696 1.03354 16.7251 1.16643 16.4924 1.09799C15.9995 0.952617 15.4974 0.878906 15.0001 0.878906C12.689 0.878906 10.5843 2.42982 10.5843 4.13279C10.5843 4.71943 10.7584 5.41881 11.1099 6.23613C12.2518 5.68225 13.5898 5.39062 15.0001 5.39062C16.4109 5.39062 17.7494 5.68242 18.8917 6.23678C19.2424 5.42027 19.416 4.72107 19.416 4.13279ZM9.92357 5.52996C9.34753 7.35404 8.81403 9.54486 8.81403 10.5127C8.81403 12.83 9.99159 15.5606 12.414 18.8603C14.8327 22.155 18.321 25.7823 21.4727 28.9389L25.5611 24.8462C22.0442 21.3252 19.2491 18.3899 17.024 15.8815C16.8629 15.6999 16.8795 15.4222 17.0611 15.2611C17.2427 15.1 17.5204 15.1167 17.6815 15.2982C18.1017 15.772 18.5424 16.2611 19.0048 16.7667C20.472 14.3841 21.1862 12.3347 21.1862 10.5127C21.1862 9.54545 20.6533 7.35656 20.0777 5.53318C19.5566 7.35357 18.088 9.72498 15.568 12.8367C15.83 13.1538 16.1027 13.4784 16.3858 13.8103C16.5433 13.9949 16.5213 14.2723 16.3367 14.4298C16.1521 14.5873 15.8747 14.5654 15.7172 14.3807C12.412 10.5066 10.5298 7.6401 9.92357 5.52996ZM11.4876 7.02978C12.2136 8.43135 13.3805 10.1284 15.0002 12.1409C16.6217 10.127 17.7887 8.43141 18.5142 7.03049C17.49 6.53197 16.2811 6.26953 15.0001 6.26953C13.7197 6.26953 12.5115 6.53174 11.4876 7.02978Z" fill="#ff0000"/>
</g>
<defs>
<clipPath id="clip0_2784_1860">
<rect width="30" height="30" fill="white"/>
</clipPath>
</defs>
</svg>
