<svg width="26" height="26" viewBox="0 0 26 26" fill="none" xmlns="http://www.w3.org/2000/svg">
<g clip-path="url(#clip0_2784_1863)">
<path d="M24.6289 5.95801C24.6289 5.74762 24.4584 5.57715 24.248 5.57715H1.75195C1.54162 5.57715 1.37109 5.74762 1.37109 5.95801V22.7275C1.37109 22.9378 1.54162 23.1083 1.75195 23.1083C1.96229 23.1083 2.13281 22.9378 2.13281 22.7275V6.33887H23.8672V22.3466H19.0967C19.5188 21.7197 19.3936 20.7237 18.7776 20.2187L18.2389 19.7587C17.7587 19.3487 17.0763 19.251 16.5001 19.51L13.9626 20.6506C13.5631 20.8302 13.2331 21.1173 12.9999 21.4685C12.7668 21.1173 12.4368 20.8302 12.0374 20.6506L9.49975 19.51C8.92384 19.2511 8.24124 19.3488 7.761 19.7587L7.22231 20.2187C6.63147 20.7255 6.45709 21.6539 6.9032 22.3466H3.53097C3.32064 22.3466 3.15011 22.5171 3.15011 22.7275C3.15011 22.9378 3.32064 23.1083 3.53097 23.1083H24.248C24.4584 23.1083 24.6289 22.9378 24.6289 22.7275V5.95801ZM8.28816 22.3466C7.9465 22.3466 7.63313 22.1462 7.48973 21.836C7.32499 21.4797 7.41848 21.0528 7.71697 20.798L8.25566 20.338C8.4174 20.1999 8.62189 20.1279 8.82822 20.1279C8.9502 20.1279 9.07278 20.1531 9.1875 20.2047L11.7251 21.3454C12.1493 21.5361 12.4563 21.9088 12.5704 22.3466H8.28816ZM13.4296 22.3466C13.5437 21.9088 13.8507 21.5361 14.2749 21.3454L16.8125 20.2047C17.1212 20.0659 17.4869 20.1183 17.7443 20.338L18.283 20.798C18.5815 21.0529 18.675 21.4798 18.5103 21.836C18.3669 22.1462 18.0535 22.3466 17.7118 22.3466H13.4296Z" fill="#fc5e5e"/>
<path d="M24.8412 4.20606H22.9222C22.7119 4.20606 22.5413 4.37653 22.5413 4.58692C22.5413 4.79731 22.7119 4.96778 22.9222 4.96778H24.8412C25.0602 4.96778 25.2383 5.14592 25.2383 5.36484V24.7293C25.2383 24.9399 25.0669 25.1113 24.8563 25.1113H11.5657C11.3167 25.1113 11.0828 24.9895 10.94 24.7855L10.3065 23.8801C10.2353 23.7783 10.1188 23.7176 9.99446 23.7176H1.15878C0.939809 23.7176 0.761719 23.5395 0.761719 23.3206V5.36484C0.761719 5.14587 0.939859 4.96778 1.15878 4.96778H21.1384C21.3487 4.96778 21.5193 4.79731 21.5193 4.58692C21.5193 4.37653 21.3487 4.20606 21.1384 4.20606H14.9856V2.74173H23.8519C24.2803 2.74173 24.629 2.39312 24.629 1.96463V0.904059C24.6289 0.475566 24.2803 0.126953 23.8518 0.126953H2.1482C1.71971 0.126953 1.37109 0.475566 1.37109 0.904059V1.96468C1.37109 2.39317 1.71971 2.74178 2.1482 2.74178H11.0144V4.20611H1.15878C0.519848 4.20606 0 4.72586 0 5.36484V23.3206C0 23.9596 0.519848 24.4794 1.15878 24.4794H9.79611L10.3159 25.2222C10.601 25.6297 11.0682 25.873 11.5657 25.873H24.8562C25.4869 25.873 26 25.3599 26 24.7293V5.36484C26 4.72586 25.4802 4.20606 24.8412 4.20606ZM2.13281 1.96463V0.904059C2.13281 0.895578 2.13972 0.888672 2.1482 0.888672H23.8519C23.8603 0.888672 23.8672 0.895578 23.8672 0.904059V1.96468C23.8672 1.97316 23.8603 1.98006 23.8519 1.98006H2.1482C2.13972 1.98001 2.13281 1.97311 2.13281 1.96463ZM11.7761 2.74173H14.2239V4.20606H11.7761V2.74173Z" fill="#fc5e5e"/>
<path d="M19.1313 23.7178C18.921 23.7178 18.7505 23.8882 18.7505 24.0986C18.7505 24.309 18.921 24.4795 19.1313 24.4795H22.7572C22.9676 24.4795 23.1381 24.309 23.1381 24.0986C23.1381 23.8882 22.9676 23.7178 22.7572 23.7178H19.1313Z" fill="#fc5e5e"/>
<path d="M6.71738 14.3968C6.98189 14.6619 7.3173 14.8307 7.6812 14.8861C7.6061 15.0606 7.56562 15.2503 7.56562 15.4447C7.56562 16.224 8.19963 16.858 8.97892 16.858H10.5515C10.7618 16.858 10.9324 16.6875 10.9324 16.4771C10.9324 16.2667 10.7618 16.0963 10.5515 16.0963H8.97892C8.61964 16.0963 8.32734 15.804 8.32734 15.4447C8.32734 15.2562 8.4089 15.0771 8.55109 14.9533C8.69322 14.8295 8.88187 14.7735 9.0686 14.7994L11.88 15.1902V17.7621L10.8269 17.6313C10.6178 17.6053 10.428 17.7536 10.4021 17.9624C10.3762 18.1711 10.5243 18.3613 10.7331 18.3872L11.88 18.5296V19.1688C11.88 19.7863 12.3824 20.2888 12.9999 20.2888C13.6174 20.2888 14.1199 19.7863 14.1199 19.1688V18.5297L15.2672 18.3872C15.4759 18.3613 15.6242 18.1711 15.5983 17.9624C15.5724 17.7537 15.3824 17.6058 15.1734 17.6313L14.1199 17.7621V15.1902L16.9316 14.7994C17.1183 14.7734 17.3069 14.8295 17.4491 14.9533C17.5913 15.0771 17.6728 15.2562 17.6728 15.4447C17.6728 15.804 17.3805 16.0963 17.0212 16.0963H15.4487C15.2383 16.0963 15.0678 16.2667 15.0678 16.4771C15.0678 16.6875 15.2383 16.858 15.4487 16.858H17.0212C17.8005 16.858 18.4345 16.224 18.4345 15.4447C18.4345 15.2503 18.3941 15.0606 18.319 14.8861C18.6828 14.8307 19.0181 14.662 19.2822 14.3973C19.6107 14.0695 19.7917 13.6331 19.7917 13.1685C19.7917 12.7542 19.6438 12.3571 19.3797 12.0453C19.6461 11.7318 19.7917 11.3384 19.7917 10.9224C19.7917 10.4197 19.5742 9.94199 19.1949 9.61181C18.8157 9.28158 18.3126 9.13192 17.8146 9.20099L14.1199 9.71459V8.62462C14.1199 8.00707 13.6175 7.50464 13 7.50464C12.3825 7.50464 11.8801 8.00707 11.8801 8.62462V9.71459L8.18551 9.20104C7.6876 9.13203 7.18451 9.28163 6.80523 9.61186C6.42599 9.94204 6.2085 10.4197 6.2085 10.9225C6.2085 11.3384 6.35409 11.7319 6.62043 12.0453C6.35637 12.3571 6.2085 12.7541 6.2085 13.1685C6.2085 13.6331 6.38943 14.0695 6.71738 14.3968ZM9.17351 14.0449C8.91702 14.0093 8.65879 14.0452 8.4255 14.1445H7.94674C7.68557 14.1445 7.44045 14.043 7.25596 13.8582C7.07168 13.6743 6.97016 13.4293 6.97016 13.1685C6.97016 12.8858 7.09245 12.6173 7.30557 12.4318C7.51855 12.2465 7.80095 12.1624 8.08065 12.2015L11.8799 12.7292V14.4211L9.17351 14.0449ZM13.3582 16.8106C13.0644 16.9104 12.805 16.8654 12.6418 16.8116V15.3627C12.7527 15.3846 12.8759 15.399 13.0087 15.399C13.1192 15.399 13.2364 15.3884 13.3582 15.3646V16.8106H13.3582ZM13.3582 14.5775C13.0644 14.6772 12.805 14.6322 12.6418 14.5784V12.7773C12.7527 12.7991 12.8759 12.8136 13.0087 12.8136C13.1192 12.8136 13.2364 12.803 13.3582 12.7792V14.5775H13.3582ZM13.3582 11.992C13.0644 12.0918 12.805 12.0468 12.6418 11.993V10.6271C12.7527 10.649 12.8759 10.6634 13.0087 10.6634C13.1192 10.6634 13.2364 10.6528 13.3582 10.629V11.992H13.3582ZM13 19.5271C12.8024 19.5271 12.6418 19.3664 12.6418 19.1688V17.5959C12.7527 17.6177 12.8759 17.6321 13.0087 17.6321C13.1192 17.6321 13.2364 17.6215 13.3582 17.5978V19.1688C13.3582 19.3664 13.1975 19.5271 13 19.5271ZM18.7436 13.8587C18.5597 14.043 18.3145 14.1445 18.0534 14.1445H17.5747C17.3414 14.0453 17.0832 14.0093 16.8267 14.0449L14.12 14.4211V12.7293L17.9197 12.2015C18.1991 12.1626 18.4816 12.2465 18.6945 12.4318C18.9077 12.6172 19.0299 12.8858 19.0299 13.1685C19.0299 13.4293 18.9285 13.6743 18.7436 13.8587ZM17.9195 9.95555C18.1991 9.91675 18.4817 10.0008 18.6947 10.1863C18.9078 10.3718 19.0299 10.6402 19.0299 10.9225C19.0299 11.1705 18.9371 11.4039 18.7692 11.585C18.4733 11.4514 18.143 11.4013 17.8147 11.4471L14.1199 11.9602V10.4837L17.9195 9.95555ZM13 8.26641C13.1975 8.26641 13.3582 8.42713 13.3582 8.62467V9.84185C13.0644 9.94163 12.805 9.89664 12.6418 9.84281V8.62467C12.6418 8.42713 12.8024 8.26641 13 8.26641ZM7.30542 10.1863C7.5185 10.0008 7.8011 9.91655 8.0807 9.95555L11.8801 10.4837V11.9602L8.18571 11.4471C7.85731 11.4011 7.52688 11.4512 7.23098 11.585C7.06314 11.4039 6.97021 11.1705 6.97021 10.9224C6.97021 10.6401 7.09239 10.3719 7.30542 10.1863Z" fill="#fc5e5e"/>
<path d="M22.0321 7.17896C21.8218 7.17896 21.6512 7.34943 21.6512 7.55981V7.78086H21.4302C21.2198 7.78086 21.0493 7.95134 21.0493 8.16172C21.0493 8.37211 21.2198 8.54258 21.4302 8.54258H21.6512V8.76363C21.6512 8.97402 21.8218 9.14449 22.0321 9.14449C22.2424 9.14449 22.4129 8.97402 22.4129 8.76363V8.54258H22.634C22.8443 8.54258 23.0149 8.37211 23.0149 8.16172C23.0149 7.95134 22.8443 7.78086 22.634 7.78086H22.4129V7.55981C22.4129 7.34948 22.2424 7.17896 22.0321 7.17896Z" fill="#fc5e5e"/>
<path d="M24.248 24.4795C24.4584 24.4795 24.6289 24.309 24.6289 24.0986C24.6289 23.8883 24.4584 23.7178 24.248 23.7178C24.0377 23.7178 23.8672 23.8883 23.8672 24.0986C23.8672 24.309 24.0377 24.4795 24.248 24.4795Z" fill="#fc5e5e"/>
<path d="M12.0249 24.4795C12.2352 24.4795 12.4058 24.309 12.4058 24.0986C12.4058 23.8883 12.2352 23.7178 12.0249 23.7178C11.8146 23.7178 11.644 23.8883 11.644 24.0986C11.644 24.309 11.8146 24.4795 12.0249 24.4795Z" fill="#fc5e5e"/>
<path d="M13.491 24.4795C13.7013 24.4795 13.8718 24.309 13.8718 24.0986C13.8718 23.8883 13.7013 23.7178 13.491 23.7178C13.2806 23.7178 13.1101 23.8883 13.1101 24.0986C13.1101 24.309 13.2806 24.4795 13.491 24.4795Z" fill="#fc5e5e"/>
<path d="M14.957 24.4795C15.1674 24.4795 15.3379 24.309 15.3379 24.0986C15.3379 23.8883 15.1674 23.7178 14.957 23.7178C14.7467 23.7178 14.5762 23.8883 14.5762 24.0986C14.5762 24.309 14.7467 24.4795 14.957 24.4795Z" fill="#fc5e5e"/>
</g>
<defs>
<clipPath id="clip0_2784_1863">
<rect width="26" height="26" fill="white"/>
</clipPath>
</defs>
</svg>
