<svg width="28" height="29" viewBox="0 0 28 29" fill="none" xmlns="http://www.w3.org/2000/svg">
<path fill-rule="evenodd" clip-rule="evenodd" d="M10.5613 19.6817C11.5775 20.3665 12.7724 20.732 13.9946 20.732C14.8085 20.7403 15.6158 20.5848 16.3693 20.2746C17.1229 19.9644 17.8074 19.5056 18.3829 18.9253C18.9585 18.3449 19.4133 17.6546 19.721 16.8948C20.0286 16.1349 20.1828 15.3208 20.1746 14.5001C20.1746 13.2675 19.8121 12.0626 19.1331 11.0378C18.454 10.013 17.4888 9.21421 16.3596 8.74253C15.2304 8.27086 13.9878 8.14744 12.789 8.3879C11.5902 8.62836 10.489 9.2219 9.62476 10.0934C8.76048 10.965 8.1719 12.0754 7.93345 13.2843C7.69499 14.4932 7.81738 15.7462 8.28512 16.8849C8.75287 18.0237 9.54496 18.997 10.5613 19.6817ZM12.4031 10.6357C12.9087 10.4314 13.4501 10.3327 13.9946 10.3455C14.5392 10.3327 15.0806 10.4314 15.5862 10.6357C16.0918 10.8399 16.551 11.1455 16.9361 11.5338C17.3213 11.9222 17.6243 12.3853 17.8268 12.8952C18.0294 13.405 18.1273 13.951 18.1146 14.5001C18.1273 15.0492 18.0294 15.5952 17.8268 16.105C17.6243 16.6148 17.3213 17.078 16.9361 17.4663C16.551 17.8547 16.0918 18.1602 15.5862 18.3645C15.0806 18.5688 14.5392 18.6675 13.9946 18.6547C13.4501 18.6675 12.9087 18.5688 12.4031 18.3645C11.8975 18.1602 11.4383 17.8547 11.0531 17.4663C10.668 17.078 10.365 16.6148 10.1625 16.105C9.95989 15.5952 9.862 15.0492 9.87468 14.5001C9.862 13.951 9.95989 13.405 10.1625 12.8952C10.365 12.3853 10.668 11.9222 11.0531 11.5338C11.4383 11.1455 11.8975 10.8399 12.4031 10.6357Z" fill="#ff0000"/>
<path fill-rule="evenodd" clip-rule="evenodd" d="M25.3245 15.2894L27.2712 17.0863C27.6306 17.4039 27.8692 17.8377 27.9462 18.3134C28.0233 18.789 27.9339 19.2768 27.6935 19.6933L25.3451 23.8479C25.1645 24.1634 24.9048 24.4254 24.592 24.6077C24.2793 24.79 23.9245 24.8862 23.5633 24.8865C23.3394 24.8883 23.1167 24.8532 22.9041 24.7827L20.4115 23.931C19.9758 24.2206 19.5216 24.4808 19.0519 24.71L18.5266 27.3274C18.4324 27.8056 18.1744 28.2351 17.7978 28.5408C17.4212 28.8466 16.95 29.009 16.4666 28.9996H11.6051C11.1217 29.009 10.6505 28.8466 10.2739 28.5408C9.89725 28.2351 9.63928 27.8056 9.54509 27.3274L9.01979 24.71C8.55339 24.4808 8.10263 24.2206 7.67051 23.931L5.16763 24.7827C4.95496 24.8532 4.73231 24.8883 4.50844 24.8865C4.14719 24.8862 3.7924 24.79 3.47965 24.6077C3.16689 24.4254 2.90718 24.1634 2.72656 23.8479L0.295779 19.6933C0.0443539 19.2727 -0.0511818 18.7759 0.0261259 18.291C0.103434 17.8062 0.348585 17.3646 0.718075 17.0447L2.66476 15.2998V13.7106L0.718075 11.9138C0.358735 11.5961 0.120111 11.1623 0.0430699 10.6866C-0.0339709 10.211 0.0553657 9.72322 0.295779 9.30673L2.72656 5.15211C2.90718 4.83663 3.16689 4.5746 3.47965 4.39229C3.7924 4.20999 4.14719 4.11383 4.50844 4.11345C4.73006 4.09825 4.95267 4.1193 5.16763 4.17577L7.61901 5.06902C8.05466 4.77939 8.50885 4.51915 8.97859 4.29003L9.50389 1.67262C9.59808 1.19442 9.85605 0.764874 10.2327 0.459158C10.6093 0.153442 11.0805 -0.00895963 11.5639 0.000381634H16.3842C16.8676 -0.00895963 17.3388 0.153442 17.7154 0.459158C18.092 0.764874 18.35 1.19442 18.4442 1.67262L18.9695 4.29003C19.4359 4.51921 19.8867 4.77945 20.3188 5.06902L22.8217 4.21732C23.0343 4.14681 23.257 4.11172 23.4809 4.11345C23.8421 4.11383 24.1969 4.20999 24.5096 4.39229C24.8224 4.5746 25.0821 4.83663 25.2627 5.15211L27.6935 9.30673C27.9485 9.72384 28.0491 10.2184 27.9775 10.7031C27.9059 11.1878 27.6667 11.6313 27.3021 11.9553L25.3245 13.7002V15.2894ZM19.948 21.6044L23.4809 22.8092L25.9116 18.6546L23.1101 16.0891C23.3005 15.014 23.3005 13.9133 23.1101 12.8382L25.9116 10.3454L23.4809 6.19076L19.9377 7.35406C19.1078 6.65727 18.1677 6.10603 17.1567 5.72337L16.4254 2.03614H11.5639L10.8326 5.76492C9.81351 6.13702 8.86832 6.68921 8.0413 7.3956L4.50844 6.19076L2.07766 10.3454L4.87923 12.9109C4.68879 13.986 4.68879 15.0867 4.87923 16.1618L2.07766 18.6546L4.50844 22.8092L8.0516 21.6459C8.88148 22.3427 9.82156 22.894 10.8326 23.2766L11.5639 26.9639H16.4254L17.1567 23.2351C18.1758 22.863 19.121 22.3108 19.948 21.6044Z" fill="#ff0000"/>
</svg>
