<svg width="60" height="60" viewBox="0 0 60 60" fill="none" xmlns="http://www.w3.org/2000/svg">
<path fill-rule="evenodd" clip-rule="evenodd" d="M46.9758 32.1659C44.0277 32.1659 41.6194 29.7715 41.6194 26.8234C41.6194 23.8614 44.0277 21.467 46.9758 21.467C49.9377 21.467 52.3322 23.8614 52.3322 26.8234C52.3322 29.7715 49.9377 32.1659 46.9758 32.1659ZM29.7439 59.986C21.2041 59.986 13.2595 56.2213 7.37715 49.3978C7.0865 49.0517 7.0865 48.5535 7.37715 48.2074C13.1626 41.4946 20.9412 37.7438 29.3149 37.6192V31.3908C27.3633 31.3355 25.7993 29.7438 25.7993 27.7784V26.505C23.654 26.2005 21.9931 24.3458 21.9931 22.1175V16.8856H18.3806C17.8823 16.8856 17.4671 16.4704 17.4671 15.9721V9.35623H8.52594C8.01383 9.35623 7.61245 8.94101 7.61245 8.44274V0.913326C7.61245 0.415056 8.01383 0.0136719 8.52594 0.0136719H51.9308C52.4291 0.0136719 52.8443 0.415056 52.8443 0.913326V8.44274C52.8443 8.94101 52.4291 9.35623 51.9308 9.35623H42.9758V15.9721C42.9758 16.4704 42.5744 16.8856 42.0761 16.8856H38.4637V22.1175C38.4637 24.3458 36.8028 26.2005 34.6574 26.505V27.7784C34.6574 29.7438 33.0934 31.3493 31.1419 31.3908V37.6469C39.1557 38.0344 46.5605 41.7438 52.1107 48.2074C52.4152 48.5535 52.4152 49.0517 52.1107 49.3978C46.2422 56.2213 38.2976 59.986 29.7439 59.986ZM9.27335 48.8026C12.609 52.4843 16.5951 55.1555 20.955 56.678C16.9135 52.069 17.0657 45.2178 21.301 40.8026C16.8028 42.3112 12.692 45.024 9.27335 48.8026ZM25.3287 57.7991C26.7682 58.0483 28.2491 58.1728 29.7439 58.1728C31.2387 58.1728 32.7197 58.0483 34.173 57.7991C37.5086 56.1382 39.6678 52.6642 39.6678 48.9272C39.6678 44.8303 37.0934 41.1209 33.2733 39.6676C32.5675 39.5708 31.8616 39.5016 31.1419 39.46V41.7853C31.1419 42.9756 29.3149 42.9756 29.3149 41.7853V39.4324C28.2768 39.4462 27.2387 39.5292 26.2145 39.6676C22.3945 41.1209 19.8339 44.8303 19.8339 48.9272C19.8339 52.6642 21.9792 56.1382 25.3287 57.7991ZM38.5329 56.678C42.8927 55.1555 46.8789 52.4843 50.2145 48.8026C46.7958 45.024 42.6851 42.3112 38.2007 40.8026C42.436 45.2178 42.5882 52.069 38.5329 56.678ZM29.7439 54.422C26.7128 54.422 24.2491 51.9583 24.2491 48.9272C24.2491 45.4531 27.4602 42.851 30.8512 43.5431C32.692 41.7161 35.8339 43.0171 35.8339 45.6192C35.8339 46.3666 35.5432 47.0587 35.0727 47.5846C35.9446 51.031 33.3287 54.422 29.7439 54.422ZM30.0208 45.2593C27.8754 45.1071 26.0761 46.7957 26.0761 48.9272C26.0761 50.9618 27.7232 52.6088 29.7439 52.6088C31.9446 52.6088 33.647 50.6849 33.3979 48.4981C31.474 48.8164 29.7855 47.1971 30.0208 45.2593ZM32.9135 44.5119C31.4602 44.5119 31.4602 46.7265 32.9135 46.7265C34.3391 46.7265 34.3945 44.5119 32.9135 44.5119ZM9.4256 7.54308H51.0311V1.82682H9.4256V7.54308ZM32.8443 26.5604H27.6124V27.7784C27.6124 28.7611 28.4152 29.5777 29.4118 29.5777H31.045C32.0415 29.5777 32.8443 28.7611 32.8443 27.7784V26.5604ZM41.1626 15.0587V9.35623H19.2941V15.0587H41.1626ZM23.8062 16.8856V22.1175C23.8062 23.6676 24.9965 24.7472 26.699 24.7334H34.0208C35.474 24.7334 36.6367 23.5708 36.6367 22.1175V16.8856H23.8062ZM36.5398 36.4843C35.9446 36.4843 35.5017 35.9306 35.6678 35.3493L36.7336 31.3493C37.0381 30.1867 38.7958 30.6573 38.4913 31.8199L37.4256 35.8199C37.3149 36.2213 36.9412 36.4843 36.5398 36.4843ZM23.8754 36.2351C23.474 36.2351 23.1142 35.9721 23.0035 35.5708L21.9377 31.5708C21.6194 30.422 23.3772 29.9375 23.6817 31.1002L24.7612 35.1002C24.9135 35.6676 24.4706 36.2351 23.8754 36.2351ZM11.2111 38.9618C8.96885 38.9618 7.1557 37.1486 7.1557 34.9202C7.1557 32.6919 8.96885 30.8649 11.2111 30.8649C13.4394 30.8649 15.2526 32.6919 15.2526 34.9202C15.2526 37.1486 13.4394 38.9618 11.2111 38.9618ZM11.2111 32.6919C8.27681 32.6919 8.27681 37.1486 11.2111 37.1486C14.1453 37.1486 14.1453 32.6919 11.2111 32.6919ZM12.8858 28.3735C9.7301 28.3735 7.1557 25.813 7.1557 22.6434C7.1557 19.4877 9.7301 16.9272 12.8858 16.9272C16.0415 16.9272 18.6159 19.4877 18.6159 22.6434C18.6159 25.813 16.0415 28.3735 12.8858 28.3735ZM12.8858 18.7403C10.7266 18.7403 8.96885 20.4981 8.96885 22.6434C8.96885 24.8026 10.7266 26.5604 12.8858 26.5604C15.045 26.5604 16.7889 24.8026 16.7889 22.6434C16.7889 20.4981 15.045 18.7403 12.8858 18.7403ZM46.9758 23.2801C45.0242 23.2801 43.4464 24.8718 43.4464 26.8234C43.4464 28.7611 45.0242 30.3528 46.9758 30.3528C48.9273 30.3528 50.519 28.7611 50.519 26.8234C50.519 24.8718 48.9273 23.2801 46.9758 23.2801Z" fill="#ff0000"/>
</svg>
