<svg width="62" height="62" viewBox="0 0 62 62" fill="none" xmlns="http://www.w3.org/2000/svg">
<path d="M24.352 49.554C23.8504 49.5632 23.4513 49.9772 23.4606 50.4788C23.4697 50.9747 23.8744 51.3703 24.3683 51.3703C24.374 51.3703 24.3796 51.3703 24.3853 51.3702C31.1087 51.247 37.321 47.8197 41.0261 42.1977C43.2289 40.2211 44.7847 36.0852 44.7847 31.4321C44.7847 27.9238 43.8999 24.7097 42.5205 22.4931C42.5189 22.4897 42.518 22.4862 42.5164 22.4828C40.9086 18.9945 38.3549 16.0379 35.1312 13.9326C31.8219 11.7713 27.9746 10.6289 24.0053 10.6289C12.7719 10.6289 3.63281 19.7679 3.63281 31.0012C3.63281 35.8252 5.34944 40.5046 8.46663 44.1771C11.5476 47.8072 15.8134 50.2548 20.4782 51.0694C20.5311 51.0786 20.5836 51.0829 20.6355 51.0829C21.0685 51.0829 21.452 50.7721 21.529 50.3308C21.6152 49.8368 21.2846 49.3662 20.7906 49.2799C17.515 48.7079 14.5711 47.3023 12.1583 45.3037C12.9245 44.0912 14.1406 43.7857 15.6319 43.4112C17.4507 42.9545 19.7143 42.3863 21.0235 39.7174C21.2443 39.2671 21.0584 38.723 20.6081 38.5021C20.1577 38.2813 19.6137 38.4671 19.3927 38.9176C18.4546 40.8298 16.9415 41.2097 15.1895 41.6495C15.1746 41.6532 15.1595 41.657 15.1446 41.6608C14.8457 40.9959 14.4691 39.6466 15.0143 37.6796C15.1482 37.1963 14.865 36.6958 14.3816 36.5619C13.8988 36.4283 13.3978 36.711 13.2639 37.1946C12.6337 39.4682 12.9871 41.1581 13.3933 42.1746C12.4323 42.5346 11.5124 43.0761 10.8033 44.0634C7.46846 40.6903 5.44922 36.0575 5.44922 31.0012C5.44922 30.2637 5.4939 29.5364 5.57794 28.8209C6.61027 28.5966 8.91952 28.3186 10.3694 29.8545C10.548 30.0436 10.7887 30.1393 11.0299 30.1393C11.2536 30.1393 11.4778 30.0571 11.6532 29.8915C12.0179 29.5471 12.0345 28.9723 11.6901 28.6076C9.91722 26.7294 7.44957 26.6964 5.90332 26.9155C6.83998 22.7631 9.17285 19.1344 12.3809 16.5491C13.1072 17.4392 14.3939 17.8432 15.6873 18.1451C15.0052 19.4989 14.2347 21.7963 15.5475 23.6812C15.724 23.9347 16.0065 24.0706 16.2935 24.0706C16.4726 24.0706 16.6537 24.0176 16.8118 23.9074C17.2234 23.6208 17.3248 23.0548 17.0381 22.6432C16.1448 21.3606 17.022 19.454 17.5318 18.5591C18.9193 18.8961 20.1832 19.3478 20.6778 20.3371C20.837 20.6553 21.1576 20.8393 21.4909 20.8393C21.6273 20.8393 21.766 20.8083 21.8963 20.7431C22.3449 20.5188 22.5268 19.9733 22.3024 19.5247C21.3672 17.6542 19.2707 17.0786 17.3119 16.6442C17.3113 16.6441 17.3106 16.644 17.31 16.6439C17.1581 16.6102 17.007 16.5773 16.8573 16.5448C15.3983 16.2279 14.3279 15.9581 13.8628 15.4701C16.7798 13.5588 20.2646 12.4453 24.0049 12.4453C29.7176 12.4453 35.0533 15.0998 38.5299 19.4574C38.4039 19.4438 38.2771 19.4361 38.1496 19.4361C36.3601 19.4361 34.7336 20.7724 33.5694 23.1989C32.5071 25.4132 31.922 28.3372 31.922 31.4321C31.922 34.527 32.5071 37.4509 33.5694 39.6652C34.6576 41.9336 36.1501 43.249 37.8021 43.4109C34.3878 47.2072 29.5362 49.4591 24.352 49.554ZM33.7387 31.4322C33.7387 25.4332 36.0634 21.2526 38.1499 21.2526C40.378 21.2526 42.9682 25.6994 42.9682 31.4322C42.9682 37.165 40.378 41.6118 38.1499 41.6118C36.0634 41.6118 33.7387 37.4312 33.7387 31.4322Z" fill="#fc5e5e"/>
<path d="M54.0401 19.4375C52.2507 19.4375 50.6241 20.7739 49.4599 23.2004C48.3975 25.4147 47.8125 28.3387 47.8125 31.4335C47.8125 33.1452 47.9886 34.7951 48.3359 36.3376C48.4461 36.8268 48.9319 37.1343 49.4214 37.0241C49.9107 36.914 50.218 36.4279 50.1078 35.9386C49.79 34.5269 49.6288 33.0111 49.6288 31.4335C49.6288 25.4345 51.9535 21.2539 54.04 21.2539C55.1905 21.2539 56.7143 22.3757 57.922 24.1118C59.3805 26.2085 60.1836 28.8087 60.1836 31.4337C60.1836 34.0585 59.3805 36.6587 57.9221 38.7553C56.7145 40.4916 55.1907 41.6134 54.0401 41.6134C53.0677 41.6134 52.0832 40.7632 51.2678 39.2193C51.0335 38.7757 50.4841 38.6062 50.0405 38.8403C49.5969 39.0745 49.4274 39.6241 49.6616 40.0676C50.8068 42.2357 52.3618 43.4298 54.0401 43.4298C57.6232 43.4298 62 37.8942 62 31.4338C62 24.9733 57.6232 19.4375 54.0401 19.4375Z" fill="#fc5e5e"/>
<path d="M41.0046 31.4336C41.0046 28.6269 39.8588 26.5898 38.28 26.5898C36.7012 26.5898 35.5554 28.6269 35.5554 31.4336C35.5554 34.2403 36.7012 36.2773 38.28 36.2773C39.8588 36.2773 41.0046 34.2402 41.0046 31.4336ZM37.3718 31.4336C37.3718 29.6169 38.0002 28.5041 38.28 28.4083C38.5599 28.5041 39.1882 29.6169 39.1882 31.4336C39.1882 33.2502 38.5599 34.3631 38.28 34.4589C38.0003 34.3631 37.3718 33.2502 37.3718 31.4336Z" fill="#fc5e5e"/>
<path d="M44.4873 41.7246C44.0527 41.4741 43.4974 41.6236 43.2471 42.0583C39.2925 48.9246 31.9195 53.1901 24.0051 53.1901C11.7703 53.19 1.81641 43.2362 1.81641 31.0012C1.81641 18.7663 11.7703 8.8125 24.0051 8.8125C25.3914 8.8125 26.779 8.9411 28.1294 9.19491C28.6226 9.28755 29.097 8.96302 29.1896 8.47005C29.2823 7.97719 28.9578 7.50239 28.4648 7.40975C27.0041 7.13523 25.5037 6.99609 24.005 6.99609C10.7686 6.99609 0 17.7647 0 31.0012C0 44.2377 10.7686 55.0064 24.0051 55.0064C28.3019 55.0064 32.5182 53.8574 36.1978 51.6836C39.7694 49.5737 42.7512 46.5589 44.821 42.9648C45.0715 42.5301 44.922 41.9749 44.4873 41.7246Z" fill="#fc5e5e"/>
<path d="M32.5324 8.55563C32.0634 8.37738 31.5389 8.6129 31.3608 9.0819C31.1826 9.55078 31.4181 10.0752 31.887 10.2536C36.9838 12.1912 41.1798 15.9289 43.7021 20.778C43.8639 21.0891 44.1806 21.2673 44.5086 21.2673C44.6498 21.2673 44.793 21.2343 44.9269 21.1645C45.372 20.9331 45.545 20.3848 45.3136 19.9398C42.5855 14.6948 38.0463 10.6519 32.5324 8.55563Z" fill="#fc5e5e"/>
</svg>
