<svg width="62" height="62" viewBox="0 0 62 62" fill="none" xmlns="http://www.w3.org/2000/svg">
<path d="M23.7344 26.1562C24.4028 26.1562 24.9453 25.6137 24.9453 24.9453C24.9453 24.2736 24.3971 23.7344 23.7344 23.7344C23.066 23.7344 22.5234 24.2769 22.5234 24.9453C22.5234 25.6142 23.066 26.1562 23.7344 26.1562Z" fill="#fc5e5e"/>
<path d="M31 10.4141C31.6689 10.4141 32.2109 9.87198 32.2109 9.20312V1.21094C32.2109 0.542084 31.6689 0 31 0C30.3311 0 29.7891 0.542084 29.7891 1.21094V9.20312C29.7891 9.87198 30.3311 10.4141 31 10.4141Z" fill="#fc5e5e"/>
<path d="M29.7891 52.7969V60.7891C29.7891 61.4579 30.3311 62 31 62C31.6689 62 32.2109 61.4579 32.2109 60.7891V52.7969C32.2109 52.128 31.6689 51.5859 31 51.5859C30.3311 51.5859 29.7891 52.128 29.7891 52.7969Z" fill="#fc5e5e"/>
<path d="M12.309 16.4434C12.782 16.9164 13.5483 16.9164 14.0218 16.4434C14.4944 15.9708 14.4944 15.204 14.0218 14.731L8.88339 9.59305C8.41084 9.12003 7.64407 9.12003 7.17105 9.59305C6.69803 10.0661 6.69803 10.8328 7.17105 11.3054L12.309 16.4434Z" fill="#fc5e5e"/>
<path d="M47.9787 46.7665C47.5056 47.2395 47.5056 48.0063 47.9787 48.4793L53.1166 53.6173C53.5892 54.0899 54.356 54.0903 54.829 53.6173C55.302 53.1443 55.302 52.3775 54.829 51.9045L49.691 46.7665C49.218 46.294 48.4517 46.294 47.9787 46.7665Z" fill="#fc5e5e"/>
<path d="M49.691 16.4434L54.829 11.3054C55.302 10.8328 55.302 10.0661 54.829 9.59305C54.356 9.12003 53.5897 9.12003 53.1166 9.59305L47.9787 14.731C47.5056 15.204 47.5056 15.9708 47.9787 16.4434C48.4517 16.9164 49.218 16.9164 49.691 16.4434Z" fill="#fc5e5e"/>
<path d="M12.309 46.7669L7.17105 51.9048C6.69803 52.3774 6.69803 53.1442 7.17105 53.6172C7.64407 54.0902 8.41037 54.0902 8.88339 53.6172L14.0218 48.4792C14.4944 48.0062 14.4944 47.2394 14.0218 46.7669C13.5488 46.2939 12.782 46.2939 12.309 46.7669Z" fill="#fc5e5e"/>
<path d="M10.8786 39.7959C17.1892 45.1325 24.1473 47.9531 31 47.9531C37.8532 47.9531 44.8108 45.1325 51.1214 39.7959C55.8498 35.7974 58.5337 31.8425 58.6453 31.6759C58.9202 31.2673 58.9202 30.7327 58.6453 30.3241C58.5337 30.158 55.8498 26.2026 51.1214 22.2041C44.8108 16.8675 37.8532 14.0469 31 14.0469C24.1473 14.0469 17.1892 16.8675 10.8786 22.2041C6.15071 26.2026 3.46679 30.1575 3.35468 30.3241C3.07985 30.7327 3.07985 31.2673 3.35468 31.6759C3.46679 31.8425 6.15071 35.7974 10.8786 39.7959ZM12.4424 24.0537C16.534 20.5935 23.075 16.4688 31 16.4688C38.9009 16.4688 45.4248 20.5699 49.5065 24.0101C52.8778 26.8521 55.1927 29.729 56.1473 31.0009C55.2003 32.2639 52.9109 35.1106 49.5576 37.9463C45.466 41.4065 38.925 45.5312 31 45.5312C23.0991 45.5312 16.5752 41.4301 12.4939 37.9899C9.12224 35.1479 6.8068 32.2705 5.85318 30.9995C6.7997 29.7361 9.08913 26.8894 12.4424 24.0537Z" fill="#fc5e5e"/>
<path d="M31 41.8984C37.0466 41.8984 41.8984 36.9908 41.8984 31C41.8984 24.9907 37.0093 20.1016 31 20.1016C29.7276 20.1016 28.3463 20.3348 27.0995 20.8206C26.476 21.0627 26.1671 21.7647 26.4093 22.3882C26.6373 22.9747 27.274 23.3474 28.0942 23.0348C29.0166 22.6895 30.0497 22.5234 31 22.5234C35.6739 22.5234 39.4766 26.3261 39.4766 31C39.4766 35.6602 35.6981 39.4766 31 39.4766C26.3261 39.4766 22.5234 35.6739 22.5234 31C22.5234 30.4347 22.5736 30 22.6635 29.4542C22.7879 28.7971 22.356 28.1675 21.699 28.0422C21.0438 27.9183 20.4081 28.352 20.2827 29.0086C20.1588 29.6661 20.1016 30.3605 20.1016 31C20.1016 37.0093 24.9907 41.8984 31 41.8984Z" fill="#fc5e5e"/>
<path d="M35.8438 31C35.8438 28.3293 33.6707 26.1562 31 26.1562C28.3293 26.1562 26.1562 28.3293 26.1562 31C26.1562 33.6707 28.3293 35.8438 31 35.8438C33.6707 35.8438 35.8438 33.6707 35.8438 31ZM28.5781 31C28.5781 29.6647 29.6647 28.5781 31 28.5781C32.3353 28.5781 33.4219 29.6647 33.4219 31C33.4219 32.3353 32.3353 33.4219 31 33.4219C29.6647 33.4219 28.5781 32.3353 28.5781 31Z" fill="#fc5e5e"/>
</svg>
