<svg width="62" height="62" viewBox="0 0 62 62" fill="none" xmlns="http://www.w3.org/2000/svg">
<path d="M14.073 6.24943C13.8571 6.38166 13.7015 6.59316 13.6396 6.83867C13.5777 7.08418 13.6143 7.34417 13.7417 7.56299C13.8691 7.7818 14.0771 7.94205 14.3212 8.00942C14.5652 8.07678 14.826 8.04592 15.0476 7.92343C24.2895 2.5488 37.7095 2.54784 46.9524 7.92343C47.0624 7.99081 47.1848 8.03554 47.3124 8.05497C47.4399 8.07441 47.5701 8.06816 47.6952 8.03661C47.8203 8.00505 47.9379 7.94882 48.041 7.87121C48.144 7.7936 48.2306 7.69619 48.2955 7.58468C48.3604 7.47316 48.4024 7.34981 48.419 7.22185C48.4356 7.09389 48.4265 6.9639 48.3921 6.83952C48.3578 6.71514 48.299 6.59887 48.2191 6.49754C48.1392 6.3962 48.0399 6.31185 47.927 6.24943C38.1184 0.544461 23.8816 0.544461 14.073 6.24943Z" fill="#fc5e5e"/>
<path d="M26.7917 44.1758C24.9201 47.1789 23.25 50.4213 23.25 52.4344C23.25 54.4898 24.0665 56.461 25.5199 57.9145C26.9733 59.3679 28.9445 60.1844 31 60.1844C33.0554 60.1844 35.0266 59.3679 36.4801 57.9145C37.9335 56.461 38.75 54.4898 38.75 52.4344C38.75 50.4213 37.0799 47.1799 35.2082 44.1777C44.1265 42.6975 52.3202 36.6602 58.1569 30.6985C59.3696 29.4689 60.0495 27.8114 60.0495 26.0844C60.0495 24.3574 59.3696 22.6998 58.1569 21.4702C53.1069 16.2923 42.8643 7.60547 31 7.60547C19.1357 7.60547 8.8931 16.2923 3.84301 21.4702C2.63032 22.6998 1.95044 24.3574 1.95044 26.0844C1.95044 27.8114 2.63032 29.4689 3.84301 30.6985C9.66907 36.6457 17.8182 42.6703 26.7917 44.1758ZM36.8125 52.4344C36.8125 53.9759 36.2001 55.4544 35.11 56.5444C34.02 57.6345 32.5415 58.2469 31 58.2469C29.4584 58.2469 27.98 57.6345 26.8899 56.5444C25.7999 55.4544 25.1875 53.9759 25.1875 52.4344C25.1875 50.772 27.0165 47.1528 30.2046 42.5066C30.2938 42.3783 30.4128 42.2735 30.5513 42.2011C30.6898 42.1288 30.8437 42.091 31 42.091C31.1562 42.091 31.3102 42.1288 31.4487 42.2011C31.5872 42.2735 31.7061 42.3783 31.7953 42.5066C34.9835 47.1528 36.8125 50.772 36.8125 52.4344ZM31 9.54297C37.1903 9.54297 42.9524 12.1082 47.6857 15.2363C47.1441 19.2777 45.1541 22.9852 42.0853 25.6701C39.0165 28.3551 35.0775 29.835 31 29.835C26.9224 29.835 22.9835 28.3551 19.9147 25.6701C16.8459 22.9852 14.8559 19.2777 14.3142 15.2363C19.0475 12.1102 24.8097 9.54297 31 9.54297ZM5.23123 22.8226C7.48654 20.5034 9.93143 18.3764 12.5404 16.4637C13.3509 20.7672 15.6394 24.6524 19.0103 27.4477C22.3812 30.2431 26.6228 31.7729 31.0019 31.7729C35.3811 31.7729 39.6226 30.2431 42.9936 27.4477C46.3645 24.6524 48.6529 20.7672 49.4634 16.4637C52.0711 18.3765 54.5146 20.5035 56.7687 22.8226C57.1997 23.2495 57.5418 23.7575 57.7753 24.3174C58.0088 24.8772 58.129 25.4778 58.129 26.0844C58.129 26.691 58.0088 27.2915 57.7753 27.8514C57.5418 28.4113 57.1997 28.9193 56.7687 29.3462C55.8164 30.3217 54.6375 31.4551 53.2861 32.6351C53.0394 30.8822 53.2905 29.0954 54.0107 27.4784C54.1317 27.2538 54.1593 26.9906 54.0874 26.7458C54.0156 26.5011 53.8501 26.2945 53.6268 26.1711C53.4036 26.0476 53.1407 26.0172 52.8951 26.0863C52.6496 26.1555 52.4413 26.3188 52.3154 26.5407C51.8946 27.3379 51.6095 28.1996 51.4716 29.0904C51.1103 28.8676 50.6172 28.5867 49.8373 28.1962C49.6074 28.0814 49.3412 28.0626 49.0974 28.144C48.8536 28.2254 48.6521 28.4003 48.5373 28.6302C48.4224 28.8602 48.4036 29.1264 48.485 29.3702C48.5664 29.614 48.7413 29.8155 48.9713 29.9303C49.7817 30.3153 50.5576 30.769 51.2904 31.2866C51.297 32.2358 51.3714 33.1834 51.5133 34.1221C48.5704 36.5229 45.332 38.5365 41.8771 40.1138C41.7618 39.8988 41.6417 39.6963 41.5225 39.4938C41.9252 38.7606 42.4801 38.1221 43.15 37.6212C43.2584 37.5528 43.3521 37.4635 43.4258 37.3585C43.4994 37.2536 43.5515 37.1351 43.579 37.0099C43.6065 36.8847 43.6088 36.7553 43.5859 36.6291C43.563 36.503 43.5153 36.3827 43.4456 36.2751C43.3759 36.1675 43.2855 36.0749 43.1796 36.0025C43.0738 35.9301 42.9547 35.8795 42.8292 35.8535C42.7037 35.8275 42.5742 35.8267 42.4484 35.8511C42.3225 35.8755 42.2028 35.9246 42.096 35.9957C41.3988 36.4785 40.7982 37.0877 40.3252 37.7917C39.7473 37.0819 39.058 36.4707 38.284 35.9821C38.1754 35.9111 38.0537 35.8626 37.926 35.8396C37.7984 35.8165 37.6674 35.8193 37.5408 35.8478C37.4143 35.8764 37.2947 35.93 37.1893 36.0056C37.0839 36.0812 36.9947 36.1772 36.9271 36.2879C36.8594 36.3986 36.8148 36.5218 36.7956 36.6501C36.7765 36.7784 36.7834 36.9093 36.8158 37.0349C36.8482 37.1605 36.9055 37.2783 36.9843 37.3814C37.0631 37.4844 37.1618 37.5706 37.2746 37.6348C38.4646 38.4518 39.4263 39.5592 40.0684 40.852C38.1277 41.5895 36.1094 42.1043 34.0525 42.3865C33.8297 42.0523 33.6078 41.7219 33.3909 41.4052C33.1215 41.0204 32.7634 40.7063 32.3469 40.4894C31.9304 40.2726 31.4677 40.1593 30.998 40.1593C30.5284 40.1593 30.0657 40.2726 29.6492 40.4894C29.2326 40.7063 28.8745 41.0204 28.6052 41.4052C28.3882 41.7219 28.1664 42.0523 27.9436 42.3865C26.2341 42.1584 24.5504 41.7669 22.9158 41.2172C22.9468 40.7997 22.9632 40.4093 22.9623 40.0382C23.6432 39.6123 24.3928 39.3075 25.1778 39.1373C25.4318 39.0977 25.6596 38.9589 25.8112 38.7513C25.9628 38.5438 26.0258 38.2845 25.9862 38.0305C25.9466 37.7765 25.8078 37.5487 25.6002 37.3971C25.3927 37.2455 25.1334 37.1825 24.8794 37.2221C24.1512 37.3583 23.4468 37.6004 22.7889 37.9409C22.6555 37.0122 22.3635 36.1134 21.9257 35.2836C21.8641 35.1723 21.7811 35.0742 21.6816 34.995C21.582 34.9157 21.4678 34.8568 21.3455 34.8217C21.2232 34.7866 21.0952 34.7759 20.9688 34.7902C20.8424 34.8046 20.72 34.8437 20.6087 34.9053C20.4974 34.967 20.3993 35.0499 20.32 35.1495C20.2408 35.249 20.1819 35.3632 20.1468 35.4855C20.1116 35.6078 20.1009 35.7358 20.1153 35.8622C20.1296 35.9887 20.1687 36.111 20.2304 36.2223C20.8546 37.5588 21.1248 39.0333 21.0151 40.5042C17.3112 38.9276 13.846 36.8407 10.7202 34.3042C11.2074 33.4213 11.6306 32.5044 11.9863 31.5607C12.7765 31.3897 13.5904 31.3569 14.3917 31.4638C14.6439 31.513 14.9053 31.4601 15.1184 31.3165C15.3315 31.173 15.4789 30.9507 15.5281 30.6985C15.5773 30.4464 15.5243 30.185 15.3808 29.9719C15.2372 29.7588 15.0149 29.6114 14.7628 29.5622C14.0327 29.4411 13.2888 29.4284 12.555 29.5244C12.7451 28.6063 12.7778 27.6625 12.6519 26.7334C12.612 26.4795 12.4729 26.2517 12.2652 26.1003C12.0575 25.9489 11.7981 25.8862 11.5441 25.926C11.2901 25.9658 11.0624 26.1049 10.9109 26.3126C10.7595 26.5204 10.6968 26.7798 10.7366 27.0338C11.036 28.9228 10.2058 31.1509 9.2002 33.0516C7.6376 31.7167 6.29395 30.4302 5.22832 29.3365C4.799 28.9096 4.45835 28.402 4.22599 27.8429C3.99363 27.2839 3.87415 26.6844 3.87442 26.0789C3.87469 25.4735 3.99471 24.8741 4.22756 24.3152C4.46042 23.7564 4.80152 23.2491 5.23123 22.8226Z" fill="#fc5e5e"/>
</svg>
