<svg width="62" height="62" viewBox="0 0 62 62" fill="none" xmlns="http://www.w3.org/2000/svg">
<g clip-path="url(#clip0_884_2137)">
<path fill-rule="evenodd" clip-rule="evenodd" d="M29.3128 33.2765C21.4979 33.2765 15.1394 26.9182 15.1394 19.1048C15.1394 11.29 21.4979 4.93164 29.3128 4.93164C37.1276 4.93164 43.4859 11.29 43.4859 19.1048C43.4859 26.9197 37.1262 33.2765 29.3128 33.2765ZM29.3128 6.33813C22.2731 6.33813 16.5465 12.0653 16.5465 19.1043C16.5465 26.1433 22.2737 31.8704 29.3128 31.8704C36.3519 31.8704 42.079 26.1433 42.079 19.1043C42.079 12.0652 36.3518 6.33813 29.3128 6.33813Z" fill="#ff0000"/>
<path fill-rule="evenodd" clip-rule="evenodd" d="M29.3128 27.5424C24.6599 27.5424 20.8746 23.7569 20.8746 19.1042C20.8746 14.4515 24.6599 10.666 29.3128 10.666C33.9655 10.666 37.7509 14.4515 37.7509 19.1042C37.7509 23.7569 33.9641 27.5424 29.3128 27.5424ZM29.3128 12.0711C25.4352 12.0711 22.2801 15.2252 22.2801 19.1038C22.2801 22.9812 25.4358 26.1353 29.3128 26.1353C33.1897 26.1353 36.3444 22.9812 36.3444 19.1038C36.3444 15.2253 33.1897 12.0711 29.3128 12.0711Z" fill="#ff0000"/>
<path fill-rule="evenodd" clip-rule="evenodd" d="M27.6948 16.5723C26.1427 16.5723 24.8813 15.3108 24.8813 13.7597C24.8813 12.2087 26.1427 10.9473 27.6948 10.9473C29.2459 10.9473 30.5073 12.2087 30.5073 13.7597C30.5073 15.3108 29.2459 16.5723 27.6948 16.5723ZM27.6948 12.3532C26.9179 12.3532 26.2878 12.9835 26.2878 13.7603C26.2878 14.5356 26.9179 15.1673 27.6948 15.1673C28.47 15.1673 29.1003 14.536 29.1003 13.7603C29.1018 12.9835 28.47 12.3532 27.6948 12.3532Z" fill="#ff0000"/>
<path fill-rule="evenodd" clip-rule="evenodd" d="M29.3128 33.2756C24.3743 33.2756 19.5264 31.9576 15.2955 29.464C11.1887 27.042 7.75581 23.5824 5.36901 19.4548C5.24329 19.2376 5.24329 18.9687 5.36901 18.7505C7.7558 14.6243 11.1887 11.1633 15.2955 8.74274C19.5265 6.24853 24.3743 4.92969 29.3128 4.92969C34.2521 4.92969 39.0991 6.24752 43.3284 8.74274C47.4363 11.1637 50.8681 14.6244 53.2549 18.7505C53.3822 18.9691 53.3822 19.2376 53.2549 19.4548C50.8681 23.581 47.4363 27.042 43.3284 29.464C39.0975 31.9576 34.2511 33.2756 29.3128 33.2756ZM6.79395 19.1034C11.5215 26.9891 20.1116 31.8695 29.3128 31.8695C38.5124 31.8695 47.104 26.9875 51.8316 19.1034C47.104 11.2178 38.5124 6.33722 29.3128 6.33722C20.1115 6.33722 11.5215 11.2182 6.79395 19.1034Z" fill="#ff0000"/>
<path fill-rule="evenodd" clip-rule="evenodd" d="M36.0389 43.0897C35.8503 43.0897 35.6642 43.0149 35.5255 42.8669C35.2597 42.5828 35.2755 42.1372 35.5582 41.8729L43.3968 34.5466C44.9871 32.9643 47.4917 32.7167 49.3581 33.956C49.6819 34.1708 49.768 34.6069 49.5548 34.9307C49.3384 35.2545 48.9021 35.3422 48.5789 35.1274C47.2649 34.2535 45.4994 34.4317 44.383 35.5492C44.3775 35.5546 44.3878 35.5427 44.383 35.5492L36.5186 42.9001C36.385 43.0268 36.2117 43.0897 36.0389 43.0897Z" fill="#ff0000"/>
<path fill-rule="evenodd" clip-rule="evenodd" d="M12.4527 61.9996C12.2695 61.9996 12.0897 61.9288 11.9551 61.7942L0.686056 50.5252C0.553901 50.3929 0.48053 50.2147 0.48053 50.0276C0.48053 49.8404 0.555332 49.6631 0.686056 49.531L6.94338 43.2737C9.34548 40.8716 12.5394 39.5482 15.936 39.5482C16.3984 39.5482 16.8648 39.5743 17.3257 39.6254L37.6033 41.8523C39.4872 42.0171 41.0407 43.3692 41.4977 45.1623L53.245 34.1839C54.1397 33.2933 55.3253 32.8047 56.5878 32.8047C57.8533 32.8047 59.0424 33.2973 59.9384 34.1933C60.8331 35.0879 61.3272 36.2776 61.3272 37.5441C61.3272 38.8094 60.8336 39.9987 59.9384 40.8933L43.5909 57.2409C42.0072 58.8246 39.901 59.697 37.6608 59.697C37.5572 59.697 37.4498 59.6955 37.345 59.6916L18.5793 59.191L12.7556 61.9328C12.6556 61.9773 12.5537 61.9996 12.4527 61.9996ZM2.17765 50.027L12.6007 60.4501L18.1283 57.8473C18.2277 57.8014 18.3367 57.7781 18.4465 57.7805L37.3864 58.286C37.482 58.29 37.5696 58.2914 37.6577 58.2914C39.5218 58.2914 41.2758 57.5647 42.5947 56.2453L58.9408 39.8991C59.5697 39.2704 59.9167 38.4333 59.9167 37.5441C59.9167 36.6533 59.5697 35.8176 58.9408 35.1875C58.3121 34.5571 57.475 34.2116 56.5858 34.2116C55.6952 34.2116 54.8595 34.5587 54.2292 35.1875C54.2237 35.1929 54.2342 35.1825 54.2292 35.1875L41.3857 47.1896C41.1827 47.3809 40.8828 47.4332 40.6258 47.3209C40.3688 47.2095 40.2025 46.9565 40.2025 46.6763V45.8827C40.0297 44.4772 38.8876 43.374 37.4741 43.2523C37.4677 43.2523 37.4806 43.2537 37.4741 43.2523L17.1708 41.0224C16.7619 40.9779 16.3469 40.9556 15.9356 40.9556C12.9151 40.9556 10.0737 42.1304 7.93851 44.2682L2.17765 50.027Z" fill="#ff0000"/>
<path fill-rule="evenodd" clip-rule="evenodd" d="M39.5393 44.0591C39.3506 44.0591 39.1646 43.9833 39.0258 43.8353C38.7601 43.5511 38.7758 43.1055 39.0586 42.8411L48.6879 33.8436C50.4024 32.138 53.1115 31.9924 54.9953 33.5069C55.2967 33.7505 55.3462 34.1931 55.1012 34.496C54.8577 34.7985 54.416 34.847 54.1121 34.6035C52.7862 33.5371 50.8777 33.642 49.6726 34.847C49.6661 34.8525 49.679 34.842 49.6726 34.847L40.0186 43.8695C39.8848 43.9962 39.7121 44.0591 39.5393 44.0591Z" fill="#ff0000"/>
<path fill-rule="evenodd" clip-rule="evenodd" d="M37.2177 50.6662C37.1533 50.6662 37.0894 50.6648 37.0266 50.6608L22.7563 50.0335C22.3687 50.0167 22.0671 49.6875 22.0845 49.2997C22.1013 48.9121 22.4331 48.6147 22.8182 48.628L37.0884 49.2553C37.9673 49.2943 38.8148 48.9473 39.4164 48.3027C40.0174 47.6611 40.307 46.7897 40.2089 45.9159C40.1658 45.5292 40.4446 45.1812 40.8313 45.1392C41.2189 45.0961 41.5651 45.3747 41.6081 45.76C41.7497 47.0437 41.3263 48.321 40.4436 49.2641C39.6045 50.1632 38.4385 50.6662 37.2177 50.6662Z" fill="#ff0000"/>
<path fill-rule="evenodd" clip-rule="evenodd" d="M18.4273 59.1875C18.2466 59.1875 18.0669 59.1183 17.9298 58.9805L5.07937 46.1302C4.80419 45.855 4.80419 45.4099 5.07937 45.1362C5.35326 44.8609 5.79878 44.8609 6.07353 45.1362L18.9239 57.9865C19.1992 58.2617 19.1992 58.7068 18.9239 58.9805C18.7873 59.1193 18.6065 59.1875 18.4273 59.1875Z" fill="#ff0000"/>
<path fill-rule="evenodd" clip-rule="evenodd" d="M6.10629 33.8706C4.16745 33.8706 2.58917 32.2933 2.58917 30.355C2.58917 28.4163 4.16645 26.8379 6.10629 26.8379C8.04499 26.8379 9.62184 28.4153 9.62184 30.355C9.62227 32.2933 8.045 33.8706 6.10629 33.8706ZM6.10629 28.2445C4.94279 28.2445 3.99625 29.1915 3.99625 30.3546C3.99625 31.518 4.94322 32.4636 6.10629 32.4636C7.26966 32.4636 8.21533 31.5165 8.21533 30.3546C8.21533 29.1915 7.26966 28.2445 6.10629 28.2445Z" fill="#ff0000"/>
<path fill-rule="evenodd" clip-rule="evenodd" d="M57.4403 28.6663C55.1911 28.6663 53.3629 26.8374 53.3629 24.5888C53.3629 22.3396 55.1916 20.5098 57.4403 20.5098C59.689 20.5098 61.5193 22.3386 61.5193 24.5888C61.5207 26.8379 59.6894 28.6663 57.4403 28.6663ZM57.4403 21.9163C55.9665 21.9163 54.7678 23.1149 54.7678 24.5888C54.7678 26.0627 55.9665 27.2612 57.4403 27.2612C58.9142 27.2612 60.1128 26.0611 60.1128 24.5888C60.1122 23.1149 58.9136 21.9163 57.4403 21.9163Z" fill="#ff0000"/>
<path fill-rule="evenodd" clip-rule="evenodd" d="M7.16079 10.7828C4.18731 10.7828 1.76935 8.3648 1.76935 5.39133C1.76935 2.41799 4.18733 0 7.16079 0C10.1341 0 12.5522 2.41798 12.5522 5.39133C12.5522 8.36481 10.1341 10.7828 7.16079 10.7828ZM7.16079 1.40652C4.96407 1.40652 3.17583 3.19476 3.17583 5.39133C3.17583 7.58962 4.96407 9.37629 7.16079 9.37629C9.35736 9.37629 11.1456 7.58805 11.1456 5.39133C11.1456 3.19419 9.35736 1.40652 7.16079 1.40652Z" fill="#ff0000"/>
</g>
<defs>
<clipPath id="clip0_884_2137">
<rect width="62" height="62" rx="10" fill="white"/>
</clipPath>
</defs>
</svg>
