<svg width="62" height="62" viewBox="0 0 62 62" fill="none" xmlns="http://www.w3.org/2000/svg">
<path d="M35.6773 52.2673C22.8146 52.2673 11.1615 44.7169 5.1568 32.5281C10.9548 20.7871 22.6191 13.2379 35.7105 12.7889C39.6183 12.6543 45.5238 12.4515 49.1889 9.51975C49.6091 9.18433 49.6773 8.57103 49.3412 8.15129C49.0051 7.7308 48.3923 7.66223 47.972 7.99901C44.8113 10.5269 39.2944 10.7163 35.6441 10.842C21.6684 11.3215 9.23491 19.4699 3.19499 32.1083C3.06814 32.3739 3.06814 32.6822 3.19499 32.9479C9.46381 46.0664 21.9103 54.2154 35.6773 54.2154C36.2153 54.2154 36.6513 53.7791 36.6513 53.2414C36.6513 52.7037 36.2153 52.2673 35.6773 52.2673Z" fill="#ff0000"/>
<path d="M40.4437 22.8083C40.4498 22.6871 40.4345 22.5628 40.3923 22.441C39.5732 20.0787 38.4628 17.8135 37.0914 15.7087C36.9151 15.4385 36.6165 15.273 36.2939 15.2666L36.1123 15.2628C35.9677 15.2591 35.8227 15.2559 35.6773 15.2559C24.0358 15.2559 13.5057 21.7047 8.19678 32.0855C8.05443 32.3639 8.05443 32.6937 8.19678 32.9721C13.5055 43.3528 24.0354 49.8018 35.6773 49.8018C35.8276 49.8018 35.9772 49.7985 36.1269 49.7947L36.2941 49.7915C36.6166 49.7851 36.9152 49.6196 37.0915 49.3488C38.5463 47.1159 39.7059 44.7067 40.5373 42.189C40.5682 42.0955 40.5794 42.0012 40.5817 41.9076C42.1093 39.5956 43.0607 36.2523 43.0607 32.4622C43.0606 28.5581 42.053 25.1248 40.4437 22.8083ZM40.8046 32.4622C40.8046 36.8634 38.9179 39.9302 37.2247 39.9302C35.5315 39.9302 33.6444 36.8634 33.6444 32.4622C33.6444 28.0611 35.5315 24.9942 37.2247 24.9942C38.9179 24.9942 40.8046 28.0611 40.8046 32.4622ZM38.2954 23.2198C37.9496 23.1083 37.5922 23.046 37.2247 23.046C34.1246 23.046 31.6963 27.1821 31.6963 32.4622C31.6963 37.7424 34.1246 41.8784 37.2247 41.8784C37.5923 41.8784 37.9497 41.8162 38.2954 41.7047C37.4476 42.6706 36.4677 43.2407 35.4303 43.2407C32.3501 43.2407 29.7481 38.3049 29.7481 32.4622C29.7481 26.6196 32.3501 21.6838 35.4303 21.6838C36.4677 21.6838 37.4476 22.2538 38.2954 23.2198ZM35.7356 47.8536C35.7159 47.8536 35.6966 47.8536 35.6773 47.8536C24.9376 47.8536 15.2072 41.9945 10.1627 32.5288C15.2075 23.0625 24.9373 17.2041 35.6773 17.2041H35.7349C36.3287 18.1518 36.8648 19.133 37.3442 20.1397C36.7334 19.8852 36.0949 19.7357 35.4303 19.7357C31.1515 19.7357 27.7999 25.3259 27.7999 32.4622C27.7999 39.5985 31.1515 45.1888 35.4303 45.1888C36.1238 45.1888 36.7893 45.0279 37.4238 44.7514C36.9251 45.8167 36.3623 46.8533 35.7356 47.8536Z" fill="#ff0000"/>
<path d="M46.8124 41.9102L45.1499 40.8943C44.6907 40.6153 44.0914 40.7585 43.8108 41.2177C43.5301 41.6769 43.6748 42.2762 44.1338 42.557L45.7963 43.573C45.9548 43.6693 46.1302 43.7156 46.3033 43.7156C46.6314 43.7156 46.9517 43.55 47.1354 43.2495C47.416 42.7904 47.2715 42.1911 46.8124 41.9102Z" fill="#ff0000"/>
<path d="M56.556 47.8651L55.1235 46.99C54.6645 46.711 54.0644 46.8542 53.7844 47.3134C53.504 47.7726 53.649 48.3725 54.1082 48.6527L55.5407 49.5279C55.6992 49.6243 55.8743 49.6707 56.0474 49.6707C56.3756 49.6707 56.6962 49.5051 56.8798 49.2045C57.16 48.7452 57.0152 48.1453 56.556 47.8651Z" fill="#ff0000"/>
<path d="M51.7991 44.9591L50.137 43.9431C49.6782 43.6641 49.0786 43.8074 48.7979 44.2665C48.5173 44.7257 48.6619 45.3249 49.121 45.6059L50.7832 46.6218C50.9417 46.7181 51.1171 46.7645 51.2902 46.7645C51.6183 46.7645 51.9386 46.5991 52.1223 46.2984C52.4027 45.8392 52.2583 45.2401 51.7991 44.9591Z" fill="#ff0000"/>
<path d="M53.0187 38.1798L51.1878 37.5146C50.6828 37.3293 50.1234 37.5912 49.9399 38.0974C49.756 38.6034 50.0169 39.1622 50.5227 39.3461L52.3536 40.0113C52.4632 40.0513 52.5755 40.0696 52.6861 40.0696C53.084 40.0696 53.4579 39.8242 53.6015 39.4284C53.7854 38.9224 53.5244 38.3637 53.0187 38.1798Z" fill="#ff0000"/>
<path d="M58.2582 40.0855L56.6806 39.5121C56.1752 39.3282 55.6162 39.5888 55.4327 40.0949C55.2488 40.6009 55.5097 41.1597 56.0155 41.3436L57.593 41.9168C57.7028 41.9567 57.815 41.9751 57.9256 41.9751C58.3235 41.9751 58.6974 41.7297 58.8411 41.3339C59.0249 40.828 58.7638 40.2693 58.2582 40.0855Z" fill="#ff0000"/>
<path d="M47.526 36.1834L45.6952 35.5175C45.1885 35.3299 44.6308 35.5937 44.4469 36.0997C44.263 36.6051 44.5239 37.1645 45.0293 37.3478L46.8602 38.0137C46.9701 38.0542 47.0825 38.0726 47.1931 38.0726C47.591 38.0726 47.9646 37.8272 48.1085 37.4314C48.2924 36.9261 48.0315 36.3667 47.526 36.1834Z" fill="#ff0000"/>
<path d="M54.3869 18.8661C54.56 18.8661 54.7353 18.8199 54.8939 18.7234L56.5563 17.7075C57.0155 17.4265 57.16 16.8272 56.8794 16.3682C56.5984 15.909 55.9995 15.7656 55.5404 16.0448L53.8779 17.0607C53.4187 17.3416 53.2741 17.9408 53.5549 18.4C53.7384 18.7006 54.0587 18.8661 54.3869 18.8661Z" fill="#ff0000"/>
<path d="M49.4 21.9149C49.5731 21.9149 49.7484 21.8686 49.907 21.7722L51.5691 20.7562C52.0283 20.4754 52.1729 19.8761 51.8923 19.4169C51.6117 18.9579 51.012 18.8145 50.5532 19.0935L48.891 20.1094C48.4319 20.3904 48.2872 20.9897 48.568 21.4488C48.7516 21.7493 49.0719 21.9149 49.4 21.9149Z" fill="#ff0000"/>
<path d="M46.5824 23.8028C47.0416 23.5218 47.1861 22.9225 46.9055 22.4635C46.6247 22.0045 46.0256 21.8617 45.5665 22.1401L44.2933 22.9182C43.8342 23.1992 43.6897 23.7985 43.9703 24.2575C44.1539 24.5581 44.4741 24.7236 44.8024 24.7236C44.9755 24.7236 45.1509 24.6774 45.3094 24.5809L46.5824 23.8028Z" fill="#ff0000"/>
<path d="M55.1498 24.8455C55.2978 25.2337 55.6676 25.4721 56.0598 25.4721C56.1752 25.4721 56.2929 25.4518 56.4072 25.408L58.2271 24.7124C58.7296 24.5202 58.9811 23.9571 58.7889 23.4548C58.5977 22.9526 58.0352 22.7007 57.5314 22.8923L55.7116 23.5879C55.209 23.7801 54.9576 24.3432 55.1498 24.8455Z" fill="#ff0000"/>
<path d="M49.6909 26.9333C49.839 27.3214 50.2086 27.5598 50.6009 27.5598C50.7164 27.5598 50.8339 27.5396 50.9485 27.4958L52.7682 26.8002C53.2708 26.608 53.5223 26.0449 53.3302 25.5426C53.1386 25.0409 52.5768 24.7886 52.0726 24.9801L50.2529 25.6758C49.7502 25.8678 49.4987 26.4309 49.6909 26.9333Z" fill="#ff0000"/>
<path d="M45.5681 29.4848C45.6836 29.4848 45.8013 29.4645 45.9157 29.4209L47.3094 28.888C47.8119 28.6958 48.0634 28.1327 47.8716 27.6305C47.6797 27.1283 47.1181 26.8765 46.6137 27.0681L45.2201 27.6008C44.7175 27.793 44.466 28.3561 44.6579 28.8584C44.8063 29.2464 45.1759 29.4848 45.5681 29.4848Z" fill="#ff0000"/>
</svg>
