<svg width="30" height="30" viewBox="0 0 30 30" fill="none" xmlns="http://www.w3.org/2000/svg">
<g clip-path="url(#clip0_962_2504)">
<path d="M29.3255 25.874C26.8485 23.8022 23.611 22.3372 19.9509 21.6286C19.9747 20.4854 20.1609 19.4434 20.5381 18.3216C21.0917 16.6752 21.3411 15.3115 21.2807 14.2631L28.9881 6.55564C29.6349 5.90888 29.6349 4.8566 28.9881 4.20984C28.6758 3.89748 28.2593 3.7255 27.8152 3.7255C27.3711 3.7255 26.9546 3.89753 26.6423 4.20984L19.2501 11.6021C17.6587 11.258 15.6197 12.099 14.9999 12.3813C14.2172 12.0245 11.1837 10.7817 9.61124 12.1509C9.05911 12.6316 8.75759 13.3674 8.71487 14.3379C8.6694 15.3722 8.92048 16.7122 9.46118 18.3206C9.83864 19.4433 10.0251 20.4856 10.0487 21.6286C6.38864 22.3373 3.15022 23.8028 0.67411 25.8739C0.50038 26.0193 0.477353 26.2779 0.622665 26.4517C0.703817 26.5486 0.820184 26.5987 0.937489 26.5987C1.0303 26.5987 1.12364 26.5673 1.2004 26.5031C3.53366 24.5515 6.58464 23.1592 10.0417 22.4654C10.0184 23.6208 10.0385 25.1828 10.2371 26.5003C10.5017 28.2564 11.022 29.2235 11.8277 29.4567C11.8989 29.4772 11.9743 29.4782 12.046 29.4594C12.2223 29.413 13.7644 28.9056 13.6439 25.4104C13.6048 24.2775 13.8176 23.4292 14.2591 22.9573C14.5897 22.6041 14.9467 22.5695 14.9998 22.5663C15.0528 22.5695 15.4099 22.6041 15.7404 22.9573C16.1821 23.4292 16.3948 24.2775 16.3557 25.4104C16.2353 28.9056 17.7774 29.413 17.9536 29.4594C17.9879 29.4683 18.023 29.4728 18.0579 29.4728C18.0963 29.4728 18.1348 29.4674 18.172 29.4567C18.9776 29.2235 19.4978 28.2567 19.7625 26.5009C19.9612 25.1833 19.9812 23.621 19.958 22.4657C23.4149 23.1592 26.4651 24.5508 28.7992 26.5031C28.876 26.5673 28.9693 26.5986 29.0621 26.5986C29.1794 26.5986 29.2958 26.5486 29.377 26.4516C29.5222 26.278 29.4992 26.0193 29.3255 25.874ZM19.7372 13.9173L18.5062 15.1482C18.4431 15.2113 18.4024 15.2933 18.39 15.3817C18.3734 15.5009 18.3652 15.6969 18.3536 16.0053C18.3485 16.1414 18.3415 16.3289 18.3336 16.444L16.5071 18.2704C15.8935 18.8842 14.689 18.9644 14.014 18.7274L19.2807 13.4607L19.7372 13.9173ZM27.2224 4.78986C27.3798 4.63248 27.5903 4.54576 27.8152 4.54576C28.0401 4.54576 28.2507 4.63242 28.4081 4.78986C28.5655 4.94724 28.6521 5.15777 28.6521 5.38271C28.6521 5.60765 28.5654 5.81818 28.4081 5.97556L22.0058 12.3779L20.82 11.1922L27.2224 4.78986ZM20.24 11.7722L21.4257 12.9579L20.6818 13.7019L19.4961 12.5161L20.24 11.7722ZM18.0695 28.6121C17.7973 28.4302 17.0964 27.7356 17.1755 25.4388C17.2236 24.0441 16.9338 23.0118 16.3142 22.3704C15.7277 21.7633 15.0726 21.7458 14.9998 21.7458C14.9269 21.7458 14.2718 21.7633 13.6853 22.3704C13.0657 23.0118 12.7759 24.0441 12.824 25.4388C12.9033 27.7356 12.2024 28.4302 11.9301 28.6121C11.3232 28.239 10.7575 26.4068 10.8673 22.2438C10.9064 20.7591 10.7125 19.4685 10.2387 18.0592C9.32577 15.3438 9.29489 13.5148 10.1492 12.7702C11.281 11.7836 13.9024 12.7474 14.8168 13.2019C14.932 13.2593 15.0675 13.2593 15.1827 13.2019C15.2041 13.1913 17.0366 12.2887 18.5465 12.3391C18.4734 12.4917 18.4996 12.6798 18.626 12.8062L18.7006 12.8808L13.0655 18.5159C12.9886 18.5928 12.9453 18.6971 12.9453 18.8059C12.9453 18.9147 12.9885 19.019 13.0655 19.0959C13.4365 19.4669 14.1129 19.6687 14.8357 19.6687C15.6513 19.6687 16.5261 19.4116 17.0871 18.8505L19.0081 16.9295C19.1449 16.7927 19.1486 16.6919 19.1732 16.0362C19.1784 15.8989 19.1843 15.7389 19.1915 15.623L20.3171 14.4973L20.3917 14.572C20.415 14.5952 20.4409 14.615 20.4686 14.6318C20.461 15.5313 20.2243 16.6806 19.7605 18.0601C19.2869 19.4687 19.0931 20.7593 19.1323 22.2449C19.2419 26.4071 18.6763 28.2391 18.0695 28.6121ZM1.54604 3.29935C1.633 3.29935 1.72147 3.2881 1.80936 3.26455L2.19591 3.16095L2.7004 5.04386L1.63282 5.32992C1.37061 5.40017 1.15124 5.5688 1.01495 5.80482C0.878661 6.04089 0.842333 6.31523 0.912528 6.57744C1.03434 7.03201 1.44696 7.33253 1.89673 7.33253C1.98374 7.33253 2.07216 7.32128 2.16011 7.29773L2.46784 7.21529L4.47017 14.6876C4.64337 15.3338 5.14833 15.8036 5.75261 15.9645L5.98229 16.8217C6.03145 17.0049 6.19716 17.1258 6.37821 17.1257C6.41337 17.1257 6.44911 17.1211 6.48462 17.1117L6.55862 17.0919L7.40085 20.2351C7.45001 20.4183 7.61571 20.5392 7.79677 20.5392C7.83192 20.5392 7.86767 20.5346 7.90317 20.5251C8.12196 20.4665 8.25181 20.2416 8.19321 20.0228L7.35099 16.8796L7.42505 16.8597C7.53017 16.8316 7.6197 16.7628 7.67413 16.6686C7.7285 16.5744 7.74327 16.4624 7.71509 16.3573L7.48552 15.5006C7.92848 15.0591 8.13081 14.3994 7.95766 13.7532L5.95546 6.28078L6.26319 6.19834C6.5254 6.12808 6.74483 5.95939 6.88106 5.72337C7.01735 5.48736 7.05368 5.21296 6.98349 4.95076C6.91323 4.68861 6.74454 4.46918 6.50847 4.33289C6.27245 4.1966 5.99794 4.16033 5.73591 4.23052L4.66833 4.51658L4.16384 2.63367L4.55032 2.53007C4.81247 2.45982 5.0319 2.29113 5.16819 2.05511C5.30448 1.81904 5.34081 1.5447 5.27061 1.2825C5.12524 0.740034 4.56585 0.416714 4.02309 0.562202L1.28208 1.29668C1.01987 1.36693 0.800497 1.53556 0.664208 1.77158C0.527919 2.00765 0.491591 2.28199 0.561786 2.54419C0.683661 2.99876 1.09622 3.29935 1.54604 3.29935ZM6.81655 16.1735L6.66849 16.2132L6.60643 15.9816C6.63134 15.976 6.6563 15.9708 6.68114 15.9642C6.70599 15.9575 6.73036 15.95 6.75468 15.9425L6.81655 16.1735ZM5.33009 7.11644L4.55161 7.32503C4.33282 7.38363 4.20298 7.60857 4.26157 7.82736C4.31067 8.01058 4.47643 8.13146 4.65749 8.13146C4.69265 8.13146 4.72839 8.12689 4.7639 8.1174L5.54237 7.9088L5.65194 8.31773L5.31808 8.4072C5.09929 8.46586 4.9695 8.69074 5.02815 8.90958C5.07725 9.09281 5.24296 9.21363 5.42407 9.21363C5.45923 9.21363 5.49491 9.20906 5.53048 9.19957L5.86429 9.11009L5.97386 9.51902L5.19538 9.72761C4.97659 9.78621 4.84675 10.0111 4.90534 10.2299C4.95444 10.4132 5.1202 10.534 5.30126 10.534C5.33641 10.534 5.37216 10.5295 5.40766 10.52L6.18614 10.3114L6.29571 10.7204L5.9619 10.8098C5.74311 10.8684 5.61327 11.0933 5.67186 11.3121C5.72102 11.4953 5.88673 11.6162 6.06784 11.6162C6.10294 11.6162 6.13868 11.6116 6.17419 11.6021L6.508 11.5127L6.61757 11.9217L5.83915 12.1303C5.62036 12.1889 5.49052 12.4138 5.54911 12.6326C5.59827 12.8159 5.76397 12.9367 5.94503 12.9367C5.98018 12.9367 6.01593 12.9321 6.05143 12.9226L6.82991 12.714L6.93948 13.123L6.60561 13.2124C6.38683 13.271 6.25698 13.4959 6.31558 13.7147C6.36468 13.898 6.53044 14.0188 6.71149 14.0188C6.74665 14.0188 6.78239 14.0143 6.8179 14.0048L7.15177 13.9153L7.16518 13.9656C7.30575 14.4902 6.99327 15.0313 6.46874 15.1719C5.94397 15.3123 5.40298 15.0001 5.26241 14.4755L3.26032 7.00289L5.16309 6.49306L5.33009 7.11644ZM5.94825 5.02283C5.966 5.01808 5.98282 5.01615 5.99852 5.01615C6.04317 5.01615 6.07845 5.03185 6.09831 5.04328C6.12509 5.05875 6.17278 5.0949 6.19106 5.16304C6.20934 5.23125 6.18614 5.28632 6.17061 5.31316C6.15515 5.33994 6.11899 5.38763 6.05085 5.40591L1.94782 6.50531C1.84382 6.53314 1.73272 6.46886 1.70489 6.36503C1.68661 6.29689 1.70981 6.24175 1.72534 6.21492C1.74081 6.18814 1.77696 6.14044 1.84511 6.12216L5.94825 5.02283ZM3.87597 4.72886L3.49282 4.83152L2.98833 2.94861L3.37147 2.84595L3.87597 4.72886ZM1.3746 2.18173C1.39007 2.15496 1.42622 2.10726 1.49436 2.08898L4.23532 1.35451C4.25173 1.35011 4.26831 1.348 4.28483 1.348C4.37231 1.348 4.45481 1.40736 4.47825 1.49478C4.49653 1.56292 4.47327 1.61806 4.4578 1.6449C4.44227 1.67173 4.40618 1.71943 4.33804 1.73765L1.59714 2.47212C1.49325 2.49996 1.38198 2.43574 1.35421 2.33185C1.33587 2.26371 1.35913 2.20857 1.3746 2.18173Z" fill="#fc5e5e"/>
</g>
<defs>
<clipPath id="clip0_962_2504">
<rect width="30" height="30" fill="white"/>
</clipPath>
</defs>
</svg>
