<svg width="30" height="30" viewBox="0 0 30 30" fill="none" xmlns="http://www.w3.org/2000/svg">
<g clip-path="url(#clip0_962_2511)">
<path d="M5.68868 15.6524C5.65775 15.6523 5.62695 15.6483 5.59704 15.6405C3.52212 15.0824 1.74743 14.2811 0.464225 13.3251C0.389447 13.2693 0.339881 13.1861 0.326431 13.0938C0.312981 13.0015 0.336749 12.9077 0.392507 12.8329C0.448264 12.7581 0.531444 12.7085 0.623747 12.6951C0.71605 12.6816 0.809916 12.7054 0.884694 12.7612C2.09688 13.6654 3.78954 14.4252 5.77962 14.9612C5.86204 14.9833 5.93363 15.0346 5.98103 15.1055C6.02844 15.1765 6.04842 15.2622 6.03727 15.3468C6.02611 15.4314 5.98457 15.5091 5.92039 15.5653C5.85621 15.6215 5.774 15.6525 5.68868 15.6524Z" fill="#fc5e5e"/>
<path d="M15.5439 29.7666H2.94814C2.69178 29.7709 2.43772 29.7178 2.20451 29.6113C1.9713 29.5048 1.76485 29.3475 1.60024 29.1509C1.43422 28.947 1.32047 28.7057 1.26888 28.4479C1.21729 28.1901 1.22943 27.9236 1.30423 27.6715C2.23001 24.522 3.49118 20.2315 2.24384 19.2764C1.88806 19.0041 1.50509 18.7664 1.13501 18.5367C0.914698 18.4001 0.696729 18.2649 0.486026 18.124C0.409628 18.0717 0.356934 17.9914 0.339384 17.9005C0.321835 17.8096 0.340845 17.7155 0.392289 17.6385C0.443732 17.5616 0.523457 17.508 0.614156 17.4894C0.704854 17.4709 0.799206 17.4889 0.876729 17.5395C1.08087 17.6759 1.29228 17.8069 1.50556 17.9393C1.89017 18.1779 2.28814 18.4247 2.6711 18.7182C4.30189 19.9669 3.06954 24.1557 1.98392 27.8527C1.936 28.0063 1.92897 28.1698 1.96354 28.327C1.99811 28.4841 2.07307 28.6296 2.18103 28.7489C2.27586 28.8506 2.39103 28.9311 2.51903 28.9853C2.64704 29.0395 2.78502 29.0661 2.92399 29.0635H15.5439C15.743 29.0643 15.9372 29.0016 16.0982 28.8845C16.2592 28.7674 16.3787 28.602 16.4392 28.4124C16.7477 27.3935 17.4501 26.1516 17.7874 25.887C18.8092 25.0861 19.529 25.1771 20.3629 25.2832C20.8227 25.3526 21.2881 25.3779 21.7527 25.3589C23.1747 25.2797 24.2967 24.7835 24.9121 23.9618C25.4106 23.296 25.5555 22.4358 25.3307 21.4742C25.2719 21.2232 25.1997 20.9846 25.1299 20.7537C24.861 19.8645 24.6067 19.0245 25.3877 18.1777C25.9082 17.629 26.1522 17.1101 26.117 16.632C26.0855 16.297 25.9284 15.9864 25.6774 15.7624C25.6232 15.72 25.5827 15.6626 25.5608 15.5974C25.539 15.5321 25.5367 15.4619 25.5544 15.3954C25.5721 15.3289 25.6088 15.2691 25.6602 15.2233C25.7116 15.1775 25.7752 15.1478 25.8433 15.1378C26.275 15.0746 27.078 14.4516 27.2601 13.7534C27.3925 13.2457 27.1802 12.7732 26.6289 12.349C26.5919 12.3209 26.5609 12.2857 26.5377 12.2455C26.5146 12.2052 26.4997 12.1607 26.4939 12.1146C26.3767 11.1242 27.8228 10.4635 28.4481 10.2258C28.8231 10.0831 29.0399 9.89558 29.0892 9.66847C29.1562 9.3605 28.9251 8.95573 28.6823 8.70987C27.5419 7.54643 26.474 6.31403 25.4847 5.01964C25.2635 4.72656 25.121 4.38166 25.0711 4.01787C25.0211 3.65408 25.0652 3.28355 25.1992 2.94167C25.4938 2.15599 25.5943 1.31078 25.4922 0.477919C25.4852 0.385899 25.5146 0.294809 25.5742 0.224309C25.6337 0.153808 25.7186 0.109552 25.8105 0.101091C25.9024 0.0926302 25.9939 0.120644 26.0654 0.179086C26.1368 0.237528 26.1824 0.321711 26.1923 0.413465C26.3055 1.35943 26.1879 2.31876 25.8494 3.20932C25.7611 3.43919 25.7331 3.68787 25.7683 3.93161C25.8035 4.17534 25.9005 4.40599 26.0502 4.60151C27.0192 5.86934 28.0653 7.07638 29.1824 8.21581C29.5558 8.59362 29.9078 9.21307 29.7763 9.81776C29.706 10.1438 29.4609 10.5933 28.6982 10.8832C28.1764 11.0535 27.702 11.3444 27.3135 11.7321C27.2794 11.7764 27.2632 11.8319 27.2679 11.8876C27.2726 11.9433 27.298 11.9952 27.3391 12.0331C27.6057 12.2621 27.8031 12.561 27.9094 12.896C28.0156 13.231 28.0264 13.5891 27.9405 13.9299C27.8249 14.2969 27.6374 14.6372 27.3889 14.931C27.1403 15.2247 26.8358 15.466 26.493 15.6408C26.6801 15.9202 26.7921 16.2431 26.8183 16.5783C26.8689 17.2622 26.5605 17.9611 25.9017 18.656C25.4195 19.1792 25.5365 19.6639 25.8037 20.5482C25.8766 20.7898 25.9523 21.0392 26.016 21.3122C26.2895 22.4827 26.1027 23.5439 25.4756 24.3825C24.7335 25.3735 23.4255 25.9692 21.7926 26.0602C21.2854 26.0831 20.7772 26.0562 20.2752 25.98C19.4877 25.8799 19.0129 25.82 18.2219 26.4396C18.048 26.5828 17.4016 27.6617 17.1128 28.6153C17.008 28.9493 16.7993 29.2411 16.5171 29.4481C16.2349 29.6552 15.8939 29.7668 15.5439 29.7666Z" fill="#fc5e5e"/>
<path d="M25.1264 6.42017C24.9017 6.00127 24.6401 5.60321 24.3448 5.23072C24.0853 4.88267 23.7912 4.48822 23.7656 4.30329C23.7218 3.95997 23.7543 3.61121 23.8608 3.28189C23.9975 2.75304 24.0858 2.21284 24.1245 1.66798C24.1359 1.22691 24.0814 0.786603 23.963 0.361576C23.9408 0.271008 23.8835 0.192978 23.8037 0.144651C23.724 0.0963238 23.6283 0.0816582 23.5377 0.10388C23.4471 0.126103 23.3691 0.183392 23.3208 0.263147C23.2725 0.342901 23.2578 0.438587 23.28 0.529154C23.3786 0.882175 23.4269 1.24733 23.4235 1.61384C23.3873 2.12065 23.3051 2.62311 23.1778 3.11501C23.0494 3.52996 23.0124 3.96782 23.0693 4.39845C23.1195 4.76243 23.426 5.17376 23.7811 5.65001C24.0501 5.98784 24.289 6.3486 24.495 6.72814C24.5437 6.8332 24.5487 6.9533 24.509 7.06205C24.4692 7.17081 24.3879 7.25934 24.2829 7.30822C23.4765 7.7726 22.8684 8.51649 22.5736 9.39908C22.4879 9.63462 22.4509 9.88512 22.4649 10.1354C22.4789 10.3857 22.5435 10.6305 22.6549 10.855C22.9664 11.4262 23.295 12.6567 23.411 13.4749C18.2267 13.053 14.7614 12.5608 13.0985 12.0119C13.1309 11.5776 13.1984 11.1213 13.2659 10.6724C13.4747 9.28329 13.6908 7.84704 12.5895 7.44462C10.9451 6.84368 10.3034 8.16392 9.83463 9.12767C9.53275 9.74853 9.24869 10.3349 8.80877 10.4254C8.63463 10.461 8.55377 10.4038 8.33838 9.61728C8.257 9.28512 8.14722 8.96056 8.01025 8.6472C7.57268 7.71697 6.74603 7.34665 5.79986 7.65697C5.58585 7.72222 5.38937 7.83503 5.22511 7.98694C5.06086 8.13886 4.93308 8.32596 4.85135 8.53423C4.49111 9.43493 4.91135 10.631 5.18369 11.1377C6.09413 12.8832 6.84409 14.7078 7.42432 16.589C7.6151 17.1658 7.77986 17.6638 7.94721 18.089C8.61377 19.78 9.74486 20.7843 11.4045 21.1593C12.7601 21.5078 14.0961 21.9284 15.4069 22.4193C17.7115 23.2286 19.9233 24.0051 21.4828 24.0051C22.0012 24.0345 22.5157 23.9009 22.9542 23.6231C23.8376 22.9891 23.6248 22.2637 23.3995 21.4968C23.1488 20.6435 22.837 19.5843 23.4853 17.8694C23.4947 17.8448 23.5406 17.7105 23.5495 17.6802C23.9109 16.4731 24.1142 15.2242 24.1545 13.9647C24.1545 13.9291 24.1507 13.7685 24.1477 13.7303C24.0788 12.8568 23.6808 11.2673 23.2723 10.5194C23.144 10.2309 23.1343 9.90349 23.2453 9.6079C23.4823 8.90622 23.964 8.31333 24.6024 7.93775C24.7365 7.87258 24.8564 7.78162 24.9554 7.67006C25.0543 7.5585 25.1303 7.42853 25.179 7.28758C25.2276 7.14664 25.248 6.99749 25.239 6.84865C25.23 6.69981 25.1917 6.55421 25.1264 6.42017ZM20.1228 13.8801C20.5685 13.9257 21.0311 13.9708 21.5105 14.0153C21.458 14.3931 21.3933 14.7831 21.323 15.1572C20.8917 15.101 20.4342 15.0377 19.9636 14.9697C20.0295 14.5865 20.0869 14.2063 20.1228 13.8801ZM19.8389 15.6632C20.3046 15.7307 20.7586 15.7938 21.1878 15.8507C21.094 16.3085 21.0052 16.7027 20.9442 16.9635C20.6103 16.886 20.2645 16.8006 19.9031 16.7111L19.6428 16.646C19.6934 16.4043 19.7646 16.0553 19.8389 15.6632ZM17.8085 13.6155C18.3167 13.6803 18.8553 13.7438 19.4243 13.806C19.3899 14.1182 19.3329 14.4909 19.2685 14.8663C18.7491 14.7876 18.2227 14.7037 17.7052 14.617C17.7457 14.2696 17.7825 13.9225 17.8085 13.6155ZM17.6194 15.3166C18.124 15.401 18.6366 15.4827 19.1428 15.5596C19.0739 15.922 19.0076 16.2485 18.9593 16.4802C18.4971 16.3701 18.0117 16.2609 17.5074 16.1615C17.5364 15.9485 17.5765 15.6515 17.6194 15.3166ZM15.51 13.2775C15.9981 13.361 16.5319 13.4425 17.1113 13.5222C17.0878 13.8161 17.051 14.155 17.0112 14.4977C16.4651 14.402 15.9403 14.3041 15.4552 14.207C15.4718 13.8895 15.4906 13.5677 15.5096 13.2782L15.51 13.2775ZM15.4186 14.9156C15.8928 15.0093 16.4009 15.1045 16.9259 15.1968C16.8842 15.5238 16.8446 15.8181 16.815 16.0333C16.3305 15.9547 15.8518 15.8437 15.382 15.7012C15.39 15.5127 15.4027 15.235 15.4181 14.9163L15.4186 14.9156ZM14.8139 13.1514C14.7949 13.4327 14.7762 13.7465 14.7588 14.0615C14.246 13.9566 13.7391 13.8244 13.2403 13.6656C13.1887 13.4612 13.1477 13.2542 13.1175 13.0455C13.1028 12.948 13.0941 12.8465 13.0878 12.7431C13.6558 12.9082 14.2318 13.0447 14.8135 13.1521L14.8139 13.1514ZM14.7218 14.7714C14.7096 15.0192 14.6984 15.2463 14.6902 15.4333C14.2384 15.2368 13.8538 14.9127 13.5837 14.5007C13.9097 14.5891 14.295 14.68 14.7213 14.7721L14.7218 14.7714ZM22.5445 23.0505C21.4899 23.8085 18.3816 22.7172 15.6401 21.7549C14.304 21.2542 12.9419 20.8261 11.5596 20.4724C10.1248 20.1482 9.18447 19.3087 8.60135 17.8302C8.44127 17.4243 8.27932 16.9349 8.09182 16.3682C7.49937 14.4483 6.73332 12.5863 5.80314 10.8053C5.55869 10.3509 5.2615 9.40329 5.50432 8.79603C5.54785 8.68293 5.6171 8.5815 5.70659 8.49978C5.79608 8.41806 5.90336 8.35828 6.01994 8.32517C6.15578 8.27845 6.29818 8.25361 6.44182 8.25158C6.84494 8.25158 7.1583 8.48408 7.3758 8.94673C7.49562 9.22346 7.59167 9.50989 7.66291 9.8029C7.83541 10.4331 8.0726 11.2956 8.95338 11.1142C9.73127 10.9535 10.1067 10.1817 10.4696 9.43517C11.0016 8.34111 11.351 7.7404 12.3509 8.10509C12.8735 8.29611 12.7781 9.20431 12.5731 10.5679C12.483 11.1051 12.4204 11.6466 12.3856 12.1902C12.3792 12.2252 12.3782 12.2609 12.3825 12.2962C12.3702 12.5816 12.3833 12.8676 12.4217 13.1507C12.4636 13.4345 12.5263 13.7149 12.6092 13.9895C12.6149 14.0267 12.6267 14.0628 12.6441 14.0962C13.1463 15.6119 14.3013 16.3209 16.7388 16.7343C17.8235 16.9183 21.1908 17.7388 21.2236 17.7459C21.7105 17.8561 22.2036 17.9371 22.7002 17.9887C22.2971 19.1924 22.3062 20.496 22.7262 21.6939C22.9561 22.4807 23.0025 22.7219 22.5445 23.0505ZM22.9254 17.2994C22.4906 17.2651 22.0584 17.203 21.6314 17.1135C21.6959 16.8372 21.7896 16.4221 21.8892 15.9381C22.388 15.9986 22.837 16.0474 23.2135 16.0813C23.1326 16.4957 23.036 16.907 22.9254 17.2994ZM23.3281 15.3857C22.9627 15.3534 22.5188 15.3056 22.0224 15.2451C22.0927 14.8638 22.1588 14.466 22.212 14.0781C22.6118 14.1133 23.0231 14.1485 23.4436 14.182C23.4253 14.5849 23.3868 14.9867 23.3281 15.3857Z" fill="#fc5e5e"/>
</g>
<defs>
<clipPath id="clip0_962_2511">
<rect width="30" height="30" fill="white"/>
</clipPath>
</defs>
</svg>
