<svg width="30" height="30" viewBox="0 0 30 30" fill="none" xmlns="http://www.w3.org/2000/svg">
<g clip-path="url(#clip0_962_2523)">
<path d="M14.021 26.1181C14.3409 26.1255 14.6669 26.1297 14.9998 26.1297V25.162C14.6747 25.162 14.3558 25.1577 14.0432 25.1504L14.021 26.1181Z" fill="#fc5e5e"/>
<path d="M3.19531 24.0329C4.723 24.6909 8.03308 25.832 13.0402 26.0806L13.0884 25.1138C8.23343 24.8728 5.04621 23.7761 3.57853 23.1445L3.19531 24.0329Z" fill="#fc5e5e"/>
<path d="M28.0534 16.8271C27.9967 16.0781 27.376 15.4844 26.6129 15.4844H24.6774C24.3044 15.4844 23.9672 15.6299 23.7097 15.8617C23.4522 15.6294 23.115 15.4844 22.7419 15.4844H20.8065C20.3826 15.4844 20.0036 15.6701 19.7381 15.9609C19.4191 15.6677 18.9974 15.4844 18.5307 15.4844H16.308C15.7905 15.4844 15.327 15.7084 15 16.0602C14.6725 15.7084 14.2095 15.4844 13.692 15.4844H11.4693C11.0026 15.4844 10.5809 15.6677 10.2615 15.9609C9.99638 15.6701 9.61741 15.4844 9.19355 15.4844H7.25807C6.885 15.4844 6.54785 15.6299 6.29032 15.8617C6.03279 15.6294 5.69564 15.4844 5.32258 15.4844H3.3871C2.62396 15.4844 2.00329 16.0781 1.94659 16.8271L0.0876544 22.8693C0.0295331 23.0574 0 23.254 0 23.4512C0 24.3649 0.631537 25.1608 1.5121 25.3756C2.13773 25.7182 6.72387 28.065 15 28.065C23.2761 28.065 27.8623 25.7182 28.4879 25.3751C29.3685 25.1608 30 24.3649 30 23.4512C30 23.254 29.9705 23.0579 29.9123 22.8693L28.0534 16.8271ZM24.6774 16.4521H26.6129C26.8799 16.4521 27.0968 16.669 27.0968 16.936V18.8715C27.0968 19.6717 26.4454 20.3231 25.6452 20.3231C24.8449 20.3231 24.1936 19.6717 24.1936 18.8715V16.936C24.1936 16.669 24.4104 16.4521 24.6774 16.4521ZM20.3226 16.936C20.3226 16.669 20.5395 16.4521 20.8065 16.4521H22.7419C23.0089 16.4521 23.2258 16.669 23.2258 16.936V18.8715C23.2258 19.6717 22.5744 20.3231 21.7742 20.3231C20.974 20.3231 20.3226 19.6717 20.3226 18.8715V16.936ZM16.308 16.4521H18.5307C18.9851 16.4521 19.3548 16.8219 19.3548 17.2762C19.3548 17.3362 19.348 17.3967 19.335 17.4553L18.7131 20.2524C18.5778 20.8641 18.0455 21.2908 17.4194 21.2908C16.7933 21.2908 16.2609 20.8641 16.1256 20.2524L15.5037 17.4553C15.4907 17.3967 15.4839 17.3362 15.4839 17.2762C15.4839 16.8219 15.8536 16.4521 16.308 16.4521ZM11.4693 16.4521H13.692C14.1464 16.4521 14.5161 16.8219 14.5161 17.2762C14.5161 17.3362 14.5093 17.3967 14.4963 17.4553L13.8744 20.2524C13.7391 20.8641 13.2067 21.2908 12.5806 21.2908C11.9545 21.2908 11.4222 20.8641 11.2869 20.2524L10.665 17.4553C10.652 17.3967 10.6452 17.3362 10.6452 17.2762C10.6452 16.8219 11.0149 16.4521 11.4693 16.4521ZM7.25807 16.4521H9.19355C9.46053 16.4521 9.67742 16.669 9.67742 16.936V18.8715C9.67742 19.6717 9.02604 20.3231 8.22581 20.3231C7.42558 20.3231 6.77419 19.6717 6.77419 18.8715V16.936C6.77419 16.669 6.99109 16.4521 7.25807 16.4521ZM2.90323 16.936C2.90323 16.669 3.12012 16.4521 3.3871 16.4521H5.32258C5.58956 16.4521 5.80645 16.669 5.80645 16.936V18.8715C5.80645 19.6717 5.15507 20.3231 4.35484 20.3231C3.55461 20.3231 2.90323 19.6717 2.90323 18.8715V16.936ZM28.2183 24.4443L28.1406 24.4596L28.0709 24.4998C28.0262 24.526 23.4817 27.0973 15 27.0973C6.54431 27.0973 1.97329 24.5255 1.92816 24.4993L1.85846 24.4596L1.7812 24.4443C1.30985 24.3493 0.967742 23.9323 0.967742 23.4512C0.967742 23.3501 0.982627 23.2499 1.01263 23.1538L2.08315 19.6748C2.41605 20.613 3.30393 21.2908 4.35484 21.2908C5.14893 21.2908 5.84898 20.9008 6.29032 20.3082C6.73167 20.9008 7.43172 21.2908 8.22581 21.2908C9.09007 21.2908 9.84399 20.8315 10.2721 20.1485L10.3418 20.4625C10.5764 21.5202 11.4974 22.2586 12.5806 22.2586C13.6639 22.2586 14.5849 21.5202 14.8195 20.4625L15 19.6504L15.1805 20.4625C15.4151 21.5202 16.3361 22.2586 17.4194 22.2586C18.5026 22.2586 19.4236 21.5202 19.6582 20.4625L19.7279 20.1485C20.156 20.8315 20.9099 21.2908 21.7742 21.2908C22.5683 21.2908 23.2683 20.9008 23.7097 20.3082C24.151 20.9008 24.8511 21.2908 25.6452 21.2908C26.6961 21.2908 27.584 20.613 27.9169 19.6748L28.9874 23.1538C29.0174 23.2499 29.0323 23.3501 29.0323 23.4512C29.0323 23.9323 28.6901 24.3493 28.2183 24.4443Z" fill="#fc5e5e"/>
<path d="M15.9793 3.88314C15.6594 3.87487 15.3329 3.87109 15 3.87109V4.83884C15.3246 4.83884 15.6436 4.84262 15.9562 4.85041L15.9793 3.88314Z" fill="#fc5e5e"/>
<path d="M26.8048 5.96763C25.2771 5.30963 21.967 4.16847 16.9598 3.91992L16.9116 4.88625C21.7676 5.12818 24.9543 6.22445 26.4215 6.85646L26.8048 5.96763Z" fill="#fc5e5e"/>
<path d="M1.94659 13.1735C2.00329 13.9225 2.62396 14.5162 3.3871 14.5162H5.32258C5.69564 14.5162 6.03279 14.3707 6.29032 14.1389C6.54785 14.3711 6.885 14.5162 7.25807 14.5162H9.19355C9.61741 14.5162 9.99638 14.3305 10.2619 14.0396C10.5809 14.3329 11.0026 14.5162 11.4693 14.5162H13.692C14.2095 14.5162 14.673 14.2922 15 13.9404C15.3275 14.2922 15.7905 14.5162 16.308 14.5162H18.5307C18.9974 14.5162 19.4191 14.3329 19.7385 14.0396C20.0036 14.3305 20.3826 14.5162 20.8065 14.5162H22.7419C23.115 14.5162 23.4522 14.3707 23.7097 14.1389C23.9672 14.3711 24.3044 14.5162 24.6774 14.5162H26.6129C27.376 14.5162 27.9967 13.9225 28.0534 13.1735L29.9123 7.13173C29.9705 6.94366 30 6.74709 30 6.54933C30 5.63569 29.3685 4.83925 28.4879 4.62495C27.8623 4.28237 23.2761 1.93555 15 1.93555C6.72387 1.93555 2.13773 4.28237 1.5121 4.62543C0.631537 4.83925 0 5.63569 0 6.54933C0 6.74709 0.0295331 6.94319 0.0876544 7.13125L1.94659 13.1735ZM5.32258 13.5485H3.3871C3.12012 13.5485 2.90323 13.3311 2.90323 13.0646V11.1291C2.90323 10.3289 3.55461 9.67748 4.35484 9.67748C5.15507 9.67748 5.80645 10.3289 5.80645 11.1291V13.0646C5.80645 13.3311 5.58956 13.5485 5.32258 13.5485ZM9.67742 13.0646C9.67742 13.3311 9.46053 13.5485 9.19355 13.5485H7.25807C6.99109 13.5485 6.77419 13.3311 6.77419 13.0646V11.1291C6.77419 10.3289 7.42558 9.67748 8.22581 9.67748C9.02604 9.67748 9.67742 10.3289 9.67742 11.1291V13.0646ZM13.692 13.5485H11.4693C11.0149 13.5485 10.6452 13.1787 10.6452 12.7244C10.6452 12.6639 10.652 12.6039 10.665 12.5453L11.2869 9.74765C11.4222 9.13644 11.9545 8.70974 12.5806 8.70974C13.2067 8.70974 13.7391 9.13644 13.8744 9.74813L14.4968 12.5464C14.5093 12.6043 14.5161 12.6643 14.5161 12.7248C14.5161 13.1787 14.1464 13.5485 13.692 13.5485ZM18.5307 13.5485H16.308C15.8536 13.5485 15.4839 13.1787 15.4839 12.7244C15.4839 12.6639 15.4907 12.6039 15.5037 12.5453L16.1256 9.74765C16.2609 9.13644 16.7933 8.70974 17.4194 8.70974C18.0455 8.70974 18.5778 9.13644 18.7131 9.74813L19.3355 12.5464C19.348 12.6043 19.3548 12.6643 19.3548 12.7248C19.3548 13.1787 18.9851 13.5485 18.5307 13.5485ZM22.7419 13.5485H20.8065C20.5395 13.5485 20.3226 13.3311 20.3226 13.0646V11.1291C20.3226 10.3289 20.974 9.67748 21.7742 9.67748C22.5744 9.67748 23.2258 10.3289 23.2258 11.1291V13.0646C23.2258 13.3311 23.0089 13.5485 22.7419 13.5485ZM27.0968 13.0646C27.0968 13.3311 26.8799 13.5485 26.6129 13.5485H24.6774C24.4104 13.5485 24.1936 13.3311 24.1936 13.0646V11.1291C24.1936 10.3289 24.8449 9.67748 25.6452 9.67748C26.4454 9.67748 27.0968 10.3289 27.0968 11.1291V13.0646ZM1.78168 5.55631L1.85941 5.54095L1.9291 5.50079C1.97376 5.47503 6.51832 2.90329 15 2.90329C23.4557 2.90329 28.0267 5.47503 28.0718 5.50126L28.1415 5.54143L28.2188 5.55678C28.6901 5.65082 29.0323 6.0683 29.0323 6.54933C29.0323 6.65045 29.0174 6.75063 28.9874 6.84679L27.9169 10.3258C27.584 9.38759 26.6961 8.70974 25.6452 8.70974C24.8511 8.70974 24.151 9.09981 23.7097 9.69237C23.2683 9.09981 22.5683 8.70974 21.7742 8.70974C20.9099 8.70974 20.156 9.16904 19.7279 9.85208L19.6582 9.53809C19.4236 8.48033 18.5026 7.742 17.4194 7.742C16.3361 7.742 15.4151 8.48033 15.1805 9.53809L15 10.3506L14.8195 9.53809C14.5849 8.48033 13.6639 7.742 12.5806 7.742C11.4974 7.742 10.5764 8.48033 10.3418 9.53809L10.2721 9.85208C9.84399 9.16904 9.09007 8.70974 8.22581 8.70974C7.43172 8.70974 6.73167 9.09981 6.29032 9.69237C5.84898 9.09981 5.14893 8.70974 4.35484 8.70974C3.30393 8.70974 2.41652 9.38759 2.08315 10.3258L1.01263 6.84632C0.982627 6.75063 0.967742 6.65045 0.967742 6.54933C0.967742 6.0683 1.30985 5.65082 1.78168 5.55631Z" fill="#fc5e5e"/>
</g>
<defs>
<clipPath id="clip0_962_2523">
<rect width="30" height="30" fill="white"/>
</clipPath>
</defs>
</svg>
