<svg width="30" height="30" viewBox="0 0 30 30" fill="none" xmlns="http://www.w3.org/2000/svg">
<g clip-path="url(#clip0_962_2537)">
<path d="M0.439717 20.3081C0.494912 20.3081 0.550986 20.2976 0.605244 20.2755C1.37616 19.9617 2.15552 19.7508 2.92175 19.6487C3.16233 19.6166 3.33132 19.3955 3.29927 19.155C3.26716 18.9144 3.04644 18.7449 2.80562 18.7774C1.96562 18.8895 1.11378 19.1196 0.273897 19.4615C0.0491309 19.553 -0.0589745 19.8094 0.0325489 20.0342C0.101983 20.2047 0.266279 20.3081 0.439717 20.3081Z" fill="#fc5e5e"/>
<path d="M29.5603 28.9824H0.43945C0.196756 28.9824 0 29.1791 0 29.4219C0 29.6646 0.196756 29.8613 0.43945 29.8613H29.5603C29.803 29.8613 29.9998 29.6646 29.9998 29.4219C29.9998 29.1791 29.803 28.9824 29.5603 28.9824Z" fill="#fc5e5e"/>
<path d="M4.49246 19.2182C4.49978 19.4071 4.65634 19.6097 4.87759 19.6308C5.58604 19.7174 6.26813 19.9099 6.90504 20.203C7.08709 20.2982 8.97326 21.2592 11.8446 21.7545C13.8277 22.1077 16.236 22.15 18.4286 21.7414C19.9165 21.4705 21.4914 20.9897 23.0906 20.2048C25.0923 19.2064 27.6428 19.5359 29.3962 20.2761C29.6215 20.3667 29.8774 20.2576 29.9679 20.0324C30.0585 19.8072 29.9494 19.5512 29.7242 19.4607C28.7888 19.0844 27.6003 18.7438 26.2967 18.6961C26.2023 17.3342 25.6628 16.385 24.7444 15.959C25.2931 13.9802 24.7445 11.8176 23.2888 10.3431C23.1701 10.2228 23.0447 10.1065 22.9164 9.99749C22.7314 9.84046 22.4541 9.86301 22.297 10.0479C22.1399 10.2329 22.1625 10.5103 22.3475 10.6674C22.4563 10.7598 22.5625 10.8584 22.6634 10.9606C23.9082 12.2215 24.3709 14.0756 23.8861 15.7651C22.9276 15.8183 21.7588 16.7284 20.7112 17.5447C20.2618 17.8949 19.8373 18.2256 19.5455 18.3893C18.1239 19.1871 17.8562 20.3319 17.8252 20.9563C17.1292 21.0671 16.2715 21.1461 15.4646 21.159C15.4557 20.3544 15.152 18.8679 13.1301 18.347C12.667 18.2277 12.1058 18.0402 11.5116 17.8418C10.1789 17.3965 8.66846 16.8919 7.23187 16.7722C6.9532 16.7488 6.70277 16.7624 6.47795 16.8039L6.2151 16.0792C6.02022 15.5408 5.92143 14.9786 5.92143 14.4082C5.92143 13.1096 6.42393 11.8851 7.33628 10.9605C8.63026 9.64985 10.5265 9.17566 12.2847 9.72257L13.6371 10.1435C12.7583 10.4323 11.6998 10.7005 11.13 10.5828C10.8923 10.5338 10.6598 10.6867 10.6108 10.9244C10.5617 11.1621 10.7147 11.3945 10.9524 11.4436C11.0981 11.4737 11.2598 11.4872 11.4327 11.4872C12.784 11.4872 14.809 10.6636 15.148 10.5215L17.7149 9.72262C17.9853 9.63854 18.2614 9.57901 18.5406 9.54268C18.4375 9.86383 18.1788 10.2282 17.8029 10.4166C17.0716 10.7824 16.0803 11.5063 15.5104 12.8778C14.902 14.3417 15.0967 15.76 16.0584 16.8714C16.7085 17.6227 17.4832 17.9716 17.6383 18.0364C17.6392 18.0368 17.64 18.0371 17.6409 18.0375C17.6959 18.0604 17.753 18.0712 17.8092 18.0712C17.9815 18.0712 18.1449 17.9692 18.2152 17.8002C18.2718 17.664 18.2548 17.5156 18.1823 17.3991C18.1312 17.3083 17.1217 15.4649 17.7848 13.8175C17.9989 13.2856 18.3754 12.8818 18.9039 12.6175C19.7374 12.2006 20.3893 11.5067 20.7397 10.6637L21.8664 7.95264C22.4545 8.14705 23.2732 7.83018 23.5392 7.15876L24.1547 5.67775L26.6935 0.778417C26.8051 0.562911 26.7209 0.297776 26.5055 0.186097C26.2899 0.0744184 26.0248 0.158558 25.9131 0.374123L23.5519 4.93092L20.5467 3.68224L21.4971 0.710156C21.5711 0.479005 21.4436 0.231683 21.2124 0.157738C20.9814 0.0837934 20.7339 0.211292 20.66 0.442443L19.5932 3.77839L18.9765 5.26268C18.7024 5.9222 18.9789 6.67542 19.5939 7.00841L18.9208 8.62816C18.4237 8.64978 17.9314 8.73503 17.454 8.88345L15.0001 9.64727L12.546 8.88345C10.4727 8.23834 8.2368 8.79767 6.71098 10.3432C5.6352 11.4334 5.04271 12.8771 5.04271 14.4083C5.04271 15.0809 5.15919 15.7437 5.38894 16.3786L5.66075 17.1281C5.32319 17.3498 5.08607 17.641 4.92265 17.9125C4.565 18.5068 4.49668 19.1234 4.49398 19.1493C4.49357 19.1673 4.49023 19.1709 4.49246 19.2182ZM19.9756 19.1559C20.3252 18.9597 20.7544 18.6252 21.2514 18.238C22.1392 17.5461 23.48 16.5015 24.0841 16.6533C24.0861 16.6539 24.0882 16.6542 24.0903 16.6547C25.0418 16.9033 25.3486 17.8361 25.4169 18.7103C24.5388 18.7718 23.6248 18.9814 22.7127 19.4113C22.7106 19.4123 22.7085 19.4133 22.7064 19.4144C21.4313 20.0406 20.0976 20.5009 18.7242 20.7916C18.7968 20.3452 19.0659 19.6663 19.9756 19.1559ZM18.1769 17.3909C18.1675 17.3766 18.1574 17.3628 18.1463 17.3496C18.1594 17.3652 18.1695 17.3795 18.1769 17.3909ZM19.928 10.3265C19.6586 10.9746 19.1553 11.5091 18.5106 11.8316C17.7845 12.1947 17.266 12.7526 16.9694 13.4895C16.6203 14.3566 16.5884 15.3844 16.8767 16.4623C16.8247 16.4099 16.7732 16.3546 16.7229 16.2965C15.9904 15.4499 15.848 14.3557 16.3219 13.2151C16.788 12.0935 17.5983 11.5018 18.196 11.2028C18.6897 10.9558 19.0742 10.5488 19.2787 10.0567L20.4025 7.35241C20.5218 7.40198 20.95 7.57993 21.0518 7.62223L19.928 10.3265ZM22.7274 6.82161C22.6209 7.07802 22.3256 7.19983 22.0692 7.09337L20.0595 6.25818C19.8032 6.15166 19.6812 5.8564 19.7878 5.6L20.2417 4.50747L23.1814 5.72908L22.7274 6.82161ZM7.15886 17.6481C8.49022 17.7591 9.94743 18.2459 11.2331 18.6754C11.8424 18.8789 12.4178 19.0712 12.9109 19.1982C13.7502 19.4144 14.2822 19.8587 14.492 20.519C14.5663 20.7527 14.5883 20.9767 14.5901 21.1527C13.7398 21.1262 12.8829 21.0402 12.0259 20.8939C9.19721 20.4109 7.3241 19.4304 7.30587 19.4208C7.29861 19.4169 7.29134 19.4133 7.2839 19.4099C6.70646 19.1429 6.09622 18.9507 5.46493 18.8336C5.51368 18.6845 5.58487 18.5117 5.68846 18.3445C6.01301 17.8205 6.49406 17.593 7.15886 17.6481Z" fill="#fc5e5e"/>
<path d="M21.057 22.0596C18.8512 23.0128 16.797 22.8227 16.7679 22.82C16.5261 22.7956 16.311 22.9707 16.286 23.2121C16.2611 23.4535 16.4366 23.6694 16.678 23.6942C16.7058 23.6971 16.922 23.7181 17.2768 23.7181C18.1089 23.7181 19.702 23.6025 21.4056 22.8664C21.6283 22.77 21.7309 22.5114 21.6347 22.2887C21.5384 22.0659 21.2799 21.9633 21.057 22.0596Z" fill="#fc5e5e"/>
</g>
<defs>
<clipPath id="clip0_962_2537">
<rect width="30" height="30" fill="white"/>
</clipPath>
</defs>
</svg>
