<svg width="30" height="30" viewBox="0 0 30 30" fill="none" xmlns="http://www.w3.org/2000/svg">
<g clip-path="url(#clip0_962_2551)">
<path d="M10.2429 2.37174C10.1279 2.37174 10.013 2.32677 9.9268 2.23748C9.7584 2.06293 9.76343 1.78491 9.93798 1.61651L11.4863 0.123042C11.6608 -0.0452999 11.9389 -0.0402643 12.1072 0.134226C12.2756 0.308774 12.2706 0.586788 12.096 0.755188L10.5477 2.24866C10.4625 2.33081 10.3527 2.37174 10.2429 2.37174Z" fill="#fc5e5e"/>
<path d="M8.71934 13.97C8.93242 14.1758 9.20341 14.2833 9.48177 14.2833C9.62786 14.2833 9.776 14.2537 9.91882 14.1931C10.3322 14.0176 10.589 13.6293 10.589 13.1796V12.7492C10.7509 13.0376 10.8975 13.2545 10.9891 13.3814C11.0108 15.7378 11.5564 18.4163 13.039 18.4163C14.0216 18.4163 14.3451 17.1473 14.6304 16.0278C14.7232 15.6639 14.8678 15.0963 15.0001 14.8456C15.1323 15.0963 15.277 15.664 15.3696 16.0277C15.655 17.1473 15.9784 18.4163 16.9611 18.4163C18.4437 18.4163 18.9894 15.7378 19.0111 13.3814C19.1026 13.2545 19.2493 13.0374 19.4111 12.749V13.1796C19.4111 13.6293 19.6679 14.0176 20.0812 14.193C20.2241 14.2537 20.3722 14.2833 20.5183 14.2833C20.7967 14.2833 21.0677 14.1758 21.2808 13.97C22.1492 13.1314 23.2918 11.5529 23.8035 8.79527C24.1582 6.88484 23.5272 4.94203 22.1178 3.60027L18.5127 0.122998C18.3381 -0.0452852 18.0601 -0.0402496 17.8918 0.134182C17.7234 0.308731 17.7284 0.586744 17.903 0.755144L21.5102 4.23441C22.7057 5.37257 23.2403 7.01764 22.9401 8.63495C22.4706 11.1641 21.4469 12.5886 20.6707 13.3382C20.5727 13.4327 20.4658 13.402 20.4245 13.3845C20.3839 13.3673 20.2894 13.3128 20.2894 13.1795L20.2893 8.22964C20.2893 6.66169 19.6367 5.14357 18.499 4.06454L15.6247 1.33881L16.2316 0.758892C16.4069 0.591369 16.4132 0.313356 16.2456 0.137988C16.0781 -0.0373805 15.8001 -0.0437043 15.6247 0.123935L11.5011 4.06454C10.3633 5.14351 9.71078 6.66163 9.71078 8.22964L9.71072 13.1795C9.71072 13.3128 9.61627 13.3673 9.57563 13.3845C9.53424 13.4021 9.42743 13.4327 9.32942 13.3382C8.55323 12.5885 7.52947 11.1641 7.06005 8.63489C6.7599 7.01764 7.29444 5.37257 8.4921 4.23242L9.17343 3.57521C9.34798 3.40681 9.35301 3.12879 9.18461 2.95425C9.01621 2.77976 8.7382 2.77472 8.56371 2.94306L7.88443 3.59828C6.47293 4.94197 5.84196 6.88472 6.1965 8.79521C6.70837 11.5528 7.85093 13.1314 8.71934 13.97ZM18.2301 12.9595C18.1676 13.0374 18.1336 13.1343 18.1336 13.2342C18.1336 16.0053 17.4403 17.5379 16.9612 17.5379C16.8707 17.5379 16.7472 17.3868 16.6308 17.1337C16.4675 16.7785 16.3421 16.2865 16.2208 15.8108C15.9569 14.7751 15.7289 13.8807 15.0001 13.8807C14.2713 13.8807 14.0433 14.7751 13.7794 15.8108C13.6581 16.2866 13.5328 16.7785 13.3694 17.1337C13.2531 17.3868 13.1296 17.5379 13.0391 17.5379C12.5599 17.5379 11.8667 16.0053 11.8667 13.2342C11.8667 13.1349 11.8326 13.0378 11.7707 12.96C11.7589 12.9452 10.5891 11.4541 10.5891 9.60777C10.5891 8.31449 11.2976 7.44561 12.3522 7.44561C13.7417 7.44561 14.7547 8.07442 14.7636 8.0801C14.9078 8.17226 15.0924 8.17226 15.2366 8.0801C15.2466 8.07377 16.2455 7.44561 17.648 7.44561C18.7026 7.44561 19.4111 8.31449 19.4111 9.60777C19.4111 11.4542 18.2414 12.9453 18.2301 12.9595ZM12.1067 4.70073L14.9889 1.94642L17.8947 4.7019C18.5943 5.36531 19.0758 6.22512 19.288 7.15448C18.8497 6.77974 18.2887 6.5673 17.648 6.5673C16.4037 6.5673 15.429 6.98561 15.0001 7.20706C14.5711 6.98561 13.5964 6.5673 12.3521 6.5673C11.7114 6.5673 11.1505 6.77974 10.7122 7.15448C10.9244 6.22512 11.4063 5.36508 12.1067 4.70073Z" fill="#fc5e5e"/>
<path d="M29.3599 24.8982C29.2802 24.8488 29.1966 24.8092 29.1109 24.7785C29.5061 24.0746 29.9898 22.9456 29.9898 21.6362C29.9898 19.8461 28.9036 18.5958 27.3484 18.5958C26.1041 18.5958 25.1294 19.014 24.7005 19.2355C24.2716 19.014 23.2968 18.5958 22.0525 18.5958C20.4973 18.5958 19.4111 19.8461 19.4111 21.6362C19.4111 22.7815 19.7867 23.7949 20.144 24.5004C19.5481 24.445 18.9455 24.5571 18.3773 24.8391C15.9385 26.0501 14.0382 26.0501 11.5995 24.8391C11.0305 24.5566 10.4422 24.4436 9.85758 24.4973C10.2145 23.7918 10.589 22.7797 10.589 21.6361C10.589 19.846 9.50281 18.5957 7.94756 18.5957C6.7033 18.5957 5.72855 19.014 5.29965 19.2355C4.87074 19.014 3.896 18.5957 2.65173 18.5957C1.09648 18.5957 0.0103125 19.846 0.0103125 21.6361C0.0103125 22.9455 0.494083 24.0745 0.889262 24.7784C0.803423 24.8092 0.719866 24.8487 0.640175 24.8981C0.245757 25.1427 0.0102539 25.5734 0.0102539 26.0506V29.5615C0.0102539 29.8041 0.206877 30.0007 0.449407 30.0007C0.691936 30.0007 0.88856 29.8041 0.88856 29.5615V26.0506C0.88856 25.877 0.96667 25.7291 1.10292 25.6446C1.22823 25.5669 1.37614 25.5601 1.50847 25.6258C4.19298 26.9587 6.38295 26.9587 9.06746 25.6258C9.76794 25.278 10.5084 25.278 11.2088 25.6258C13.8932 26.9586 16.0833 26.9587 18.7679 25.6258C19.476 25.2741 20.2245 25.2742 20.9326 25.6258C23.6169 26.9587 25.807 26.9587 28.4915 25.6258C28.6239 25.5601 28.7717 25.5669 28.8971 25.6446C29.0333 25.729 29.1115 25.877 29.1115 26.0506V29.5421C29.1115 29.7847 29.308 29.9813 29.5506 29.9813C29.7932 29.9813 29.9898 29.7847 29.9898 29.5421V26.0506C29.9898 25.5735 29.7543 25.1427 29.3599 24.8982ZM1.99353 24.8848C1.73946 24.5273 0.88856 23.2119 0.88856 21.6362C0.88856 20.3429 1.59712 19.4741 2.65167 19.4741C4.04121 19.4741 5.05413 20.1028 5.06315 20.1085C5.20731 20.2007 5.39193 20.2007 5.53614 20.1085C5.54604 20.1022 6.54508 19.4741 7.94756 19.4741C9.00211 19.4741 9.71067 20.3429 9.71067 21.6362C9.71067 23.1882 8.89865 24.4709 8.61818 24.8676C6.23932 26.0338 4.36741 26.0394 1.99353 24.8848ZM21.3818 24.8675C21.1015 24.471 20.2894 23.1884 20.2894 21.6362C20.2894 20.3429 20.998 19.4741 22.0525 19.4741C23.442 19.4741 24.455 20.1028 24.464 20.1085C24.6074 20.2002 24.792 20.2 24.9359 20.1092C24.946 20.1029 25.9589 19.4741 27.3484 19.4741C28.403 19.4741 29.1115 20.3429 29.1115 21.6362C29.1115 23.2121 28.2605 24.5274 28.0065 24.8849C25.6327 26.0393 23.7608 26.0338 21.3818 24.8675Z" fill="#fc5e5e"/>
</g>
<defs>
<clipPath id="clip0_962_2551">
<rect width="30" height="30" fill="white"/>
</clipPath>
</defs>
</svg>
