<svg width="30" height="30" viewBox="0 0 30 30" fill="none" xmlns="http://www.w3.org/2000/svg">
<g clip-path="url(#clip0_962_2559)">
<path d="M14.2269 13.0408C14.1553 13.0408 14.0855 13.0191 14.0267 12.9784C13.9678 12.9377 13.9228 12.8801 13.8976 12.8131C13.8724 12.7462 13.8682 12.6732 13.8855 12.6038C13.9029 12.5344 13.941 12.472 13.9948 12.4248L14.3787 12.088C14.553 11.9356 14.777 11.8522 15.0085 11.8535C15.2401 11.8548 15.4631 11.9407 15.6357 12.0951L16.0081 12.4272C16.0751 12.49 16.1149 12.5765 16.1189 12.6683C16.123 12.76 16.0909 12.8497 16.0297 12.9181C15.9684 12.9866 15.8828 13.0283 15.7912 13.0345C15.6996 13.0406 15.6092 13.0107 15.5394 12.951L15.1683 12.6187C15.1238 12.5789 15.0663 12.5567 15.0066 12.5564C14.9469 12.556 14.8892 12.5775 14.8442 12.6168L14.4603 12.9536C14.3957 13.0102 14.3127 13.0412 14.2269 13.0408Z" fill="#fc5e5e"/>
<path d="M15 15.2713C14.9068 15.2713 14.8173 15.2343 14.7514 15.1684C14.6855 15.1024 14.6484 15.013 14.6484 14.9198V13.416C14.6484 13.3228 14.6855 13.2334 14.7514 13.1674C14.8173 13.1015 14.9068 13.0645 15 13.0645C15.0932 13.0645 15.1827 13.1015 15.2486 13.1674C15.3145 13.2334 15.3516 13.3228 15.3516 13.416V14.9198C15.3516 15.013 15.3145 15.1024 15.2486 15.1684C15.1827 15.2343 15.0932 15.2713 15 15.2713Z" fill="#fc5e5e"/>
<path d="M23.4019 12.2009C23.3304 12.201 23.2605 12.1793 23.2016 12.1386C23.1427 12.098 23.0977 12.0403 23.0724 11.9734C23.0472 11.9064 23.043 11.8334 23.0603 11.764C23.0777 11.6946 23.1158 11.6321 23.1696 11.585L23.5535 11.2482C23.7278 11.0958 23.9518 11.0124 24.1832 11.0137C24.4147 11.015 24.6377 11.1009 24.8103 11.2552L25.1813 11.5873C25.2169 11.6177 25.2461 11.655 25.2671 11.6968C25.2881 11.7387 25.3006 11.7844 25.3037 11.8311C25.3068 11.8778 25.3006 11.9247 25.2854 11.969C25.2701 12.0133 25.2462 12.0541 25.2149 12.0891C25.1837 12.124 25.1458 12.1523 25.1034 12.1723C25.0611 12.1924 25.0152 12.2038 24.9684 12.2058C24.9216 12.2079 24.8748 12.2006 24.8309 12.1843C24.7869 12.1681 24.7467 12.1432 24.7125 12.1111L24.3415 11.7788C24.2971 11.7391 24.2396 11.717 24.18 11.7166C24.1204 11.7163 24.0627 11.7377 24.0178 11.7769L23.6339 12.1137C23.5697 12.17 23.4873 12.201 23.4019 12.2009Z" fill="#fc5e5e"/>
<path d="M24.1743 14.4315C24.0811 14.4315 23.9917 14.3944 23.9257 14.3285C23.8598 14.2626 23.8228 14.1732 23.8228 14.0799V12.5762C23.8228 12.4829 23.8598 12.3935 23.9257 12.3276C23.9917 12.2616 24.0811 12.2246 24.1743 12.2246C24.2676 12.2246 24.357 12.2616 24.4229 12.3276C24.4888 12.3935 24.5259 12.4829 24.5259 12.5762V14.0799C24.5259 14.1732 24.4888 14.2626 24.4229 14.3285C24.357 14.3944 24.2676 14.4315 24.1743 14.4315Z" fill="#fc5e5e"/>
<path d="M5.05375 12.1912C4.98221 12.1913 4.91233 12.1696 4.85346 12.1289C4.79458 12.0883 4.74952 12.0306 4.72427 11.9637C4.69903 11.8967 4.69481 11.8237 4.71218 11.7543C4.72955 11.6849 4.76768 11.6224 4.82149 11.5752L5.20539 11.2384C5.3796 11.0861 5.60347 11.0027 5.83488 11.0039C6.06629 11.0051 6.28927 11.0909 6.46188 11.245L6.83313 11.5778C6.86922 11.6081 6.89886 11.6453 6.92028 11.6873C6.9417 11.7293 6.95446 11.7751 6.95782 11.8221C6.96117 11.8691 6.95504 11.9163 6.9398 11.9609C6.92455 12.0055 6.9005 12.0465 6.86908 12.0816C6.83765 12.1167 6.79949 12.1452 6.75686 12.1652C6.71423 12.1853 6.668 12.1966 6.62092 12.1984C6.57384 12.2003 6.52687 12.1926 6.4828 12.176C6.43873 12.1593 6.39846 12.134 6.36438 12.1014L5.99289 11.7688C5.94845 11.729 5.89094 11.7068 5.83125 11.7065C5.77156 11.7062 5.71383 11.7278 5.66899 11.7672L5.28531 12.104C5.22124 12.1602 5.13895 12.1911 5.05375 12.1912Z" fill="#fc5e5e"/>
<path d="M5.82617 14.4198C5.73293 14.4198 5.64351 14.3827 5.57758 14.3168C5.51165 14.2509 5.47461 14.1614 5.47461 14.0682V12.5645C5.47461 12.4712 5.51165 12.3818 5.57758 12.3159C5.64351 12.2499 5.73293 12.2129 5.82617 12.2129C5.91941 12.2129 6.00883 12.2499 6.07476 12.3159C6.14069 12.3818 6.17773 12.4712 6.17773 12.5645V14.0682C6.17773 14.1614 6.14069 14.2509 6.07476 14.3168C6.00883 14.3827 5.91941 14.4198 5.82617 14.4198Z" fill="#fc5e5e"/>
<path d="M28.2588 0.224609H1.75635C1.35246 0.225106 0.965259 0.385769 0.679667 0.671362C0.394074 0.956954 0.23341 1.34416 0.232914 1.74805V3.15781C0.232033 3.63773 0.3833 4.10558 0.664981 4.49414C0.946661 4.88269 1.34426 5.17197 1.80065 5.32039C2.66276 5.51742 3.54097 5.6358 4.42448 5.67406L4.61198 7.41828C4.63453 7.63246 4.73565 7.83068 4.89581 7.97465C5.05597 8.11862 5.26381 8.19813 5.47916 8.19781H6.17455C6.38991 8.19813 6.59775 8.11862 6.75791 7.97465C6.91807 7.83068 7.01919 7.63246 7.04174 7.41828L7.21213 5.82734C9.20432 5.90656 11.4705 5.94805 13.6049 5.96047L13.7861 7.65266C13.8087 7.86681 13.9099 8.065 14.07 8.20896C14.2302 8.35292 14.438 8.43245 14.6533 8.43219H15.3482C15.5636 8.43261 15.7715 8.35313 15.9317 8.20914C16.0919 8.06515 16.193 7.86687 16.2154 7.65266L16.3966 5.96047C18.5308 5.94828 20.7974 5.9068 22.7892 5.82758L22.9596 7.41828C22.9821 7.63246 23.0832 7.83068 23.2434 7.97465C23.4036 8.11862 23.6114 8.19813 23.8267 8.19781H24.5221C24.7375 8.19812 24.9454 8.11858 25.1056 7.97456C25.2657 7.83054 25.3668 7.63226 25.3893 7.41805L25.5768 5.67523C26.4654 5.63704 27.3487 5.51827 28.2159 5.32039C28.6723 5.1719 29.0699 4.88254 29.3515 4.49389C29.6332 4.10524 29.7844 3.63731 29.7834 3.15734V1.74805C29.7829 1.34396 29.6221 0.956574 29.3362 0.670948C29.0504 0.385322 28.6629 0.224795 28.2588 0.224609ZM6.34213 7.34375C6.33773 7.38531 6.31811 7.42378 6.28704 7.45174C6.25597 7.47969 6.21565 7.49516 6.17385 7.49516H5.47846C5.4367 7.49516 5.39641 7.47973 5.36535 7.45182C5.33428 7.42391 5.31463 7.38551 5.31018 7.34398L5.13674 5.72352C5.5694 5.7507 6.02737 5.77531 6.50784 5.79758L6.34213 7.34375ZM15.516 7.57813C15.5117 7.61969 15.4921 7.65816 15.461 7.68608C15.4299 7.71401 15.3895 7.72941 15.3478 7.7293H14.6528C14.611 7.7293 14.5707 7.71383 14.5397 7.68587C14.5086 7.65792 14.489 7.61945 14.4846 7.57789L14.3116 5.96375H15.0002C15.0002 5.96375 15.4572 5.96375 15.689 5.96375L15.516 7.57813ZM24.6902 7.34375C24.6858 7.38531 24.6662 7.42378 24.6351 7.45174C24.604 7.47969 24.5637 7.49516 24.5219 7.49516H23.8265C23.7847 7.49516 23.7444 7.47969 23.7133 7.45174C23.6823 7.42378 23.6626 7.38531 23.6582 7.34375L23.4928 5.79805C23.9725 5.77602 24.4303 5.75117 24.8634 5.72422L24.6902 7.34375ZM29.0791 3.15781C29.0809 3.48791 28.9781 3.81008 28.7853 4.07807C28.5926 4.34606 28.3199 4.54607 28.0064 4.64938C26.8249 5.0157 21.5981 5.26203 15.0002 5.26203C8.41119 5.26203 3.19026 5.0157 2.00877 4.64938C1.69526 4.54607 1.42254 4.34606 1.22981 4.07807C1.03707 3.81008 0.934223 3.48791 0.936039 3.15781V1.74805C0.936039 1.53049 1.02246 1.32184 1.1763 1.168C1.33014 1.01416 1.53879 0.927734 1.75635 0.927734H28.2588C28.4763 0.927734 28.685 1.01416 28.8388 1.168C28.9927 1.32184 29.0791 1.53049 29.0791 1.74805V3.15781Z" fill="#fc5e5e"/>
<path d="M28.4978 17.4501C26.4588 15.2952 20.1602 16.8939 16.6696 18.4077C16.1425 18.6354 15.5744 18.7528 15.0002 18.7528C14.426 18.7528 13.8579 18.6354 13.3307 18.4077C9.84018 16.8939 3.54206 15.2955 1.50253 17.4501C-0.0136457 19.0523 -0.113021 21.9278 1.24964 24.3255C1.20721 25.4561 1.3619 26.6969 1.50745 27.0442C1.80159 27.7525 3.43518 28.0975 4.44065 28.0975C4.53909 28.0975 4.6319 28.0942 4.71651 28.0877C4.91167 28.0766 5.10402 28.036 5.28698 27.9672C5.87292 28.578 7.45987 28.8363 8.52135 28.8363C8.66573 28.8363 8.80026 28.8313 8.92143 28.8222C9.20455 28.8094 9.4834 28.7484 9.74596 28.6417C9.95019 28.9191 10.2537 29.1068 10.593 29.1658C11.3992 29.3105 12.2168 29.3815 13.0359 29.3781C13.3992 29.3781 13.7568 29.3643 14.0948 29.3364C14.4271 29.3161 14.7443 29.1902 15.0002 28.9771C15.256 29.1905 15.5733 29.3167 15.9058 29.3373C16.244 29.3652 16.6014 29.3791 16.9649 29.3791C17.784 29.3825 18.6017 29.3114 19.4078 29.1667C19.7472 29.1078 20.0506 28.92 20.2549 28.6427C20.5174 28.7493 20.7963 28.8104 21.0794 28.8231C21.2006 28.8323 21.3351 28.8372 21.4795 28.8372C22.5414 28.8372 24.1279 28.5794 24.7139 27.9681C24.8968 28.037 25.0892 28.0776 25.2843 28.0886C25.3689 28.0952 25.4615 28.0984 25.5602 28.0984C26.5657 28.0984 28.1992 27.7534 28.4934 27.0452C28.638 26.6969 28.7927 25.4561 28.7512 24.3264C30.1134 21.9278 30.014 19.0523 28.4978 17.4501ZM3.20878 27.247C2.49065 27.0777 2.18878 26.856 2.15526 26.7752C1.95112 26.283 1.79034 23.6629 2.20214 22.9565C2.4801 22.4814 3.03628 22.5304 3.26268 22.5735C3.66672 22.6666 4.03746 22.8688 4.33448 23.1581C4.63151 23.4474 4.84342 23.8127 4.94714 24.2141C4.97481 24.3332 4.98139 24.4561 4.96659 24.5774C4.8676 25.4913 4.87996 26.4139 5.00339 27.3248C4.7737 27.4113 4.07362 27.4509 3.20948 27.2474L3.20878 27.247ZM7.3544 28.0382C6.2662 27.8615 5.80753 27.5573 5.7562 27.4375C5.51971 26.8881 5.53964 23.9144 6.03745 22.9694C6.22495 22.615 6.79706 22.4713 7.46315 22.6129C8.36596 22.8044 9.30885 23.4967 9.44479 24.6206C9.45253 24.692 9.45323 24.7641 9.4469 24.8357C9.38253 25.8327 9.38669 26.8329 9.45932 27.8294C9.46354 27.8861 9.47409 27.9391 9.48276 27.9934C9.26174 28.1134 8.4576 28.2175 7.3551 28.0387L7.3544 28.0382ZM14.5263 28.4563C14.3899 28.5748 14.2147 28.6389 14.0341 28.6363C12.9277 28.7223 11.815 28.6683 10.7221 28.4756C10.5604 28.4455 10.4147 28.3586 10.3113 28.2306C10.2079 28.1026 10.1536 27.9418 10.1582 27.7773C10.1182 27.2383 10.0078 25.3614 10.2663 23.8633C10.313 23.4972 10.494 23.1615 10.7742 22.9213C11.0544 22.6812 11.4138 22.5536 11.7827 22.5634C12.3682 22.5574 12.939 22.7468 13.4048 23.1017C13.8706 23.4566 14.2047 23.9567 14.3542 24.5228C14.7478 26.1984 14.7018 28.0762 14.5279 28.4568L14.5263 28.4563ZM19.8382 27.7766C19.8427 27.9411 19.7884 28.1018 19.685 28.2297C19.5816 28.3577 19.436 28.4445 19.2742 28.4746C18.1814 28.6676 17.0685 28.7216 15.9621 28.6352C15.7814 28.6379 15.6062 28.5738 15.4699 28.4552C15.2962 28.0748 15.2503 26.197 15.6414 24.5228C15.7883 23.9672 16.1129 23.4749 16.5657 23.1209C17.0185 22.767 17.5746 22.5709 18.1492 22.5625H18.2118C18.5807 22.5527 18.9401 22.6802 19.2203 22.9204C19.5005 23.1606 19.6815 23.4963 19.7282 23.8623C19.9903 25.3619 19.8799 27.2385 19.8398 27.7781L19.8382 27.7766ZM24.2416 27.4366C24.1903 27.5563 23.7318 27.8606 22.6436 28.0373C21.5421 28.2163 20.7372 28.112 20.5162 27.992C20.5916 26.9403 20.6034 25.8849 20.5516 24.8317C20.5457 24.7615 20.5465 24.6909 20.5539 24.6208C20.6892 23.4958 21.6321 22.8032 22.5358 22.6117C23.2028 22.4711 23.7754 22.6136 23.9615 22.9682C24.46 23.9148 24.4799 26.8886 24.2432 27.438L24.2416 27.4366ZM27.8428 26.7742C27.8092 26.8551 27.5074 27.0768 26.7881 27.246C25.9232 27.4497 25.2236 27.4101 24.9925 27.3248C25.116 26.4139 25.1283 25.4913 25.0293 24.5774C25.0145 24.4561 25.0211 24.3332 25.0488 24.2141C25.1525 23.8127 25.3644 23.4474 25.6614 23.1581C25.9585 22.8688 26.3292 22.6666 26.7332 22.5735C26.9592 22.5309 27.5158 22.4814 27.7938 22.9565C28.2093 23.6634 28.0485 26.2839 27.8439 26.7756L27.8428 26.7742ZM28.4017 22.6005C28.0523 22.0031 27.3806 21.7333 26.6029 21.8819C25.8539 22.043 25.1975 22.4903 24.7734 23.1283C24.726 22.9603 24.6626 22.7972 24.584 22.6413C24.2442 21.9948 23.3824 21.7131 22.3898 21.9241C21.5437 22.0994 20.7977 22.5942 20.3071 23.3055C20.156 22.8783 19.8748 22.5092 19.503 22.25C19.1313 21.9909 18.6877 21.8548 18.2346 21.8608C17.5124 21.8499 16.8064 22.0742 16.2229 22.4998C15.6395 22.9254 15.2103 23.5293 15.0002 24.2202C14.791 23.5285 14.3618 22.9239 13.7778 22.4983C13.1937 22.0727 12.4867 21.8494 11.7642 21.8622C11.3111 21.8562 10.8674 21.9923 10.4957 22.2514C10.1239 22.5106 9.84273 22.8797 9.69159 23.3069C9.20093 22.5956 8.45501 22.1009 7.60893 21.9255C6.61612 21.7145 5.75456 21.9958 5.41471 22.6427C5.33613 22.7986 5.27271 22.9617 5.22534 23.1297C4.80124 22.4917 4.14478 22.0444 3.39581 21.8833C2.61909 21.7354 1.94643 22.0042 1.59674 22.6021C1.5205 22.7395 1.46161 22.8859 1.42143 23.0378C0.712448 21.152 0.914245 19.0959 2.01346 17.9334C3.53292 16.3272 8.92612 17.264 13.0511 19.0527C13.6665 19.3185 14.3298 19.4556 15.0002 19.4556C15.6705 19.4556 16.3338 19.3185 16.9492 19.0527C21.0742 17.264 26.4677 16.3272 27.9869 17.9334C29.0871 19.0959 29.2879 21.152 28.5789 23.0378C28.5388 22.8858 28.4798 22.7393 28.4034 22.6019L28.4017 22.6005Z" fill="#fc5e5e"/>
</g>
<defs>
<clipPath id="clip0_962_2559">
<rect width="30" height="30" fill="white"/>
</clipPath>
</defs>
</svg>
