<svg width="50" height="50" viewBox="0 0 50 50" fill="none" xmlns="http://www.w3.org/2000/svg">
<path d="M30.4688 48.4375H22.6562C22.225 48.4375 21.875 48.0875 21.875 47.6562C21.875 47.225 22.225 46.875 22.6562 46.875H30.4688C39.5156 46.875 46.875 37.0625 46.875 25C46.875 12.9375 39.5156 3.125 30.4688 3.125H22.6562C22.225 3.125 21.875 2.775 21.875 2.34375C21.875 1.9125 22.225 1.5625 22.6562 1.5625H30.4688C40.3766 1.5625 48.4375 12.0766 48.4375 25C48.4375 37.9234 40.3766 48.4375 30.4688 48.4375Z" fill="#fc5e5e"/>
<path d="M22.6562 48.4375C18.6203 48.4375 14.8109 46.7391 11.6375 43.525C11.3344 43.2188 11.3375 42.7234 11.6438 42.4203C11.95 42.1172 12.4453 42.1203 12.7484 42.4281C15.6219 45.3375 19.0469 46.875 22.6562 46.875C31.7031 46.875 39.0625 37.0625 39.0625 25C39.0625 12.9375 31.7031 3.125 22.6562 3.125C13.6094 3.125 6.25 12.9375 6.25 25C6.25 25.7625 6.27969 26.5156 6.3375 27.2563C6.37031 27.6859 6.04688 28.0625 5.61719 28.0953C5.18906 28.1281 4.81094 27.8047 4.77813 27.3766C4.72031 26.5953 4.6875 25.8016 4.6875 25C4.6875 12.0766 12.7484 1.5625 22.6562 1.5625C32.5641 1.5625 40.625 12.0766 40.625 25C40.625 37.9234 32.5641 48.4375 22.6562 48.4375Z" fill="#fc5e5e"/>
<path d="M22.6562 43.75C22.225 43.75 21.875 43.4 21.875 42.9688C21.875 42.5375 22.225 42.1875 22.6562 42.1875C29.1187 42.1875 34.375 34.4766 34.375 25C34.375 15.5234 29.1187 7.8125 22.6562 7.8125C16.1937 7.8125 10.9375 15.5234 10.9375 25C10.9375 25.7625 10.9703 26.5125 11.0359 27.2484C11.0734 27.6781 10.7563 28.0578 10.3266 28.0953C9.92813 28.1359 9.51719 27.8172 9.47969 27.3859C9.40937 26.5969 9.375 25.7953 9.375 25C9.375 14.6609 15.3328 6.25 22.6562 6.25C29.9797 6.25 35.9375 14.6609 35.9375 25C35.9375 35.3391 29.9797 43.75 22.6562 43.75Z" fill="#fc5e5e"/>
<path d="M22.6562 43.75H2.34375C1.9125 43.75 1.5625 43.4 1.5625 42.9688C1.5625 42.5375 1.9125 42.1875 2.34375 42.1875H22.6562C23.0875 42.1875 23.4375 42.5375 23.4375 42.9688C23.4375 43.4 23.0875 43.75 22.6562 43.75Z" fill="#fc5e5e"/>
<path d="M25 39.1875C22.4156 39.1875 20.3125 37.0844 20.3125 34.5C20.3125 31.9156 22.4156 29.8125 25 29.8125C27.5844 29.8125 29.6875 31.9156 29.6875 34.5C29.6875 37.0844 27.5844 39.1875 25 39.1875ZM25 31.375C23.2766 31.375 21.875 32.7766 21.875 34.5C21.875 36.2234 23.2766 37.625 25 37.625C26.7234 37.625 28.125 36.2234 28.125 34.5C28.125 32.7766 26.7234 31.375 25 31.375Z" fill="#fc5e5e"/>
<path d="M13.2812 40.625H2.34375C1.9125 40.625 1.5625 40.275 1.5625 39.8438C1.5625 39.4125 1.9125 39.0625 2.34375 39.0625H13.2812C14.3219 39.0625 15.3031 38.6562 16.0422 37.9172C16.7812 37.1781 17.1875 36.1969 17.1875 35.1562C17.1875 33.0031 15.4359 31.25 13.2812 31.25H2.34375C1.9125 31.25 1.5625 30.9 1.5625 30.4688C1.5625 30.0375 1.9125 29.6875 2.34375 29.6875H13.2812C16.2969 29.6875 18.75 32.1406 18.75 35.1562C18.75 36.6141 18.1812 37.9875 17.1469 39.0219C16.1125 40.0563 14.7406 40.625 13.2812 40.625Z" fill="#fc5e5e"/>
<path d="M44.5309 3.125H44.373C43.9418 3.125 43.5918 2.775 43.5918 2.34375C43.5918 1.9125 43.9418 1.5625 44.373 1.5625H44.5309C44.9621 1.5625 45.3121 1.9125 45.3121 2.34375C45.3121 2.775 44.9621 3.125 44.5309 3.125Z" fill="#fc5e5e"/>
<path d="M41.4059 3.125H41.248C40.8168 3.125 40.4668 2.775 40.4668 2.34375C40.4668 1.9125 40.8168 1.5625 41.248 1.5625H41.4059C41.8371 1.5625 42.1871 1.9125 42.1871 2.34375C42.1871 2.775 41.8371 3.125 41.4059 3.125Z" fill="#fc5e5e"/>
<path d="M47.6559 3.125H47.498C47.0668 3.125 46.7168 2.775 46.7168 2.34375C46.7168 1.9125 47.0668 1.5625 47.498 1.5625H47.6559C48.0871 1.5625 48.4371 1.9125 48.4371 2.34375C48.4371 2.775 48.0871 3.125 47.6559 3.125Z" fill="#fc5e5e"/>
</svg>
