<svg width="50" height="50" viewBox="0 0 50 50" fill="none" xmlns="http://www.w3.org/2000/svg">
<g clip-path="url(#clip0_962_2803)">
<path d="M6.09354 11.6955C6.01492 11.7223 5.93504 11.7351 5.85643 11.7351C5.55193 11.7351 5.26756 11.5437 5.16346 11.2395L5.05564 10.9248C4.58719 9.55713 4.14461 8.26533 3.82254 7.0334C2.90682 3.5291 2.95652 0.828612 2.95906 0.715428C2.96814 0.311229 3.30613 -0.00634892 3.70731 9.63901e-05C4.1115 0.00898311 4.43201 0.343846 4.42352 0.748046C4.42303 0.773925 4.37898 3.36914 5.23973 6.66289C5.54803 7.84209 5.98201 9.10898 6.44139 10.4502L6.5493 10.7654C6.68035 11.148 6.47625 11.5645 6.09354 11.6955Z" fill="#ff0000"/>
<path d="M2.24258 31.2345C2.56827 30.5843 2.91368 29.9357 3.27921 29.2492C4.3253 27.2846 5.51104 25.0577 6.60264 22.0565C7.29239 20.1588 7.16837 17.8156 6.2005 14.459C6.08848 14.0703 6.3126 13.6644 6.70137 13.5524C7.08985 13.4401 7.496 13.6645 7.60801 14.0531C8.3211 16.5263 9.00772 19.7278 7.9793 22.5571C6.85255 25.6554 5.64102 27.9305 4.57217 29.9378C4.21104 30.6161 3.86983 31.2568 3.55225 31.8908C2.26358 34.4621 1.46485 36.7444 1.46485 40.1719C1.46485 43.8756 2.78809 46.3069 4.38673 48.88C4.6002 49.2236 4.49473 49.6752 4.15108 49.8887C4.03077 49.9634 3.89717 49.999 3.76524 49.999C3.52042 49.999 3.28106 49.8763 3.14239 49.653C1.48643 46.9875 5.72205e-06 44.2566 5.72205e-06 40.1719C5.72205e-06 36.4683 0.896586 33.9204 2.24258 31.2345Z" fill="#ff0000"/>
<path d="M8.65684 27.5986C8.92666 26.7245 9.13633 25.9337 9.29786 25.1812C10.1465 21.2337 11.5377 18.0893 13.433 15.8351C15.1764 13.7616 17.286 12.4894 19.7034 12.0539C22.2347 11.5978 24.9511 12.1041 27.559 13.5181C30.0207 14.8526 32.2542 16.9623 33.8479 19.4585C34.0656 19.7994 33.9657 20.2523 33.6248 20.4699C33.2839 20.6877 32.8309 20.5877 32.6134 20.2468C31.151 17.9564 29.1081 16.024 26.8609 14.8058C24.5487 13.5522 22.1633 13.0992 19.9632 13.4954C17.8914 13.8687 16.0717 14.973 14.5543 16.7776C14.2243 17.1701 13.9108 17.594 13.6137 18.048C13.6397 18.5623 13.7979 20.0074 14.742 20.9714C15.3727 21.6153 16.2666 21.9418 17.3989 21.9418C20.2299 21.9418 21.4157 22.9054 22.0874 24.0732C22.3034 23.1278 22.7835 22.2366 23.5118 21.5078L26.3494 18.6712C26.7669 18.253 27.3224 18.0227 27.9136 18.0227C28.5045 18.0227 29.0601 18.2527 29.4779 18.6707C29.8962 19.089 30.1266 19.6446 30.1266 20.2353C30.1266 20.8268 29.8959 21.3823 29.4781 21.7987L27.3852 23.8926C27.2442 24.0333 27.1666 24.2206 27.1666 24.42C27.1666 24.6196 27.2444 24.8074 27.3856 24.9486L29.8863 27.4493C30.3376 27.9006 30.7026 28.4229 30.9688 28.9924C32.152 28.0602 33.5178 27.3499 35.0027 26.9247C34.866 25.6541 34.5594 24.3907 34.087 23.161C33.942 22.7834 34.1305 22.3598 34.5081 22.2148C34.8858 22.0696 35.3095 22.2581 35.4545 22.6357C35.9528 23.9331 36.2833 25.2662 36.4416 26.6093C36.8934 26.5398 37.3537 26.497 37.8207 26.4807C37.6209 23.9618 36.876 21.53 35.6445 19.4058C34.2898 17.069 32.3419 15.093 30.011 13.6911C29.793 13.56 29.6586 13.325 29.6562 13.0706C29.6537 12.8162 29.7835 12.5786 29.999 12.4433C31.9675 11.2071 32.645 10.0543 32.3379 8.46446C31.8216 5.79405 28.4009 3.25723 25.4784 1.34541C25.1399 1.12393 25.045 0.670024 25.2665 0.331547C25.4881 -0.00692916 25.942 -0.101851 26.2804 0.119536C29.4442 2.18926 33.1556 4.97667 33.7762 8.18643C34.2269 10.519 33.0091 12.032 31.7052 13.042C33.8327 14.5133 35.6195 16.4417 36.912 18.6711C38.2781 21.0276 39.0951 23.7283 39.2935 26.5196C42.116 26.7678 44.7185 28.0079 46.7097 30.0758C46.9902 30.3671 46.9815 30.8308 46.6901 31.1113C46.3988 31.3919 45.9353 31.383 45.6546 31.0918C43.6958 29.0576 41.0614 27.9373 38.2369 27.9373C32.5581 27.9373 27.9382 32.5573 27.9382 38.236C27.9382 43.9147 32.5576 48.5352 38.2364 48.5352C43.9152 48.5352 48.5352 43.9151 48.5352 38.2364C48.5352 36.641 48.1811 35.1135 47.4826 33.6959C47.3038 33.333 47.4531 32.894 47.816 32.7152C48.1789 32.5363 48.6179 32.6857 48.7967 33.0485C49.5952 34.6691 50 36.4147 50 38.2364C50 44.723 44.7229 50 38.2364 50C34.5987 50 31.3417 48.3401 29.1821 45.7382C28.1426 46.3158 27.0658 46.7731 25.9695 47.099L24.8223 49.5754C24.6983 49.8428 24.4338 50.0002 24.1572 50.0002C24.0542 50.0002 23.9495 49.9783 23.8498 49.9321C23.4828 49.7621 23.323 49.3268 23.4932 48.9598L24.7815 46.1789C24.8724 45.9828 25.045 45.8369 25.2535 45.7801C26.2944 45.4964 27.3195 45.0802 28.3112 44.5443C28.1019 44.216 27.9085 43.8765 27.7318 43.5272C24.8439 45.2249 21.4186 46.0915 17.6425 46.0913C16.3259 46.0913 14.966 45.986 13.5725 45.7739C11.3257 45.4314 9.63301 44.3738 8.54141 42.631C7.33565 40.7057 6.89112 37.9726 7.22012 34.5076C7.47705 31.801 8.14326 29.2561 8.65684 27.5986ZM29.8088 30.0383C29.6153 29.4565 29.2897 28.9248 28.8504 28.4855L26.3497 25.9848C25.9317 25.5668 25.7016 25.0111 25.7016 24.4203C25.7016 23.8291 25.9319 23.2736 26.3495 22.8567L28.4428 20.7624C28.5838 20.622 28.6614 20.4348 28.6614 20.2356C28.6614 20.0361 28.5835 19.8483 28.4418 19.7067C28.3006 19.5655 28.1128 19.4878 27.9132 19.4878C27.7138 19.4878 27.5265 19.5654 27.3852 19.7068L24.5474 22.5439C23.3457 23.7462 23.0784 25.56 23.8824 27.0569L24.7298 28.6354C24.8826 28.92 24.8309 29.2712 24.6024 29.4996L22.3661 31.7369C22.1908 31.9124 21.9386 31.987 21.6962 31.9356C21.4536 31.8843 21.2535 31.7136 21.1646 31.482C20.618 30.0611 19.228 29.1065 17.706 29.1065H15.4528C15.2529 29.1065 15.0654 29.1842 14.924 29.3261C14.7831 29.4669 14.7055 29.6544 14.7055 29.8538C14.7055 30.2659 15.0407 30.6011 15.4527 30.6011H17.7061C18.9259 30.6011 19.9182 31.5935 19.9182 32.8132V33.8815C19.9182 34.076 19.8409 34.2624 19.7033 34.3998L19.6678 34.4353C19.3816 34.7212 18.9182 34.7209 18.6323 34.435C17.8175 33.62 16.7347 33.1815 15.581 33.2055C14.4296 33.2274 13.3635 33.706 12.5788 34.553C11.0966 36.1522 11.0966 38.6573 12.5788 40.2565C13.364 41.1036 14.4305 41.5821 15.5819 41.604C16.7343 41.6288 17.8176 41.1893 18.6323 40.3746C18.8193 40.1875 18.9895 39.9816 19.1377 39.7626C19.283 39.548 19.4081 39.321 19.5096 39.0879C19.6607 38.7401 20.0524 38.5658 20.4122 38.6851C22.1996 39.2792 24.1373 38.8214 25.4688 37.49L26.628 36.3308C27.0248 33.905 28.1659 31.7267 29.8088 30.0383ZM9.78271 41.8533C10.6497 43.2378 11.9615 44.0465 13.793 44.3257C18.92 45.1058 23.5225 44.3591 27.1494 42.1683C26.7454 41.0324 26.5106 39.8171 26.4772 38.5523C24.904 40.1073 22.6889 40.73 20.5625 40.2462C20.496 40.361 20.4253 40.4737 20.3507 40.5839C20.1505 40.8796 19.9209 41.1576 19.6683 41.4104C18.5957 42.4829 17.1781 43.0696 15.6655 43.0696C15.6286 43.0696 15.5914 43.0692 15.5543 43.0686C14.0012 43.0391 12.563 42.394 11.5047 41.2522C9.50499 39.0946 9.50499 35.7146 11.5046 33.5572C12.3212 32.6758 13.3644 32.0903 14.5123 31.8555C13.7617 31.5014 13.241 30.7371 13.241 29.8535C13.241 29.2628 13.471 28.7075 13.8877 28.2908C14.3051 27.872 14.861 27.6414 15.4531 27.6414H17.7061C19.4641 27.6414 21.0957 28.5541 22.0382 29.9929L23.0141 29.0166C22.0953 28.0884 21.7116 27.0392 21.368 26.0942C20.7793 24.4759 20.3904 23.4067 17.3987 23.4067C15.8522 23.4067 14.6029 22.9288 13.6856 21.9864C13.1026 21.3875 12.7407 20.6822 12.5148 20.0234C11.7722 21.5935 11.1749 23.4195 10.7301 25.4888C10.5595 26.2836 10.3392 27.1149 10.0564 28.0314C9.65254 29.335 8.93643 31.9276 8.67832 34.6459C8.38047 37.7826 8.75205 40.2075 9.78271 41.8533Z" fill="#ff0000"/>
<path d="M38.2358 39.4909C38.0204 39.4909 37.8159 39.3961 37.6768 39.2317C36.053 37.3133 35.2637 35.8893 35.2637 34.8783C35.2637 33.2395 36.597 31.9062 38.2358 31.9062C39.8747 31.9062 41.208 33.2395 41.208 34.8783C41.208 35.8893 40.4187 37.3132 38.7949 39.2317C38.6558 39.3961 38.4513 39.4909 38.2358 39.4909ZM38.2358 33.371C37.4047 33.371 36.7285 34.0472 36.7285 34.8783C36.7285 35.0805 36.8472 35.8312 38.2358 37.6008C39.6245 35.8312 39.7432 35.0806 39.7432 34.8783C39.7432 34.0472 39.067 33.371 38.2358 33.371Z" fill="#ff0000"/>
<path d="M43.6948 44.8467L42.8812 45.8476C42.6453 46.1376 42.3106 46.3161 41.9386 46.3503C41.5669 46.3842 41.2055 46.27 40.9211 46.028C40.3749 45.5633 39.359 44.6765 38.2363 43.5846C37.1149 44.6754 36.0983 45.5629 35.5515 46.028V46.0281C35.3 46.242 34.9885 46.3562 34.6627 46.3562C34.62 46.3562 34.5772 46.3542 34.5341 46.3503C34.1621 46.3161 33.8274 46.1376 33.5914 45.8476L32.7777 44.8468C32.3019 44.2617 32.3783 43.4202 32.9518 42.9311C33.4714 42.4878 34.434 41.6456 35.476 40.6293C33.5999 38.3616 32.6863 36.4762 32.6863 34.8781C32.6863 31.8179 35.1761 29.3281 38.2363 29.3281C41.2966 29.3281 43.7863 31.8179 43.7863 34.8781C43.7863 36.4761 42.8725 38.362 40.9966 40.6293C42.0383 41.6453 43.0008 42.4874 43.5206 42.9309C44.0939 43.4202 44.1704 44.2617 43.6948 44.8467ZM39.4799 41.189C39.2093 40.9167 39.1947 40.4816 39.4466 40.192C41.3542 37.9981 42.3214 36.2104 42.3214 34.8781C42.3214 32.6256 40.4888 30.793 38.2362 30.793C35.9837 30.793 34.1511 32.6256 34.1511 34.8781C34.1511 36.2103 35.1183 37.998 37.0258 40.192C37.2777 40.4816 37.2632 40.9167 36.9925 41.1889C35.781 42.4076 34.6021 43.4465 33.9682 43.9894L34.671 44.8538C35.3034 44.3134 36.4814 43.2773 37.7177 42.0383C37.8551 41.9006 38.0416 41.8231 38.2362 41.8231C38.4308 41.8231 38.6173 41.9006 38.7548 42.0383C39.9926 43.2789 41.1695 44.3141 41.8014 44.8537L42.5042 43.9892C41.8702 43.4464 40.6912 42.4074 39.4799 41.189Z" fill="#ff0000"/>
</g>
<defs>
<clipPath id="clip0_962_2803">
<rect width="50" height="50" fill="white" transform="matrix(-1 0 0 1 50 0)"/>
</clipPath>
</defs>
</svg>
