<svg width="50" height="50" viewBox="0 0 50 50" fill="none" xmlns="http://www.w3.org/2000/svg">
<path d="M48.1833 33.1994C47.9543 32.9633 47.6346 32.8278 47.3059 32.8278H43.7334C44.0019 31.6513 44.1462 30.4281 44.1462 29.1714C44.1462 25.3326 42.7948 21.5964 40.341 18.6509C40.0821 18.34 39.6202 18.298 39.3094 18.5569C38.9987 18.8158 38.9566 19.2776 39.2155 19.5884C41.2941 22.0835 42.5036 25.2019 42.6627 28.439H28.4313V14.2068C31.5141 14.3531 34.4181 15.4229 36.8702 17.324C37.1896 17.5718 37.6499 17.5137 37.8977 17.1939C38.1456 16.8743 38.0874 16.4142 37.7677 16.1663C34.8631 13.9143 31.3814 12.7239 27.6989 12.7239C26.3836 12.7239 25.1049 12.8815 23.8783 13.1747V10.4704C25.1132 10.2181 26.3904 10.083 27.6989 10.083C38.2242 10.083 46.7872 18.646 46.7872 29.1713C46.7872 29.5758 47.115 29.9037 47.5196 29.9037C47.9242 29.9037 48.252 29.5758 48.252 29.1713C48.252 17.8383 39.0319 8.61817 27.6989 8.61817C26.3934 8.61817 25.1168 8.74277 23.8783 8.97676V6.34766C23.8783 5.94316 23.5504 5.61523 23.1459 5.61523C22.7413 5.61523 22.4134 5.94316 22.4134 6.34766V25.8864H2.93726V1.46484H22.4134V2.92969C22.4134 3.33418 22.7413 3.66211 23.1459 3.66211C23.5504 3.66211 23.8783 3.33418 23.8783 2.92969V1.2207C23.8783 0.547559 23.3307 0 22.6576 0H2.69312C2.01997 0 1.47241 0.547559 1.47241 1.2207V26.1306C1.47241 26.8037 2.01997 27.3513 2.69312 27.3513H7.22739C7.17427 27.9512 7.14565 28.5579 7.14565 29.1714C7.14565 40.5044 16.3658 49.7245 27.6989 49.7245C28.1035 49.7245 28.4313 49.3966 28.4313 48.9921C28.4313 48.5876 28.1035 48.2597 27.6989 48.2597C17.1736 48.2597 8.6105 39.6967 8.6105 29.1714C8.6105 28.5573 8.64165 27.9506 8.69888 27.3513H11.3525C11.2862 27.949 11.2513 28.5562 11.2513 29.1714C11.2513 38.2405 18.6296 45.6188 27.6988 45.6188C28.9554 45.6188 30.1787 45.4744 31.3551 45.206V48.7784C31.3551 49.1072 31.4907 49.4271 31.7269 49.656C31.9538 49.8758 32.2615 49.9999 32.5763 49.9999C32.5888 49.9999 32.6014 49.9997 32.614 49.9993C36.3365 49.8822 39.9459 48.483 42.7771 46.0594C43.0844 45.7963 43.1204 45.334 42.8572 45.0267C42.5942 44.7194 42.1318 44.6835 41.8246 44.9466C39.3096 47.0994 36.1211 48.3648 32.82 48.5252V34.2927H47.0527C46.9082 37.3037 45.8755 40.1609 44.0586 42.5709C43.8151 42.8939 43.8795 43.3531 44.2025 43.5967C44.5255 43.84 44.9848 43.7758 45.2283 43.4527C47.279 40.7328 48.4197 37.4941 48.5268 34.0864C48.5371 33.7585 48.4119 33.4352 48.1833 33.1994ZM26.9665 29.1714V44.1358C19.0439 43.7525 12.7163 37.1872 12.7163 29.1714C12.7163 28.5553 12.7544 27.948 12.8271 27.3513H22.6575C23.3306 27.3513 23.8782 26.8037 23.8782 26.1306V14.6855C24.8715 14.423 25.9042 14.2583 26.9664 14.2069V29.1714H26.9665ZM32.5759 32.8278C31.9028 32.8278 31.3552 33.3754 31.3552 34.0485V43.6997C30.4124 43.9374 29.435 44.0872 28.4313 44.1358V29.9038H42.6633C42.6148 30.9076 42.4649 31.885 42.2272 32.8278H32.5759Z" fill="#ff0000"/>
<path d="M19.5302 7.4307C18.9777 6.4602 18.1026 5.80522 17.066 5.58647C15.8054 5.32045 14.4369 5.70131 13.2224 6.61752C13.2511 5.81527 13.5261 5.21244 14.0413 4.82621C14.3648 4.58354 14.4304 4.12436 14.1878 3.80082C13.9452 3.47719 13.4859 3.41166 13.1624 3.65434C12.3341 4.27563 11.8567 5.20961 11.77 6.36693C10.6488 5.63481 9.42293 5.34643 8.28484 5.58656C7.24822 5.80531 6.37312 6.46029 5.82068 7.4308C5.02947 8.82094 4.94177 10.6942 5.57996 12.5702C6.09871 14.0951 7.04021 15.4375 8.23084 16.3503C9.22009 17.1087 10.2932 17.5053 11.3243 17.5053C11.5953 17.5053 11.8636 17.4779 12.1265 17.4224C12.3134 17.383 12.497 17.3287 12.6756 17.2601C12.8542 17.3288 13.0378 17.383 13.2245 17.4224C14.4877 17.689 15.871 17.3082 17.1203 16.3503C18.3108 15.4375 19.2523 14.0951 19.7712 12.5702C20.4091 10.6941 20.3214 8.82094 19.5302 7.4307ZM18.3841 12.0983C17.5383 14.5843 15.3138 16.3658 13.5267 15.989C13.3464 15.9509 13.1706 15.8893 13.0042 15.8057C12.7972 15.7018 12.5535 15.7018 12.3466 15.8057C12.1803 15.8892 12.0045 15.9509 11.8239 15.989C10.0376 16.3663 7.81248 14.5845 6.96668 12.0983C6.47068 10.6405 6.51814 9.16645 7.09373 8.15531C7.4409 7.54535 7.9574 7.15268 8.58728 7.01977C8.74627 6.98617 8.91013 6.96977 9.07732 6.96977C10.0842 6.96977 11.2111 7.56606 12.1245 8.60873C12.2636 8.76752 12.4643 8.85854 12.6755 8.85854C12.8866 8.85854 13.0874 8.76752 13.2264 8.60873C14.2917 7.39291 15.6473 6.78393 16.7636 7.01977C17.3935 7.15268 17.91 7.54535 18.2572 8.15531C18.8326 9.16645 18.8801 10.6405 18.3841 12.0983Z" fill="#ff0000"/>
<path d="M19.2414 19.4492H12.2108C11.8062 19.4492 11.4784 19.7771 11.4784 20.1816C11.4784 20.5861 11.8062 20.9141 12.2108 20.9141H19.2414C19.646 20.9141 19.9738 20.5861 19.9738 20.1816C19.9738 19.7771 19.646 19.4492 19.2414 19.4492Z" fill="#ff0000"/>
<path d="M6.11792 20.9141H9.86665C10.2712 20.9141 10.5991 20.5861 10.5991 20.1816C10.5991 19.7771 10.2712 19.4492 9.86665 19.4492H6.11792C5.71333 19.4492 5.3855 19.7771 5.3855 20.1816C5.3855 20.5861 5.71343 20.9141 6.11792 20.9141Z" fill="#ff0000"/>
<path d="M6.11792 23.8438H19.241C19.6456 23.8438 19.9734 23.5158 19.9734 23.1113C19.9734 22.7068 19.6456 22.3789 19.241 22.3789H6.11792C5.71333 22.3789 5.3855 22.7068 5.3855 23.1113C5.3855 23.5158 5.71343 23.8438 6.11792 23.8438Z" fill="#ff0000"/>
<path d="M23.6366 29.9375H16.996C16.5914 29.9375 16.2635 30.2654 16.2635 30.6699C16.2635 31.0744 16.5914 31.4023 16.996 31.4023H23.6366C24.0412 31.4023 24.369 31.0744 24.369 30.6699C24.369 30.2654 24.0412 29.9375 23.6366 29.9375Z" fill="#ff0000"/>
<path d="M23.6366 32.5742H16.996C16.5914 32.5742 16.2635 32.9021 16.2635 33.3066C16.2635 33.7111 16.5914 34.0391 16.996 34.0391H23.6366C24.0412 34.0391 24.369 33.7111 24.369 33.3066C24.369 32.9021 24.0412 32.5742 23.6366 32.5742Z" fill="#ff0000"/>
<path d="M23.6366 35.2109H20.121C19.7164 35.2109 19.3885 35.5389 19.3885 35.9434C19.3885 36.3479 19.7164 36.6758 20.121 36.6758H23.6366C24.0412 36.6758 24.369 36.3479 24.369 35.9434C24.369 35.5389 24.0412 35.2109 23.6366 35.2109Z" fill="#ff0000"/>
</svg>
