<svg width="50" height="50" viewBox="0 0 50 50" fill="none" xmlns="http://www.w3.org/2000/svg">
<path d="M48.9414 22.5039C48.6406 19.2236 46.6904 16.9111 43.7246 16.3193C40.6104 15.6973 36.6543 16.8613 33.1641 17.8887C32.3506 18.1279 31.5791 18.3555 30.8574 18.5469C33.2529 16.7568 34.8066 13.8994 34.8066 10.6865C34.8076 5.27832 30.4082 0.878906 25 0.878906C19.5918 0.878906 15.1924 5.27832 15.1924 10.6865C15.1924 13.9004 16.7461 16.7568 19.1416 18.5469C18.4209 18.3545 17.6494 18.1279 16.8359 17.8887C13.3457 16.8613 9.38965 15.6963 6.27539 16.3193C3.30957 16.9121 1.36035 19.2236 1.0586 22.5049C0.886721 24.376 1.2959 27.1465 2.59961 28.8076L2.85059 29.1279C2.91406 30.2822 3.51856 31.5293 4.50293 32.5137C6.31934 34.3301 8.7793 34.7158 10.1035 33.3926C10.7695 32.7266 11.0215 31.751 10.8115 30.6465C10.6201 29.6377 10.0566 28.624 9.22461 27.792C8.63086 27.1973 7.94141 26.7383 7.22168 26.4541L6.60352 25.666C6.26953 25.2412 6.05274 23.7871 6.12696 22.9707C6.24414 21.6904 6.74707 21.416 7.27246 21.3115C9.89942 20.7861 11.875 21.7021 13.6777 24.2812C15.5518 26.9619 15.5625 27.1338 15.7422 29.998C15.7793 30.584 15.8203 31.248 15.8848 32.0645C16.1084 34.8779 16.6523 37.0742 17.5957 38.9756C18.6123 41.0225 20.1016 42.7061 22.1387 44.1143V46.2607C22.1387 47.8389 23.4219 49.1221 25 49.1221C26.5781 49.1221 27.8613 47.8389 27.8613 46.2607V44.1143C29.8984 42.7061 31.3877 41.0225 32.4043 38.9756C33.3486 37.0742 33.8926 34.8779 34.1152 32.0645C34.1807 31.248 34.2217 30.584 34.2578 29.998C34.4365 27.1328 34.4482 26.9619 36.3223 24.2803C38.125 21.7021 40.1006 20.7861 42.7275 21.3105C43.2529 21.416 43.7559 21.6895 43.8731 22.9697C43.9482 23.7861 43.7305 25.2402 43.3965 25.665L42.7783 26.4531C42.0586 26.7373 41.3691 27.1973 40.7754 27.791C38.959 29.6074 38.5732 32.0674 39.8965 33.3916C41.2207 34.7158 43.6807 34.3291 45.4971 32.5127C46.4815 31.5283 47.0859 30.2812 47.1494 29.127L47.4004 28.8066C48.7041 27.1455 49.1133 24.375 48.9414 22.5039ZM16.5596 10.6865C16.5596 6.03223 20.3457 2.24609 25 2.24609C29.6543 2.24609 33.4404 6.03223 33.4404 10.6865C33.4404 15.3408 29.6543 19.127 25 19.127C20.3457 19.127 16.5596 15.3398 16.5596 10.6865ZM27.6826 37.0078C27.5576 36.8711 27.3779 36.7842 27.1777 36.7842H25.6836V33.9648C26.8272 33.5342 27.6484 32.041 27.6484 30.2139C27.6484 28.04 26.4854 26.3379 25 26.3379C23.5147 26.3379 22.3516 28.041 22.3516 30.2139C22.3516 32.04 23.1729 33.5342 24.3164 33.9648V36.7832H22.8223C22.6221 36.7832 22.4424 36.8701 22.3174 37.0068C21.1416 34.9062 20.9981 32.501 20.8584 30.1592C20.7314 28.0361 20.6025 25.8584 19.6777 23.9805C23.168 24.8174 26.7373 24.8125 30.3301 23.9639C29.3984 25.8457 29.2676 28.0303 29.1406 30.1592C29.002 32.501 28.8584 34.9072 27.6826 37.0078ZM25 32.7236C24.3955 32.7236 23.7188 31.6504 23.7188 30.2139C23.7188 28.7773 24.3955 27.7051 25 27.7051C25.6045 27.7051 26.2813 28.7783 26.2813 30.2139C26.2813 31.6504 25.6045 32.7236 25 32.7236ZM26.4941 46.2598C26.4941 47.084 25.8242 47.7539 25 47.7539C24.1758 47.7539 23.5059 47.084 23.5059 46.2598V38.1514H26.4941V46.2598ZM46.3252 27.9619L45.9336 28.4609C45.8369 28.584 45.7852 28.7373 45.7881 28.8936C45.8008 29.7402 45.3193 30.7568 44.5313 31.5449C43.2998 32.7773 41.6201 33.1787 40.8643 32.4238C40.1084 31.668 40.5107 29.9893 41.7432 28.7568C42.2461 28.2539 42.8262 27.8789 43.4229 27.6709C43.5459 27.6279 43.6553 27.5498 43.7354 27.4473L44.4727 26.5078C45.168 25.6221 45.3125 23.6846 45.2354 22.8428C45.085 21.2021 44.3311 20.2344 42.9961 19.9678C39.8506 19.3398 37.3008 20.4932 35.2022 23.4951C33.1758 26.3936 33.0869 26.8291 32.8936 29.9102C32.8574 30.4902 32.8164 31.1484 32.752 31.9541C32.3662 36.8145 30.8838 40.0205 27.8613 42.4141V39.1426C30.1357 36.4346 30.333 33.1484 30.5059 30.2402C30.6641 27.5898 30.8135 25.0869 32.4248 23.2744C32.6289 23.0449 32.6553 22.707 32.4883 22.4492C32.3213 22.1914 32.0029 22.0762 31.71 22.168C27.168 23.5908 22.6553 23.5908 18.2979 22.1699C18.0049 22.0742 17.6836 22.1875 17.5137 22.4453C17.3438 22.7031 17.3691 23.043 17.5742 23.2734C19.1856 25.0869 19.335 27.5898 19.4932 30.2393C19.667 33.1465 19.8633 36.4326 22.1377 39.1416V42.4131C19.1143 40.0195 17.6328 36.8145 17.2471 31.9531C17.1826 31.1475 17.1416 30.4893 17.1055 29.9092C16.9131 26.8281 16.8232 26.3926 14.7969 23.4941C12.6982 20.4922 10.1494 19.3389 7.00293 19.9668C5.66797 20.2334 4.91406 21.2012 4.76367 22.8418C4.68653 23.6826 4.83106 25.6211 5.52637 26.5059L6.26367 27.4453C6.34473 27.5479 6.45313 27.626 6.57617 27.6689C7.17285 27.877 7.75391 28.252 8.25586 28.7549C8.89551 29.3945 9.32617 30.1563 9.4668 30.8975C9.53809 31.2715 9.58887 31.9678 9.13477 32.4219C8.37891 33.1777 6.7002 32.7754 5.46778 31.543C4.67969 30.7549 4.19824 29.7393 4.21094 28.8916C4.21289 28.7354 4.16211 28.582 4.06543 28.459L3.67383 27.96C2.64844 26.6533 2.2666 24.2881 2.41895 22.626C2.66504 19.9424 4.16797 18.1309 6.54199 17.6562C9.32617 17.0996 13.1104 18.2139 16.4492 19.1973C17.3594 19.4648 18.2197 19.7178 19.0254 19.9277C21.1904 20.4902 23.1406 20.7793 24.9873 20.8125H25.0117C26.8584 20.7803 28.8076 20.4912 30.9736 19.9277C31.7803 19.7178 32.6406 19.4648 33.5508 19.1973C36.8897 18.2148 40.6729 17.1016 43.457 17.6572C45.8311 18.1318 47.334 19.9424 47.5801 22.626C47.7324 24.29 47.3496 26.6562 46.3252 27.9619ZM28.083 15.9756V13.7686H30.29C30.7607 13.7686 31.1426 13.3857 31.1426 12.916V8.45605C31.1426 7.98535 30.7598 7.60352 30.29 7.60352H28.083V5.39648C28.083 4.92578 27.7002 4.54395 27.2305 4.54395H22.7705C22.2998 4.54395 21.918 4.92676 21.918 5.39648V7.60352H19.7109C19.2412 7.60352 18.8584 7.98633 18.8584 8.45605V12.916C18.8584 13.3867 19.2412 13.7686 19.7109 13.7686H21.918V15.9756C21.918 16.4463 22.3008 16.8281 22.7705 16.8281H27.2305C27.7002 16.8281 28.083 16.4453 28.083 15.9756ZM26.7158 13.2539V15.4609H23.2852V13.2539C23.2852 12.7832 22.9023 12.4014 22.4326 12.4014H20.2256V8.9707H22.4326C22.9033 8.9707 23.2852 8.58789 23.2852 8.11816V5.91113H26.7158V8.11816C26.7158 8.58887 27.0986 8.9707 27.5684 8.9707H29.7754V12.4014H27.5684C27.0977 12.4014 26.7158 12.7842 26.7158 13.2539Z" fill="#fc5e5e"/>
</svg>
