<svg width="50" height="50" viewBox="0 0 50 50" fill="none" xmlns="http://www.w3.org/2000/svg">
<g clip-path="url(#clip0_962_2799)">
<path d="M8.02494 39.8502C8.21507 39.6392 8.49476 39.4016 8.86469 39.1373C9.23392 38.8734 9.63559 38.6096 10.0687 38.3452C10.5014 38.0813 10.94 37.8223 11.3836 37.5689C11.8274 37.3154 12.2075 37.0936 12.5243 36.9036C12.9887 36.6292 13.4432 36.3283 13.8868 36.0006C14.3304 35.6733 14.7313 35.2931 15.0908 34.86C15.4498 34.4273 15.7404 33.9363 15.9621 33.3866C16.184 32.8375 16.2947 32.2142 16.2947 31.5172C16.2947 29.8275 15.6874 28.4863 14.4729 27.4932C13.258 26.5006 11.5104 26.0039 9.22914 26.0039C8.29935 26.0039 7.40726 26.0887 6.55169 26.2574C5.69622 26.4268 4.90901 26.6535 4.19113 26.9387C3.47267 27.2239 2.82863 27.5461 2.25831 27.9051C1.688 28.2645 1.2336 28.6338 0.895905 29.014L4.12775 32.7528C4.74016 32.0557 5.37385 31.4908 6.02883 31.0576C6.68343 30.625 7.45462 30.4081 8.34183 30.4081C9.12308 30.4081 9.72514 30.5878 10.1479 30.9468C10.5702 31.3063 10.7816 31.7815 10.7816 32.3726C10.7816 32.6686 10.6969 32.927 10.5282 33.1489C10.3588 33.3706 10.0791 33.6192 9.68842 33.8934C9.2973 34.1682 8.76947 34.485 8.10414 34.844C7.4388 35.2035 6.6095 35.6574 5.61682 36.2064C4.68713 36.7346 3.91633 37.2733 3.30382 37.8222C2.69093 38.3718 2.20519 38.9683 1.8464 39.6126C1.48702 40.2571 1.2336 40.9701 1.08594 41.7513C0.937897 42.5331 0.864166 43.4203 0.864166 44.4129H16.6433V39.8502H8.02494Z" fill="#ff0000"/>
<path d="M32.3585 39.5329V26.3203H28.9049L18.5757 39.5646V44.0956H27.289V48.4364H32.3585V44.0956H35.1468V39.5329H32.3585ZM27.8909 39.533H23.5818L27.8909 33.9247V39.533Z" fill="#ff0000"/>
<path d="M3.81212 45.5703V47.2666H2.06661V45.5703H1.05499V49.9496H2.06661V48.1547H3.81212V49.9496H4.82375V45.5703H3.81212Z" fill="#ff0000"/>
<path d="M10.5351 46.9593C10.4325 46.6921 10.2866 46.4535 10.0974 46.2438C9.90814 46.0341 9.68002 45.8657 9.41273 45.7381C9.14535 45.6106 8.84935 45.5469 8.52445 45.5469C8.20784 45.5469 7.91585 45.6076 7.64856 45.7288C7.38118 45.8502 7.14993 46.0126 6.95452 46.216C6.75921 46.4195 6.60696 46.6551 6.49807 46.9224C6.38899 47.1898 6.33459 47.4673 6.33459 47.7551C6.33459 48.0388 6.38704 48.3144 6.49192 48.5816C6.5968 48.8489 6.74368 49.0864 6.93284 49.294C7.122 49.5016 7.35022 49.6693 7.61751 49.7966C7.8848 49.924 8.18079 49.9878 8.50579 49.9878C8.8224 49.9878 9.11429 49.9262 9.38168 49.8027C9.64896 49.6794 9.87924 49.5158 10.0725 49.3124C10.2659 49.1089 10.4168 48.8734 10.5258 48.6061C10.6348 48.3388 10.6893 48.0612 10.6893 47.7734C10.6893 47.4981 10.6378 47.2266 10.5351 46.9593ZM9.58851 48.2393C9.54115 48.3977 9.47025 48.5395 9.37562 48.6649C9.28109 48.7903 9.16175 48.8921 9.018 48.9703C8.87396 49.0484 8.7054 49.0875 8.51214 49.0875C8.32708 49.0875 8.16263 49.0505 8.01868 48.9766C7.87464 48.9026 7.75442 48.8037 7.65784 48.6805C7.56126 48.5572 7.48831 48.4163 7.4389 48.258C7.38948 48.0997 7.36487 47.9363 7.36487 47.7677C7.36487 47.6032 7.3885 47.4418 7.43587 47.2834C7.48323 47.1252 7.55501 46.9843 7.65169 46.8609C7.74837 46.7376 7.86751 46.6379 8.00941 46.5618C8.1513 46.4857 8.31888 46.4477 8.51204 46.4477C8.6971 46.4477 8.86048 46.4837 9.00238 46.5557C9.14418 46.6276 9.26449 46.7244 9.36312 46.8455C9.46176 46.9669 9.53588 47.1067 9.58519 47.2649C9.63451 47.4232 9.65922 47.5868 9.65922 47.7553C9.65951 47.9196 9.63578 48.0811 9.58851 48.2393Z" fill="#ff0000"/>
<path d="M15.0137 45.5704V47.8093H15.0134C15.0134 47.9697 14.998 48.127 14.9672 48.2812C14.9363 48.4354 14.8839 48.5721 14.8099 48.6913C14.7359 48.8106 14.6392 48.9063 14.52 48.9781C14.4008 49.0502 14.2547 49.0861 14.0821 49.0861C13.9093 49.0861 13.7644 49.0512 13.6472 48.9813C13.5299 48.9114 13.4343 48.8167 13.3604 48.6975C13.2864 48.5784 13.2329 48.4426 13.2 48.2904C13.167 48.1383 13.1506 47.978 13.1506 47.8093V45.5703H12.1391V47.8093C12.1391 48.0972 12.1751 48.3727 12.247 48.6358C12.319 48.899 12.4322 49.1302 12.5864 49.3298C12.7406 49.5294 12.9411 49.6886 13.1878 49.8077C13.4345 49.927 13.7326 49.9866 14.0822 49.9866C14.4193 49.9866 14.7102 49.9302 14.955 49.817C15.1996 49.7039 15.4011 49.5486 15.5594 49.3514C15.7177 49.1539 15.8349 48.9237 15.9111 48.6606C15.9872 48.3975 16.0253 48.1137 16.0253 47.8094V45.5704H15.0137Z" fill="#ff0000"/>
<path d="M20.4227 48.3214C20.5337 48.2597 20.6334 48.1847 20.722 48.0962C20.8103 48.0077 20.8853 47.908 20.9471 47.7971C21.0087 47.686 21.056 47.5678 21.0889 47.4423C21.1218 47.3169 21.1383 47.1863 21.1383 47.0507C21.1383 46.8696 21.1022 46.6908 21.0303 46.514C20.9583 46.3372 20.8586 46.1789 20.7311 46.0392C20.6036 45.8994 20.4525 45.7862 20.2778 45.6998C20.103 45.6136 19.9129 45.5703 19.7073 45.5703H17.7335V49.9497H18.745V48.5372H19.405L20.2438 49.9497H21.3848L20.4227 48.3214ZM19.9787 47.4856C19.8924 47.5987 19.7894 47.6552 19.6703 47.6552H18.7451V46.4586H19.6395C19.7545 46.4586 19.8616 46.5121 19.9602 46.619C20.0589 46.726 20.1083 46.8699 20.1083 47.0509C20.1082 47.2275 20.065 47.3726 19.9787 47.4856Z" fill="#ff0000"/>
<path d="M25.8972 48.1442C25.8333 48.0005 25.743 47.8781 25.6258 47.7774C25.5085 47.6766 25.3656 47.5922 25.1971 47.5244C25.0283 47.4566 24.8394 47.394 24.6296 47.3362C24.4773 47.2952 24.3438 47.2582 24.2287 47.2253C24.1136 47.1925 24.018 47.1565 23.9419 47.1173C23.8657 47.0782 23.8082 47.034 23.7691 46.9847C23.7299 46.9354 23.7104 46.8737 23.7104 46.7996C23.7104 46.557 23.8914 46.4356 24.2532 46.4356C24.3847 46.4356 24.5164 46.4542 24.648 46.4912C24.7795 46.5282 24.9009 46.5715 25.012 46.6207C25.123 46.67 25.2154 46.7175 25.2896 46.7626C25.3635 46.8079 25.4067 46.8388 25.419 46.8552L25.8632 46.0163C25.7646 45.9588 25.6565 45.9014 25.5394 45.8436C25.4222 45.786 25.2957 45.7346 25.16 45.6894C25.0243 45.6441 24.8824 45.6072 24.7344 45.5784C24.5863 45.5497 24.4362 45.5352 24.2842 45.5352C24.0661 45.5352 23.8596 45.5661 23.6644 45.6277C23.469 45.6894 23.2973 45.781 23.1494 45.9022C23.0014 46.0235 22.8842 46.1727 22.7977 46.3494C22.7114 46.5264 22.6683 46.7299 22.6683 46.9602C22.6683 47.1247 22.6918 47.2686 22.7392 47.3919C22.7865 47.5152 22.8583 47.6242 22.955 47.7189C23.0517 47.8135 23.1739 47.8968 23.3221 47.9687C23.4701 48.0407 23.6449 48.1074 23.8464 48.1693C23.9985 48.2145 24.1394 48.2555 24.2688 48.2925C24.3984 48.3295 24.5104 48.3696 24.605 48.4128C24.6994 48.456 24.7736 48.5043 24.8271 48.5577C24.8804 48.6111 24.9073 48.679 24.9073 48.7612C24.9073 48.9792 24.7284 49.0882 24.3707 49.0882C24.202 49.0882 24.0354 49.0655 23.871 49.0203C23.7065 48.9751 23.5573 48.9236 23.4237 48.8661C23.29 48.8086 23.1779 48.7511 23.0876 48.6933C22.9972 48.6359 22.9436 48.5967 22.9271 48.5761L22.483 49.4581C22.6104 49.5444 22.7492 49.6205 22.8993 49.6862C23.0494 49.7521 23.2048 49.8086 23.365 49.8559C23.5254 49.9031 23.6897 49.9392 23.8585 49.9638C24.0271 49.9885 24.1915 50.0008 24.352 50.0008C24.5617 50.0008 24.7652 49.9771 24.9627 49.9298C25.1601 49.8825 25.3348 49.8065 25.487 49.7017C25.6392 49.5968 25.7614 49.4591 25.854 49.2884C25.9466 49.1178 25.9928 48.909 25.9928 48.6623C25.9927 48.4609 25.9609 48.2882 25.8972 48.1442Z" fill="#ff0000"/>
<path d="M27.9788 23.6194C27.7035 22.5275 26.8424 21.6663 25.7505 21.3911V7.91797H24.2494V21.3912C22.9172 21.727 21.928 22.935 21.928 24.37C21.928 26.0639 23.3061 27.4419 24.9999 27.4419C26.435 27.4419 27.6429 26.4526 27.9787 25.1205H36.9098V23.6194H27.9788ZM25 25.9408C24.1339 25.9408 23.4292 25.2361 23.4292 24.37C23.4292 23.5039 24.1339 22.7992 25 22.7992C25.8661 22.7992 26.5708 23.5039 26.5708 24.37C26.5708 25.2361 25.8661 25.9408 25 25.9408Z" fill="#ff0000"/>
<path d="M46.6358 35.5909C48.4234 32.1514 49.3685 28.2706 49.3685 24.3684C49.3685 17.8593 46.8337 11.7399 42.2312 7.13714C37.6285 2.53478 31.509 0 25 0C18.491 0 12.3714 2.53478 7.76878 7.13724C3.16632 11.7399 0.631546 17.8594 0.631546 24.3685V25.119H5.2175V23.618H2.14474C2.26446 19.9225 3.26613 16.4466 4.94426 13.3926L7.58558 14.953L8.34906 13.6606L5.70901 12.1009C7.51878 9.26488 9.93686 6.85354 12.7773 5.05002L14.3304 7.6929L15.6246 6.93235L14.0705 4.28771C17.1133 2.62501 20.5728 1.6338 24.2495 1.51465V4.58596H25.7506V1.51465C29.4457 1.63448 32.922 2.63458 35.9759 4.31261L34.4155 6.95403L35.7078 7.71751L37.267 5.07795C40.103 6.88772 42.5147 9.30541 44.3182 12.1458L41.6753 13.6988L42.4358 14.9929L45.0814 13.4384C46.7442 16.4812 47.7345 19.9413 47.8537 23.618H44.7825V25.119H47.8539C47.734 28.7293 46.753 32.2291 45.0506 35.3413L42.4143 33.7839L41.6508 35.0763L44.2862 36.6332C43.0675 38.5527 41.561 40.2966 39.8044 41.7932L40.0073 39.9635L38.5154 39.798L38.0291 44.1822L42.4133 44.6685L42.5788 43.1766L40.735 42.972C43.1545 40.9206 45.1769 38.3981 46.6358 35.5909Z" fill="#ff0000"/>
</g>
<defs>
<clipPath id="clip0_962_2799">
<rect width="50" height="50" fill="white"/>
</clipPath>
</defs>
</svg>
