<svg width="44" height="44" viewBox="0 0 44 44" fill="none" xmlns="http://www.w3.org/2000/svg">
<path d="M22.6875 18.5625C20.4126 18.5625 18.5625 20.4126 18.5625 22.6875C18.5625 24.9624 20.4126 26.8125 22.6875 26.8125C24.9624 26.8125 26.8125 24.9624 26.8125 22.6875C26.8125 20.4126 24.9624 18.5625 22.6875 18.5625ZM22.6875 25.4375C21.1709 25.4375 19.9375 24.2041 19.9375 22.6875C19.9375 21.1709 21.1709 19.9375 22.6875 19.9375C24.2041 19.9375 25.4375 21.1709 25.4375 22.6875C25.4375 24.2041 24.2041 25.4375 22.6875 25.4375Z" fill="#ff0000"/>
<path d="M37.8699 24.7032C38.7492 24.5554 39.6423 24.4942 40.5429 24.521C40.9183 24.5176 41.2387 24.233 41.2497 23.8528C41.2607 23.4733 40.9616 23.157 40.5821 23.146C38.9823 23.102 37.4058 23.3179 35.8782 23.7669C35.8335 23.7765 35.7916 23.7895 35.7497 23.8081C35.4939 23.8858 35.2382 23.9621 34.9852 24.0535C33.2245 23.9594 31.7305 22.9728 30.977 21.3915C30.2043 19.7677 30.4126 17.646 31.4823 16.2305C31.5257 16.1734 31.5614 16.1088 31.5862 16.0373C31.6934 15.7272 31.8151 15.4234 31.9382 15.1209H31.9457C33.1667 15.1209 34.3747 14.949 35.5406 14.6307C36.8235 15.532 38.3367 16.016 39.898 16.016C40.14 16.016 40.3827 16.0043 40.6261 15.9809C41.0042 15.9452 41.2813 15.6097 41.2455 15.2315C41.2091 14.8527 40.8695 14.564 40.4962 14.6128C39.3687 14.72 38.2542 14.5159 37.2505 14.0415C38.3532 13.5774 39.3996 12.9738 40.3545 12.2292C40.6543 11.9955 40.7072 11.5637 40.4735 11.2647C40.2397 10.9649 39.8073 10.9127 39.5082 11.1457C37.5131 12.7029 35.0862 13.6049 32.57 13.7307C33.6679 11.5775 35.1886 9.65523 37.0511 8.0891C37.3419 7.84504 37.379 7.41123 37.135 7.12042C36.8909 6.82961 36.4578 6.79248 36.1663 7.03654C33.8762 8.96223 32.0708 11.3905 30.8718 14.1164C30.865 14.1295 30.8595 14.1419 30.854 14.1556C30.6738 14.5667 30.5075 14.9847 30.3562 15.4089C29.325 16.3749 27.895 16.6265 26.8321 16.0029C25.6427 15.3065 25.0453 13.8593 25.4117 12.5613C25.4145 12.5517 25.4124 12.5427 25.4145 12.5331C25.4165 12.5242 25.4227 12.5173 25.4241 12.5077C25.5403 11.9171 25.6193 11.321 25.6812 10.7236C27.8379 9.43248 29.446 7.42635 30.2167 5.02217C30.3322 4.66054 30.1335 4.27279 29.7718 4.15729C29.4095 4.04317 29.0232 4.24117 28.9077 4.60142C28.3405 6.37104 27.2473 7.88973 25.7878 8.99523C25.7926 8.71885 25.7878 8.44317 25.7802 8.16679C25.7788 8.13654 25.783 8.10698 25.7775 8.07742C25.7218 6.20054 25.411 4.33192 24.8301 2.53754C24.7132 2.17592 24.3268 1.97792 23.9645 2.09479C23.6036 2.21167 23.4056 2.59873 23.5225 2.96036C23.9659 4.33123 24.2381 5.74885 24.3536 7.17817C22.8075 6.45217 21.6669 5.0586 21.2963 3.34742C21.2159 2.97685 20.8495 2.74036 20.4789 2.82079C20.1077 2.90123 19.8725 3.26698 19.9523 3.63823C20.4658 6.00735 22.1598 7.88835 24.4203 8.68173C24.4196 9.81817 24.3117 10.9546 24.102 12.0752C22.4183 14.0972 20.9251 15.125 17.6842 15.125C14.7926 15.125 12.4764 14.2684 10.801 12.5785C10.8003 12.5778 10.8003 12.5778 10.7996 12.5778C10.7996 12.5778 10.7989 12.5771 10.7989 12.5764C10.5562 12.333 10.3348 12.0725 10.1031 11.8202C10.8924 9.56379 11.2052 7.13142 10.9976 4.75267C10.9646 4.37454 10.6415 4.08923 10.253 4.12773C9.8749 4.16073 9.5944 4.49417 9.62809 4.87229C9.79515 6.79248 9.59302 8.7491 9.05127 10.6019C7.91002 9.18223 6.91865 7.64979 6.1184 6.00185C5.95271 5.65948 5.54021 5.51785 5.1999 5.68423C4.85821 5.84992 4.7159 6.26035 4.88227 6.60273C5.46665 7.80654 6.14934 8.95192 6.90765 10.0437C5.78977 10.0114 4.6774 9.87935 3.58427 9.64148C3.21371 9.55485 2.84727 9.79548 2.76615 10.1667C2.68502 10.5373 2.92084 10.9037 3.2914 10.9849C4.65127 11.2812 6.04071 11.4304 7.43221 11.4304C7.6034 11.4304 7.77459 11.4235 7.94577 11.4187C8.21252 11.7521 8.48546 12.0794 8.76871 12.399C8.80377 12.4465 8.84021 12.4898 8.88696 12.5276C9.18534 12.8597 9.47821 13.1965 9.79446 13.5135C9.79446 13.5135 9.79446 13.5142 9.79515 13.5142L9.88109 13.6132C11.804 15.8104 14.4378 18.8182 14.4378 21.3125C14.4378 23.4162 12.717 24.4929 10.7246 25.7393C10.5253 25.8637 10.3245 25.9909 10.1245 26.1181C7.88596 26.0844 5.8709 25.4664 3.80359 24.1677C3.48252 23.9662 3.05834 24.0639 2.85621 24.3835C2.6534 24.706 2.75034 25.1302 3.07209 25.3323C4.81215 26.4254 6.52334 27.084 8.3404 27.3549C6.44359 28.7313 4.63752 30.2417 2.95865 31.8711C2.6864 32.1358 2.67952 32.571 2.94421 32.8432C3.07965 32.9821 3.2584 33.0515 3.43784 33.0515C3.6104 33.0515 3.78296 32.9869 3.91634 32.8577C4.88846 31.9137 5.90734 31.0145 6.95852 30.1544C6.43259 32.2059 6.1734 34.3124 6.18784 36.4423C6.19059 36.8204 6.4979 37.125 6.87534 37.125H6.88015C7.25965 37.1222 7.56559 36.8122 7.56284 36.4327C7.54427 33.7913 7.97465 31.1884 8.83402 28.6928C9.43146 28.2521 10.0371 27.8245 10.6531 27.4134C12.4193 26.5237 14.5238 26.8008 16.1573 28.1394C17.678 29.3858 18.3593 31.3383 17.9647 33.1897C15.7853 34.0182 13.7428 35.1505 11.8975 36.5825C11.5971 36.8156 11.5428 37.2474 11.7758 37.5471C11.9106 37.721 12.1134 37.8125 12.3183 37.8125C12.4654 37.8125 12.6139 37.7657 12.739 37.6681C14.3251 36.4375 16.07 35.4475 17.9214 34.6885C17.9358 34.8555 17.9606 35.0212 17.9826 35.1876C16.732 36.6932 16.4165 40.3164 16.5024 41.3084C16.534 41.6673 16.8338 41.9375 17.1872 41.9375C17.2071 41.9375 17.227 41.9368 17.247 41.9347C17.6251 41.9017 17.9056 41.569 17.8726 41.1909C17.797 40.3157 18.0445 38.4237 18.4968 37.1319C18.8564 37.9603 19.3789 38.7172 20.0341 39.3415C20.6178 39.897 21.2076 40.2614 21.9481 40.5233C22.0244 40.5494 22.1014 40.5625 22.1777 40.5625C22.461 40.5625 22.7256 40.3865 22.826 40.1046C22.9525 39.7464 22.7655 39.3532 22.4073 39.2274C21.8511 39.03 21.4249 38.7667 20.9828 38.3453C20.1406 37.5437 19.5728 36.4684 19.3837 35.3169C19.3019 34.8219 19.262 34.3165 19.2558 33.814C19.931 32.0416 21.3328 30.7587 23.1265 30.2905C24.9023 29.8237 26.817 30.2135 28.2009 31.2881C28.2655 33.75 29.0053 36.1309 30.3645 38.192C30.4958 38.3914 30.7151 38.5 30.9385 38.5C31.0685 38.5 31.1998 38.4629 31.316 38.3865C31.6329 38.1775 31.7202 37.7506 31.5119 37.4337C30.4442 35.8146 29.8042 33.9749 29.6227 32.0595C31.8948 33.2612 33.7972 35.0315 35.1673 37.2302C35.2973 37.4399 35.5221 37.5547 35.7517 37.5547C35.8761 37.5547 36.0013 37.521 36.1147 37.4509C36.4371 37.2501 36.5355 36.8266 36.3347 36.5042C35.507 35.1752 34.4977 33.9934 33.3448 32.9759C34.5871 32.8254 35.8418 32.826 37.0923 32.9938C37.4663 33.0426 37.8142 32.7793 37.8651 32.4039C37.9153 32.0272 37.6513 31.6814 37.2745 31.6312C35.4671 31.3899 33.6507 31.4627 31.8687 31.8285C31.1427 31.3266 30.3727 30.8845 29.5635 30.5057C29.5622 28.6653 29.5793 27.3267 30.3727 26.5327C31.118 25.7854 32.6085 25.4375 35.0628 25.4375C35.1433 25.4375 35.2244 25.423 35.3042 25.3942C35.5221 25.3124 35.7442 25.2525 35.9648 25.1817C37.5234 25.995 38.9273 27.1315 40.0266 28.5024C40.1627 28.6722 40.3621 28.7602 40.5635 28.7602C40.7148 28.7602 40.866 28.7107 40.9932 28.6089C41.2895 28.371 41.337 27.9386 41.0998 27.643C40.1875 26.5052 39.0882 25.511 37.8699 24.7032ZM29.3985 25.5612C28.3872 26.5732 28.2188 27.9819 28.192 29.6209C26.5901 28.721 24.6486 28.4687 22.7786 28.9589C21.4496 29.306 20.2706 30.0369 19.3631 31.0385C19.095 29.5226 18.2858 28.1057 17.0283 27.0751C15.9689 26.2068 14.7163 25.6974 13.4444 25.5674C14.7809 24.5348 15.8128 23.2677 15.8128 21.3125C15.8128 19.4851 14.7706 17.5759 13.4891 15.8297C14.7534 16.2724 16.1628 16.5 17.6842 16.5C20.6755 16.5 22.4637 15.6722 24.0175 14.1934C24.2622 15.4158 25.0185 16.5344 26.137 17.1902C27.1064 17.7574 28.2648 17.8612 29.3559 17.5395C28.9682 19.0011 29.0823 20.6078 29.7368 21.9821C30.2084 22.9714 30.9021 23.7827 31.7505 24.3705C30.7171 24.6125 29.9547 25.0037 29.3985 25.5612Z" fill="#ff0000"/>
</svg>
