<svg width="44" height="44" viewBox="0 0 44 44" fill="none" xmlns="http://www.w3.org/2000/svg">
<path d="M26.2551 21.6741C25.7455 21.6741 25.2442 21.546 24.7931 21.2926C23.9911 20.8443 23.4452 20.0673 23.2949 19.1622C23.1083 18.0427 22.4706 17.0625 21.5432 16.4777L10.5154 9.51009C10.2035 9.31237 10.1088 8.90022 10.3065 8.58832C10.5042 8.27642 10.9164 8.18173 11.2283 8.37946L22.2561 15.3471C23.5037 16.1352 24.3642 17.4468 24.6121 18.9422C24.6956 19.4463 24.9992 19.8779 25.4475 20.1286C26.1994 20.5491 27.163 20.3207 27.6447 19.605C27.7589 19.4379 27.8397 19.2541 27.8842 19.062C28.0736 18.2739 28.508 17.5888 29.1374 17.0792C29.2906 16.9539 29.4214 16.8035 29.5245 16.6281C29.9617 15.8873 29.7556 14.9154 29.0539 14.4169C28.5693 14.0744 27.9539 14.0103 27.4108 14.2498C26.3052 14.7372 25.0493 14.6508 24.0495 14.0187L12.3394 6.61946C12.0275 6.42173 11.9328 6.00958 12.1306 5.69768C12.3283 5.38579 12.7404 5.2911 13.0523 5.48882L24.7625 12.8881C25.3863 13.2807 26.1716 13.3336 26.8706 13.0245C27.848 12.5929 28.9536 12.7043 29.8252 13.3225C30.4407 13.7569 30.8668 14.4058 31.0255 15.1465C31.1842 15.8873 31.0589 16.6531 30.6774 17.302C30.4936 17.6139 30.2597 17.8868 29.9812 18.1124C29.5802 18.4354 29.3073 18.8726 29.1847 19.3739C29.1012 19.722 28.9564 20.0506 28.7531 20.3514C28.3326 20.9752 27.6949 21.4152 26.9569 21.5906C26.723 21.6463 26.489 21.6741 26.2551 21.6741Z" fill="#ff0000"/>
<path d="M27.2238 40.8169C27.1876 40.8169 27.1487 40.8141 27.1125 40.8085C26.7476 40.7473 26.5026 40.402 26.5666 40.0371L27.9256 32.028C28.2319 30.1789 29.1676 28.5164 30.5545 27.3468C30.8525 27.0961 31.0418 26.7425 31.0864 26.3498C31.1755 25.5701 30.6408 24.8432 29.8694 24.6901C29.6606 24.6483 29.4517 24.6511 29.2456 24.6956C28.5438 24.8516 27.8226 24.729 27.2071 24.3559C27.0289 24.2473 26.8312 24.1777 26.6195 24.1498C25.8426 24.044 25.1018 24.562 24.9319 25.3278C24.8289 25.7984 24.9459 26.2802 25.2578 26.645C26.1461 27.6893 26.5249 29.0845 26.2937 30.4741L24.7259 39.7364C24.6646 40.1012 24.3193 40.3463 23.9545 40.285C23.5897 40.2237 23.3446 39.8784 23.4059 39.5136L24.9709 30.2541C25.138 29.2571 24.8679 28.2574 24.2357 27.5111C23.6509 26.8232 23.4281 25.9237 23.6231 25.0409C23.9406 23.6012 25.333 22.6293 26.795 22.827C27.1904 22.8799 27.5608 23.0108 27.8978 23.2169C28.2152 23.409 28.5884 23.4731 28.9504 23.3923C29.3375 23.306 29.7302 23.3032 30.1228 23.3812C31.5709 23.668 32.5735 25.0382 32.4092 26.503C32.3256 27.2354 31.9719 27.8982 31.4094 28.3716C30.2649 29.3351 29.4935 30.7136 29.2373 32.2508L27.8783 40.2627C27.8254 40.5858 27.5441 40.8169 27.2238 40.8169Z" fill="#ff0000"/>
<path d="M33.1031 22.9579C33.0391 22.9579 32.975 22.9551 32.911 22.9468L30.9699 22.7156C30.3684 22.6432 29.8672 22.2478 29.6583 21.6797C29.4494 21.1116 29.5775 20.485 29.9897 20.0422C30.3796 19.6245 30.7973 19.1734 31.1537 18.7919C31.5074 18.4131 32.0226 18.2293 32.535 18.2962C33.0474 18.3658 33.4986 18.6805 33.738 19.1372L34.515 20.6187C34.7907 21.145 34.7517 21.7772 34.4148 22.2673C34.1168 22.7017 33.6239 22.9579 33.1031 22.9579ZM32.3234 19.6162C32.2705 19.6162 32.198 19.6301 32.134 19.6997C31.7775 20.084 31.3598 20.5324 30.9699 20.9501C30.8753 21.0531 30.8948 21.1617 30.917 21.2174C30.9365 21.2731 30.9922 21.3706 31.1315 21.3873L33.0725 21.6184C33.2089 21.6351 33.2841 21.5572 33.3175 21.507C33.351 21.4597 33.3983 21.3594 33.3342 21.2369L32.5573 19.7554C32.5016 19.6524 32.4097 19.6245 32.3596 19.6189C32.3484 19.6162 32.3373 19.6162 32.3234 19.6162Z" fill="#ff0000"/>
<path d="M33.2147 43.3873C33.1701 43.3873 33.1284 43.3818 33.0838 43.3734C32.7218 43.301 32.4879 42.9501 32.5603 42.5881L36.4423 23.2114C37.2499 19.1734 35.4342 15.0157 31.9225 12.863L13.9271 1.85188C13.6124 1.65973 13.5122 1.24758 13.7071 0.932893C13.902 0.61821 14.3114 0.517956 14.6261 0.712893L32.6187 11.724C34.5848 12.9271 36.1109 14.6787 37.0327 16.7924C37.9544 18.9033 38.2051 21.2147 37.7511 23.4759L33.8691 42.8526C33.8079 43.1673 33.5266 43.3873 33.2147 43.3873Z" fill="#ff0000"/>
<path d="M18.4246 41.3878C18.355 41.3878 18.2826 41.3767 18.2102 41.3516C17.8593 41.2347 17.6727 40.8532 17.7897 40.5051C17.812 40.4382 20.076 33.6516 19.391 30.1372C19.0624 28.4635 19.3158 26.5281 20.1429 24.381C20.4659 23.54 20.8168 22.8354 21.0758 22.3564C18.7922 21.3845 16.634 20.3124 14.6484 19.1595C12.894 18.143 11.2705 17.0625 9.82237 15.9486C7.33553 14.041 6.22718 12.6959 6.18262 12.6402C5.9487 12.3534 5.99326 11.9329 6.27731 11.699C6.56414 11.4651 6.98465 11.5096 7.21579 11.7937C7.22693 11.8076 8.30186 13.1053 10.6857 14.9294C12.8884 16.6142 16.6869 19.1094 22.2872 21.4152C22.471 21.4904 22.6102 21.6435 22.6715 21.8329C22.73 22.0223 22.7049 22.2283 22.5963 22.3954C22.5712 22.4344 20.0315 26.4613 20.7026 29.881C21.4573 33.7435 19.1571 40.6415 19.0568 40.9339C18.9621 41.2124 18.7031 41.3878 18.4246 41.3878Z" fill="#ff0000"/>
</svg>
