<svg width="40" height="40" viewBox="0 0 40 40" fill="none" xmlns="http://www.w3.org/2000/svg">
<path d="M34.3519 11.8687C34.3519 11.8681 34.3519 11.8669 34.3513 11.8663C34.2444 11.125 30.7294 8.125 27.5319 8.125C24.0513 8.125 20.8276 12.41 19.9244 12.5C19.0994 12.5031 19.1026 13.75 19.9276 13.75C22.4657 13.75 25.4376 5.9975 32.0851 11.2738C31.2982 11.47 30.7451 11.9725 30.4576 12.75C28.4701 11.0369 25.2719 12.005 24.4001 14.1412C24.0951 14.8994 25.2388 15.3712 25.5576 14.6125C26.2694 12.9862 29.1151 12.285 30.3913 14.6394C31.4413 16.5738 34.8144 15.035 34.3519 11.8687ZM31.4926 14.0469C31.5126 12.8731 31.9726 12.3194 33.1307 12.4456C33.0913 14.0156 31.7926 14.5869 31.4926 14.0469Z" fill="#fc5e5e"/>
<path d="M26.8513 14.8888C26.87 14.9106 28.73 17.09 28.73 20C28.73 26.2262 23.7182 36.25 20.605 36.25C18.3919 36.25 7.98316 27.7719 6.95754 21.0381C19.0413 26.1781 14.5238 5.74438 25.7744 5.63C26.2194 5.62875 27.4788 5.625 28.1569 5.625C28.6432 5.625 29.4594 5.86875 29.4594 7.5C29.4594 8.32687 30.7094 8.32687 30.7094 7.5C30.7094 5.19375 29.3344 4.375 28.1569 4.375C27.4088 4.375 26.3094 4.37875 25.6082 4.38062V4.38937C22.7894 4.46187 20.8232 5.68063 19.355 7.40625V5.63625C19.3713 4.74125 18.585 3.75 16.855 3.75C16.1319 3.75 15.5569 3.92437 15.1275 4.2575C14.7332 3.54687 13.6913 2.5 12.7607 2.5C10.71 2.5 8.71254 4.91625 9.92379 6.54187C10.8644 7.80562 11.1269 9.07438 11.2007 9.6625C9.90941 10.4788 5.61816 13.6669 5.61816 20C5.61816 27.4925 17.4869 37.5 20.605 37.5C25.0138 37.5 29.98 26.0837 29.98 20C29.98 16.6287 27.885 14.1731 27.7963 14.07C27.2532 13.4444 26.3107 14.2644 26.8513 14.8888ZM15.9332 13.7725C15.3382 12.1119 14.2182 9.85437 12.4344 9.4425C12.3563 8.85437 12.1388 7.865 11.5525 6.78062C12.7475 6.51875 13.5057 5.75 13.8807 4.62125C14.4582 5.38313 14.375 6.30813 14.355 8.75C14.355 9.57687 15.605 9.57687 15.605 8.75V6.88438C16.495 7.12125 17.3325 7.05188 18.105 6.725V9.1475C17.2182 10.6144 16.5438 12.2431 15.9332 13.7725ZM18.0013 5.37125C17.0363 5.9575 16.1244 5.76938 15.6419 5.58875C15.9257 4.77438 17.6269 4.87937 18.0013 5.37125ZM12.8157 3.75875C12.625 4.88687 12.0007 5.56687 10.8344 5.61875C10.625 5.00625 11.6975 3.64687 12.8157 3.75875ZM12.005 10.6337C13.6494 10.8294 14.8294 14.1831 15.1888 15.6181C13.3194 20.1338 11.7194 22.0144 6.88504 19.6294C7.05941 13.8944 11.1575 11.14 12.005 10.6337Z" fill="#fc5e5e"/>
<path d="M21.23 15.625V19.2094L18.8938 23.2981L16.2481 24.8856L14.7019 23.855C14.5413 23.7481 14.34 23.7212 14.1575 23.7819L12.2825 24.4069C11.4956 24.6694 11.8969 25.8556 12.6781 25.5925L14.2631 25.0644L15.5175 25.9006L14.9994 27.9731C14.7994 28.7737 16.0106 29.0806 16.2125 28.2769L16.775 26.0281L18.7313 24.8544V31.25C18.7313 32.0769 19.9813 32.0769 19.9813 31.25V27.7587L22.0394 29.8169C22.6181 30.4019 23.5088 29.52 22.9219 28.9331L19.98 25.9912V23.9162L22.1044 20.1987L23.6488 20.9706L23.1175 23.6275C22.9556 24.4412 24.1806 24.6906 24.3425 23.8731L24.7388 21.8931L25.7881 22.9425C26.3744 23.5262 27.2563 22.6425 26.6719 22.0581L24.7969 20.1831C24.53 19.985 23.4875 19.5075 22.48 18.9887V15.625C22.48 14.7981 21.23 14.7981 21.23 15.625Z" fill="#fc5e5e"/>
</svg>
