<svg width="35" height="35" viewBox="0 0 35 35" fill="none" xmlns="http://www.w3.org/2000/svg">
<path d="M18.0469 14.7656C16.2373 14.7656 14.7656 16.2373 14.7656 18.0469C14.7656 19.8565 16.2373 21.3281 18.0469 21.3281C19.8565 21.3281 21.3281 19.8565 21.3281 18.0469C21.3281 16.2373 19.8565 14.7656 18.0469 14.7656ZM18.0469 20.2344C16.8405 20.2344 15.8594 19.2533 15.8594 18.0469C15.8594 16.8405 16.8405 15.8594 18.0469 15.8594C19.2533 15.8594 20.2344 16.8405 20.2344 18.0469C20.2344 19.2533 19.2533 20.2344 18.0469 20.2344Z" fill="#ff0000"/>
<path d="M30.1235 19.6503C30.823 19.5328 31.5334 19.4841 32.2498 19.5054C32.5484 19.5027 32.8032 19.2763 32.812 18.9739C32.8207 18.672 32.5828 18.4204 32.281 18.4117C31.0084 18.3767 29.7544 18.5484 28.5392 18.9055C28.5037 18.9132 28.4703 18.9235 28.437 18.9383C28.2335 19.0001 28.0301 19.0608 27.8289 19.1335C26.4283 19.0586 25.2399 18.2739 24.6406 17.016C24.0259 15.7243 24.1916 14.0367 25.0425 12.9107C25.077 12.8653 25.1054 12.8139 25.1251 12.757C25.2104 12.5103 25.3072 12.2686 25.4051 12.028H25.4111C26.3824 12.028 27.3432 11.8913 28.2707 11.6381C29.2912 12.355 30.4949 12.74 31.7368 12.74C31.9293 12.74 32.1224 12.7307 32.316 12.7121C32.6167 12.6837 32.8371 12.4168 32.8087 12.116C32.7797 11.8147 32.5096 11.585 32.2126 11.6239C31.3157 11.7092 30.4292 11.5467 29.6308 11.1694C30.508 10.8003 31.3403 10.3201 32.0999 9.72784C32.3384 9.5419 32.3805 9.19846 32.1946 8.96057C32.0086 8.72214 31.6646 8.68057 31.4267 8.86596C29.8397 10.1046 27.9092 10.8221 25.9077 10.9222C26.781 9.2094 27.9907 7.68034 29.4722 6.43456C29.7035 6.24042 29.7331 5.89534 29.5389 5.66401C29.3448 5.43268 29.0003 5.40315 28.7684 5.59729C26.9467 7.12909 25.5106 9.06065 24.5569 11.229C24.5514 11.2394 24.5471 11.2492 24.5427 11.2602C24.3994 11.5872 24.2671 11.9197 24.1467 12.2571C23.3264 13.0255 22.1889 13.2257 21.3435 12.7296C20.3974 12.1757 19.9221 11.0245 20.2136 9.99198C20.2158 9.98432 20.2142 9.97721 20.2158 9.96956C20.2174 9.96245 20.2224 9.95698 20.2235 9.94932C20.3159 9.47956 20.3788 9.00542 20.428 8.53018C22.1435 7.50315 23.4227 5.90737 24.0357 3.99495C24.1276 3.70729 23.9696 3.39886 23.6819 3.30698C23.3937 3.2162 23.0864 3.3737 22.9945 3.66026C22.5433 5.06792 21.6738 6.27596 20.5128 7.15534C20.5166 6.9355 20.5128 6.7162 20.5067 6.49636C20.5057 6.47229 20.5089 6.44878 20.5046 6.42526C20.4603 4.93229 20.2131 3.44589 19.751 2.01854C19.658 1.73089 19.3506 1.57339 19.0624 1.66636C18.7753 1.75932 18.6178 2.06721 18.7108 2.35487C19.0635 3.44534 19.2801 4.573 19.372 5.70995C18.1421 5.13245 17.2348 4.02393 16.94 2.66276C16.876 2.368 16.5846 2.17987 16.2898 2.24386C15.9945 2.30784 15.8074 2.59878 15.8709 2.89409C16.2794 4.77862 17.6269 6.27487 19.425 6.90596C19.4245 7.80995 19.3386 8.71393 19.1718 9.60534C17.8325 11.2137 16.6447 12.0313 14.0667 12.0313C11.7666 12.0313 9.92416 11.3499 8.59143 10.0057C8.59088 10.0051 8.59088 10.0051 8.59034 10.0051C8.59034 10.0051 8.58979 10.0046 8.58979 10.004C8.39674 9.81042 8.22065 9.60315 8.03635 9.40245C8.66416 7.60761 8.91299 5.67276 8.74784 3.78057C8.72159 3.47979 8.46456 3.25284 8.15557 3.28346C7.85479 3.30971 7.63166 3.57495 7.65846 3.87573C7.79135 5.40315 7.63057 6.95956 7.19963 8.43339C6.29182 7.30409 5.50323 6.0851 4.86666 4.77425C4.73487 4.5019 4.40674 4.38925 4.13604 4.52159C3.86424 4.65339 3.75104 4.97987 3.88338 5.25221C4.34823 6.20979 4.89127 7.12089 5.49448 7.98932C4.60526 7.96362 3.72041 7.85862 2.85088 7.6694C2.55612 7.6005 2.26463 7.7919 2.2001 8.08721C2.13557 8.38198 2.32315 8.67346 2.61791 8.738C3.69963 8.9737 4.80487 9.09237 5.91174 9.09237C6.04791 9.09237 6.18409 9.0869 6.32026 9.08307C6.53245 9.34831 6.74956 9.60862 6.97487 9.86292C7.00276 9.90065 7.03174 9.93511 7.06893 9.96518C7.30627 10.2293 7.53924 10.4973 7.79081 10.7494C7.79081 10.7494 7.7908 10.7499 7.79135 10.7499L7.85971 10.8287C9.38932 12.5765 11.4844 14.9691 11.4844 16.9532C11.4844 18.6266 10.1156 19.483 8.53073 20.4745C8.37213 20.5735 8.21245 20.6746 8.05331 20.7758C6.27268 20.749 4.66979 20.2574 3.02534 19.2243C2.76995 19.0641 2.43252 19.1417 2.27174 19.396C2.11041 19.6525 2.18752 19.9899 2.44346 20.1507C3.8276 21.0203 5.18877 21.5442 6.63416 21.7596C5.12534 22.8545 3.6887 24.056 2.35323 25.3521C2.13666 25.5626 2.1312 25.9088 2.34174 26.1253C2.44948 26.2358 2.59166 26.291 2.7344 26.291C2.87166 26.291 3.00893 26.2396 3.11502 26.1368C3.88831 25.386 4.69877 24.6707 5.53495 23.9865C5.11659 25.6184 4.91041 27.294 4.9219 28.9882C4.92409 29.289 5.16854 29.5313 5.46877 29.5313H5.4726C5.77448 29.5291 6.01784 29.2824 6.01565 28.9806C6.00088 26.8795 6.34323 24.809 7.02682 22.8239C7.50206 22.4733 7.98385 22.1332 8.47385 21.8061C9.87877 21.0985 11.5528 21.3189 12.8521 22.3836C14.0618 23.3751 14.6038 24.9282 14.2899 26.401C12.5563 27.0599 10.9315 27.9607 9.4637 29.0998C9.22471 29.2852 9.18151 29.6286 9.3669 29.8671C9.47409 30.0054 9.63541 30.0782 9.79838 30.0782C9.91541 30.0782 10.0335 30.041 10.1331 29.9633C11.3947 28.9844 12.7827 28.1969 14.2554 27.5932C14.2669 27.726 14.2866 27.8578 14.3041 27.9902C13.3093 29.1878 13.0583 32.0699 13.1267 32.859C13.1518 33.1445 13.3903 33.3594 13.6714 33.3594C13.6872 33.3594 13.7031 33.3589 13.7189 33.3572C14.0197 33.331 14.2428 33.0663 14.2166 32.7655C14.1564 32.0693 14.3533 30.5643 14.7131 29.5367C14.9992 30.1957 15.4148 30.7978 15.936 31.2944C16.4003 31.7363 16.8695 32.0261 17.4585 32.2345C17.5192 32.2553 17.5804 32.2657 17.6411 32.2657C17.8664 32.2657 18.077 32.1257 18.1568 31.9014C18.2574 31.6165 18.1087 31.3037 17.8238 31.2036C17.3814 31.0467 17.0423 30.8372 16.6906 30.502C16.0207 29.8643 15.569 29.009 15.4186 28.093C15.3535 27.6992 15.3218 27.2973 15.3169 26.8975C15.8539 25.4877 16.969 24.4672 18.3958 24.0948C19.8084 23.7235 21.3314 24.0335 22.4323 24.8883C22.4837 26.8467 23.0721 28.7405 24.1533 30.38C24.2578 30.5386 24.4322 30.625 24.6099 30.625C24.7133 30.625 24.8178 30.5955 24.9102 30.5348C25.1623 30.3685 25.2317 30.0289 25.066 29.7768C24.2167 28.4889 23.7076 27.0255 23.5632 25.5019C25.3707 26.4578 26.8839 27.866 27.9738 29.6149C28.0771 29.7817 28.256 29.8731 28.4386 29.8731C28.5376 29.8731 28.6371 29.8463 28.7274 29.7905C28.9839 29.6308 29.0621 29.2939 28.9024 29.0374C28.2439 27.9803 27.4411 27.0403 26.524 26.2309C27.5122 26.1111 28.5103 26.1117 29.505 26.2451C29.8025 26.2839 30.0792 26.0745 30.1197 25.7759C30.1596 25.4762 29.9496 25.2011 29.6499 25.1612C28.2122 24.9692 26.7674 25.0272 25.3499 25.3182C24.7724 24.9189 24.1599 24.5673 23.5162 24.266C23.5151 22.802 23.5288 21.7372 24.1599 21.1056C24.7527 20.5111 25.9383 20.2344 27.8906 20.2344C27.9546 20.2344 28.0192 20.2229 28.0826 20.1999C28.256 20.1349 28.4326 20.0873 28.6082 20.031C29.8479 20.6779 30.9646 21.5819 31.8391 22.6724C31.9474 22.8074 32.106 22.8774 32.2662 22.8774C32.3865 22.8774 32.5068 22.8381 32.608 22.7571C32.8437 22.5679 32.8814 22.2239 32.6928 21.9888C31.9671 21.0837 31.0926 20.2929 30.1235 19.6503ZM23.3849 20.3328C22.5805 21.1378 22.4465 22.2584 22.4252 23.5621C21.151 22.8463 19.6066 22.6456 18.1191 23.0355C17.062 23.3117 16.1241 23.893 15.4022 24.6898C15.1889 23.4839 14.5453 22.3568 13.545 21.5371C12.7023 20.8464 11.7059 20.4411 10.6942 20.3378C11.7573 19.5164 12.5781 18.5085 12.5781 16.9532C12.5781 15.4996 11.7491 13.9809 10.7297 12.5918C11.7354 12.944 12.8565 13.125 14.0667 13.125C16.4462 13.125 17.8686 12.4666 19.1046 11.2903C19.2992 12.2626 19.9008 13.1524 20.7906 13.6741C21.5617 14.1253 22.4832 14.2078 23.351 13.9519C23.0426 15.1146 23.1334 16.3926 23.654 17.4858C24.0292 18.2728 24.581 18.9181 25.2558 19.3857C24.4339 19.5782 23.8274 19.8893 23.3849 20.3328Z" fill="#ff0000"/>
</svg>
