<svg width="38" height="38" viewBox="0 0 38 38" fill="none" xmlns="http://www.w3.org/2000/svg">
<path d="M22.675 18.7186C22.2348 18.7186 21.8019 18.6079 21.4123 18.3891C20.7197 18.0019 20.2483 17.3309 20.1184 16.5492C19.9573 15.5824 19.4065 14.7358 18.6056 14.2307L9.08156 8.21326C8.81219 8.0425 8.73042 7.68655 8.90118 7.41719C9.07194 7.14782 9.42789 7.06605 9.69725 7.23681L19.2213 13.2543C20.2988 13.9349 21.0419 15.0677 21.256 16.3592C21.3281 16.7945 21.5903 17.1673 21.9775 17.3838C22.6269 17.7469 23.459 17.5497 23.8751 16.9316C23.9737 16.7873 24.0435 16.6286 24.0819 16.4626C24.2455 15.782 24.6207 15.1903 25.1642 14.7502C25.2965 14.642 25.4095 14.5121 25.4985 14.3606C25.8761 13.7209 25.6981 12.8815 25.0921 12.451C24.6736 12.1552 24.1421 12.0998 23.6731 12.3067C22.7183 12.7276 21.6336 12.653 20.7702 12.1071L10.6569 5.71681C10.3875 5.54605 10.3057 5.1901 10.4765 4.92073C10.6473 4.65136 11.0032 4.56959 11.2726 4.74035L21.3859 11.1306C21.9246 11.4697 22.6028 11.5154 23.2065 11.2485C24.0507 10.8757 25.0055 10.9719 25.7583 11.5058C26.2898 11.881 26.6578 12.4414 26.7948 13.0811C26.9319 13.7209 26.8237 14.3822 26.4942 14.9426C26.3355 15.212 26.1335 15.4477 25.893 15.6425C25.5466 15.9215 25.3109 16.2991 25.2051 16.732C25.133 17.0326 25.0079 17.3164 24.8323 17.5762C24.4692 18.1149 23.9184 18.4949 23.2811 18.6464C23.079 18.6945 22.877 18.7186 22.675 18.7186Z" fill="#ff0000"/>
<path d="M23.512 35.251C23.4807 35.251 23.4471 35.2486 23.4158 35.2438C23.1007 35.1909 22.8891 34.8926 22.9444 34.5776L24.1181 27.6606C24.3826 26.0637 25.1907 24.6278 26.3884 23.6177C26.6458 23.4013 26.8093 23.0958 26.8478 22.7567C26.9248 22.0833 26.463 21.4556 25.7968 21.3233C25.6164 21.2872 25.436 21.2896 25.2581 21.3281C24.652 21.4628 24.0291 21.3569 23.4976 21.0347C23.3436 20.9409 23.1729 20.8807 22.9901 20.8567C22.3191 20.7653 21.6793 21.2126 21.5326 21.874C21.4436 22.2805 21.5446 22.6966 21.814 23.0116C22.5812 23.9135 22.9083 25.1185 22.7087 26.3186L21.3546 34.3178C21.3017 34.6329 21.0035 34.8445 20.6884 34.7916C20.3734 34.7387 20.1617 34.4405 20.2146 34.1254L21.5663 26.1286C21.7106 25.2676 21.4773 24.4042 20.9314 23.7596C20.4263 23.1656 20.2339 22.3887 20.4022 21.6263C20.6764 20.3829 21.879 19.5435 23.1416 19.7143C23.4831 19.76 23.803 19.873 24.094 20.051C24.3682 20.2169 24.6905 20.2723 25.0031 20.2025C25.3374 20.128 25.6765 20.1256 26.0157 20.1929C27.2663 20.4406 28.1321 21.6239 27.9902 22.889C27.9181 23.5215 27.6126 24.0939 27.1268 24.5028C26.1383 25.3349 25.4721 26.5254 25.2509 27.853L24.0772 34.7724C24.0315 35.0514 23.7886 35.251 23.512 35.251Z" fill="#ff0000"/>
<path d="M28.589 19.8273C28.5337 19.8273 28.4784 19.8249 28.4231 19.8177L26.7467 19.618C26.2272 19.5555 25.7943 19.214 25.614 18.7234C25.4336 18.2327 25.5442 17.6916 25.9002 17.3092C26.2369 16.9484 26.5976 16.5588 26.9055 16.2293C27.2109 15.9022 27.6559 15.7435 28.0984 15.8012C28.5409 15.8613 28.9305 16.1331 29.1374 16.5275L29.8084 17.807C30.0465 18.2616 30.0128 18.8075 29.7218 19.2308C29.4645 19.606 29.0388 19.8273 28.589 19.8273ZM27.9156 16.9412C27.8699 16.9412 27.8074 16.9532 27.7521 17.0134C27.4442 17.3453 27.0834 17.7325 26.7467 18.0932C26.665 18.1822 26.6818 18.276 26.701 18.3241C26.7179 18.3722 26.766 18.4564 26.8862 18.4708L28.5626 18.6705C28.6804 18.6849 28.7453 18.6175 28.7742 18.5742C28.8031 18.5334 28.844 18.4468 28.7886 18.341L28.1176 17.0615C28.0695 16.9725 27.9902 16.9484 27.9469 16.9436C27.9372 16.9412 27.9276 16.9412 27.9156 16.9412Z" fill="#ff0000"/>
<path d="M28.6851 37.4709C28.6467 37.4709 28.6106 37.4661 28.5721 37.4588C28.2594 37.3963 28.0574 37.0933 28.1199 36.7806L31.4726 20.0462C32.1701 16.5588 30.602 12.9681 27.5692 11.109L12.0277 1.59935C11.7559 1.4334 11.6693 1.07746 11.8377 0.805683C12.006 0.533911 12.3596 0.447329 12.6313 0.615683L28.1705 10.1253C29.8684 11.1643 31.1864 12.6771 31.9825 14.5025C32.7786 16.3256 32.995 18.3218 32.603 20.2747L29.2503 37.0091C29.1974 37.2809 28.9545 37.4709 28.6851 37.4709Z" fill="#ff0000"/>
<path d="M15.9119 35.744C15.8518 35.744 15.7892 35.7344 15.7267 35.7128C15.4237 35.6117 15.2625 35.2822 15.3635 34.9816C15.3828 34.9239 17.3381 29.0628 16.7465 26.0276C16.4627 24.5821 16.6815 22.9106 17.3958 21.0563C17.6748 20.33 17.9778 19.7215 18.2015 19.3078C16.2294 18.4685 14.3654 17.5425 12.6506 16.5468C11.1354 15.669 9.73329 14.7358 8.48266 13.7738C6.33493 12.1263 5.37772 10.9647 5.33924 10.9166C5.13721 10.6688 5.17569 10.3057 5.42101 10.1036C5.66873 9.90162 6.0319 9.9401 6.23152 10.1854C6.24114 10.1974 7.16949 11.3182 9.22823 12.8935C11.1306 14.3486 14.4111 16.5035 19.2477 18.4949C19.4065 18.5598 19.5267 18.6921 19.5796 18.8557C19.6301 19.0192 19.6085 19.1972 19.5147 19.3415C19.493 19.3752 17.2996 22.8529 17.8792 25.8063C18.531 29.1421 16.5444 35.0995 16.4578 35.352C16.3761 35.5925 16.1524 35.744 15.9119 35.744Z" fill="#ff0000"/>
</svg>
