<svg width="40" height="40" viewBox="0 0 40 40" fill="none" xmlns="http://www.w3.org/2000/svg">
<path d="M38.4482 24.153L38.4395 24.138C38.0392 23.5287 37.4283 23.0884 36.7237 22.9015C36.0191 22.7146 35.2703 22.7941 34.6207 23.1249L30.6157 25.173C30.136 24.4996 29.4303 24.021 28.6272 23.8245C27.8241 23.6279 26.9771 23.7266 26.2407 24.1024L21.197 26.6874C20.9339 26.8229 20.6419 26.8927 20.346 26.8909C20.05 26.889 19.7589 26.8156 19.4976 26.6768L16.0601 24.8518C14.7592 24.1573 13.2913 23.8369 11.8194 23.926C10.3474 24.0152 8.92892 24.5104 7.72133 25.3568L7.33321 23.5055C7.31628 23.4249 7.2836 23.3485 7.23704 23.2806C7.19048 23.2127 7.13097 23.1547 7.06192 23.1098C6.99287 23.065 6.91563 23.0342 6.83466 23.0193C6.75369 23.0044 6.67057 23.0057 6.59008 23.023L1.74321 24.0686C1.58187 24.1034 1.44084 24.2007 1.35091 24.3391C1.26099 24.4775 1.22946 24.6458 1.26321 24.8074L4.08508 38.253C4.11386 38.394 4.19038 38.5207 4.30174 38.6118C4.41309 38.7029 4.55247 38.7528 4.69633 38.753C4.74043 38.7528 4.7844 38.7482 4.82758 38.7393L9.67696 37.6955C9.83843 37.6607 9.97957 37.5634 10.0695 37.4249C10.1595 37.2863 10.1909 37.1178 10.157 36.9561L9.90696 35.753L11.5638 35.3961C12.0467 35.2929 12.5438 35.2739 13.0332 35.3399L20.8257 36.1943C22.4436 36.4082 24.0839 36.0232 25.4376 35.1118L37.9207 26.7368C38.3289 26.4605 38.6126 26.0354 38.7112 25.5524C38.8098 25.0695 38.7154 24.5672 38.4482 24.153ZM5.17883 37.3818L2.61633 25.1599L6.24133 24.3786L8.80383 36.6011L5.17883 37.3818ZM37.2251 25.7005L24.742 34.0755C23.6351 34.818 22.2946 35.1292 20.9738 34.9505L13.1813 34.0961C12.5542 34.0116 11.9172 34.037 11.2988 34.1711L9.64758 34.5261L8.00008 26.6874L8.42696 26.3899C9.44628 25.6726 10.6447 25.2523 11.8887 25.1757C13.1327 25.0991 14.3736 25.3693 15.4732 25.9561L18.9107 27.7811C19.35 28.0146 19.8393 28.1383 20.3368 28.1417C20.8342 28.1451 21.3252 28.028 21.7676 27.8005L26.8126 25.2124C27.3169 24.9547 27.9009 24.9003 28.4441 25.0606C28.9873 25.2208 29.4483 25.5834 29.732 26.0736C29.8152 26.2172 29.8387 26.3877 29.7973 26.5483C29.7559 26.709 29.6529 26.847 29.5107 26.9324L22.5557 31.0574C21.3397 31.7826 19.8913 32.012 18.5107 31.698L12.2382 30.198L11.9482 31.4143L18.2263 32.9143C19.9209 33.3025 21.6999 33.0225 23.1932 32.1324L30.1482 28.0074C30.4331 27.8364 30.6675 27.5927 30.8272 27.3014C30.987 27.01 31.0665 26.6814 31.0576 26.3493L35.1876 24.2361C35.5616 24.0462 35.9923 24.0004 36.3979 24.1075C36.8034 24.2146 37.1554 24.467 37.387 24.8168L37.3938 24.8274C37.4839 24.9666 37.5166 25.1352 37.4852 25.2979C37.4537 25.4607 37.3605 25.6049 37.2251 25.7005Z" fill="#fc5e5e"/>
<path d="M5.29557 25.8632L4.07227 26.1201L4.32895 27.3422L5.55226 27.0853L5.29557 25.8632Z" fill="#fc5e5e"/>
<path d="M19.6323 24.88C19.7392 24.9579 19.8681 24.9999 20.0004 24.9999C20.1328 24.9999 20.2616 24.9579 20.3686 24.88C26.6398 20.3056 30.5004 15.9438 31.9029 11.875H35.1154C35.2629 12.292 35.553 12.6435 35.9345 12.8673C36.316 13.0911 36.7643 13.1728 37.2003 13.098C37.6362 13.0232 38.0317 12.7967 38.3168 12.4585C38.6019 12.1204 38.7582 11.6923 38.7582 11.25C38.7582 10.8077 38.6019 10.3796 38.3168 10.0415C38.0317 9.7033 37.6362 9.4768 37.2003 9.40201C36.7643 9.32721 36.316 9.40894 35.9345 9.63273C35.553 9.85653 35.2629 10.208 35.1154 10.625H32.2504C32.3569 10.1643 32.4311 9.69669 32.4723 9.22563C32.5827 8.2765 32.5005 7.31486 32.2305 6.39827C31.9605 5.48168 31.5083 4.62899 30.9011 3.89125C30.2847 3.07011 29.4855 2.40388 28.5668 1.94541C27.6482 1.48694 26.6353 1.24884 25.6086 1.25C23.545 1.33069 21.569 2.10541 20.0004 3.44875C18.4319 2.10541 16.4559 1.33069 14.3923 1.25C13.3654 1.24889 12.3524 1.487 11.4335 1.94546C10.5147 2.40392 9.71521 3.07012 9.09857 3.89125C8.49161 4.62915 8.03968 5.48188 7.76981 6.39843C7.49995 7.31499 7.41769 8.27655 7.52795 9.22563C7.90482 14.0288 11.9773 19.2963 19.6323 24.88ZM36.8754 10.625C36.9991 10.625 37.1199 10.6617 37.2227 10.7303C37.3255 10.799 37.4056 10.8966 37.4529 11.0108C37.5002 11.125 37.5126 11.2507 37.4884 11.3719C37.4643 11.4932 37.4048 11.6045 37.3174 11.6919C37.23 11.7794 37.1186 11.8389 36.9974 11.863C36.8761 11.8871 36.7505 11.8747 36.6363 11.8274C36.5221 11.7801 36.4245 11.7 36.3558 11.5972C36.2871 11.4945 36.2504 11.3736 36.2504 11.25C36.2504 11.0842 36.3163 10.9253 36.4335 10.8081C36.5507 10.6909 36.7097 10.625 36.8754 10.625ZM10.0279 4.72688C10.0572 4.69796 10.0833 4.66613 10.1061 4.63188C10.6072 3.96951 11.2551 3.43231 11.9988 3.06242C12.7424 2.69253 13.5617 2.50002 14.3923 2.5C17.2886 2.5 19.5361 4.70563 19.5586 4.7275C19.6166 4.78561 19.6855 4.83171 19.7614 4.86317C19.8373 4.89462 19.9186 4.91081 20.0008 4.91081C20.0829 4.91081 20.1642 4.89462 20.2401 4.86317C20.316 4.83171 20.3849 4.78561 20.4429 4.7275C20.4654 4.70438 22.6967 2.5 25.6086 2.5C26.4397 2.49687 27.2601 2.68799 28.0043 3.05813C28.7485 3.42826 29.3958 3.96718 29.8948 4.63188C29.9176 4.66613 29.9437 4.69796 29.9729 4.72688C30.4685 5.3371 30.8351 6.04149 31.0506 6.79745C31.2661 7.55341 31.326 8.34522 31.2267 9.125C31.1851 9.63151 31.0994 10.1334 30.9704 10.625H25.9879L23.6679 6.5625C23.6098 6.45988 23.5238 6.3758 23.4199 6.31998C23.3161 6.26415 23.1985 6.23887 23.0808 6.24704C22.9632 6.25521 22.8502 6.2965 22.755 6.36615C22.6599 6.4358 22.5863 6.53096 22.5429 6.64063L19.4523 14.375L17.4723 7.94125C17.4368 7.82585 17.3687 7.7232 17.2761 7.64571C17.1835 7.56822 17.0704 7.5192 16.9506 7.50459C16.8307 7.48998 16.7092 7.5104 16.6007 7.56338C16.4922 7.61636 16.4014 7.69963 16.3392 7.80313L14.6461 10.625H10.6254V11.875H15.0004C15.1083 11.875 15.2143 11.8471 15.3082 11.7939C15.402 11.7408 15.4805 11.6643 15.5361 11.5719L16.6879 9.64875L18.7761 16.4338C18.8146 16.5567 18.8903 16.6648 18.9927 16.7431C19.0951 16.8215 19.2191 16.8662 19.3479 16.8713H19.3754C19.5004 16.8713 19.6226 16.8339 19.7261 16.7638C19.8296 16.6937 19.9097 16.5942 19.9561 16.4781L23.2248 8.305L25.0829 11.555C25.1369 11.6516 25.2156 11.7321 25.3109 11.7883C25.4063 11.8446 25.5148 11.8745 25.6254 11.875H30.5629C29.4061 14.82 26.5286 18.77 20.0004 23.5994C11.1936 17.0844 9.03107 12.1675 8.77795 9.175C8.67115 8.38751 8.72698 7.58647 8.94198 6.8214C9.15697 6.05633 9.52658 5.34347 10.0279 4.72688Z" fill="#fc5e5e"/>
<path d="M6.25 10.625H1.25V11.875H6.25V10.625Z" fill="#fc5e5e"/>
</svg>
