<svg width="40" height="40" viewBox="0 0 40 40" fill="none" xmlns="http://www.w3.org/2000/svg">
<path d="M8.35251 4.87646C8.02885 4.87646 7.7666 5.13872 7.7666 5.46237V7.78365C7.7666 8.1073 8.02885 8.36956 8.35251 8.36956H9.56236C9.88602 8.36956 10.1483 8.1073 10.1483 7.78365C10.1483 7.46 9.88602 7.19774 9.56236 7.19774H8.93841V5.46237C8.93841 5.13872 8.67616 4.87646 8.35251 4.87646Z" fill="#fc5e5e"/>
<path d="M5.59778 13.437H5.60247C5.92393 13.437 6.1858 13.1777 6.1883 12.8557C6.18955 12.6958 6.19126 12.4676 6.19314 12.2006C6.46906 12.1531 6.67905 11.9125 6.67905 11.6231C6.67905 11.3361 6.47266 11.0973 6.20017 11.047C6.20509 10.0694 6.2072 9.08081 6.19611 8.93465C6.16642 8.5428 5.93409 8.22828 5.60434 8.13329C5.28061 8.04009 4.94735 8.17235 4.71439 8.48741C4.4944 8.7852 3.50008 10.7621 3.20057 11.361C3.10971 11.5426 3.1194 11.7583 3.22619 11.931C3.3329 12.1039 3.52149 12.209 3.7246 12.209H5.02117C5.01961 12.4339 5.01805 12.6494 5.01648 12.8465C5.01391 13.17 5.2742 13.4345 5.59778 13.437ZM4.67619 11.0372C4.79876 10.796 4.91891 10.5614 5.03109 10.3444C5.03031 10.5636 5.02937 10.7976 5.02812 11.0372H4.67619Z" fill="#fc5e5e"/>
<path d="M0.483171 10.1859C0.802373 10.2429 1.10603 10.0304 1.16274 9.7119C1.20141 9.49457 1.35711 9.33684 1.53288 9.33684C1.62342 9.33684 1.71412 9.38043 1.78185 9.45629C1.8731 9.55878 1.91466 9.70948 1.89997 9.88283C1.85411 10.0775 1.74779 10.3071 1.58366 10.5657C0.987597 11.5052 0.631913 12.0189 0.44083 12.2949C0.198968 12.6442 0.0657725 12.8366 0.161705 13.1396C0.218655 13.3196 0.354272 13.4606 0.533716 13.5265C0.61832 13.5576 0.678786 13.58 1.42968 13.58C1.72256 13.58 2.12066 13.5766 2.6661 13.569C2.98968 13.5644 3.24825 13.2985 3.2438 12.9749C3.23935 12.6542 2.97796 12.3971 2.65813 12.3971C2.6554 12.3971 2.65266 12.3971 2.64985 12.3972C2.36213 12.4012 2.05941 12.4042 1.78419 12.4057C1.98293 12.1095 2.2419 11.7156 2.57329 11.1933C2.77844 10.87 3.02311 10.377 3.06155 10.0437C3.12186 9.52269 2.97827 9.03725 2.65696 8.67664C2.36721 8.35135 1.95754 8.16479 1.53304 8.16479C0.788545 8.16479 0.147643 8.7289 0.00921305 9.50613C-0.0476588 9.82486 0.164673 10.1291 0.483171 10.1859Z" fill="#fc5e5e"/>
<path d="M2.27698 7.57408C2.39174 7.71806 2.56212 7.79485 2.73555 7.79485C2.83656 7.79485 2.93866 7.76876 3.03108 7.7147L4.83442 6.6596C5.1137 6.49617 5.20768 6.13729 5.04433 5.85801C4.8809 5.5788 4.52201 5.48474 4.24273 5.64809L3.63401 6.00425C3.81721 5.51537 4.07399 5.06133 4.39585 4.65518L4.50154 4.76088C4.61599 4.87525 4.76598 4.93243 4.9159 4.93243C5.06581 4.93243 5.2158 4.87525 5.33025 4.76088C5.55906 4.53198 5.55906 4.16107 5.33025 3.93225L5.22611 3.82812C5.31533 3.75781 5.40728 3.69016 5.5018 3.62531C6.18841 3.15456 6.96297 2.86645 7.76699 2.77341V3.56852C7.76699 3.89218 8.02924 4.15443 8.3529 4.15443C8.67655 4.15443 8.9388 3.89218 8.9388 3.56852V2.7756C9.05161 2.78895 9.16449 2.80614 9.27722 2.82716C10.1102 2.98254 10.8573 3.33557 11.4791 3.82874L11.3757 3.93217C11.1469 4.16107 11.1469 4.53198 11.3757 4.7608C11.4901 4.87517 11.6401 4.93235 11.7901 4.93235C11.94 4.93235 12.09 4.87517 12.2044 4.7608L12.3067 4.65846C12.8784 5.38256 13.251 6.25978 13.3613 7.19762H12.5682C12.2446 7.19762 11.9823 7.45987 11.9823 7.78352C11.9823 8.10718 12.2446 8.36943 12.5682 8.36943H13.3609C13.3476 8.48192 13.3306 8.59481 13.3095 8.70777C13.1542 9.54077 12.8011 10.2879 12.3079 10.9097L12.2045 10.8063C11.9756 10.5775 11.6047 10.5775 11.3759 10.8063C11.147 11.0351 11.147 11.4061 11.3759 11.6349L11.4781 11.7371C10.3749 12.6079 8.91599 13.017 7.42881 12.7399C7.11078 12.6805 6.80478 12.8904 6.74541 13.2085C6.68611 13.5266 6.89587 13.8325 7.21397 13.8919C7.59739 13.9633 7.97901 13.9978 8.35571 13.9978C11.3014 13.9976 13.9072 11.8949 14.4615 8.92252C15.0871 5.56786 12.8755 2.30601 9.49221 1.67503C6.39808 1.09827 3.37723 2.93504 2.43431 5.8905L1.89184 5.20952C1.69021 4.95657 1.32156 4.91485 1.06845 5.11641C0.815418 5.31803 0.773701 5.68669 0.975331 5.9398L2.27698 7.57408Z" fill="#fc5e5e"/>
<path d="M39.0223 26.6856L34.4089 24.8931C34.2929 24.8481 34.207 24.744 34.1847 24.6215L32.9278 17.7171C32.6977 16.4527 31.5979 15.535 30.3126 15.535H24.0687V13.7852C24.0687 12.4698 22.9986 11.3997 21.6833 11.3997C20.3679 11.3997 19.2978 12.4698 19.2978 13.7852V15.535H2.7211C1.22181 15.535 0.00195312 16.7548 0.00195312 18.2542V33.0219C0.00195312 34.5213 1.22173 35.7411 2.7211 35.7411H4.11087C4.38789 37.2686 5.72758 38.4304 7.33358 38.4304C8.93959 38.4304 10.2794 37.2686 10.5563 35.7411H20.5505C20.8742 35.7411 21.1364 35.4789 21.1364 35.1552C21.1364 34.8316 20.8742 34.5693 20.5505 34.5693H10.5564C10.2794 33.0419 8.93967 31.8799 7.33358 31.8799C5.7275 31.8799 4.38773 33.0418 4.11079 34.5693H2.7211C1.86787 34.5693 1.17376 33.8752 1.17376 33.0219V30.9045H38.828V34.2086C38.828 34.4075 38.6662 34.5693 38.4672 34.5693H36.6255C36.3486 33.0419 35.0088 31.8799 33.4027 31.8799C31.7966 31.8799 30.4569 33.0418 30.1799 34.5693H22.816C22.4924 34.5693 22.2301 34.8316 22.2301 35.1552C22.2301 35.4789 22.4924 35.7411 22.816 35.7411H30.1799C30.4569 37.2686 31.7966 38.4304 33.4026 38.4304C35.0086 38.4304 36.3484 37.2686 36.6253 35.7411H38.4671C39.3122 35.7411 39.9997 35.0536 39.9997 34.2086V28.1142C39.9998 27.4771 39.6162 26.9164 39.0223 26.6856ZM7.33358 33.0517C8.49344 33.0517 9.43706 33.9953 9.43706 35.1552C9.43706 36.315 8.49344 37.2586 7.33358 37.2586C6.17373 37.2586 5.2301 36.315 5.2301 35.1552C5.2301 33.9953 6.1738 33.0517 7.33358 33.0517ZM33.4027 37.2586C32.2428 37.2586 31.2992 36.3149 31.2992 35.1551C31.2992 33.9952 32.2428 33.0516 33.4027 33.0516C34.5626 33.0516 35.5062 33.9952 35.5062 35.1551C35.5062 36.3149 34.5626 37.2586 33.4027 37.2586ZM20.4697 13.7852C20.4697 13.116 21.0142 12.5715 21.6833 12.5715C22.3525 12.5715 22.897 13.116 22.897 13.7852V15.535H20.4697V13.7852ZM1.17384 29.7326V18.2542C1.17384 17.401 1.86794 16.7068 2.72118 16.7068H4.01134V20.4352C4.01134 20.7588 4.27359 21.0211 4.59725 21.0211C4.9209 21.0211 5.18315 20.7588 5.18315 20.4352V16.7068H16.0808V25.3248C16.0808 25.6316 15.8312 25.8812 15.5244 25.8812H5.73945C5.43267 25.8812 5.18308 25.6316 5.18308 25.3248V22.7006C5.18308 22.377 4.92083 22.1147 4.59717 22.1147C4.27352 22.1147 4.01127 22.377 4.01127 22.7006V25.3248C4.01127 26.2777 4.78654 27.053 5.73945 27.053H15.5243C16.4772 27.053 17.2526 26.2777 17.2526 25.3248V16.7068H24.2387V21.3514C24.2387 22.7983 25.4159 23.9756 26.8629 23.9756H28.1632C28.4868 23.9756 28.7491 23.7134 28.7491 23.3897C28.7491 23.0661 28.4868 22.8038 28.1632 22.8038H26.8629C26.062 22.8038 25.4105 22.1523 25.4105 21.3514V16.7068H30.3127C31.0314 16.7068 31.6463 17.2199 31.775 17.9269L32.6628 22.8038H30.4287C30.105 22.8038 29.8427 23.0661 29.8427 23.3897C29.8427 23.7134 30.105 23.9756 30.4287 23.9756H32.8761L33.0319 24.8312C33.1266 25.3516 33.4916 25.7938 33.9846 25.9853L38.5979 27.7777C38.7356 27.8313 38.828 27.9664 38.828 28.1141V29.7326H1.17384Z" fill="#fc5e5e"/>
<path d="M27.4045 26.416H26.8369C26.5132 26.416 26.251 26.6783 26.251 27.0019C26.251 27.3256 26.5132 27.5878 26.8369 27.5878H27.4045C27.7282 27.5878 27.9904 27.3256 27.9904 27.0019C27.9904 26.6783 27.7282 26.416 27.4045 26.416Z" fill="#fc5e5e"/>
<path d="M8.20212 21.8799H10.0461V23.7238C10.0461 24.0475 10.3083 24.3097 10.632 24.3097C10.9556 24.3097 11.2179 24.0475 11.2179 23.7238V21.8799H13.0618C13.3854 21.8799 13.6477 21.6177 13.6477 21.294C13.6477 20.9704 13.3854 20.7081 13.0618 20.7081H11.2179V18.8642C11.2179 18.5406 10.9556 18.2783 10.632 18.2783C10.3083 18.2783 10.0461 18.5406 10.0461 18.8642V20.7081H8.20212C7.87846 20.7081 7.61621 20.9704 7.61621 21.294C7.61621 21.6177 7.87854 21.8799 8.20212 21.8799Z" fill="#fc5e5e"/>
</svg>
