<svg width="58" height="58" viewBox="0 0 58 58" fill="none" xmlns="http://www.w3.org/2000/svg">
<g clip-path="url(#clip0_243_2152)" filter="url(#filter0_d_243_2152)">
<path d="M40.2461 0.000286977C33.2899 0.0492407 27.5792 5.74808 27.5162 12.704C27.4814 16.5372 29.1112 20.1006 32.0083 22.5721C31.8129 23.0863 31.5676 23.5803 31.2758 24.0465C30.4169 25.4191 31.3049 27.2201 32.9165 27.3785C33.3717 27.4237 33.782 27.0909 33.8272 26.6306C33.8722 26.1726 33.5375 25.7649 33.0794 25.7199C32.6983 25.6825 32.486 25.2541 32.6886 24.9304C33.1552 24.1845 33.5229 23.3791 33.781 22.5371C33.8824 22.2063 33.769 21.8474 33.4959 21.635C30.7228 19.4785 29.1507 16.2287 29.1827 12.7189C29.2375 6.66727 34.206 1.70929 40.258 1.66669C46.5006 1.62878 51.4949 6.66466 51.4949 12.8227C51.4949 22.1901 43.889 24.8003 39.3552 25.5225C38.9007 25.5949 38.591 26.022 38.6634 26.4765C38.7356 26.9308 39.1617 27.2401 39.6173 27.1683C47.785 25.8671 53.1613 21.051 53.1613 12.8228C53.1613 5.75579 47.4265 -0.0470003 40.2461 0.000286977Z" fill="#ff0000"/>
<path d="M40.7669 6.97852H39.9336C38.5553 6.97852 37.4339 8.09997 37.4339 9.47828V10.8323H36.0798C34.7015 10.8323 33.5801 11.9538 33.5801 13.3321V14.1653C33.5801 15.5437 34.7015 16.6651 36.0798 16.6651H37.4339V18.0191C37.4339 19.3975 38.5553 20.5189 39.9336 20.5189H40.7669C42.1452 20.5189 43.2667 19.3975 43.2667 18.0191V16.6651H44.6207C45.999 16.6651 47.1205 15.5437 47.1205 14.1653V13.3321C47.1205 11.9538 45.999 10.8323 44.6207 10.8323H43.2667V9.47828C43.2667 8.09987 42.1453 6.97852 40.7669 6.97852ZM44.6207 12.4988C45.0801 12.4988 45.454 12.8727 45.454 13.3321V14.1653C45.454 14.6248 45.0801 14.9986 44.6207 14.9986H42.4334C41.9732 14.9986 41.6002 15.3717 41.6002 15.8319V18.0191C41.6002 18.4786 41.2263 18.8524 40.7669 18.8524H39.9336C39.4742 18.8524 39.1004 18.4786 39.1004 18.0191V15.8319C39.1004 15.3717 38.7273 14.9986 38.2671 14.9986H36.0798C35.6204 14.9986 35.2466 14.6248 35.2466 14.1653V13.3321C35.2466 12.8727 35.6204 12.4988 36.0798 12.4988H38.2671C38.7273 12.4988 39.1004 12.1257 39.1004 11.6656V9.47828C39.1004 9.01885 39.4742 8.64503 39.9336 8.64503H40.7669C41.2263 8.64503 41.6002 9.01885 41.6002 9.47828V11.6656C41.6002 12.1257 41.9732 12.4988 42.4334 12.4988H44.6207Z" fill="#ff0000"/>
<path d="M39.8129 32.5734C38.2673 31.6899 36.3011 31.9599 35.0314 33.2295C34.7303 33.531 33.051 36.659 28.8684 35.0986C24.4457 33.4486 20.524 27.4946 23.6688 24.0205C24.2602 23.3763 24.6568 23.1939 24.8203 23.0308C26.0938 21.7573 26.366 19.7885 25.4825 18.2431C24.0228 15.6892 21.8988 13.566 19.34 12.1025C17.822 11.2343 15.8598 11.5055 14.5683 12.7611C4.49745 22.5324 13.0452 38.7167 24.9874 45.2017C22.4382 48.4891 18.0023 49.0277 14.9486 47.5573C15.9003 46.6416 16.5033 45.4705 16.5691 44.2385C16.6505 42.6885 16.085 41.4444 15.0176 40.8252C12.9979 39.6541 10.179 41.2017 10.4771 44.2062C10.5972 45.4141 11.1373 46.5268 11.9982 47.4477C11.7921 47.5206 11.5791 47.5815 11.3609 47.6285C10.3717 47.8418 7.90942 48.0265 6.41206 45.1386C6.20021 44.7299 5.69713 44.5708 5.28873 44.7823C4.88023 44.9942 4.72076 45.4971 4.93251 45.9057C6.33832 48.6171 8.87246 49.8698 11.7124 49.2575C12.3306 49.1242 12.9147 48.9099 13.449 48.6308C14.2304 49.118 15.1386 49.4941 16.1422 49.7286C20.1306 50.6608 24.5164 49.1874 26.9186 45.3408C27.1787 44.9246 27.024 44.3729 26.5831 44.1535C15.0882 38.4328 6.40238 23.0064 15.7294 13.9566C16.4918 13.2152 17.6363 13.0478 18.5127 13.5491C20.8137 14.8651 22.7236 16.7742 24.0357 19.0702C24.536 19.9451 24.3921 21.0586 23.6903 21.8025C23.5281 21.9161 23.3733 22.0345 23.2243 22.1561C21.6995 19.812 19.8275 17.7358 17.6468 15.9757C17.2888 15.6864 16.7641 15.7425 16.4752 16.1007C16.1861 16.4587 16.2421 16.9834 16.6002 17.2723C18.7454 19.004 20.5727 21.0614 22.0389 23.3938C16.8037 30.5114 30.3646 42.7607 36.2528 34.366C36.9931 33.6623 38.1082 33.5185 38.986 34.0202C41.2818 35.3326 43.1909 37.2425 44.5068 39.5432C45.0081 40.4197 44.8406 41.5642 44.0997 42.3263C43.9775 42.4519 43.8546 42.5735 43.7312 42.6918C42.3623 40.5724 40.6987 38.6584 38.7749 36.993C38.427 36.6915 37.9007 36.7297 37.5996 37.0775C37.2982 37.4255 37.3362 37.9517 37.6841 38.2528C39.5442 39.8631 41.1438 41.7209 42.449 43.7815C38.6551 46.6213 34.4823 46.5521 31.4798 45.9049C31.0298 45.8083 30.5867 46.094 30.4897 46.5439C30.3927 46.9939 30.6787 47.4371 31.1287 47.5341C36.7533 48.7463 41.6269 47.2584 45.2946 43.4883C46.5508 42.1962 46.8217 40.2338 45.9536 38.716C44.4902 36.1572 42.3668 34.0331 39.8129 32.5734ZM14.905 44.1504C14.8566 45.0566 14.3256 45.9392 13.5111 46.603C12.7238 45.889 12.2311 45.0036 12.1355 44.0417C11.9719 42.3935 13.3347 41.7755 14.1815 42.2669C14.6962 42.5655 14.953 43.2347 14.905 44.1504Z" fill="#ff0000"/>
</g>
<defs>
<filter id="filter0_d_243_2152" x="0" y="0" width="58" height="58" filterUnits="userSpaceOnUse" color-interpolation-filters="sRGB">
<feFlood flood-opacity="0" result="BackgroundImageFix"/>
<feColorMatrix in="SourceAlpha" type="matrix" values="0 0 0 0 0 0 0 0 0 0 0 0 0 0 0 0 0 0 127 0" result="hardAlpha"/>
<feOffset dy="4"/>
<feGaussianBlur stdDeviation="2"/>
<feComposite in2="hardAlpha" operator="out"/>
<feColorMatrix type="matrix" values="0 0 0 0 0 0 0 0 0 0 0 0 0 0 0 0 0 0 0.25 0"/>
<feBlend mode="normal" in2="BackgroundImageFix" result="effect1_dropShadow_243_2152"/>
<feBlend mode="normal" in="SourceGraphic" in2="effect1_dropShadow_243_2152" result="shape"/>
</filter>
<clipPath id="clip0_243_2152">
<rect width="50" height="50" fill="white" transform="translate(4)"/>
</clipPath>
</defs>
</svg>
