<svg width="52" height="52" viewBox="0 0 52 52" fill="none" xmlns="http://www.w3.org/2000/svg">
<g clip-path="url(#clip0_421_1137)">
<path d="M49.4 4.33337H2.6C1.91044 4.33337 1.24912 4.6073 0.761522 5.0949C0.273928 5.58249 0 6.24381 0 6.93337L0 45.0667C0 45.7563 0.273928 46.4176 0.761522 46.9052C1.24912 47.3928 1.91044 47.6667 2.6 47.6667H29.4667V50.2667C29.4667 50.6095 29.5684 50.9445 29.7589 51.2295C29.9494 51.5145 30.2201 51.7366 30.5367 51.8677C30.8534 51.9989 31.2019 52.0332 31.5381 51.9664C31.8742 51.8995 32.1831 51.7345 32.4255 51.4922L34.6667 49.2492L36.9079 51.4904C37.1502 51.7327 37.4588 51.8977 37.7949 51.9646C38.1309 52.0315 38.4792 51.9973 38.7958 51.8664C39.1124 51.7354 39.3831 51.5136 39.5737 51.2289C39.7643 50.9441 39.8663 50.6093 39.8667 50.2667V47.6667H49.4C50.0896 47.6667 50.7509 47.3928 51.2385 46.9052C51.7261 46.4176 52 45.7563 52 45.0667V6.93337C52 6.24381 51.7261 5.58249 51.2385 5.0949C50.7509 4.6073 50.0896 4.33337 49.4 4.33337ZM29.4667 42.4667H10.3385C10.1491 41.1713 9.54675 39.9715 8.62098 39.0457C7.69522 38.12 6.49545 37.5176 5.2 37.3282V14.6718C6.49545 14.4825 7.69522 13.8801 8.62098 12.9544C9.54675 12.0286 10.1491 10.8288 10.3385 9.53337H41.6615C41.8509 10.8288 42.4533 12.0286 43.379 12.9544C44.3048 13.8801 45.5045 14.4825 46.8 14.6718V37.3282C45.5045 37.5176 44.3048 38.12 43.379 39.0457C42.4533 39.9715 41.8509 41.1713 41.6615 42.4667H39.8667V38.9524C40.3883 38.8313 40.8507 38.5305 41.1727 38.1026C41.4948 37.6748 41.6558 37.1472 41.6277 36.6124L41.6191 36.439C41.6142 36.329 41.6409 36.2198 41.696 36.1245C41.7511 36.0291 41.8324 35.9515 41.9302 35.9008L42.0845 35.8211C42.37 35.6734 42.6215 35.4677 42.823 35.2172C43.0245 34.9667 43.1715 34.677 43.2546 34.3664C43.3377 34.0559 43.3551 33.7314 43.3057 33.4138C43.2563 33.0961 43.1411 32.7923 42.9676 32.5217L42.8749 32.377C42.8154 32.2841 42.7838 32.1761 42.7838 32.0658C42.7838 31.9556 42.8154 31.8476 42.8749 31.7547L42.9676 31.6091C43.1411 31.3385 43.2562 31.0347 43.3055 30.7171C43.3549 30.3995 43.3374 30.0751 43.2542 29.7646C43.171 29.4541 43.0239 29.1644 42.8223 28.914C42.6208 28.6637 42.3692 28.4581 42.0836 28.3106L41.9302 28.2317C41.8324 28.1808 41.7511 28.103 41.696 28.0075C41.6409 27.912 41.6142 27.8028 41.6191 27.6926L41.6277 27.5193C41.6427 27.1981 41.5904 26.8774 41.4743 26.5776C41.3582 26.2778 41.1808 26.0055 40.9535 25.7782C40.7261 25.5508 40.4539 25.3734 40.154 25.2573C39.8542 25.1412 39.5335 25.089 39.2123 25.1039L39.039 25.1126C38.9288 25.1181 38.8194 25.0917 38.7239 25.0365C38.6285 24.9813 38.551 24.8997 38.5008 24.8014L38.4211 24.6472C38.2733 24.3617 38.0677 24.1101 37.8172 23.9086C37.5667 23.7071 37.2769 23.5601 36.9664 23.477C36.6558 23.3939 36.3314 23.3765 36.0137 23.4259C35.6961 23.4753 35.3923 23.5905 35.1217 23.764L34.9769 23.8568C34.884 23.9162 34.7761 23.9478 34.6658 23.9478C34.5555 23.9478 34.4476 23.9162 34.3547 23.8568L34.2091 23.764C33.9385 23.5905 33.6347 23.4754 33.317 23.4261C32.9994 23.3767 32.675 23.3942 32.3645 23.4774C32.0541 23.5606 31.7644 23.7077 31.514 23.9093C31.2636 24.1109 31.0581 24.3625 30.9105 24.648L30.8317 24.8014C30.7807 24.8992 30.7029 24.9804 30.6074 25.0355C30.5119 25.0906 30.4027 25.1173 30.2926 25.1126L30.1193 25.1039C29.7979 25.0872 29.4767 25.1387 29.1766 25.2549C28.8765 25.3711 28.6044 25.5494 28.3781 25.7782C28.1511 26.0058 27.974 26.2781 27.8579 26.5778C27.7418 26.8776 27.6894 27.1982 27.7039 27.5193L27.7125 27.6926C27.7174 27.8027 27.6907 27.9118 27.6356 28.0072C27.5805 28.1026 27.4992 28.1802 27.4014 28.2308L27.2471 28.3106C26.9616 28.4583 26.7101 28.664 26.5086 28.9145C26.3071 29.165 26.1601 29.4547 26.077 29.7653C25.9939 30.0758 25.9765 30.4003 26.0259 30.7179C26.0753 31.0355 26.1905 31.3394 26.364 31.61L26.4567 31.7547C26.5162 31.8476 26.5478 31.9556 26.5478 32.0658C26.5478 32.1761 26.5162 32.2841 26.4567 32.377L26.364 32.5226C26.1905 32.7932 26.0754 33.097 26.0261 33.4146C25.9767 33.7322 25.9942 34.0566 26.0774 34.3671C26.1606 34.6776 26.3077 34.9673 26.5093 35.2176C26.7108 35.468 26.9624 35.6735 27.248 35.8211L27.4014 35.9C27.4992 35.9509 27.5805 36.0286 27.6356 36.1241C27.6907 36.2196 27.7174 36.3289 27.7125 36.439L27.7039 36.6124C27.6758 37.1474 27.8372 37.6752 28.1595 38.1031C28.4819 38.531 28.9447 38.8317 29.4667 38.9524V42.4667ZM38.1333 50.2667L35.8921 48.0255C35.5671 47.7006 35.1263 47.518 34.6667 47.518C34.2071 47.518 33.7662 47.7006 33.4412 48.0255L31.2 50.2667V39.91C31.5601 40.3398 32.0646 40.6234 32.619 40.7076C33.1733 40.7919 33.7393 40.671 34.2108 40.3676L34.3555 40.2749C34.4484 40.2155 34.5564 40.1839 34.6667 40.1839C34.7769 40.1839 34.8849 40.2155 34.9778 40.2749L35.1234 40.3676C35.5948 40.6709 36.1607 40.7918 36.7148 40.7075C37.269 40.6233 37.7734 40.3397 38.1333 39.91V50.2667ZM39.7271 37.1289C39.6699 37.185 39.6022 37.2292 39.5278 37.2589C39.4534 37.2887 39.3739 37.3034 39.2938 37.3022L39.1205 37.2936C38.6795 37.2767 38.2428 37.3848 37.8606 37.6054C37.4785 37.8261 37.1665 38.1503 36.9607 38.5407L36.8827 38.6941C36.8458 38.7654 36.7944 38.8281 36.7318 38.8784C36.6692 38.9287 36.5969 38.9654 36.5193 38.9862C36.4418 39.007 36.3608 39.0114 36.2814 38.9992C36.2021 38.9869 36.1262 38.9583 36.0585 38.9151L35.9129 38.8215C35.5406 38.5838 35.108 38.4574 34.6662 38.4574C34.2245 38.4574 33.7919 38.5838 33.4195 38.8215L33.2748 38.9151C33.2073 38.9583 33.1314 38.9869 33.0522 38.9992C32.973 39.0114 32.892 39.007 32.8146 38.9862C32.7369 38.966 32.6643 38.9295 32.6017 38.8791C32.5391 38.8288 32.4879 38.7657 32.4515 38.6941L32.3717 38.5407C32.1691 38.1477 31.8578 37.8213 31.4749 37.6002C31.092 37.3791 30.6537 37.2726 30.212 37.2936L30.0387 37.3022C29.9579 37.3062 29.8773 37.2932 29.8019 37.2642C29.7265 37.2351 29.658 37.1905 29.6009 37.1334C29.5437 37.0762 29.4992 37.0078 29.4701 36.9323C29.441 36.8569 29.428 36.7763 29.432 36.6956L29.4407 36.5222C29.4601 36.0808 29.3531 35.6431 29.1321 35.2605C28.9112 34.8779 28.5855 34.5663 28.1935 34.3625L28.0401 34.2845C27.9689 34.2475 27.9061 34.1961 27.8558 34.1336C27.8055 34.071 27.7688 33.9986 27.748 33.9211C27.7272 33.8436 27.7228 33.7626 27.7351 33.6832C27.7473 33.6039 27.7759 33.528 27.8191 33.4603L27.9127 33.3147C28.1505 32.9424 28.2768 32.5098 28.2768 32.068C28.2768 31.6262 28.1505 31.1937 27.9127 30.8213L27.8191 30.6766C27.7759 30.6091 27.7472 30.5332 27.735 30.454C27.7227 30.3747 27.7272 30.2938 27.7481 30.2164C27.7683 30.1386 27.8048 30.0661 27.8551 30.0035C27.9055 29.9409 27.9685 29.8897 28.0401 29.8532L28.1935 29.7735C28.5857 29.5699 28.9114 29.2584 29.1324 28.8757C29.3534 28.4931 29.4603 28.0552 29.4407 27.6138L29.432 27.4404C29.428 27.3597 29.441 27.2791 29.4701 27.2037C29.4992 27.1283 29.5437 27.0598 29.6009 27.0026C29.658 26.9455 29.7265 26.9009 29.8019 26.8719C29.8773 26.8428 29.9579 26.8298 30.0387 26.8338L30.212 26.8424C30.6536 26.8631 31.0918 26.7565 31.4747 26.5354C31.8575 26.3144 32.1688 25.9881 32.3717 25.5953L32.4497 25.4419C32.4867 25.3707 32.5381 25.3079 32.6007 25.2576C32.6632 25.2073 32.7356 25.1706 32.8131 25.1498C32.8907 25.129 32.9717 25.1246 33.051 25.1368C33.1304 25.1491 33.2063 25.1777 33.2739 25.2209L33.4195 25.3145C33.7918 25.5522 34.2242 25.6785 34.6658 25.6785C35.1074 25.6785 35.5398 25.5522 35.9121 25.3145L36.0568 25.2209C36.1244 25.1777 36.2002 25.1491 36.2795 25.1369C36.3588 25.1246 36.4397 25.129 36.5172 25.1498C36.5947 25.1706 36.667 25.2073 36.7294 25.2576C36.7919 25.3079 36.8433 25.3707 36.8801 25.4419L36.9599 25.5953C37.1633 25.9877 37.4747 26.3136 37.8574 26.5346C38.2401 26.7556 38.6781 26.8624 39.1196 26.8424L39.2929 26.8338C39.3732 26.8311 39.4532 26.8451 39.5278 26.8749C39.6024 26.9048 39.67 26.9498 39.7263 27.0071C39.784 27.0631 39.8293 27.1306 39.8591 27.2053C39.889 27.28 39.9028 27.3601 39.8996 27.4404L39.8909 27.6138C39.8715 28.0552 39.9785 28.4929 40.1995 28.8755C40.4204 29.2582 40.7461 29.5697 41.1381 29.7735L41.2915 29.8515C41.3627 29.8885 41.4255 29.9399 41.4758 30.0024C41.5261 30.065 41.5628 30.1374 41.5836 30.2149C41.6044 30.2924 41.6088 30.3735 41.5965 30.4528C41.5843 30.5321 41.5557 30.608 41.5125 30.6757L41.4189 30.8213C41.1811 31.1937 41.0548 31.6262 41.0548 32.068C41.0548 32.5098 41.1811 32.9424 41.4189 33.3147L41.5125 33.4594C41.5557 33.527 41.5844 33.6028 41.5966 33.682C41.6089 33.7613 41.6044 33.8422 41.5835 33.9196C41.5633 33.9974 41.5268 34.07 41.4765 34.1326C41.4261 34.1952 41.3631 34.2464 41.2915 34.2828L41.1381 34.3625C40.7459 34.5661 40.4202 34.8777 40.1992 35.2603C39.9782 35.643 39.8713 36.0808 39.8909 36.5222L39.8996 36.6956C39.9027 36.7756 39.8889 36.8553 39.8592 36.9297C39.8295 37.004 39.7845 37.0713 39.7271 37.1272V37.1289ZM50.2667 45.0667C50.2667 45.2966 50.1754 45.517 50.0128 45.6795C49.8503 45.8421 49.6299 45.9334 49.4 45.9334H39.8667V44.2H42.4667C42.6965 44.2 42.917 44.1087 43.0795 43.9462C43.242 43.7837 43.3333 43.5632 43.3333 43.3334C43.3347 42.1845 43.7917 41.0831 44.6041 40.2708C45.4164 39.4584 46.5178 39.0014 47.6667 39C47.8965 39 48.117 38.9087 48.2795 38.7462C48.442 38.5837 48.5333 38.3632 48.5333 38.1334V13.8667C48.5333 13.6369 48.442 13.4164 48.2795 13.2539C48.117 13.0914 47.8965 13 47.6667 13C46.5178 12.9987 45.4164 12.5417 44.6041 11.7293C43.7917 10.917 43.3347 9.81556 43.3333 8.66671C43.3333 8.43685 43.242 8.21641 43.0795 8.05388C42.917 7.89135 42.6965 7.80004 42.4667 7.80004H9.53333C9.30348 7.80004 9.08304 7.89135 8.92051 8.05388C8.75798 8.21641 8.66667 8.43685 8.66667 8.66671C8.66529 9.81556 8.2083 10.917 7.39594 11.7293C6.58358 12.5417 5.48218 12.9987 4.33333 13C4.10348 13 3.88304 13.0914 3.72051 13.2539C3.55798 13.4164 3.46667 13.6369 3.46667 13.8667V38.1334C3.46667 38.3632 3.55798 38.5837 3.72051 38.7462C3.88304 38.9087 4.10348 39 4.33333 39C5.48218 39.0014 6.58358 39.4584 7.39594 40.2708C8.2083 41.0831 8.66529 42.1845 8.66667 43.3334C8.66667 43.5632 8.75798 43.7837 8.92051 43.9462C9.08304 44.1087 9.30348 44.2 9.53333 44.2H29.4667V45.9334H2.6C2.37015 45.9334 2.14971 45.8421 1.98717 45.6795C1.82464 45.517 1.73333 45.2966 1.73333 45.0667V6.93337C1.73333 6.70352 1.82464 6.48308 1.98717 6.32055C2.14971 6.15802 2.37015 6.06671 2.6 6.06671H49.4C49.6299 6.06671 49.8503 6.15802 50.0128 6.32055C50.1754 6.48308 50.2667 6.70352 50.2667 6.93337V45.0667Z" fill="white"/>
<path d="M43.8037 17.3464C43.8574 17.1108 43.8612 16.8666 43.815 16.6294C43.7687 16.3922 43.6734 16.1674 43.5351 15.9692L41.0408 12.3821C40.8026 12.04 40.4492 11.7952 40.0452 11.6926C39.6412 11.5899 39.2138 11.6362 38.8412 11.8231C37.3774 12.5667 33.1931 14.3 25.9998 14.3C18.8238 14.3 14.6465 12.5771 13.1801 11.837C12.8092 11.6518 12.3842 11.6057 11.9823 11.707C11.5803 11.8083 11.228 12.0502 10.9891 12.389L8.4758 15.9632C8.3364 16.1609 8.23994 16.3857 8.19264 16.6229C8.14533 16.8602 8.14822 17.1048 8.20112 17.3408C8.25402 17.5769 8.35576 17.7993 8.49979 17.9937C8.64382 18.1881 8.82695 18.3502 9.0374 18.4696C10.9692 19.5607 16.4907 22.1 25.9998 22.1C35.5089 22.1 41.0365 19.559 42.9683 18.467C43.1777 18.3484 43.3601 18.1876 43.504 17.9946C43.6478 17.8017 43.7499 17.5809 43.8037 17.3464ZM25.9998 20.3667C16.8998 20.3667 11.6998 17.9842 9.89193 16.9616L12.3975 13.3831C13.9722 14.1796 18.4511 16.0334 25.9998 16.0334C33.5719 16.0334 38.0525 14.1692 39.6186 13.3718L42.1198 16.9572C40.2998 17.9825 35.0998 20.3667 25.9998 20.3667Z" fill="white"/>
<path d="M9.53366 26.8666H14.7337C14.9635 26.8666 15.184 26.7753 15.3465 26.6128C15.509 26.4503 15.6003 26.2298 15.6003 26C15.6003 25.7701 15.509 25.5497 15.3465 25.3871C15.184 25.2246 14.9635 25.1333 14.7337 25.1333H9.53366C9.3038 25.1333 9.08336 25.2246 8.92083 25.3871C8.7583 25.5497 8.66699 25.7701 8.66699 26C8.66699 26.2298 8.7583 26.4503 8.92083 26.6128C9.08336 26.7753 9.3038 26.8666 9.53366 26.8666Z" fill="white"/>
<path d="M14.7337 32.0667H9.53366C9.3038 32.0667 9.08336 32.158 8.92083 32.3205C8.7583 32.483 8.66699 32.7035 8.66699 32.9333C8.66699 33.1632 8.7583 33.3836 8.92083 33.5461C9.08336 33.7087 9.3038 33.8 9.53366 33.8H14.7337C14.9635 33.8 15.184 33.7087 15.3465 33.5461C15.509 33.3836 15.6003 33.1632 15.6003 32.9333C15.6003 32.7035 15.509 32.483 15.3465 32.3205C15.184 32.158 14.9635 32.0667 14.7337 32.0667Z" fill="white"/>
<path d="M25.133 25.1333H18.1997C17.9698 25.1333 17.7494 25.2246 17.5868 25.3871C17.4243 25.5497 17.333 25.7701 17.333 26C17.333 26.2298 17.4243 26.4503 17.5868 26.6128C17.7494 26.7753 17.9698 26.8666 18.1997 26.8666H25.133C25.3629 26.8666 25.5833 26.7753 25.7458 26.6128C25.9084 26.4503 25.9997 26.2298 25.9997 26C25.9997 25.7701 25.9084 25.5497 25.7458 25.3871C25.5833 25.2246 25.3629 25.1333 25.133 25.1333Z" fill="white"/>
<path d="M9.53366 30.3333H23.4003C23.6302 30.3333 23.8506 30.242 24.0132 30.0795C24.1757 29.9169 24.267 29.6965 24.267 29.4666C24.267 29.2368 24.1757 29.0163 24.0132 28.8538C23.8506 28.6913 23.6302 28.6 23.4003 28.6H9.53366C9.3038 28.6 9.08336 28.6913 8.92083 28.8538C8.7583 29.0163 8.66699 29.2368 8.66699 29.4666C8.66699 29.6965 8.7583 29.9169 8.92083 30.0795C9.08336 30.242 9.3038 30.3333 9.53366 30.3333Z" fill="white"/>
<path d="M34.6668 26.8667C33.6383 26.8667 32.633 27.1717 31.7778 27.7431C30.9227 28.3144 30.2562 29.1266 29.8626 30.0767C29.469 31.0269 29.3661 32.0725 29.5667 33.0812C29.7674 34.0899 30.2626 35.0164 30.9898 35.7437C31.7171 36.4709 32.6436 36.9661 33.6523 37.1668C34.661 37.3674 35.7066 37.2645 36.6568 36.8709C37.6069 36.4773 38.4191 35.8108 38.9904 34.9557C39.5618 34.1005 39.8668 33.0952 39.8668 32.0667C39.8654 30.688 39.3171 29.3662 38.3422 28.3913C37.3673 27.4164 36.0455 26.8681 34.6668 26.8667ZM34.6668 35.5334C33.9812 35.5334 33.3109 35.33 32.7408 34.9491C32.1707 34.5682 31.7264 34.0268 31.464 33.3933C31.2016 32.7599 31.133 32.0629 31.2667 31.3904C31.4005 30.7179 31.7307 30.1002 32.2155 29.6154C32.7003 29.1306 33.318 28.8004 33.9905 28.6666C34.663 28.5329 35.36 28.6015 35.9934 28.8639C36.6269 29.1263 37.1683 29.5706 37.5492 30.1407C37.9302 30.7108 38.1335 31.3811 38.1335 32.0667C38.1335 32.9861 37.7682 33.8679 37.1181 34.518C36.468 35.1681 35.5862 35.5334 34.6668 35.5334Z" fill="white"/>
<path d="M19.933 38.1333H18.1997C17.9698 38.1333 17.7494 38.2246 17.5868 38.3871C17.4243 38.5497 17.333 38.7701 17.333 39C17.333 39.2298 17.4243 39.4503 17.5868 39.6128C17.7494 39.7753 17.9698 39.8666 18.1997 39.8666H19.933C20.1629 39.8666 20.3833 39.7753 20.5458 39.6128C20.7084 39.4503 20.7997 39.2298 20.7997 39C20.7997 38.7701 20.7084 38.5497 20.5458 38.3871C20.3833 38.2246 20.1629 38.1333 19.933 38.1333Z" fill="white"/>
<path d="M14.7338 38.1333H13.0005C12.7706 38.1333 12.5502 38.2246 12.3876 38.3871C12.2251 38.5497 12.1338 38.7701 12.1338 39C12.1338 39.2298 12.2251 39.4503 12.3876 39.6128C12.5502 39.7753 12.7706 39.8666 13.0005 39.8666H14.7338C14.9636 39.8666 15.1841 39.7753 15.3466 39.6128C15.5091 39.4503 15.6005 39.2298 15.6005 39C15.6005 38.7701 15.5091 38.5497 15.3466 38.3871C15.1841 38.2246 14.9636 38.1333 14.7338 38.1333Z" fill="white"/>
<path d="M25.1332 38.1333H23.3999C23.17 38.1333 22.9496 38.2246 22.787 38.3871C22.6245 38.5497 22.5332 38.7701 22.5332 39C22.5332 39.2298 22.6245 39.4503 22.787 39.6128C22.9496 39.7753 23.17 39.8666 23.3999 39.8666H25.1332C25.3631 39.8666 25.5835 39.7753 25.746 39.6128C25.9086 39.4503 25.9999 39.2298 25.9999 39C25.9999 38.7701 25.9086 38.5497 25.746 38.3871C25.5835 38.2246 25.3631 38.1333 25.1332 38.1333Z" fill="white"/>
</g>
<defs>
<clipPath id="clip0_421_1137">
<rect width="52" height="52" fill="white"/>
</clipPath>
</defs>
</svg>
