<svg width="26" height="26" viewBox="0 0 26 26" fill="none" xmlns="http://www.w3.org/2000/svg">
<g clip-path="url(#clip0_316_844)">
<path d="M0.507293 9.68627C0.713414 9.68627 0.903235 9.55652 0.979051 9.36518C1.05705 9.1684 1.00165 8.93643 0.842094 8.79678C0.680203 8.6551 0.439805 8.63184 0.253489 8.73904C0.0670706 8.84634 -0.0325622 9.06719 0.00958625 9.27799C0.0564066 9.51199 0.268367 9.68627 0.507293 9.68627Z" fill="#ff0000"/>
<path d="M20.86 9.66242C20.9237 8.79531 20.8247 7.97466 20.5651 7.22014C19.9077 5.30991 18.5535 3.90101 16.8499 3.35464C14.4821 2.59539 12.4572 3.74069 11.14 4.66823C10.7209 4.96327 10.1577 4.96327 9.73866 4.66823C8.42142 3.74069 6.39642 2.59544 4.0288 3.35464C2.48476 3.84977 1.23851 5.03416 0.519538 6.68957C0.407817 6.94678 0.525784 7.24589 0.783047 7.35766C1.04016 7.46938 1.33937 7.35141 1.45114 7.09415C2.05189 5.71089 3.07744 4.72632 4.33898 4.32179C6.23651 3.71327 7.94493 4.65716 9.08525 5.45058C9.47815 6.15909 10.1136 6.68601 10.8873 6.94165C11.219 7.05119 11.5598 7.10558 11.8992 7.10558C12.3945 7.10558 12.8867 6.98974 13.3419 6.76056C13.5924 6.63447 13.6933 6.32911 13.5672 6.07866C13.4411 5.8281 13.1357 5.72729 12.8853 5.85339C12.3603 6.11761 11.7639 6.16163 11.2059 5.97729C11.1033 5.94337 11.0042 5.90249 10.9092 5.85506C11.1969 5.79351 11.4748 5.67473 11.7248 5.49872C12.8645 4.69616 14.6037 3.70108 16.5397 4.32184C17.9354 4.76939 19.0526 5.94627 19.6047 7.55063C19.8127 8.15499 19.8955 8.81659 19.8517 9.52073C19.7186 9.51256 19.5845 9.50839 19.4495 9.50839C15.8374 9.50839 12.8986 12.4688 12.8986 16.1076C12.8986 17.8996 13.6113 19.527 14.7662 20.7174C14.6699 20.9214 14.5747 21.1235 14.4811 21.3227C14.2637 21.7852 13.8304 21.9088 13.4978 21.8703C13.1648 21.8318 12.7711 21.6124 12.6651 21.1123L11.4699 15.4777C11.4681 15.4689 11.4659 15.46 11.4636 15.4513C11.3373 14.9816 10.9258 14.6659 10.4393 14.6659C9.95292 14.6659 9.54127 14.9816 9.41508 15.4513C9.41274 15.46 9.41061 15.4689 9.40873 15.4777L8.21357 21.1123C8.10748 21.6124 7.71387 21.8318 7.38084 21.8703C7.04791 21.9088 6.61489 21.7852 6.39754 21.3227C4.50372 17.2935 3.30967 14.907 2.84842 14.2294C2.18875 13.2602 1.69652 12.2827 1.38553 11.3242C1.299 11.0574 1.01243 10.9113 0.745773 10.9978C0.479013 11.0844 0.332913 11.3708 0.419446 11.6376C0.760195 12.6878 1.29493 13.7521 2.00878 14.8009C2.42779 15.4165 3.65997 17.8861 5.47833 21.7548C5.81172 22.4641 6.49418 22.8931 7.25871 22.8931C7.33752 22.8931 7.4173 22.8885 7.49754 22.8792C8.35657 22.7798 9.02761 22.169 9.20708 21.323L10.3986 15.7053C10.4033 15.6915 10.411 15.6816 10.4393 15.6816C10.4675 15.6816 10.4753 15.6915 10.4799 15.7053L11.6715 21.323C11.851 22.1689 12.522 22.7798 13.381 22.8792C14.24 22.9785 15.0325 22.5372 15.4003 21.7547C15.4531 21.6423 15.5065 21.5289 15.5603 21.4148C16.6487 22.2264 17.9945 22.7068 19.4496 22.7068C23.0617 22.7068 26.0004 19.7464 26.0004 16.1076C26.0004 12.9564 23.7966 10.3141 20.86 9.66242ZM19.4496 21.6912C16.3974 21.6912 13.9143 19.1864 13.9143 16.1076C13.9143 13.0288 16.3974 10.524 19.4496 10.524C22.5017 10.524 24.9848 13.0288 24.9848 16.1076C24.9848 19.1864 22.5017 21.6912 19.4496 21.6912Z" fill="#ff0000"/>
<path d="M21.8756 14.3657H21.1804V13.6601C21.1804 13.0379 20.6764 12.5317 20.057 12.5317H18.8404C18.221 12.5317 17.717 13.0379 17.717 13.6601V14.3657H17.0218C16.4024 14.3657 15.8984 14.8718 15.8984 15.494V16.7213C15.8984 17.3434 16.4024 17.8496 17.0218 17.8496H17.717V18.5552C17.717 19.1774 18.221 19.6836 18.8404 19.6836H20.057C20.6764 19.6836 21.1804 19.1774 21.1804 18.5552V17.8496H21.8756C22.495 17.8496 22.999 17.3435 22.999 16.7213V15.494C22.999 14.8718 22.495 14.3657 21.8756 14.3657ZM21.9833 16.7212C21.9833 16.7834 21.935 16.8339 21.8756 16.8339H20.6725C20.3921 16.8339 20.1647 17.0613 20.1647 17.3417V18.5552C20.1647 18.6173 20.1164 18.6679 20.057 18.6679H18.8404C18.781 18.6679 18.7327 18.6173 18.7327 18.5552V17.3417C18.7327 17.0613 18.5053 16.8339 18.2248 16.8339H17.0218C16.9624 16.8339 16.9141 16.7834 16.9141 16.7212V15.494C16.9141 15.4318 16.9624 15.3813 17.0218 15.3813H18.2248C18.5053 15.3813 18.7327 15.1539 18.7327 14.8735V13.6601C18.7327 13.5979 18.781 13.5474 18.8404 13.5474H20.057C20.1164 13.5474 20.1647 13.5979 20.1647 13.6601V14.8735C20.1647 15.154 20.3921 15.3813 20.6725 15.3813H21.8756C21.935 15.3813 21.9833 15.4319 21.9833 15.494V16.7212Z" fill="#ff0000"/>
</g>
<defs>
<clipPath id="clip0_316_844">
<rect width="26" height="26" fill="white"/>
</clipPath>
</defs>
</svg>
